<svg xmlns="http://www.w3.org/2000/svg" xmlns:xlink="http://www.w3.org/1999/xlink" width="635" height="473.541" viewBox="0 0 635 473.541">
  <defs>
    <linearGradient id="linear-gradient" x1="-2.538" y1="-0.321" x2="-2.538" y2="-0.323" gradientUnits="objectBoundingBox">
      <stop offset="0" stop-color="#ff5a00"/>
      <stop offset="1" stop-color="#ffbe00"/>
    </linearGradient>
    <linearGradient id="linear-gradient-2" x1="0" y1="0.5" x2="1" y2="0.5" xlink:href="#linear-gradient"/>
    <linearGradient id="linear-gradient-3" y1="0.5" x2="1" y2="0.5" gradientUnits="objectBoundingBox">
      <stop offset="0" stop-color="#1a65bc"/>
      <stop offset="0.301" stop-color="#0f76d2"/>
      <stop offset="0.691" stop-color="#0488e9"/>
      <stop offset="0.935" stop-color="#008ff2"/>
    </linearGradient>
    <linearGradient id="linear-gradient-4" y1="0.5" x2="1" y2="0.5" gradientUnits="objectBoundingBox">
      <stop offset="0" stop-color="#d109c8"/>
      <stop offset="1" stop-color="#f40019"/>
    </linearGradient>
  </defs>
  <g id="agencia-inbound-marketing" transform="translate(-145 -188)">
    <g id="Grupo_152" data-name="Grupo 152" transform="translate(145 188)">
      <path id="Trazado_509" data-name="Trazado 509" d="M628.78,35.208c42.725,7.907,90.873,60.622,63.983,161.6s-100.055,69.4-73.646,174.142S499.435,517.559,445.519,497.44s-62.441-38.892-157.063-5.145S128.665,446.371,146.83,377.023c21.219-81-159.6-100.37-40.164-223.8C199.723,57.052,497.194,10.854,628.78,35.208Z" transform="translate(-65.537 -28.793)" opacity="0.08" fill="url(#linear-gradient)"/>
      <g id="Grupo_10" data-name="Grupo 10" transform="translate(120.976 71.307)">
        <g id="Grupo_6" data-name="Grupo 6" transform="translate(0 0.319)">
          <g id="Grupo_4" data-name="Grupo 4" transform="translate(4.017)">
            <path id="Trazado_320" data-name="Trazado 320" d="M288.035,170.98a2.109,2.109,0,0,1-1.877-1.145l-8.509-16.552a2.109,2.109,0,1,1,3.75-1.931l8.509,16.552a2.11,2.11,0,0,1-1.873,3.076Z" transform="translate(-277.415 -150.206)" fill="#b3b3b3"/>
          </g>
          <g id="Grupo_5" data-name="Grupo 5" transform="translate(0 4.02)">
            <path id="Trazado_321" data-name="Trazado 321" d="M272.716,169.755a2.11,2.11,0,0,1-.967-3.987l16.543-8.514a2.11,2.11,0,0,1,1.93,3.753l-16.543,8.514A2.1,2.1,0,0,1,272.716,169.755Z" transform="translate(-270.605 -157.021)" fill="#b3b3b3"/>
          </g>
        </g>
        <g id="Grupo_9" data-name="Grupo 9" transform="translate(2.653)">
          <g id="Grupo_7" data-name="Grupo 7" transform="translate(4.017)">
            <path id="Trazado_322" data-name="Trazado 322" d="M292.531,170.439a2.109,2.109,0,0,1-1.877-1.145l-8.509-16.552a2.109,2.109,0,1,1,3.75-1.931l8.509,16.552a2.11,2.11,0,0,1-1.873,3.076Z" transform="translate(-281.911 -149.665)" fill="#303030"/>
          </g>
          <g id="Grupo_8" data-name="Grupo 8" transform="translate(0 4.02)">
            <path id="Trazado_323" data-name="Trazado 323" d="M277.213,169.214a2.111,2.111,0,0,1-.967-3.987l16.543-8.514a2.11,2.11,0,0,1,1.93,3.753l-16.543,8.514A2.1,2.1,0,0,1,277.213,169.214Z" transform="translate(-275.102 -156.48)" fill="#303030"/>
          </g>
        </g>
      </g>
      <g id="Grupo_151" data-name="Grupo 151" transform="translate(58.839 8.126)">
        <path id="Trazado_324" data-name="Trazado 324" d="M871.24,526.861s-11.609-12.277,1.969-22.824c0,0,8.775-4.672,6.409-17.523s1.9-22.974,13.968-23.927,35.077,7.054,34.54,15.309a8.673,8.673,0,0,1-.152,5.821c-2.609,7.9-6.2,17.417-3.3,20.45a27.771,27.771,0,0,0,8.507,6.114c9.806,4.467,15.51,9.911,15.51,20.811,0,16.716-29.468,8.041-29.468,8.041Z" transform="translate(-452.874 -214.773)" fill="#fff"/>
        <g id="Grupo_150" data-name="Grupo 150">
          <path id="Trazado_325" data-name="Trazado 325" d="M470.85,278.455a65.194,65.194,0,1,1-65.193-65.193A65.194,65.194,0,0,1,470.85,278.455Z" transform="translate(-237.114 -112.564)" opacity="0.5" fill="url(#linear-gradient-2)"/>
          <rect id="Rectángulo_6" data-name="Rectángulo 6" width="217.226" height="265.386" rx="3.002" transform="translate(194.545 156.168)" fill="#fff"/>
          <path id="Trazado_326" data-name="Trazado 326" d="M230.082,620.722s-8.924,3.524-14.089,10.711-16.874,24.23-20.52,36.4-7.414,18.091-7.694,28.711.014,19.737,3.438,24.93l108.059.317,5.632-70.594s-7.118-16.223-14.685-23.549-17.234-12.053-24.431-11.773Z" transform="translate(-174.47 -277.659)" opacity="0.53" fill="url(#linear-gradient-3)"/>
          <path id="Trazado_327" data-name="Trazado 327" d="M380.652,734.185h90.41a13.782,13.782,0,0,0,13.119-9.065L505.624,663.2c2.964-8.56-3.7-17.383-13.119-17.383H402.094a13.782,13.782,0,0,0-13.119,9.063L367.534,716.8C364.57,725.361,371.229,734.185,380.652,734.185Z" transform="translate(-247.923 -289.94)" fill="#1a1a1a"/>
          <path id="Trazado_328" data-name="Trazado 328" d="M713.989,124.962s-6.615-7.31-5.6-12.308,5.535-9.077,9.133-9.5,8.135,1.755,8.135,1.755,3.161-3.443,11.082-1.355,12.4,11.659,12.4,11.659,8.455,1.186,8.409,9.382-5.172,15.933-11.5,20.781-5.539,5.032-7.3,4.776-4.584-.992-3.263-8.065l-3.774-11.01s-5.947-.557-2.13-8.065c0,0-5.485-6.538-12.776-6.33Z" transform="translate(-387.945 -67.299)" opacity="0.5" fill="url(#linear-gradient-4)"/>
          <path id="Trazado_329" data-name="Trazado 329" d="M810.16,638.4v27.521h92.665l-.279-19.819a27.2,27.2,0,0,0,15.46-17.622c3.683-13.3.089-24.793-1.619-30.673s-8.267-23.949-12.051-32.172-8.344-19.7-10.912-24.033-7.776-11.835-16.419-14.856-18.7-3.033-18.7-3.033l-17.449-.353a56.235,56.235,0,0,0-13.794,3.328c-8.146,2.946-13.073,4.432-21.511,2.974s-14.686-8.019-18.088-13.993-6.6-17.566-7.361-22.428-1.061-11.062-1.061-11.062-2.062-3.1-15.88-2.479-17.41,2.612-17.594,3.146,1.276,14.63,4.608,26.991,10.347,27.846,18.61,37.288,22.129,21.193,38.146,23.374Z" transform="translate(-403.229 -221.79)" opacity="0.53" fill="url(#linear-gradient-3)"/>
          <path id="Trazado_330" data-name="Trazado 330" d="M907.126,630.3l-57.483.44s-10.787,1.44-11.829,13,.39,43.9.39,43.9,1.316,11.636,11.451,12.93l55.55-.594a164.086,164.086,0,0,1-17.915-13.006,136.284,136.284,0,0,1-13.079-12.5s6.933-17.4,17.871-25.728l27.5,19.791S909.985,643.625,907.126,630.3Z" transform="translate(-440.907 -283.578)" fill="#1a1a1a"/>
          <path id="Trazado_331" data-name="Trazado 331" d="M720.16,631.206V659.28H692.086a28.074,28.074,0,1,0,28.074-28.074Z" transform="translate(-381.304 -283.95)" opacity="0.5" fill="url(#linear-gradient-4)"/>
          <path id="Trazado_332" data-name="Trazado 332" d="M678.271,641.857h27.747V614.112a27.092,27.092,0,0,0-20.135,8.657C677.14,632.2,678.271,641.857,678.271,641.857Z" transform="translate(-375.619 -276.934)" fill="#ffce26"/>
          <path id="Trazado_333" data-name="Trazado 333" d="M318.821,543.316a13.333,13.333,0,0,1,3.043,5.848,14.183,14.183,0,0,1-3.092,11.618s.409,12.671-8.86,12.5l-.658,10.052s1.022,11.4-2.466,11.762-8.709-6.93-8.709-6.93,4-5.3,3.875-10.044-.063-8.112-4.176-14.083-4.519-10.135-3.534-12.481,3.249-7.855,3.346-9.5a50.963,50.963,0,0,0-1.03-7.144,7.534,7.534,0,0,1,2.261,3.938,25.492,25.492,0,0,1,.051,4.531l4.945-.21Z" transform="translate(-217.977 -244.463)" fill="#fff"/>
          <path id="Trazado_334" data-name="Trazado 334" d="M291.262,764.157s12.212-5.959,14.87-6.088,4.127-.156,4.127-.156a10.165,10.165,0,0,1,10.17-1.031s2.884-2.429,5.795-2.024,4.558,3.752,4.558,3.752-1.436,5.072-1.177,7.133,1.846,8.943,7.12,11.419c0,0-2.116,2.708-7.136-.49a12.91,12.91,0,0,1-9.533,1.621s-3.223,1-5.175.287a9.975,9.975,0,0,1-4.338-3.092,45.609,45.609,0,0,1-2.441-4.7s-.337,8.1-10.094,7.756c0,0-3.471-1.282-5.624-6A13.167,13.167,0,0,1,291.262,764.157Z" transform="translate(-216.837 -334.637)" fill="#fff"/>
          <path id="Trazado_335" data-name="Trazado 335" d="M900.132,653.411s-2.264-4.424-4.184-8.6-3-7.764-5.689-7.294-1.934,4.935-1.446,6.476,2.544,7.168.391,7.792-5.183-.58-8.364-3.406-8.661-8.13-8.661-8.13-3.081-2.036-5.014-.353-.3,4.1-.3,4.1-2.586-.117-3.292,1.022-.822,3.005-.139,3.817a4.857,4.857,0,0,0-1.25,6.286c2.108,3.75,10.31,10.8,12.655,12.558s8.168,5.574,10.866,6.038a85.592,85.592,0,0,1,6.4-11.1A77.314,77.314,0,0,1,900.132,653.411Z" transform="translate(-450.77 -286.522)" fill="#fff"/>
          <path id="Trazado_336" data-name="Trazado 336" d="M771.543,469.887s.685-11.587-.553-16.2-2.6-7.734-6.5-8.8-7.611-1.9-7.611-1.9h-4.289l2.652,4.771-3.988,2.078-2.668-4.717s-5.4,1.406-6.157,5.47-.529,11.512,1.7,15.991,4.251,7.269,9.125,6.991,7.375-.741,10.291-2.1,3.281-2.4,3.281-2.4l.827,1.482Z" transform="translate(-401.786 -206.763)" fill="#fff"/>
          <path id="Trazado_337" data-name="Trazado 337" d="M897.53,481.607l-3.173,15.351s-1.54,7.962-.888,11.609,1.056,8.646,8.765,8.717l-.786,6.894s-5.409,14.531,1.23,14.739,9.61-4.592,11.9-7.649a67.415,67.415,0,0,0,4.321-6.738l.382-16.451s7.4,1.773,7.651-5.022-7.643-5.763-7.643-5.763-8.877-4.883-12.938-8.061S897.53,481.607,897.53,481.607Z" transform="translate(-463.819 -222.604)" fill="#fff"/>
          <path id="Trazado_338" data-name="Trazado 338" d="M486.945,713.638c-2.753,4.768-2.442,10.105.7,11.918s7.914-.586,10.669-5.357,2.441-10.106-.7-11.918S489.7,708.868,486.945,713.638Z" transform="translate(-296.412 -315.308)" fill="#ffce26"/>
          <g id="Grupo_12" data-name="Grupo 12" transform="translate(119.987 131.308)">
            <g id="Grupo_11" data-name="Grupo 11">
              <path id="Trazado_339" data-name="Trazado 339" d="M368.667,285.542c2.282-.63,4.378-1.211,6.474-1.789,1.172-.323,2.345-.638,3.516-.971a101.565,101.565,0,0,0,14.8,14.357,5.938,5.938,0,0,0,5.43,1.127,18.593,18.593,0,0,0,5.547-2.534,70.528,70.528,0,0,0,11.541-9.57A212.824,212.824,0,0,0,434.1,265.6a.906.906,0,0,1,1.143-.386c3.507,1,7.023,1.963,10.537,2.938a197.157,197.157,0,0,1-22.592,33.867,82.722,82.722,0,0,1-14.5,14.279,44.737,44.737,0,0,1-5.629,3.439,13.976,13.976,0,0,1-12.863.18,27.164,27.164,0,0,1-10.369-8.639,58.74,58.74,0,0,1-8.772-17.523C370.175,291.08,369.478,288.349,368.667,285.542Z" transform="translate(-368.667 -265.148)" fill="#fff"/>
            </g>
          </g>
          <path id="Trazado_340" data-name="Trazado 340" d="M252.953,581.233s13.929,6.442,21.15,2.206,7.619-10.555,7.316-15.345-4.447-11.1-6.264-13.606-2.183-5.381-1.547-9.22,3.142-6.418,3.346-9.5-1.739-8.154-1.739-8.154,2.967,2.514,3.023,5.482,0,4,0,4l2.831.27a3.433,3.433,0,0,1,1.648-1.068c.762-.071,2.633,1.425,2.633,1.425l9.032-.357s1.753-1.119,2.779-.729a15.248,15.248,0,0,1,1.648.729l1.266.022s.317-7-.884-10.262-2.389-5.745-8.707-6.738-12.675-1.733-18.555,1.88c0,0-15.39-1.107-16.433,12.431,0,0,3.055,17.291,3.817,22.153s1.884,9.471-2.916,11.11-10.619,2.249-12.114,7.72-.862,7.815,1.39,9.665Z" transform="translate(-197.34 -238.17)" fill="#1a1a1a"/>
          <path id="Trazado_341" data-name="Trazado 341" d="M320.689,599.313l-.614,9.4,5.718,1.085a5.557,5.557,0,0,0,2.021-5.24,14.435,14.435,0,0,0-2.3-6.169S321.693,600.019,320.689,599.313Z" transform="translate(-228.754 -270.491)" fill="#1a1a1a"/>
          <path id="Trazado_342" data-name="Trazado 342" d="M608.272,204.447s9.057,29.415,9.657,31.253,2.883,14.565,10.1,13.988,9.42-8.24,10.377-10.593,6.436-16.336,10.6-22.117,10.589-9.684,17.338-10.163,27.608-1.008,33.082,2.694,15.367,15.9,22.85,31.291,9.358,16.843,9.954,23.092l-16.714.432-49.693-.264s-6.119,9.424-12.915,14.721c0,0-5.367,3.312-8.352,4.771a48.131,48.131,0,0,1-20.069,4.236c-8.54-.277-20.609-2.744-28.275-12.984s-10.4-17.081-12.213-23.052-5.088-18.509-6.482-26.5-2.754-15.654-2.754-15.654,2.439-4.683,15.631-6.647S608.272,204.447,608.272,204.447Z" transform="translate(-333.195 -108.09)" fill="#1a1a1a"/>
          <path id="Trazado_343" data-name="Trazado 343" d="M778.079,489.715l2.482,4.681s2.137.78,3.021,0,.573-2.449.573-2.449l-2.552-4.738S779.554,489.514,778.079,489.715Z" transform="translate(-416.567 -224.901)" fill="#fff"/>
          <path id="Trazado_344" data-name="Trazado 344" d="M718.332,169.636v-4.544s-7.8-.913-9.394-3.843a9.16,9.16,0,0,1-1.036-7.08,45.206,45.206,0,0,0,1.111-5.6s-4.547-3.212-4.045-4.981,6.922-6.024,6.922-6.024l2.688-11.576s10.474,1.439,13.148,6.871c0,0-2.652,7.209,2.233,7.641a6.089,6.089,0,0,1,6.191-2.207c3.832,1.006,5.289,3,5.6,6.844s-3.4,6.712-8.021,6.373c0,0-1.1,7.443,1.507,7.808a5.914,5.914,0,0,0,4.258-.935l.854,9.309Z" transform="translate(-386.571 -76.773)" fill="#fff"/>
          <path id="Trazado_345" data-name="Trazado 345" d="M593.328,187.254a64.375,64.375,0,0,1-.707-13.174c.356-7.342-.451-8.5.317-11.77s3.8-7.746.955-8.453-6.552-.4-8.043,2.492-2.768,9.661-3.691,10.573-2.865,1.743-4.134,1.3-2.177-1.456-2.954-3.326-2.853-7.553-5.581-10.278-6.25-5.5-9.115-4.6a3.852,3.852,0,0,0-2.953,3.294s-4.262,0-4.194,4.216a15,15,0,0,0,2.522,4.6,39.411,39.411,0,0,1,4.806,7.845c1.165,2.738,3.134,8.477,6.585,11.166s6.218,4.251,6.627,8.782c0,0,2.34.418,9.084-.26A35.832,35.832,0,0,0,593.328,187.254Z" transform="translate(-324.362 -86.556)" fill="#fff"/>
          <path id="Trazado_346" data-name="Trazado 346" d="M620.088,202.882l1.046,6.123s6.561-2.393,6.264-4.059S620.088,202.882,620.088,202.882Z" transform="translate(-351.78 -108.307)" fill="#3a3a3a"/>
          <path id="Trazado_347" data-name="Trazado 347" d="M579.739,208.073s2.859,3.343,2.8,5.719c0,0-7.086.022-7.566-1.543S579.739,208.073,579.739,208.073Z" transform="translate(-333.267 -110.436)" fill="#3a3a3a"/>
          <path id="Trazado_348" data-name="Trazado 348" d="M715.7,205.448l4.162-6.952s24.886-2.789,29.3-2.249l5.569,8.218s-19.222-1.688-24.847-1.218S715.7,205.448,715.7,205.448Z" transform="translate(-390.989 -105.558)" fill="#fff"/>
          <path id="Trazado_349" data-name="Trazado 349" d="M733.3,191.148l-5.678,4.792v-4.132Z" transform="translate(-395.875 -103.496)" fill="#ccc"/>
          <path id="Trazado_350" data-name="Trazado 350" d="M290.765,760.374l12.176-5.547s5.731-1.539,7.215-.7c0,0,4.433-2.869,9.364-1.521a14.291,14.291,0,0,0-4.446-4.148c-2.864-1.666-8.332-3.592-11.872-2.6S292.078,749.947,290.765,760.374Z" transform="translate(-216.735 -330.854)" fill="#1a1a1a"/>
          <path id="Trazado_351" data-name="Trazado 351" d="M309.376,790.271h12.288s-5-3.509-5.832-7.415C315.832,782.856,312.136,789.4,309.376,790.271Z" transform="translate(-224.366 -346.137)" fill="#1a1a1a"/>
          <path id="Trazado_352" data-name="Trazado 352" d="M491.1,642.793,484.644,639H393.922s-10.575-1.72-15.252,9.474L357.5,712.356s-6.007,17.6,14.408,19.013c.139-.6-8.536-4.514-9.129-11.513s6.559-23.25,6.559-23.25l16.318-46.8s5.763-6.846,11.11-6.824Z" transform="translate(-243.764 -287.107)" fill="#fff"/>
          <path id="Trazado_353" data-name="Trazado 353" d="M592.444,93.623A24.341,24.341,0,1,1,568.1,69.282,24.342,24.342,0,0,1,592.444,93.623Z" transform="translate(-320.48 -53.522)" opacity="0.5" fill="url(#linear-gradient-4)"/>
          <path id="Trazado_354" data-name="Trazado 354" d="M585.022,157.413v3.021a37.094,37.094,0,0,1,2.173,5.414c.709,2.5,1.385,5.262,5.291,5.157s3.7-8.95,5.989-11.308l-.016-2.665s-1.963,1.127-6.181,1.04A48.81,48.81,0,0,1,585.022,157.413Z" transform="translate(-337.4 -89.506)" fill="#1a1a1a"/>
          <rect id="Rectángulo_7" data-name="Rectángulo 7" width="13.033" height="16.526" transform="translate(259.395 211.24)" fill="#ffce26"/>
          <rect id="Rectángulo_8" data-name="Rectángulo 8" width="12.946" height="25.158" transform="translate(237.594 202.4)" fill="#1a1a1a"/>
          <path id="Trazado_355" data-name="Trazado 355" d="M320.372,537.362s1.753-1.119,2.779-.729a15.263,15.263,0,0,1,1.648.729l1.266.022s.317-7-.884-10.262-2.389-5.745-8.707-6.738a46.568,46.568,0,0,0-9.618-.775c4.828.644,10.2,2.351,11.69,6.674a27.208,27.208,0,0,1,1.548,11.088Z" transform="translate(-223.333 -238.172)" fill="#fff"/>
          <path id="Trazado_356" data-name="Trazado 356" d="M297.353,584.594c-.3-4.792-4.447-11.1-6.264-13.606s-2.183-5.381-1.549-9.22a12.252,12.252,0,0,1,.519-1.963c-.016,0-2.821,4.745-.967,12.348,1.692,6.938,9.109,23.145-6.764,29.177a13.568,13.568,0,0,0,7.709-1.391C297.261,595.7,297.657,589.384,297.353,584.594Z" transform="translate(-213.275 -254.67)" fill="#fff"/>
          <path id="Trazado_357" data-name="Trazado 357" d="M327.681,598.386a20.812,20.812,0,0,1-2.324.809c.844,2,1.555,5.39.276,10.159l2.326.442a5.553,5.553,0,0,0,2.018-5.24A14.416,14.416,0,0,0,327.681,598.386Z" transform="translate(-230.92 -270.491)" fill="#fff"/>
          <path id="Trazado_358" data-name="Trazado 358" d="M716.775,109.47c.426-3.136,3.015-4.83,5.224-5.718a12.525,12.525,0,0,0-4.48-.451c-3.6.426-8.118,4.5-9.133,9.5s5.6,12.308,5.6,12.308l2.823-8.283c5.87-.168,10.564,4.033,12.173,5.678C727.556,117.016,716.034,114.926,716.775,109.47Z" transform="translate(-387.945 -67.449)" fill="#fff"/>
          <path id="Trazado_359" data-name="Trazado 359" d="M748.812,103.551c-7.92-2.088-11.082,1.355-11.082,1.355l2.716,1.844s3.843-4.758,13.584-.54A14.774,14.774,0,0,0,748.812,103.551Z" transform="translate(-400.021 -67.299)" fill="#fff"/>
          <path id="Trazado_360" data-name="Trazado 360" d="M627.509,329.85s4.4-13.509,19.006-12.572,17.885,11.51,18.771,12.968a38.163,38.163,0,0,1-19.53,4.356C634.09,334.2,627.509,329.85,627.509,329.85Z" transform="translate(-354.823 -155.198)" fill="#ffce26"/>
          <g id="Grupo_16" data-name="Grupo 16" transform="translate(215.239 186.563)">
            <g id="Grupo_13" data-name="Grupo 13">
              <path id="Trazado_361" data-name="Trazado 361" d="M543.712,400.384H530.68c-.55-.549-.55-41.022-.55-41.022.55-.549,13.582-.549,13.582-.549.553.549.553,13.551.553,13.551-1.1,0-1.1-12.453-1.1-12.453h-11.93v39.376h11.93V387.366c1.1,0,1.1,12.469,1.1,12.469A.552.552,0,0,1,543.712,400.384Z" transform="translate(-530.13 -358.813)" fill="#1a1a1a"/>
            </g>
            <g id="Grupo_14" data-name="Grupo 14" transform="translate(21.803 15.288)">
              <path id="Trazado_362" data-name="Trazado 362" d="M580.672,411.011H567.64c-.551-.549-.551-25.735-.551-25.735.551-.549,13.583-.549,13.583-.549.55.549.55,25.735.55,25.735A.55.55,0,0,1,580.672,411.011Zm-12.481-1.1h11.93V385.826h-11.93Z" transform="translate(-567.089 -384.728)" fill="#1a1a1a"/>
            </g>
            <g id="Grupo_15" data-name="Grupo 15" transform="translate(43.605 24.437)">
              <path id="Trazado_363" data-name="Trazado 363" d="M617.628,417.371H604.6c-.55-.549-.55-10.524-.55-10.524,1.1,0,1.1,9.427,1.1,9.427h11.932v-14.94H608.82c0-1.1,8.808-1.1,8.808-1.1.549.549.549,16.586.549,16.586A.549.549,0,0,1,617.628,417.371Z" transform="translate(-604.046 -400.236)" fill="#1a1a1a"/>
            </g>
          </g>
          <g id="Grupo_24" data-name="Grupo 24" transform="translate(304.167 196.289)">
            <g id="Grupo_17" data-name="Grupo 17">
              <path id="Trazado_364" data-name="Trazado 364" d="M747.873,376.4h-67c0-1.1,67-1.1,67-1.1C748.422,376.151,748.178,376.4,747.873,376.4Z" transform="translate(-680.873 -375.299)" fill="#1a1a1a"/>
            </g>
            <g id="Grupo_18" data-name="Grupo 18" transform="translate(39.376 26.314)">
              <path id="Trazado_365" data-name="Trazado 365" d="M775.244,421H747.62c0-1.1,27.624-1.1,27.624-1.1C775.793,420.757,775.549,421,775.244,421Z" transform="translate(-747.62 -419.905)" fill="#1a1a1a"/>
            </g>
            <g id="Grupo_19" data-name="Grupo 19" transform="translate(0 26.314)">
              <path id="Trazado_366" data-name="Trazado 366" d="M714.908,421H680.873c0-1.1,34.035-1.1,34.035-1.1C715.457,420.757,715.211,421,714.908,421Z" transform="translate(-680.873 -419.905)" fill="#1a1a1a"/>
            </g>
            <g id="Grupo_20" data-name="Grupo 20" transform="translate(45.287 36.315)">
              <path id="Trazado_367" data-name="Trazado 367" d="M779.353,437.954H757.64c0-1.1,21.713-1.1,21.713-1.1C779.9,437.711,779.658,437.954,779.353,437.954Z" transform="translate(-757.64 -436.857)" fill="#1a1a1a"/>
            </g>
            <g id="Grupo_21" data-name="Grupo 21" transform="translate(0 36.315)">
              <path id="Trazado_368" data-name="Trazado 368" d="M720.249,437.954H680.873c0-1.1,39.376-1.1,39.376-1.1C720.8,437.711,720.552,437.954,720.249,437.954Z" transform="translate(-680.873 -436.857)" fill="#1a1a1a"/>
            </g>
            <g id="Grupo_22" data-name="Grupo 22" transform="translate(30.598 9.996)">
              <path id="Trazado_369" data-name="Trazado 369" d="M769.142,393.341h-36.4c0-1.1,36.4-1.1,36.4-1.1C769.691,393.1,769.447,393.341,769.142,393.341Z" transform="translate(-732.74 -392.244)" fill="#1a1a1a"/>
            </g>
            <g id="Grupo_23" data-name="Grupo 23" transform="translate(0 9.996)">
              <path id="Trazado_370" data-name="Trazado 370" d="M705.641,393.341H680.873c0-1.1,24.768-1.1,24.768-1.1C706.189,393.1,705.946,393.341,705.641,393.341Z" transform="translate(-680.873 -392.244)" fill="#1a1a1a"/>
            </g>
          </g>
          <g id="Grupo_29" data-name="Grupo 29" transform="translate(210.516 275.222)">
            <g id="Grupo_25" data-name="Grupo 25">
              <path id="Trazado_371" data-name="Trazado 371" d="M589.12,510.2h-67c0-1.1,67-1.1,67-1.1C589.669,509.952,589.425,510.2,589.12,510.2Z" transform="translate(-522.124 -509.1)" fill="#1a1a1a"/>
            </g>
            <g id="Grupo_26" data-name="Grupo 26" transform="translate(0 26.319)">
              <path id="Trazado_372" data-name="Trazado 372" d="M589.12,554.811h-67c0-1.1,67-1.1,67-1.1C589.669,554.565,589.425,554.811,589.12,554.811Z" transform="translate(-522.124 -553.713)" fill="#1a1a1a"/>
            </g>
            <g id="Grupo_27" data-name="Grupo 27" transform="translate(0 36.316)">
              <path id="Trazado_373" data-name="Trazado 373" d="M589.12,571.756h-67c0-1.1,67-1.1,67-1.1C589.669,571.511,589.425,571.756,589.12,571.756Z" transform="translate(-522.124 -570.659)" fill="#1a1a1a"/>
            </g>
            <g id="Grupo_28" data-name="Grupo 28" transform="translate(0 10.001)">
              <path id="Trazado_374" data-name="Trazado 374" d="M589.12,527.15h-67c0-1.1,67-1.1,67-1.1C589.669,526.906,589.425,527.15,589.12,527.15Z" transform="translate(-522.124 -526.052)" fill="#1a1a1a"/>
            </g>
          </g>
          <g id="Grupo_34" data-name="Grupo 34" transform="translate(304.167 275.222)">
            <g id="Grupo_30" data-name="Grupo 30">
              <path id="Trazado_375" data-name="Trazado 375" d="M720.249,510.2H680.873c0-1.1,39.376-1.1,39.376-1.1C720.8,509.952,720.552,510.2,720.249,510.2Z" transform="translate(-680.873 -509.1)" fill="#1a1a1a"/>
            </g>
            <g id="Grupo_31" data-name="Grupo 31" transform="translate(0 26.319)">
              <path id="Trazado_376" data-name="Trazado 376" d="M728.17,554.811h-47.3c0-1.1,47.3-1.1,47.3-1.1C728.718,554.565,728.472,554.811,728.17,554.811Z" transform="translate(-680.873 -553.713)" fill="#1a1a1a"/>
            </g>
            <g id="Grupo_32" data-name="Grupo 32" transform="translate(0 36.316)">
              <path id="Trazado_377" data-name="Trazado 377" d="M732.948,571.756H680.873c0-1.1,52.075-1.1,52.075-1.1C733.5,571.511,733.251,571.756,732.948,571.756Z" transform="translate(-680.873 -570.659)" fill="#1a1a1a"/>
            </g>
            <g id="Grupo_33" data-name="Grupo 33" transform="translate(0 10.001)">
              <path id="Trazado_378" data-name="Trazado 378" d="M723.155,527.15H680.873c0-1.1,42.282-1.1,42.282-1.1C723.7,526.906,723.458,527.15,723.155,527.15Z" transform="translate(-680.873 -526.052)" fill="#1a1a1a"/>
            </g>
          </g>
          <g id="Grupo_35" data-name="Grupo 35" transform="translate(498.772 424.333)">
            <path id="Trazado_379" data-name="Trazado 379" d="M1011.3,780.952c-.2-7.942-.2-7.942-.517-18l-.032-1.094a1.077,1.077,0,0,1,1.133,1.062c.321,10.1.321,10.1,0,16.784C1011.834,780.726,1011.588,780.952,1011.3,780.952Z" transform="translate(-1010.75 -761.859)" fill="#1a1a1a"/>
          </g>
          <g id="Grupo_36" data-name="Grupo 36" transform="translate(463.757 338.324)">
            <path id="Trazado_380" data-name="Trazado 380" d="M966.94,663.8c-9.606-18.412-15.486-47.447-15.545-47.736,1.137.073,6.987,28.965,16.037,46.937C967.109,663.782,967.024,663.8,966.94,663.8Z" transform="translate(-951.395 -616.064)" fill="#1a1a1a"/>
          </g>
          <g id="Grupo_37" data-name="Grupo 37" transform="translate(406.312 416.613)">
            <path id="Trazado_381" data-name="Trazado 381" d="M854.384,776.842c-.549-.683-.321-13.3-.295-28.068,1.072,14.779.848,27.4.844,27.529A.548.548,0,0,1,854.384,776.842Z" transform="translate(-854.02 -748.774)" fill="#1a1a1a"/>
          </g>
          <g id="Grupo_38" data-name="Grupo 38" transform="translate(408.748 323.556)">
            <path id="Trazado_382" data-name="Trazado 382" d="M858.149,615.183a94.189,94.189,0,0,1,4.807-24.151c-.8,5.7-3.16,14.623-4.262,23.672A.545.545,0,0,1,858.149,615.183Z" transform="translate(-858.149 -591.032)" fill="#1a1a1a"/>
          </g>
          <g id="Grupo_39" data-name="Grupo 39" transform="translate(429.018 258.784)">
            <path id="Trazado_383" data-name="Trazado 383" d="M904.838,517.68c-1.1,0-2.181-.022-3.061-.063a12.325,12.325,0,0,1-4.77-.989c-2.207-1.02-3.544-2.92-4.1-5.8-.834-4.357-.194-8.8.428-13.079.462-3.229,3.213-16.181,3.364-16.516.919.824-1.763,13.075-2.189,16.062-.7,4.806-1.326,9.149-.523,13.325.481,2.508,1.619,4.148,3.483,5.01a11.192,11.192,0,0,0,4.352.887c1.8.077,4.465.1,6.361-.035A3.766,3.766,0,0,1,904.838,517.68Z" transform="translate(-892.51 -481.235)" fill="#1a1a1a"/>
          </g>
          <g id="Grupo_40" data-name="Grupo 40" transform="translate(432.337 258.047)">
            <path id="Trazado_384" data-name="Trazado 384" d="M921.258,497.179c-18.719-9.916-22.951-16.875-23.123-17.17.989-.486,5.26,6.466,23.382,16.136C921.644,497.074,921.452,497.179,921.258,497.179Z" transform="translate(-898.135 -479.985)" fill="#1a1a1a"/>
          </g>
          <path id="Trazado_385" data-name="Trazado 385" d="M919.981,503.223c-.428-.124-.743.024-1.07,1.577-.365,1.731.05,2.1.444,2.132s.858-.454,1-1.706S920.54,503.386,919.981,503.223Z" transform="translate(-474.26 -231.454)" fill="#1a1a1a"/>
          <path id="Trazado_386" data-name="Trazado 386" d="M900.3,500.082c-.422-.139-.743,0-1.121,1.539-.424,1.717-.022,2.1.37,2.146s.872-.424,1.056-1.67S900.848,500.265,900.3,500.082Z" transform="translate(-466.15 -230.163)" fill="#1a1a1a"/>
          <g id="Grupo_41" data-name="Grupo 41" transform="translate(432.252 264.965)">
            <path id="Trazado_387" data-name="Trazado 387" d="M897.991,493.319c.454-1.505,1.713-2.08,3.962-1.169a8.568,8.568,0,0,0-3.659,1.08A.553.553,0,0,1,897.991,493.319Z" transform="translate(-897.991 -491.714)" fill="#1a1a1a"/>
          </g>
          <g id="Grupo_42" data-name="Grupo 42" transform="translate(453.82 273.802)">
            <path id="Trazado_388" data-name="Trazado 388" d="M938.132,519.252a6.628,6.628,0,0,1-3.581-1.116,8.175,8.175,0,0,1,3.237,0,5.008,5.008,0,0,0,3.752-1.274,5.182,5.182,0,0,0-3.077-9.063,5,5,0,0,0-2.948.7,2.6,2.6,0,0,1,3.019-1.8,6.28,6.28,0,0,1-.4,12.546Z" transform="translate(-934.551 -506.692)" fill="#1a1a1a"/>
          </g>
          <g id="Grupo_43" data-name="Grupo 43" transform="translate(454.43 276.599)">
            <path id="Trazado_389" data-name="Trazado 389" d="M939.43,518.508c-.391-.159-3.845-3.609-3.845-3.609.123-.872,4.761-3.465,4.761-3.465.536.963-3.467,3.2-3.467,3.2l2.942,2.934C939.712,518.453,939.571,518.508,939.43,518.508Z" transform="translate(-935.585 -511.434)" fill="#1a1a1a"/>
          </g>
          <g id="Grupo_44" data-name="Grupo 44" transform="translate(435.069 294.627)">
            <path id="Trazado_390" data-name="Trazado 390" d="M907.43,564.522a9.334,9.334,0,0,1-1.773-.172,3.058,3.058,0,0,1-2.157-1.569c-2.1-3.669.947-12.641,1.281-13.6l.541-7.185c1.1.081.553,7.34.553,7.34-.064.236-3.342,9.543-1.424,12.9a1.989,1.989,0,0,0,1.414,1.034c9.522,1.826,16.146-14.056,16.213-14.219C922.826,550.117,916.814,564.522,907.43,564.522Z" transform="translate(-902.767 -541.993)" fill="#1a1a1a"/>
          </g>
          <g id="Grupo_45" data-name="Grupo 45" transform="translate(437.733 282.485)">
            <path id="Trazado_391" data-name="Trazado 391" d="M909.481,525.283a5.742,5.742,0,0,1-2.2-.489c1.605-.525,2.612-.48,3.432-.9a4.1,4.1,0,0,0,1.777-2.484c1.052.334.541,2.526-1.274,3.458A3.688,3.688,0,0,1,909.481,525.283Z" transform="translate(-907.282 -521.412)" fill="#1a1a1a"/>
          </g>
          <g id="Grupo_46" data-name="Grupo 46" transform="translate(413.51 247.292)">
            <path id="Trazado_392" data-name="Trazado 392" d="M944.944,538.748c3.8-3.7,3.613-11.169,1.92-15.306a21.844,21.844,0,0,0-7.445-9.04,54.082,54.082,0,0,0-8.392-4.81l-.949-.477c-2.206-1.1-5.281-2.914-6.482-5.88-1.6-3.938-.563-7.607.658-10.676.225-.566.465-1.143.707-1.731,1.395-3.384,2.977-7.213,2.809-10.783-.149-3.111-1.7-7.158-4.388-8.877a49.9,49.9,0,0,0-9.543-4.955c-2.294-.816-22.666-7.789-30.227,1.056-2.49,2.91-3.871,7.023-4.235,12.572a25.3,25.3,0,0,0,.562,5.918,27.008,27.008,0,0,1,.585,5.915,15.708,15.708,0,0,1-4.1,9.921A20.2,20.2,0,0,1,873.6,504a22.288,22.288,0,0,0-2.334,1.918A13.36,13.36,0,0,0,868,511.111c-1.1,3.243-1.228,7.73,1.714,10.6-4.075-2.435-3.962-7.391-2.755-10.949a14.5,14.5,0,0,1,3.536-5.623,22.943,22.943,0,0,1,2.449-2.016,19.155,19.155,0,0,0,2.675-2.268,14.623,14.623,0,0,0,3.813-9.23,25.976,25.976,0,0,0-.573-5.672,26.41,26.41,0,0,1-.576-6.179c.379-5.795,1.851-10.119,4.5-13.216,8.034-9.414,29.057-2.227,31.432-1.375a50.753,50.753,0,0,1,9.763,5.066c3.142,2.007,4.741,6.46,4.9,9.747.182,3.817-1.451,7.766-2.889,11.252-.243.585-.479,1.161-.7,1.724-1.143,2.865-2.114,6.278-.668,9.852,1.066,2.625,3.912,4.289,5.957,5.317l.949.471a55.309,55.309,0,0,1,8.555,4.915,22.813,22.813,0,0,1,7.807,9.5c1.836,4.479,1.959,12.621-2.629,15.633A.538.538,0,0,1,944.944,538.748Z" transform="translate(-866.222 -461.754)" fill="#1a1a1a"/>
          </g>
          <g id="Grupo_47" data-name="Grupo 47" transform="translate(454.591 285.948)">
            <path id="Trazado_393" data-name="Trazado 393" d="M936.157,543.775c-.549-.56-.172-16.494-.172-16.494,1.1.028.721,15.96.721,15.96A.545.545,0,0,1,936.157,543.775Z" transform="translate(-935.859 -527.281)" fill="#1a1a1a"/>
          </g>
          <g id="Grupo_48" data-name="Grupo 48" transform="translate(432.898 302.194)">
            <path id="Trazado_394" data-name="Trazado 394" d="M957.783,678.761c-19.256,0-44.744-19.486-58.7-34.608-.081-.648,2.976-8.655,8.156-15.533a102.09,102.09,0,0,1,9.622-11.246c.9.081,23.828,14.666,36.265,26.816-12.255-10.436-32.811-23.789-35.814-25.72a107.356,107.356,0,0,0-9.194,10.815,67.8,67.8,0,0,0-7.994,14.381c20.98,22.624,52.017,41.2,68.519,31.178,26.955-16.352,5.541-62.342-5.961-87.052l-.774-1.668c-.44-.949-.907-2.131-1.452-3.5-2.6-6.551-6.523-16.453-15.355-21.835-5.763-3.512-11.685-5.69-23.367-5.69,11.941-1.1,18.012,1.139,23.937,4.749,9.15,5.58,13.317,16.09,15.805,22.368.54,1.355,1,2.522,1.428,3.441l.777,1.668c11.647,25.019,33.328,71.59,5.535,88.458A21.669,21.669,0,0,1,957.783,678.761Z" transform="translate(-899.086 -554.821)" fill="#1a1a1a"/>
          </g>
          <g id="Grupo_49" data-name="Grupo 49" transform="translate(375.29 260.572)">
            <path id="Trazado_395" data-name="Trazado 395" d="M834.28,532.924c-6.542,0-13.026-1.967-18.145-7.1A43.417,43.417,0,0,1,807.2,511.9a77.189,77.189,0,0,1-5.761-27.63c1.335,9.486,3.354,19.157,6.777,27.2a42.2,42.2,0,0,0,8.705,13.568c9.416,9.464,23.775,7.673,34.053,2.835a31.089,31.089,0,0,1,12.794-2.8c-4.515,1.173-8.667,2.08-12.323,3.8A41.324,41.324,0,0,1,834.28,532.924Z" transform="translate(-801.434 -484.267)" fill="#1a1a1a"/>
          </g>
          <g id="Grupo_50" data-name="Grupo 50" transform="translate(341.788 261.512)">
            <path id="Trazado_396" data-name="Trazado 396" d="M806.558,573.611c-11.272-.83-19.123-6.647-27.434-12.808-19-14.073-31.882-42.092-34.481-74.944,3.669,32.454,16.39,60.173,35.133,74.064,8.183,6.062,15.91,11.783,26.824,12.59C807.083,573.392,806.844,573.611,806.558,573.611Z" transform="translate(-744.644 -485.859)" fill="#1a1a1a"/>
          </g>
          <g id="Grupo_51" data-name="Grupo 51" transform="translate(433.347 269.469)">
            <path id="Trazado_397" data-name="Trazado 397" d="M900.774,511.385c-.836-1.713-1.421-4.8-.337-5.636.668-.517,2.059-.046,3.134.45l1.246-6.851c1.08.2-.3,7.766-.3,7.766-1.876-.182-3.1-.6-3.433-.481-.3.242-.208,2.231.224,4.077C900.856,511.379,900.814,511.385,900.774,511.385Z" transform="translate(-899.847 -499.348)" fill="#1a1a1a"/>
          </g>
          <g id="Grupo_52" data-name="Grupo 52" transform="translate(349.679 237.054)">
            <path id="Trazado_398" data-name="Trazado 398" d="M778.1,471.022c-.24-5.854-.159-20.122-3.431-22.806-3.913-3.217-5.739-3.984-10.894-.04-.337.257-.707.521-1.1.792-1.632,1.153-3.482,2.453-3.554,4.067-.045,1.076.711,2.284,2.256,3.592,2.389,2.034,5.749.679,10.882-4.38-2.726,4.226-7.8,8.424-11.589,5.218-1.844-1.559-2.71-3.023-2.647-4.475.1-2.157,2.271-3.691,4.022-4.919.37-.268.733-.522,1.055-.767,5.4-4.138,7.79-3.612,12.263.06,4.377,3.586,3.328,22.342,3.283,23.141A.546.546,0,0,1,778.1,471.022Z" transform="translate(-758.021 -444.401)" fill="#1a1a1a"/>
          </g>
          <g id="Grupo_53" data-name="Grupo 53" transform="translate(396.266 346.17)">
            <path id="Trazado_399" data-name="Trazado 399" d="M851.219,700.85a13.761,13.761,0,0,1-13.747-13.592l-.48-43.619a13.766,13.766,0,0,1,13.592-13.891l56.463-.383c.01,1.1-56.455,1.48-56.455,1.48a12.687,12.687,0,0,0-12.5,12.784l.482,43.62a12.664,12.664,0,0,0,12.649,12.5c.137,0,54-.6,54-.6.008,1.1-53.854,1.7-53.854,1.7Z" transform="translate(-836.991 -629.365)" fill="#1a1a1a"/>
          </g>
          <g id="Grupo_60" data-name="Grupo 60" transform="translate(409.99 350.199)">
            <g id="Grupo_59" data-name="Grupo 59" transform="translate(0)">
              <g id="Grupo_54" data-name="Grupo 54" transform="translate(0 6.729)">
                <path id="Trazado_400" data-name="Trazado 400" d="M885.2,678.42c-7.952-1.225-23.493-16.6-24.742-20.861a4.091,4.091,0,0,1,1.664-4.747,3.233,3.233,0,0,1,.544-4.017,3.932,3.932,0,0,1,1.415-1.006,3.355,3.355,0,0,1,2.946.391c.194.18,18.638,29.4,18.638,29.4C885.559,678.328,885.381,678.42,885.2,678.42ZM865.1,648.7a2.964,2.964,0,0,0-1.633.852,2.154,2.154,0,0,0-.12,3.082c-.3.908-2.6,1.982-1.833,4.62,1.111,3.786,14.8,17.343,22.5,19.773l-17.645-27.957A2.763,2.763,0,0,0,865.1,648.7Z" transform="translate(-860.255 -647.6)" fill="#1a1a1a"/>
              </g>
              <g id="Grupo_55" data-name="Grupo 55" transform="translate(12.899 14.28)">
                <path id="Trazado_401" data-name="Trazado 401" d="M887.538,664.6a48.415,48.415,0,0,1-5.418-4.077c.693-.856,5.757,3.092,5.757,3.092C887.883,664.518,887.711,664.6,887.538,664.6Z" transform="translate(-882.12 -660.4)" fill="#1a1a1a"/>
              </g>
              <g id="Grupo_56" data-name="Grupo 56" transform="translate(4.783 1.649)">
                <path id="Trazado_402" data-name="Trazado 402" d="M876.833,651.871a55.26,55.26,0,0,1-4.852-4.123c-1.918-1.777-3.613-3.336-3.619-5.127a3.4,3.4,0,0,1,1.248-2.508c2.77-2.576,5.324-.137,7.009,1.488.317.3.775.761,1.324,1.31a81.162,81.162,0,0,0,5.994,5.614c-.151.951-6.923,3.312-6.923,3.312A.484.484,0,0,1,876.833,651.871Zm-4.7-11.766a2.612,2.612,0,0,0-1.777.816,2.326,2.326,0,0,0-.888,1.7c0,1.313,1.49,2.682,2.573,3.681,1.466,1.415,3.13,2.9,4.907,4.4l5.545-1.936c-1.636-1.393-3.814-3.564-5.323-5.073-.545-.545-1-1-1.31-1.3C874.366,640.961,873.217,640.105,872.13,640.105Z" transform="translate(-868.362 -638.99)" fill="#1a1a1a"/>
              </g>
              <g id="Grupo_57" data-name="Grupo 57" transform="translate(19.69)">
                <path id="Trazado_403" data-name="Trazado 403" d="M912.916,653.43c-.141-.018-9.408-2.494-9.408-2.494a2.967,2.967,0,0,1-1.242,1.02c-1.628.78-4.211-.327-8.633-3.708.477-.964,9.214,1.369,9.214,1.369.145-.88-.119-2.276-.957-4.633-1.093-3.075-1.2-5.947-.267-7.509a2.409,2.409,0,0,1,1.727-1.214c3.3-.513,4.18,2.026,4.882,4.075.16.468.313.926.495,1.34.353.806.729,1.876,1.165,3.118.929,2.643,2.086,5.932,3.463,7.758C913.268,653.343,913.1,653.43,912.916,653.43Zm-9-3.523,7.762,2.076a44.835,44.835,0,0,1-2.825-6.828c-.426-1.218-.8-2.271-1.133-3.037-.194-.44-.358-.929-.531-1.428-.788-2.312-1.446-3.7-3.666-3.342a1.321,1.321,0,0,0-.957.693c-.739,1.242-.6,3.886.356,6.571C903.719,646.851,904.165,648.607,903.916,649.908Zm-7.181-.785c2.474,1.641,4.18,2.262,5.06,1.841C902.329,650.619,896.734,649.123,896.734,649.123Z" transform="translate(-893.632 -636.193)" fill="#1a1a1a"/>
              </g>
              <g id="Grupo_58" data-name="Grupo 58" transform="translate(2.459 12.583)">
                <path id="Trazado_404" data-name="Trazado 404" d="M876.549,668.633c-.345-.123-3.206-2.431-6.4-5.046a50.775,50.775,0,0,1-5.729-5.928c.67-.911,3.839,2.956,6.428,5.073,3.192,2.617,6.042,4.925,6.042,4.925C876.868,668.564,876.708,668.633,876.549,668.633Z" transform="translate(-864.423 -657.524)" fill="#1a1a1a"/>
              </g>
            </g>
          </g>
          <g id="Grupo_61" data-name="Grupo 61" transform="translate(341.788 259.998)">
            <path id="Trazado_405" data-name="Trazado 405" d="M747.3,486.657c-1.781-.263-2.651-.9-2.657-1.89a2.482,2.482,0,0,1,.84-1.474c.262,1.953,1.288,2.182,1.9,2.271C747.8,486.463,747.568,486.657,747.3,486.657Z" transform="translate(-744.644 -483.293)" fill="#1a1a1a"/>
          </g>
          <g id="Grupo_62" data-name="Grupo 62" transform="translate(365.863 258.186)">
            <path id="Trazado_406" data-name="Trazado 406" d="M785.455,486.376c-.06-1.1,2.76-1.4,2.76-1.4,5.464-.862,6.674-2.026,6.666-2.367-.014-.376-.555-.77-1.52-1.1-1.119-.228-3.26-.591-3.754-.595.875-1.16,3.716-.534,4.043-.467.612.2,2.286.775,2.326,2.128.041,1.513-2.52,2.682-7.615,3.491l-2.849.307Z" transform="translate(-785.454 -480.223)" fill="#1a1a1a"/>
          </g>
          <g id="Grupo_64" data-name="Grupo 64" transform="translate(308.597 341.588)">
            <g id="Grupo_63" data-name="Grupo 63" transform="translate(0)">
              <path id="Trazado_407" data-name="Trazado 407" d="M714.8,648.568H688.382c0-1.1,25.869-1.1,25.869-1.1V621.6c1.1,0,1.1,26.422,1.1,26.422A.546.546,0,0,1,714.8,648.568Z" transform="translate(-688.382 -621.598)" fill="#1a1a1a"/>
            </g>
          </g>
          <g id="Grupo_65" data-name="Grupo 65" transform="translate(45.628 280.603)">
            <path id="Trazado_408" data-name="Trazado 408" d="M245.413,585.4c-2.276-1.234-3.126-3.863-2.677-7.48s1.892-6.217,4.281-7.754a10.518,10.518,0,0,1,1.751-.894,26.794,26.794,0,0,1,3.227-.992c2.1-.549,4.075-1.07,5.583-2.462a5.933,5.933,0,0,0,1.523-5.25,255.763,255.763,0,0,0-4.529-25.742,13.388,13.388,0,0,1,6.213-11,16.551,16.551,0,0,1,10.353-2.476,14.1,14.1,0,0,1,3.156-1.753c5.939-2.512,13.479-1.026,17.444.085a11.735,11.735,0,0,1,5.624,3.057c2,2.2,2.557,5.291,2.862,8.3.576,5.476.212,5.88-.008,6.12a6.232,6.232,0,0,1-1.769.2l.018-1.1c1-.408,1.034-1.613.684-4.951-.3-2.98-.816-5.862-2.6-7.835a10.744,10.744,0,0,0-5.1-2.728c-3.821-1.066-11.081-2.516-16.722-.133a12.284,12.284,0,0,0-3.071,1.737c-.473.113-5.832-.576-10.252,2.393a12.329,12.329,0,0,0-5.739,9.893,260.846,260.846,0,0,1,4.531,25.784,6.993,6.993,0,0,1-1.864,6.2c-1.71,1.581-3.919,2.157-6.052,2.714a26.041,26.041,0,0,0-3.095.953,9.751,9.751,0,0,0-1.569.8c-2.1,1.351-3.371,3.695-3.78,6.964-.23,1.826-.293,5.073,1.858,6.319C245.786,585.3,245.6,585.4,245.413,585.4Z" transform="translate(-242.62 -518.221)" fill="#1a1a1a"/>
          </g>
          <g id="Grupo_66" data-name="Grupo 66" transform="translate(87.526 298.553)">
            <path id="Trazado_409" data-name="Trazado 409" d="M323.154,549.832c-3.727-.022-9.513-.085-9.513-.085l.014-1.1s5.781.064,9.5.086C323.7,549.586,323.455,549.832,323.154,549.832Z" transform="translate(-313.641 -548.649)" fill="#1a1a1a"/>
          </g>
          <g id="Grupo_67" data-name="Grupo 67" transform="translate(55.374 289.762)">
            <path id="Trazado_410" data-name="Trazado 410" d="M274.164,591.227c-7.259,0-14.6-3.482-15.023-3.687.614-.926,14.286,5.553,22.319.861,3.495-2.05,5.45-5.975,5.8-11.666.408-6.523-3.148-11.5-5.273-14.466-.271-.376-.519-.727-.731-1.04-4.061-5.939-1.468-12.041.428-16.492.286-.675.56-1.32.8-1.928,1.648-4.243-1.74-9.014-1.775-9.063a7.619,7.619,0,0,1,4.465,8.768l2.439.024c-.008,1.1-3.128,1.07-3.128,1.07-.47-.876.372-3.74-.979-6.607a9.34,9.34,0,0,1,0,6.207c-.238.618-.517,1.27-.81,1.959-1.894,4.458-4.252,10-.533,15.447.212.3.453.644.719,1.016,2.211,3.087,5.908,8.261,5.478,15.18-.378,6.076-2.514,10.3-6.347,12.54A15.427,15.427,0,0,1,274.164,591.227Z" transform="translate(-259.141 -533.746)" fill="#1a1a1a"/>
          </g>
          <g id="Grupo_68" data-name="Grupo 68" transform="translate(29.5 414.401)">
            <path id="Trazado_411" data-name="Trazado 411" d="M215.281,764.168c17.491-16.566,57.358-19.123,57.756-19.145-.331,1.119-39.827,3.655-57.394,19.01A.542.542,0,0,1,215.281,764.168Z" transform="translate(-215.281 -745.023)" fill="#1a1a1a"/>
          </g>
          <g id="Grupo_69" data-name="Grupo 69" transform="translate(12.525 342.577)">
            <path id="Trazado_412" data-name="Trazado 412" d="M190.729,725.061c-12.146-22.832,4.606-60.577,16.34-79.322a114.1,114.1,0,0,1,9.5-13.426c3.352-3.927,7.956-6.52,12.774-9.04-4.21,3.445-8.711,5.975-11.938,9.755a112.7,112.7,0,0,0-9.4,13.289c-10.813,17.279-28.236,55.8-16.784,77.941C190.9,725.044,190.815,725.061,190.729,725.061Z" transform="translate(-186.507 -623.274)" fill="#1a1a1a"/>
          </g>
          <g id="Grupo_70" data-name="Grupo 70" transform="translate(91.151 337.666)">
            <path id="Trazado_413" data-name="Trazado 413" d="M359.072,651.373a5.761,5.761,0,0,1-1.111-1.753c-8.4-19.4-19.075-29.8-33.6-32.757-1.139-.236-4.573-.834-4.573-.834l.186-1.08s3.459.6,4.606.834c14.706,2.993,25.956,13.915,34.394,33.4.2.471.406.953.608,1.428C359.215,651.359,359.142,651.373,359.072,651.373Z" transform="translate(-319.786 -614.949)" fill="#1a1a1a"/>
          </g>
          <g id="Grupo_71" data-name="Grupo 71" transform="translate(84.041 315.133)">
            <path id="Trazado_414" data-name="Trazado 414" d="M315.757,590.994c-.591,0-1.135-.035-1.595-.071-1.832-.155-4.531-.486-6.428-.866,2.074-.7,4.719-.382,6.52-.231a11.289,11.289,0,0,0,4.433-.331c1.955-.612,3.292-2.1,4.089-4.521a26.229,26.229,0,0,0,1.212-8.219,12.375,12.375,0,0,1-.17,8.564c-.913,2.789-2.484,4.5-4.8,5.228A10.938,10.938,0,0,1,315.757,590.994Z" transform="translate(-307.734 -576.754)" fill="#1a1a1a"/>
          </g>
          <g id="Grupo_72" data-name="Grupo 72" transform="translate(79.5 328.929)">
            <path id="Trazado_415" data-name="Trazado 415" d="M309.106,622.414c-3.055,0-8.037-6.066-9.069-7.371,3.431,2.551,7.778,6.876,9.369,6.224,1.856-.721,2.105-7.631,1.826-11.815l.489-9.313c1.1.055.608,9.3.608,9.3.129,1.878.616,11.629-2.528,12.849A1.881,1.881,0,0,1,309.106,622.414Z" transform="translate(-300.037 -600.139)" fill="#1a1a1a"/>
          </g>
          <g id="Grupo_73" data-name="Grupo 73" transform="translate(95.925 328.216)">
            <path id="Trazado_416" data-name="Trazado 416" d="M329.541,610.14c3.2-6.017-1.614-11.1-1.662-11.15.846-.705,6.282,5.034,2.11,10.918A.544.544,0,0,1,329.541,610.14Z" transform="translate(-327.879 -598.931)" fill="#1a1a1a"/>
          </g>
          <g id="Grupo_74" data-name="Grupo 74" transform="translate(51.463 370.106)">
            <path id="Trazado_417" data-name="Trazado 417" d="M252.874,721.936c-2.446-19.777,8.259-51.676,8.366-52,.933.67-9.7,32.347-7.819,51.4C252.912,721.936,252.894,721.936,252.874,721.936Z" transform="translate(-252.511 -669.938)" fill="#1a1a1a"/>
          </g>
          <g id="Grupo_75" data-name="Grupo 75" transform="translate(87.458 316.362)">
            <path id="Trazado_418" data-name="Trazado 418" d="M317.694,583a3.859,3.859,0,0,1-2.251-.662,5.191,5.191,0,0,1-1.918-3.5c1.1-.085,1.29,1.734,2.548,2.6a3.534,3.534,0,0,0,2.992.262C318.766,582.921,318.214,583,317.694,583Z" transform="translate(-313.526 -578.837)" fill="#1a1a1a"/>
          </g>
          <g id="Grupo_76" data-name="Grupo 76" transform="translate(186.448 388.278)">
            <path id="Trazado_419" data-name="Trazado 419" d="M486.781,720.331a5.2,5.2,0,0,1-2.619-.683c-3.4-1.963-3.8-7.645-.9-12.673a13.461,13.461,0,0,1,5.42-5.358,6.233,6.233,0,0,1,6-.2c3.4,1.965,3.8,7.645.9,12.673a13.465,13.465,0,0,1-5.42,5.359A7.582,7.582,0,0,1,486.781,720.331Zm5.282-18.493a6.5,6.5,0,0,0-2.887.757,12.424,12.424,0,0,0-4.963,4.932c-2.6,4.5-2.375,9.507.5,11.167a5.141,5.141,0,0,0,4.957-.222,12.4,12.4,0,0,0,4.963-4.933c2.6-4.5,2.373-9.507-.495-11.167A4.081,4.081,0,0,0,492.063,701.838Z" transform="translate(-481.326 -700.742)" fill="#1a1a1a"/>
          </g>
          <g id="Grupo_77" data-name="Grupo 77" transform="translate(112.199 351.345)">
            <path id="Trazado_420" data-name="Trazado 420" d="M369.848,731.588a14.372,14.372,0,0,1-13.639-18.89l21.443-64.71a14.344,14.344,0,0,1,13.64-9.852H481.7a14.7,14.7,0,0,1,3.184.349,4.653,4.653,0,0,1-3.184.749h-90.41a13.254,13.254,0,0,0-12.6,9.1l-21.441,64.71a13.278,13.278,0,0,0,12.6,17.448C370.4,731.343,370.153,731.588,369.848,731.588Z" transform="translate(-355.464 -638.137)" fill="#1a1a1a"/>
          </g>
          <g id="Grupo_78" data-name="Grupo 78" transform="translate(118.349 355.325)">
            <path id="Trazado_421" data-name="Trazado 421" d="M470.681,734.354H380.27a14.56,14.56,0,0,1-11.872-6.013,13.2,13.2,0,0,1-1.765-12.1l21.441-61.929a14.312,14.312,0,0,1,13.638-9.43h90.41A14.557,14.557,0,0,1,504,650.9,13.188,13.188,0,0,1,505.76,663l-21.441,61.922A14.3,14.3,0,0,1,470.681,734.354Zm-68.969-88.373a13.214,13.214,0,0,0-12.6,8.695L367.671,716.6a12.1,12.1,0,0,0,1.622,11.1,13.45,13.45,0,0,0,10.977,5.555h90.41a13.209,13.209,0,0,0,12.6-8.7l21.441-61.923a12.093,12.093,0,0,0-1.621-11.1,13.445,13.445,0,0,0-10.979-5.553Z" transform="translate(-365.89 -644.883)" fill="#1a1a1a"/>
          </g>
          <g id="Grupo_79" data-name="Grupo 79" transform="translate(74.74 422.728)">
            <path id="Trazado_422" data-name="Trazado 422" d="M317.3,781.207c-7.768,0-9.694-9.1-9.694-10.4,1.1.091,2.34,9.3,9.694,9.3,1.7,0,2.8-.386,3.255-1.143.989-1.625-.731-4.943-1.985-7.368-.307-.594-.592-1.143-.818-1.628-.248-.525-.487-1.147-.749-1.817-1.472-3.786-3.5-8.964-10.651-7.73-.035.012-9.063,2.57-14.383,6.27,4.846-4.711,13.764-7.231,14.143-7.342,8.091-1.409,10.4,4.5,11.914,8.4.251.644.483,1.242.721,1.755.22.468.5,1.006.8,1.587,1.451,2.8,3.257,6.288,1.947,8.441C320.818,780.645,319.4,781.207,317.3,781.207Z" transform="translate(-291.967 -759.139)" fill="#1a1a1a"/>
          </g>
          <g id="Grupo_80" data-name="Grupo 80" transform="translate(93.688 420.724)">
            <path id="Trazado_423" data-name="Trazado 423" d="M337,779.814c2.978-1.294,4.868-2.124,5.432-3.506a3.631,3.631,0,0,0-.975-3.558c-.94-1.052-1.795-3.247-2.789-5.781-1.244-3.192-2.659-6.8-4.5-8.818-3.047-3.314-9.995.581-10.068.616-.23-1.133,7.238-5.313,10.878-1.361,1.987,2.163,3.439,5.882,4.721,9.159.913,2.34,1.775,4.548,2.583,5.45a4.657,4.657,0,0,1,1.172,4.711c-.515,1.256-2.042,2.805-6.414,3.088Z" transform="translate(-324.086 -755.742)" fill="#1a1a1a"/>
          </g>
          <g id="Grupo_81" data-name="Grupo 81" transform="translate(79.473 436.109)">
            <path id="Trazado_424" data-name="Trazado 424" d="M301.153,790.526a9.555,9.555,0,0,1-1.163-.073,1.7,1.7,0,0,1,1.69-1.042c8.915-.446,9.533-7.3,9.555-7.589,1.09.162.37,8.2-9.5,8.687C301.541,790.516,301.345,790.526,301.153,790.526Z" transform="translate(-299.99 -781.822)" fill="#1a1a1a"/>
          </g>
          <g id="Grupo_82" data-name="Grupo 82" transform="translate(73.482 414.248)">
            <path id="Trazado_425" data-name="Trazado 425" d="M297.324,775.312a16.406,16.406,0,0,1-7.275-16.532c1.425-8.98,9.5-15.169,18.006-13.836,2.757.44,6.975,1.619,11.785,6.749-5.38-4.134-9.363-5.25-11.958-5.662-7.894-1.284-15.418,4.542-16.744,12.921a15.417,15.417,0,0,0,6.488,15.351C297.678,775.226,297.5,775.312,297.324,775.312Z" transform="translate(-289.836 -744.764)" fill="#1a1a1a"/>
          </g>
          <g id="Grupo_83" data-name="Grupo 83" transform="translate(103.889 419.624)">
            <path id="Trazado_426" data-name="Trazado 426" d="M351.229,759.653c-.541-.44-1.373-3.5-3.55-4.4-2.754-1.139-6.211,1.646-6.25,1.672-.533-.988,3.308-4.089,6.672-2.688,2.682,1.116,3.622,4.584,3.661,4.729C351.321,759.649,351.274,759.653,351.229,759.653Z" transform="translate(-341.378 -753.877)" fill="#1a1a1a"/>
          </g>
          <g id="Grupo_84" data-name="Grupo 84" transform="translate(112.014 441.98)">
            <path id="Trazado_427" data-name="Trazado 427" d="M359.767,794a6.415,6.415,0,0,1-4.616-2.15c.959-.566,3.492,2.452,7.395.244A2.712,2.712,0,0,1,359.767,794Z" transform="translate(-355.151 -791.773)" fill="#1a1a1a"/>
          </g>
          <g id="Grupo_85" data-name="Grupo 85" transform="translate(111.594 366.939)">
            <path id="Trazado_428" data-name="Trazado 428" d="M354.439,719.431c8.665-33.985,1.414-54.65,1.341-54.86,1.107-.166,8.485,20.8-.81,54.456A.55.55,0,0,1,354.439,719.431Z" transform="translate(-354.439 -664.57)" fill="#1a1a1a"/>
          </g>
          <g id="Grupo_86" data-name="Grupo 86" transform="translate(241.229 352.574)">
            <path id="Trazado_429" data-name="Trazado 429" d="M582.383,644.9c-.27-.07-8.2-4.543-8.2-4.543.539-.962,8.467,3.513,8.467,3.513C582.761,644.8,582.573,644.9,582.383,644.9Z" transform="translate(-574.185 -640.22)" fill="#1a1a1a"/>
          </g>
          <g id="Grupo_90" data-name="Grupo 90" transform="translate(146.851 303.449)">
            <g id="Grupo_87" data-name="Grupo 87" transform="translate(0 10.656)">
              <path id="Trazado_430" data-name="Trazado 430" d="M462.522,599.582H414.228c-.519-.729,7.913-24.571,7.913-24.571,1.039.362-7.136,23.476-7.136,23.476h47.518C463.071,599.339,462.825,599.582,462.522,599.582Z" transform="translate(-414.205 -575.011)" fill="#1a1a1a"/>
            </g>
            <g id="Grupo_88" data-name="Grupo 88" transform="translate(21.692)">
              <path id="Trazado_431" data-name="Trazado 431" d="M489.81,558.045H450.975c0-1.1,38.835-1.1,38.835-1.1C490.361,557.8,490.113,558.045,489.81,558.045Z" transform="translate(-450.975 -556.947)" fill="#1a1a1a"/>
            </g>
            <g id="Grupo_89" data-name="Grupo 89" transform="translate(47.769 0.369)">
              <path id="Trazado_432" data-name="Trazado 432" d="M495.727,592.431c-.469-.131-.62-.444-.519-.729l12.071-34.13c1.038.362-11.032,34.492-11.032,34.492A.554.554,0,0,1,495.727,592.431Z" transform="translate(-495.178 -557.572)" fill="#1a1a1a"/>
            </g>
          </g>
          <g id="Grupo_91" data-name="Grupo 91" transform="translate(80.614 297.868)">
            <path id="Trazado_433" data-name="Trazado 433" d="M307.334,565.568c-2.884,0-5.248-3.871-5.4-8.883-.159-5.068,2.01-9.107,4.935-9.2,2.982,0,5.345,3.867,5.5,8.873.162,5.068-2.009,9.113-4.935,9.2C307.4,565.564,307.366,565.568,307.334,565.568Zm-.372-16.984c-2.292.073-4.065,3.764-3.932,8.065.133,4.263,2.1,7.817,4.307,7.817,2.294-.073,4.067-3.768,3.932-8.071C311.136,552.135,309.173,548.585,306.962,548.585Z" transform="translate(-301.924 -547.487)" fill="#1a1a1a"/>
          </g>
          <g id="Grupo_92" data-name="Grupo 92" transform="translate(94.312 297.868)">
            <path id="Trazado_434" data-name="Trazado 434" d="M330.526,565.568a3.259,3.259,0,0,1-2.409-1.006,7.768,7.768,0,0,1,2.5-.095c2.233-.073,4.006-3.768,3.871-8.071-.133-4.261-2.1-7.811-4.3-7.811-2.294.073-4.067,3.764-3.935,8.065a11.583,11.583,0,0,0,.739,4.1c-1.543-.926-1.777-2.217-1.836-4.063-.158-5.068,2.011-9.107,4.937-9.2,2.981,0,5.342,3.867,5.5,8.873.16,5.068-2.009,9.113-4.935,9.2C330.609,565.564,330.566,565.568,330.526,565.568Z" transform="translate(-325.145 -547.487)" fill="#1a1a1a"/>
          </g>
          <g id="Grupo_93" data-name="Grupo 93" transform="translate(90.846 306.35)">
            <path id="Trazado_435" data-name="Trazado 435" d="M322.927,563.725c-.563-.371-1.756-1.69-3.658-.25,1.59-2.593,3.427-1.468,4.087-.642C323.165,563.689,323.045,563.725,322.927,563.725Z" transform="translate(-319.269 -561.865)" fill="#1a1a1a"/>
          </g>
          <g id="Grupo_97" data-name="Grupo 97" transform="translate(231.86 24.104)">
            <g id="Grupo_94" data-name="Grupo 94" transform="translate(15.211 42.9)">
              <path id="Trazado_436" data-name="Trazado 436" d="M584.639,161.3c-.551-.549-.551-4.245-.551-4.245,4.937.441,9.6.444,13.822-.9a5.441,5.441,0,0,1,.733,2.787c-1.1,0-1.1-1.528-1.1-1.528a22.687,22.687,0,0,1-12.352-.016v3.356A.549.549,0,0,1,584.639,161.3Z" transform="translate(-584.088 -156.147)" fill="#1a1a1a"/>
            </g>
            <g id="Grupo_95" data-name="Grupo 95">
              <path id="Trazado_437" data-name="Trazado 437" d="M580.818,128.438a22.49,22.49,0,1,1,6.854-1.065A22.373,22.373,0,0,1,580.818,128.438Zm0-43.912a21.409,21.409,0,1,0,21.407,21.407A21.432,21.432,0,0,0,580.818,84.526Z" transform="translate(-558.304 -83.426)" fill="#1a1a1a"/>
            </g>
            <g id="Grupo_96" data-name="Grupo 96" transform="translate(9.306 19.207)">
              <path id="Trazado_438" data-name="Trazado 438" d="M574.078,128.932c.614-1.052,2.452-1.107,3.641-2.148a2.4,2.4,0,0,0-.733-2,6.667,6.667,0,0,1-1.3-4.931c.079-.6.636-3,1.886-3.681a1.5,1.5,0,0,1,1.389-.04c.87.41,1.193,1.569,1.407,2.336a10.389,10.389,0,0,1,.426,3.015,10.075,10.075,0,0,1-.939,4.275,14.637,14.637,0,0,0,7.063,1.206,13.719,13.719,0,0,0,4.522-.779,7.447,7.447,0,0,0,3.5-2.605,4.612,4.612,0,0,1-2.543-3.316,4.168,4.168,0,0,1,.414-2.3,2.826,2.826,0,0,1,1.644-1.6,1.661,1.661,0,0,1,1.533.219c1.13.832,1.181,3.071,1.179,3.515a7.088,7.088,0,0,1-.664,2.979,21.059,21.059,0,0,0,7.049.858,10.037,10.037,0,0,1-7.6.113,8.479,8.479,0,0,1-4.128,3.167,14.865,14.865,0,0,1-4.881.846,15.66,15.66,0,0,1-7.665-1.363,5.746,5.746,0,0,1-.836.911A6.558,6.558,0,0,1,574.078,128.932Zm4.216-11.849c-.862.42-1.415,2.114-1.52,2.918a5.554,5.554,0,0,0,1.084,4.115,5.727,5.727,0,0,0,1.054,1.046,8.708,8.708,0,0,0,.781-3.685,8.974,8.974,0,0,0-.337-2.538c-.2-.711-.449-1.611-.864-1.806A.5.5,0,0,0,578.294,117.083Zm16.742.291a1.875,1.875,0,0,0-1.236,1.07,3.076,3.076,0,0,0-.315,1.686,3.4,3.4,0,0,0,1.848,2.416,3.979,3.979,0,0,0,.733-2.451,3.862,3.862,0,0,0-.733-2.625A.466.466,0,0,0,595.035,117.374Z" transform="translate(-574.078 -115.985)" fill="#1a1a1a"/>
            </g>
          </g>
          <g id="Grupo_98" data-name="Grupo 98" transform="translate(205.147 16.169)">
            <path id="Trazado_439" data-name="Trazado 439" d="M537.664,88.429c-.331-.113-24.641-18.424-24.641-18.424.662-.88,24.972,17.433,24.972,17.433C537.995,88.353,537.83,88.429,537.664,88.429Z" transform="translate(-513.023 -69.975)" fill="#1a1a1a"/>
          </g>
          <g id="Grupo_99" data-name="Grupo 99" transform="translate(208.582 57.489)">
            <path id="Trazado_440" data-name="Trazado 440" d="M518.848,155.951c-.3-1.011,22.687-15.934,22.687-15.934.6.921-22.386,15.848-22.386,15.848A.569.569,0,0,1,518.848,155.951Z" transform="translate(-518.845 -140.017)" fill="#1a1a1a"/>
          </g>
          <g id="Grupo_100" data-name="Grupo 100" transform="translate(253.797)">
            <path id="Trazado_441" data-name="Trazado 441" d="M596.04,61.667c-.551-.55-.551-19.1-.551-19.1,1.1,0,1.1,18.549,1.1,18.549A.551.551,0,0,1,596.04,61.667Z" transform="translate(-595.489 -42.567)" fill="#1a1a1a"/>
          </g>
          <g id="Grupo_101" data-name="Grupo 101" transform="translate(276.765 26.808)">
            <path id="Trazado_442" data-name="Trazado 442" d="M634.427,95.825c-.263-1.034,12.259-7.815,12.259-7.815.527.967-12,7.746-12,7.746A.559.559,0,0,1,634.427,95.825Z" transform="translate(-634.423 -88.01)" fill="#1a1a1a"/>
          </g>
          <g id="Grupo_102" data-name="Grupo 102" transform="translate(274.796 63.041)">
            <path id="Trazado_443" data-name="Trazado 443" d="M656.176,171.576c-.366-.137-25.09-22.125-25.09-22.125.734-.82,25.458,21.164,25.458,21.164C656.481,171.517,656.327,171.576,656.176,171.576Z" transform="translate(-631.086 -149.429)" fill="#1a1a1a"/>
          </g>
          <g id="Grupo_103" data-name="Grupo 103" transform="translate(329.574 55.296)">
            <path id="Trazado_444" data-name="Trazado 444" d="M728.434,139.218a4.122,4.122,0,0,0-4.494-1.965c.848-1.409,3.477-1.432,4.969,1.139C728.624,139.192,728.529,139.218,728.434,139.218Z" transform="translate(-723.941 -136.3)" fill="#1a1a1a"/>
          </g>
          <path id="Trazado_445" data-name="Trazado 445" d="M724.9,144.841c-.44-.071-.733.115-.866,1.7-.149,1.763.307,2.076.7,2.062s.795-.557.781-1.817S725.469,144.934,724.9,144.841Z" transform="translate(-394.391 -84.501)" fill="#1a1a1a"/>
          <g id="Grupo_104" data-name="Grupo 104" transform="translate(331.173 88.362)">
            <path id="Trazado_446" data-name="Trazado 446" d="M727.065,197.4c-.549-.566-.394-5.049-.394-5.049,1.1.035.943,4.521.943,4.521A.546.546,0,0,1,727.065,197.4Z" transform="translate(-726.651 -192.351)" fill="#1a1a1a"/>
          </g>
          <g id="Grupo_105" data-name="Grupo 105" transform="translate(274.665 96.853)">
            <path id="Trazado_447" data-name="Trazado 447" d="M738.519,266.608c-.485-15.686-1.161-28.916-1.165-29.046-.208-4.249-2.385-9.4-4.706-14.327a27.216,27.216,0,0,0-6.461-9.119,17.867,17.867,0,0,0-10.01-4.741c-7.988-.917-24.25-.858-24.379-.852a26.531,26.531,0,0,0-9.737,2.077c-4.8,2.121-8.96,6.355-12.356,12.58a132.415,132.415,0,0,0-6.238,13.942c-.588,1.464-1.173,2.928-1.777,4.374-1.219,2.942-2.615,5.989-5.1,8.065a8.141,8.141,0,0,1-9.323.977c-2.964-1.692-3.944-4.725-4.885-7.655l-4.055-12.4c-1.26-3.843-2.5-7.884-3.709-11.791-1.218-3.958-2.478-8.053-3.758-11.948,2.326,3.56,3.586,7.658,4.81,11.625,1.2,3.9,2.445,7.934,3.7,11.77l4.053,12.409c.925,2.857,1.8,5.555,4.388,7.037a7.041,7.041,0,0,0,8.071-.865c2.288-1.918,3.621-4.824,4.786-7.639.6-1.448,1.185-2.907,1.773-4.367a130.923,130.923,0,0,1,6.3-14.059c3.514-6.449,7.843-10.841,12.871-13.063a27.522,27.522,0,0,1,10.147-2.165c.208,0,16.49-.07,24.542.86a18.9,18.9,0,0,1,10.609,5.006,28.3,28.3,0,0,1,6.734,9.471c2.367,5.032,4.589,10.306,4.806,14.744.008.13.68,13.388.616,28.559A.546.546,0,0,1,738.519,266.608Z" transform="translate(-630.864 -206.744)" fill="#1a1a1a"/>
          </g>
          <g id="Grupo_106" data-name="Grupo 106" transform="translate(241.348 101.894)">
            <path id="Trazado_448" data-name="Trazado 448" d="M624.533,293.3c-9.648,0-19.341-3.093-26.861-10.767-8.782-8.959-13.109-21.322-16.181-32.236-3.043-10.79-4.715-20.763-6.486-31.322l-.618-3.677c1.084-.182,1.7,3.495,1.7,3.495,1.765,10.527,3.436,20.474,6.458,31.206,3.037,10.781,7.3,22.987,15.908,31.765,13.4,13.659,33.91,12.354,48.3,5l1.524-.757c21.049-12.746,26.863-41.123,26.917-41.4,1.02.5-4.873,29.344-26.386,42.369l-1.562.775A50.8,50.8,0,0,1,624.533,293.3Z" transform="translate(-574.387 -215.289)" fill="#1a1a1a"/>
          </g>
          <g id="Grupo_107" data-name="Grupo 107" transform="translate(371.448 105.658)">
            <path id="Trazado_449" data-name="Trazado 449" d="M822.648,272.8c-5.655-17.216-16.586-37.605-27.726-51.128,12.073,12.925,23.086,33.469,28.251,50.421C822.754,272.793,822.7,272.8,822.648,272.8Z" transform="translate(-794.922 -221.67)" fill="#1a1a1a"/>
          </g>
          <g id="Grupo_108" data-name="Grupo 108" transform="translate(317.809 49.575)">
            <path id="Trazado_450" data-name="Trazado 450" d="M717.469,165.7c-7.69,0-9.7-3.954-10.23-5.939-.67-2.536.784-8.827,1.2-10.505-.921-.556-3.292-2.118-4.172-3.978a2.784,2.784,0,0,1,.711-3.314,67.57,67.57,0,0,1,6.044-3.909c.309-1.555,1.977-9.727,2.924-11.454.178,1.959-1.365,9.229-1.894,11.91-.309.394-4.951,3.11-6.365,4.3a1.674,1.674,0,0,0-.422,2c.926,1.959,4.039,3.681,4.071,3.7.25.694-1.72,8.372-1.034,10.971.7,2.653,3.586,6.769,15.094,4.466A9.461,9.461,0,0,1,717.469,165.7Z" transform="translate(-703.998 -126.602)" fill="#1a1a1a"/>
          </g>
          <g id="Grupo_111" data-name="Grupo 111" transform="translate(343.248 60.832)">
            <g id="Grupo_109" data-name="Grupo 109">
              <path id="Trazado_451" data-name="Trazado 451" d="M752.787,160.062a7.159,7.159,0,0,1-5.668-2.793c2.607,1.573,5.614,2.315,8.225,1.133a6.093,6.093,0,0,0,3-8.067,6.086,6.086,0,0,0-10.486-1.01,2.8,2.8,0,0,1,1.953-2.99,7.186,7.186,0,1,1,2.98,13.727Z" transform="translate(-747.119 -145.684)" fill="#1a1a1a"/>
            </g>
            <g id="Grupo_110" data-name="Grupo 110" transform="translate(2.14 3.367)">
              <path id="Trazado_452" data-name="Trazado 452" d="M755.443,159.632c-.362-.137-4.7-3.918-4.7-3.918.083-.885,5.84-4.323,5.84-4.323.563.943-4.542,3.992-4.542,3.992l3.764,3.287C755.748,159.567,755.6,159.632,755.443,159.632Z" transform="translate(-750.746 -151.391)" fill="#1a1a1a"/>
            </g>
          </g>
          <g id="Grupo_112" data-name="Grupo 112" transform="translate(241.143 94.625)">
            <path id="Trazado_453" data-name="Trazado 453" d="M583.524,212.6c-1.319,0-2.551-.06-3.675-.168-3.647-.369-5.6-1.266-5.79-2.666-.262-1.848,2.3-3.114,4.257-3.9-2.007,2-3.279,2.966-3.17,3.748.081.58,1.389,1.383,4.814,1.723a52.546,52.546,0,0,0,11.875-.454c10.034-1.4,15.91-4.311,15.706-5.781-.1-.725-1.685-1.577-5.84-1.8,4.4-.862,6.71.061,6.928,1.648.422,3.035-8.053,5.827-16.643,7.023A62.039,62.039,0,0,1,583.524,212.6Z" transform="translate(-574.041 -202.967)" fill="#1a1a1a"/>
          </g>
          <g id="Grupo_113" data-name="Grupo 113" transform="translate(232.382 62.735)">
            <path id="Trazado_454" data-name="Trazado 454" d="M595.73,187.25a26.252,26.252,0,0,1-1.294-10.714c.093-2.752,0-5.573-.087-8.3-.03-.89-.06-1.773-.081-2.662a19.365,19.365,0,0,1,2.2-9.238,2.508,2.508,0,0,0,.424-1.589c-.253-.945-1.892-1.547-2.926-1.6a5.8,5.8,0,0,0-3.857,1.459c-2.613,1.983-3.727,6.823-4.392,9.717a9.046,9.046,0,0,1-.7,2.351c-1.432,2.182-4.245,1.8-5.545,1.284-1.44-.576-1.583-.87-2.112-2.336a48.875,48.875,0,0,0-2.856-6.428c-3.517-6.807-7.684-10-11.76-9.006a3.567,3.567,0,0,0-2.267,2.233,4.3,4.3,0,0,0,.986,4.089c1.383,1.787,3.758,5.959,6.056,9.988,2.421,4.253,5.167,9.072,5.992,9.662-1.595.212-3.659-3.342-6.949-9.117-2.277-4-4.633-8.135-5.971-9.862a5.257,5.257,0,0,1-1.151-5.123,4.662,4.662,0,0,1,3.041-2.938c2.673-.658,7.909-.286,13,9.566a49.145,49.145,0,0,1,2.916,6.565c.462,1.274.462,1.274,1.486,1.682,1,.408,3.176.739,4.217-.865a12.63,12.63,0,0,0,.543-1.991c.7-3.039,1.868-8.123,4.8-10.347a7.251,7.251,0,0,1,4.584-1.682c1.288.071,3.489.789,3.928,2.417a3.384,3.384,0,0,1-.5,2.361,18.345,18.345,0,0,0-2.088,8.724c.025.884.053,1.767.083,2.657.089,2.741.182,5.58.087,8.368a34.234,34.234,0,0,0,.726,9.989C595.825,187.245,595.777,187.25,595.73,187.25Z" transform="translate(-559.19 -148.91)" fill="#1a1a1a"/>
          </g>
          <g id="Grupo_114" data-name="Grupo 114" transform="translate(228.273 65.705)">
            <path id="Trazado_455" data-name="Trazado 455" d="M573.314,192.274c-.834-2.679-1.609-5.531-3.655-6.577-3.57-1.833-7.431-7.205-10.072-14.02a30.679,30.679,0,0,0-4.251-7.066c-1.888-2.554-3.517-4.757-3.023-6.92a4.831,4.831,0,0,1,4.557-3.746c-.087,1.1-2.851,1.216-3.487,3.991-.378,1.668,1.038,3.59,2.838,6.021a31.524,31.524,0,0,1,4.391,7.322c2.51,6.474,6.26,11.752,9.551,13.437,2.471,1.27,3.374,4.475,3.695,6.938C573.361,192.274,573.335,192.274,573.314,192.274Z" transform="translate(-552.223 -153.944)" fill="#1a1a1a"/>
          </g>
          <g id="Grupo_115" data-name="Grupo 115" transform="translate(352.868 82.204)">
            <path id="Trazado_456" data-name="Trazado 456" d="M764.57,191.244c-.549-.513-1.143-9.331-1.143-9.331,1.1-.071,1.691,8.747,1.691,8.747C764.594,191.244,764.584,191.244,764.57,191.244Z" transform="translate(-763.427 -181.912)" fill="#1a1a1a"/>
          </g>
          <g id="Grupo_116" data-name="Grupo 116" transform="translate(346.557 48.215)">
            <path id="Trazado_457" data-name="Trazado 457" d="M756.615,159.556a3.5,3.5,0,0,1-1.052-.159c-2.805-.871-2.9-5.147-2.815-6.945.109-2.132.395-2.191.7-2.255.392,1.456.086,4.852,1.068,6.843a2.324,2.324,0,0,0,1.375,1.306c2.167.658,5.028-2.022,10.179-6.928l1.242-1.189c6.22-5.9,9.166-14.143,7.168-20.037a8.273,8.273,0,0,0-7.336-5.784c4.167-.66,7.1,1.656,8.38,5.434,2.161,6.383-.83,14.9-7.451,21.186l-1.246,1.183C761.9,156.908,759.119,159.556,756.615,159.556Z" transform="translate(-752.729 -124.296)" fill="#1a1a1a"/>
          </g>
          <g id="Grupo_117" data-name="Grupo 117" transform="translate(321.645 75.358)">
            <path id="Trazado_458" data-name="Trazado 458" d="M713.5,172.517a5.479,5.479,0,0,1-3-.84c.757-.816,3.128.749,6.392-1.369A3.457,3.457,0,0,1,713.5,172.517Z" transform="translate(-710.499 -170.308)" fill="#1a1a1a"/>
          </g>
          <g id="Grupo_118" data-name="Grupo 118" transform="translate(324.406 90.438)">
            <path id="Trazado_459" data-name="Trazado 459" d="M715.18,206.784c.3-2.445,3.006-7.894,4.176-8.556,1.383-.77,25.207-2.357,29.366-2.357,1.812,0,5.222,6.446,6.6,9.218-3.265-4.085-5.844-8.025-6.611-8.12-4.914,0-27.478,1.654-28.839,2.231-.57.321-2.635,4.029-4.2,7.276A.549.549,0,0,1,715.18,206.784Z" transform="translate(-715.18 -195.87)" fill="#1a1a1a"/>
          </g>
          <g id="Grupo_120" data-name="Grupo 120" transform="translate(122.21 126.818)">
            <g id="Grupo_119" data-name="Grupo 119">
              <path id="Trazado_460" data-name="Trazado 460" d="M400.877,314.877a15.838,15.838,0,0,1-6.613-1.529,27.537,27.537,0,0,1-10.579-8.8,58.568,58.568,0,0,1-8.858-17.681c-.6-1.841-1.109-3.659-1.646-5.587-.245-.874-.491-1.759-.747-2.643.38-.686,7.763-2.724,7.763-2.724.868-.236,1.74-.478,2.606-.721a1.188,1.188,0,0,1,1.4.475,74.105,74.105,0,0,0,13.893,13.979,5.392,5.392,0,0,0,4.958,1.024,17.968,17.968,0,0,0,5.381-2.462,70.6,70.6,0,0,0,11.451-9.5,211.558,211.558,0,0,0,18.075-20.512,1.465,1.465,0,0,1,1.728-.575c2.607.747,5.226,1.468,7.843,2.193l2.692.743A166.444,166.444,0,0,1,427.9,295.308a83.6,83.6,0,0,1-14.594,14.368,45.234,45.234,0,0,1-5.7,3.481A14.341,14.341,0,0,1,400.877,314.877Zm-27.232-36.018c.2.713.4,1.421.594,2.118.535,1.917,1.038,3.726,1.632,5.541a57.565,57.565,0,0,0,8.689,17.364,26.583,26.583,0,0,0,10.157,8.469,13.559,13.559,0,0,0,12.382-.163,43.992,43.992,0,0,0,5.559-3.4,82.5,82.5,0,0,0,14.4-14.186,249.822,249.822,0,0,0,22.794-33l-2.618-.721q-3.928-1.088-7.853-2.2c-6.9,8.279-12.842,15.02-18.729,20.805a71.086,71.086,0,0,1-11.631,9.644,18.876,18.876,0,0,1-5.713,2.607,6.5,6.5,0,0,1-5.9-1.234,75.03,75.03,0,0,1-14.092-14.184,26.654,26.654,0,0,0-2.827.651Z" transform="translate(-372.435 -257.539)" fill="#1a1a1a"/>
            </g>
          </g>
          <g id="Grupo_121" data-name="Grupo 121" transform="translate(95.828 89.744)">
            <path id="Trazado_461" data-name="Trazado 461" d="M393.459,326.178a65.742,65.742,0,1,1,65.294-73.5c-4.913-32.374-32.513-56.888-65.294-56.888A64.645,64.645,0,1,0,420.2,319.31C412.095,324.207,402.946,326.178,393.459,326.178Z" transform="translate(-327.715 -194.694)" fill="#1a1a1a"/>
          </g>
          <g id="Grupo_122" data-name="Grupo 122" transform="translate(0 443.584)">
            <path id="Trazado_462" data-name="Trazado 462" d="M704.574,795.589h-539.3c0-1.1,539.3-1.1,539.3-1.1C705.123,795.346,704.877,795.589,704.574,795.589Z" transform="translate(-165.275 -794.492)" fill="#1a1a1a"/>
          </g>
          <g id="Grupo_123" data-name="Grupo 123" transform="translate(339.571 237.818)">
            <path id="Trazado_463" data-name="Trazado 463" d="M754.18,475.225c-.62,0-1.26-.02-1.926-.066a8.122,8.122,0,0,1-6.738-3.843,25.826,25.826,0,0,1-4.571-13.342c-.263-5.151.068-10.337,7.019-12.279-5.329,2.629-6.226,6.193-5.921,12.223a24.723,24.723,0,0,0,4.38,12.772,7.029,7.029,0,0,0,5.9,3.374,18.414,18.414,0,0,0,8.669-1.211c4.194-1.819,6.288-3.918,6.056-6.086a3.766,3.766,0,0,0-1.957-2.811c1.046-.943,2.793.576,3.047,2.63.229,1.89-.743,4.693-6.71,7.273A17.863,17.863,0,0,1,754.18,475.225Z" transform="translate(-740.887 -445.695)" fill="#1a1a1a"/>
          </g>
          <g id="Grupo_124" data-name="Grupo 124" transform="translate(351.464 247.961)">
            <path id="Trazado_464" data-name="Trazado 464" d="M761.046,475.6c1.963-1.179,4.039-1.636,6.333-2.5a16.916,16.916,0,0,0,5.474-2.819,3.961,3.961,0,0,0,1.432-3.338,5.568,5.568,0,0,0-2.748-4.047,4.155,4.155,0,0,1,3.843,3.952,5.023,5.023,0,0,1-1.795,4.25,17.231,17.231,0,0,1-5.6,2.95,21.827,21.827,0,0,1-6.914,1.555Z" transform="translate(-761.046 -462.889)" fill="#1a1a1a"/>
          </g>
          <g id="Grupo_125" data-name="Grupo 125" transform="translate(348.195 250.2)">
            <path id="Trazado_465" data-name="Trazado 465" d="M755.505,469.39c1.79-1.169,4.116-1.726,6.706-2.706a10.406,10.406,0,0,1-6.684,2.706Z" transform="translate(-755.505 -466.684)" fill="#1a1a1a"/>
          </g>
          <g id="Grupo_126" data-name="Grupo 126" transform="translate(411.224 231.086)">
            <path id="Trazado_466" data-name="Trazado 466" d="M862.894,511.649c-.547-.549-.547-77.365-.547-77.365,1.1,0,1.1,76.816,1.1,76.816A.547.547,0,0,1,862.894,511.649Z" transform="translate(-862.347 -434.284)" fill="#1a1a1a"/>
          </g>
          <g id="Grupo_127" data-name="Grupo 127" transform="translate(382.321 155.621)">
            <path id="Trazado_467" data-name="Trazado 467" d="M842.8,349.7c-.547-.549-.547-35.259-.547-35.259,0-3.853-3.672-6.987-8.189-6.987H813.352c0-1.1,20.714-1.1,20.714-1.1,5.119,0,9.285,3.625,9.285,8.083v34.71A.546.546,0,0,1,842.8,349.7Z" transform="translate(-813.352 -306.363)" fill="#1a1a1a"/>
          </g>
          <g id="Grupo_128" data-name="Grupo 128" transform="translate(332.313 155.621)">
            <path id="Trazado_468" data-name="Trazado 468" d="M778.591,307.458H728.583c0-1.1,50.008-1.1,50.008-1.1C779.139,307.215,778.894,307.458,778.591,307.458Z" transform="translate(-728.583 -306.363)" fill="#1a1a1a"/>
          </g>
          <g id="Grupo_129" data-name="Grupo 129" transform="translate(193.15 155.621)">
            <path id="Trazado_469" data-name="Trazado 469" d="M493.236,452.265c-.549-.549-.549-137.819-.549-137.819,0-4.458,4.166-8.083,9.287-8.083h53.747c0,1.1-53.747,1.1-53.747,1.1-4.515,0-8.187,3.134-8.187,6.987v137.27A.55.55,0,0,1,493.236,452.265Z" transform="translate(-492.687 -306.363)" fill="#1a1a1a"/>
          </g>
          <g id="Grupo_130" data-name="Grupo 130" transform="translate(361.03 262.425)">
            <path id="Trazado_470" data-name="Trazado 470" d="M781.794,495.579c-1.485-.317-2.08-.788-2.432-1.432l-2.1-3.79c.961-.535,3.061,3.255,3.061,3.255a1.665,1.665,0,0,0,1,.8,1.619,1.619,0,0,0,1.268-.141,1.673,1.673,0,0,0,.658-2.27l-2.516-4.548c.961-.535,3.477,4.013,3.477,4.013a2.773,2.773,0,0,1-1.087,3.766A2.7,2.7,0,0,1,781.794,495.579Z" transform="translate(-777.262 -487.407)" fill="#1a1a1a"/>
          </g>
          <g id="Grupo_131" data-name="Grupo 131" transform="translate(326.362 199.021)">
            <path id="Trazado_471" data-name="Trazado 471" d="M741.6,424.522c-.481-.281-22.76-40.478-22.76-40.478a2.772,2.772,0,1,1,4.852-2.684l22.374,40.269c-.96.535-23.335-39.734-23.335-39.734a1.673,1.673,0,0,0-2.93,1.615l22.279,40.2C741.779,424.5,741.69,424.522,741.6,424.522Z" transform="translate(-718.496 -379.93)" fill="#1a1a1a"/>
          </g>
          <g id="Grupo_132" data-name="Grupo 132" transform="translate(351.688 235.605)">
            <path id="Trazado_472" data-name="Trazado 472" d="M769.853,444.494c-5.2-2.575-8.366-1.038-8.4-1.026-.359-1.052,3.142-2.819,8.651-.012C770.247,444.385,770.051,444.494,769.853,444.494Z" transform="translate(-761.426 -441.945)" fill="#1a1a1a"/>
          </g>
          <g id="Grupo_133" data-name="Grupo 133" transform="translate(244.108 421.599)">
            <path id="Trazado_473" data-name="Trazado 473" d="M652.668,758.324h-73.6c0-1.1,73.6-1.1,73.6-1.1C653.216,758.078,652.97,758.324,652.668,758.324Z" transform="translate(-579.065 -757.226)" fill="#1a1a1a"/>
          </g>
          <g id="Grupo_134" data-name="Grupo 134" transform="translate(373.957 421.599)">
            <path id="Trazado_474" data-name="Trazado 474" d="M829.726,758.324H799.174c0-1.1,30.552-1.1,30.552-1.1C830.275,758.078,830.029,758.324,829.726,758.324Z" transform="translate(-799.174 -757.226)" fill="#1a1a1a"/>
          </g>
          <g id="Grupo_135" data-name="Grupo 135" transform="translate(93.899 303.744)">
            <path id="Trazado_475" data-name="Trazado 475" d="M326.864,570.568c1.282-3.037,1.282-3.8,1.2-4.036-.111-.327-.762-.48-1.335-.62a2.631,2.631,0,0,1-1.866-.993c-.828-1.491-.2-6.487-.064-7.473.8,2.291.521,6.031,1.024,6.938.119.208.7.349,1.161.457.806.195,1.811.436,2.12,1.334.319.923-.241,2.216-1.809,4.188A.547.547,0,0,1,326.864,570.568Z" transform="translate(-324.444 -557.447)" fill="#1a1a1a"/>
          </g>
          <g id="Grupo_136" data-name="Grupo 136" transform="translate(346.449 240.615)">
            <path id="Trazado_476" data-name="Trazado 476" d="M752.546,453.991c0-1.1,4.757-1.559,6.6-3.554-1.32,3.051-6.333,3.532-6.548,3.554Z" transform="translate(-752.546 -450.437)" fill="#1a1a1a"/>
          </g>
          <g id="Grupo_137" data-name="Grupo 137" transform="translate(319.894 34.909)">
            <path id="Trazado_477" data-name="Trazado 477" d="M713.734,125.045c-.579-.313-6.1-4.879-6.2-11.036-.06-3.469,1.615-6.718,4.978-9.66a9.606,9.606,0,0,1,7.308-2.574c5.795.5,10.369,6.086,10.559,6.323-.9.636-5.331-4.77-10.661-5.228a8.522,8.522,0,0,0-6.482,2.306c-3.11,2.716-4.656,5.68-4.606,8.806.095,5.646,5.4,10.044,5.455,10.088C714.052,124.978,713.894,125.045,713.734,125.045Z" transform="translate(-707.531 -101.742)" fill="#1a1a1a"/>
          </g>
          <g id="Grupo_138" data-name="Grupo 138" transform="translate(337.824 34.849)">
            <path id="Trazado_478" data-name="Trazado 478" d="M761.131,115.122c-.544-.422-5.246-10.417-13.673-11.942-8.093-1.476-9.277,1.25-9.291,1.275-.911-.739.435-4,9.489-2.359,9,1.632,13.774,11.813,13.974,12.245C761.285,115.1,761.208,115.122,761.131,115.122Z" transform="translate(-737.924 -101.641)" fill="#1a1a1a"/>
          </g>
          <g id="Grupo_139" data-name="Grupo 139" transform="translate(326.52 49.113)">
            <path id="Trazado_479" data-name="Trazado 479" d="M736.185,140.9a4.23,4.23,0,0,1-3.354-2.027c-1.2-2.153-.164-5.244.186-6.139-2.8-5.167-14.137-6.6-14.254-6.615.638-1.032,12.495.47,15.349,6.348,0,.493-1.446,3.861-.321,5.874a3.1,3.1,0,0,0,2.471,1.464C736.688,140.7,736.452,140.9,736.185,140.9Z" transform="translate(-718.763 -125.819)" fill="#1a1a1a"/>
          </g>
          <g id="Grupo_140" data-name="Grupo 140" transform="translate(501.492 160.758)">
            <path id="Trazado_480" data-name="Trazado 480" d="M1015.361,431.117a23.631,23.631,0,0,1,2.411-6.424,12.262,12.262,0,0,1-1.926,6.138A.557.557,0,0,1,1015.361,431.117Zm5.6-11.363a24.383,24.383,0,0,1,2-6.573,12.353,12.353,0,0,1-1.5,6.252A.543.543,0,0,1,1020.959,419.754Zm4.81-11.72c-.476-.14-.62-.457-.517-.739.739-1.975,1.446-3.98,2.1-5.951a12.041,12.041,0,0,1-1.069,6.333A.554.554,0,0,1,1025.77,408.034Zm4.007-12.005c-.444-.109-.612-.412-.525-.7.6-2.036,1.161-4.085,1.672-6.086a11.986,11.986,0,0,1-.621,6.393A.547.547,0,0,1,1029.777,396.029Zm3.134-12.267a31.161,31.161,0,0,1,.658-6.86c.733,2.2.339,4.24-.119,6.425A.552.552,0,0,1,1032.911,383.762Zm2.135-12.472a34.614,34.614,0,0,1,.1-6.888,11.843,11.843,0,0,1,.44,6.41A.547.547,0,0,1,1035.047,371.289Zm1-12.614a13.076,13.076,0,0,1-.493-4.148q0-1.355-.032-2.716a2.938,2.938,0,0,1,1.129,2.716q0,1.816-.055,3.617A.55.55,0,0,1,1036.043,358.675Zm-.3-12.645a49.744,49.744,0,0,1-1.232-6.763c1.373,1.9,1.609,4.025,1.781,6.169C1035.772,346.03,1035.758,346.03,1035.744,346.03Zm-1.759-12.532a63.4,63.4,0,0,1-2-6.555,11.432,11.432,0,0,1,2.54,5.9C1034.058,333.494,1034.022,333.5,1033.985,333.5Zm-3.342-12.2c-1.219-2.367-1.981-4.338-2.787-6.228a11.269,11.269,0,0,1,3.3,5.5C1030.766,321.288,1030.7,321.3,1030.643,321.3Z" transform="translate(-1015.361 -315.07)" fill="#1a1a1a"/>
          </g>
          <g id="Grupo_141" data-name="Grupo 141" transform="translate(411.137 105.627)">
            <path id="Trazado_481" data-name="Trazado 481" d="M953.663,256.721a6.107,6.107,0,0,1-1.2-1.206c1.125-.345,1.379-.014,1.636.327C953.895,256.686,953.782,256.721,953.663,256.721Zm-4.81-5.852c-1.809-1.751-3.269-3.275-4.755-4.717a11.268,11.268,0,0,1,5.163,3.8C949.117,250.824,948.986,250.869,948.853,250.869Zm-9.075-8.792c-1.946-1.457-3.62-2.744-5.329-3.958a11.256,11.256,0,0,1,5.682,2.987C940.091,242.01,939.936,242.078,939.778,242.078Zm-10.3-7.315c-2.09-1.159-3.944-2.175-5.794-3.09a11.037,11.037,0,0,1,6.076,2.072C929.843,234.668,929.663,234.763,929.476,234.763Zm-11.316-5.63c-2.114-.812-4.1-1.527-6.115-2.171a11.265,11.265,0,0,1,6.323,1.116C918.583,229.006,918.379,229.133,918.16,229.133Zm-12.047-3.857c-2.125-.5-4.2-.921-6.287-1.27a11.369,11.369,0,0,1,6.418.186C906.585,225.108,906.363,225.276,906.113,225.276Zm-43.914-.19c-.05-1.107,2.2-1.72,6.121-2.336a42.333,42.333,0,0,1-5.977,2.316A.512.512,0,0,1,862.2,225.086Zm31.447-1.914q-3.144-.315-6.33-.432a11.575,11.575,0,0,1,6.383-.666C894.162,222.962,893.926,223.172,893.647,223.172Zm-18.957-.095a11.7,11.7,0,0,1,6.3-1.46,14.778,14.778,0,0,1-6.252,1.46Z" transform="translate(-862.199 -221.617)" fill="#1a1a1a"/>
          </g>
          <g id="Grupo_142" data-name="Grupo 142" transform="translate(307.056 340.4)">
            <path id="Trazado_482" data-name="Trazado 482" d="M713.306,674.655a27.518,27.518,0,1,1,26.663-20.646,31.637,31.637,0,0,1-.226-6.886,26.426,26.426,0,1,0-13.637,23.135C722.588,673.468,717.977,674.655,713.306,674.655Z" transform="translate(-685.769 -619.583)" fill="#1a1a1a"/>
          </g>
          <g id="Grupo_143" data-name="Grupo 143" transform="translate(21.245 221.32)">
            <path id="Trazado_483" data-name="Trazado 483" d="M226.221,515.107a21.528,21.528,0,0,1-3.053-1.861,4.415,4.415,0,0,1,3.324.834C226.6,515.006,226.411,515.107,226.221,515.107Zm-7.482-5.918a28.684,28.684,0,0,1-4.426-5.151,19.333,19.333,0,0,1,4.822,4.222C219.011,509.139,218.873,509.189,218.739,509.189Zm-7.218-10.341a30.106,30.106,0,0,1-3.122-6.107,16.6,16.6,0,0,1,3.612,5.305C211.693,498.83,211.608,498.847,211.521,498.847Zm-4.7-11.741a30.72,30.72,0,0,1-2.179-6.53,14.916,14.916,0,0,1,2.706,5.823C206.926,487.1,206.87,487.106,206.818,487.106Zm-2.92-12.3a16.93,16.93,0,0,1-1.216-4.643c-.1-.694-.2-1.391-.289-2.09A2.1,2.1,0,0,1,203.769,470c.2,1.361.418,2.748.672,4.158C203.962,474.805,203.93,474.805,203.9,474.805Zm-1.65-12.546a27.854,27.854,0,0,1-.961-6.837,14.066,14.066,0,0,1,1.51,6.239C202.28,462.259,202.264,462.259,202.248,462.259Zm-.525-12.635a25.316,25.316,0,0,1-.345-6.9,14.326,14.326,0,0,1,.893,6.361A.547.547,0,0,1,201.723,449.624Zm.747-12.632a22.992,22.992,0,0,1,.36-6.9,14.307,14.307,0,0,1,.186,6.415A.547.547,0,0,1,202.47,436.993Zm2.183-12.459a20.528,20.528,0,0,1,1.159-6.8,14.627,14.627,0,0,1-.624,6.383A.548.548,0,0,1,204.653,424.534Z" transform="translate(-201.287 -417.729)" fill="#1a1a1a"/>
          </g>
          <g id="Grupo_144" data-name="Grupo 144" transform="translate(36.497 161.233)">
            <path id="Trazado_484" data-name="Trazado 484" d="M227.142,355.365a13.994,13.994,0,0,1,2.9-5.436,11.567,11.567,0,0,1-2.442,5.2A.549.549,0,0,1,227.142,355.365Zm7.387-9.4a15.384,15.384,0,0,1,3.988-5.513,14.957,14.957,0,0,1-3.578,5.331A.539.539,0,0,1,234.529,345.963Zm9.04-8.842a14.5,14.5,0,0,1,4.606-4.941,14.807,14.807,0,0,1-4.247,4.81A.549.549,0,0,1,243.569,337.121Zm10.126-7.575a13.825,13.825,0,0,1,5.139-4.3,14.661,14.661,0,0,1-4.84,4.216A.561.561,0,0,1,253.694,329.546Zm11.022-6.189a12.969,12.969,0,0,1,5.593-3.6,14.923,14.923,0,0,1-5.355,3.54A.54.54,0,0,1,264.716,323.357Zm11.75-4.679a12.554,12.554,0,0,1,5.955-2.8,14.671,14.671,0,0,1-5.787,2.78A.736.736,0,0,1,276.466,318.678Z" transform="translate(-227.142 -315.876)" fill="#1a1a1a"/>
          </g>
          <g id="Grupo_145" data-name="Grupo 145" transform="translate(248.185 72.212)">
            <path id="Trazado_485" data-name="Trazado 485" d="M597.533,166.073H585.976c0-1.1,11.557-1.1,11.557-1.1C598.084,165.827,597.838,166.073,597.533,166.073Z" transform="translate(-585.976 -164.975)" fill="#1a1a1a"/>
          </g>
          <g id="Grupo_146" data-name="Grupo 146" transform="translate(250.633 77.529)">
            <path id="Trazado_486" data-name="Trazado 486" d="M597.565,175.086h-7.439c0-1.1,7.439-1.1,7.439-1.1C598.116,174.842,597.868,175.086,597.565,175.086Z" transform="translate(-590.126 -173.988)" fill="#1a1a1a"/>
          </g>
          <g id="Grupo_147" data-name="Grupo 147" transform="translate(273.201 161.325)">
            <path id="Trazado_487" data-name="Trazado 487" d="M665.882,330.634A19.9,19.9,0,0,0,646.7,317.126c-8.409,0-15.773,4.847-18.321,12.057,1.664-8.015,9.444-13.152,18.321-13.152,9.341,0,17.445,5.715,19.708,13.909C665.981,330.629,665.931,330.634,665.882,330.634Z" transform="translate(-628.382 -316.031)" fill="#1a1a1a"/>
          </g>
          <g id="Grupo_148" data-name="Grupo 148" transform="translate(499.913 140.559)">
            <path id="Trazado_488" data-name="Trazado 488" d="M1021.666,298.8a8.986,8.986,0,1,1,8.986-8.986A9,9,0,0,1,1021.666,298.8Zm0-16.875a7.889,7.889,0,1,0,7.889,7.889A7.9,7.9,0,0,0,1021.666,281.928Z" transform="translate(-1012.684 -280.831)" fill="#1a1a1a"/>
          </g>
          <g id="Grupo_149" data-name="Grupo 149" transform="translate(20.518 200.894)">
            <path id="Trazado_489" data-name="Trazado 489" d="M209.037,401.074a8.984,8.984,0,1,1,8.984-8.986A8.994,8.994,0,0,1,209.037,401.074Zm0-16.87a7.886,7.886,0,1,0,7.887,7.884A7.894,7.894,0,0,0,209.037,384.2Z" transform="translate(-200.055 -383.106)" fill="#1a1a1a"/>
          </g>
        </g>
      </g>
    </g>
  </g>
</svg>
