<svg xmlns="http://www.w3.org/2000/svg" xmlns:xlink="http://www.w3.org/1999/xlink" width="540.083" height="422.179" viewBox="0 0 540.083 422.179">
  <defs>
    <linearGradient id="linear-gradient" x1="-2.772" y1="-3.054" x2="-2.772" y2="-3.056" gradientUnits="objectBoundingBox">
      <stop offset="0" stop-color="#ff5a00"/>
      <stop offset="1" stop-color="#ffbe00"/>
    </linearGradient>
    <linearGradient id="linear-gradient-2" x1="0" y1="0.5" x2="1" y2="0.5" xlink:href="#linear-gradient"/>
    <linearGradient id="linear-gradient-3" y1="0.5" x2="1" y2="0.5" gradientUnits="objectBoundingBox">
      <stop offset="0" stop-color="#d109c8"/>
      <stop offset="1" stop-color="#f40019"/>
    </linearGradient>
    <linearGradient id="linear-gradient-4" y1="0.5" x2="1" y2="0.5" gradientUnits="objectBoundingBox">
      <stop offset="0" stop-color="#1a65bc"/>
      <stop offset="0.301" stop-color="#0f76d2"/>
      <stop offset="0.691" stop-color="#0488e9"/>
      <stop offset="0.935" stop-color="#008ff2"/>
    </linearGradient>
  </defs>
  <g id="atraccion-inbound-marketing" transform="translate(-122.576 -39.602)">
    <path id="Trazado_509" data-name="Trazado 509" d="M639.491,144.114c29.882,20.959,48.263,78.046-7.538,145.8S531.276,308.01,514.883,397.252s-142.631,70.228-176.8,36.031-34.127-51.515-118.2-58.77-106.049-90.879-67.958-137.52c44.494-54.478-86.893-132.411,47.455-185.014C304.054,11,547.459,79.563,639.491,144.114Z" transform="translate(-5.321)" opacity="0.08" fill="url(#linear-gradient)"/>
    <g id="Grupo_753" data-name="Grupo 753" transform="translate(122.576 65.566)">
      <path id="Trazado_594" data-name="Trazado 594" d="M122.577,624.946l19.171,68.012s2.929,14.578,13.236,17.29l130.541.574s15.026-2.678,15.307-17.8l-19.749-67.245s-2.931-15.838-18.608-15.838H130.242A17.336,17.336,0,0,0,122.577,624.946Z" transform="translate(-122.576 -334.237)" fill="#fff"/>
      <path id="Trazado_595" data-name="Trazado 595" d="M122.577,624.946l19.171,68.012s2.929,14.578,13.236,17.29l130.541.574s15.026-2.678,15.307-17.8l-19.749-67.245s-2.931-15.838-18.608-15.838H130.242A17.336,17.336,0,0,0,122.577,624.946Z" transform="translate(-122.576 -334.237)" opacity="0.5" fill="url(#linear-gradient-2)"/>
      <path id="Trazado_596" data-name="Trazado 596" d="M479.978,761.624h41.646s1.195-3.961,2.155-5.22a6.5,6.5,0,0,0-.43-8.164c-2.867-3.264-3.967-3.632-11.659-4.144s-19.707.442-21.539,1.54-4.907,2.343-6.52,6.812S479.978,761.624,479.978,761.624Z" transform="translate(-290.938 -397.366)" fill="#fff"/>
      <rect id="Rectángulo_48" data-name="Rectángulo 48" width="238.398" height="180.963" transform="translate(228.644 72.985)" fill="#fff"/>
      <rect id="Rectángulo_49" data-name="Rectángulo 49" width="99.83" height="124.26" transform="translate(342.876 94.028)" opacity="0.5" fill="url(#linear-gradient-3)"/>
      <path id="Trazado_597" data-name="Trazado 597" d="M805.536,276.728s6.01-2.984,8.255-2.464a44,44,0,0,1,12.062,4.634,21.212,21.212,0,0,0,16.554,2.056c5.521-1.728,11.04,5.857,11.04,7.237s1.351,14.639-2.174,21.209a7.719,7.719,0,0,1,4.13,3.836c1.812,4.226,1.17,10.931-7.593,11.963,0,0-1.378,26.166.611,26.941s30.436,6.415,30.436,15.048v23.264H780.365l-.331-9.861s0-5.211,2.326-6.978l1.769-3.821s15.6-18.127,35.631-17.125l-.691-8.426s-14.026.5-15.244-10.118,2.6.629,3.431-35.641c0,0-10.057-.17-7.552-14.365C800.2,281.3,805.536,276.728,805.536,276.728Z" transform="translate(-432.286 -176.08)" fill="#fff"/>
      <rect id="Rectángulo_50" data-name="Rectángulo 50" width="238.4" height="24.33" transform="translate(231.548 52.546)" opacity="0.53" fill="url(#linear-gradient-4)"/>
      <path id="Trazado_598" data-name="Trazado 598" d="M490.777,560.451c-7.328-22.857-22.565-40.879-28.427-50.111s-38.95-45-74.859-43.6c0,0-1.992,18.948-15.217,19.55s-13.83-14.7-13.83-14.7-22.257-1.762-50.681,23.11-32.214,40.011-32.214,40.011l67.971.535s12.482-1.888,17.965,16.13,19.893,69.585,19.893,69.585-.547,8.829-2.645,10.057h4.944s3.99-14.174,9.123-15.39,13.882-2.468,19.733-2.178,14.505.781,15.971,7.077-3.659,5.892-3.149,10.491H443s4.885,2.334,3.556,5.028c0,0,20.566-.825,32.394-15.793S498.1,583.31,490.777,560.451Zm-45.716,8.5c-4.977,13.565-22.42,20.4-22.42,20.4l12.147-55.839S450.813,553.273,445.061,568.951Z" transform="translate(-194.637 -266.761)" fill="#1a1a1a"/>
      <path id="Trazado_599" data-name="Trazado 599" d="M831.938,604.153s3.951-4.309.36-15.081.356-22.267,14-23.7,20.469,11.492,18.674,20.11-2.513,11.135,0,19.394,1.077,31.6-22.625,30.884C821.064,635.113,823.677,613.13,831.938,604.153Z" transform="translate(-453.876 -313.188)" fill="#fff"/>
      <path id="Trazado_600" data-name="Trazado 600" d="M884.686,528.587c0,5.454-2.9,9.873-6.466,9.873s-6.462-4.42-6.462-9.873,2.894-9.876,6.462-9.876S884.686,523.132,884.686,528.587Z" transform="translate(-475.495 -291.261)" fill="#fff"/>
      <path id="Trazado_601" data-name="Trazado 601" d="M808.365,735.652c-18.651-.545-21.278-4.012-21.278-4.012v1.8c-3.64-.329-19.182-.664-19.552,17.282-.421,20.331,19.552,21.259,19.552,21.259v2.552s3.4,3.015,21.967,3.015,20.57-3.354,20.57-3.354V731.64S827.017,736.2,808.365,735.652ZM774.05,748.843c.93-9.779,12.766-8.774,12.766-8.774l.271-1.713v26.894C781.835,763.85,773.121,758.614,774.05,748.843Z" transform="translate(-426.395 -391.566)" opacity="0.53" fill="url(#linear-gradient-4)"/>
      <path id="Trazado_602" data-name="Trazado 602" d="M847.044,727.164c0,2.4-9.522,4.337-21.269,4.337s-21.268-1.939-21.268-4.337,9.522-4.335,21.268-4.335S847.044,724.769,847.044,727.164Z" transform="translate(-443.815 -387.415)" fill="#fff"/>
      <path id="Trazado_603" data-name="Trazado 603" d="M292.2,692.936c1.563,5.3-.785,10.663-5.251,11.98s-9.349-1.907-10.912-7.206.786-10.657,5.249-11.98S290.633,687.643,292.2,692.936Z" transform="translate(-194.639 -369.8)" fill="#fff"/>
      <path id="Trazado_604" data-name="Trazado 604" d="M376.536,339.708l35.727-8.911s-1.512-11.052-.418-13.074l13.142,16.046s5.286-3.189,10.684,6.092c0,0,3.1,7.093-1.164,12.252,0,0,4.936,5.709.973,15.289s-4.431,9.863-4.431,9.863,17.156-7.175,18.781-13.864c0,0-5.129-19.215-5.9-28.864a126.97,126.97,0,0,1-.436-15.46s-4.249-15.97-21.321-17.728a78.183,78.183,0,0,0-39.355,6.384S368.514,314.435,376.536,339.708Z" transform="translate(-241.059 -188.687)" opacity="0.2"/>
      <path id="Trazado_605" data-name="Trazado 605" d="M370.17,358.691l40.246-10.68s-1.945-9.685-1.072-10.5l9.505,17.183s3.215-4.023,5.876-4.179,8.105,1.411,9.658,8.465-1.409,11.531-8.171,12.535c0,0,4.111,4.6,1.532,13.135a71.958,71.958,0,0,1-4.942,12.792l5.191-1.978,4.072,10.42s-2.175,15.758-12.5,19.164-15.1-7.393-16.543-14.316l-1.993-10.447s-14.154,3.054-20.831-9.586C373.7,378.4,370.17,358.691,370.17,358.691Z" transform="translate(-239.211 -205.902)" fill="#fff"/>
      <path id="Trazado_606" data-name="Trazado 606" d="M394.229,447.633l-.576-.878-2.254,6.18,6.063-2.912Z" transform="translate(-249.211 -257.364)" opacity="0.2"/>
      <path id="Trazado_607" data-name="Trazado 607" d="M541.037,770.784h3.572V763.4S540.544,766.771,541.037,770.784Z" transform="translate(-319.682 -406.527)" fill="#3a3a3a"/>
      <path id="Trazado_608" data-name="Trazado 608" d="M422.417,113.683l-5.74-24.994,63.253,19.227L432.3,148.771l-7.642-29.179,51.867-11.21Z" transform="translate(-261.119 -88.689)" opacity="0.5" fill="url(#linear-gradient-2)"/>
      <path id="Trazado_609" data-name="Trazado 609" d="M423.934,145.917l-14.139,1.8,9.38-16.907,55.864-5.761-53.624,11.669Z" transform="translate(-257.877 -105.819)" opacity="0.5" fill="url(#linear-gradient-2)"/>
      <path id="Trazado_610" data-name="Trazado 610" d="M926.293,198.782a2.989,2.989,0,1,1-2.99-2.991A2.988,2.988,0,0,1,926.293,198.782Z" transform="translate(-498.369 -139.142)" fill="#fff"/>
      <path id="Trazado_611" data-name="Trazado 611" d="M948.352,198.782a2.989,2.989,0,1,1-2.99-2.991A2.988,2.988,0,0,1,948.352,198.782Z" transform="translate(-508.76 -139.142)" fill="#fff"/>
      <path id="Trazado_612" data-name="Trazado 612" d="M969.345,198.782a2.989,2.989,0,1,1-2.988-2.991A2.988,2.988,0,0,1,969.345,198.782Z" transform="translate(-518.649 -139.142)" fill="#fff"/>
      <g id="Grupo_657" data-name="Grupo 657" transform="translate(48.646 176.697)">
        <g id="Grupo_654" data-name="Grupo 654" transform="translate(9.665 11.739)">
          <path id="Trazado_613" data-name="Trazado 613" d="M233.6,454.139c-.911-.568-.911-1.092-.588-1.417l7.525-7.525a.822.822,0,0,1,1.174,0,.83.83,0,0,1,0,1.173L234.19,453.9A.816.816,0,0,1,233.6,454.139Z" transform="translate(-232.82 -444.951)" fill="#1a1a1a"/>
        </g>
        <g id="Grupo_655" data-name="Grupo 655" transform="translate(9.619 11.739)">
          <path id="Trazado_614" data-name="Trazado 614" d="M241.086,454.139c-.587-.242-8.112-7.769-8.112-7.769a.831.831,0,0,1,0-1.173.822.822,0,0,1,1.174,0l7.525,7.525a.833.833,0,0,1,0,1.175A.817.817,0,0,1,241.086,454.139Z" transform="translate(-232.732 -444.951)" fill="#1a1a1a"/>
        </g>
        <g id="Grupo_656" data-name="Grupo 656">
          <path id="Trazado_615" data-name="Trazado 615" d="M218.188,430.041a3.642,3.642,0,1,1,3.642-3.644A3.646,3.646,0,0,1,218.188,430.041Zm0-5.627a1.985,1.985,0,1,0,1.978,1.982A1.984,1.984,0,0,0,218.188,424.414Z" transform="translate(-214.546 -422.756)" fill="#1a1a1a"/>
        </g>
      </g>
      <g id="Grupo_659" data-name="Grupo 659" transform="translate(440.686 291.688)">
        <g id="Grupo_658" data-name="Grupo 658">
          <path id="Trazado_616" data-name="Trazado 616" d="M958.727,646.114a2.977,2.977,0,1,1,2.978-2.98A2.983,2.983,0,0,1,958.727,646.114Zm0-4.3a1.319,1.319,0,1,0,1.318,1.316A1.32,1.32,0,0,0,958.727,641.818Z" transform="translate(-955.745 -640.16)" fill="#1a1a1a"/>
        </g>
      </g>
      <g id="Grupo_664" data-name="Grupo 664" transform="translate(150.867 0.153)">
        <g id="Grupo_660" data-name="Grupo 660" transform="translate(0 18.239)">
          <path id="Trazado_617" data-name="Trazado 617" d="M408.628,147.689c-.8-.317-.948-.821-.73-1.224l9.117-16.8c.648-.43,58.655-6.194,58.655-6.194a.84.84,0,0,1,.907.744.826.826,0,0,1-.742.907l-57.571,5.719-8.907,16.414A.829.829,0,0,1,408.628,147.689Z" transform="translate(-407.807 -123.461)" fill="#1a1a1a"/>
        </g>
        <g id="Grupo_661" data-name="Grupo 661" transform="translate(0.309 29.843)">
          <path id="Trazado_618" data-name="Trazado 618" d="M409.134,158.134c-.9-.8-.831-1.189-.57-1.436l11.764-11.073a.831.831,0,0,1,1.137,1.212l-9.9,9.32,11.6-1.481a.832.832,0,0,1,.212,1.65l-14.139,1.8A.865.865,0,0,1,409.134,158.134Z" transform="translate(-408.391 -145.4)" fill="#1a1a1a"/>
        </g>
        <g id="Grupo_662" data-name="Grupo 662" transform="translate(3.881)">
          <path id="Trazado_619" data-name="Trazado 619" d="M421.7,114.648a.833.833,0,0,1-.81-.642l-5.74-24.992c1.051-.983,64.8,18.25,64.8,18.25a.83.83,0,0,1-.158,1.621l-58.006,5.758A.54.54,0,0,1,421.7,114.648Zm-4.613-24.613,5.259,22.886,53.118-5.275Z" transform="translate(-415.145 -88.978)" fill="#1a1a1a"/>
        </g>
        <g id="Grupo_663" data-name="Grupo 663" transform="translate(12.011 18.254)">
          <path id="Trazado_620" data-name="Trazado 620" d="M438.818,165.994c-.8-.621-8.3-29.876-8.3-29.876.634-1.02,56.259-12.613,56.259-12.613a.841.841,0,0,1,.913.449.829.829,0,0,1-.206,1L439.357,165.8A.836.836,0,0,1,438.818,165.994Zm-6.478-29.451,6.953,27.133L483.919,125.8Z" transform="translate(-430.515 -123.49)" fill="#1a1a1a"/>
        </g>
      </g>
      <g id="Grupo_665" data-name="Grupo 665" transform="translate(4.719 41.185)">
        <path id="Trazado_621" data-name="Trazado 621" d="M153.834,381.958a37.412,37.412,0,0,1-5.355-6.057.831.831,0,0,1,1.332-.993c1.9,2.56,3.572,4.492,4.638,5.662a.83.83,0,0,1-.615,1.388Zm-8.843-11.844a37.411,37.411,0,0,1-4.363-6.9.83.83,0,0,1,1.481-.751c1.1,2.163,2.3,4.309,3.587,6.386a.827.827,0,0,1-.705,1.267Zm-6.684-13.168a31.291,31.291,0,0,1-3.26-7.554.83.83,0,1,1,1.588-.485c.707,2.321,1.528,4.641,2.441,6.9a.83.83,0,0,1-.456,1.084A.88.88,0,0,1,138.306,356.946Zm-4.3-14.127a.835.835,0,0,1-.813-.662c-.506-2.431-.9-4.911-1.18-7.365a.828.828,0,0,1,.73-.919.848.848,0,0,1,.919.73c.272,2.4.662,4.833,1.158,7.218a.832.832,0,0,1-.646.981A.768.768,0,0,1,134.006,342.818Zm-1.664-14.668a.828.828,0,0,1-.829-.812c-.012-.563-.016-1.133-.016-1.7,0-1.9.066-3.832.2-5.752a.83.83,0,1,1,1.656.117c-.132,1.878-.2,3.774-.2,5.635,0,.563,0,1.119.015,1.674a.826.826,0,0,1-.81.843Zm1.022-14.721a.851.851,0,0,1-.822-.956c.385-2.425.881-4.885,1.479-7.318a.84.84,0,0,1,1-.6.828.828,0,0,1,.609,1c-.586,2.385-1.074,4.8-1.45,7.175A.825.825,0,0,1,133.364,313.43Zm3.5-14.345c-.7-.185-.932-.654-.788-1.087.767-2.33,1.639-4.681,2.588-6.987a.822.822,0,0,1,1.083-.45.832.832,0,0,1,.453,1.084c-.936,2.266-1.791,4.578-2.548,6.873A.829.829,0,0,1,136.865,299.085Zm5.607-13.662c-.778-.286-.946-.782-.745-1.2.87-1.771,1.814-3.577,2.8-5.363.228-.411.461-.819.7-1.218a.83.83,0,0,1,1.423.853c-.23.382-.454.773-.672,1.168-.977,1.764-1.906,3.543-2.766,5.3A.83.83,0,0,1,142.471,285.423Zm69.021-7.667c-.938-.962-.721-1.443-.294-1.6a12.236,12.236,0,0,0,4.455-3.112c.352-.372.681-.743.983-1.111a.832.832,0,0,1,1.279,1.063q-.49.586-1.055,1.189a13.833,13.833,0,0,1-5.071,3.519A.792.792,0,0,1,211.493,277.756Zm-7.225-.016a18.434,18.434,0,0,1-6.754-4.156.83.83,0,0,1,1.127-1.22,17.484,17.484,0,0,0,5.9,3.766.829.829,0,0,1-.278,1.61Zm-54.019-4.829c-.888-.5-.929-1.02-.632-1.368a46.475,46.475,0,0,1,5.333-5.294.83.83,0,1,1,1.072,1.267,45.052,45.052,0,0,0-5.142,5.106A.827.827,0,0,1,150.249,272.911Zm43.057-4.73a28.806,28.806,0,0,1-4.411-6.89.829.829,0,1,1,1.5-.711,47.721,47.721,0,0,0,3.6,6.3.827.827,0,0,1-.218,1.151A.812.812,0,0,1,193.306,268.18Zm27.088-1.462a.845.845,0,0,1-.827-.9,7.325,7.325,0,0,0-2.529-5.857.832.832,0,0,1-.043-1.175.842.842,0,0,1,1.172-.039,8.708,8.708,0,0,1,3.087,6.5C221.181,266.393,220.819,266.718,220.394,266.718Zm-58.934-3.344c-.946-.778-.827-1.29-.436-1.532a57.234,57.234,0,0,1,6.608-3.531.83.83,0,1,1,.689,1.51,56.011,56.011,0,0,0-6.423,3.429A.8.8,0,0,1,161.46,263.374Zm13.415-6.127a.829.829,0,0,1-.251-1.619,69,69,0,0,1,7.241-1.874.83.83,0,0,1,.329,1.627,68.326,68.326,0,0,0-7.066,1.826A.839.839,0,0,1,174.875,257.247Zm36.365-.736a42.636,42.636,0,0,0-7.286-1.818.831.831,0,0,1-.689-.95.855.855,0,0,1,.95-.691,38.958,38.958,0,0,1,7.311,1.853.829.829,0,0,1-.286,1.606ZM186.9,254.9a.825.825,0,0,1-.788-.565,66.228,66.228,0,0,1-1.942-7.231.83.83,0,1,1,1.626-.335,64.23,64.23,0,0,0,1.89,7.042.832.832,0,0,1-.529,1.051A.887.887,0,0,1,186.9,254.9Zm2.439-.574a.829.829,0,0,1-.076-1.655,64.481,64.481,0,0,1,7.482-.266.829.829,0,0,1,.806.853.889.889,0,0,1-.849.8,64.433,64.433,0,0,0-7.287.259A.541.541,0,0,1,189.339,254.327Zm-5.466-13.861a.83.83,0,0,1-.825-.751c-.2-2.092-.3-4.208-.3-6.283,0-.4,0-.8.013-1.2a.829.829,0,0,1,1.657.031c-.006.389-.008.78-.006,1.166,0,2.03.1,4.091.29,6.131a.829.829,0,0,1-.748.9A.512.512,0,0,1,183.872,240.466Zm.292-14.752a.846.846,0,0,1-.822-.942,59.2,59.2,0,0,1,1.493-7.344.822.822,0,0,1,1.018-.582.832.832,0,0,1,.584,1.02A57.812,57.812,0,0,0,184.983,225,.828.828,0,0,1,184.164,225.713Zm3.881-14.226c-.744-.243-.944-.73-.765-1.154a54.029,54.029,0,0,1,3.389-6.686.83.83,0,1,1,1.423.854,52.34,52.34,0,0,0-3.284,6.483A.823.823,0,0,1,188.045,211.488Zm7.534-12.66c-.87-.452-.936-.973-.656-1.337,1.529-1.979,3.153-3.891,4.833-5.685a.829.829,0,0,1,1.211,1.133c-1.641,1.756-3.235,3.628-4.73,5.568A.829.829,0,0,1,195.579,198.827Zm10.079-10.773c-.927-.625-.892-1.149-.549-1.45,1.861-1.639,3.827-3.206,5.843-4.654a.83.83,0,1,1,.968,1.347c-1.972,1.419-3.893,2.947-5.713,4.551A.821.821,0,0,1,205.658,188.055Zm11.982-8.613c-.948-.81-.815-1.318-.418-1.549,2.133-1.236,4.362-2.392,6.626-3.436a.831.831,0,1,1,.695,1.51c-2.219,1.02-4.4,2.153-6.488,3.367A.837.837,0,0,1,217.64,179.442Zm13.4-6.178c-.934-.985-.709-1.458-.278-1.611,2.308-.818,4.71-1.552,7.138-2.178a.827.827,0,1,1,.414,1.6c-2.382.619-4.734,1.339-7,2.138A.866.866,0,0,1,231.045,173.264Zm14.291-3.718a.829.829,0,0,1-.138-1.645c2.435-.424,4.923-.751,7.4-.975a.794.794,0,0,1,.9.751.83.83,0,0,1-.751.9c-2.429.222-4.874.543-7.268.956A.844.844,0,0,1,245.336,169.546Zm22.1-1.02a61.663,61.663,0,0,0-6.69-.317c-1.146,0-1.517-.355-1.524-.81a.827.827,0,0,1,.815-.844,66.429,66.429,0,0,1,7.5.317.83.83,0,0,1-.1,1.654Z" transform="translate(-131.497 -166.555)" fill="#1a1a1a"/>
      </g>
      <g id="Grupo_666" data-name="Grupo 666" transform="translate(346.824 347.671)">
        <path id="Trazado_622" data-name="Trazado 622" d="M792.156,772.854c-.31-.047-13.078-3.035-13.839-15.449-.212-3.492.722-6.256,2.779-8.218,4.009-3.832,10.783-3.149,11.079-3.118A.831.831,0,0,1,792,747.72c-.066,0-6.316-.626-9.763,2.669-1.68,1.61-2.443,3.934-2.26,6.914.683,11.151,11.885,13.8,12.362,13.911a.83.83,0,0,1-.181,1.639Z" transform="translate(-778.288 -746.003)" fill="#1a1a1a"/>
      </g>
      <g id="Grupo_667" data-name="Grupo 667" transform="translate(340.243 341.124)">
        <path id="Trazado_623" data-name="Trazado 623" d="M785.824,773.74c-.294-.025-21.323-2.326-19.91-22.148.438-6.135,2.558-10.813,6.3-13.911,5.888-4.863,13.584-4.012,13.907-3.98a.829.829,0,0,1,.726.921.852.852,0,0,1-.919.728c-.076-.016-7.338-.8-12.667,3.619-3.372,2.8-5.287,7.081-5.692,12.739-1.3,18.23,17.532,20.3,18.335,20.377a.829.829,0,0,1-.08,1.653Z" transform="translate(-765.846 -733.625)" fill="#1a1a1a"/>
      </g>
      <g id="Grupo_668" data-name="Grupo 668" transform="translate(359.878 381.743)">
        <path id="Trazado_624" data-name="Trazado 624" d="M825.177,815.487c-2.274,0-22.21-.117-22.21-4.187a.831.831,0,0,1,1.662,0c.622.968,8.319,2.529,20.548,2.529,13.125,0,19.816-1.74,20.331-2.628a.78.78,0,0,1,.818-.781.867.867,0,0,1,.823.88C847.149,815.37,827.425,815.487,825.177,815.487Z" transform="translate(-802.967 -810.42)" fill="#1a1a1a"/>
      </g>
      <g id="Grupo_669" data-name="Grupo 669" transform="translate(365.284 247.416)">
        <path id="Trazado_625" data-name="Trazado 625" d="M831.582,628.624c-.358,0-.72,0-1.087-.016-10.094-.3-14.25-5.212-15.957-9.273-3.313-7.873-.08-18.24,4.96-23.719.029-.031,3.545-4.169.181-14.256-2.125-6.377-1.627-12.7,1.361-17.341,2.733-4.24,7.346-6.817,13.348-7.447a19.654,19.654,0,0,1,2.147-.113,16.989,16.989,0,0,1,13.432,6.349c3.429,4.214,5,10.053,3.992,14.866l-.23,1.1c-1.594,7.619-2.13,10.188.212,17.884,1.524,5.008,1.789,15.862-3.992,23.667C845.865,625.832,839.685,628.624,831.582,628.624Zm4.952-70.509a19.134,19.134,0,0,0-1.976.105c-5.479.573-9.67,2.893-12.122,6.7-2.717,4.218-3.148,10.018-1.18,15.916,3.7,11.11-.362,15.715-.536,15.9-4.584,4.986-7.667,14.791-4.655,21.95,2.182,5.185,7.188,8.039,14.481,8.261,8.1.278,14.145-2.326,18.067-7.616,5.131-6.925,5.275-17.146,3.739-22.195-2.466-8.105-1.863-10.991-.249-18.7l.228-1.1a16.9,16.9,0,0,0-3.653-13.486A15.178,15.178,0,0,0,836.534,558.116Z" transform="translate(-813.189 -556.458)" fill="#1a1a1a"/>
      </g>
      <g id="Grupo_670" data-name="Grupo 670" transform="translate(395.433 223.107)">
        <path id="Trazado_626" data-name="Trazado 626" d="M877.481,531.906c-4.021,0-7.293-4.8-7.293-10.707s3.272-10.7,7.293-10.7,7.3,4.8,7.3,10.7S881.5,531.906,877.481,531.906Zm0-19.75c-3.106,0-5.631,4.057-5.631,9.043s2.526,9.049,5.631,9.049,5.635-4.06,5.635-9.049S880.588,512.157,877.481,512.157Z" transform="translate(-870.188 -510.499)" fill="#1a1a1a"/>
      </g>
      <g id="Grupo_671" data-name="Grupo 671" transform="translate(402.398 339.245)">
        <path id="Trazado_627" data-name="Trazado 627" d="M884.188,774.279a.831.831,0,0,1-.831-.829V730.9a.831.831,0,0,1,1.662,0V773.45A.832.832,0,0,1,884.188,774.279Z" transform="translate(-883.357 -730.072)" fill="#1a1a1a"/>
      </g>
      <g id="Grupo_672" data-name="Grupo 672" transform="translate(359.861 338.89)">
        <path id="Trazado_628" data-name="Trazado 628" d="M803.767,774.3a.829.829,0,0,1-.831-.829V730.229a.831.831,0,0,1,1.662,0v43.244A.831.831,0,0,1,803.767,774.3Z" transform="translate(-802.936 -729.4)" fill="#1a1a1a"/>
      </g>
      <g id="Grupo_673" data-name="Grupo 673" transform="translate(359.861 335.231)">
        <path id="Trazado_629" data-name="Trazado 629" d="M825.035,732.167c-8.206,0-22.1-1.022-22.1-4.841s13.893-4.843,22.1-4.843,22.1,1.02,22.1,4.843S833.242,732.167,825.035,732.167Zm0-8.027c-12.924,0-20.175,2.08-20.439,3.194.263,1.094,7.517,3.176,20.439,3.176s20.175-2.078,20.44-3.192C845.21,726.22,837.96,724.14,825.035,724.14Z" transform="translate(-802.936 -722.483)" fill="#1a1a1a"/>
      </g>
      <g id="Grupo_722" data-name="Grupo 722" transform="translate(222.423 46.463)">
        <g id="Grupo_674" data-name="Grupo 674" transform="translate(63.613 202.732)">
          <path id="Trazado_630" data-name="Trazado 630" d="M748.776,561.479H664.188a.829.829,0,0,1,0-1.658h84.588a.829.829,0,1,1,0,1.658Z" transform="translate(-663.36 -559.821)" fill="#1a1a1a"/>
        </g>
        <g id="Grupo_721" data-name="Grupo 721">
          <g id="Grupo_675" data-name="Grupo 675" transform="translate(0.002)">
            <path id="Trazado_631" data-name="Trazado 631" d="M782.323,380.922h-50.64a.829.829,0,1,1,0-1.658h49.809V178.191H544.756V327.541a.83.83,0,1,1-1.66,0V177.361a.83.83,0,0,1,.829-.828h238.4a.829.829,0,0,1,.828.828V380.093A.829.829,0,0,1,782.323,380.922Z" transform="translate(-543.096 -176.533)" fill="#1a1a1a"/>
          </g>
          <g id="Grupo_676" data-name="Grupo 676">
            <path id="Trazado_632" data-name="Trazado 632" d="M782.321,199.953h-238.4a.831.831,0,0,1-.831-.829V177.361a.832.832,0,0,1,.831-.828h238.4a.831.831,0,0,1,.831.828v21.763A.83.83,0,0,1,782.321,199.953ZM544.754,198.3H781.49V178.191H544.754Z" transform="translate(-543.092 -176.533)" fill="#1a1a1a"/>
          </g>
          <g id="Grupo_677" data-name="Grupo 677" transform="translate(124.589 42.792)">
            <path id="Trazado_633" data-name="Trazado 633" d="M878.288,381.825H779.473a.832.832,0,0,1-.83-.829V258.265a.831.831,0,0,1,.83-.829h98.814a.831.831,0,0,1,.83.829V381A.831.831,0,0,1,878.288,381.825ZM780.3,380.168h97.152V259.094H780.3Z" transform="translate(-778.643 -257.436)" fill="#1a1a1a"/>
          </g>
          <g id="Grupo_678" data-name="Grupo 678" transform="translate(163.603 120.609)">
            <path id="Trazado_634" data-name="Trazado 634" d="M853.244,413.324a.83.83,0,0,1-.829-.829l-.012-7.107a.83.83,0,0,1,1.66,0l.01,7.107a.827.827,0,0,1-.827.829Z" transform="translate(-852.403 -404.559)" fill="#1a1a1a"/>
          </g>
          <g id="Grupo_679" data-name="Grupo 679" transform="translate(148.068 70.94)">
            <path id="Trazado_635" data-name="Trazado 635" d="M838.676,362a19.724,19.724,0,0,1-10.643-2.659c-6.852-4.391-5.086-12.215-3.794-17.932a36.256,36.256,0,0,0,.712-3.651c.592-5.174,1.641-26.111,1.651-26.322a.83.83,0,1,1,1.658.086c-.043.859-1.061,21.2-1.658,26.423a38.581,38.581,0,0,1-.743,3.832c-1.25,5.526-2.8,12.4,3.069,16.165,7.533,4.829,20.2.812,20.331.769a.83.83,0,1,1,.512,1.579A39.658,39.658,0,0,1,838.676,362Z" transform="translate(-823.032 -310.653)" fill="#1a1a1a"/>
          </g>
          <g id="Grupo_680" data-name="Grupo 680" transform="translate(151.879 70.943)">
            <path id="Trazado_636" data-name="Trazado 636" d="M864.617,330.667a.85.85,0,0,1-.822-.95c.921-6.217-2.361-13.314-3.35-15.276-3.052.541-16.54,2.482-29.652-2.174a.83.83,0,0,1-.506-1.059.839.839,0,0,1,1.061-.5c14.158,5.028,29.231,2.024,29.383,2a.82.82,0,0,1,.893.412c.2.364,4.972,9.026,3.813,16.847A.826.826,0,0,1,864.617,330.667Z" transform="translate(-830.238 -310.659)" fill="#1a1a1a"/>
          </g>
          <g id="Grupo_681" data-name="Grupo 681" transform="translate(143.662 50.898)">
            <path id="Trazado_637" data-name="Trazado 637" d="M867.6,309.547c-.683-.173-.928-.638-.79-1.076.056-.183,5.6-18.209.417-24.023-3.76-4.216-5.754-3.765-9.366-2.949a34.1,34.1,0,0,1-4.895.829c-3.969.376-7.529-1.654-11.291-3.768-5.041-2.836-10.258-5.768-16.924-3.058a12.769,12.769,0,0,0-8.36,12.691c.307,4.516,3.023,7.961,7.089,9a.831.831,0,0,1-.409,1.61c-4.784-1.219-7.979-5.24-8.339-10.494-.424-6.223,3.263-11.854,9.394-14.345,7.41-3.015,13.228.257,18.362,3.151,3.533,1.987,6.863,3.848,10.338,3.566a33.438,33.438,0,0,0,4.668-.8c3.809-.859,6.561-1.476,10.972,3.466,5.808,6.509.167,24.844-.074,25.617A.833.833,0,0,1,867.6,309.547Z" transform="translate(-814.703 -272.761)" fill="#1a1a1a"/>
          </g>
          <g id="Grupo_682" data-name="Grupo 682" transform="translate(175.533 79.711)">
            <path id="Trazado_638" data-name="Trazado 638" d="M879.7,331.144c-.59-.247-2.252-1.814-4.109-2.279a.833.833,0,0,1-.6-1.01.852.852,0,0,1,1.008-.6,10.923,10.923,0,0,1,4.282,2.462.828.828,0,0,1-.576,1.427Z" transform="translate(-874.958 -327.236)" fill="#1a1a1a"/>
          </g>
          <g id="Grupo_683" data-name="Grupo 683" transform="translate(154.985 79.71)">
            <path id="Trazado_639" data-name="Trazado 639" d="M836.9,330.617c-.893-.512-.924-1.037-.619-1.382a7.985,7.985,0,0,1,4.185-2,.858.858,0,0,1,.942.7.83.83,0,0,1-.693.946,6.243,6.243,0,0,0-3.2,1.46A.827.827,0,0,1,836.9,330.617Z" transform="translate(-836.109 -327.234)" fill="#1a1a1a"/>
          </g>
          <g id="Grupo_684" data-name="Grupo 684" transform="translate(159.348 86.028)">
            <path id="Trazado_640" data-name="Trazado 640" d="M844.959,355.759c-.847-.988-1.285-6.489,2.137-16.035a.844.844,0,0,1,1.062-.5.832.832,0,0,1,.5,1.064,44.109,44.109,0,0,0-2.887,13.5l2.96-.973a.832.832,0,0,1,.52,1.58l-4.033,1.327A.868.868,0,0,1,844.959,355.759Z" transform="translate(-844.359 -339.179)" fill="#1a1a1a"/>
          </g>
          <g id="Grupo_685" data-name="Grupo 685" transform="translate(185.013 85.328)">
            <path id="Trazado_641" data-name="Trazado 641" d="M901.115,355.827a8.938,8.938,0,0,1-4.882-1.44.829.829,0,1,1,.9-1.39,7.329,7.329,0,1,0-2.671-9.232.826.826,0,0,1-1.1.407.836.836,0,0,1-.4-1.1,8.987,8.987,0,1,1,8.157,12.759Z" transform="translate(-892.881 -337.856)" fill="#1a1a1a"/>
          </g>
          <g id="Grupo_686" data-name="Grupo 686" transform="translate(163.615 101.641)">
            <path id="Trazado_642" data-name="Trazado 642" d="M864.863,405c-12.159-.016-12.437-9.292-12.437-9.385a.827.827,0,0,1,.815-.841.845.845,0,0,1,.843.815c.008.317.3,7.737,10.731,7.754,11.667,0,15.457-6.191,16.031-7.274V369.527a.83.83,0,0,1,1.66,0v26.736C882.276,396.952,878.45,405,864.863,405Z" transform="translate(-852.426 -368.698)" fill="#1a1a1a"/>
          </g>
          <path id="Trazado_643" data-name="Trazado 643" d="M837.99,343.988A.945.945,0,0,1,837.1,343l.136-2.651a.944.944,0,1,1,1.886.1l-.138,2.651A.943.943,0,0,1,837.99,343.988Z" transform="translate(-681.589 -253.279)" fill="#1a1a1a"/>
          <path id="Trazado_644" data-name="Trazado 644" d="M867.957,345.223a.95.95,0,0,1-.893-.993l.138-2.651a.943.943,0,0,1,1.884.1l-.135,2.651A.954.954,0,0,1,867.957,345.223Z" transform="translate(-695.706 -253.86)" fill="#1a1a1a"/>
          <g id="Grupo_687" data-name="Grupo 687" transform="translate(159.077 102.097)">
            <path id="Trazado_645" data-name="Trazado 645" d="M849.785,377.421c-.444-.13-5.553-3.367-5.553-3.367a.829.829,0,1,1,.888-1.4l4.461,2.828,4.2-5.592a.83.83,0,1,1,1.329.994l-4.656,6.2A.823.823,0,0,1,849.785,377.421Z" transform="translate(-843.847 -369.56)" fill="#1a1a1a"/>
          </g>
          <g id="Grupo_688" data-name="Grupo 688" transform="translate(124.593 128.375)">
            <path id="Trazado_646" data-name="Trazado 646" d="M779.476,446.078c-.72-.209-.938-.691-.777-1.119,8.1-21.656,38.4-25.555,39.69-25.712a.832.832,0,0,1,.2,1.651c-.3.035-30.588,3.937-38.333,24.641A.83.83,0,0,1,779.476,446.078Z" transform="translate(-778.649 -419.241)" fill="#1a1a1a"/>
          </g>
          <g id="Grupo_689" data-name="Grupo 689" transform="translate(192.036 128.375)">
            <path id="Trazado_647" data-name="Trazado 647" d="M938.357,434.442c-12.422-11.159-31.277-13.52-31.466-13.543a.831.831,0,0,1,.2-1.651c.793.1,19.585,2.456,31.834,13.757a.828.828,0,0,1-.563,1.438Z" transform="translate(-906.159 -419.242)" fill="#1a1a1a"/>
          </g>
          <g id="Grupo_695" data-name="Grupo 695" transform="translate(46.06 38.9)">
            <g id="Grupo_690" data-name="Grupo 690">
              <path id="Trazado_648" data-name="Trazado 648" d="M683.085,270.271H632.3a2.132,2.132,0,0,1-2.129-2.13V252.207a2.132,2.132,0,0,1,2.129-2.128h50.784a2.13,2.13,0,0,1,2.129,2.128V268.14A2.131,2.131,0,0,1,683.085,270.271ZM632.3,251.737c-.467.471-.467,16.4-.467,16.4.467.473,51.25.473,51.25.473.467-.473.467-16.406.467-16.406C683.085,251.737,632.3,251.737,632.3,251.737Z" transform="translate(-630.173 -250.079)"/>
            </g>
            <g id="Grupo_694" data-name="Grupo 694" transform="translate(6.069 4.742)">
              <g id="Grupo_691" data-name="Grupo 691" transform="translate(0 4.88)">
                <path id="Trazado_649" data-name="Trazado 649" d="M671.256,269.6H642.312a.665.665,0,0,1,0-1.331h28.944a.665.665,0,0,1,0,1.331Z" transform="translate(-641.647 -268.272)"/>
              </g>
              <g id="Grupo_692" data-name="Grupo 692">
                <path id="Trazado_650" data-name="Trazado 650" d="M676.478,260.376H642.312a.665.665,0,0,1,0-1.331h34.166a.665.665,0,0,1,0,1.331Z" transform="translate(-641.647 -259.045)"/>
              </g>
              <g id="Grupo_693" data-name="Grupo 693" transform="translate(0 10.057)">
                <path id="Trazado_651" data-name="Trazado 651" d="M665.609,279.39h-23.3a.665.665,0,0,1,0-1.331h23.3a.665.665,0,0,1,0,1.331Z" transform="translate(-641.647 -278.059)"/>
              </g>
            </g>
          </g>
          <g id="Grupo_701" data-name="Grupo 701" transform="translate(46.06 101.668)">
            <g id="Grupo_696" data-name="Grupo 696">
              <path id="Trazado_652" data-name="Trazado 652" d="M683.085,388.937H632.3a2.128,2.128,0,0,1-2.129-2.123V370.875a2.131,2.131,0,0,1,2.129-2.126h50.784a2.13,2.13,0,0,1,2.129,2.126v15.939A2.127,2.127,0,0,1,683.085,388.937ZM632.3,370.407c-.467.469-.467,16.407-.467,16.407.467.465,51.25.465,51.25.465.467-.465.467-16.4.467-16.4C683.085,370.407,632.3,370.407,632.3,370.407Z" transform="translate(-630.173 -368.749)"/>
            </g>
            <g id="Grupo_700" data-name="Grupo 700" transform="translate(6.069 4.403)">
              <g id="Grupo_697" data-name="Grupo 697" transform="translate(0 4.885)">
                <path id="Trazado_653" data-name="Trazado 653" d="M671.256,387.637H642.312a.664.664,0,1,1,0-1.329h28.944a.664.664,0,0,1,0,1.329Z" transform="translate(-641.647 -386.308)"/>
              </g>
              <g id="Grupo_698" data-name="Grupo 698">
                <path id="Trazado_654" data-name="Trazado 654" d="M676.478,378.4H642.312a.664.664,0,1,1,0-1.329h34.166a.664.664,0,0,1,0,1.329Z" transform="translate(-641.647 -377.073)"/>
              </g>
              <g id="Grupo_699" data-name="Grupo 699" transform="translate(0 10.057)">
                <path id="Trazado_655" data-name="Trazado 655" d="M665.609,397.416h-23.3a.664.664,0,1,1,0-1.329h23.3a.664.664,0,0,1,0,1.329Z" transform="translate(-641.647 -396.087)"/>
              </g>
            </g>
          </g>
          <g id="Grupo_707" data-name="Grupo 707" transform="translate(14.567 70.2)">
            <g id="Grupo_702" data-name="Grupo 702">
              <path id="Trazado_656" data-name="Trazado 656" d="M623.545,329.442H572.761a2.13,2.13,0,0,1-2.128-2.127V311.383a2.132,2.132,0,0,1,2.131-2.129h50.782a2.13,2.13,0,0,1,2.128,2.129v15.932A2.13,2.13,0,0,1,623.545,329.442Zm-50.782-18.528c-.469.469-.469,16.4-.469,16.4.467.469,51.251.469,51.251.469.469-.469.469-16.4.469-16.4C623.545,310.914,572.764,310.914,572.764,310.914Z" transform="translate(-570.633 -309.254)"/>
            </g>
            <g id="Grupo_706" data-name="Grupo 706" transform="translate(6.001 4.399)">
              <g id="Grupo_703" data-name="Grupo 703" transform="translate(0 4.885)">
                <path id="Trazado_657" data-name="Trazado 657" d="M611.587,328.135H582.642a.664.664,0,0,1,0-1.329h28.945a.664.664,0,0,1,0,1.329Z" transform="translate(-581.978 -326.806)"/>
              </g>
              <g id="Grupo_704" data-name="Grupo 704">
                <path id="Trazado_658" data-name="Trazado 658" d="M616.809,318.9H582.642a.665.665,0,0,1,0-1.331h34.167a.665.665,0,0,1,0,1.331Z" transform="translate(-581.978 -317.571)"/>
              </g>
              <g id="Grupo_705" data-name="Grupo 705" transform="translate(0 10.057)">
                <path id="Trazado_659" data-name="Trazado 659" d="M605.936,337.916H582.642a.665.665,0,0,1,0-1.331h23.293a.665.665,0,1,1,0,1.331Z" transform="translate(-581.978 -336.585)"/>
              </g>
            </g>
          </g>
          <g id="Grupo_713" data-name="Grupo 713" transform="translate(46.06 164.265)">
            <g id="Grupo_708" data-name="Grupo 708">
              <path id="Trazado_660" data-name="Trazado 660" d="M683.085,507.285H632.3a2.132,2.132,0,0,1-2.129-2.127V489.226A2.131,2.131,0,0,1,632.3,487.1h50.784a2.129,2.129,0,0,1,2.129,2.127v15.937A2.13,2.13,0,0,1,683.085,507.285ZM632.3,488.753c-.467.473-.467,16.406-.467,16.406.467.469,51.25.469,51.25.469.467-.469.467-16.406.467-16.406C683.085,488.753,632.3,488.753,632.3,488.753Z" transform="translate(-630.173 -487.095)"/>
            </g>
            <g id="Grupo_712" data-name="Grupo 712" transform="translate(6.069 4.401)">
              <g id="Grupo_709" data-name="Grupo 709" transform="translate(0 4.885)">
                <path id="Trazado_661" data-name="Trazado 661" d="M671.256,505.98H642.312a.664.664,0,1,1,0-1.329h28.944a.664.664,0,0,1,0,1.329Z" transform="translate(-641.647 -504.651)"/>
              </g>
              <g id="Grupo_710" data-name="Grupo 710">
                <path id="Trazado_662" data-name="Trazado 662" d="M676.478,496.747H642.312a.665.665,0,0,1,0-1.331h34.166a.665.665,0,0,1,0,1.331Z" transform="translate(-641.647 -495.416)"/>
              </g>
              <g id="Grupo_711" data-name="Grupo 711" transform="translate(0 10.057)">
                <path id="Trazado_663" data-name="Trazado 663" d="M665.609,515.759h-23.3a.664.664,0,1,1,0-1.329h23.3a.664.664,0,0,1,0,1.329Z" transform="translate(-641.647 -514.43)"/>
              </g>
            </g>
          </g>
          <g id="Grupo_719" data-name="Grupo 719" transform="translate(14.567 132.797)">
            <g id="Grupo_714" data-name="Grupo 714" transform="translate(0 0)">
              <path id="Trazado_664" data-name="Trazado 664" d="M623.545,447.789H572.761a2.13,2.13,0,0,1-2.128-2.128V429.728a2.132,2.132,0,0,1,2.131-2.127h50.782a2.13,2.13,0,0,1,2.128,2.127V445.66A2.13,2.13,0,0,1,623.545,447.789Zm-50.782-18.53c-.469.469-.469,16.4-.469,16.4.467.469,51.251.469,51.251.469.469-.469.469-16.4.469-16.4C623.545,429.259,572.764,429.259,572.764,429.259Z" transform="translate(-570.633 -427.601)"/>
            </g>
            <g id="Grupo_718" data-name="Grupo 718" transform="translate(6.001 4.401)">
              <g id="Grupo_715" data-name="Grupo 715" transform="translate(0 4.885)">
                <path id="Trazado_665" data-name="Trazado 665" d="M611.587,446.486H582.642a.664.664,0,0,1,0-1.329h28.945a.664.664,0,0,1,0,1.329Z" transform="translate(-581.978 -445.157)"/>
              </g>
              <g id="Grupo_716" data-name="Grupo 716">
                <path id="Trazado_666" data-name="Trazado 666" d="M616.809,437.253H582.642a.665.665,0,0,1,0-1.331h34.167a.665.665,0,0,1,0,1.331Z" transform="translate(-581.978 -435.922)"/>
              </g>
              <g id="Grupo_717" data-name="Grupo 717" transform="translate(0 10.057)">
                <path id="Trazado_667" data-name="Trazado 667" d="M605.936,456.266H582.642a.665.665,0,0,1,0-1.33h23.293a.665.665,0,1,1,0,1.33Z" transform="translate(-581.978 -454.936)"/>
              </g>
            </g>
          </g>
          <g id="Grupo_720" data-name="Grupo 720" transform="translate(188.188 88.263)">
            <path id="Trazado_668" data-name="Trazado 668" d="M905.784,354.151c-.376-.088-6.9-3.385-6.9-3.385-.175-1.361,6.344-7.151,6.344-7.151a.83.83,0,0,1,1.1,1.242l-5.606,4.977,5.429,2.749a.828.828,0,0,1-.375,1.567Z" transform="translate(-898.884 -343.405)" fill="#1a1a1a"/>
          </g>
        </g>
      </g>
      <g id="Grupo_725" data-name="Grupo 725" transform="translate(159.717 372.332)">
        <g id="Grupo_724" data-name="Grupo 724" transform="translate(0)" opacity="0.2">
          <g id="Grupo_723" data-name="Grupo 723">
            <path id="Trazado_669" data-name="Trazado 669" d="M425.376,794.566a.834.834,0,0,1-.835-.806c-.011-.43-.016-.633.827-.773a3.638,3.638,0,0,1,1.275-.138c.859-.066,2.069-.132,3.77-.222,1.337-.016,1.7.352,1.709.8a.827.827,0,0,1-.812.837C425.563,794.566,425.435,794.566,425.376,794.566Z" transform="translate(-424.539 -792.626)" fill="#1a1a1a"/>
          </g>
        </g>
      </g>
      <g id="Grupo_726" data-name="Grupo 726" transform="translate(145.281 153.537)">
        <path id="Trazado_670" data-name="Trazado 670" d="M402.919,404.258a28.045,28.045,0,0,1-5.672-3.99c.185-1.359,4.484-3.511,4.484-3.511a57.606,57.606,0,0,0-2.515-16.722.83.83,0,1,1,1.592-.469c3,10.2,2.585,17.461,2.565,17.763-.459.691-4.084,2.505-4.084,2.505a23.678,23.678,0,0,0,4,2.847.83.83,0,0,1-.364,1.577Z" transform="translate(-397.247 -378.969)" fill="#1a1a1a"/>
      </g>
      <path id="Trazado_671" data-name="Trazado 671" d="M388.191,397.532a1.3,1.3,0,0,1-1.613-.879l-1.035-3.508a1.3,1.3,0,0,1,2.495-.734l1.03,3.506A1.3,1.3,0,0,1,388.191,397.532Z" transform="translate(-246.428 -231.325)" fill="#1a1a1a"/>
      <path id="Trazado_672" data-name="Trazado 672" d="M427.551,387.13a1.309,1.309,0,0,1-1.617-.878l-1.03-3.508a1.3,1.3,0,1,1,2.493-.734l1.03,3.506A1.3,1.3,0,0,1,427.551,387.13Z" transform="translate(-264.97 -226.425)" fill="#1a1a1a"/>
      <g id="Grupo_727" data-name="Grupo 727" transform="translate(128.199 131.344)">
        <path id="Trazado_673" data-name="Trazado 673" d="M365.78,359.707a.829.829,0,0,1-.209-1.631l41.395-10.9c-.489-2.18-1.637-7.86-.867-10.168,1.54-.1,6.342,7.657,11.038,17.076a.831.831,0,0,1-1.487.743c-3.169-6.361-6.386-11.957-8.134-14.9a50.3,50.3,0,0,0,1.246,7.655.825.825,0,0,1-.594,1l-42.175,11.1A.83.83,0,0,1,365.78,359.707Z" transform="translate(-364.951 -337.011)" fill="#1a1a1a"/>
      </g>
      <g id="Grupo_728" data-name="Grupo 728" transform="translate(182.583 165.046)">
        <path id="Trazado_674" data-name="Trazado 674" d="M468.59,428.134c-.8-.321-.948-.821-.728-1.224,9.7-17.837,4.068-24.741,4.011-24.809a.83.83,0,0,1,1.246-1.1c.27.3,6.523,7.706-3.8,26.7A.828.828,0,0,1,468.59,428.134Z" transform="translate(-467.77 -400.729)" fill="#1a1a1a"/>
      </g>
      <g id="Grupo_729" data-name="Grupo 729" transform="translate(125.87 111.312)">
        <path id="Trazado_675" data-name="Trazado 675" d="M418.08,380.277c-.944-.921-.748-1.411-.325-1.59,10.861-4.663,25.747-12.782,24.831-16.243-8.035-30.327-6.7-42.814-6.439-44.566a21.8,21.8,0,0,0-14.1-14.826c-17.212-6.359-44.573,2.079-51.964,6.933-.576.331-12.963,7.724-5.588,30.8a.83.83,0,0,1-1.581.508c-7.8-24.429,6.166-32.64,6.306-32.723,7.548-4.952,35.682-13.625,53.4-7.073,7.811,2.89,12.914,8.3,15.168,16.1,0,.5-2.005,12.715,6.4,44.431,1.613,6.091-21.2,16.222-25.784,18.188A.783.783,0,0,1,418.08,380.277Z" transform="translate(-360.547 -299.137)" fill="#1a1a1a"/>
      </g>
      <g id="Grupo_730" data-name="Grupo 730" transform="translate(137.825 187.286)">
        <path id="Trazado_676" data-name="Trazado 676" d="M383.97,453.086c-.8-.321-.948-.82-.728-1.224l.522-.96a34.885,34.885,0,0,0,3.434-7.521.83.83,0,0,1,1.6.455,36.722,36.722,0,0,1-3.572,7.862l-.523.955A.828.828,0,0,1,383.97,453.086Z" transform="translate(-383.15 -442.775)" fill="#1a1a1a"/>
      </g>
      <g id="Grupo_731" data-name="Grupo 731" transform="translate(137.814 191.824)">
        <path id="Trazado_677" data-name="Trazado 677" d="M383.961,457.128a.828.828,0,0,1-.236-1.623,60.862,60.862,0,0,0,9.46-4.049.819.819,0,0,1,1.119.352.828.828,0,0,1-.355,1.119,60.881,60.881,0,0,1-9.751,4.167A.859.859,0,0,1,383.961,457.128Z" transform="translate(-383.13 -451.356)" fill="#1a1a1a"/>
      </g>
      <g id="Grupo_732" data-name="Grupo 732" transform="translate(1.887 267.883)">
        <path id="Trazado_678" data-name="Trazado 678" d="M292.421,701.4H164.515c-11.994,0-16.523-9.685-19.371-19.161l-5.688-20.2a.828.828,0,0,1,.573-1.025.817.817,0,0,1,1.024.57l5.686,20.188c3.834,12.759,8.985,17.971,17.776,17.971H292.421a17.762,17.762,0,0,0,17.744-17.629L291.2,614.786c-3.884-12.422-9.368-17.975-17.775-17.975H145.518a17.767,17.767,0,0,0-17.744,17.636l8.053,28.588a.829.829,0,0,1-.574,1.025.819.819,0,0,1-1.024-.57l-8.086-28.7a19.43,19.43,0,0,1,19.375-19.632H273.424c11.99,0,16.8,10.933,19.367,19.159l19,67.463A19.431,19.431,0,0,1,292.421,701.4Z" transform="translate(-126.143 -595.154)" fill="#1a1a1a"/>
      </g>
      <g id="Grupo_733" data-name="Grupo 733" transform="translate(9.521 271.453)">
        <path id="Trazado_679" data-name="Trazado 679" d="M293.423,704.584a.829.829,0,1,1,0-1.658c9.744,0,17.678-7.611,17.744-16.992L292.2,620.907c-3.881-11.988-9.368-17.346-17.779-17.346H141.407a.829.829,0,1,1,0-1.658H274.424c11.984,0,16.792,10.569,19.367,18.518l19,65.165A19.107,19.107,0,0,1,293.423,704.584Z" transform="translate(-140.576 -601.904)" fill="#1a1a1a"/>
      </g>
      <g id="Grupo_734" data-name="Grupo 734" transform="translate(168.443 363.429)">
        <path id="Trazado_680" data-name="Trazado 680" d="M519.99,786.5H441.868a.829.829,0,1,1,0-1.658H519.99a3.695,3.695,0,0,0,0-7.39h-63.3a.829.829,0,1,1,0-1.657h63.3a5.352,5.352,0,1,1,0,10.7Z" transform="translate(-441.037 -775.795)" fill="#1a1a1a"/>
      </g>
      <g id="Grupo_735" data-name="Grupo 735" transform="translate(188.436 345.856)">
        <path id="Trazado_681" data-name="Trazado 681" d="M479.664,761.8c-.639-.133-.916-.582-.8-1.024.144-.6,3.643-14.6,10.614-16.422,6.785-1.771,20.536-2.351,27.248-1.158a13.579,13.579,0,0,1,5.485,2.686,7.771,7.771,0,0,1,1.654,10.682,10.293,10.293,0,0,0-1.921,4.533.856.856,0,0,1-.946.7.828.828,0,0,1-.695-.946,11.909,11.909,0,0,1,2.221-5.259,6.1,6.1,0,0,0-1.32-8.383,12.063,12.063,0,0,0-4.771-2.373c-6.412-1.15-20.05-.564-26.534,1.125-6.026,1.576-9.391,15.077-9.423,15.211A.832.832,0,0,1,479.664,761.8Z" transform="translate(-478.836 -742.572)" fill="#1a1a1a"/>
      </g>
      <g id="Grupo_736" data-name="Grupo 736" transform="translate(153.479 145.805)">
        <path id="Trazado_682" data-name="Trazado 682" d="M424.508,387.87a11.76,11.76,0,1,1,11.76-11.753A11.689,11.689,0,0,1,424.508,387.87Zm.008-21.862a10.1,10.1,0,1,0,7.138,2.964A10.111,10.111,0,0,0,424.516,366.009Z" transform="translate(-412.746 -364.351)" fill="#1a1a1a"/>
      </g>
      <g id="Grupo_737" data-name="Grupo 737" transform="translate(126.554 151.705)">
        <path id="Trazado_683" data-name="Trazado 683" d="M373.6,399.03a11.762,11.762,0,1,1,11.762-11.755A11.779,11.779,0,0,1,373.6,399.03Zm.01-21.866a10.1,10.1,0,1,0,10.092,10.11A10.115,10.115,0,0,0,373.613,377.164Z" transform="translate(-361.841 -375.506)" fill="#1a1a1a"/>
      </g>
      <g id="Grupo_738" data-name="Grupo 738" transform="translate(148.373 158.256)">
        <path id="Trazado_684" data-name="Trazado 684" d="M403.923,391.5c-.629-.125-.907-.559-.812-1a3.481,3.481,0,0,1,1.735-2.2c1.178-.617,2.69-.525,4.5.251a.828.828,0,1,1-.647,1.524,3.844,3.844,0,0,0-3.077-.308,1.794,1.794,0,0,0-.895,1.1A.835.835,0,0,1,403.923,391.5Z" transform="translate(-403.093 -387.892)" fill="#1a1a1a"/>
      </g>
      <g id="Grupo_739" data-name="Grupo 739" transform="translate(188.21 188.73)">
        <path id="Trazado_685" data-name="Trazado 685" d="M542.119,626.891a.83.83,0,0,1-.063-1.658c12.389-.977,22.479-5.7,30.843-14.443,17.767-18.561,18.672-49.638,9.285-68.962-43.283-89.121-98.5-84.327-99.044-84.244a.809.809,0,0,1-.87-.539l-3.811-10.421a.83.83,0,0,1,1.559-.572l3.6,9.839c6.4-.242,58.78.216,100.06,85.212,9.635,19.836,8.687,51.752-9.578,70.838a48.159,48.159,0,0,1-31.917,14.951Z" transform="translate(-478.409 -445.506)" fill="#1a1a1a"/>
      </g>
      <g id="Grupo_740" data-name="Grupo 740" transform="translate(121.292 238.156)">
        <path id="Trazado_686" data-name="Trazado 686" d="M352.723,570.336a.838.838,0,0,1-.829-.878c.855-13.968,6.762-29.807,6.824-29.967a.822.822,0,0,1,1.067-.486.832.832,0,0,1,.483,1.072c-.058.156-5.876,15.77-6.717,29.481A.827.827,0,0,1,352.723,570.336Z" transform="translate(-351.892 -538.951)" fill="#1a1a1a"/>
      </g>
      <g id="Grupo_741" data-name="Grupo 741" transform="translate(193.402 256.874)">
        <path id="Trazado_687" data-name="Trazado 687" d="M489.336,670.5a.831.831,0,0,1-.821-.7c-2.38-14.526,10.25-20.144,24.873-26.649,8.345-3.712,16.975-7.552,23.906-13.459a21.837,21.837,0,0,0,8.142-16.091c.806-17.95-18.293-37.656-18.487-37.852a.831.831,0,1,1,1.185-1.166c.81.829,19.8,20.43,18.959,39.092a23.437,23.437,0,0,1-8.724,17.284c-7.114,6.058-15.854,9.945-24.307,13.707-14,6.225-26.081,11.6-23.908,24.869a.829.829,0,0,1-.685.95A.76.76,0,0,1,489.336,670.5Z" transform="translate(-488.225 -574.34)" fill="#1a1a1a"/>
      </g>
      <g id="Grupo_742" data-name="Grupo 742" transform="translate(226.752 265.908)">
        <path id="Trazado_688" data-name="Trazado 688" d="M552.106,648.926c-.629-.121-.911-.564-.808-1.012l12.57-55.839a.809.809,0,0,1,.991-.627.83.83,0,0,1,.627.993L552.916,648.28A.828.828,0,0,1,552.106,648.926Z" transform="translate(-551.277 -591.42)" fill="#1a1a1a"/>
      </g>
      <g id="Grupo_743" data-name="Grupo 743" transform="translate(220.526 356.105)">
        <path id="Trazado_689" data-name="Trazado 689" d="M543.907,770.929a.832.832,0,0,1-.831-.828v-5.567a14.934,14.934,0,0,0-1.927,4.922.831.831,0,0,1-1.627-.335c.128-.615,1.312-6.038,4.068-7.172,1.148.767,1.148,8.153,1.148,8.153A.83.83,0,0,1,543.907,770.929Z" transform="translate(-539.505 -761.948)" fill="#1a1a1a"/>
      </g>
      <g id="Grupo_744" data-name="Grupo 744" transform="translate(76.417 310.293)">
        <path id="Trazado_690" data-name="Trazado 690" d="M277.234,696.772c-4.284,0-8.261-3.332-9.668-8.1-1.69-5.73.915-11.567,5.81-13.014a8.183,8.183,0,0,1,2.275-.327c4.286,0,8.261,3.33,9.668,8.1,1.69,5.728-.913,11.566-5.808,13.012A8.107,8.107,0,0,1,277.234,696.772ZM275.651,677a6.254,6.254,0,0,0-1.806.261c-4.017,1.185-6.119,6.1-4.687,10.948,1.2,4.068,4.52,6.906,8.076,6.906a6.319,6.319,0,0,0,1.808-.261c4.014-1.186,6.116-6.1,4.685-10.949C282.528,679.834,279.207,677,275.651,677Z" transform="translate(-267.051 -675.334)" fill="#1a1a1a"/>
      </g>
      <g id="Grupo_745" data-name="Grupo 745" transform="translate(155.074 174.494)">
        <path id="Trazado_691" data-name="Trazado 691" d="M425.093,429.722c-.21-.029-8.714-2.272-8.714-2.272a.828.828,0,0,1,.422-1.6l7.764,2.049,3.064-8.751a.831.831,0,0,1,1.569.547l-3.319,9.475A.834.834,0,0,1,425.093,429.722Z" transform="translate(-415.761 -418.591)" fill="#1a1a1a"/>
      </g>
      <g id="Grupo_746" data-name="Grupo 746" transform="translate(130.202 151.984)">
        <path id="Trazado_692" data-name="Trazado 692" d="M395.783,419.461c-14.371,0-18.417-12.342-19.91-16.885-.136-.417-.251-.769-.354-1.051-1.425-3.864-6.536-23.614-6.754-24.453a.831.831,0,0,1,1.608-.416c.216.837,5.306,20.5,6.7,24.3.109.294.23.664.376,1.1,1.822,5.565,6.668,20.348,27.23,14.334a.832.832,0,0,1,.466,1.6A33.6,33.6,0,0,1,395.783,419.461Z" transform="translate(-368.739 -376.032)" fill="#1a1a1a"/>
      </g>
      <g id="Grupo_747" data-name="Grupo 747" transform="translate(80.094 193.823)">
        <path id="Trazado_693" data-name="Trazado 693" d="M274.82,530.091c-.817-.35-.948-.857-.716-1.253,34.736-58.884,75.584-63.21,82.593-63.506l-1.917-9.2a.834.834,0,0,1,.644-.981.818.818,0,0,1,.983.646l2.12,10.174c-1.347.968-45.606.321-82.992,63.709A.833.833,0,0,1,274.82,530.091Z" transform="translate(-274.002 -455.134)" fill="#1a1a1a"/>
      </g>
      <g id="Grupo_748" data-name="Grupo 748" transform="translate(178.81 143.777)">
        <path id="Trazado_694" data-name="Trazado 694" d="M468.266,383.181a.829.829,0,0,1-.029-1.658c3.252-.117,5.612-1.246,7.013-3.354,1.82-2.741,1.624-6.635.623-9.277-.769-2.026-3.749-8.481-9.911-6.26-3.663,1.31-3.665,5.911-3.665,5.958a.83.83,0,0,1-1.659.016c0-.239,0-5.835,4.765-7.54,6.011-2.138,10.158,2.326,12.02,7.237,1.067,2.816,1.5,7.328-.792,10.785-1.178,1.775-3.578,3.922-8.337,4.093Z" transform="translate(-460.638 -360.517)" fill="#1a1a1a"/>
      </g>
      <g id="Grupo_749" data-name="Grupo 749" transform="translate(183.226 147.865)">
        <path id="Trazado_695" data-name="Trazado 695" d="M476.361,380.3c-.095,0-7.291-.82-7.291-.82-.681-1.121,3.015-10.7,3.015-10.7a.829.829,0,0,1,1.549.595l-3.309,8.576,6.129.7a.829.829,0,0,1-.093,1.653Z" transform="translate(-468.987 -368.246)" fill="#1a1a1a"/>
      </g>
      <g id="Grupo_750" data-name="Grupo 750" transform="translate(162.976 199.159)">
        <path id="Trazado_696" data-name="Trazado 696" d="M445.1,486.43c-12.576,0-14.377-15.289-14.4-15.445a.832.832,0,0,1,.736-.915.817.817,0,0,1,.915.736c.062.574,1.664,13.962,12.747,13.962,11.618-.2,14.625-18.664,14.653-18.851a.875.875,0,0,1,.948-.691.834.834,0,0,1,.693.95c-.127.817-3.251,20.027-16.021,20.249C445.285,486.43,445.195,486.43,445.1,486.43Z" transform="translate(-430.701 -465.224)" fill="#1a1a1a"/>
      </g>
      <g id="Grupo_751" data-name="Grupo 751" transform="translate(402.398 372.466)">
        <path id="Trazado_697" data-name="Trazado 697" d="M945.4,794.537H884.188a.829.829,0,1,1,0-1.657H945.4a.829.829,0,1,1,0,1.657Z" transform="translate(-883.357 -792.88)" fill="#1a1a1a"/>
      </g>
      <g id="Grupo_752" data-name="Grupo 752" transform="translate(246.779 372.466)">
        <path id="Trazado_698" data-name="Trazado 698" d="M687.909,794.537H589.971a.829.829,0,1,1,0-1.657h97.938a.829.829,0,1,1,0,1.657Z" transform="translate(-589.141 -792.88)" fill="#1a1a1a"/>
      </g>
    </g>
    <g id="Grupo_760" data-name="Grupo 760" transform="translate(579.81 81.762)">
      <g id="Grupo_756" data-name="Grupo 756" transform="translate(0 0.286)">
        <g id="Grupo_754" data-name="Grupo 754" transform="translate(3.602)">
          <path id="Trazado_699" data-name="Trazado 699" d="M1003.364,138.476a1.891,1.891,0,0,1-1.683-1.027l-7.629-14.841a1.891,1.891,0,1,1,3.362-1.731l7.629,14.841a1.892,1.892,0,0,1-1.679,2.758Z" transform="translate(-993.842 -119.85)" fill="#b3b3b3"/>
        </g>
        <g id="Grupo_755" data-name="Grupo 755" transform="translate(0 3.604)">
          <path id="Trazado_700" data-name="Trazado 700" d="M988.925,138.082a1.892,1.892,0,0,1-.867-3.575l14.832-7.633a1.892,1.892,0,0,1,1.73,3.365l-14.832,7.633A1.88,1.88,0,0,1,988.925,138.082Z" transform="translate(-987.032 -126.665)" fill="#b3b3b3"/>
        </g>
      </g>
      <g id="Grupo_759" data-name="Grupo 759" transform="translate(2.378)">
        <g id="Grupo_757" data-name="Grupo 757" transform="translate(3.601)">
          <path id="Trazado_701" data-name="Trazado 701" d="M1007.86,137.935a1.891,1.891,0,0,1-1.683-1.027l-7.629-14.841a1.891,1.891,0,1,1,3.362-1.731l7.629,14.841a1.892,1.892,0,0,1-1.679,2.758Z" transform="translate(-998.338 -119.309)" fill="#303030"/>
        </g>
        <g id="Grupo_758" data-name="Grupo 758" transform="translate(0 3.604)">
          <path id="Trazado_702" data-name="Trazado 702" d="M993.421,137.541a1.892,1.892,0,0,1-.867-3.574l14.832-7.633a1.892,1.892,0,0,1,1.73,3.365l-14.832,7.633A1.88,1.88,0,0,1,993.421,137.541Z" transform="translate(-991.529 -126.124)" fill="#303030"/>
        </g>
      </g>
    </g>
  </g>
</svg>
