<svg xmlns="http://www.w3.org/2000/svg" xmlns:xlink="http://www.w3.org/1999/xlink" width="123.255" height="112.214" viewBox="0 0 123.255 112.214">
  <defs>
    <clipPath id="clip-path">
      <rect id="Rectángulo_24497" data-name="Rectángulo 24497" width="61.149" height="68.247" fill="none"/>
    </clipPath>
    <clipPath id="clip-path-2">
      <rect id="Rectángulo_24496" data-name="Rectángulo 24496" width="61.148" height="68.247" fill="none"/>
    </clipPath>
    <clipPath id="clip-path-4">
      <path id="Trazado_9598" data-name="Trazado 9598" d="M47.6,67.435s-14.523,5.5-24.11-12.126S7.278,23.867,1.779,17.24C-3.72,10.754,3.048-7.858,28.85,3.7S69.034,16.253,56.626,32.045C44.36,47.977,55.075,64.474,47.6,67.435" fill="none"/>
    </clipPath>
    <linearGradient id="linear-gradient" x1="0.037" y1="0.09" x2="0.837" y2="0.924" gradientUnits="objectBoundingBox">
      <stop offset="0" stop-color="#b311c4"/>
      <stop offset="0.139" stop-color="#bf11a0"/>
      <stop offset="0.34" stop-color="#cf1172"/>
      <stop offset="0.533" stop-color="#db104d"/>
      <stop offset="0.713" stop-color="#e41033"/>
      <stop offset="0.873" stop-color="#e91024"/>
      <stop offset="1" stop-color="#eb101e"/>
    </linearGradient>
    <clipPath id="clip-path-5">
      <rect id="Rectángulo_24501" data-name="Rectángulo 24501" width="100.007" height="77.181" fill="none"/>
    </clipPath>
    <clipPath id="clip-path-8">
      <path id="Trazado_9599" data-name="Trazado 9599" d="M80.268.866c-.282.141-.564.141-.846.282-.141,0-.282.141-.423.141s-.282.141-.423.141a30.534,30.534,0,0,0-3.1,1.41c-.423.282-.987.564-1.41.846-.282.141-.423.282-.7.423s-.423.282-.7.423c-.987.7-1.974,1.41-3.1,2.115a3.821,3.821,0,0,0-1.128.987h-.141c-.423.282-.7.7-1.128.987l-.282.282a64.875,64.875,0,0,1-9.729,7.332A38.735,38.735,0,0,1,43.891,21.31c-.282,0-.564.141-.846.141s-.7.141-.987.141a7.991,7.991,0,0,1-1.833.141,2.792,2.792,0,0,0-.987.141h-.987c-6.063.282-12.69-.423-21.149-.846-21.572-1.269-21.008,12.549-7.9,27.495C19.216,59.944,33.175,71.647,44.737,75.736c.141,0,.423.141.564.141,9.588,3.243,17.483.846,19.739-11.844a35.843,35.843,0,0,1,1.974-6.627,4.429,4.429,0,0,1,.7-1.41c.282-.564.564-.987.846-1.551a10.621,10.621,0,0,1,.987-1.692,38.394,38.394,0,0,1,3.384-4.935c0-.141.141-.141.141-.282a2.483,2.483,0,0,1,.564-.7c.141-.282.423-.423.564-.7.282-.423.564-.7.846-1.128a1.93,1.93,0,0,0,.423-.564l.423-.423C83.934,34.987,93.944,27.8,98.033,21.169a11.815,11.815,0,0,0,1.974-6.063C99.584,4.391,91.547-2.518,80.268.866M39.238,42.319l-.564.423a.8.8,0,0,0-1.09-1.166l-.038.038.564-.423a.858.858,0,0,1,1.128,0,.73.73,0,0,1,.1,1.028.672.672,0,0,1-.1.1" transform="translate(0 0)" fill="none"/>
    </clipPath>
    <linearGradient id="linear-gradient-2" x1="0.966" y1="0.091" x2="0.056" y2="0.976" gradientUnits="objectBoundingBox">
      <stop offset="0" stop-color="#ff5a08"/>
      <stop offset="1" stop-color="#ffbe06"/>
    </linearGradient>
    <clipPath id="clip-path-9">
      <rect id="Rectángulo_24571" data-name="Rectángulo 24571" width="75.254" height="66.499" fill="none"/>
    </clipPath>
    <clipPath id="clip-path-10">
      <path id="Trazado_9679" data-name="Trazado 9679" d="M9.3,51.844V3.191a1.086,1.086,0,0,1,1.085-1.083H56.493a1.085,1.085,0,0,1,1.083,1.083V51.844a1.085,1.085,0,0,1-1.083,1.083H10.387A1.086,1.086,0,0,1,9.3,51.844M10.387,0A3.194,3.194,0,0,0,7.195,3.191V51.844a3.194,3.194,0,0,0,3.192,3.191H56.493a3.2,3.2,0,0,0,3.192-3.191V3.191A3.2,3.2,0,0,0,56.493,0Z" transform="translate(-7.195)" fill="none"/>
    </clipPath>
    <linearGradient id="linear-gradient-3" x1="-0.194" y1="1.208" x2="-0.167" y2="1.208" gradientUnits="objectBoundingBox">
      <stop offset="0" stop-color="#3e65b9"/>
      <stop offset="0.3" stop-color="#4476cf"/>
      <stop offset="0.69" stop-color="#4b88e6"/>
      <stop offset="0.94" stop-color="#4d8fef"/>
      <stop offset="1" stop-color="#4d8fef"/>
    </linearGradient>
    <clipPath id="clip-path-11">
      <path id="Trazado_9680" data-name="Trazado 9680" d="M8.25,5.372a1.054,1.054,0,1,0,0,2.107H58.63a1.054,1.054,0,1,0,0-2.107Z" transform="translate(-7.195 -5.372)" fill="none"/>
    </clipPath>
    <linearGradient id="linear-gradient-4" x1="-0.194" y1="27.952" x2="-0.167" y2="27.952" xlink:href="#linear-gradient-3"/>
    <clipPath id="clip-path-12">
      <path id="Trazado_9681" data-name="Trazado 9681" d="M25.234,2.721a1.054,1.054,0,0,0,0,2.107H45.923a1.054,1.054,0,1,0,0-2.107Z" transform="translate(-24.182 -2.721)" fill="none"/>
    </clipPath>
    <linearGradient id="linear-gradient-5" x1="-1.5" y1="29.732" x2="-1.438" y2="29.732" xlink:href="#linear-gradient-3"/>
    <clipPath id="clip-path-13">
      <path id="Trazado_9682" data-name="Trazado 9682" d="M13.545,2.721a1.054,1.054,0,1,0,0,2.107h6.344a1.054,1.054,0,0,0,0-2.107Z" transform="translate(-12.491 -2.721)" fill="none"/>
    </clipPath>
    <linearGradient id="linear-gradient-6" x1="-2.091" y1="29.731" x2="-1.923" y2="29.731" xlink:href="#linear-gradient-3"/>
    <clipPath id="clip-path-15">
      <path id="Trazado_9684" data-name="Trazado 9684" d="M26.443,34.281,15.467,29.392a1.651,1.651,0,0,1-.83-2.172l4.889-10.969a1.65,1.65,0,0,1,2.174-.83l10.975,4.888a1.65,1.65,0,0,1,.83,2.174L28.616,33.451a1.654,1.654,0,0,1-1.508.973,1.637,1.637,0,0,1-.666-.143M17.475,15.338,12.587,26.307a3.9,3.9,0,0,0,1.974,5.142L25.53,36.337a3.9,3.9,0,0,0,5.142-1.974L35.56,23.394a3.9,3.9,0,0,0-1.974-5.142L22.617,13.364a3.9,3.9,0,0,0-5.142,1.974" transform="translate(-12.252 -13.029)" fill="none"/>
    </clipPath>
    <linearGradient id="linear-gradient-7" x1="-0.679" y1="2.033" x2="-0.622" y2="2.033" xlink:href="#linear-gradient-3"/>
    <clipPath id="clip-path-16">
      <path id="Trazado_9685" data-name="Trazado 9685" d="M38.089,31.658V19.647A1.649,1.649,0,0,1,39.733,18H51.745a1.65,1.65,0,0,1,1.646,1.645V31.658A1.65,1.65,0,0,1,51.745,33.3H39.733a1.649,1.649,0,0,1-1.645-1.645m1.645-15.906a3.9,3.9,0,0,0-3.893,3.895V31.658a3.9,3.9,0,0,0,3.893,3.895H51.745a3.9,3.9,0,0,0,3.893-3.895V19.647a3.9,3.9,0,0,0-3.893-3.895Z" transform="translate(-35.84 -15.752)" fill="none"/>
    </clipPath>
    <linearGradient id="linear-gradient-8" x1="-2.56" y1="2.233" x2="-2.489" y2="2.233" xlink:href="#linear-gradient-3"/>
    <clipPath id="clip-path-17">
      <path id="Trazado_9686" data-name="Trazado 9686" d="M16.028,14.556,4.166,16.475a3.812,3.812,0,0,0-2.529,1.557,3.868,3.868,0,0,0-.686,2.9l1.919,11.86a3.863,3.863,0,0,0,1.564,2.537,3.814,3.814,0,0,0,2.268.733,3.994,3.994,0,0,0,.631-.047L19.2,34.094a3.9,3.9,0,0,0,3.222-4.462l-1.179-7.268-1.618,3.62c-.02.041-.041.075-.061.109l.631,3.895a1.644,1.644,0,0,1-1.358,1.884L6.971,33.793A1.663,1.663,0,0,1,5.743,33.5a1.618,1.618,0,0,1-.658-1.069L3.166,20.575a1.662,1.662,0,0,1,.287-1.228,1.615,1.615,0,0,1,1.071-.658l11.86-1.921a1.869,1.869,0,0,1,.26-.02,1.652,1.652,0,0,1,1.625,1.385l.638,3.922,1.673-3.751-.089-.528a3.885,3.885,0,0,0-4.463-3.222" transform="translate(-0.902 -14.505)" fill="none"/>
    </clipPath>
    <linearGradient id="linear-gradient-9" x1="-0.053" y1="2.133" x2="0.012" y2="2.133" xlink:href="#linear-gradient-3"/>
    <clipPath id="clip-path-18">
      <path id="Trazado_9687" data-name="Trazado 9687" d="M39.9,14.726,27.984,16.343a3.9,3.9,0,0,0-3.332,4.381l.987,7.227,1.742-3.9-.495-3.626A1.639,1.639,0,0,1,28.3,18.579l11.9-1.618c.075-.007.151-.014.228-.014a1.643,1.643,0,0,1,.993.337c.055.04.1.089.151.129a3.914,3.914,0,0,1,1.994-1.123,3.744,3.744,0,0,0-.788-.8,3.863,3.863,0,0,0-2.352-.8,3.9,3.9,0,0,0-.528.035" transform="translate(-24.617 -14.691)" fill="none"/>
    </clipPath>
    <linearGradient id="linear-gradient-10" x1="-1.822" y1="3.448" x2="-1.748" y2="3.448" xlink:href="#linear-gradient-3"/>
    <clipPath id="clip-path-19">
      <path id="Trazado_9688" data-name="Trazado 9688" d="M42.275,18.981v3.38l.925,6.8a1.641,1.641,0,0,1-1.411,1.844l-11.9,1.618a1.641,1.641,0,0,1-1.844-1.413l-.549-4.038-1.741,3.9.062.437a3.9,3.9,0,0,0,3.852,3.367,4.524,4.524,0,0,0,.535-.035l11.888-1.6a3.9,3.9,0,0,0,3.331-4.381L43.857,17.343a1.639,1.639,0,0,0-1.583,1.638" transform="translate(-25.752 -17.343)" fill="none"/>
    </clipPath>
    <linearGradient id="linear-gradient-11" x1="-1.839" y1="2.393" x2="-1.767" y2="2.393" xlink:href="#linear-gradient-3"/>
    <linearGradient id="linear-gradient-12" x1="-9.471" y1="4.698" x2="-9.273" y2="4.698" xlink:href="#linear-gradient-3"/>
    <linearGradient id="linear-gradient-13" x1="-0.4" y1="1.375" x2="-0.366" y2="1.375" xlink:href="#linear-gradient-3"/>
    <linearGradient id="linear-gradient-14" x1="-0.008" y1="4.698" x2="0.014" y2="4.698" xlink:href="#linear-gradient-3"/>
  </defs>
  <g id="Grupo_9371" data-name="Grupo 9371" transform="translate(-802.872 -2884.621)">
    <g id="Grupo_9045" data-name="Grupo 9045" transform="matrix(-0.695, 0.719, -0.719, -0.695, 907.759, 2942.439)">
      <g id="Grupo_9032" data-name="Grupo 9032" transform="translate(0 0)" clip-path="url(#clip-path)">
        <g id="Grupo_9031" data-name="Grupo 9031" transform="translate(0 0)">
          <g id="Grupo_9030" data-name="Grupo 9030" clip-path="url(#clip-path-2)">
            <g id="Grupo_9029" data-name="Grupo 9029" transform="translate(0 0)" opacity="0.28" style="isolation: isolate">
              <g id="Grupo_9028" data-name="Grupo 9028">
                <g id="Grupo_9027" data-name="Grupo 9027" clip-path="url(#clip-path)">
                  <g id="Grupo_9026" data-name="Grupo 9026" transform="translate(0.001 0)">
                    <g id="Grupo_9025" data-name="Grupo 9025" transform="translate(0)" clip-path="url(#clip-path-4)">
                      <rect id="Rectángulo_24494" data-name="Rectángulo 24494" width="72.754" height="80.792" transform="translate(-3.72 -7.858)" fill="url(#linear-gradient)"/>
                    </g>
                  </g>
                </g>
              </g>
            </g>
          </g>
        </g>
      </g>
    </g>
    <g id="Grupo_9046" data-name="Grupo 9046" transform="translate(893.51 2996.836) rotate(-155)">
      <g id="Grupo_9041" data-name="Grupo 9041" transform="translate(0 0)" clip-path="url(#clip-path-5)">
        <g id="Grupo_9040" data-name="Grupo 9040" transform="translate(0 0)">
          <g id="Grupo_9039" data-name="Grupo 9039" clip-path="url(#clip-path-5)">
            <g id="Grupo_9038" data-name="Grupo 9038" transform="translate(0 0)" opacity="0.28" style="isolation: isolate">
              <g id="Grupo_9037" data-name="Grupo 9037">
                <g id="Grupo_9036" data-name="Grupo 9036" clip-path="url(#clip-path-5)">
                  <g id="Grupo_9035" data-name="Grupo 9035" transform="translate(0 0)">
                    <g id="Grupo_9034" data-name="Grupo 9034" clip-path="url(#clip-path-8)">
                      <rect id="Rectángulo_24498" data-name="Rectángulo 24498" width="104.478" height="81.638" transform="translate(-4.471 -2.519)" fill="url(#linear-gradient-2)"/>
                    </g>
                  </g>
                </g>
              </g>
            </g>
          </g>
        </g>
      </g>
    </g>
    <g id="Grupo_9227" data-name="Grupo 9227" transform="translate(824.347 2915.959)">
      <g id="Grupo_9204" data-name="Grupo 9204" transform="translate(0 0)">
        <g id="Grupo_9203" data-name="Grupo 9203" clip-path="url(#clip-path-9)">
          <path id="Trazado_9678" data-name="Trazado 9678" d="M55.587,53.027h-45.3A2.281,2.281,0,0,1,8,50.746V3.128A2.281,2.281,0,0,1,10.284.847h45.3a2.281,2.281,0,0,1,2.281,2.281V50.746a2.281,2.281,0,0,1-2.281,2.281" transform="translate(3.315 0.351)" fill="#fff"/>
        </g>
      </g>
      <g id="Grupo_9206" data-name="Grupo 9206" transform="translate(10.176 0)">
        <g id="Grupo_9205" data-name="Grupo 9205" clip-path="url(#clip-path-10)">
          <rect id="Rectángulo_24572" data-name="Rectángulo 24572" width="52.49" height="55.034" transform="translate(0 0)" fill="url(#linear-gradient-3)"/>
        </g>
      </g>
      <g id="Grupo_9208" data-name="Grupo 9208" transform="translate(10.176 7.597)">
        <g id="Grupo_9207" data-name="Grupo 9207" clip-path="url(#clip-path-11)">
          <rect id="Rectángulo_24573" data-name="Rectángulo 24573" width="52.49" height="2.107" transform="translate(0 0)" fill="url(#linear-gradient-4)"/>
        </g>
      </g>
      <g id="Grupo_9210" data-name="Grupo 9210" transform="translate(34.2 3.848)">
        <g id="Grupo_9209" data-name="Grupo 9209" clip-path="url(#clip-path-12)">
          <rect id="Rectángulo_24574" data-name="Rectángulo 24574" width="22.795" height="2.107" transform="translate(0 0)" fill="url(#linear-gradient-5)"/>
        </g>
      </g>
      <g id="Grupo_9212" data-name="Grupo 9212" transform="translate(17.666 3.848)">
        <g id="Grupo_9211" data-name="Grupo 9211" clip-path="url(#clip-path-13)">
          <rect id="Rectángulo_24575" data-name="Rectángulo 24575" width="8.45" height="2.107" transform="translate(0 0)" fill="url(#linear-gradient-6)"/>
        </g>
      </g>
      <g id="Grupo_9214" data-name="Grupo 9214" transform="translate(0 0)">
        <g id="Grupo_9213" data-name="Grupo 9213" clip-path="url(#clip-path-9)">
          <path id="Trazado_9683" data-name="Trazado 9683" d="M67.453,17.9H55.442a3.942,3.942,0,0,0-.822.091,3.791,3.791,0,0,0-.782-.8,3.88,3.88,0,0,0-2.881-.761L39.044,18.056a3.823,3.823,0,0,0-1.3.427l-9.19-4.1a3.9,3.9,0,0,0-5.142,1.974l-1.6,3.579h0l-.088-.529a3.9,3.9,0,0,0-4.462-3.222L5.4,18.109a3.82,3.82,0,0,0-2.532,1.557,3.861,3.861,0,0,0-.683,2.9L4.106,34.427a3.863,3.863,0,0,0,1.563,2.536,3.822,3.822,0,0,0,2.27.734,4.011,4.011,0,0,0,.631-.048l11.86-1.919a3.883,3.883,0,0,0,2.809-2.035l8.23,3.666a3.893,3.893,0,0,0,5.141-1.974l.672-1.506.062.444A3.9,3.9,0,0,0,41.2,37.69a4.843,4.843,0,0,0,.535-.034L52.4,36.215A3.874,3.874,0,0,0,55.442,37.7H67.453a3.9,3.9,0,0,0,3.893-3.895V21.8A3.9,3.9,0,0,0,67.453,17.9" transform="translate(0.885 5.821)" fill="#fff"/>
        </g>
      </g>
      <g id="Grupo_9216" data-name="Grupo 9216" transform="translate(17.328 18.426)">
        <g id="Grupo_9215" data-name="Grupo 9215" clip-path="url(#clip-path-15)">
          <rect id="Rectángulo_24577" data-name="Rectángulo 24577" width="24.714" height="23.643" transform="translate(-0.535 0)" fill="url(#linear-gradient-7)"/>
        </g>
      </g>
      <g id="Grupo_9218" data-name="Grupo 9218" transform="translate(50.687 22.277)">
        <g id="Grupo_9217" data-name="Grupo 9217" clip-path="url(#clip-path-16)">
          <rect id="Rectángulo_24578" data-name="Rectángulo 24578" width="19.798" height="19.801" transform="translate(0 0)" fill="url(#linear-gradient-8)"/>
        </g>
      </g>
      <g id="Grupo_9220" data-name="Grupo 9220" transform="translate(1.275 20.514)">
        <g id="Grupo_9219" data-name="Grupo 9219" clip-path="url(#clip-path-17)">
          <rect id="Rectángulo_24579" data-name="Rectángulo 24579" width="21.972" height="21.556" transform="translate(-0.114 0)" fill="url(#linear-gradient-9)"/>
        </g>
      </g>
      <g id="Grupo_9222" data-name="Grupo 9222" transform="translate(34.815 20.777)">
        <g id="Grupo_9221" data-name="Grupo 9221" clip-path="url(#clip-path-18)">
          <rect id="Rectángulo_24580" data-name="Rectángulo 24580" width="19.051" height="13.26" transform="translate(-0.102 0)" fill="url(#linear-gradient-10)"/>
        </g>
      </g>
      <g id="Grupo_9224" data-name="Grupo 9224" transform="translate(36.42 24.527)">
        <g id="Grupo_9223" data-name="Grupo 9223" clip-path="url(#clip-path-19)">
          <rect id="Rectángulo_24581" data-name="Rectángulo 24581" width="19.807" height="17.537" transform="translate(0 0)" fill="url(#linear-gradient-11)"/>
        </g>
      </g>
      <g id="Grupo_9226" data-name="Grupo 9226" transform="translate(0 0)">
        <g id="Grupo_9225" data-name="Grupo 9225" clip-path="url(#clip-path-9)">
          <path id="Trazado_9689" data-name="Trazado 9689" d="M48.5,42.323h5.722a.707.707,0,1,1,0,1.414H48.5a.707.707,0,1,1,0-1.414" transform="translate(19.797 17.532)" fill="url(#linear-gradient-12)"/>
          <path id="Trazado_9690" data-name="Trazado 9690" d="M12.642,45.646H53.456a.707.707,0,1,1,0,1.414H12.642a.707.707,0,1,1,0-1.414" transform="translate(4.944 18.909)" fill="url(#linear-gradient-13)"/>
          <path id="Trazado_9691" data-name="Trazado 9691" d="M1.082,42.323H62.509a.707.707,0,1,1,0,1.414H1.082a.707.707,0,1,1,0-1.414" transform="translate(0.155 17.532)" fill="url(#linear-gradient-14)"/>
        </g>
      </g>
    </g>
  </g>
</svg>
