<svg xmlns="http://www.w3.org/2000/svg" xmlns:xlink="http://www.w3.org/1999/xlink" width="116.575" height="100.435" viewBox="0 0 116.575 100.435">
  <defs>
    <clipPath id="clip-path">
      <rect id="Rectángulo_24497" data-name="Rectángulo 24497" width="61.149" height="68.247" fill="none"/>
    </clipPath>
    <clipPath id="clip-path-2">
      <rect id="Rectángulo_24496" data-name="Rectángulo 24496" width="61.148" height="68.247" fill="none"/>
    </clipPath>
    <clipPath id="clip-path-4">
      <path id="Trazado_9598" data-name="Trazado 9598" d="M47.6,67.435s-14.523,5.5-24.11-12.126S7.278,23.867,1.779,17.24C-3.72,10.754,3.048-7.858,28.85,3.7S69.034,16.253,56.626,32.045C44.36,47.977,55.075,64.474,47.6,67.435" fill="none"/>
    </clipPath>
    <linearGradient id="linear-gradient" x1="0.037" y1="0.09" x2="0.837" y2="0.924" gradientUnits="objectBoundingBox">
      <stop offset="0" stop-color="#b311c4"/>
      <stop offset="0.139" stop-color="#bf11a0"/>
      <stop offset="0.34" stop-color="#cf1172"/>
      <stop offset="0.533" stop-color="#db104d"/>
      <stop offset="0.713" stop-color="#e41033"/>
      <stop offset="0.873" stop-color="#e91024"/>
      <stop offset="1" stop-color="#eb101e"/>
    </linearGradient>
    <clipPath id="clip-path-5">
      <rect id="Rectángulo_24501" data-name="Rectángulo 24501" width="100.007" height="77.181" fill="none"/>
    </clipPath>
    <clipPath id="clip-path-8">
      <path id="Trazado_9599" data-name="Trazado 9599" d="M80.268.866c-.282.141-.564.141-.846.282-.141,0-.282.141-.423.141s-.282.141-.423.141a30.534,30.534,0,0,0-3.1,1.41c-.423.282-.987.564-1.41.846-.282.141-.423.282-.7.423s-.423.282-.7.423c-.987.7-1.974,1.41-3.1,2.115a3.821,3.821,0,0,0-1.128.987h-.141c-.423.282-.7.7-1.128.987l-.282.282a64.875,64.875,0,0,1-9.729,7.332A38.735,38.735,0,0,1,43.891,21.31c-.282,0-.564.141-.846.141s-.7.141-.987.141a7.991,7.991,0,0,1-1.833.141,2.792,2.792,0,0,0-.987.141h-.987c-6.063.282-12.69-.423-21.149-.846-21.572-1.269-21.008,12.549-7.9,27.495C19.216,59.944,33.175,71.647,44.737,75.736c.141,0,.423.141.564.141,9.588,3.243,17.483.846,19.739-11.844a35.843,35.843,0,0,1,1.974-6.627,4.429,4.429,0,0,1,.7-1.41c.282-.564.564-.987.846-1.551a10.621,10.621,0,0,1,.987-1.692,38.394,38.394,0,0,1,3.384-4.935c0-.141.141-.141.141-.282a2.483,2.483,0,0,1,.564-.7c.141-.282.423-.423.564-.7.282-.423.564-.7.846-1.128a1.93,1.93,0,0,0,.423-.564l.423-.423C83.934,34.987,93.944,27.8,98.033,21.169a11.815,11.815,0,0,0,1.974-6.063C99.584,4.391,91.547-2.518,80.268.866M39.238,42.319l-.564.423a.8.8,0,0,0-1.09-1.166l-.038.038.564-.423a.858.858,0,0,1,1.128,0,.73.73,0,0,1,.1,1.028.672.672,0,0,1-.1.1" transform="translate(0 0)" fill="none"/>
    </clipPath>
    <linearGradient id="linear-gradient-2" x1="0.966" y1="0.091" x2="0.056" y2="0.976" gradientUnits="objectBoundingBox">
      <stop offset="0" stop-color="#ff5a08"/>
      <stop offset="1" stop-color="#ffbe06"/>
    </linearGradient>
    <clipPath id="clip-path-9">
      <rect id="Rectángulo_24502" data-name="Rectángulo 24502" width="75.254" height="71.222" fill="none"/>
    </clipPath>
    <clipPath id="clip-path-10">
      <path id="Trazado_9604" data-name="Trazado 9604" d="M21.01,45.982A20.4,20.4,0,1,1,35.438,51.96,20.267,20.267,0,0,1,21.01,45.982M19.293,15.41A22.835,22.835,0,1,0,35.438,8.722,22.688,22.688,0,0,0,19.293,15.41M16.644,50.349a26.581,26.581,0,1,1,37.59-37.592h0a26.58,26.58,0,1,1-37.59,37.591M14.927,11.042A29.008,29.008,0,1,0,55.95,52.066a29.009,29.009,0,0,0,0-41.023h0a29.007,29.007,0,0,0-41.023,0" transform="translate(-6.43 -2.545)" fill="none"/>
    </clipPath>
    <linearGradient id="linear-gradient-3" x1="-0.157" y1="1.166" x2="-0.132" y2="1.166" gradientUnits="objectBoundingBox">
      <stop offset="0" stop-color="#3e65b9"/>
      <stop offset="0.3" stop-color="#4476cf"/>
      <stop offset="0.69" stop-color="#4b88e6"/>
      <stop offset="0.94" stop-color="#4d8fef"/>
      <stop offset="1" stop-color="#4d8fef"/>
    </linearGradient>
    <clipPath id="clip-path-11">
      <path id="Trazado_9605" data-name="Trazado 9605" d="M16.644,50.349a26.58,26.58,0,1,1,37.59-37.591,26.58,26.58,0,1,1-37.59,37.591M14.927,11.042A29.008,29.008,0,1,0,55.95,52.066,29.008,29.008,0,1,0,14.927,11.042" transform="translate(-6.43 -2.545)" fill="none"/>
    </clipPath>
    <clipPath id="clip-path-12">
      <path id="Trazado_9606" data-name="Trazado 9606" d="M28.02,30.284a4.346,4.346,0,0,1,6.145-6.146h0a4.346,4.346,0,0,1-6.146,6.146M26.3,22.421a6.784,6.784,0,1,0,4.789-1.979A6.783,6.783,0,0,0,26.3,22.421m-3.523,13.1A11.769,11.769,0,1,1,31.1,38.962a11.771,11.771,0,0,1-8.314-3.438M21.065,17.18A14.2,14.2,0,1,0,31.1,13.033a14.2,14.2,0,0,0-10.03,4.147" transform="translate(-16.917 -13.033)" fill="none"/>
    </clipPath>
    <linearGradient id="linear-gradient-5" x1="-0.724" y1="1.862" x2="-0.679" y2="1.862" xlink:href="#linear-gradient-3"/>
    <clipPath id="clip-path-14">
      <path id="Trazado_9608" data-name="Trazado 9608" d="M51.587,7.051l-.369-3.322a1.174,1.174,0,0,1,1.037-1.3c.044,0,.088-.007.132-.007a1.176,1.176,0,0,1,1.165,1.044l.161,1.457.829-.829A1.173,1.173,0,1,1,56.2,5.755l-.7.7,1.16.129a1.173,1.173,0,0,1-.13,2.339.983.983,0,0,1-.129-.008l-3.025-.335-.363.363,1.16.129a1.173,1.173,0,0,1-.13,2.339c-.044,0-.086,0-.13-.007l-3.024-.337L29.655,32.3a1.174,1.174,0,0,1-1.66-1.66l21.1-21.1L48.73,6.217a1.172,1.172,0,0,1,1.035-1.3,1.047,1.047,0,0,1,.133-.007,1.174,1.174,0,0,1,1.163,1.042l.163,1.458ZM52.386,0a3.494,3.494,0,0,0-.4.023,3.6,3.6,0,0,0-3.066,2.6,3.6,3.6,0,0,0-2.6,3.864l.239,2.162L26.279,28.93a3.6,3.6,0,0,0,5.09,5.091L51.782,13.606l1.864.206a3.727,3.727,0,0,0,.4.023,3.6,3.6,0,0,0,3.464-2.622A3.6,3.6,0,0,0,59.346,5.5a3.834,3.834,0,0,0-.379-.407c0-.055,0-.112,0-.167a3.6,3.6,0,0,0-3.6-3.6c-.064,0-.127,0-.191.006A3.585,3.585,0,0,0,52.386,0Z" transform="translate(-25.227)" fill="none"/>
    </clipPath>
    <linearGradient id="linear-gradient-6" x1="-1" y1="2.031" x2="-0.96" y2="2.031" xlink:href="#linear-gradient-3"/>
    <linearGradient id="linear-gradient-7" x1="-0.555" y1="4.697" x2="-0.525" y2="4.697" xlink:href="#linear-gradient-3"/>
    <linearGradient id="linear-gradient-8" x1="-0.209" y1="1.375" x2="-0.175" y2="1.375" xlink:href="#linear-gradient-3"/>
    <linearGradient id="linear-gradient-9" x1="-0.024" y1="4.697" x2="0.04" y2="4.697" xlink:href="#linear-gradient-3"/>
    <linearGradient id="linear-gradient-10" x1="-5.11" y1="1.376" x2="-4.978" y2="1.376" xlink:href="#linear-gradient-3"/>
  </defs>
  <g id="Grupo_9375" data-name="Grupo 9375" transform="translate(-110.374 -2889.65)">
    <g id="Grupo_9051" data-name="Grupo 9051" transform="translate(204.659 2949.406) rotate(143)">
      <g id="Grupo_9032" data-name="Grupo 9032" transform="translate(0 0)" clip-path="url(#clip-path)">
        <g id="Grupo_9031" data-name="Grupo 9031" transform="translate(0 0)">
          <g id="Grupo_9030" data-name="Grupo 9030" clip-path="url(#clip-path-2)">
            <g id="Grupo_9029" data-name="Grupo 9029" transform="translate(0 0)" opacity="0.28" style="isolation: isolate">
              <g id="Grupo_9028" data-name="Grupo 9028">
                <g id="Grupo_9027" data-name="Grupo 9027" clip-path="url(#clip-path)">
                  <g id="Grupo_9026" data-name="Grupo 9026" transform="translate(0.001 0)">
                    <g id="Grupo_9025" data-name="Grupo 9025" transform="translate(0)" clip-path="url(#clip-path-4)">
                      <rect id="Rectángulo_24494" data-name="Rectángulo 24494" width="72.754" height="80.792" transform="translate(-3.72 -7.858)" fill="url(#linear-gradient)"/>
                    </g>
                  </g>
                </g>
              </g>
            </g>
          </g>
        </g>
      </g>
    </g>
    <g id="Grupo_9052" data-name="Grupo 9052" transform="matrix(-0.966, -0.259, 0.259, -0.966, 206.973, 2990.085)">
      <g id="Grupo_9041" data-name="Grupo 9041" transform="translate(0 0)" clip-path="url(#clip-path-5)">
        <g id="Grupo_9040" data-name="Grupo 9040" transform="translate(0 0)">
          <g id="Grupo_9039" data-name="Grupo 9039" clip-path="url(#clip-path-5)">
            <g id="Grupo_9038" data-name="Grupo 9038" transform="translate(0 0)" opacity="0.28" style="isolation: isolate">
              <g id="Grupo_9037" data-name="Grupo 9037">
                <g id="Grupo_9036" data-name="Grupo 9036" clip-path="url(#clip-path-5)">
                  <g id="Grupo_9035" data-name="Grupo 9035" transform="translate(0 0)">
                    <g id="Grupo_9034" data-name="Grupo 9034" clip-path="url(#clip-path-8)">
                      <rect id="Rectángulo_24498" data-name="Rectángulo 24498" width="104.478" height="81.638" transform="translate(-4.471 -2.519)" fill="url(#linear-gradient-2)"/>
                    </g>
                  </g>
                </g>
              </g>
            </g>
          </g>
        </g>
      </g>
    </g>
    <g id="Grupo_9069" data-name="Grupo 9069" transform="translate(126.872 2905.274)">
      <g id="Grupo_9056" data-name="Grupo 9056" transform="translate(0 0.001)">
        <g id="Grupo_9055" data-name="Grupo 9055" clip-path="url(#clip-path-9)">
          <path id="Trazado_9600" data-name="Trazado 9600" d="M63.45,31.328A28.236,28.236,0,1,0,35.213,59.565,28.237,28.237,0,0,0,63.45,31.328" transform="translate(2.89 1.28)" fill="#fff"/>
          <path id="Trazado_9601" data-name="Trazado 9601" d="M29.224,30.492,49.736,13.338l-2.548-3.2L28.136,29.663Z" transform="translate(11.656 4.198)" fill="#ccdce5"/>
          <path id="Trazado_9602" data-name="Trazado 9602" d="M49.277,7.748S28.934.573,17.008,13.624c-12.921,14.14-3.183,30.238-3.183,30.238a29.27,29.27,0,0,0,30.218,12.2s-12.168,5.008-22.88-1.356S7.76,36.877,7.76,36.877,2.953,15.994,22.33,6.28c0,0,12.173-6.422,26.947,1.468" transform="translate(2.996 1.58)" fill="#ccdce5"/>
          <path id="Trazado_9603" data-name="Trazado 9603" d="M34.686,14.375s-13.745-.892-13.745,12.369,14.82,11.41,14.82,11.41S20.3,42.6,18.343,28.816c-2.515-17.7,16.343-14.441,16.343-14.441" transform="translate(7.503 5.857)" fill="#ccdce5"/>
        </g>
      </g>
      <g id="Grupo_9058" data-name="Grupo 9058" transform="translate(9.094 3.599)">
        <g id="Grupo_9057" data-name="Grupo 9057" clip-path="url(#clip-path-10)">
          <rect id="Rectángulo_24503" data-name="Rectángulo 24503" width="58.016" height="58.018" transform="translate(0 0.001)" fill="url(#linear-gradient-3)"/>
        </g>
      </g>
      <g id="Grupo_9060" data-name="Grupo 9060" transform="translate(9.094 3.599)">
        <g id="Grupo_9059" data-name="Grupo 9059" clip-path="url(#clip-path-11)">
          <rect id="Rectángulo_24504" data-name="Rectángulo 24504" width="58.016" height="58.018" transform="translate(0 0.001)" fill="url(#linear-gradient-3)"/>
        </g>
      </g>
      <g id="Grupo_9062" data-name="Grupo 9062" transform="translate(23.925 18.432)">
        <g id="Grupo_9061" data-name="Grupo 9061" clip-path="url(#clip-path-12)">
          <rect id="Rectángulo_24505" data-name="Rectángulo 24505" width="31.121" height="28.354" transform="translate(-1.383 0.001)" fill="url(#linear-gradient-5)"/>
        </g>
      </g>
      <g id="Grupo_9064" data-name="Grupo 9064" transform="translate(0 0.001)">
        <g id="Grupo_9063" data-name="Grupo 9063" clip-path="url(#clip-path-9)">
          <path id="Trazado_9607" data-name="Trazado 9607" d="M28.469,33.506a2.372,2.372,0,0,1-1.689-.7,2.4,2.4,0,0,1,0-3.376L47.474,8.738,47.168,6A2.385,2.385,0,0,1,49.28,3.361l.263-.016.1,0A2.388,2.388,0,0,1,51.765.871l.266-.013a2.382,2.382,0,0,1,2.2,1.46,2.4,2.4,0,0,1,2.475.566,2.4,2.4,0,0,1,.59,2.4,2.386,2.386,0,0,1-1.114,4.5l-.106,0a2.483,2.483,0,0,1-.011.369,2.383,2.383,0,0,1-2.372,2.123l-.277-.017-2.431-.27L30.158,32.807a2.384,2.384,0,0,1-1.689.7" transform="translate(10.806 0.355)" fill="#fff"/>
        </g>
      </g>
      <g id="Grupo_9066" data-name="Grupo 9066" transform="translate(35.678)">
        <g id="Grupo_9065" data-name="Grupo 9065" clip-path="url(#clip-path-14)">
          <rect id="Rectángulo_24507" data-name="Rectángulo 24507" width="35.341" height="35.073" transform="translate(-0.351 0.001)" fill="url(#linear-gradient-6)"/>
        </g>
      </g>
      <g id="Grupo_9068" data-name="Grupo 9068" transform="translate(0 0.001)">
        <g id="Grupo_9067" data-name="Grupo 9067" clip-path="url(#clip-path-9)">
          <path id="Trazado_9609" data-name="Trazado 9609" d="M19.554,45.663H66.209a.707.707,0,1,1,0,1.414H19.554a.707.707,0,1,1,0-1.414" transform="translate(7.808 18.915)" fill="url(#linear-gradient-7)"/>
          <path id="Trazado_9610" data-name="Trazado 9610" d="M6.933,48.985H47.747a.707.707,0,1,1,0,1.414H6.933a.707.707,0,1,1,0-1.414" transform="translate(2.579 20.291)" fill="url(#linear-gradient-8)"/>
          <path id="Trazado_9611" data-name="Trazado 9611" d="M1.082,45.663H21.576a.707.707,0,1,1,0,1.414H1.082a.707.707,0,1,1,0-1.414" transform="translate(0.155 18.915)" fill="url(#linear-gradient-9)"/>
          <path id="Trazado_9612" data-name="Trazado 9612" d="M39.4,48.984H48.7a.707.707,0,1,1,0,1.414H39.4a.707.707,0,1,1,0-1.414" transform="translate(16.029 20.291)" fill="url(#linear-gradient-10)"/>
        </g>
      </g>
    </g>
  </g>
</svg>
