<svg xmlns="http://www.w3.org/2000/svg" xmlns:xlink="http://www.w3.org/1999/xlink" width="125.474" height="117.664" viewBox="0 0 125.474 117.664">
  <defs>
    <clipPath id="clip-path">
      <rect id="Rectángulo_24497" data-name="Rectángulo 24497" width="61.149" height="68.247" fill="none"/>
    </clipPath>
    <clipPath id="clip-path-2">
      <rect id="Rectángulo_24496" data-name="Rectángulo 24496" width="61.148" height="68.247" fill="none"/>
    </clipPath>
    <clipPath id="clip-path-4">
      <path id="Trazado_9598" data-name="Trazado 9598" d="M47.6,67.435s-14.523,5.5-24.11-12.126S7.278,23.867,1.779,17.24C-3.72,10.754,3.048-7.858,28.85,3.7S69.034,16.253,56.626,32.045C44.36,47.977,55.075,64.474,47.6,67.435" fill="none"/>
    </clipPath>
    <linearGradient id="linear-gradient" x1="0.037" y1="0.09" x2="0.837" y2="0.924" gradientUnits="objectBoundingBox">
      <stop offset="0" stop-color="#b311c4"/>
      <stop offset="0.139" stop-color="#bf11a0"/>
      <stop offset="0.34" stop-color="#cf1172"/>
      <stop offset="0.533" stop-color="#db104d"/>
      <stop offset="0.713" stop-color="#e41033"/>
      <stop offset="0.873" stop-color="#e91024"/>
      <stop offset="1" stop-color="#eb101e"/>
    </linearGradient>
    <clipPath id="clip-path-5">
      <rect id="Rectángulo_24501" data-name="Rectángulo 24501" width="100.007" height="77.181" fill="none"/>
    </clipPath>
    <clipPath id="clip-path-8">
      <path id="Trazado_9599" data-name="Trazado 9599" d="M80.268.866c-.282.141-.564.141-.846.282-.141,0-.282.141-.423.141s-.282.141-.423.141a30.534,30.534,0,0,0-3.1,1.41c-.423.282-.987.564-1.41.846-.282.141-.423.282-.7.423s-.423.282-.7.423c-.987.7-1.974,1.41-3.1,2.115a3.821,3.821,0,0,0-1.128.987h-.141c-.423.282-.7.7-1.128.987l-.282.282a64.875,64.875,0,0,1-9.729,7.332A38.735,38.735,0,0,1,43.891,21.31c-.282,0-.564.141-.846.141s-.7.141-.987.141a7.991,7.991,0,0,1-1.833.141,2.792,2.792,0,0,0-.987.141h-.987c-6.063.282-12.69-.423-21.149-.846-21.572-1.269-21.008,12.549-7.9,27.495C19.216,59.944,33.175,71.647,44.737,75.736c.141,0,.423.141.564.141,9.588,3.243,17.483.846,19.739-11.844a35.843,35.843,0,0,1,1.974-6.627,4.429,4.429,0,0,1,.7-1.41c.282-.564.564-.987.846-1.551a10.621,10.621,0,0,1,.987-1.692,38.394,38.394,0,0,1,3.384-4.935c0-.141.141-.141.141-.282a2.483,2.483,0,0,1,.564-.7c.141-.282.423-.423.564-.7.282-.423.564-.7.846-1.128a1.93,1.93,0,0,0,.423-.564l.423-.423C83.934,34.987,93.944,27.8,98.033,21.169a11.815,11.815,0,0,0,1.974-6.063C99.584,4.391,91.547-2.518,80.268.866M39.238,42.319l-.564.423a.8.8,0,0,0-1.09-1.166l-.038.038.564-.423a.858.858,0,0,1,1.128,0,.73.73,0,0,1,.1,1.028.672.672,0,0,1-.1.1" transform="translate(0 0)" fill="none"/>
    </clipPath>
    <linearGradient id="linear-gradient-2" x1="0.966" y1="0.091" x2="0.056" y2="0.976" gradientUnits="objectBoundingBox">
      <stop offset="0" stop-color="#ff5a08"/>
      <stop offset="1" stop-color="#ffbe06"/>
    </linearGradient>
    <clipPath id="clip-path-9">
      <rect id="Rectángulo_24535" data-name="Rectángulo 24535" width="84.943" height="75.457" fill="none"/>
    </clipPath>
    <clipPath id="clip-path-10">
      <path id="Trazado_9636" data-name="Trazado 9636" d="M19.635,35.614a1.125,1.125,0,0,0-1.083,1.163v7.295a1.122,1.122,0,1,0,2.244,0V36.777a.767.767,0,0,0,0-.081,1.121,1.121,0,0,0-1.12-1.082h-.041" transform="translate(-18.551 -35.614)" fill="none"/>
    </clipPath>
    <linearGradient id="linear-gradient-3" x1="-11.563" y1="2.619" x2="-10.939" y2="2.619" gradientUnits="objectBoundingBox">
      <stop offset="0" stop-color="#3e65b9"/>
      <stop offset="0.3" stop-color="#4476cf"/>
      <stop offset="0.69" stop-color="#4b88e6"/>
      <stop offset="0.94" stop-color="#4d8fef"/>
      <stop offset="1" stop-color="#4d8fef"/>
    </linearGradient>
    <clipPath id="clip-path-11">
      <path id="Trazado_9637" data-name="Trazado 9637" d="M24.817,35.614a1.125,1.125,0,0,0-1.083,1.163v7.295a1.123,1.123,0,0,0,2.246,0V36.7a1.123,1.123,0,0,0-1.12-1.082h-.042" transform="translate(-23.733 -35.614)" fill="none"/>
    </clipPath>
    <linearGradient id="linear-gradient-4" x1="-14.796" y1="2.619" x2="-14.172" y2="2.619" xlink:href="#linear-gradient-3"/>
    <clipPath id="clip-path-13">
      <path id="Trazado_9639" data-name="Trazado 9639" d="M13.763,45.551a2.516,2.516,0,0,1,2.512-2.515H35.965a2.516,2.516,0,0,1,2.51,2.515v.775H13.763Zm2.523-4.759a4.761,4.761,0,0,0-4.759,4.759V48.57h29.2V45.551a4.761,4.761,0,0,0-4.759-4.759Z" transform="translate(-11.527 -40.792)" fill="none"/>
    </clipPath>
    <linearGradient id="linear-gradient-5" x1="-0.558" y1="2.284" x2="-0.51" y2="2.284" xlink:href="#linear-gradient-3"/>
    <clipPath id="clip-path-14">
      <path id="Trazado_9640" data-name="Trazado 9640" d="M2.266,44.111V10.453A4.939,4.939,0,0,1,7.2,5.514H55.4a4.938,4.938,0,0,1,4.939,4.939V44.114A4.939,4.939,0,0,1,55.4,49.052H7.2a4.94,4.94,0,0,1-4.937-4.941M7.2,3.27A7.191,7.191,0,0,0,.02,10.454V44.114A7.192,7.192,0,0,0,7.2,51.3H55.4a7.193,7.193,0,0,0,7.184-7.186V10.453A7.192,7.192,0,0,0,55.4,3.27Z" transform="translate(-0.02 -3.27)" fill="none"/>
    </clipPath>
    <linearGradient id="linear-gradient-6" x1="0" y1="1.475" x2="0.022" y2="1.475" xlink:href="#linear-gradient-3"/>
    <clipPath id="clip-path-15">
      <path id="Trazado_9641" data-name="Trazado 9641" d="M1.083,29.237a1.123,1.123,0,1,0,.081,2.244h60.4a1.123,1.123,0,1,0-.081-2.244H1.083" transform="translate(0 -29.236)" fill="none"/>
    </clipPath>
    <linearGradient id="linear-gradient-7" x1="0" y1="14.916" x2="0.023" y2="14.916" xlink:href="#linear-gradient-3"/>
    <clipPath id="clip-path-16">
      <path id="Trazado_9642" data-name="Trazado 9642" d="M7.018,32.451A1.122,1.122,0,1,0,7.1,34.694h3.459a.739.739,0,0,0,.079,0,1.122,1.122,0,1,0-.079-2.243H7.018" transform="translate(-5.935 -32.45)" fill="none"/>
    </clipPath>
    <linearGradient id="linear-gradient-8" x1="-1.437" y1="12.922" x2="-1.194" y2="12.922" xlink:href="#linear-gradient-3"/>
    <clipPath id="clip-path-17">
      <path id="Trazado_9643" data-name="Trazado 9643" d="M12.258,19.521,33.92,28.692l.768-1.807L17.42,19.568l17.253-6.892-.73-1.819Z" transform="translate(-12.258 -10.857)" fill="none"/>
    </clipPath>
    <linearGradient id="linear-gradient-9" x1="-0.773" y1="3.37" x2="-0.71" y2="3.37" xlink:href="#linear-gradient-3"/>
    <clipPath id="clip-path-19">
      <path id="Trazado_9645" data-name="Trazado 9645" d="M26.705,12.782A2.423,2.423,0,1,1,29.128,15.2a2.422,2.422,0,0,1-2.423-2.423m-1.96,0A4.383,4.383,0,1,0,29.128,8.4a4.383,4.383,0,0,0-4.383,4.383" transform="translate(-24.745 -8.402)" fill="none"/>
    </clipPath>
    <linearGradient id="linear-gradient-10" x1="-3.992" y1="7.25" x2="-3.83" y2="7.25" xlink:href="#linear-gradient-3"/>
    <clipPath id="clip-path-21">
      <path id="Trazado_9647" data-name="Trazado 9647" d="M26.705,24.115a2.423,2.423,0,1,1,2.423,2.424,2.422,2.422,0,0,1-2.423-2.424m-1.96,0a4.383,4.383,0,1,0,4.383-4.384,4.383,4.383,0,0,0-4.383,4.384" transform="translate(-24.745 -19.735)" fill="none"/>
    </clipPath>
    <linearGradient id="linear-gradient-11" x1="-3.992" y1="5.423" x2="-3.83" y2="5.423" xlink:href="#linear-gradient-3"/>
    <clipPath id="clip-path-23">
      <path id="Trazado_9649" data-name="Trazado 9649" d="M13.181,18.329a2.424,2.424,0,1,1,2.424,2.425,2.424,2.424,0,0,1-2.424-2.425m-1.96.006a4.384,4.384,0,1,0,4.384-4.386,4.383,4.383,0,0,0-4.384,4.386" transform="translate(-11.221 -13.949)" fill="none"/>
    </clipPath>
    <linearGradient id="linear-gradient-12" x1="-1.81" y1="6.356" x2="-1.649" y2="6.356" xlink:href="#linear-gradient-3"/>
    <clipPath id="clip-path-25">
      <path id="Trazado_9652" data-name="Trazado 9652" d="M36.425,54.255V50.868H55.737v3.387a1.991,1.991,0,0,1-1.991,1.99H38.415a1.99,1.99,0,0,1-1.99-1.99m0-36.036a2.14,2.14,0,0,1,1.99-1.993H53.746a1.993,1.993,0,0,1,1.991,1.993V48.68H36.425Zm17.32-3.983H38.415a3.993,3.993,0,0,0-3.981,3.983V54.255a3.994,3.994,0,0,0,3.981,3.981H53.746a3.785,3.785,0,0,0,2.588-1,4.232,4.232,0,0,0,1.394-2.985V18.219a4.236,4.236,0,0,0-1.394-2.988,3.789,3.789,0,0,0-2.558-.994h-.03" transform="translate(-34.434 -14.236)" fill="none"/>
    </clipPath>
    <linearGradient id="linear-gradient-13" x1="-2.091" y1="1.257" x2="-2.03" y2="1.257" gradientUnits="objectBoundingBox">
      <stop offset="0" stop-color="#3e65b9"/>
      <stop offset="0.301" stop-color="#4476cf"/>
      <stop offset="0.691" stop-color="#4b88e6"/>
      <stop offset="0.935" stop-color="#4d8fef"/>
      <stop offset="1" stop-color="#4d8fef"/>
    </linearGradient>
    <clipPath id="clip-path-26">
      <path id="Trazado_9653" data-name="Trazado 9653" d="M46.265,24.457,40.294,30.83l-.035.034a.962.962,0,0,0,.035,1.359.732.732,0,0,0,.6.2c.2,0,.4-.2.8-.2l5.972-6.371.016-.014a.987.987,0,0,0-1.41-1.38" transform="translate(-39.995 -24.163)" fill="none"/>
    </clipPath>
    <linearGradient id="linear-gradient-14" x1="-6.918" y1="4.983" x2="-6.745" y2="4.983" xlink:href="#linear-gradient-13"/>
    <clipPath id="clip-path-28">
      <path id="Trazado_9655" data-name="Trazado 9655" d="M36.682,18.978V5.478a3.5,3.5,0,0,1,3.5-3.5H65.087a3.506,3.506,0,0,1,3.5,3.5V18.985a3.507,3.507,0,0,1-3.5,3.5H48.734L43.9,27.324V22.481H40.182a3.505,3.505,0,0,1-3.5-3.5M40.182,0a5.487,5.487,0,0,0-5.473,5.479v13.5a5.486,5.486,0,0,0,5.473,5.479h1.755v7.621l7.621-7.621H65.087a5.484,5.484,0,0,0,5.477-5.479V5.478A5.485,5.485,0,0,0,65.087,0Z" transform="translate(-34.709 0.001)" fill="none"/>
    </clipPath>
    <linearGradient id="linear-gradient-15" x1="-1.369" y1="2.352" x2="-1.33" y2="2.352" xlink:href="#linear-gradient-3"/>
    <clipPath id="clip-path-30">
      <path id="Trazado_9657" data-name="Trazado 9657" d="M49.673,18.737l.016-.011,0,0Zm-1.7-5.128L44.582,9.581a2.579,2.579,0,0,1-.5-2.516,2.494,2.494,0,0,1,1.839-1.649,2.753,2.753,0,0,1,.662-.081l.01-.038a2.493,2.493,0,0,1,1.909.955l.167.19c.091.1.191.216.247.283l.741,1.023.887-1.055c.068-.069.123-.147.191-.225a3.025,3.025,0,0,1,1.044-.9,2.537,2.537,0,0,1,2.325.057,2.492,2.492,0,0,1,1.312,1.908,2.454,2.454,0,0,1-.566,1.979q-1.886,2.264-3.772,4.5l-1.38,1.65Zm-2.509-10.1A4.464,4.464,0,0,0,42.213,6.46a4.56,4.56,0,0,0,.864,4.4c1.117,1.342,2.256,2.683,3.379,4.029l3.23,3.834L52.558,15.3c1.259-1.5,2.515-3,3.772-4.5A4.526,4.526,0,0,0,50.9,3.832a4.78,4.78,0,0,0-1.223.877,4.323,4.323,0,0,0-4.207-1.2" transform="translate(-41.981 -3.371)" fill="none"/>
    </clipPath>
    <linearGradient id="linear-gradient-16" x1="-3.7" y1="4.461" x2="-3.612" y2="4.461" xlink:href="#linear-gradient-3"/>
    <linearGradient id="linear-gradient-17" x1="-0.056" y1="4.697" x2="-0.026" y2="4.697" xlink:href="#linear-gradient-3"/>
    <linearGradient id="linear-gradient-18" x1="-0.624" y1="1.375" x2="-0.591" y2="1.375" xlink:href="#linear-gradient-3"/>
    <linearGradient id="linear-gradient-19" x1="-2.508" y1="4.697" x2="-2.444" y2="4.697" xlink:href="#linear-gradient-3"/>
    <linearGradient id="linear-gradient-20" x1="-1.117" y1="1.376" x2="-0.985" y2="1.376" xlink:href="#linear-gradient-3"/>
  </defs>
  <g id="Grupo_9373" data-name="Grupo 9373" transform="translate(-439.348 -2885.054)">
    <g id="Grupo_9033" data-name="Grupo 9033" transform="translate(495.574 2901.518) rotate(16)">
      <g id="Grupo_9032" data-name="Grupo 9032" transform="translate(0 0)" clip-path="url(#clip-path)">
        <g id="Grupo_9031" data-name="Grupo 9031" transform="translate(0 0)">
          <g id="Grupo_9030" data-name="Grupo 9030" clip-path="url(#clip-path-2)">
            <g id="Grupo_9029" data-name="Grupo 9029" transform="translate(0 0)" opacity="0.28" style="isolation: isolate">
              <g id="Grupo_9028" data-name="Grupo 9028">
                <g id="Grupo_9027" data-name="Grupo 9027" clip-path="url(#clip-path)">
                  <g id="Grupo_9026" data-name="Grupo 9026" transform="translate(0.001 0)">
                    <g id="Grupo_9025" data-name="Grupo 9025" transform="translate(0)" clip-path="url(#clip-path-4)">
                      <rect id="Rectángulo_24494" data-name="Rectángulo 24494" width="72.754" height="80.792" transform="translate(-3.72 -7.858)" fill="url(#linear-gradient)"/>
                    </g>
                  </g>
                </g>
              </g>
            </g>
          </g>
        </g>
      </g>
    </g>
    <g id="Grupo_9042" data-name="Grupo 9042" transform="translate(479.099 2885.054) rotate(31)">
      <g id="Grupo_9041" data-name="Grupo 9041" transform="translate(0 0)" clip-path="url(#clip-path-5)">
        <g id="Grupo_9040" data-name="Grupo 9040" transform="translate(0 0)">
          <g id="Grupo_9039" data-name="Grupo 9039" clip-path="url(#clip-path-5)">
            <g id="Grupo_9038" data-name="Grupo 9038" transform="translate(0 0)" opacity="0.28" style="isolation: isolate">
              <g id="Grupo_9037" data-name="Grupo 9037">
                <g id="Grupo_9036" data-name="Grupo 9036" clip-path="url(#clip-path-5)">
                  <g id="Grupo_9035" data-name="Grupo 9035" transform="translate(0 0)">
                    <g id="Grupo_9034" data-name="Grupo 9034" clip-path="url(#clip-path-8)">
                      <rect id="Rectángulo_24498" data-name="Rectángulo 24498" width="104.478" height="81.638" transform="translate(-4.471 -2.519)" fill="url(#linear-gradient-2)"/>
                    </g>
                  </g>
                </g>
              </g>
            </g>
          </g>
        </g>
      </g>
    </g>
    <g id="Grupo_9177" data-name="Grupo 9177" transform="translate(467.028 2906.998)">
      <rect id="Rectángulo_24534" data-name="Rectángulo 24534" width="7.329" height="7.295" transform="translate(27.359 51.53)" fill="#fff"/>
      <g id="Grupo_9132" data-name="Grupo 9132" transform="translate(0 0.002)">
        <g id="Grupo_9131" data-name="Grupo 9131" clip-path="url(#clip-path-9)">
          <path id="Trazado_9633" data-name="Trazado 9633" d="M4.892,27.325H7.321a3.31,3.31,0,0,1,3.309,3.309V36.5a3.31,3.31,0,0,1-3.309,3.309H4.892A3.31,3.31,0,0,1,1.583,36.5V30.634a3.31,3.31,0,0,1,3.309-3.309" transform="translate(0.656 11.319)" fill="#fff"/>
          <path id="Trazado_9634" data-name="Trazado 9634" d="M52.891,40.829,1.412,40.29s.023-2.546,0-6.4V11.072c0-5.141,1.482-7.24,8.833-7.105H53.037c4.782-.011,8.676,3.086,8.7,6.93V33.725c-.034,3.917-3.973,7.083-8.833,7.105Z" transform="translate(0.585 1.64)" fill="#ccdce5"/>
          <path id="Trazado_9635" data-name="Trazado 9635" d="M60.29,8.762V45.07a5.372,5.372,0,0,1-2.705,4.691H8.767a5.488,5.488,0,0,1-2.435-.684A4.681,4.681,0,0,1,4.171,45.07V8.762A4.99,4.99,0,0,1,6.338,4.756a4.536,4.536,0,0,1,2.43-.684H57.585A5.2,5.2,0,0,1,60.29,8.762" transform="translate(1.728 1.686)" fill="#fff"/>
        </g>
      </g>
      <g id="Grupo_9134" data-name="Grupo 9134" transform="translate(26.235 50.368)">
        <g id="Grupo_9133" data-name="Grupo 9133" clip-path="url(#clip-path-10)">
          <rect id="Rectángulo_24536" data-name="Rectángulo 24536" width="2.267" height="9.58" transform="translate(-0.021 0)" fill="url(#linear-gradient-3)"/>
        </g>
      </g>
      <g id="Grupo_9136" data-name="Grupo 9136" transform="translate(33.564 50.368)">
        <g id="Grupo_9135" data-name="Grupo 9135" clip-path="url(#clip-path-11)">
          <rect id="Rectángulo_24537" data-name="Rectángulo 24537" width="2.267" height="9.58" transform="translate(-0.021 0)" fill="url(#linear-gradient-4)"/>
        </g>
      </g>
      <g id="Grupo_9138" data-name="Grupo 9138" transform="translate(0 0.002)">
        <g id="Grupo_9137" data-name="Grupo 9137" clip-path="url(#clip-path-9)">
          <path id="Trazado_9638" data-name="Trazado 9638" d="M15.946,41.594H35.628a3.636,3.636,0,0,1,3.636,3.636v1.9H12.321v-1.9a3.636,3.636,0,0,1,3.636-3.636Z" transform="translate(5.104 17.23)" fill="#fff"/>
        </g>
      </g>
      <g id="Grupo_9140" data-name="Grupo 9140" transform="translate(16.302 57.691)">
        <g id="Grupo_9139" data-name="Grupo 9139" clip-path="url(#clip-path-13)">
          <rect id="Rectángulo_24539" data-name="Rectángulo 24539" width="29.197" height="7.778" transform="translate(0 0)" fill="url(#linear-gradient-5)"/>
        </g>
      </g>
      <g id="Grupo_9142" data-name="Grupo 9142" transform="translate(0.028 4.626)">
        <g id="Grupo_9141" data-name="Grupo 9141" clip-path="url(#clip-path-14)">
          <rect id="Rectángulo_24540" data-name="Rectángulo 24540" width="62.563" height="48.026" transform="translate(0 0)" fill="url(#linear-gradient-6)"/>
        </g>
      </g>
      <g id="Grupo_9144" data-name="Grupo 9144" transform="translate(0.001 41.348)">
        <g id="Grupo_9143" data-name="Grupo 9143" clip-path="url(#clip-path-15)">
          <rect id="Rectángulo_24541" data-name="Rectángulo 24541" width="62.686" height="2.288" transform="translate(-0.022 -0.019)" fill="url(#linear-gradient-7)"/>
        </g>
      </g>
      <g id="Grupo_9146" data-name="Grupo 9146" transform="translate(8.394 45.894)">
        <g id="Grupo_9145" data-name="Grupo 9145" clip-path="url(#clip-path-16)">
          <rect id="Rectángulo_24542" data-name="Rectángulo 24542" width="5.827" height="2.29" transform="translate(-0.022 -0.021)" fill="url(#linear-gradient-8)"/>
        </g>
      </g>
      <g id="Grupo_9148" data-name="Grupo 9148" transform="translate(17.336 15.356)">
        <g id="Grupo_9147" data-name="Grupo 9147" clip-path="url(#clip-path-17)">
          <rect id="Rectángulo_24543" data-name="Rectángulo 24543" width="22.43" height="17.835" transform="translate(0 0)" fill="url(#linear-gradient-9)"/>
        </g>
      </g>
      <g id="Grupo_9150" data-name="Grupo 9150" transform="translate(0 0.002)">
        <g id="Grupo_9149" data-name="Grupo 9149" clip-path="url(#clip-path-9)">
          <path id="Trazado_9644" data-name="Trazado 9644" d="M28.844,9.086A3.413,3.413,0,1,1,25.431,12.5a3.412,3.412,0,0,1,3.413-3.413" transform="translate(10.535 3.763)" fill="#fff"/>
        </g>
      </g>
      <g id="Grupo_9152" data-name="Grupo 9152" transform="translate(34.996 11.884)">
        <g id="Grupo_9151" data-name="Grupo 9151" clip-path="url(#clip-path-19)">
          <rect id="Rectángulo_24545" data-name="Rectángulo 24545" width="8.767" height="8.768" transform="translate(0 0)" fill="url(#linear-gradient-10)"/>
        </g>
      </g>
      <g id="Grupo_9154" data-name="Grupo 9154" transform="translate(0 0.002)">
        <g id="Grupo_9153" data-name="Grupo 9153" clip-path="url(#clip-path-9)">
          <path id="Trazado_9646" data-name="Trazado 9646" d="M28.844,20.419a3.413,3.413,0,1,1-3.413,3.413,3.412,3.412,0,0,1,3.413-3.413" transform="translate(10.535 8.458)" fill="#fff"/>
        </g>
      </g>
      <g id="Grupo_9156" data-name="Grupo 9156" transform="translate(34.996 27.912)">
        <g id="Grupo_9155" data-name="Grupo 9155" clip-path="url(#clip-path-21)">
          <rect id="Rectángulo_24547" data-name="Rectángulo 24547" width="8.767" height="8.768" transform="translate(0 0)" fill="url(#linear-gradient-11)"/>
        </g>
      </g>
      <g id="Grupo_9158" data-name="Grupo 9158" transform="translate(0 0.002)">
        <g id="Grupo_9157" data-name="Grupo 9157" clip-path="url(#clip-path-9)">
          <path id="Trazado_9648" data-name="Trazado 9648" d="M15.321,14.634a3.413,3.413,0,1,1-3.413,3.413,3.412,3.412,0,0,1,3.413-3.413" transform="translate(4.933 6.062)" fill="#fff"/>
        </g>
      </g>
      <g id="Grupo_9160" data-name="Grupo 9160" transform="translate(15.869 19.729)">
        <g id="Grupo_9159" data-name="Grupo 9159" clip-path="url(#clip-path-23)">
          <rect id="Rectángulo_24549" data-name="Rectángulo 24549" width="8.768" height="8.768" transform="translate(0 0)" fill="url(#linear-gradient-12)"/>
        </g>
      </g>
      <g id="Grupo_9162" data-name="Grupo 9162" transform="translate(0 0.002)">
        <g id="Grupo_9161" data-name="Grupo 9161" clip-path="url(#clip-path-9)">
          <path id="Trazado_9650" data-name="Trazado 9650" d="M49.415,56.691h-9.76c-3.824.024-4.352-1.424-4.376-5.248V19.113c-.024-3.824,3.056-4.008,6.88-4.033h7.255a6.925,6.925,0,0,1,6.968,6.882V49.723a6.924,6.924,0,0,1-6.88,6.968h-.088" transform="translate(14.615 6.246)" fill="#ccdce5"/>
          <path id="Trazado_9651" data-name="Trazado 9651" d="M56.1,17.927V53.963A4.231,4.231,0,0,1,54.7,56.949H41.363a3.2,3.2,0,0,1-2.189-.994,3.533,3.533,0,0,1-.8-1.991V17.927a2.555,2.555,0,0,1,.8-1.991,3.2,3.2,0,0,1,2.189-1H54.7A4.237,4.237,0,0,1,56.1,17.927" transform="translate(15.897 6.188)" fill="#fff"/>
        </g>
      </g>
      <g id="Grupo_9164" data-name="Grupo 9164" transform="translate(48.699 20.135)">
        <g id="Grupo_9163" data-name="Grupo 9163" clip-path="url(#clip-path-25)">
          <rect id="Rectángulo_24551" data-name="Rectángulo 24551" width="23.294" height="44.007" transform="translate(0 0)" fill="url(#linear-gradient-13)"/>
        </g>
      </g>
      <g id="Grupo_9166" data-name="Grupo 9166" transform="translate(56.563 34.174)">
        <g id="Grupo_9165" data-name="Grupo 9165" clip-path="url(#clip-path-26)">
          <rect id="Rectángulo_24552" data-name="Rectángulo 24552" width="8.162" height="8.286" transform="translate(-0.101 0)" fill="url(#linear-gradient-14)"/>
        </g>
      </g>
      <g id="Grupo_9168" data-name="Grupo 9168" transform="translate(0 0.002)">
        <g id="Grupo_9167" data-name="Grupo 9167" clip-path="url(#clip-path-9)">
          <path id="Trazado_9654" data-name="Trazado 9654" d="M64.8.706H39.9a4.489,4.489,0,0,0-4.489,4.489V18.7A4.489,4.489,0,0,0,39.9,23.185h2.738v6.223l6.223-6.223H64.809A4.489,4.489,0,0,0,69.3,18.7V5.195A4.489,4.489,0,0,0,64.809.706Z" transform="translate(14.668 0.292)" fill="#fff"/>
        </g>
      </g>
      <g id="Grupo_9170" data-name="Grupo 9170" transform="translate(49.088 0)">
        <g id="Grupo_9169" data-name="Grupo 9169" clip-path="url(#clip-path-28)">
          <rect id="Rectángulo_24554" data-name="Rectángulo 24554" width="35.856" height="32.079" transform="translate(0 0)" fill="url(#linear-gradient-15)"/>
        </g>
      </g>
      <g id="Grupo_9172" data-name="Grupo 9172" transform="translate(0 0.002)">
        <g id="Grupo_9171" data-name="Grupo 9171" clip-path="url(#clip-path-9)">
          <path id="Trazado_9656" data-name="Trazado 9656" d="M49.4,16.914c-.325-.382-.628-.752-.932-1.112-1.639-1.953-3.277-3.917-4.927-5.871a3.527,3.527,0,0,1,1.865-5.757,3.4,3.4,0,0,1,3.524,1.178c.141.168.382.416.471.539.079-.1.168-.191.247-.291a4.141,4.141,0,0,1,1.392-1.178,3.536,3.536,0,0,1,5.039,2.717A3.422,3.422,0,0,1,55.3,9.877c-1.728,2.076-3.479,4.141-5.207,6.223-.225.269-.448.539-.7.819Z" transform="translate(17.677 1.683)" fill="#fff"/>
        </g>
      </g>
      <g id="Grupo_9174" data-name="Grupo 9174" transform="translate(59.373 4.769)">
        <g id="Grupo_9173" data-name="Grupo 9173" clip-path="url(#clip-path-30)">
          <rect id="Rectángulo_24556" data-name="Rectángulo 24556" width="15.973" height="15.977" transform="translate(-0.271 -0.611)" fill="url(#linear-gradient-16)"/>
        </g>
      </g>
      <g id="Grupo_9176" data-name="Grupo 9176" transform="translate(0 0.002)">
        <g id="Grupo_9175" data-name="Grupo 9175" clip-path="url(#clip-path-9)">
          <path id="Trazado_9658" data-name="Trazado 9658" d="M49.25,50.072H2.6a.707.707,0,1,1,0-1.414H49.25a.707.707,0,1,1,0,1.414" transform="translate(0.782 20.156)" fill="url(#linear-gradient-17)"/>
          <path id="Trazado_9659" data-name="Trazado 9659" d="M60.16,53.394H19.346a.707.707,0,1,1,0-1.414H60.16a.707.707,0,1,1,0,1.414" transform="translate(7.721 21.532)" fill="url(#linear-gradient-18)"/>
          <path id="Trazado_9660" data-name="Trazado 9660" d="M60.059,50.072H39.565a.707.707,0,1,1,0-1.414H60.059a.707.707,0,1,1,0,1.414" transform="translate(16.097 20.156)" fill="url(#linear-gradient-19)"/>
          <path id="Trazado_9661" data-name="Trazado 9661" d="M18.46,53.393h-9.3a.707.707,0,1,1,0-1.414h9.3a.707.707,0,1,1,0,1.414" transform="translate(3.503 21.532)" fill="url(#linear-gradient-20)"/>
        </g>
      </g>
    </g>
  </g>
</svg>
