<svg xmlns="http://www.w3.org/2000/svg" xmlns:xlink="http://www.w3.org/1999/xlink" width="528.937" height="412.739" viewBox="0 0 528.937 412.739">
  <defs>
    <linearGradient id="linear-gradient" x1="-2.823" y1="-4.242" x2="-2.823" y2="-4.244" gradientUnits="objectBoundingBox">
      <stop offset="0" stop-color="#ff5a00"/>
      <stop offset="1" stop-color="#ffbe00"/>
    </linearGradient>
    <linearGradient id="linear-gradient-2" y1="0.5" x2="1" y2="0.5" gradientUnits="objectBoundingBox">
      <stop offset="0" stop-color="#d109c8"/>
      <stop offset="1" stop-color="#f40019"/>
    </linearGradient>
    <linearGradient id="linear-gradient-3" x1="0" y1="0.5" x2="1" y2="0.5" xlink:href="#linear-gradient"/>
    <linearGradient id="linear-gradient-5" y1="0.5" x2="1" y2="0.5" gradientUnits="objectBoundingBox">
      <stop offset="0" stop-color="#1a65bc"/>
      <stop offset="0.301" stop-color="#0f76d2"/>
      <stop offset="0.691" stop-color="#0488e9"/>
      <stop offset="0.935" stop-color="#008ff2"/>
    </linearGradient>
  </defs>
  <g id="conversion-inbound-marketing" transform="translate(-170.963 -34.219)">
    <path id="Trazado_509" data-name="Trazado 509" d="M678.372,136.394c29.214,20.491,47.183,76.3-7.37,142.543S572.576,296.625,556.55,383.872,417.109,452.53,383.7,419.1s-33.364-50.364-115.56-57.456S164.467,272.795,201.707,227.2c43.5-53.26-84.95-129.45,46.394-180.877C350.436,6.253,588.4,73.287,678.372,136.394Z" transform="translate(-6.323)" opacity="0.08" fill="url(#linear-gradient)"/>
    <g id="Grupo_845" data-name="Grupo 845" transform="translate(170.963 48.201)">
      <rect id="Rectángulo_51" data-name="Rectángulo 51" width="183.816" height="11.978" transform="translate(7.453 378.946)" fill="#fff"/>
      <path id="Trazado_703" data-name="Trazado 703" d="M338.38,698.251H376.9l-5.449,42.062H343.8Z" transform="translate(-251.809 -368.862)" fill="#1a1a1a"/>
      <rect id="Rectángulo_52" data-name="Rectángulo 52" width="352.178" height="246.048" transform="translate(87.166 22.968)" fill="#fff"/>
      <path id="Trazado_704" data-name="Trazado 704" d="M869.8,354.306H744.269a25.868,25.868,0,0,0-25.84,25.84v81.229a25.866,25.866,0,0,0,25.84,25.837H869.8a25.862,25.862,0,0,0,25.83-25.837V380.146A25.864,25.864,0,0,0,869.8,354.306Z" transform="translate(-435.334 -202.771)" fill="#fff"/>
      <path id="Trazado_705" data-name="Trazado 705" d="M328.618,214.793H236.249A25.721,25.721,0,0,0,210.6,240.44v43.554a25.728,25.728,0,0,0,25.648,25.649h92.369a25.728,25.728,0,0,0,25.645-25.649V240.44A25.721,25.721,0,0,0,328.618,214.793Z" transform="translate(-190.104 -135.4)" opacity="0.5" fill="url(#linear-gradient-2)"/>
      <path id="Trazado_706" data-name="Trazado 706" d="M356.876,287.639c4.324-2.525,4.324-6.663,0-9.193l-33.246-19.415c-4.331-2.523-7.87-.493-7.87,4.52v39.01c0,5.009,3.539,7.039,7.866,4.511Z" transform="translate(-240.884 -156.239)" fill="#fff"/>
      <path id="Trazado_707" data-name="Trazado 707" d="M982.059,430.956a13.972,13.972,0,1,1-13.971-13.971A13.969,13.969,0,0,1,982.059,430.956Z" transform="translate(-549.147 -233.038)" fill="#fff"/>
      <path id="Trazado_708" data-name="Trazado 708" d="M670.786,69.789H341.626c-1.666,0-3.027,1.64-3.027,3.643v31.132H671.588Z" transform="translate(-251.914 -65.378)" opacity="0.5" fill="url(#linear-gradient-3)"/>
      <path id="Trazado_709" data-name="Trazado 709" d="M385.517,88.5a4.616,4.616,0,1,1-4.617-4.616A4.614,4.614,0,0,1,385.517,88.5Z" transform="translate(-270.113 -72.183)" fill="#fff"/>
      <path id="Trazado_710" data-name="Trazado 710" d="M419.851,88.5a4.616,4.616,0,1,1-4.616-4.616A4.611,4.611,0,0,1,419.851,88.5Z" transform="translate(-286.693 -72.183)" fill="#fff"/>
      <path id="Trazado_711" data-name="Trazado 711" d="M454.186,88.5a4.615,4.615,0,1,1-4.611-4.616A4.61,4.61,0,0,1,454.186,88.5Z" transform="translate(-303.274 -72.183)" fill="#fff"/>
      <path id="Trazado_712" data-name="Trazado 712" d="M884.315,554.449l-97.592-2.321c-13.694,0-26.889-22.508-26.889-36.2l-25.878-7.264,41.435-23.73c5.408-3.1,14.5-3.02,19.871.168l29.086,17.329c5.962,3.546,16.136,4.621,22.691,2.39l18.231-6.184c5.99-2.03,15.8-1.311,21.433,1.579l21.171,10.87a7.624,7.624,0,0,1,1.125.763c.137.1.137,17.775.137,17.775A24.847,24.847,0,0,1,884.315,554.449Z" transform="translate(-442.832 -264.754)" opacity="0.5" fill="url(#linear-gradient-3)"/>
      <path id="Trazado_713" data-name="Trazado 713" d="M570.839,387.769l25.839-6.725a71.363,71.363,0,0,1,.148-19.413s8.613,44.8,15.185,60.965,14.882,34.219,26.29,33.615,17.676-6.8,24.476-7.78a22.537,22.537,0,0,1,11.557,1.167s11.511,11.993,15.879,27.887,4.919,20.359,4.381,35.92-2.233,33.39-2.233,33.39,9.2,4.108,17.566-5.279,9.115-16.2,8.641-22.828-.689-17.994-6.55-32.607-11.624-30.848-25.523-43.011c0,0-4.078-3.857-13.369-5.9s-18.737-7.551-21.834-18.131-1.512-22.585-1.206-31.273.072-28.554-8.918-37.7-23.419-7.025-30.368-4.306-14.049,5.89-14.049,5.89-18.358,2.421-22.889,14.056A48.023,48.023,0,0,0,570.839,387.769Z" transform="translate(-363.947 -197.52)" fill="#1a1a1a"/>
      <path id="Trazado_714" data-name="Trazado 714" d="M580.562,386.171l21.179-5.515a72.285,72.285,0,0,1,0-19.956s13.421,44.131,19.993,60.3,14.961,35.087,26.288,33.617c11.158-1.452,11.273-5,18.072-5.985a32.422,32.422,0,0,1,12.5.706s11.646,11.4,16.014,27.3,5.032,20.113,4.49,35.671-2.038,34.407-2.038,34.407,9.2,4.108,17.566-5.279,9.114-17.737,8.641-24.361-.689-16.46-6.55-31.074-10.848-27.963-22.291-39.745c0,0-5.777-6.914-13.823-8.689-9.291-2.052-20.835-6.5-24.708-19.415-3.157-10.558-.864-23.946-.565-32.636s-.3-25.87-9.291-35.013-18.925-7.889-28.1-5.552c-7.235,1.843-16.83,6.858-16.83,6.858s-12.992.672-17.525,12.309A48,48,0,0,0,580.562,386.171Z" transform="translate(-368.642 -197.436)" fill="#1a1a1a"/>
      <path id="Trazado_715" data-name="Trazado 715" d="M651.188,432.675l4.49,15.194s10.347.689,10.693-7.595-4.034-12.9-6.905-13.048S652.81,426.871,651.188,432.675Z" transform="translate(-402.864 -237.959)" fill="#fff"/>
      <path id="Trazado_716" data-name="Trazado 716" d="M578.372,439.967l1.01-1.058,2.582-.6,1.258.829,2.97,14.882-.72,1.358-2.872.646-1.47-.755Z" transform="translate(-367.701 -243.334)" fill="#fff"/>
      <path id="Trazado_717" data-name="Trazado 717" d="M649.83,551.673l11.147-10.734,4.738,5.231s-12.562,24.71-13.342,27.444Z" transform="translate(-402.208 -292.896)" fill="#fff"/>
      <path id="Trazado_718" data-name="Trazado 718" d="M472.269,655.315l3.342,1.742h3.175l25.562,6.727,3.384,22.531,143.036.807-7.126-21.945,2.272-38.006s2.052-25.608.807-34.223-5.465-26.36-12.124-35.311-7.745-10.168-7.745-10.168-7.163-2.364-12.2-.864-16.433,7.446-22.547,7.383c-8.02-.083-11.6-5.344-11.6-5.344s-15.71,24.138-17.407,41.247-2.492,28.668.794,46.91C563.986,637.711,472.269,655.315,472.269,655.315Z" transform="translate(-316.464 -295.391)" opacity="0.53" fill="url(#linear-gradient-5)"/>
      <path id="Trazado_719" data-name="Trazado 719" d="M381.016,763.586h73.307s4.381.6,3.666,3.258a8.946,8.946,0,0,1-2.416,4.128l6.679.017-1.228-10.564-26.3-6.716h-3.175s-17.828-6.74-24.945-7.379-10.774,3.042-12.431,4.348S381.016,763.586,381.016,763.586Z" transform="translate(-272.398 -392.043)" fill="#fff"/>
      <path id="Trazado_720" data-name="Trazado 720" d="M380.535,583.136c-17.671-.534-15.5-18.783-8.645-26.234,0,0,3.279-3.58.294-12.523s.3-18.484,11.631-19.677,16.993,9.54,15.5,16.7-2.087,9.243,0,16.1.894,26.238-18.781,25.641Z" transform="translate(-265.557 -285.011)" fill="#fff"/>
      <path id="Trazado_721" data-name="Trazado 721" d="M415.579,488.262c0,4.529-2.4,8.2-5.364,8.2s-5.366-3.67-5.366-8.2,2.4-8.2,5.366-8.2S415.579,483.739,415.579,488.262Z" transform="translate(-283.907 -263.5)" fill="#fff"/>
      <path id="Trazado_722" data-name="Trazado 722" d="M353.571,678.026H232.951L179.367,571.112a3.691,3.691,0,1,0-6.6,3.308l54.616,108.974a3.686,3.686,0,0,0,3.873,1.973c.425.039,122.316.039,122.316.039a3.691,3.691,0,1,0,0-7.381Z" transform="translate(-171.646 -306.482)" opacity="0.5" fill="url(#linear-gradient-2)"/>
      <path id="Trazado_723" data-name="Trazado 723" d="M376.678,678.223c-.347-1.616-2.22-9.657-4.87-9.657h-3.375l-4.069-7.152c-.334-.195-12.558-.195-12.558-.195H339.578c-.329.195-4.4,7.346-4.4,7.346h-3.369c-2.652,0-4.529,8.041-4.876,9.657a4.892,4.892,0,0,0,4.876,4.961h40a4.885,4.885,0,0,0,4.878-4.88A.235.235,0,0,0,376.678,678.223Z" transform="translate(-246.28 -350.979)" fill="#fff"/>
      <rect id="Rectángulo_53" data-name="Rectángulo 53" width="16.838" height="16.838" transform="translate(353.157 123.544)" opacity="0.5" fill="url(#linear-gradient-2)"/>
      <rect id="Rectángulo_54" data-name="Rectángulo 54" width="12.278" height="12.281" transform="translate(379.014 103.252)" opacity="0.5" fill="url(#linear-gradient-2)"/>
      <path id="Trazado_724" data-name="Trazado 724" d="M879.214,647.253s-2.68,20.636,36.8,39.121C916.774,686.374,903.865,659.606,879.214,647.253Z" transform="translate(-512.959 -344.235)" fill="#fff"/>
      <path id="Trazado_725" data-name="Trazado 725" d="M1027.744,673.8c-22.994,11.524-37.76,38.977-37.76,38.977C1030.319,694.345,1027.744,673.8,1027.744,673.8Z" transform="translate(-566.468 -357.055)" fill="#fff"/>
      <path id="Trazado_726" data-name="Trazado 726" d="M880.342,694.857c6.21,21.175,27.028,37.619,32.006,41.314l1.09.789C903.6,698.309,880.342,694.857,880.342,694.857Z" transform="translate(-513.522 -367.223)" fill="#fff"/>
      <path id="Trazado_727" data-name="Trazado 727" d="M937.576,621.121s-10.153,18.443,19.5,47.619C957.1,664.2,954.311,638.52,937.576,621.121Z" transform="translate(-540.35 -331.616)" fill="#fff"/>
      <path id="Trazado_728" data-name="Trazado 728" d="M908.159,552.286s-2.267,20.157,36.34,38.532l1.2.536C945.415,590.774,932.541,564.506,908.159,552.286Z" transform="translate(-526.943 -298.375)" fill="#fff"/>
      <path id="Trazado_729" data-name="Trazado 729" d="M955.828,513.816c.264,16.775,14.89,34.559,14.89,34.559C971.53,519.568,955.828,513.816,955.828,513.816Z" transform="translate(-549.974 -279.798)" fill="#fff"/>
      <path id="Trazado_730" data-name="Trazado 730" d="M1037.41,506.386c-21.249,10.65-33.75,31.973-36.8,37.66l-.173,1.18C1039.724,526.768,1037.41,506.386,1037.41,506.386Z" transform="translate(-571.516 -276.21)" fill="#fff"/>
      <path id="Trazado_731" data-name="Trazado 731" d="M1028.413,619.182c-22.889,11.469-35.636,35.331-37.346,38.689C1030.722,639.566,1028.413,619.182,1028.413,619.182Z" transform="translate(-566.991 -330.679)" fill="#fff"/>
      <path id="Trazado_732" data-name="Trazado 732" d="M1000.437,595.52c38.656-7.866,41.585-25.709,41.585-25.709C1019.735,575.149,1000.437,595.52,1000.437,595.52Z" transform="translate(-571.516 -306.838)" fill="#fff"/>
      <g id="Grupo_780" data-name="Grupo 780" transform="translate(365.479 226.094)">
        <g id="Grupo_762" data-name="Grupo 762" transform="translate(0 72.585)">
          <path id="Trazado_733" data-name="Trazado 733" d="M916.084,678.8c-40.577-18.56-38.4-39.073-38.284-39.94,25.639,11.764,38.81,38.628,38.94,38.9C916.57,678.674,916.335,678.8,916.084,678.8Zm-36.853-38.661c.17,4.4,3.024,21.345,35.453,36.822C911.66,671.373,899.5,650.779,879.231,640.142Z" transform="translate(-877.748 -638.862)" fill="#1a1a1a"/>
        </g>
        <g id="Grupo_763" data-name="Grupo 763" transform="translate(55.166 86.571)">
          <path id="Trazado_734" data-name="Trazado 734" d="M984.487,706.333c-1.1-1.417,13.9-28.935,36.831-40.424,1.157,1.417,3.236,21.838-36.522,40.357A.727.727,0,0,1,984.487,706.333Zm36.441-38.587c-18.885,9.976-32.132,30.85-35.538,36.626C1017.754,688.924,1020.732,672.136,1020.928,667.747Z" transform="translate(-984.431 -665.909)" fill="#1a1a1a"/>
        </g>
        <g id="Grupo_764" data-name="Grupo 764" transform="translate(2.733 98.704)">
          <path id="Trazado_735" data-name="Trazado 735" d="M916.829,732.11a9.723,9.723,0,0,1-1.52-.929c-6.016-4.464-26.1-20.652-32.276-41.7,1.042-.89,24.664,3.046,34.5,41.724C917.115,732.07,916.97,732.11,916.829,732.11ZM884.8,690.277c6.371,19.736,25.6,35.353,30.793,39.3C907.06,698.563,889.509,691.609,884.8,690.277Z" transform="translate(-883.033 -689.373)" fill="#1a1a1a"/>
        </g>
        <g id="Grupo_765" data-name="Grupo 765" transform="translate(25.638 63.1)">
          <path id="Trazado_736" data-name="Trazado 736" d="M949.26,669.216c-30.215-29.435-20.56-47.926-20.135-48.7,17.959,17.306,20.844,42.742,21.251,47.666C949.529,669.181,949.4,669.216,949.26,669.216ZM930,622.185c-1.465,4.056-5.226,20.641,18.794,44.812C948.068,660.112,944.651,638.037,930,622.185Z" transform="translate(-927.327 -620.519)" fill="#1a1a1a"/>
        </g>
        <g id="Grupo_766" data-name="Grupo 766" transform="translate(15.166 24.053)">
          <path id="Trazado_737" data-name="Trazado 737" d="M945.374,584.883a15.942,15.942,0,0,1-1.493-.6c-38.652-18.4-36.859-38.436-36.766-39.28,25.545,11.7,38.379,37.727,38.913,38.829C945.755,584.8,945.568,584.883,945.374,584.883Zm-36.805-38.6c.255,4.389,3.409,20.967,35.179,36.323C940.393,576.434,928.529,556.761,908.569,546.282Z" transform="translate(-907.078 -545.008)" fill="#1a1a1a"/>
        </g>
        <g id="Grupo_767" data-name="Grupo 767" transform="translate(40.124 4.48)">
          <path id="Trazado_738" data-name="Trazado 738" d="M970.962,542.452c-1.167-1-15.351-18.44-15.619-35.274,1.64-.456,17.163,5.56,16.613,34.254C971.374,542.361,971.174,542.452,970.962,542.452Zm-14.119-34.1c.763,13.39,10.467,27.335,13.667,31.6C970.5,517.758,960.18,510.214,956.843,508.354Z" transform="translate(-955.343 -507.155)" fill="#1a1a1a"/>
        </g>
        <g id="Grupo_768" data-name="Grupo 768" transform="translate(59.46)">
          <path id="Trazado_739" data-name="Trazado 739" d="M993.3,538.705a2.77,2.77,0,0,1-.546-2.013c3.408-6.448,15.927-27.542,37.2-38.2,1.145,1.422,2.961,21.679-36.34,40.146A.759.759,0,0,1,993.3,538.705Zm36.249-38.369c-19.723,10.349-31.585,29.764-35.164,36.319C1026.149,521.3,1029.3,504.722,1029.548,500.336Z" transform="translate(-992.735 -498.492)" fill="#1a1a1a"/>
        </g>
        <g id="Grupo_769" data-name="Grupo 769" transform="translate(55.536 58.325)">
          <path id="Trazado_740" data-name="Trazado 740" d="M985.147,651.506c.4-3.977,13.423-28.58,36.666-40.222,1.145,1.422,2.961,21.687-36.358,40.152A.7.7,0,0,1,985.147,651.506Zm36.262-38.379c-19.819,10.41-31.864,30.311-35.165,36.319C1018.012,634.094,1021.156,617.516,1021.409,613.126Z" transform="translate(-985.147 -611.284)" fill="#1a1a1a"/>
        </g>
        <g id="Grupo_770" data-name="Grupo 770" transform="translate(61.558 32.736)">
          <path id="Trazado_741" data-name="Trazado 741" d="M996.811,589.2c-.706-1.692,18.8-22.073,41.044-27.4.768,1.575-2.547,19.189-40.558,27.261A1.088,1.088,0,0,1,996.811,589.2Zm40.154-25.669c-17.961,4.775-33.933,19.263-38.617,23.809C1028.581,580.578,1035.53,567.464,1036.965,563.53Z" transform="translate(-996.792 -561.799)" fill="#1a1a1a"/>
        </g>
        <g id="Grupo_771" data-name="Grupo 771" transform="translate(45.797 38.753)">
          <path id="Trazado_742" data-name="Trazado 742" d="M967.043,688.265a.745.745,0,0,1-.723-.816l13.5-113.37a.7.7,0,0,1,.811-.637.733.733,0,0,1,.639.811l-13.5,113.367A.731.731,0,0,1,967.043,688.265Z" transform="translate(-966.314 -573.435)" fill="#1a1a1a"/>
        </g>
        <g id="Grupo_772" data-name="Grupo 772" transform="translate(37.607 111.069)">
          <path id="Trazado_743" data-name="Trazado 743" d="M953.1,755.8a.731.731,0,0,1-.728-.7l-1.9-41.055a.728.728,0,0,1,.693-.763.737.737,0,0,1,.763.693l1.9,41.055a.731.731,0,0,1-.7.765Z" transform="translate(-950.475 -713.284)" fill="#1a1a1a"/>
        </g>
        <g id="Grupo_773" data-name="Grupo 773" transform="translate(35.798 139.981)">
          <path id="Trazado_744" data-name="Trazado 744" d="M948.106,782.741a.732.732,0,0,1-.731-.7l-.4-12.086a.731.731,0,0,1,.7-.755.7.7,0,0,1,.754.7l.4,12.087a.73.73,0,0,1-.7.754Z" transform="translate(-946.976 -769.196)" fill="#1a1a1a"/>
        </g>
        <g id="Grupo_774" data-name="Grupo 774" transform="translate(52.594 125.469)">
          <path id="Trazado_745" data-name="Trazado 745" d="M980.186,769.189a.736.736,0,0,1-.728-.763l1.3-26.6a.73.73,0,0,1,1.459.07l-1.3,26.6A.73.73,0,0,1,980.186,769.189Z" transform="translate(-979.458 -741.132)" fill="#1a1a1a"/>
        </g>
        <g id="Grupo_775" data-name="Grupo 775" transform="translate(47.067 109.389)">
          <path id="Trazado_746" data-name="Trazado 746" d="M971.754,720.625c-.706-.556-2.964-9.681-2.964-9.681a.729.729,0,0,1,1.415-.347l2.255,9.125a.721.721,0,0,1-.532.881A.6.6,0,0,1,971.754,720.625Z" transform="translate(-968.768 -710.036)" fill="#1a1a1a"/>
        </g>
        <g id="Grupo_776" data-name="Grupo 776" transform="translate(51.702 96.937)">
          <path id="Trazado_747" data-name="Trazado 747" d="M978.455,693.054c-.68-.251-.833-.685-.654-1.049l2.754-5.643a.729.729,0,0,1,1.31.641l-2.754,5.644A.73.73,0,0,1,978.455,693.054Z" transform="translate(-977.732 -685.954)" fill="#1a1a1a"/>
        </g>
        <g id="Grupo_777" data-name="Grupo 777" transform="translate(52.73 62.47)">
          <path id="Trazado_748" data-name="Trazado 748" d="M981.922,637.789c-.728-.67-2.2-17.7-2.2-17.7a.735.735,0,0,1,.669-.789.833.833,0,0,1,.79.67L982.651,637a.733.733,0,0,1-.668.792Z" transform="translate(-979.72 -619.3)" fill="#1a1a1a"/>
        </g>
        <g id="Grupo_778" data-name="Grupo 778" transform="translate(55.016 38.315)">
          <path id="Trazado_749" data-name="Trazado 749" d="M987.345,587.452c-.715-.593-3.192-14-3.192-14a.726.726,0,0,1,.58-.85.706.706,0,0,1,.851.582l2.476,13.4a.725.725,0,0,1-.582.851A.694.694,0,0,1,987.345,587.452Z" transform="translate(-984.141 -572.589)" fill="#1a1a1a"/>
        </g>
        <g id="Grupo_779" data-name="Grupo 779" transform="translate(55.522 58.511)">
          <path id="Trazado_750" data-name="Trazado 750" d="M985.845,624.981c-.66-.216-.828-.645-.67-1.014l5.111-11.872a.707.707,0,0,1,.953-.382.719.719,0,0,1,.382.955l-5.108,11.871A.724.724,0,0,1,985.845,624.981Z" transform="translate(-985.119 -611.645)" fill="#1a1a1a"/>
        </g>
      </g>
      <g id="Grupo_802" data-name="Grupo 802" transform="translate(107.917 145.2)">
        <g id="Grupo_781" data-name="Grupo 781" transform="translate(102.308 43.194)">
          <path id="Trazado_751" data-name="Trazado 751" d="M579.688,433.188c-.962-2.867-2.137-6.611-2.146-6.646a.728.728,0,0,1,.471-.916.72.72,0,0,1,.916.473,41.861,41.861,0,0,1,1.482,6.282.726.726,0,0,1-.645.8A.494.494,0,0,1,579.688,433.188Z" transform="translate(-577.508 -425.586)" fill="#1a1a1a"/>
        </g>
        <g id="Grupo_782" data-name="Grupo 782" transform="translate(107.819 46.237)">
          <path id="Trazado_752" data-name="Trazado 752" d="M597.909,435.219c-4.265-4-8.449-1.511-8.633-1.4a.729.729,0,0,1-.767-1.241,8.135,8.135,0,0,1,9.922,1.4.729.729,0,0,1-.521,1.241Z" transform="translate(-588.166 -431.47)" fill="#1a1a1a"/>
        </g>
        <g id="Grupo_801" data-name="Grupo 801">
          <g id="Grupo_783" data-name="Grupo 783" transform="translate(139.819 43.185)">
            <path id="Trazado_753" data-name="Trazado 753" d="M656.872,447.822a15.428,15.428,0,0,1-1.762-.111.727.727,0,0,1-.637-.811.717.717,0,0,1,.811-.639c3.271.408,5.769-.355,7.494-2.233,2.235-2.433,2.656-6.321,2.074-9.093-.443-2.126-2.333-8.927-8.866-7.763-3.859.733-4.481,4.788-4.49,4.832a.7.7,0,0,1-.824.615.723.723,0,0,1-.615-.824,7.28,7.28,0,0,1,5.661-6.056c6.147-1.167,9.507,3.836,10.567,8.9.6,2.906.334,7.37-2.433,10.375A9.08,9.08,0,0,1,656.872,447.822Z" transform="translate(-650.05 -425.568)" fill="#1a1a1a"/>
          </g>
          <g id="Grupo_784" data-name="Grupo 784" transform="translate(142.911 47.369)">
            <path id="Trazado_754" data-name="Trazado 754" d="M663.186,445.87c-.194-.026-7.13-1.952-7.13-1.952-.434-1.069,4.679-9.891,4.679-9.891a.727.727,0,0,1,1.259.729l-4.636,8.009,6.025,1.672a.73.73,0,0,1-.2,1.433Z" transform="translate(-656.029 -433.659)" fill="#1a1a1a"/>
          </g>
          <g id="Grupo_785" data-name="Grupo 785" transform="translate(111.32 52.869)">
            <path id="Trazado_755" data-name="Trazado 755" d="M597.422,450.365a1.3,1.3,0,0,1-1.566-.937l-.881-3.526a1.292,1.292,0,1,1,2.508-.626l.881,3.526A1.3,1.3,0,0,1,597.422,450.365Z" transform="translate(-594.937 -444.295)" fill="#1a1a1a"/>
          </g>
          <g id="Grupo_786" data-name="Grupo 786" transform="translate(94.981 57.784)">
            <path id="Trazado_756" data-name="Trazado 756" d="M592.625,494.769a15.318,15.318,0,0,1-6.6-1.441c-9.247-4.359-11.986-17.072-12.505-20.03-4.555-.238-9.777-.876-10.181-2.53.061-.51,8.475-16.578,8.475-16.578a.73.73,0,0,1,1.293.678L564.9,470.535c.968.567,5.414,1.158,9.278,1.335.707.778,2.92,15.643,12.471,20.142,5.371,2.527,12.119,1.343,20.041-3.5a.728.728,0,0,1,.763,1.241C602,493.094,597.036,494.769,592.625,494.769Z" transform="translate(-563.339 -453.801)" fill="#1a1a1a"/>
          </g>
          <path id="Trazado_757" data-name="Trazado 757" d="M597.633,492.992c-.556-.325-6.581,4.666-9.466,4.88a7.663,7.663,0,0,0,1.442,4.424C592.41,500.288,598.165,493.3,597.633,492.992Z" transform="translate(-480.347 -414.934)" fill="#1a1a1a"/>
          <g id="Grupo_787" data-name="Grupo 787" transform="translate(102.049 48.998)">
            <path id="Trazado_758" data-name="Trazado 758" d="M581.875,456.086a2.04,2.04,0,0,1-2-1.659l-2.833-14.749a2.044,2.044,0,0,1,1.627-2.39l2.265-.438a2.009,2.009,0,0,1,2.394,1.626l2.828,14.743a2.043,2.043,0,0,1-.316,1.537,2,2,0,0,1-1.306.857l-2.27.434A1.979,1.979,0,0,1,581.875,456.086Zm-.558-17.813-2.372.445c-.469.687,2.364,15.434,2.364,15.434.681.465,2.953.031,2.953.031.464-.685-2.364-15.433-2.364-15.433A.585.585,0,0,0,581.317,438.274Z" transform="translate(-577.007 -436.809)" fill="#1a1a1a"/>
          </g>
          <g id="Grupo_788" data-name="Grupo 788" transform="translate(108.487 51.987)">
            <path id="Trazado_759" data-name="Trazado 759" d="M589.983,449.2c-.8-.961-.549-1.352-.159-1.439l23.014-5.152a.7.7,0,0,1,.872.55.73.73,0,0,1-.549.872l-23.016,5.153A.707.707,0,0,1,589.983,449.2Z" transform="translate(-589.457 -442.589)" fill="#1a1a1a"/>
          </g>
          <g id="Grupo_789" data-name="Grupo 789" transform="translate(136.294 107.872)">
            <path id="Trazado_760" data-name="Trazado 760" d="M649.415,651.541c-.881-1.027-19.723-55.433,13.053-100.576a.73.73,0,0,1,1.18.859c-32.328,44.522-13.737,98.209-13.545,98.743a.724.724,0,0,1-.443.931A.671.671,0,0,1,649.415,651.541Z" transform="translate(-643.232 -550.664)" fill="#1a1a1a"/>
          </g>
          <g id="Grupo_790" data-name="Grupo 790" transform="translate(201.304 106.15)">
            <path id="Trazado_761" data-name="Trazado 761" d="M793.833,687.812c-.7-.5-7.616-21.816-7.616-21.816,0-.877,3.639-61.074,3.639-63.069.022-24-12.381-48.552-20.59-54.269a.728.728,0,0,1-.183-1.014.738.738,0,0,1,1.016-.183c8.462,5.888,21.236,31.014,21.214,55.466,0,2.008-3.425,58.769-3.665,62.747l6.879,21.186a.733.733,0,0,1-.469.921A.725.725,0,0,1,793.833,687.812Z" transform="translate(-768.952 -547.333)" fill="#1a1a1a"/>
          </g>
          <g id="Grupo_791" data-name="Grupo 791" transform="translate(174.246 169.186)">
            <path id="Trazado_762" data-name="Trazado 762" d="M717.186,746.679c-.815-.892-.6-1.3-.22-1.422,10.866-3.432,15-5.674,18.022-7.309,3.367-1.666,11.954-6.454,20.231-19.18,2.566-3.945,7.83-22.318,8.94-48.833a.729.729,0,1,1,1.457.059c-1.036,24.742-5.995,44.687-9.174,49.572-8.484,13.038-17.372,17.991-19.892,19.2-3.938,2.13-8.147,4.411-19.141,7.883A.721.721,0,0,1,717.186,746.679Z" transform="translate(-716.627 -669.236)" fill="#1a1a1a"/>
          </g>
          <g id="Grupo_792" data-name="Grupo 792" transform="translate(79.986 150.673)">
            <path id="Trazado_763" data-name="Trazado 763" d="M537.729,729.391c-.727-.641-3.389-23.2-3.389-23.2.551-.794,88.621-22.647,88.621-22.647.359-17.518,1.16-50.113,1.16-50.113l1.457.035s-.82,33.565-1.171,50.876c-1.092.619-88.544,22.318-88.544,22.318l2.591,21.912a.729.729,0,0,1-.639.811A.613.613,0,0,1,537.729,729.391Z" transform="translate(-534.34 -633.435)" fill="#1a1a1a"/>
          </g>
          <g id="Grupo_793" data-name="Grupo 793" transform="translate(46.881 196.386)">
            <path id="Trazado_764" data-name="Trazado 764" d="M470.837,741c-.794-.988-.534-1.37-.14-1.444l92.21-17.7a.7.7,0,0,1,.853.578.723.723,0,0,1-.575.852l-92.21,17.7A.612.612,0,0,1,470.837,741Z" transform="translate(-470.32 -721.837)" fill="#1a1a1a"/>
          </g>
          <g id="Grupo_794" data-name="Grupo 794" transform="translate(124.455 17.547)">
            <path id="Trazado_765" data-name="Trazado 765" d="M663.054,472.755a14.243,14.243,0,0,1-6.555-1.592c-24.064-12.163-35.671-90.98-36.153-94.329a.723.723,0,0,1,.615-.824.7.7,0,0,1,.824.615c.118.811,11.982,81.414,35.375,93.239,6.145,3.1,11.677.632,18.088-2.231,6.55-2.928,13.983-6.242,22.915-3a.729.729,0,1,1-.495,1.371c-8.384-3.048-15.216.009-21.827,2.963C671.521,470.9,667.356,472.755,663.054,472.755Z" transform="translate(-620.338 -375.987)" fill="#1a1a1a"/>
          </g>
          <g id="Grupo_795" data-name="Grupo 795" transform="translate(98.004)">
            <path id="Trazado_766" data-name="Trazado 766" d="M696.256,547.663a12.709,12.709,0,0,1-4.889-.876.728.728,0,0,1,.619-1.317c.482.22,11.952,5.29,22.525-12.889,5.713-9.819,1.969-35.312-8.7-59.3-9.088-20.407-20.366-33.381-30.937-35.59-27.85-5.828-27.117-23.617-26.271-44.216.469-11.391.948-23.17-3.245-34.376-2.721-7.283-7.231-12.072-13.4-14.226-15.131-5.292-35.5,6.758-35.712,6.877-9.06,1.095-15.7,4.507-20.013,10.246-6.719,8.927-5.872,20.972-5.508,24.151l24.407-6.445c-1.271-6.7.438-18.929.512-19.468a.69.69,0,0,1,.828-.615.729.729,0,0,1,.62.824c-.022.131-1.873,13.377-.391,19.618a.734.734,0,0,1-.523.876L570.3,387.774c-1.012-1.2-3.371-15.837,4.767-26.655,4.542-6.034,11.463-9.629,20.569-10.7,1.991-1.167,21.528-12.264,36.805-6.928,6.6,2.311,11.4,7.387,14.286,15.1,4.3,11.48,3.805,23.41,3.332,34.947-.82,19.936-1.526,37.156,25.111,42.725,11.037,2.311,22.694,15.589,31.973,36.432,9.226,20.719,15.383,49.009,8.63,60.623C708.761,545.365,701.088,547.663,696.256,547.663Z" transform="translate(-569.185 -342.054)" fill="#1a1a1a"/>
          </g>
          <g id="Grupo_796" data-name="Grupo 796" transform="translate(19.42 215.745)">
            <path id="Trazado_767" data-name="Trazado 767" d="M417.814,770.6c-.829-.8-.666-1.232-.3-1.4,1.171-.515,28.785-12.712,37.486-9.342,8.365,3.23,23.493,6.267,23.645,6.3a.729.729,0,1,1-.285,1.43c-.153-.031-15.408-3.092-23.888-6.367-8.129-3.136-36.085,9.191-36.367,9.317A.7.7,0,0,1,417.814,770.6Z" transform="translate(-417.215 -759.274)" fill="#1a1a1a"/>
          </g>
          <g id="Grupo_797" data-name="Grupo 797" transform="translate(0 208.356)">
            <path id="Trazado_768" data-name="Trazado 768" d="M380.361,763.7c-.772-.42-.818-.881-.563-1.188.538-.658,13.242-16.083,21.943-17.385,8.633-1.319,29.188,6.989,30.061,7.34a.729.729,0,1,1-.547,1.352c-.207-.081-21.075-8.467-29.3-7.252-8.147,1.219-20.9,16.709-21.034,16.866A.723.723,0,0,1,380.361,763.7Z" transform="translate(-379.659 -744.986)" fill="#1a1a1a"/>
          </g>
          <g id="Grupo_798" data-name="Grupo 798" transform="translate(135.448 94.196)">
            <path id="Trazado_769" data-name="Trazado 769" d="M649.295,540.722c-.665-.421-7.632-15.469-7.632-15.469a.732.732,0,0,1,1.328-.615l6.967,15.048a.731.731,0,0,1-.356.971A.774.774,0,0,1,649.295,540.722Z" transform="translate(-641.596 -524.216)" fill="#1a1a1a"/>
          </g>
          <g id="Grupo_799" data-name="Grupo 799" transform="translate(138.938 101.883)">
            <path id="Trazado_770" data-name="Trazado 770" d="M651.656,573.445c-.726-.645-3.31-22.967-3.31-22.967.229-.617,11.668-11.2,11.668-11.2a.727.727,0,1,1,.99,1.066l-11.166,10.331,2.542,21.958a.727.727,0,0,1-.641.807A.551.551,0,0,1,651.656,573.445Z" transform="translate(-648.346 -539.082)" fill="#1a1a1a"/>
          </g>
          <g id="Grupo_800" data-name="Grupo 800" transform="translate(136.681 36.027)">
            <path id="Trazado_771" data-name="Trazado 771" d="M661.028,464.1c-10.532-21.524-17.211-50.945-17.045-51.783a.733.733,0,0,1,.854-.578c.733,2.595,7.289,30.876,16.851,51.323a.727.727,0,0,1-.351.969A.717.717,0,0,1,661.028,464.1Z" transform="translate(-643.98 -411.725)" fill="#1a1a1a"/>
          </g>
        </g>
      </g>
      <g id="Grupo_803" data-name="Grupo 803" transform="translate(6.725 378.218)">
        <path id="Trazado_772" data-name="Trazado 772" d="M184.7,806.113a.727.727,0,0,1-.729-.728V793.407a.727.727,0,0,1,.729-.728H365.869a.729.729,0,0,1,0,1.459H185.425v11.247A.726.726,0,0,1,184.7,806.113Z" transform="translate(-183.968 -792.679)" fill="#1a1a1a"/>
      </g>
      <g id="Grupo_804" data-name="Grupo 804" transform="translate(167.702 390.372)">
        <path id="Trazado_773" data-name="Trazado 773" d="M677.176,817.64H496a.728.728,0,1,1,0-1.456H677.176a.728.728,0,1,1,0,1.456Z" transform="translate(-495.275 -816.184)" fill="#1a1a1a"/>
      </g>
      <g id="Grupo_805" data-name="Grupo 805" transform="translate(0 261.881)">
        <path id="Trazado_774" data-name="Trazado 774" d="M230,685.477a4.386,4.386,0,0,1-3.951-2.421L171.432,574.083a4.429,4.429,0,0,1,1.967-5.935,4.506,4.506,0,0,1,5.938,1.976l53.381,106.508H352.888a4.421,4.421,0,0,1,0,8.841H231C230.454,685.46,230.23,685.477,230,685.477ZM175.372,569.138a2.959,2.959,0,0,0-2.638,4.294l54.615,108.974a3.024,3.024,0,0,0,3.109,1.579c.539.03,122.43.03,122.43.03a2.962,2.962,0,0,0,0-5.924H232.268c-.652-.4-54.233-107.316-54.233-107.316A2.964,2.964,0,0,0,175.372,569.138Z" transform="translate(-170.963 -567.699)" fill="#1a1a1a"/>
      </g>
      <g id="Grupo_808" data-name="Grupo 808" transform="translate(97.64 213.715)">
        <g id="Grupo_806" data-name="Grupo 806" transform="translate(0 20.183)">
          <path id="Trazado_775" data-name="Trazado 775" d="M375.09,573.577c-9.3-.268-12.763-4.355-14.184-7.739-2.754-6.548-.066-15.176,4.125-19.731.026-.026,2.922-3.448.137-11.8-1.764-5.305-1.352-10.562,1.137-14.426,2.279-3.531,6.116-5.678,11.11-6.2a17.513,17.513,0,0,1,1.79-.094,14.133,14.133,0,0,1,11.175,5.284,15.512,15.512,0,0,1,3.332,12.378c-1.516,7.218-1.962,9.352-.018,15.737,1.267,4.169,1.487,13.194-3.323,19.684C386.974,571.252,381.83,573.577,375.09,573.577Zm4.115-58.536a16.241,16.241,0,0,0-1.633.087c-4.542.478-8.014,2.395-10.039,5.543-2.246,3.493-2.606,8.294-.975,13.177,3.079,9.245-.3,13.087-.451,13.249-3.8,4.126-6.35,12.244-3.858,18.175,1.806,4.289,5.949,6.652,11.986,6.835,6.757.234,11.716-1.923,14.965-6.308,4.25-5.737,4.372-14.208,3.1-18.39-2.052-6.745-1.548-9.148-.2-15.574a14.411,14.411,0,0,0-2.85-12.049A12.553,12.553,0,0,0,379.2,515.041Z" transform="translate(-359.786 -513.584)" fill="#1a1a1a"/>
        </g>
        <g id="Grupo_807" data-name="Grupo 807" transform="translate(25.025)">
          <path id="Trazado_776" data-name="Trazado 776" d="M414.28,492.4c-3.423,0-6.1-3.92-6.1-8.925s2.676-8.927,6.1-8.927c3.361,0,6.094,4,6.094,8.927S417.64,492.4,414.28,492.4Zm0-16.4c-2.56,0-4.642,3.354-4.642,7.471s2.082,7.468,4.642,7.468c2.51,0,4.636-3.421,4.636-7.468S416.79,476.01,414.28,476.01Z" transform="translate(-408.181 -474.553)" fill="#1a1a1a"/>
        </g>
      </g>
      <g id="Grupo_809" data-name="Grupo 809" transform="translate(77.535 314.915)">
        <path id="Trazado_777" data-name="Trazado 777" d="M366.133,685.563h-40a5.23,5.23,0,0,1-5.225-5.227c.521-2.481,2.383-10.076,5.225-10.076h40c2.842,0,4.708,7.6,5.212,9.919A5.242,5.242,0,0,1,366.133,685.563Zm-40-13.846c-1.112,0-2.885,4.625-3.784,8.777a3.77,3.77,0,0,0,3.784,3.613h40a3.775,3.775,0,0,0,3.77-3.77c-.885-3.995-2.658-8.62-3.77-8.62Z" transform="translate(-320.905 -670.26)" fill="#1a1a1a"/>
      </g>
      <g id="Grupo_810" data-name="Grupo 810" transform="translate(82.514 328.759)">
        <path id="Trazado_778" data-name="Trazado 778" d="M336.782,740.544c-.727-.632-6.243-42.686-6.243-42.686a.733.733,0,0,1,.63-.82.7.7,0,0,1,.817.628l5.519,42.054a.731.731,0,0,1-.63.82A.746.746,0,0,1,336.782,740.544Z" transform="translate(-330.533 -697.031)" fill="#1a1a1a"/>
      </g>
      <g id="Grupo_811" data-name="Grupo 811" transform="translate(116.741 328.753)">
        <path id="Trazado_779" data-name="Trazado 779" d="M397.456,731.235a.749.749,0,0,1-.726-.824l4.3-32.749a.69.69,0,0,1,.82-.628.732.732,0,0,1,.628.82l-4.3,32.749A.728.728,0,0,1,397.456,731.235Z" transform="translate(-396.724 -697.021)" fill="#1a1a1a"/>
      </g>
      <g id="Grupo_812" data-name="Grupo 812" transform="translate(85.639 307.562)">
        <path id="Trazado_780" data-name="Trazado 780" d="M337.3,664.85c-.713-.294-.833-.737-.635-1.088l4.178-7.353c.632-.369,12.861-.369,12.861-.369a.729.729,0,0,1,0,1.459H341.9l-3.969,6.982A.721.721,0,0,1,337.3,664.85Z" transform="translate(-336.578 -656.041)" fill="#1a1a1a"/>
      </g>
      <g id="Grupo_813" data-name="Grupo 813" transform="translate(102.035 307.562)">
        <path id="Trazado_781" data-name="Trazado 781" d="M385.413,664.85c-.632-.369-4.6-7.351-4.6-7.351h-11.8a.729.729,0,0,1,0-1.459h12.224c.632.369,4.811,7.721,4.811,7.721a.728.728,0,0,1-.275.994A.71.71,0,0,1,385.413,664.85Z" transform="translate(-368.285 -656.041)" fill="#1a1a1a"/>
      </g>
      <g id="Grupo_815" data-name="Grupo 815" transform="translate(290.395 154.811)">
        <g id="Grupo_814" data-name="Grupo 814">
          <path id="Trazado_782" data-name="Trazado 782" d="M886.147,443.062c-.336-.077-16.691-8.476-16.691-8.476-2.985-1.535-12.362-2.25-18.292-.242l-17.54,5.955c-6.247,2.122-15.955,1.095-21.633-2.276L784,421.343c-5.31-3.157-14-3.236-19.363-.163l-17.1,9.758a.728.728,0,1,1-.72-1.265l17.093-9.76c5.765-3.3,15.113-3.223,20.835.181l27.989,16.674c5.366,3.184,14.518,4.156,20.418,2.152l17.54-5.955c5.988-2.03,15.846-1.511,19.429.321l16.359,8.4a.729.729,0,0,1-.334,1.379Zm8.275-7.351a.728.728,0,0,1-.728-.729V386.226a24.155,24.155,0,0,0-24.125-24.13H748.783a22.146,22.146,0,0,0-15.031,5.577.732.732,0,0,1-1.027-.074.723.723,0,0,1,.074-1.027,23.533,23.533,0,0,1,15.983-5.933H869.569a25.612,25.612,0,0,1,25.582,25.586v48.756A.729.729,0,0,1,894.422,435.711Zm-43.311-24.4a14.171,14.171,0,1,1,14.167-14.171A14.19,14.19,0,0,1,851.111,411.307Zm0-26.884a12.713,12.713,0,1,0,12.71,12.712A12.733,12.733,0,0,0,851.111,384.423Z" transform="translate(-732.546 -360.64)" fill="#1a1a1a"/>
        </g>
      </g>
      <g id="Grupo_816" data-name="Grupo 816" transform="translate(354.939 282.687)">
        <path id="Trazado_783" data-name="Trazado 783" d="M905.084,609.392h-46.99a.728.728,0,1,1,0-1.456h46.99a.728.728,0,1,1,0,1.456Z" transform="translate(-857.365 -607.936)" fill="#1a1a1a"/>
      </g>
      <g id="Grupo_819" data-name="Grupo 819" transform="translate(14.285 70.928)">
        <g id="Grupo_817" data-name="Grupo 817">
          <path id="Trazado_784" data-name="Trazado 784" d="M314.454,292.416H224.34a25.779,25.779,0,0,1-25.752-25.75v-42.49a25.78,25.78,0,0,1,25.752-25.754h90.115a25.781,25.781,0,0,1,25.752,25.754v42.49A25.779,25.779,0,0,1,314.454,292.416ZM224.34,199.882a24.324,24.324,0,0,0-24.293,24.3v42.49a24.32,24.32,0,0,0,24.293,24.291h90.115a24.321,24.321,0,0,0,24.3-24.291v-42.49a24.325,24.325,0,0,0-24.3-24.3Z" transform="translate(-198.588 -198.423)" fill="#1a1a1a"/>
        </g>
        <g id="Grupo_818" data-name="Grupo 818" transform="translate(53.861 21.777)">
          <path id="Trazado_785" data-name="Trazado 785" d="M307.712,290.983c-3.018,0-4.965-2.433-4.965-6.195V246.73c0-3.766,1.952-6.193,4.97-6.193a7.577,7.577,0,0,1,3.8,1.158l32.441,18.942c2.272,1.326,3.526,3.14,3.526,5.109s-1.249,3.783-3.521,5.114l-32.446,18.962A7.588,7.588,0,0,1,307.712,290.983Zm0-48.99c-2.168,0-3.513,1.811-3.513,4.736v38.059c0,2.919,1.346,4.736,3.509,4.736a6.283,6.283,0,0,0,3.068-.962l32.443-18.96c1.81-1.06,2.8-2.431,2.8-3.858s-1-2.8-2.808-3.851l-32.439-18.942A6.236,6.236,0,0,0,307.717,241.994Z" transform="translate(-302.747 -240.537)" fill="#1a1a1a"/>
        </g>
      </g>
      <g id="Grupo_820" data-name="Grupo 820" transform="translate(78.004 0)">
        <path id="Trazado_786" data-name="Trazado 786" d="M322.54,126.528a.73.73,0,0,1-.728-.731V61.987a.729.729,0,0,1,.728-.729H652.451a.729.729,0,0,1,0,1.459H323.271V125.8A.731.731,0,0,1,322.54,126.528Z" transform="translate(-321.812 -61.258)" fill="#1a1a1a"/>
      </g>
      <g id="Grupo_821" data-name="Grupo 821" transform="translate(78.004 170.478)">
        <path id="Trazado_787" data-name="Trazado 787" d="M340.863,469.561H322.54a.728.728,0,0,1-.728-.728V391.667a.729.729,0,0,1,1.459,0V468.1h17.592a.728.728,0,1,1,0,1.457Z" transform="translate(-321.812 -390.938)" fill="#1a1a1a"/>
      </g>
      <g id="Grupo_822" data-name="Grupo 822" transform="translate(135.609 247.644)">
        <path id="Trazado_788" data-name="Trazado 788" d="M533.657,541.624H433.94a.728.728,0,0,1,0-1.457h99.717a.728.728,0,1,1,0,1.457Z" transform="translate(-433.212 -540.167)" fill="#1a1a1a"/>
      </g>
      <g id="Grupo_823" data-name="Grupo 823" transform="translate(407.914 0)">
        <path id="Trazado_789" data-name="Trazado 789" d="M960.541,209.549a.727.727,0,0,1-.728-.729V61.987a.728.728,0,1,1,1.457,0V208.82A.727.727,0,0,1,960.541,209.549Z" transform="translate(-959.813 -61.258)" fill="#1a1a1a"/>
      </g>
      <g id="Grupo_824" data-name="Grupo 824" transform="translate(78.004 25.471)">
        <path id="Trazado_790" data-name="Trazado 790" d="M652.451,111.974H322.54a.729.729,0,0,1,0-1.459H652.451a.729.729,0,0,1,0,1.459Z" transform="translate(-321.812 -110.515)" fill="#1a1a1a"/>
      </g>
      <g id="Grupo_825" data-name="Grupo 825" transform="translate(168.391 25.471)">
        <path id="Trazado_791" data-name="Trazado 791" d="M497.338,334.145a.728.728,0,0,1-.73-.728V111.243a.729.729,0,0,1,1.459,0V333.417A.728.728,0,0,1,497.338,334.145Z" transform="translate(-496.608 -110.515)" fill="#1a1a1a"/>
      </g>
      <g id="Grupo_829" data-name="Grupo 829" transform="translate(187.634 54.69)">
        <g id="Grupo_826" data-name="Grupo 826">
          <path id="Trazado_792" data-name="Trazado 792" d="M593.2,168.477H534.549a.728.728,0,1,1,0-1.456H593.2a.728.728,0,0,1,0,1.456Z" transform="translate(-533.821 -167.021)" fill="#1a1a1a"/>
        </g>
        <g id="Grupo_827" data-name="Grupo 827" transform="translate(0 10.287)">
          <path id="Trazado_793" data-name="Trazado 793" d="M593.2,188.374H534.549a.73.73,0,0,1,0-1.459H593.2a.73.73,0,0,1,0,1.459Z" transform="translate(-533.821 -186.915)" fill="#1a1a1a"/>
        </g>
        <g id="Grupo_828" data-name="Grupo 828" transform="translate(0 20.196)">
          <path id="Trazado_794" data-name="Trazado 794" d="M593.2,207.534H534.549a.728.728,0,0,1,0-1.457H593.2a.728.728,0,0,1,0,1.457Z" transform="translate(-533.821 -206.077)" fill="#1a1a1a"/>
        </g>
      </g>
      <g id="Grupo_833" data-name="Grupo 833" transform="translate(187.634 96.752)">
        <g id="Grupo_830" data-name="Grupo 830" transform="translate(0 0)">
          <path id="Trazado_795" data-name="Trazado 795" d="M593.2,249.82H534.549a.728.728,0,0,1,0-1.457H593.2a.728.728,0,0,1,0,1.457Z" transform="translate(-533.821 -248.363)" fill="#1a1a1a"/>
        </g>
        <g id="Grupo_831" data-name="Grupo 831" transform="translate(0 10.284)">
          <path id="Trazado_796" data-name="Trazado 796" d="M593.2,269.708H534.549a.729.729,0,0,1,0-1.458H593.2a.729.729,0,0,1,0,1.458Z" transform="translate(-533.821 -268.25)" fill="#1a1a1a"/>
        </g>
        <g id="Grupo_832" data-name="Grupo 832" transform="translate(0 20.196)">
          <path id="Trazado_797" data-name="Trazado 797" d="M593.2,288.876H534.549a.728.728,0,0,1,0-1.457H593.2a.728.728,0,0,1,0,1.457Z" transform="translate(-533.821 -287.419)" fill="#1a1a1a"/>
        </g>
      </g>
      <g id="Grupo_837" data-name="Grupo 837" transform="translate(271.357 53.766)">
        <g id="Grupo_834" data-name="Grupo 834">
          <path id="Trazado_798" data-name="Trazado 798" d="M755.112,166.689H696.461a.728.728,0,1,1,0-1.456h58.652a.728.728,0,1,1,0,1.456Z" transform="translate(-695.73 -165.233)" fill="#1a1a1a"/>
        </g>
        <g id="Grupo_835" data-name="Grupo 835" transform="translate(0 10.29)">
          <path id="Trazado_799" data-name="Trazado 799" d="M755.112,186.589H696.461a.728.728,0,1,1,0-1.457h58.652a.728.728,0,1,1,0,1.457Z" transform="translate(-695.73 -185.132)" fill="#1a1a1a"/>
        </g>
        <g id="Grupo_836" data-name="Grupo 836" transform="translate(0 20.196)">
          <path id="Trazado_800" data-name="Trazado 800" d="M754.994,205.746H696.461a.728.728,0,1,1,0-1.457h58.534a.728.728,0,1,1,0,1.457Z" transform="translate(-695.73 -204.289)" fill="#1a1a1a"/>
        </g>
      </g>
      <g id="Grupo_841" data-name="Grupo 841" transform="translate(270.511 95.827)">
        <g id="Grupo_838" data-name="Grupo 838">
          <path id="Trazado_801" data-name="Trazado 801" d="M754.322,248.032h-59.5a.728.728,0,0,1,0-1.457h59.5a.728.728,0,1,1,0,1.457Z" transform="translate(-694.094 -246.575)" fill="#1a1a1a"/>
        </g>
        <g id="Grupo_839" data-name="Grupo 839" transform="translate(0.846 10.288)">
          <path id="Trazado_802" data-name="Trazado 802" d="M755.112,267.929H696.461a.729.729,0,1,1,0-1.459h58.652a.729.729,0,0,1,0,1.459Z" transform="translate(-695.73 -266.47)" fill="#1a1a1a"/>
        </g>
        <g id="Grupo_840" data-name="Grupo 840" transform="translate(0.846 20.196)">
          <path id="Trazado_803" data-name="Trazado 803" d="M755.112,287.088H696.461a.728.728,0,1,1,0-1.457h58.652a.728.728,0,1,1,0,1.457Z" transform="translate(-695.73 -285.631)" fill="#1a1a1a"/>
        </g>
      </g>
      <g id="Grupo_842" data-name="Grupo 842" transform="translate(378.589 80.56)">
        <path id="Trazado_804" data-name="Trazado 804" d="M920.022,234.7H903.829a.727.727,0,0,1-.728-.728V217.777a.727.727,0,0,1,.728-.728h16.193a.726.726,0,0,1,.728.728V233.97A.726.726,0,0,1,920.022,234.7Zm-15.465-1.457h14.734V218.506H904.557Z" transform="translate(-903.101 -217.049)" fill="#1a1a1a"/>
      </g>
      <g id="Grupo_843" data-name="Grupo 843" transform="translate(347.547 120.505)">
        <path id="Trazado_805" data-name="Trazado 805" d="M865.518,317.471H843.8a.728.728,0,0,1-.731-.728V295.025a.728.728,0,0,1,.731-.728h21.718a.727.727,0,0,1,.729.728v21.718A.727.727,0,0,1,865.518,317.471Zm-20.99-1.457H864.79V295.754H844.529Z" transform="translate(-843.07 -294.297)" fill="#1a1a1a"/>
      </g>
      <g id="Grupo_844" data-name="Grupo 844" transform="translate(374.186 378.218)">
        <path id="Trazado_806" data-name="Trazado 806" d="M978.991,794.138H895.315a.729.729,0,0,1,0-1.459h83.676a.729.729,0,1,1,0,1.459Z" transform="translate(-894.587 -792.679)" fill="#1a1a1a"/>
      </g>
    </g>
    <g id="Grupo_852" data-name="Grupo 852" transform="translate(593.232 166.028)">
      <g id="Grupo_848" data-name="Grupo 848" transform="translate(0 0.28)">
        <g id="Grupo_846" data-name="Grupo 846" transform="translate(3.521)">
          <path id="Trazado_807" data-name="Trazado 807" d="M1003.69,307.868a1.849,1.849,0,0,1-1.645-1l-7.459-14.509a1.849,1.849,0,1,1,3.287-1.692l7.459,14.509a1.85,1.85,0,0,1-1.642,2.7Z" transform="translate(-994.381 -289.659)" fill="#b3b3b3"/>
        </g>
        <g id="Grupo_847" data-name="Grupo 847" transform="translate(0 3.524)">
          <path id="Trazado_808" data-name="Trazado 808" d="M989.422,307.636a1.85,1.85,0,0,1-.848-3.495l14.5-7.463a1.849,1.849,0,0,1,1.692,3.289l-14.5,7.463A1.836,1.836,0,0,1,989.422,307.636Z" transform="translate(-987.572 -296.474)" fill="#b3b3b3"/>
        </g>
      </g>
      <g id="Grupo_851" data-name="Grupo 851" transform="translate(2.325)">
        <g id="Grupo_849" data-name="Grupo 849" transform="translate(3.521)">
          <path id="Trazado_809" data-name="Trazado 809" d="M1008.186,307.327a1.849,1.849,0,0,1-1.646-1l-7.459-14.509a1.849,1.849,0,1,1,3.287-1.693l7.459,14.509a1.85,1.85,0,0,1-1.642,2.7Z" transform="translate(-998.877 -289.118)" fill="#303030"/>
        </g>
        <g id="Grupo_850" data-name="Grupo 850" transform="translate(0 3.524)">
          <path id="Trazado_810" data-name="Trazado 810" d="M993.918,307.095a1.85,1.85,0,0,1-.847-3.495l14.5-7.463a1.849,1.849,0,0,1,1.691,3.289l-14.5,7.463A1.837,1.837,0,0,1,993.918,307.095Z" transform="translate(-992.068 -295.933)" fill="#303030"/>
        </g>
      </g>
    </g>
  </g>
</svg>
