<svg xmlns="http://www.w3.org/2000/svg" xmlns:xlink="http://www.w3.org/1999/xlink" width="429.211" height="416.931" viewBox="0 0 429.211 416.931">
  <defs>
    <linearGradient id="linear-gradient" x1="0.5" x2="0.5" y2="1" gradientUnits="objectBoundingBox">
      <stop offset="0" stop-color="#b311c4"/>
      <stop offset="1" stop-color="#d2001e"/>
    </linearGradient>
    <linearGradient id="linear-gradient-2" x1="0.5" x2="0.5" y2="1" gradientUnits="objectBoundingBox">
      <stop offset="0" stop-color="#3e65b9"/>
      <stop offset="0.301" stop-color="#4476cf"/>
      <stop offset="0.691" stop-color="#4a88e6"/>
      <stop offset="0.935" stop-color="#4d8fef"/>
    </linearGradient>
    <linearGradient id="linear-gradient-3" x1="0.5" x2="0.5" y2="1" gradientUnits="objectBoundingBox">
      <stop offset="0" stop-color="#ff5a08"/>
      <stop offset="1" stop-color="#ffbe06"/>
    </linearGradient>
  </defs>
  <g id="Grupo_1258" data-name="Grupo 1258" transform="translate(-674.465 -4158.931)">
    <g id="Grupo_1254" data-name="Grupo 1254" transform="translate(650.583 3988.49)">
      <g id="Grupo_601" data-name="Grupo 601">
        <g id="Grupo_599" data-name="Grupo 599">
          <path id="Trazado_483" data-name="Trazado 483" d="M42.056,356.267a2.619,2.619,0,0,1-2.331-1.421L29.16,334.294a2.619,2.619,0,1,1,4.657-2.4l10.565,20.552a2.619,2.619,0,0,1-2.326,3.818Z" fill="#b3b3b3"/>
        </g>
        <g id="Grupo_600" data-name="Grupo 600">
          <path id="Trazado_484" data-name="Trazado 484" d="M26.5,351.277a2.62,2.62,0,0,1-1.2-4.95l20.54-10.571a2.62,2.62,0,0,1,2.4,4.66L27.7,350.987A2.612,2.612,0,0,1,26.5,351.277Z" fill="#b3b3b3"/>
        </g>
      </g>
      <g id="Grupo_604" data-name="Grupo 604">
        <g id="Grupo_602" data-name="Grupo 602">
          <path id="Trazado_485" data-name="Trazado 485" d="M45.349,355.871a2.621,2.621,0,0,1-2.331-1.421L32.453,333.9a2.619,2.619,0,1,1,4.657-2.4l10.565,20.551a2.619,2.619,0,0,1-2.326,3.819Z" fill="#303030"/>
        </g>
        <g id="Grupo_603" data-name="Grupo 603">
          <path id="Trazado_486" data-name="Trazado 486" d="M29.8,350.881a2.621,2.621,0,0,1-1.2-4.95l20.54-10.571a2.62,2.62,0,0,1,2.4,4.659L30.992,350.59A2.6,2.6,0,0,1,29.8,350.881Z" fill="#303030"/>
        </g>
      </g>
    </g>
    <g id="Grupo_1252" data-name="Grupo 1252" transform="translate(-2496.967 3879.282)">
      <path id="Trazado_1197" data-name="Trazado 1197" d="M3238.04,287.4s-29.667,61.409,1.966,88.522,57.789,6.7,59.886,4.66,17.248-6.517,35.634-53.561c0,0-21.707-1.9-51.779-14.73S3238.04,287.4,3238.04,287.4Z" transform="translate(28.209 9.743)" opacity="0.3" fill="url(#linear-gradient)"/>
      <path id="Trazado_1198" data-name="Trazado 1198" d="M3341.344,448.16s9.386-11.594,13.27-21.738,8.561-31,8.561-31l45.117,20.055s5.045,18.1-15.237,46.058-21.181,26.24-21.181,26.24l-21.166-9.355Z" transform="translate(173.862 145.465)" opacity="0.3" fill="url(#linear-gradient-2)"/>
      <g id="Grupo_1168" data-name="Grupo 1168" transform="translate(3260.324 306.476)">
        <path id="Trazado_1199" data-name="Trazado 1199" d="M3233.454,291.538l9.109,5.055s-1.32,2.629-3,7.076l-8.9-4.662C3231.462,296.554,3232.385,294.063,3233.454,291.538Z" transform="translate(-3225.524 -291.538)" fill="#fff"/>
        <path id="Trazado_1200" data-name="Trazado 1200" d="M3238.152,359.051s-16.818-21.9-6.314-61.576l8.994,3.231C3236.295,314.4,3229.036,337.482,3238.152,359.051Z" transform="translate(-3228.386 -284.078)" fill="#fff"/>
      </g>
      <path id="Trazado_1201" data-name="Trazado 1201" d="M3288.3,366.832l-.46,19.053s.573,22.239,17.135,24.388l-.147,9.093s8.509,4.621,20.48,1.333c0,0-4.807-10.316-.33-19.676s9.008-14.2,9.008-14.2,10.745,5.677,12.374-7.464-11.172-10.441-11.172-10.441l-2.708,2.45s-22,2.083-32.4-24.9C3300.085,346.474,3290.781,347.162,3288.3,366.832Z" transform="translate(106.637 83.962)" fill="#fff"/>
      <path id="Trazado_1202" data-name="Trazado 1202" d="M3351.429,448.442l.105,11.088s.183,5.892-3.673,6.959-9.538,2.509-8.946,5.167c1.058,4.784,8.344,3.256,10.74,2.107a56.455,56.455,0,0,0,6.591-4.274s1.48,11.706,3.958,15.175,6.433,1.731,7.844-.356a7.591,7.591,0,0,0,5.44,1.575,6.608,6.608,0,0,0,4.443-3.382s1.675,2.376,4.037,2.085,3.741-4,3.741-4-.085-14.288-1.094-18.832-1.884-3.549-1.884-3.549l-6.029-.875-3.107-11.072Z" transform="translate(170.756 209.336)" fill="#fff"/>
      <path id="Trazado_1203" data-name="Trazado 1203" d="M3336.3,428.079l-86.665,30.442s-.465,21.711,6.35,34.023l164.53-.282s.8-35.489-16.928-56.9c0,0-25.351,1.523-38.3.165S3341.243,432.432,3336.3,428.079Z" transform="translate(58.628 186.493)" fill="#1a1a1a"/>
      <path id="Trazado_1204" data-name="Trazado 1204" d="M3332.247,377.5s-19.458-1.352-28.617-26.518c0,0-12.162-.052-15.6,20.725,0,0,.067-11.1,10.571-23.661,1.092-1.306,3.258-3.6,4.819-4.269,6.953-2.956,13.993-2.626,29.189-.677,13.018,1.67,23.28,9.491,24.778,22.413l-7.935,45.034s-.091,1.958,7.238,7.1,12.112,11.763,5.415,22.118l-8.547-4.626s-16.327,8.782-24.127-9.716c0,0-4.13-7.683.2-18.135s8.408-13.141,8.408-13.141a6.726,6.726,0,0,0,5.388-1.862c1.715-1.67,2.848-3.768,2.8-9.037-.063-6.523-3.939-8.527-6.722-8.71S3334.639,375.073,3332.247,377.5Z" transform="translate(106.87 77.832)" fill="#294859"/>
      <path id="Trazado_1205" data-name="Trazado 1205" d="M3292.447,370.719s1.154,6.471,12.907,9.091l-.147,9.094s-5.3,3.062-6.756,6.9a10.427,10.427,0,0,1-9.3-5.287C3286.494,385.727,3286.808,376.3,3292.447,370.719Z" transform="translate(106.258 114.424)" fill="#294859"/>
      <path id="Trazado_1206" data-name="Trazado 1206" d="M3237.928,349.627c-.44.609,2.387,7.518,2.387,7.518l5.86,2.821-2.865-9.908h-5.237Z" transform="translate(43.869 87.923)" fill="#3a3a3a"/>
      <path id="Trazado_1207" data-name="Trazado 1207" d="M3230.11,361.543s23.153,8.814,31.653,5.1l1.932-4.213s13.128,24.069,31.672,32.226,27.425,13.042,61.668,8.356c0,0,5.6,6.226,13.394,5.05,0,0,.429,4.517,2.6,6.995,0,0-1.266,30.8,9.951,31.987S3401.071,418,3401.071,418s5.9-4.192,6.357-7.128c0,0,9.458,3.024,18.893-.792,0,0,24.085,11.122,42.428,32.73s31.847,50.9,36.022,68.065,7.938,41.589,7.938,41.589l-25.527,2.507s-13.7-37.4-28.456-61.42c-15.348-24.972-29.272-31.358-29.272-31.358s-3.345,42.18-1.392,55.964a172.23,172.23,0,0,1-40.219.76c-20.615-2.293-27.016-7.236-27.016-7.236s-10.443-18.932-13.992-32.574a163.767,163.767,0,0,1-4.459-25.974s-30.76-2.471-57.124-17.936-43.5-38.978-48.922-54.779S3230.11,361.543,3230.11,361.543Z" transform="translate(34.104 102.895)" fill="#fff"/>
      <path id="Trazado_1290" data-name="Trazado 1290" d="M3230.11,361.543s23.153,8.814,31.653,5.1l1.932-4.213s13.128,24.069,31.672,32.226,27.425,13.042,61.668,8.356c0,0,5.6,6.226,13.394,5.05,0,0,.429,4.517,2.6,6.995,0,0-1.266,30.8,9.951,31.987S3401.071,418,3401.071,418s5.9-4.192,6.357-7.128c0,0,9.458,3.024,18.893-.792,0,0,24.085,11.122,42.428,32.73s31.847,50.9,36.022,68.065,7.938,41.589,7.938,41.589l-25.527,2.507s-13.7-37.4-28.456-61.42c-15.348-24.972-29.272-31.358-29.272-31.358s-3.345,42.18-1.392,55.964a172.23,172.23,0,0,1-40.219.76c-20.615-2.293-27.016-7.236-27.016-7.236s-10.443-18.932-13.992-32.574a163.767,163.767,0,0,1-4.459-25.974s-30.76-2.471-57.124-17.936-43.5-38.978-48.922-54.779S3230.11,361.543,3230.11,361.543Z" transform="translate(34.104 102.895)" opacity="0.41" fill="url(#linear-gradient-3)"/>
      <path id="Trazado_1208" data-name="Trazado 1208" d="M3283.1,400.092s-32.922,13.128-48.583,13.026c0,0-.712,34.16-8.058,48.922-4.265,8.577-19.588,21.72-19.588,21.72,5.178-.088,23.819-1.413,45.6-17.219,24.848-18.027,28.316-26.662,28.316-26.662S3288.668,421,3283.1,400.092Z" transform="translate(4.909 151.329)" fill="#fff"/>
      <path id="Trazado_1209" data-name="Trazado 1209" d="M3334.491,348.664l38.035-40.332s4.393,23.517,20.371,38.966a158.735,158.735,0,0,0,31.6,23.805l-33.884,35.9s-20.513-3.281-37.64-28.641S3334.491,348.664,3334.491,348.664Z" transform="translate(165.252 36.039)" opacity="0.35" fill="url(#linear-gradient-2)"/>
      <g id="Grupo_1170" data-name="Grupo 1170" transform="translate(3330.025 339.583)">
        <g id="Grupo_1169" data-name="Grupo 1169">
          <path id="Trazado_1210" data-name="Trazado 1210" d="M3272.393,342.732c7.81-2.843,16.867-6.329,24.184-11.7a29.873,29.873,0,0,0,4.9-4.289,9.168,9.168,0,0,0,2.545-6.431c-.1-1.778-.5-2.7-2.265-3.373a15.548,15.548,0,0,0-10.012-.176c-1.313.363-4.637,1.029-4.637,1.029l4.567-10.838c4.043-.855,7.511-1.223,11.625.287.063.02,1.189.178,1.252.2a13.922,13.922,0,0,1,9.114,12.32,19.253,19.253,0,0,1-5.1,13.489,33.67,33.67,0,0,1-6.033,5.348c-10.714,7.866-24.688,12.458-33.592,15.026-2.218.639-6.95,1.67-9.662,2.232Z" transform="translate(-3259.276 -306.21)" fill="#fff"/>
        </g>
      </g>
      <g id="Grupo_1172" data-name="Grupo 1172" transform="translate(3234.52 291.37)">
        <g id="Grupo_1171" data-name="Grupo 1171">
          <path id="Trazado_1211" data-name="Trazado 1211" d="M3236.667,352.335c-1.591-2.268-4.518-6.69-5.7-8.676-4.729-7.97-10.852-20.556-13.268-33.628a33.924,33.924,0,0,1-.731-8.026,19.255,19.255,0,0,1,5.528-13.322,13.926,13.926,0,0,1,15.08-2.73c.061.025.988.681,1.05.708,4.03,1.724,6.3,4.366,8.662,7.758l-4.1,11.025s-1.965-2.762-2.674-3.931a15.71,15.71,0,0,0-6.735-6.5c-2.421-.943-3.349-.548-4.64.677a9.16,9.16,0,0,0-2.552,6.431,29.811,29.811,0,0,0,.627,6.478c1.649,8.924,5.537,17.027,9.276,24.449Z" transform="translate(-3216.95 -284.843)" fill="#fff"/>
        </g>
      </g>
      <path id="Trazado_1212" data-name="Trazado 1212" d="M3231.743,475.593s.346-12.462,12.772-20.852,27.594-13.171,27.594-13.171-.763,21.113,7.066,34.023Z" transform="translate(36.155 203.444)" fill="#fff"/>
      <path id="Trazado_1213" data-name="Trazado 1213" d="M3227.728,369.538s10.213-13.41,11.531-13.593,11.8,2.649,13.277,2.985a4.672,4.672,0,0,0,4.795-5.684c1.776-.927,3.861-5.427,3.786-6.413,1.855-.386,2.832-3.421,3.554-5.023a13.178,13.178,0,0,0-4.56-3.94c-2.259-1.34-10.339-4.443-10.339-4.443s13.049.447,12.9-6.072c0,0-10.335-3.394-12.549-3.389s-8.507,3.418-14.841,13.243-9.439,13.7-9.581,20.8A27.158,27.158,0,0,0,3227.728,369.538Z" transform="translate(28.555 55.683)" fill="#fff"/>
      <path id="Trazado_1214" data-name="Trazado 1214" d="M3241.269,340.782s-3.969,9.784-3.491,15.086l.476,5.3h3.617Z" transform="translate(43.686 76.81)" fill="#fff"/>
      <path id="Trazado_1215" data-name="Trazado 1215" d="M3323.388,319.592c-1.079,2.55-21.05-2.949-45.564-13.333S3234,286.03,3235.076,283.482s22.147,3.164,46.661,13.545S3324.469,317.045,3323.388,319.592Z" transform="translate(40.289 4.058)" fill="#1a1a1a"/>
      <path id="Trazado_1216" data-name="Trazado 1216" d="M3233.157,281.068s-1.331,10.52,51.964,32.118,55.684,11.106,55.684,11.106l-3.511,8.559s-4.619,9.8-58.43-12.6c-50.808-21.143-49.556-30.764-49.556-30.764Z" transform="translate(33.092 1.783)" fill="#fff"/>
      <path id="Trazado_1217" data-name="Trazado 1217" d="M3216.681,347.915l-4.224,9.459s10.671,10.522,33.463,18.9,30.845,9.955,38.023,7.5l4.1-9.565s-13.977,5.878-46.476-11.192C3215.95,349.551,3216.681,347.915,3216.681,347.915Z" transform="translate(11.924 85.772)" fill="#1a1a1a"/>
      <path id="Trazado_1218" data-name="Trazado 1218" d="M3249.6,346.3s-11.937,30.419-26.92,29.548c0,0,16.671,8.7,27.761,11.354s15.053,3.61,18.6,1.821c0,0-13.038-8.59-12.394-21.684.952-19.437,12.8-34.307,12.8-34.307l-2.45-.584s-7.1,14.272-10.582,14.687A16.405,16.405,0,0,1,3249.6,346.3Z" transform="translate(24.771 66.344)" fill="#fff"/>
      <path id="Trazado_1219" data-name="Trazado 1219" d="M3309.63,366.543s-1.5-3.067-3.635-1.938-1.65,4.887-4.154,5.025-6.751-1.81-7.76,0,1.033,6.891,8.746,6.751c0,0-1.473-3.881.406-6.011S3309.63,366.543,3309.63,366.543Z" transform="translate(114.177 106.429)" fill="#3a3a3a"/>
      <g id="Grupo_1176" data-name="Grupo 1176" transform="translate(3411.776 366.759)">
        <g id="Grupo_1173" data-name="Grupo 1173" transform="translate(8.549 10.526)">
          <path id="Trazado_1220" data-name="Trazado 1220" d="M3299.932,331.414c-.74-.458-.74-.885-.478-1.149l7.153-7.151a.674.674,0,0,1,.952.954l-7.15,7.151A.684.684,0,0,1,3299.932,331.414Z" transform="translate(-3299.294 -322.919)" fill="#1a1a1a"/>
        </g>
        <g id="Grupo_1174" data-name="Grupo 1174" transform="translate(8.511 10.526)">
          <path id="Trazado_1221" data-name="Trazado 1221" d="M3307.1,331.414c-.476-.194-7.629-7.345-7.629-7.345a.675.675,0,0,1,.955-.954l7.15,7.151a.674.674,0,0,1,0,.954A.685.685,0,0,1,3307.1,331.414Z" transform="translate(-3299.278 -322.919)" fill="#1a1a1a"/>
        </g>
        <g id="Grupo_1175" data-name="Grupo 1175">
          <path id="Trazado_1222" data-name="Trazado 1222" d="M3298.225,323.683a2.714,2.714,0,1,1,2.714-2.714A2.718,2.718,0,0,1,3298.225,323.683Zm0-4.084a1.37,1.37,0,1,0,1.365,1.37A1.375,1.375,0,0,0,3298.225,319.6Z" transform="translate(-3295.506 -318.254)" fill="#1a1a1a"/>
        </g>
      </g>
      <g id="Grupo_1177" data-name="Grupo 1177" transform="translate(3513.354 497.434)">
        <path id="Trazado_1223" data-name="Trazado 1223" d="M3343.243,381.6a2.714,2.714,0,1,1,2.712-2.712A2.718,2.718,0,0,1,3343.243,381.6Zm0-4.082a1.369,1.369,0,1,0,1.365,1.37A1.372,1.372,0,0,0,3343.243,377.513Z" transform="translate(-3340.523 -376.166)" fill="#1a1a1a"/>
      </g>
      <g id="Grupo_1180" data-name="Grupo 1180" transform="translate(3202.967 547.527)">
        <g id="Grupo_1178" data-name="Grupo 1178" transform="translate(0.59)">
          <path id="Trazado_1224" data-name="Trazado 1224" d="M3203.312,483.305c-.365-1.239.51-1.832,1.918-2.94,5.284-4.168,17.95-15.536,21.382-31.053a137.915,137.915,0,0,0,3.053-36.511.673.673,0,0,1,.564-.72c.32-.052,32.321-5.215,49.005-13.715,1.191,1.514,6.435,26.522-1.415,40.711a41.865,41.865,0,0,1-3.558,5.434c-7.243,9.312-16.885,12.512-29.647,9.784-.826,4.465-6.767,27.571-41.274,29.011Zm27.731-69.995a141.055,141.055,0,0,1-3.116,36.293c-3.529,15.942-16.466,27.562-21.867,31.818,34.223-2.1,37.306-27.743,37.331-28.007,13.365,2.293,22.769-.675,29.807-9.728a40.674,40.674,0,0,0,3.446-5.262c6.81-12.311,3.26-33.912,2.407-38.465C3263.3,407.676,3235.5,412.564,3231.043,413.31Z" transform="translate(-3203.228 -398.366)" fill="#1a1a1a"/>
        </g>
        <g id="Grupo_1179" data-name="Grupo 1179" transform="translate(0 45.061)">
          <path id="Trazado_1225" data-name="Trazado 1225" d="M3205.335,458.3a13.218,13.218,0,0,1-1.8-.093.672.672,0,0,1,.072-1.336c36.87-1.541,40.081-28.278,40.109-28.546,13.365,2.293,22.769-.675,29.807-9.728a.673.673,0,0,1,1.079.806c-6.817,9.484-17.093,16.273-23.233,20.333C3226.024,456.488,3210.732,458.3,3205.335,458.3Zm39.607-29.094a33.7,33.7,0,0,1-12.839,20.055,157.3,157.3,0,0,0,18.53-10.646,115.865,115.865,0,0,0,15.379-11.625C3260.186,430.225,3253.2,430.972,3244.942,429.2Z" transform="translate(-3202.967 -418.336)" fill="#1a1a1a"/>
        </g>
      </g>
      <g id="Grupo_1181" data-name="Grupo 1181" transform="translate(3531.725 540.832)">
        <path id="Trazado_1226" data-name="Trazado 1226" d="M3379.868,488.493c-.27-.056-21.434-9.412-21.434-9.412a.672.672,0,0,1,.539-1.232l20.735,9.166c3.967-4.2,42.762-46.072,36.017-71.01l-43.987-19.55c-.634,5.226-4.58,31.355-21.883,52.176a.673.673,0,0,1-1.035-.86c18.952-22.808,21.655-52.067,21.683-52.361.945-.557,46.06,19.5,46.06,19.5,8.076,27.269-34.4,71.511-36.208,73.384A.673.673,0,0,1,3379.868,488.493Z" transform="translate(-3348.665 -395.399)" fill="#1a1a1a"/>
      </g>
      <g id="Grupo_1182" data-name="Grupo 1182" transform="translate(3482.996 336.669)">
        <path id="Trazado_1227" data-name="Trazado 1227" d="M3376.211,406.262c-27.587-5.068-48.274-62.806-49.142-65.261.2-.742,42.768-36.083,42.768-36.083,3.667,42.315,44.373,68.379,44.784,68.639.07,1.085-37.978,32.549-37.978,32.549A.675.675,0,0,1,3376.211,406.262ZM3328.5,340.995c1.99,5.422,22.2,58.81,47.532,63.873l37.107-30.681c-5.639-3.825-40.34-28.853-43.448-67.4Z" transform="translate(-3327.069 -304.919)" fill="#1a1a1a"/>
      </g>
      <g id="Grupo_1183" data-name="Grupo 1183" transform="translate(3209.479 488.228)">
        <path id="Trazado_1228" data-name="Trazado 1228" d="M3217.046,407.313c-4.127-3.035-8.917-7.624-10.675-13.051a8.58,8.58,0,0,1,1.4-8.439c-.846-3.409-.756-7.834.293-13.193a.673.673,0,1,1,1.32.259,32.609,32.609,0,0,0-.483,11.822,10.322,10.322,0,0,1,1.656-1.106,7.656,7.656,0,0,1,5.65-.88,6.439,6.439,0,0,1,4.218,4.506c.521,1.848.257,4.3-1.5,5.612a5.375,5.375,0,0,1-5.172.354,9.426,9.426,0,0,1-5.49-5.785,7.377,7.377,0,0,0-.607,6.435c1.652,5.1,6.246,9.486,9.809,12.264a.677.677,0,0,1,.119.945A.67.67,0,0,1,3217.046,407.313Zm-7.785-21.129a8.4,8.4,0,0,0,4.976,5.761,4.05,4.05,0,0,0,3.876-.18c1.243-.925,1.4-2.807,1.016-4.165a5.179,5.179,0,0,0-3.3-3.585,6.355,6.355,0,0,0-4.639.778A8.528,8.528,0,0,0,3209.261,386.184Z" transform="translate(-3205.853 -372.086)" fill="#1a1a1a"/>
      </g>
      <g id="Grupo_1184" data-name="Grupo 1184" transform="translate(3554.588 461.303)">
        <path id="Trazado_1229" data-name="Trazado 1229" d="M3376.687,394.642c-1.433-1.363-2.694-2.906-4.186-4.416a19.656,19.656,0,0,1-6.241,1.783c-2.672.278-4.661-.2-6.041-1.469a4.1,4.1,0,0,1-.785-5.257,4.143,4.143,0,0,1,3.118-1.582c3.766-.291,7.352,2.168,10.192,4.876,4.037-2.148,7.516-5.767,8.5-10.287a11.181,11.181,0,0,0-.46-6.277q-.653.481-1.34.925a8.551,8.551,0,0,1-4.4,1.589,5.366,5.366,0,0,1-5.023-3.649,4.036,4.036,0,0,1,1.649-4.707c2.259-1.6,5.447-.686,7.424,1.038a10.354,10.354,0,0,1,2.2,2.687,55.6,55.6,0,0,0,8.316-9.472.672.672,0,1,1,1.077.806,55.511,55.511,0,0,1-8.78,9.908,12.438,12.438,0,0,1,.655,7.437c-1.079,4.93-4.651,8.717-8.8,11.011,1.4,1.449,2.577,2.888,3.448,3.958a.672.672,0,0,1-.519,1.1Zm-13.563-9.617a3.237,3.237,0,0,0-2.6,1.049,2.78,2.78,0,0,0,.607,3.475c1.076.993,2.708,1.363,5,1.124a17.848,17.848,0,0,0,5.33-1.467C3369.021,386.959,3366.113,385.025,3363.123,385.025Zm11.3-18.347a3.348,3.348,0,0,0-1.967.591,2.686,2.686,0,0,0-1.146,3.2,4.033,4.033,0,0,0,3.692,2.715,7.311,7.311,0,0,0,3.725-1.379c.514-.329,1.011-.677,1.5-1.045a9.034,9.034,0,0,0-2-2.534A6.086,6.086,0,0,0,3374.418,366.678Z" transform="translate(-3358.797 -360.154)" fill="#1a1a1a"/>
      </g>
      <g id="Grupo_1185" data-name="Grupo 1185" transform="translate(3457.73 300.09)">
        <path id="Trazado_1230" data-name="Trazado 1230" d="M3326.015,308.15c-2.331-.21-3.594-1.189-4.059-2.71a5.308,5.308,0,0,1-.025-2.532,13.207,13.207,0,0,1,4.912-7.688c-2.531-3.583-6.155-5.492-10.237-5.12a.644.644,0,0,1-.731-.609.676.676,0,0,1,.607-.733c4.571-.408,8.647,1.7,11.454,5.666a15.263,15.263,0,0,1,8.351-2.586.74.74,0,0,1,.731.677.675.675,0,0,1-.674.668,14.076,14.076,0,0,0-7.654,2.405,21.069,21.069,0,0,1,2.209,5.373,6.422,6.422,0,0,1-.2,4.7A5.4,5.4,0,0,1,3326.015,308.15Zm1.575-11.77a11.6,11.6,0,0,0-4.341,6.785,3.923,3.923,0,0,0-.005,1.882,2.544,2.544,0,0,0,2.32,1.735,4.256,4.256,0,0,0,3.953-1.764,4.973,4.973,0,0,0,.076-3.714A19.643,19.643,0,0,0,3327.59,296.38Z" transform="translate(-3315.872 -288.708)" fill="#1a1a1a"/>
      </g>
      <g id="Grupo_1187" data-name="Grupo 1187" transform="translate(3407.123 470.361)">
        <g id="Grupo_1186" data-name="Grupo 1186">
          <path id="Trazado_1231" data-name="Trazado 1231" d="M3301.527,377.289c-4.285,0-7.917-3.1-8.073-5.661a3.151,3.151,0,0,1,.813-2.446,4.38,4.38,0,0,1,4.867-.578,7.333,7.333,0,0,0,2.369.772c1.178-.35,1.442-.447,2.489-2.525a4.474,4.474,0,0,1,3.749-2.683,3.136,3.136,0,0,1,2.556,1.388c.767,1.052.861,2.863.255,4.845a9.324,9.324,0,0,1-9.024,6.889Zm-4.573-7.816a2.3,2.3,0,0,0-1.71.63,1.857,1.857,0,0,0-.449,1.444c.094,1.51,2.787,4.4,6.733,4.4a7.974,7.974,0,0,0,7.738-5.937c.462-1.51.442-2.981-.052-3.66-1.072-1.462-3.084-.765-4.019,1.11-1.176,2.335-1.656,2.687-2.63,3.042-.894.32-1.535.4-3.971-.666A4.106,4.106,0,0,0,3296.953,369.473Z" transform="translate(-3293.444 -364.168)" fill="#1a1a1a"/>
        </g>
      </g>
      <g id="Grupo_1188" data-name="Grupo 1188" transform="translate(3437.775 451.69)">
        <path id="Trazado_1232" data-name="Trazado 1232" d="M3314.24,376.981a7.858,7.858,0,0,1-5.555-2.448.671.671,0,1,1,.961-.936,6.419,6.419,0,0,0,4.352,2.035,6.571,6.571,0,0,0,5.246-2.437,10.37,10.37,0,0,0,2.458-6.465c.2-5.066-2.933-9.319-6.975-9.479-2.945-.12-5.1,1.309-6.417,4.116a.674.674,0,0,1-1.219-.578c1.55-3.285,4.292-5.066,7.688-4.883,4.783.192,8.491,5.07,8.263,10.876a11.7,11.7,0,0,1-2.787,7.3A7.988,7.988,0,0,1,3314.24,376.981Z" transform="translate(-3307.028 -355.893)" fill="#1a1a1a"/>
      </g>
      <g id="Grupo_1189" data-name="Grupo 1189" transform="translate(3441.486 457.057)">
        <path id="Trazado_1233" data-name="Trazado 1233" d="M3313.742,367.83c-.388-.124-5.068-3.418-5.068-3.418-.088-1.027,4.793-5.941,4.793-5.941a.672.672,0,1,1,.952.948l-4.319,4.35,4.031,2.836a.675.675,0,0,1-.388,1.225Z" transform="translate(-3308.673 -358.272)" fill="#1a1a1a"/>
      </g>
      <g id="Grupo_1190" data-name="Grupo 1190" transform="translate(3397.985 445.366)">
        <path id="Trazado_1234" data-name="Trazado 1234" d="M3290.037,356.359c-.724-.417-.749-.844-.5-1.119.126-.14,3.132-3.394,8.742-1.622a.672.672,0,0,1-.4,1.282c-4.827-1.516-7.313,1.212-7.338,1.237A.662.662,0,0,1,3290.037,356.359Z" transform="translate(-3289.394 -353.091)" fill="#1a1a1a"/>
      </g>
      <g id="Grupo_1191" data-name="Grupo 1191" transform="translate(3402.468 449.381)">
        <path id="Trazado_1235" data-name="Trazado 1235" d="M3295.56,378.267a23.465,23.465,0,0,1-4.178-5.079c.453-1.013,4.955-1.823,4.955-1.823a54.046,54.046,0,0,0,2.192-15.822.673.673,0,0,1,1.346,0,52.711,52.711,0,0,1-2.392,16.646c-.514.431-4.418,1.133-4.418,1.133a23.414,23.414,0,0,0,2.949,3.777.674.674,0,0,1-.454,1.169Z" transform="translate(-3291.381 -354.87)" fill="#1a1a1a"/>
      </g>
      <g id="Grupo_1192" data-name="Grupo 1192" transform="translate(3393.59 445.504)">
        <path id="Trazado_1236" data-name="Trazado 1236" d="M3309.685,402.735c-6.343,0-11.384-1.866-15-5.558-8.486-8.671-7.482-25.554-6.819-36.728.156-2.593.289-4.829.289-6.625a.672.672,0,1,1,1.344,0c0,1.837-.133,4.091-.288,6.7-.65,10.937-1.636,27.463,6.438,35.708,3.576,3.655,8.719,5.4,15.262,5.131a.645.645,0,0,1,.7.645.671.671,0,0,1-.645.7C3310.534,402.728,3310.107,402.735,3309.685,402.735Z" transform="translate(-3287.447 -353.152)" fill="#1a1a1a"/>
      </g>
      <g id="Grupo_1193" data-name="Grupo 1193" transform="translate(3394.221 429.763)">
        <path id="Trazado_1237" data-name="Trazado 1237" d="M3332.623,372.416c-23.492-1.7-31.5-21.443-32.723-24.873-7.126.711-10.8,17.244-10.841,17.415a.683.683,0,0,1-.8.515.674.674,0,0,1-.515-.8c.167-.754,4.119-18.5,12.634-18.5.71.7,7.69,23.117,32.294,24.9a.673.673,0,0,1-.048,1.345Z" transform="translate(-3287.727 -346.176)" fill="#1a1a1a"/>
      </g>
      <g id="Grupo_1194" data-name="Grupo 1194" transform="translate(3410.763 493.72)">
        <path id="Trazado_1238" data-name="Trazado 1238" d="M3307.26,387.382c-9.192,0-11.907-2.744-12.018-2.861-.185-.465-.185-9.33-.185-9.33a.673.673,0,0,1,1.345,0v8.556c.713.533,3.614,2.29,10.858,2.29a27.923,27.923,0,0,0,8.622-1.228.672.672,0,1,1,.4,1.282A29.161,29.161,0,0,1,3307.26,387.382Z" transform="translate(-3295.057 -374.52)" fill="#1a1a1a"/>
      </g>
      <g id="Grupo_1195" data-name="Grupo 1195" transform="translate(3404.016 502.584)">
        <path id="Trazado_1239" data-name="Trazado 1239" d="M3319.724,397.837a8.475,8.475,0,0,1-2.227-.3c-4.812-1.311-8.123-6.5-9.3-8.629-1.632,1.837-5.973,6.266-9.96,6.352a4.781,4.781,0,0,1-3.931-1.792,7.647,7.647,0,0,1-2.139-6.474c.839-4.93,6.738-8.315,6.988-8.457a.679.679,0,0,1,.918.253.672.672,0,0,1-.257.918c-.054.034-5.594,3.218-6.322,7.516a6.361,6.361,0,0,0,1.823,5.359,3.578,3.578,0,0,0,2.8,1.334c4.389-.093,9.635-6.56,9.687-6.625,1.167.208,4.675,7.489,10.045,8.947a7.889,7.889,0,0,0,6.686-1.4,8.8,8.8,0,0,0,4.009-5.508.665.665,0,0,1,.79-.528.674.674,0,0,1,.528.792,10.1,10.1,0,0,1-4.572,6.359A9.846,9.846,0,0,1,3319.724,397.837Z" transform="translate(-3292.067 -378.449)" fill="#1a1a1a"/>
      </g>
      <g id="Grupo_1196" data-name="Grupo 1196" transform="translate(3297.127 464.653)">
        <path id="Trazado_1240" data-name="Trazado 1240" d="M3318.236,405.365c-40,0-61.845-22.33-73.452-42.719a.673.673,0,1,1,1.169-.668c13.283,23.334,40.208,49.245,93.035,40.189a.655.655,0,0,1,.776.548.672.672,0,0,1-.548.776A124.259,124.259,0,0,1,3318.236,405.365Z" transform="translate(-3244.696 -361.639)" fill="#1a1a1a"/>
      </g>
      <g id="Grupo_1197" data-name="Grupo 1197" transform="translate(3281.268 437.309)">
        <path id="Trazado_1241" data-name="Trazado 1241" d="M3246.583,361.2a49.952,49.952,0,0,1-3.3-10.233l-4.953-.1a.672.672,0,0,1-.659-.686.742.742,0,0,1,.686-.659l5.5.111c.656.607,1.259,4.4,3.365,10.68a.673.673,0,0,1-.422.853A.726.726,0,0,1,3246.583,361.2Z" transform="translate(-3237.668 -349.52)" fill="#1a1a1a"/>
      </g>
      <g id="Grupo_1198" data-name="Grupo 1198" transform="translate(3263.541 463.764)">
        <path id="Trazado_1242" data-name="Trazado 1242" d="M3342.75,454.177c-27.91-3.161-94.624-18.453-112.919-92.094a.673.673,0,0,1,.49-.815.657.657,0,0,1,.814.487c18.094,72.824,84.136,87.958,111.689,91.081a.672.672,0,0,1-.074,1.34Z" transform="translate(-3229.812 -361.245)" fill="#1a1a1a"/>
      </g>
      <g id="Grupo_1199" data-name="Grupo 1199" transform="translate(3375.945 534.814)">
        <path id="Trazado_1243" data-name="Trazado 1243" d="M3299.18,473.163c-29.706-49.77-16.77-79.738-16.637-80.036a.674.674,0,0,1,1.228.555c-.133.291-12.751,29.683,15.99,78.468a.671.671,0,0,1-.24.921A.641.641,0,0,1,3299.18,473.163Z" transform="translate(-3279.626 -392.732)" fill="#1a1a1a"/>
      </g>
      <g id="Grupo_1200" data-name="Grupo 1200" transform="translate(3388.493 481.259)">
        <path id="Trazado_1244" data-name="Trazado 1244" d="M3300.322,399.4c-3.216,0-13.428-.839-14.945-11.321-1.561-10.77,6.993-18.582,7.361-18.907a.671.671,0,1,1,.9,1c-.083.074-8.378,7.667-6.927,17.713,1.62,11.165,13.924,10.195,14.461,10.145a.673.673,0,1,1,.118,1.34C3301.266,399.368,3300.911,399.4,3300.322,399.4Z" transform="translate(-3285.188 -368.998)" fill="#1a1a1a"/>
      </g>
      <g id="Grupo_1201" data-name="Grupo 1201" transform="translate(3428.744 470.362)">
        <path id="Trazado_1245" data-name="Trazado 1245" d="M3323.44,409.45c-5.2,0-11.1-1.41-15.258-6.575-14.358-17.812,5.8-38.305,6.009-38.511a.674.674,0,0,1,.952.954c-.2.194-19.513,19.843-5.914,36.712,8.516,10.56,25.065,4.188,25.232,4.122a.673.673,0,0,1,.492,1.252A35.419,35.419,0,0,1,3323.44,409.45Z" transform="translate(-3303.026 -364.169)" fill="#1a1a1a"/>
      </g>
      <g id="Grupo_1202" data-name="Grupo 1202" transform="translate(3393.714 418.983)">
        <path id="Trazado_1246" data-name="Trazado 1246" d="M3362.755,440.683c-.686-.323-.767-.74-.555-1.047,7.821-11.625-.713-17.982-6.941-22.625-3.22-2.4-5.761-4.292-5.472-6.451,3.57-26.5,7.367-42.778,7.7-44.186a20.583,20.583,0,0,0-9.834-16.686c-14.441-9.457-41.3-7.485-49.1-4.594-.045.032-11.986,6.6-9.306,29.613a.677.677,0,0,1-.591.747.666.666,0,0,1-.746-.591c-2.793-24,9.57-30.721,10.1-31,8.064-2.994,35.577-5,50.382,4.7a21.857,21.857,0,0,1,10.445,17.835c-.054.357-4,16.811-7.715,44.341-.187,1.374,2.3,3.229,4.941,5.192,6.287,4.687,15.791,11.767,7.251,24.455A.671.671,0,0,1,3362.755,440.683Z" transform="translate(-3287.501 -341.398)" fill="#1a1a1a"/>
      </g>
      <g id="Grupo_1203" data-name="Grupo 1203" transform="translate(3543.571 654.933)">
        <path id="Trazado_1247" data-name="Trazado 1247" d="M3357.8,458.374c-.645-.485-3.858-11.546-3.858-11.546a.672.672,0,1,1,1.291-.375l3.213,11.061a.672.672,0,0,1-.46.835A.65.65,0,0,1,3357.8,458.374Z" transform="translate(-3353.915 -445.966)" fill="#1a1a1a"/>
      </g>
      <g id="Grupo_1204" data-name="Grupo 1204" transform="translate(3459.748 512.301)">
        <path id="Trazado_1248" data-name="Trazado 1248" d="M3378.3,528.988c-.658-.519-2.676-6.542-6.214-15.4l-1.483-3.673c-9.42-22.91-28.508-62.986-50.465-73.993a.673.673,0,0,1,.6-1.2c22.352,11.2,41.615,51.6,51.105,74.686l1.489,3.68c2.968,7.43,4.87,12.873,5.429,14.507l24.32-2.385c-.309-2.748-.634-5.386-.975-7.857-.151-1.051-.31-2.11-.467-3.148-12.571-83.206-58.343-117.274-84.5-130.174a.672.672,0,1,1,.593-1.2c26.4,13.017,72.579,47.367,85.246,131.176.155,1.042.313,2.105.464,3.166.37,2.685.722,5.569,1.052,8.57-.6.745-26.13,3.249-26.13,3.249A.331.331,0,0,1,3378.3,528.988Z" transform="translate(-3316.766 -382.755)" fill="#1a1a1a"/>
      </g>
      <g id="Grupo_1205" data-name="Grupo 1205" transform="translate(3370.736 613.931)">
        <path id="Trazado_1249" data-name="Trazado 1249" d="M3277.842,437.256c-.756-.806-.569-1.189-.216-1.307,17.058-5.831,24.184-8.13,24.251-8.155.817.327,9.926,10.569,66.881,7.252a.674.674,0,0,1,.081,1.345c-52.782,3.064-64.906-5.294-66.946-7.185-1.708.555-9.021,2.954-23.833,8.013A.622.622,0,0,1,3277.842,437.256Z" transform="translate(-3277.318 -427.795)" fill="#1a1a1a"/>
      </g>
      <g id="Grupo_1206" data-name="Grupo 1206" transform="translate(3307.729 627.825)">
        <path id="Trazado_1250" data-name="Trazado 1250" d="M3249.93,451.813c-.761-.783-.585-1.169-.24-1.3q2.966-1.117,5.98-2.223c4.429-1.643,8.938-3.279,13.437-4.894l6.717-2.408c8.85-3.143,12.056-4.278,19.968-7a.671.671,0,1,1,.435,1.27c-7.906,2.719-11.11,3.854-19.951,6.995l-6.713,2.405c-4.5,1.616-9,3.249-13.428,4.89q-3.016,1.1-5.968,2.22A.622.622,0,0,1,3249.93,451.813Z" transform="translate(-3249.395 -433.952)" fill="#1a1a1a"/>
      </g>
      <g id="Grupo_1207" data-name="Grupo 1207" transform="translate(3267.225 644.342)">
        <path id="Trazado_1251" data-name="Trazado 1251" d="M3232.118,476.639a.693.693,0,0,1-.667-.765c2.649-19.162,19.308-25.859,34.009-31.766,2.3-.923,4.567-1.834,6.755-2.78a.673.673,0,1,1,.537,1.234c-2.2.948-4.483,1.866-6.792,2.793-15.06,6.054-30.635,12.313-33.176,30.7A.673.673,0,0,1,3232.118,476.639Z" transform="translate(-3231.445 -441.272)" fill="#1a1a1a"/>
      </g>
      <g id="Grupo_1208" data-name="Grupo 1208" transform="translate(3307.454 644.334)">
        <path id="Trazado_1252" data-name="Trazado 1252" d="M3256.433,476.152a68.812,68.812,0,0,1-6.7-22.964,56.424,56.424,0,0,1-.316-11.309.635.635,0,0,1,.738-.6.673.673,0,0,1,.6.738,56.957,56.957,0,0,0,.316,11.018,77.631,77.631,0,0,0,5.979,22.172.674.674,0,0,1-.347.887A.719.719,0,0,1,3256.433,476.152Z" transform="translate(-3249.273 -441.269)" fill="#1a1a1a"/>
      </g>
      <g id="Grupo_1209" data-name="Grupo 1209" transform="translate(3461.052 564.19)">
        <path id="Trazado_1253" data-name="Trazado 1253" d="M3335.437,520.985a.671.671,0,0,1-.673-.67,106.058,106.058,0,0,0-6.817-38.8c-.569-1.433-1.142-2.78-1.708-4.028-4.093-9.021-8.188-13.568-8.229-13.615-1.952-27.188,1.006-57.21,1.039-57.508a.653.653,0,0,1,.735-.6.674.674,0,0,1,.6.736c-.03.3-2.966,30.042-1.226,56.648a59.027,59.027,0,0,1,8.3,13.785c.573,1.266,1.151,2.633,1.735,4.089a107.519,107.519,0,0,1,6.912,39.3A.673.673,0,0,1,3335.437,520.985Z" transform="translate(-3317.344 -405.751)" fill="#1a1a1a"/>
      </g>
      <g id="Grupo_1210" data-name="Grupo 1210" transform="translate(3406.38 517.281)">
        <path id="Trazado_1254" data-name="Trazado 1254" d="M3304.457,418.326a7.453,7.453,0,0,1-5.509-2.568c-6.819-7.514-5.8-29.237-5.754-30.16a.7.7,0,0,1,.7-.636.674.674,0,0,1,.639.706c-.011.221-1.039,22.084,5.411,29.183a5.886,5.886,0,0,0,4.224,2.123c11.273.011,17.115-28.688,17.174-28.982a.673.673,0,0,1,1.32.264C3322.42,389.5,3316.535,418.323,3304.457,418.326Z" transform="translate(-3293.115 -384.962)" fill="#1a1a1a"/>
      </g>
      <g id="Grupo_1211" data-name="Grupo 1211" transform="translate(3417.434 505.167)">
        <path id="Trazado_1255" data-name="Trazado 1255" d="M3300.858,386.947c-.674-.51-2.617-4.159-2.841-6.616a.671.671,0,0,1,.607-.731.625.625,0,0,1,.731.609c.2,2.184,2.081,5.711,2.1,5.747a.674.674,0,0,1-.275.912A.7.7,0,0,1,3300.858,386.947Z" transform="translate(-3298.014 -379.593)" fill="#1a1a1a"/>
      </g>
      <g id="Grupo_1212" data-name="Grupo 1212" transform="translate(3417.844 453.162)">
        <path id="Trazado_1256" data-name="Trazado 1256" d="M3309.732,362.334c-2.48-3.2-4.378-4.587-6.009-4.434-2.587.232-4.222,3.987-4.235,4.025a.666.666,0,0,1-.882.357.676.676,0,0,1-.357-.885c.077-.183,1.958-4.526,5.351-4.836,2.149-.194,4.479,1.385,6.69,4.729a.67.67,0,0,1-.187.932A.66.66,0,0,1,3309.732,362.334Z" transform="translate(-3298.195 -356.546)" fill="#1a1a1a"/>
      </g>
      <g id="Grupo_1213" data-name="Grupo 1213" transform="translate(3396.478 451.695)">
        <path id="Trazado_1257" data-name="Trazado 1257" d="M3297.9,362.21c-1.042-1.665-2.46-4.831-4.179-4.964-1.137-.092-2.423,1.2-3.725,3.725a.671.671,0,0,1-1.194-.614c1.616-3.136,3.238-4.6,5.025-4.452,2.911.228,4.534,4.892,4.708,5.42a.67.67,0,0,1-.422.851A.7.7,0,0,1,3297.9,362.21Z" transform="translate(-3288.727 -355.896)" fill="#1a1a1a"/>
      </g>
      <g id="Grupo_1214" data-name="Grupo 1214" transform="translate(3407.573 664.985)">
        <path id="Trazado_1258" data-name="Trazado 1258" d="M3294.317,465.145a.7.7,0,0,1-.663-.794c1.593-8.536,2.861-13.383,2.875-13.43a.67.67,0,0,1,.824-.478.681.681,0,0,1,.48.824c-.016.047-1.277,4.851-2.85,13.331A.68.68,0,0,1,3294.317,465.145Z" transform="translate(-3293.644 -450.421)" fill="#1a1a1a"/>
      </g>
      <g id="Grupo_1215" data-name="Grupo 1215" transform="translate(3555.872 678.364)">
        <path id="Trazado_1259" data-name="Trazado 1259" d="M3374.017,457.695h-13.976a.672.672,0,1,1,0-1.345h13.976a.672.672,0,1,1,0,1.345Z" transform="translate(-3359.366 -456.35)" fill="#1a1a1a"/>
      </g>
      <g id="Grupo_1216" data-name="Grupo 1216" transform="translate(3241.246 678.364)">
        <path id="Trazado_1260" data-name="Trazado 1260" d="M3488.754,457.695H3220.6a.672.672,0,0,1,0-1.345h268.151a.672.672,0,1,1,0,1.345Z" transform="translate(-3219.931 -456.35)" fill="#1a1a1a"/>
      </g>
      <g id="Grupo_1217" data-name="Grupo 1217" transform="translate(3508.861 657.072)">
        <path id="Trazado_1261" data-name="Trazado 1261" d="M3364.8,486.422a9.489,9.489,0,0,1-1.767-.178c-4.518-.855-6.368-12.27-6.884-16.28-7.622,6.016-12.492,5.221-15.273,3.434-2.239-1.446-2.48-2.825-2.288-3.728.374-1.744,2.631-3.024,6.354-3.6,5.409-.839,6.313-5.007,6.323-5.048l.214-13.451a.752.752,0,0,1,.684-.659.672.672,0,0,1,.665.684l-.23,13.57c-.058.332-1.123,5.253-7.449,6.232-3.585.553-5.061,1.681-5.248,2.552-.146.688.463,1.51,1.708,2.315,3.59,2.324,8.658.9,14.635-4.116,1.72,6.44,3.882,16.172,7.04,16.77a4.719,4.719,0,0,0,3.59-.395,1.992,1.992,0,0,0,.795-1.169c1.072-.442,4.027,1.541,6.457.986a6.5,6.5,0,0,0,3.753-3.148c1.192-.02,2.744,2.457,4.731,1.848a3.846,3.846,0,0,0,2.875-3.536c.534-8.484-.456-21.35-2.911-21.734-4.118-.639-16.785.51-21.82,3.364a.672.672,0,1,1-.666-1.169c5.363-3.039,18.347-4.208,22.693-3.527,5.129.806,4.057,22.925,4.043,23.149a5.213,5.213,0,0,1-3.82,4.739,4.305,4.305,0,0,1-4.472-1.645,7.183,7.183,0,0,1-4.114,2.969c-2.191.487-4.565-.569-5.733-1.209a3.376,3.376,0,0,1-1.029,1.171A4.767,4.767,0,0,1,3364.8,486.422Z" transform="translate(-3338.532 -446.914)" fill="#1a1a1a"/>
      </g>
      <g id="Grupo_1243" data-name="Grupo 1243" transform="translate(3221.779 279.649)">
        <g id="Grupo_1227" data-name="Grupo 1227" transform="translate(0 118.568)">
          <g id="Grupo_1218" data-name="Grupo 1218" transform="translate(59.108)">
            <path id="Trazado_1262" data-name="Trazado 1262" d="M3250.431,390.023c-7.107-4.461-11.181-10.346-12.474-17.6-3.276-18.379,12.09-39.088,12.745-39.959a.674.674,0,1,1,1.078.808c-.158.208-15.673,21.12-12.5,38.919,1.227,6.869,5.1,12.455,11.512,16.6a.672.672,0,0,1-.363,1.237Z" transform="translate(-3237.499 -332.195)" fill="#1a1a1a"/>
          </g>
          <g id="Grupo_1219" data-name="Grupo 1219" transform="translate(11.235 26.331)">
            <path id="Trazado_1263" data-name="Trazado 1263" d="M3222.937,351.589a31.348,31.348,0,0,1-6.113-.627.67.67,0,0,1-.528-.792.662.662,0,0,1,.792-.528c8.464,1.692,15.86-.2,21.987-5.609a.672.672,0,0,1,.889,1.009A25.033,25.033,0,0,1,3222.937,351.589Z" transform="translate(-3216.283 -343.865)" fill="#1a1a1a"/>
          </g>
          <g id="Grupo_1220" data-name="Grupo 1220" transform="translate(11.154 32.092)">
            <path id="Trazado_1264" data-name="Trazado 1264" d="M3273.509,373.333a35.511,35.511,0,0,1-6.9-.878,152.9,152.9,0,0,1-42.741-17.336c-5.725-3.637-8.245-6.422-7.492-8.279a.665.665,0,0,1,.876-.37.675.675,0,0,1,.37.878c-.264.65.905,2.782,6.968,6.634a151.571,151.571,0,0,0,42.295,17.156c7.02,1.458,9.355.742,9.621.09a.667.667,0,0,1,.878-.37.675.675,0,0,1,.371.876C3277.32,372.8,3275.9,373.333,3273.509,373.333Z" transform="translate(-3216.248 -346.418)" fill="#1a1a1a"/>
          </g>
          <g id="Grupo_1221" data-name="Grupo 1221" transform="translate(16.917 42.653)">
            <path id="Trazado_1265" data-name="Trazado 1265" d="M3233.6,359.683a136.758,136.758,0,0,1-14.469-7.336.672.672,0,0,1,.682-1.158,146.908,146.908,0,0,0,14.062,7.207.673.673,0,0,1-.275,1.286Z" transform="translate(-3218.802 -351.098)" fill="#1a1a1a"/>
          </g>
          <g id="Grupo_1222" data-name="Grupo 1222" transform="translate(66.173 49.893)">
            <path id="Trazado_1266" data-name="Trazado 1266" d="M3247.652,367.787a40.68,40.68,0,0,1-6.458-.625.676.676,0,0,1-.555-.774.657.657,0,0,1,.776-.553c7.358,1.21,10.49.384,10.969-.8.273-.679.429-3.371-9.143-9.493a.673.673,0,0,1,.726-1.133c7.469,4.777,10.721,8.523,9.66,11.131C3253.021,367.038,3251.019,367.787,3247.652,367.787Z" transform="translate(-3240.63 -354.307)" fill="#1a1a1a"/>
          </g>
          <g id="Grupo_1223" data-name="Grupo 1223" transform="translate(62.147 46.179)">
            <path id="Trazado_1267" data-name="Trazado 1267" d="M3245.846,357.72c-2.236-1.3-4.35-2.545-6.647-3.793a.673.673,0,0,1,.641-1.185c2.329,1.266,4.469,2.525,6.37,3.739a.672.672,0,0,1-.363,1.239Z" transform="translate(-3238.846 -352.661)" fill="#1a1a1a"/>
          </g>
          <g id="Grupo_1224" data-name="Grupo 1224" transform="translate(73.924 60.32)">
            <path id="Trazado_1268" data-name="Trazado 1268" d="M3244.737,369.9c-.6-.19-.765-.58-.625-.925l3.906-9.628a.672.672,0,0,1,1.245.5l-3.9,9.633A.673.673,0,0,1,3244.737,369.9Z" transform="translate(-3244.065 -358.928)" fill="#1a1a1a"/>
          </g>
          <g id="Grupo_1225" data-name="Grupo 1225" transform="translate(3.962 28.407)">
            <path id="Trazado_1269" data-name="Trazado 1269" d="M3215.924,352.521c-2.5-2.308-3.245-4.071-2.69-5.443,1.756-4.326,14.365-1.573,21.716.458a.673.673,0,0,1,.469.826.682.682,0,0,1-.828.472c-13.688-3.782-19.39-3.037-20.114-1.25-.327.812.356,2.162,1.931,3.8a.673.673,0,0,1-.021.95A.66.66,0,0,1,3215.924,352.521Z" transform="translate(-3213.06 -344.784)" fill="#1a1a1a"/>
          </g>
          <g id="Grupo_1226" data-name="Grupo 1226" transform="translate(0 30.277)">
            <path id="Trazado_1270" data-name="Trazado 1270" d="M3280.467,388.446c-7.864,0-21.908-4.012-34.793-9.238a147.539,147.539,0,0,1-25.308-12.866c-6.875-4.583-9.863-8.134-8.879-10.56l3.953-9.746a.663.663,0,0,1,.873-.37.67.67,0,0,1,.371.875l-3.951,9.748c-.515,1.273,1.415,4.289,8.383,8.935a146.216,146.216,0,0,0,25.064,12.738c21.375,8.667,37.761,11.043,39.095,7.744a.668.668,0,0,1,.878-.37.675.675,0,0,1,.369.878C3285.893,387.77,3283.7,388.446,3280.467,388.446Z" transform="translate(-3211.304 -345.613)" fill="#1a1a1a"/>
          </g>
        </g>
        <g id="Grupo_1230" data-name="Grupo 1230" transform="translate(12.348 10.952)">
          <g id="Grupo_1229" data-name="Grupo 1229">
            <g id="Grupo_1228" data-name="Grupo 1228">
              <path id="Trazado_1271" data-name="Trazado 1271" d="M3236.885,353.436a62.765,62.765,0,0,1-5.635-7.909c-2.473-4.161-10.763-18.956-13.692-34.7a37.868,37.868,0,0,1-.761-8.6,19.682,19.682,0,0,1,5.677-13.7,14.564,14.564,0,0,1,15.772-2.866,21.775,21.775,0,0,1,9.534,8.252.672.672,0,1,1-1.1.769c-2.758-3.956-5.375-6.257-8.764-7.7A13.289,13.289,0,0,0,3223.4,289.5a18.36,18.36,0,0,0-5.261,12.778,36.952,36.952,0,0,0,.74,8.3c2.89,15.527,11.082,30.148,13.528,34.257,1.378,2.317,4.2,6.356,5.025,7.541a.671.671,0,0,1-.163.936A.66.66,0,0,1,3236.885,353.436Zm-.269-19.107c-5.319-9.707-8.18-17.618-9.6-25.265a29.194,29.194,0,0,1-.607-6.471,10.347,10.347,0,0,1,2.7-7.1,4.941,4.941,0,0,1,5.486-.936c2.969,1.266,5.255,4.571,6.922,7.313l1.988,3.258-1.146.7-1.993-3.261c-1.563-2.572-3.682-5.659-6.221-6.742a3.617,3.617,0,0,0-4.108.641,9.012,9.012,0,0,0-2.281,6.171,27.994,27.994,0,0,0,.584,6.178c1.4,7.516,4.22,15.312,8.879,24.534a.668.668,0,0,1-.6.975Z" transform="translate(-3216.776 -284.502)" fill="#1a1a1a"/>
            </g>
          </g>
        </g>
        <g id="Grupo_1233" data-name="Grupo 1233" transform="translate(106.944 59.541)">
          <g id="Grupo_1232" data-name="Grupo 1232">
            <g id="Grupo_1231" data-name="Grupo 1231">
              <path id="Trazado_1272" data-name="Trazado 1272" d="M3259.171,357.253c-.727-.914-.488-1.266-.122-1.334,2.513-.474,7.378-1.444,9.648-2.058,4.615-1.248,20.678-6.027,33.567-15.161a36.74,36.74,0,0,0,6.313-5.44,18.349,18.349,0,0,0,5.126-12.832,13.244,13.244,0,0,0-8.477-11.846c-4.426-1.708-9.355-1.27-12.738-.611a.672.672,0,0,1-.257-1.32c3.561-.69,8.752-1.146,13.294.6a14.657,14.657,0,0,1,9.523,13.119,19.686,19.686,0,0,1-5.472,13.787,38.03,38.03,0,0,1-6.534,5.639c-13.069,9.26-29.327,14.1-34,15.36-2.31.625-7.214,1.6-9.75,2.08A.622.622,0,0,1,3259.171,357.253Zm13.541-13.462c-.754-.806-.569-1.189-.219-1.309,10.235-3.534,18.155-7.338,24.213-11.63a27.655,27.655,0,0,0,4.721-4.025,9.024,9.024,0,0,0,2.665-6.016,3.593,3.593,0,0,0-2.437-3.3c-2.647-1.02-6.316-.28-9.227.478-1.322.343-4.486.977-4.618,1.006a.673.673,0,1,1-.265-1.32c.032-.007,3.259-.654,4.545-.986,3.107-.808,7.052-1.589,9.98-.46a4.967,4.967,0,0,1,3.367,4.526,10.349,10.349,0,0,1-3.011,6.97,29,29,0,0,1-4.944,4.224c-6.164,4.366-14.2,8.227-24.549,11.8A.7.7,0,0,1,3272.711,343.791Z" transform="translate(-3258.699 -306.036)" fill="#1a1a1a"/>
            </g>
          </g>
        </g>
        <g id="Grupo_1237" data-name="Grupo 1237" transform="translate(31.188 16.53)">
          <g id="Grupo_1234" data-name="Grupo 1234">
            <path id="Trazado_1273" data-name="Trazado 1273" d="M3230.982,363.882a37.1,37.1,0,0,1-4.6-11.867,75.6,75.6,0,0,1-.464-24.787,128.571,128.571,0,0,1,6.061-24.875c1.311-3.807,2.8-7.654,4.42-11.438l.42-.982c.382-.9.833-1.954,1.106-2.561a.673.673,0,0,1,1.227.555c-.271.6-.718,1.645-1.1,2.534l-.422.984c-1.608,3.752-3.082,7.568-4.384,11.345a127.326,127.326,0,0,0-6,24.613,74.148,74.148,0,0,0,.452,24.342,45.739,45.739,0,0,0,3.883,11.163.673.673,0,0,1-.3.9A.662.662,0,0,1,3230.982,363.882Z" transform="translate(-3225.126 -286.974)" fill="#1a1a1a"/>
          </g>
          <g id="Grupo_1235" data-name="Grupo 1235" transform="translate(7.585 79.882)">
            <path id="Trazado_1274" data-name="Trazado 1274" d="M3236.78,333.29a43.289,43.289,0,0,1-8.191-9.885.672.672,0,1,1,1.142-.708,48.52,48.52,0,0,0,7.521,9.443.67.67,0,0,1-.471,1.151Z" transform="translate(-3228.487 -322.376)" fill="#1a1a1a"/>
          </g>
          <g id="Grupo_1236" data-name="Grupo 1236" transform="translate(39.775 39.536)">
            <path id="Trazado_1275" data-name="Trazado 1275" d="M3251.245,368.854a44.483,44.483,0,0,1-7.941-.727.671.671,0,0,1-.54-.783.657.657,0,0,1,.781-.542c11.794,2.15,23.3-.627,34.18-8.247a74.253,74.253,0,0,0,17.09-17.327,127.359,127.359,0,0,0,12.663-22.059c1.661-3.637,3.227-7.421,4.648-11.255.18-.485.338-.891.485-1.275.217-.551.411-1.056.632-1.69a.663.663,0,0,1,.853-.415.672.672,0,0,1,.415.855c-.223.65-.425,1.169-.645,1.737-.147.377-.3.778-.479,1.257-1.435,3.863-3.008,7.679-4.684,11.345a128.976,128.976,0,0,1-12.8,22.291,75.692,75.692,0,0,1-17.4,17.639C3269.761,365.774,3260.625,368.854,3251.245,368.854Z" transform="translate(-3242.753 -304.496)" fill="#1a1a1a"/>
          </g>
        </g>
        <g id="Grupo_1238" data-name="Grupo 1238" transform="translate(43.793)">
          <path id="Trazado_1276" data-name="Trazado 1276" d="M3332.507,328.9c-10.867,0-32.026-6.25-51.472-14.137-5.467-2.22-10.777-4.544-15.779-6.916a.671.671,0,1,1,.573-1.214c4.982,2.358,10.267,4.673,15.712,6.882,31.3,12.7,55.1,16.677,56.873,12.3s-18.074-18.09-49.38-30.787-55.094-16.668-56.872-12.3c-.458,1.124.636,3.035,3.076,5.372a.674.674,0,0,1-.932.973c-2.988-2.868-4.1-5.109-3.389-6.851,2.755-6.817,32.265.875,58.624,11.562s52.877,25.726,50.115,32.54C3338.936,328.113,3336.372,328.9,3332.507,328.9Z" transform="translate(-3230.712 -279.649)" fill="#1a1a1a"/>
        </g>
        <g id="Grupo_1239" data-name="Grupo 1239" transform="translate(40.458 10.398)">
          <path id="Trazado_1277" data-name="Trazado 1277" d="M3331.079,331.322a64.985,64.985,0,0,1-12.237-1.546c-10.944-2.261-24.9-6.722-39.3-12.562-26.355-10.686-52.877-25.726-50.113-32.536a.671.671,0,1,1,1.244.505c-1.772,4.371,18.072,18.088,49.377,30.787,14.32,5.806,28.192,10.242,39.061,12.487,15.175,3.136,17.468.65,17.81-.187a.672.672,0,1,1,1.245.508C3337.413,330.651,3334.644,331.322,3331.079,331.322Z" transform="translate(-3229.234 -284.257)" fill="#1a1a1a"/>
        </g>
        <g id="Grupo_1240" data-name="Grupo 1240" transform="translate(49.1 2.16)">
          <path id="Trazado_1278" data-name="Trazado 1278" d="M3328.026,323.869c-2.464,0-6.435-.53-12.9-2.162a285.84,285.84,0,0,1-35.455-12.052c-19.895-8.069-48.692-22.05-46.482-27.5.395-.97,1.577-1.478,3.617-1.552a.661.661,0,0,1,.7.65.669.669,0,0,1-.648.695c-2,.072-2.358.566-2.421.715-1.042,2.577,15.854,13.62,45.745,25.744a284.884,284.884,0,0,0,35.277,11.993c11.49,2.9,15.139,2.245,15.477,1.394.056-.14.393-1.471-5.077-5.357a.673.673,0,1,1,.781-1.1c4.429,3.148,6.192,5.359,5.542,6.959C3331.975,322.792,3331.538,323.869,3328.026,323.869Z" transform="translate(-3233.064 -280.606)" fill="#1a1a1a"/>
        </g>
        <g id="Grupo_1241" data-name="Grupo 1241" transform="translate(40.609 2.154)">
          <path id="Trazado_1279" data-name="Trazado 1279" d="M3229.969,290.194c-.6-.19-.762-.582-.62-.925l3.342-8.243a.664.664,0,0,1,.875-.37.672.672,0,0,1,.37.875l-3.344,8.243A.671.671,0,0,1,3229.969,290.194Z" transform="translate(-3229.301 -280.604)" fill="#1a1a1a"/>
        </g>
        <g id="Grupo_1242" data-name="Grupo 1242" transform="translate(148.102 45.751)">
          <path id="Trazado_1280" data-name="Trazado 1280" d="M3277.609,309.511c-.6-.187-.763-.58-.623-.925l3.347-8.241a.671.671,0,1,1,1.243.508l-3.344,8.241A.668.668,0,0,1,3277.609,309.511Z" transform="translate(-3276.939 -299.925)" fill="#1a1a1a"/>
        </g>
      </g>
      <g id="Grupo_1244" data-name="Grupo 1244" transform="translate(3253.818 378.975)">
        <path id="Trazado_1281" data-name="Trazado 1281" d="M3227.936,370.586c-5.707-14.647-.216-22.67,4.621-29.753.826-1.207,1.643-2.4,2.394-3.6,5.062-8.11,12.011-13.561,15.323-13.561,2.957.106,12.447,3.29,12.851,3.428.37,5.8-5.932,6.855-10,7.126q1.187.44,2.366.891a23.8,23.8,0,0,1,8.192,4.628,4.67,4.67,0,0,1,1.73,3.039,4.981,4.981,0,0,1-1.053,2.976,4.739,4.739,0,0,1-2.356,1.954,6.136,6.136,0,0,1-1.259,3.633,6.709,6.709,0,0,1-2.715,2.563,5.116,5.116,0,0,1-.205,3.326,5.689,5.689,0,0,1-4.942,2.8,14.018,14.018,0,0,1-4.567-1.094c-.659-.239-1.307-.472-1.927-.643a15.071,15.071,0,0,0-6.043-.681c-1.812.223-3.274,2.017-4.562,3.6-2.191,2.617-3.746,4.639-5.118,6.422-.909,1.054-1.886,2.177-2.1,2.5C3228.087,370.573,3228.01,370.586,3227.936,370.586Zm22.4-45.571c-2.618,0-9.247,4.917-14.243,12.925-.763,1.221-1.589,2.428-2.423,3.653-4.746,6.939-9.645,14.107-5.511,26.9.264-.311.6-.695,1.015-1.176,1.81-2.295,3.376-4.328,5-6.257,1.952-2.385,3.665-4.488,6.014-4.779a16.234,16.234,0,0,1,6.564.72c.652.183,1.333.426,2.026.675a13.081,13.081,0,0,0,4.107,1.018,4.332,4.332,0,0,0,3.771-2.114,4.5,4.5,0,0,0-.07-2.893c.555-.882,1.735-1.094,3.04-3.08,1.421-2.162.982-3.146.974-3.155.891-.982,1.663-1.052,2.67-2.471a3.837,3.837,0,0,0,.806-2.166,3.591,3.591,0,0,0-1.318-2.1c-2.166-2.083-4.9-3.24-7.741-4.341-1.735-.666-3.484-1.3-5.233-1.932a.837.837,0,0,1-.537-.8c.095-.6.514-.618,1.758-.659,4.605-.149,10.677-.815,11.2-4.766-2.008-.663-9.562-3.109-11.866-3.193Z" transform="translate(-3225.503 -323.668)" fill="#1a1a1a"/>
      </g>
      <g id="Grupo_1245" data-name="Grupo 1245" transform="translate(3284.288 416.065)">
        <path id="Trazado_1282" data-name="Trazado 1282" d="M3239.994,362.263a.683.683,0,0,1-.67-.722,131.531,131.531,0,0,0-.313-20.685.673.673,0,0,1,.6-.74.659.659,0,0,1,.74.6,132.423,132.423,0,0,1,.318,20.928A.672.672,0,0,1,3239.994,362.263Z" transform="translate(-3239.007 -340.105)" fill="#1a1a1a"/>
      </g>
      <g id="Grupo_1246" data-name="Grupo 1246" transform="translate(3534.671 675.116)">
        <path id="Trazado_1283" data-name="Trazado 1283" d="M3353.96,474.076c-.659-.551-3.978-18.372-3.978-18.372a.672.672,0,0,1,.535-.783.662.662,0,0,1,.786.539l3.319,17.821a.671.671,0,0,1-.535.783A.615.615,0,0,1,3353.96,474.076Z" transform="translate(-3349.97 -454.91)" fill="#1a1a1a"/>
      </g>
      <g id="Grupo_1247" data-name="Grupo 1247" transform="translate(3546.139 673.345)">
        <path id="Trazado_1284" data-name="Trazado 1284" d="M3357.874,473.231a.668.668,0,0,1-.67-.627c-.014-.142-.932-14.161-2.114-17.587a.673.673,0,0,1,1.273-.44c1.238,3.6,2.146,17.352,2.182,17.936a.671.671,0,0,1-.628.715Z" transform="translate(-3355.052 -454.126)" fill="#1a1a1a"/>
      </g>
      <g id="Grupo_1248" data-name="Grupo 1248" transform="translate(3264.364 402.508)">
        <path id="Trazado_1285" data-name="Trazado 1285" d="M3251.068,341.04a50.115,50.115,0,0,0-10.127-4.52c-6.785-2.329-9.641-.138-9.671-.115a.672.672,0,0,1-.855-1.038c.138-.113,3.387-2.721,10.964-.12,7.324,2.514,9.986,4.5,10.1,4.585a.672.672,0,0,1-.408,1.207Z" transform="translate(-3230.177 -334.097)" fill="#1a1a1a"/>
      </g>
      <g id="Grupo_1249" data-name="Grupo 1249" transform="translate(3269.093 394.266)">
        <path id="Trazado_1286" data-name="Trazado 1286" d="M3252.686,339.284a32.387,32.387,0,0,0-10.77-6.11c-6.663-2.284-8.554-1.058-8.574-1.045a.683.683,0,0,1-.93-.14.662.662,0,0,1,.1-.916c.22-.183,2.4-1.726,9.843.83,7.39,2.532,10.693,6.108,10.831,6.257a.673.673,0,0,1-.048.95A.662.662,0,0,1,3252.686,339.284Z" transform="translate(-3232.272 -330.445)" fill="#1a1a1a"/>
      </g>
      <g id="Grupo_1250" data-name="Grupo 1250" transform="translate(3272.987 388.34)">
        <path id="Trazado_1287" data-name="Trazado 1287" d="M3234.67,329.262a.674.674,0,0,1-.052-1.345,27.147,27.147,0,0,1,4.8,0,.671.671,0,0,1,.586.751.66.66,0,0,1-.747.587,25.48,25.48,0,0,0-4.533,0Z" transform="translate(-3233.999 -327.818)" fill="#1a1a1a"/>
      </g>
      <g id="Grupo_1251" data-name="Grupo 1251" transform="translate(3415.937 472.299)">
        <path id="Trazado_1288" data-name="Trazado 1288" d="M3298.417,376.018c-1.347-2.311-1.307-4.084-.5-5.7,1.816-3.669,6.9-5.2,7.112-5.26a.673.673,0,0,1,.384,1.291c-.05.014-4.741,1.431-6.293,4.569a5.085,5.085,0,0,0-.076,4.19.67.67,0,0,1-.384.869A.713.713,0,0,1,3298.417,376.018Z" transform="translate(-3297.35 -365.027)" fill="#1a1a1a"/>
      </g>
    </g>
  </g>
</svg>
