<svg xmlns="http://www.w3.org/2000/svg" xmlns:xlink="http://www.w3.org/1999/xlink" width="478.286" height="290.591" viewBox="0 0 478.286 290.591">
  <defs>
    <linearGradient id="linear-gradient" x1="0.5" x2="0.5" y2="1" gradientUnits="objectBoundingBox">
      <stop offset="0" stop-color="#ff5a08"/>
      <stop offset="1" stop-color="#ffbe06"/>
    </linearGradient>
    <linearGradient id="linear-gradient-2" x1="0.5" x2="0.5" y2="1" gradientUnits="objectBoundingBox">
      <stop offset="0" stop-color="#3e65b9"/>
      <stop offset="0.301" stop-color="#4476cf"/>
      <stop offset="0.691" stop-color="#4a88e6"/>
      <stop offset="0.935" stop-color="#4d8fef"/>
    </linearGradient>
    <linearGradient id="linear-gradient-5" x1="0.5" x2="0.5" y2="1" gradientUnits="objectBoundingBox">
      <stop offset="0" stop-color="#b311c4"/>
      <stop offset="1" stop-color="#d2001e"/>
    </linearGradient>
  </defs>
  <g id="Grupo_811" data-name="Grupo 811" transform="translate(-2383.924 -98.798)">
    <rect id="Rectángulo_2276" data-name="Rectángulo 2276" width="57.797" height="40.573" rx="3.447" transform="translate(2659.257 98.798)" opacity="0.18" fill="url(#linear-gradient)"/>
    <path id="Trazado_645" data-name="Trazado 645" d="M2520.913,158.92l-.2,2.059s-1.654-.153-1.947,2.332-.8,5.944-.8,5.944-4.7,1.41-4.374,2.581a36.094,36.094,0,0,0,3.019,5.086c.632.414-2.792,11.741,10.19,12.723a15.907,15.907,0,0,1,11.945-11s6.326,2.742,8.231-2.621-2.7-8.547-4.386-8.571a20.768,20.768,0,0,0-4.931,1.086s-4.978-.188-6.344-6.508a37.751,37.751,0,0,1-.813-11.109,8.808,8.808,0,0,0-1.584,4.48,25.331,25.331,0,0,0,.156,4.706Z" transform="translate(137.454 55.583)" fill="#fff"/>
    <path id="Trazado_646" data-name="Trazado 646" d="M2530.286,155.605s-6.117-7.731-8.857-9.437-5.713-2.328-7.124.567c0,0-2.572-1.692-4.293-.742a4.217,4.217,0,0,0-2.015,2.8s-2.976-.518-4.34,1.194.224,4.513,2.3,7.507,7.017,9.709,8.348,11.013,5.094,5.65,2.669,7.507-4.607-.088-7.292-.175a3.831,3.831,0,0,0-4.246,2.915c-.456,1.549,2.231,3.7,5.9,4.462a34.833,34.833,0,0,1,8.07,3.206l6.724-5.187,8.122-10.45-3.05-6.207-3.2-.361S2528.3,157.715,2530.286,155.605Z" transform="translate(126.325 49.032)" fill="#fff"/>
    <path id="Trazado_647" data-name="Trazado 647" d="M2505.511,190.574a101.736,101.736,0,0,0,2.739-10.139c.469-3.051,2.367-7.662-1.764-8.149s-4.011,4.346-4.444,5.495-1.24,3.274-3.591,2.809-3.392-4.107-4.67-8.512a119.569,119.569,0,0,0-4.391-12.711c-1.021-2.144-1.724-4.305-4.617-4a2.606,2.606,0,0,0-2.66,2.766s-2.393-.917-3.668-.167-1.492,4.062-1.492,4.062a2.79,2.79,0,0,0-2.732.055c-1.759.771-1.573,4.509-1.326,6.148a78.119,78.119,0,0,0,1.993,9.55c1.133,3.956,5.141,15.422,7.357,18.015a22.687,22.687,0,0,1,9.975-4.959C2497.8,189.85,2505.511,190.574,2505.511,190.574Z" transform="translate(94.207 60.325)" fill="#fff"/>
    <path id="Rectángulo_2277" data-name="Rectángulo 2277" d="M5.875,0H112.515a5.875,5.875,0,0,1,5.875,5.875V72.061a5.875,5.875,0,0,1-5.875,5.875H5.876A5.876,5.876,0,0,1,0,72.061V5.875A5.875,5.875,0,0,1,5.875,0Z" transform="translate(2383.924 260.952)" opacity="0.44" fill="url(#linear-gradient-2)"/>
    <path id="Trazado_648" data-name="Trazado 648" d="M2498.881,171.685H2406.7a13.141,13.141,0,0,0-13.1,13.1v6.335h118.389v-6.335A13.14,13.14,0,0,0,2498.881,171.685Z" transform="translate(9.313 77.157)" fill="#294859"/>
    <path id="Trazado_649" data-name="Trazado 649" d="M2565.281,178.044a26.274,26.274,0,0,0-19.173,15.444c-6.017,13.7-9.58,27.646-16.783,26.928s-7.236-3.331-11.115-15.187-9.31-28.418-9.31-28.418-4.295-5.114-18.227-3.322-14.708,8.81-14.708,8.81,5.34,31.592,9.541,41.881c0,0,7.618,23.887,21.927,30.03s21.774,4.633,31.451,2.574l.006,2.848s-1.973,42.613-1.739,45.065l72.307-.055s-4.822-27.093-5-38.665c-.208-13.93,2.392-31.883,2.392-31.883a7.626,7.626,0,0,1-7-5.6c-2.077-6.9,0-13.671.1-18.267s1.334-14.929-5.075-18.418-10.34-1.832-17.1-4.8S2565.541,179.772,2565.281,178.044Z" transform="translate(100.331 84.145)" opacity="0.2" fill="url(#linear-gradient)"/>
    <path id="Trazado_650" data-name="Trazado 650" d="M2518.649,163.547s-7.209,4-8.314,10.75l10.752,20.817,10.538-7.725s-2.32-3.381-1.7-9.9c0,0-6.364-.212-8.944-4.708a8.393,8.393,0,0,1-.507-8.084Z" transform="translate(133.665 68.846)" opacity="0.43" fill="url(#linear-gradient)"/>
    <path id="Trazado_651" data-name="Trazado 651" d="M2448.162,122.83l-16.414,33.345s2.9,13.3,7,17.552h19.4s6.3-9.494,6.568-17.552Zm0,35.791a5.231,5.231,0,1,1,5.232-5.232A5.229,5.229,0,0,1,2448.162,158.621Z" transform="translate(50.693 25.757)" opacity="0.33" fill="url(#linear-gradient-5)"/>
    <rect id="Rectángulo_2278" data-name="Rectángulo 2278" width="22.941" height="7.103" rx="1.593" transform="translate(2487.702 204.529)" fill="#1a1a1a"/>
    <path id="Trazado_652" data-name="Trazado 652" d="M2425.191,127.582a6.4,6.4,0,1,1-6.4-6.4A6.4,6.4,0,0,1,2425.191,127.582Z" transform="translate(27.421 23.643)" opacity="0.51" fill="url(#linear-gradient-2)"/>
    <path id="Trazado_653" data-name="Trazado 653" d="M2474.374,127.582a6.4,6.4,0,1,1-6.4-6.4A6.4,6.4,0,0,1,2474.374,127.582Z" transform="translate(81.973 23.643)" opacity="0.51" fill="url(#linear-gradient-2)"/>
    <path id="Trazado_654" data-name="Trazado 654" d="M2536.593,182.18s-8.123,1.72-11.071,8.738.054,10.434,3.469,14.466,8.641,6.217,12.034,7.165,14.794,1.386,17.672,5.9,3.341,11.025,2.882,16.667-1.816,11.519-.516,15.885,2.642,8.487,16.011,8.8,14.681-14.58,14.541-17.843a60.7,60.7,0,0,0-7.173-26.229c-6.31-11.276-12.621-12.517-17.069-14.792s-12.519-7.587-13.139-13.655a23.36,23.36,0,0,1,1.518-9.38,84.743,84.743,0,0,0,2.947-10.346s.434-10.34-3.635-13.1a31.043,31.043,0,0,0-9.172-3.936s-7.517-3.1-13.311-3.241-8.689.345-11.518,2.827a15,15,0,0,0-5.248,11.675l10.834,1.912s-1-6.959,1.7-9.236c0,0-1.567,16.066,6.847,17.307l.828.275a4.294,4.294,0,0,1,3.952-1.033c2.461.55,6.556,2.958,5.3,7.34S2538.612,183.772,2536.593,182.18Z" transform="translate(141.234 53.904)" fill="#1a1a1a"/>
    <path id="Trazado_655" data-name="Trazado 655" d="M2523.478,158.023l-.49,4.048,4.4.826s2.534-3.587,6.362-2.311,4.625,3.681,4.625,3.681l4.743.31.48-3.991Z" transform="translate(147.023 62.426)" fill="#fff"/>
    <path id="Trazado_656" data-name="Trazado 656" d="M2533.76,159.309l1.586.159-.517,4.414-1.484-.345Z" transform="translate(157.4 63.742)" fill="#fff"/>
    <circle id="Elipse_44" data-name="Elipse 44" cx="3.517" cy="3.517" r="3.517" transform="matrix(0.109, -0.994, 0.994, 0.109, 2483.359, 261.148)" fill="#fff"/>
    <path id="Trazado_657" data-name="Trazado 657" d="M2445.536,178.034a3.344,3.344,0,1,1-3.343-3.343A3.342,3.342,0,0,1,2445.536,178.034Z" transform="translate(57.908 79.998)" fill="#fff"/>
    <path id="Trazado_658" data-name="Trazado 658" d="M2451.791,178.034a3.345,3.345,0,1,1-3.345-3.343A3.344,3.344,0,0,1,2451.791,178.034Z" transform="translate(64.501 79.998)" fill="#fff"/>
    <path id="Trazado_659" data-name="Trazado 659" d="M2610.317,214.161s-10.755-24.57-36.792-38.294C2573.525,175.867,2571.8,197.3,2610.317,214.161Z" transform="translate(203.537 82.162)" fill="#294859"/>
    <path id="Trazado_660" data-name="Trazado 660" d="M2595.54,201.928s15.6-7.477,25.981-17.368,10.287-20.128,10.287-20.128-8.589,2.491-21.525,16.038S2595.6,201.5,2595.6,201.5Z" transform="translate(224.751 69.95)" opacity="0.18" fill="url(#linear-gradient-5)"/>
    <path id="Trazado_661" data-name="Trazado 661" d="M2600.564,199.932s.768-11.934-3.116-20.864a28.879,28.879,0,0,0-11.481-13.01,55.823,55.823,0,0,0,5.559,20.083C2596.6,196.212,2600.564,199.932,2600.564,199.932Z" transform="translate(215.53 71.581)" opacity="0.5" fill="url(#linear-gradient-5)"/>
    <path id="Trazado_662" data-name="Trazado 662" d="M2596.373,205.888s15.163-2.848,26.583-9.776,13.7-15.595,13.7-15.595a71.34,71.34,0,0,0-23.783,11.129C2600.923,200.219,2596.373,205.888,2596.373,205.888Z" transform="translate(225.553 86.689)" opacity="0.18" fill="url(#linear-gradient-5)"/>
    <path id="Trazado_663" data-name="Trazado 663" d="M2593.19,230.754s9.733-17.544,19.031-25.173a134.318,134.318,0,0,1,17.33-12.14s1.282,10.477-12.8,22.9C2603.783,227.772,2593.19,230.754,2593.19,230.754Z" transform="translate(222.488 100.858)" fill="#294859"/>
    <path id="Trazado_664" data-name="Trazado 664" d="M2593.142,245.647s15.748-7.146,24.218-15.493,11.655-16.806,11.936-19.06a13.216,13.216,0,0,0,0-3.728,87.779,87.779,0,0,0-22.841,18.722C2595.691,238.5,2593.142,245.647,2593.142,245.647Z" transform="translate(222.44 117.139)" opacity="0.18" fill="url(#linear-gradient-5)"/>
    <path id="Trazado_665" data-name="Trazado 665" d="M2599.433,242.047s-11.074-10.32-16.938-22.68c-6.6-13.914-2.3-23.734-2.3-23.734a54.147,54.147,0,0,1,13.422,20.844A117.14,117.14,0,0,1,2599.433,242.047Z" transform="translate(208.648 105.838)" opacity="0.18" fill="url(#linear-gradient-5)"/>
    <path id="Trazado_666" data-name="Trazado 666" d="M2602.8,238.182s-19.156-8.367-25.8-16.47-11.345-13.667-11.046-21.323c0,0,8.39,2.664,19.828,14.264A95.042,95.042,0,0,1,2602.8,238.182Z" transform="translate(196.235 110.418)" fill="#294859"/>
    <path id="Trazado_667" data-name="Trazado 667" d="M2599.726,254.327s-3.491-13.7-9.792-23.467-15.623-16.673-22.652-17.807c0,0,3.911,14.085,14.162,24.445s17.548,16.836,18.282,17.11Z" transform="translate(197.535 122.616)" fill="#294859"/>
    <path id="Trazado_668" data-name="Trazado 668" d="M2538.368,108.873c-1.276-2.185-3.365-2.183-4.639,0l-9.805,16.792c-1.277,2.185-.251,3.971,2.279,3.971h19.7c2.53,0,3.557-1.786,2.279-3.971Z" transform="translate(147.577 8.125)" fill="#fff"/>
    <rect id="Rectángulo_2279" data-name="Rectángulo 2279" width="19.449" height="19.449" transform="translate(2712.117 224.071)" opacity="0.23" fill="url(#linear-gradient)"/>
    <path id="Trazado_669" data-name="Trazado 669" d="M2545.328,192.943s-7.948,45.128-37.75,57.882l.864-13.143a56.958,56.958,0,0,0,25.84-19.823C2544.639,203.149,2545.328,192.943,2545.328,192.943Z" transform="translate(131.206 103.248)" fill="#1a1a1a"/>
    <path id="Trazado_670" data-name="Trazado 670" d="M2522.058,162.932c1.157-17.289,17.3-14.513,17.89-14.4a32.181,32.181,0,0,0-7.371-1.252c-5.794-.137-8.689.345-11.518,2.827a15,15,0,0,0-5.248,11.675l5.573.984Z" transform="translate(139.539 51.233)" fill="#fff"/>
    <path id="Trazado_671" data-name="Trazado 671" d="M2525.146,176.634c2.226-9.466,11.7-10.923,11.7-10.923-1.871.234-3.506.067-4.431-.663,0,0-8.123,1.72-11.071,8.738s.054,10.434,3.469,14.466,8.641,6.217,12.034,7.165a34.148,34.148,0,0,0,3.375.62C2534.061,193.723,2522.341,188.566,2525.146,176.634Z" transform="translate(144.006 70.427)" fill="#fff"/>
    <path id="Trazado_672" data-name="Trazado 672" d="M2529.191,220.51s-10.349,4.957-20.8,3.995-16.4-4.315-16.4-4.315,2.9-11.657,18.6-11.757S2529.191,220.51,2529.191,220.51Z" transform="translate(114.66 115.928)" fill="#1a1a1a"/>
    <g id="Grupo_729" data-name="Grupo 729" transform="translate(2665.385 219.938)">
      <g id="Grupo_728" data-name="Grupo 728">
        <g id="Grupo_726" data-name="Grupo 726" transform="translate(24.184 2.527)">
          <path id="Trazado_673" data-name="Trazado 673" d="M2535.347,164.47c-.065-.006-1.9-.222-1.9-.222a.547.547,0,0,1-.479-.6.5.5,0,0,1,.607-.479l1.3.153.356-3.023-1.3-.151a.546.546,0,0,1-.477-.607.508.508,0,0,1,.6-.479l1.839.214c.48.609,0,4.715,0,4.715C2535.589,164.429,2535.467,164.47,2535.347,164.47Z" transform="translate(-2532.961 -159.048)" fill="#1a1a1a"/>
        </g>
        <g id="Grupo_727" data-name="Grupo 727">
          <path id="Trazado_674" data-name="Trazado 674" d="M2545.376,165.5c-.065-.006-5.123-.6-5.123-.6a.548.548,0,0,1-.479-.607.5.5,0,0,1,.607-.479l4.515.532.355-3.029-19.437-2.479-3.653,1.307,2.867,1.869,5.051.593a.545.545,0,0,1,.476.607.528.528,0,0,1-.6.477l-5.177-.607c-.238-.084-4.134-2.627-4.134-2.627.116-.972,4.927-2.693,4.927-2.693.256-.027,20.36,2.536,20.36,2.536a.545.545,0,0,1,.469.6l-.48,4.111C2545.618,165.453,2545.5,165.5,2545.376,165.5Z" transform="translate(-2520.641 -157.761)" fill="#1a1a1a"/>
        </g>
      </g>
    </g>
    <g id="Grupo_730" data-name="Grupo 730" transform="translate(2670.408 114.813)">
      <path id="Trazado_675" data-name="Trazado 675" d="M2546.174,130.452h-19.7a2.95,2.95,0,0,1-2.75-4.794l9.8-16.794a2.995,2.995,0,0,1,5.581,0l9.816,16.794a2.95,2.95,0,0,1-2.75,4.794Zm-9.855-22.4a2.3,2.3,0,0,0-1.849,1.366l-9.805,16.794a1.887,1.887,0,0,0,1.807,3.149h19.7a1.887,1.887,0,0,0,1.808-3.149l-9.815-16.794A2.3,2.3,0,0,0,2536.319,108.049Z" transform="translate(-2523.094 -106.956)" fill="#1a1a1a"/>
    </g>
    <g id="Grupo_731" data-name="Grupo 731" transform="translate(2433.646 388.295)">
      <path id="Trazado_676" data-name="Trazado 676" d="M2700.723,240.954H2409.8a.547.547,0,0,1,0-1.093h290.925a.547.547,0,0,1,0,1.093Z" transform="translate(-2409.252 -239.861)" fill="#1a1a1a"/>
    </g>
    <g id="Grupo_732" data-name="Grupo 732" transform="translate(2782.309 388.295)">
      <path id="Trazado_677" data-name="Trazado 677" d="M2629.516,240.954h-52.78a.547.547,0,0,1,0-1.093h52.78a.547.547,0,0,1,0,1.093Z" transform="translate(-2576.192 -239.861)" fill="#1a1a1a"/>
    </g>
    <g id="Grupo_733" data-name="Grupo 733" transform="translate(2659.57 216.112)">
      <path id="Trazado_678" data-name="Trazado 678" d="M2523.336,159.019a4.076,4.076,0,0,0-4.5-1.832.55.55,0,0,1-.694-.344.545.545,0,0,1,.34-.691,4.573,4.573,0,0,1,5.318,2.034.548.548,0,0,1-.466.832Z" transform="translate(-2518.114 -155.944)" fill="#1a1a1a"/>
    </g>
    <path id="Trazado_679" data-name="Trazado 679" d="M2519.546,158.2c-.424-.116-.736.037-1.032,1.584-.332,1.726.086,2.083.479,2.108s.84-.465.96-1.71S2520.1,158.35,2519.546,158.2Z" transform="translate(141.638 62.521)" fill="#1a1a1a"/>
    <g id="Grupo_734" data-name="Grupo 734" transform="translate(2673.991 222.652)">
      <path id="Trazado_680" data-name="Trazado 680" d="M2530.627,172.023a6.494,6.494,0,0,1-3.726-1.178.546.546,0,0,1,.625-.9,5.4,5.4,0,1,0-1.472-7.3.545.545,0,0,1-.754.173.553.553,0,0,1-.171-.756,6.5,6.5,0,1,1,5.5,9.953Z" transform="translate(-2525.046 -159.031)" fill="#1a1a1a"/>
    </g>
    <g id="Grupo_735" data-name="Grupo 735" transform="translate(2676.58 225.546)">
      <path id="Trazado_681" data-name="Trazado 681" d="M2530.8,167.352c-.3-.09-4.392-2.8-4.392-2.8-.025-.9,4.091-3.948,4.091-3.948a.545.545,0,1,1,.648.878l-3.489,2.587,3.441,2.275a.547.547,0,0,1-.3,1Z" transform="translate(-2526.406 -160.501)" fill="#1a1a1a"/>
    </g>
    <g id="Grupo_736" data-name="Grupo 736" transform="translate(2636.373 340.254)">
      <path id="Trazado_682" data-name="Trazado 682" d="M2507.407,263.807a.541.541,0,0,1-.543-.54c-.132-10.363,1.654-45.852,1.733-47.356a.534.534,0,0,1,.574-.518.544.544,0,0,1,.517.571c-.077,1.506-1.861,36.961-1.734,47.291a.547.547,0,0,1-.538.552Z" transform="translate(-2506.857 -215.389)" fill="#1a1a1a"/>
    </g>
    <g id="Grupo_737" data-name="Grupo 737" transform="translate(2643.193 231.794)">
      <path id="Trazado_683" data-name="Trazado 683" d="M2519.975,194c-3.72-6.307-6.282-11.661-9.523-18.434l-.367-.768c-.035-.52.414-6.525,8.9-11.457a.546.546,0,0,1,.55.944c-7.271,4.225-8.277,9.311-8.392,10.183,3.531,7.387,6.085,12.729,9.315,18.726a.546.546,0,0,1-.222.74A.557.557,0,0,1,2519.975,194Z" transform="translate(-2510.083 -163.267)" fill="#1a1a1a"/>
    </g>
    <g id="Grupo_738" data-name="Grupo 738" transform="translate(2706.677 317.457)">
      <path id="Trazado_684" data-name="Trazado 684" d="M2546.786,275.109c-.6-.7-6.924-28.163-5.554-48.7.153-2.275.391-4.794.638-7.464.473-5.012.958-10.2.969-14.625a.545.545,0,1,1,1.09,0c-.01,4.476-.5,9.686-.974,14.723-.248,2.662-.483,5.175-.632,7.436-1.359,20.369,4.929,47.68,4.994,47.953a.546.546,0,0,1-.408.656A.444.444,0,0,1,2546.786,275.109Z" transform="translate(-2541.039 -203.776)" fill="#1a1a1a"/>
    </g>
    <g id="Grupo_739" data-name="Grupo 739" transform="translate(2574.723 253.717)">
      <path id="Trazado_685" data-name="Trazado 685" d="M2526.075,259.243c-1.483,0-3-.065-4.563-.194l-1.611-.173a35.908,35.908,0,0,1-21.1-10.377c-8.719-8.893-13.017-21.176-16.075-32.016-3.335-11.826-4.955-21.41-7-33.545.152-.954,4-8.7,17.482-9.918,12.144-1.088,16.192,3.488,16.355,3.685.106.183,11.678,35.552,11.678,35.552.917,2.841,1.782,5.524,4.364,7a7,7,0,0,0,8.011-.858c2.277-1.9,3.547-4.672,4.76-7.587.591-1.435,1.172-2.878,1.755-4.327a130.5,130.5,0,0,1,6.259-13.977c3.489-6.4,7.787-10.762,12.786-12.97a20.987,20.987,0,0,1,6.276-1.786.529.529,0,0,1,.616.471.549.549,0,0,1-.469.613,20.042,20.042,0,0,0-5.984,1.7c-4.768,2.108-8.9,6.313-12.271,12.5a131.284,131.284,0,0,0-6.2,13.861c-.583,1.449-1.166,2.9-1.761,4.335-1.213,2.925-2.6,5.954-5.065,8.009a8.076,8.076,0,0,1-9.256.968c-2.948-1.682-3.922-4.7-4.863-7.611l-4.019-12.309-7.514-22.939c-.552-.548-4.648-4.2-15.363-3.235-11.828,1.064-15.93,7.483-16.521,8.53,2.063,12.22,3.679,21.781,7,33.547,3.019,10.709,7.258,22.831,15.8,31.549a34.785,34.785,0,0,0,20.461,10.053l1.584.173q2.281.191,4.446.188c39.938,0,49.639-46.836,49.735-47.328a.538.538,0,0,1,.642-.428.545.545,0,0,1,.428.64C2576.772,211.532,2566.89,259.243,2526.075,259.243Z" transform="translate(-2475.719 -172.853)" fill="#1a1a1a"/>
    </g>
    <g id="Grupo_740" data-name="Grupo 740" transform="translate(2649.922 214.185)">
      <path id="Trazado_686" data-name="Trazado 686" d="M2527.061,186.541c-4.27-.444-7.267-1.955-8.963-4.5-2.209-3.31-1.492-7.285-1.214-8.455-.887-.85-3.6-3.594-3.577-5.41.016-1.441,3.609-3.086,5.248-3.761.852-.828,1.608-5,1.881-7.756l.195-1.47a.538.538,0,0,1,.614-.467.545.545,0,0,1,.467.614l-.194,1.449c-.116,1.188-.783,7.275-2.326,8.526-2.546,1.064-4.721,2.375-4.793,2.884-.012,1.172,2.12,3.575,3.469,4.815.139.6-1.136,5.022,1.145,8.433,1.508,2.256,4.234,3.6,8.108,4a.547.547,0,0,1-.057,1.091Z" transform="translate(-2513.307 -154.719)" fill="#1a1a1a"/>
    </g>
    <g id="Grupo_742" data-name="Grupo 742" transform="translate(2776.693 157.71)" opacity="0.4">
      <g id="Grupo_741" data-name="Grupo 741">
        <path id="Trazado_687" data-name="Trazado 687" d="M2575.771,132.109a2.377,2.377,0,1,0-2.377-2.377A2.378,2.378,0,0,0,2575.771,132.109Z" transform="translate(-2573.271 -127.228)" fill="url(#linear-gradient)"/>
        <path id="Trazado_688" data-name="Trazado 688" d="M2585.246,132.294a2.5,2.5,0,1,0-2.5-2.5A2.5,2.5,0,0,0,2585.246,132.294Z" transform="translate(-2564.262 -127.29)" fill="url(#linear-gradient)"/>
        <path id="Trazado_689" data-name="Trazado 689" d="M2594.573,132.019a2.317,2.317,0,1,0-2.316-2.316A2.317,2.317,0,0,0,2594.573,132.019Z" transform="translate(-2555.104 -127.199)" fill="url(#linear-gradient)"/>
        <path id="Trazado_690" data-name="Trazado 690" d="M2575.832,141.709a2.5,2.5,0,1,0-2.5-2.5A2.5,2.5,0,0,0,2575.832,141.709Z" transform="translate(-2573.331 -118.22)" fill="url(#linear-gradient)"/>
        <path id="Trazado_691" data-name="Trazado 691" d="M2585.307,141.892a2.625,2.625,0,1,0-2.623-2.623A2.624,2.624,0,0,0,2585.307,141.892Z" transform="translate(-2564.323 -118.282)" fill="url(#linear-gradient)"/>
        <path id="Trazado_692" data-name="Trazado 692" d="M2594.632,141.617a2.44,2.44,0,1,0-2.438-2.438A2.44,2.44,0,0,0,2594.632,141.617Z" transform="translate(-2555.164 -118.192)" fill="url(#linear-gradient)"/>
        <path id="Trazado_693" data-name="Trazado 693" d="M2575.742,150.849a2.316,2.316,0,1,0-2.317-2.316A2.317,2.317,0,0,0,2575.742,150.849Z" transform="translate(-2573.241 -109.062)" fill="url(#linear-gradient)"/>
        <path id="Trazado_694" data-name="Trazado 694" d="M2585.217,151.033a2.44,2.44,0,1,0-2.438-2.44A2.44,2.44,0,0,0,2585.217,151.033Z" transform="translate(-2564.233 -109.123)" fill="url(#linear-gradient)"/>
        <path id="Trazado_695" data-name="Trazado 695" d="M2594.552,150.789a2.276,2.276,0,1,0-2.275-2.277A2.275,2.275,0,0,0,2594.552,150.789Z" transform="translate(-2555.084 -109.042)" fill="url(#linear-gradient)"/>
      </g>
    </g>
    <g id="Grupo_743" data-name="Grupo 743" transform="translate(2448.151 162.788)">
      <path id="Trazado_696" data-name="Trazado 696" d="M2417.187,207.367a.544.544,0,0,1-.545-.546v-63.7a13.664,13.664,0,0,1,13.649-13.649h23a.547.547,0,0,1,0,1.093h-23a12.573,12.573,0,0,0-12.56,12.556v63.7A.544.544,0,0,1,2417.187,207.367Z" transform="translate(-2416.641 -129.467)" fill="#1a1a1a"/>
    </g>
    <g id="Grupo_744" data-name="Grupo 744" transform="translate(2448.151 339.697)">
      <path id="Trazado_697" data-name="Trazado 697" d="M2594.916,228.476H2430.291c-7.271,0-13.649-5.991-13.649-12.823a.545.545,0,1,1,1.089,0c0,6.251,5.868,11.73,12.56,11.73h164.626a.547.547,0,0,1,0,1.093Z" transform="translate(-2416.641 -215.105)" fill="#1a1a1a"/>
    </g>
    <g id="Grupo_745" data-name="Grupo 745" transform="translate(2720.887 279.695)">
      <path id="Trazado_698" data-name="Trazado 698" d="M2561.6,257.913h-13.457a.547.547,0,0,1,0-1.093H2561.6a12.575,12.575,0,0,0,12.56-12.556V185.086a.544.544,0,1,1,1.089,0v59.178A13.664,13.664,0,0,1,2561.6,257.913Z" transform="translate(-2547.595 -184.54)" fill="#1a1a1a"/>
    </g>
    <g id="Grupo_746" data-name="Grupo 746" transform="translate(2514.482 162.221)">
      <path id="Trazado_699" data-name="Trazado 699" d="M2673.669,172.139a.543.543,0,0,1-.544-.546V143.116a12.574,12.574,0,0,0-12.56-12.556H2445.378a.547.547,0,0,1,0-1.093h215.187a13.664,13.664,0,0,1,13.649,13.649v28.477A.545.545,0,0,1,2673.669,172.139Z" transform="translate(-2444.834 -129.467)" fill="#1a1a1a"/>
    </g>
    <g id="Grupo_747" data-name="Grupo 747" transform="translate(2402.362 250.344)">
      <path id="Trazado_700" data-name="Trazado 700" d="M2500.717,250.438H2405.4a12.1,12.1,0,0,1-12.082-12.083V183.487a12.093,12.093,0,0,1,12.082-12.081h95.32a12.094,12.094,0,0,1,12.082,12.081v54.869A12.1,12.1,0,0,1,2500.717,250.438ZM2405.4,172.5a11,11,0,0,0-10.99,10.987v54.869a11,11,0,0,0,10.99,10.989h95.32a11,11,0,0,0,10.99-10.989V183.487a11,11,0,0,0-10.99-10.987Z" transform="translate(-2393.316 -171.406)" fill="#1a1a1a"/>
    </g>
    <g id="Grupo_748" data-name="Grupo 748" transform="translate(2654.724 105.943)">
      <path id="Trazado_701" data-name="Trazado 701" d="M2560.747,143.671h-37.974a7.8,7.8,0,0,1-7.788-7.788V110.228a7.8,7.8,0,0,1,7.788-7.79h43.035a7.8,7.8,0,0,1,7.788,7.79v21.117a.546.546,0,0,1-1.092,0V110.228a6.7,6.7,0,0,0-6.7-6.7h-43.035a6.7,6.7,0,0,0-6.7,6.7v25.656a6.7,6.7,0,0,0,6.7,6.694h37.974a.547.547,0,0,1,0,1.093Z" transform="translate(-2514.985 -102.438)" fill="#1a1a1a"/>
    </g>
    <g id="Grupo_767" data-name="Grupo 767" transform="translate(2761.619 239.161)">
      <g id="Grupo_749" data-name="Grupo 749" transform="translate(0 71.023)">
        <path id="Trazado_702" data-name="Trazado 702" d="M2603.065,239.035c-39.592-18.127-37.47-38.123-37.36-38.964,24.84,11.635,37.725,37.915,37.851,38.18C2603.43,238.936,2603.255,239.035,2603.065,239.035Zm-36.3-38.017c.057,3.891,2.277,21.139,35.322,36.757C2599.57,233.027,2587.424,211.74,2566.763,201.017Z" transform="translate(-2565.653 -200.071)" fill="#1a1a1a"/>
      </g>
      <g id="Grupo_750" data-name="Grupo 750" transform="translate(53.919 84.859)">
        <path id="Trazado_703" data-name="Trazado 703" d="M2593.16,246.432c-.922-1.148,13.748-28.068,36.181-39.313.892,1.256,2.914,21.156-35.951,39.262A.532.532,0,0,1,2593.16,246.432Zm35.9-37.945c-19.258,10.041-32.589,31.661-35.44,36.578C2626.643,229.463,2628.981,212.37,2629.063,208.487Z" transform="translate(-2593.119 -207.119)" fill="#1a1a1a"/>
      </g>
      <g id="Grupo_751" data-name="Grupo 751" transform="translate(2.674 96.598)">
        <path id="Trazado_704" data-name="Trazado 704" d="M2599.982,254.829a10.609,10.609,0,0,1-1.387-.876c-5.886-4.368-25.542-20.2-31.579-40.791.834-.658,23.875,3.184,33.495,40.988C2600.2,254.8,2600.09,254.829,2599.982,254.829Zm-31.647-41.082c6.333,20.086,26.28,35.868,30.732,39.2C2590.533,221.36,2572.51,214.85,2568.334,213.747Z" transform="translate(-2567.015 -213.099)" fill="#1a1a1a"/>
      </g>
      <g id="Grupo_752" data-name="Grupo 752" transform="translate(25.121 61.785)">
        <path id="Trazado_705" data-name="Trazado 705" d="M2599.79,242.85c-29.407-28.716-20-46.732-19.585-47.485,17.256,16.924,20.109,41.834,20.512,46.653C2599.992,242.823,2599.89,242.85,2599.79,242.85ZM2580.852,196.6c-1.374,3.557-5.82,20.222,18.7,44.7C2598.938,235.114,2595.732,212.548,2580.852,196.6Z" transform="translate(-2578.45 -195.365)" fill="#1a1a1a"/>
      </g>
      <g id="Grupo_753" data-name="Grupo 753" transform="translate(14.864 23.447)">
        <path id="Trazado_706" data-name="Trazado 706" d="M2610.6,214.737c-.222-.049-1.4-.573-1.4-.573-37.776-17.978-36.033-37.507-35.94-38.328,24.619,11.518,37.3,37.036,37.827,38.116C2610.884,214.678,2610.742,214.737,2610.6,214.737Zm-36.262-37.955c.133,3.879,2.66,20.756,35.053,36.26C2606.422,207.515,2594.517,187.255,2574.335,176.782Z" transform="translate(-2573.225 -175.836)" fill="#1a1a1a"/>
      </g>
      <g id="Grupo_754" data-name="Grupo 754" transform="translate(39.331 4.252)">
        <path id="Trazado_707" data-name="Trazado 707" d="M2600.832,200.481c-.567-.377-14.882-17.968-15.144-34.413,1.376-.287,16.488,5.573,15.947,33.577C2601.14,200.41,2600.99,200.481,2600.832,200.481Zm-14.024-33.549c.64,13.718,10.944,28.1,13.747,31.763C2600.7,175.85,2589.818,168.52,2586.807,166.932Z" transform="translate(-2585.688 -166.058)" fill="#1a1a1a"/>
      </g>
      <g id="Grupo_755" data-name="Grupo 755" transform="translate(58.278)">
        <path id="Trazado_708" data-name="Trazado 708" d="M2595.734,203a2.6,2.6,0,0,1-.369-1.781c3.313-6.256,15.565-26.9,36.368-37.324.881,1.256,2.65,21-35.766,39.052A.54.54,0,0,1,2595.734,203Zm.7-1.527c32.371-15.455,34.886-32.326,35.015-36.207C2611.5,175.616,2599.674,195.437,2596.429,201.47Z" transform="translate(-2595.339 -163.892)" fill="#1a1a1a"/>
      </g>
      <g id="Grupo_756" data-name="Grupo 756" transform="translate(54.274 57.171)">
        <path id="Trazado_709" data-name="Trazado 709" d="M2593.3,232.126c.538-3.649,13.263-27.711,36.011-39.111.881,1.258,2.65,21.007-35.78,39.06A.558.558,0,0,1,2593.3,232.126Zm35.727-37.739c-20.189,10.479-32.208,30.984-35.055,36.27C2626.457,215.114,2628.911,198.256,2629.027,194.387Z" transform="translate(-2593.3 -193.015)" fill="#1a1a1a"/>
      </g>
      <g id="Grupo_757" data-name="Grupo 757" transform="translate(60.177 32.106)">
        <path id="Trazado_710" data-name="Trazado 710" d="M2596.319,206.772c-.567-1.374,18.524-21.317,40.275-26.525.549,1.347-2.688,18.514-39.87,26.4A.917.917,0,0,1,2596.319,206.772Zm39.629-25.24c-18.362,4.759-34.655,19.929-38.657,23.875C2628.294,198.626,2634.771,185.051,2635.948,181.533Z" transform="translate(-2596.307 -180.247)" fill="#1a1a1a"/>
      </g>
      <g id="Grupo_758" data-name="Grupo 758" transform="translate(44.892 38.011)">
        <path id="Trazado_711" data-name="Trazado 711" d="M2589.067,295.472a.56.56,0,0,1-.542-.613l13.234-111.121a.546.546,0,0,1,1.085.128l-13.235,111.125A.544.544,0,0,1,2589.067,295.472Z" transform="translate(-2588.521 -183.255)" fill="#1a1a1a"/>
      </g>
      <g id="Grupo_759" data-name="Grupo 759" transform="translate(36.867 108.895)">
        <path id="Trazado_712" data-name="Trazado 712" d="M2586.836,260.7c-.544-.522-2.4-40.764-2.4-40.764a.546.546,0,0,1,.518-.569.59.59,0,0,1,.573.518l1.857,40.244a.546.546,0,0,1-.52.569Z" transform="translate(-2584.433 -219.363)" fill="#1a1a1a"/>
      </g>
      <g id="Grupo_760" data-name="Grupo 760" transform="translate(35.094 137.236)">
        <path id="Trazado_713" data-name="Trazado 713" d="M2584.461,246.739a.55.55,0,0,1-.546-.53l-.385-11.847a.546.546,0,0,1,1.091-.033l.386,11.845a.545.545,0,0,1-.527.563Z" transform="translate(-2583.53 -233.8)" fill="#1a1a1a"/>
      </g>
      <g id="Grupo_761" data-name="Grupo 761" transform="translate(51.556 123.005)">
        <path id="Trazado_714" data-name="Trazado 714" d="M2592.463,253.721a.554.554,0,0,1-.546-.575l1.27-26.074a.522.522,0,0,1,.569-.518.544.544,0,0,1,.52.573l-1.27,26.074A.543.543,0,0,1,2592.463,253.721Z" transform="translate(-2591.916 -226.551)" fill="#1a1a1a"/>
      </g>
      <g id="Grupo_762" data-name="Grupo 762" transform="translate(46.139 107.256)">
        <path id="Trazado_715" data-name="Trazado 715" d="M2591.91,228.563c-.53-.414-2.739-9.36-2.739-9.36a.546.546,0,0,1,1.061-.263l2.206,8.946a.542.542,0,0,1-.4.662A.607.607,0,0,1,2591.91,228.563Z" transform="translate(-2589.156 -218.528)" fill="#1a1a1a"/>
      </g>
      <g id="Grupo_763" data-name="Grupo 763" transform="translate(50.679 95.04)">
        <path id="Trazado_716" data-name="Trazado 716" d="M2592.009,218.928c-.51-.186-.621-.514-.491-.783l2.7-5.534a.546.546,0,1,1,.981.479l-2.7,5.532A.547.547,0,0,1,2592.009,218.928Z" transform="translate(-2591.469 -212.305)" fill="#1a1a1a"/>
      </g>
      <g id="Grupo_764" data-name="Grupo 764" transform="translate(51.691 61.258)">
        <path id="Trazado_717" data-name="Trazado 717" d="M2593.971,212.879c-.546-.5-1.985-17.191-1.985-17.191a.547.547,0,0,1,1.09-.094l1.439,16.692a.545.545,0,0,1-.494.591Z" transform="translate(-2591.984 -195.097)" fill="#1a1a1a"/>
      </g>
      <g id="Grupo_765" data-name="Grupo 765" transform="translate(53.929 37.579)">
        <path id="Trazado_718" data-name="Trazado 718" d="M2596.094,197.27c-.533-.448-2.96-13.587-2.96-13.587a.545.545,0,1,1,1.072-.2l2.425,13.141a.541.541,0,0,1-.436.634A.445.445,0,0,1,2596.094,197.27Z" transform="translate(-2593.125 -183.035)" fill="#1a1a1a"/>
      </g>
      <g id="Grupo_766" data-name="Grupo 766" transform="translate(54.425 57.385)">
        <path id="Trazado_719" data-name="Trazado 719" d="M2593.918,205.847c-.492-.161-.62-.483-.5-.76l5.008-11.633a.546.546,0,0,1,.715-.287.539.539,0,0,1,.285.715l-5.006,11.635A.548.548,0,0,1,2593.918,205.847Z" transform="translate(-2593.377 -193.124)" fill="#1a1a1a"/>
      </g>
    </g>
    <g id="Grupo_768" data-name="Grupo 768" transform="translate(2410.405 268.129)">
      <path id="Trazado_720" data-name="Trazado 720" d="M2497.545,182.4h-99.588a.547.547,0,0,1,0-1.093h99.588a.547.547,0,0,1,0,1.093Z" transform="translate(-2397.413 -181.308)" fill="#1a1a1a"/>
    </g>
    <g id="Grupo_769" data-name="Grupo 769" transform="translate(2509.223 254.314)">
      <path id="Trazado_721" data-name="Trazado 721" d="M2448.628,181.941a3.721,3.721,0,1,1,3.717-3.722A3.724,3.724,0,0,1,2448.628,181.941Zm0-6.349a2.628,2.628,0,1,0,2.627,2.627A2.632,2.632,0,0,0,2448.628,175.592Z" transform="translate(-2444.912 -174.499)" fill="#1a1a1a"/>
    </g>
    <g id="Grupo_770" data-name="Grupo 770" transform="translate(2496.372 254.314)">
      <path id="Trazado_722" data-name="Trazado 722" d="M2442.379,181.941a3.721,3.721,0,1,1,3.717-3.722A3.725,3.725,0,0,1,2442.379,181.941Zm0-6.349a2.628,2.628,0,1,0,2.625,2.627A2.632,2.632,0,0,0,2442.379,175.592Z" transform="translate(-2438.657 -174.499)" fill="#1a1a1a"/>
    </g>
    <g id="Grupo_771" data-name="Grupo 771" transform="translate(2483.528 254.314)">
      <path id="Trazado_723" data-name="Trazado 723" d="M2436.122,181.941a3.721,3.721,0,1,1,3.716-3.722A3.724,3.724,0,0,1,2436.122,181.941Zm0-6.349a2.628,2.628,0,1,0,2.626,2.627A2.63,2.63,0,0,0,2436.122,175.592Z" transform="translate(-2432.405 -174.499)" fill="#1a1a1a"/>
    </g>
    <g id="Grupo_778" data-name="Grupo 778" transform="translate(2481.886 148.107)">
      <g id="Grupo_772" data-name="Grupo 772">
        <path id="Trazado_724" data-name="Trazado 724" d="M2439.009,174.563c-5.514-7.152-7.454-17.564-7.536-18,.049-.338,16.447-33.718,16.447-33.718a.542.542,0,0,1,.734-.249.549.549,0,0,1,.247.73l-16.319,33.216c.276,1.4,2.293,10.911,6.864,17.156a.54.54,0,0,1-.117.762A.53.53,0,0,1,2439.009,174.563Z" transform="translate(-2431.473 -122.533)" fill="#1a1a1a"/>
      </g>
      <g id="Grupo_773" data-name="Grupo 773" transform="translate(16.393 0.002)">
        <path id="Trazado_725" data-name="Trazado 725" d="M2450.514,174.355c-.562-.275-.619-.616-.446-.862,4.446-6.252,6.084-15.591,6.3-16.945l-16.488-33.225a.545.545,0,1,1,.975-.485l16.569,33.381c-.01.752-1.536,10.972-6.464,17.907A.552.552,0,0,1,2450.514,174.355Z" transform="translate(-2439.824 -122.535)" fill="#1a1a1a"/>
      </g>
      <g id="Grupo_774" data-name="Grupo 774" transform="translate(6.991 50.934)">
        <path id="Trazado_726" data-name="Trazado 726" d="M2454.979,149.572h-19.4a.547.547,0,0,1,0-1.093h19.4a.547.547,0,0,1,0,1.093Z" transform="translate(-2435.034 -148.479)" fill="#1a1a1a"/>
      </g>
      <g id="Grupo_775" data-name="Grupo 775" transform="translate(5.116 53.9)">
        <path id="Trazado_727" data-name="Trazado 727" d="M2454.2,158.188h-16.453a3.678,3.678,0,0,1-3.673-3.673v-.852a3.677,3.677,0,0,1,3.673-3.673H2454.2a3.677,3.677,0,0,1,3.671,3.673v.852A3.679,3.679,0,0,1,2454.2,158.188Zm-16.453-7.106a2.587,2.587,0,0,0-2.583,2.581v.852a2.586,2.586,0,0,0,2.583,2.58H2454.2a2.586,2.586,0,0,0,2.582-2.58v-.852a2.586,2.586,0,0,0-2.582-2.581Z" transform="translate(-2434.08 -149.99)" fill="#1a1a1a"/>
      </g>
      <g id="Grupo_776" data-name="Grupo 776" transform="translate(11.178 25.366)">
        <path id="Trazado_728" data-name="Trazado 728" d="M2442.942,147.008a5.776,5.776,0,1,1,5.776-5.777A5.783,5.783,0,0,1,2442.942,147.008Zm0-10.461a4.685,4.685,0,1,0,4.684,4.684A4.691,4.691,0,0,0,2442.942,136.546Z" transform="translate(-2437.167 -135.455)" fill="#1a1a1a"/>
      </g>
      <g id="Grupo_777" data-name="Grupo 777" transform="translate(16.41 0.69)">
        <path id="Trazado_729" data-name="Trazado 729" d="M2440.376,148.256a.546.546,0,0,1-.544-.546V123.433a.545.545,0,1,1,1.09,0V147.71A.547.547,0,0,1,2440.376,148.256Z" transform="translate(-2439.832 -122.885)" fill="#1a1a1a"/>
      </g>
    </g>
    <g id="Grupo_779" data-name="Grupo 779" transform="translate(2491.438 138.825)">
      <path id="Trazado_730" data-name="Trazado 730" d="M2448.138,133.419h-.87a.547.547,0,0,1,0-1.093h.87a2.248,2.248,0,0,0,2.248-2.246v-7.55a2.251,2.251,0,0,0-2.248-2.25h-8.586a2.251,2.251,0,0,0-2.248,2.25v7.55a2.249,2.249,0,0,0,2.248,2.246h1.064a.547.547,0,0,1,0,1.093h-1.064a3.342,3.342,0,0,1-3.337-3.339v-7.55a3.343,3.343,0,0,1,3.337-3.341h8.586a3.343,3.343,0,0,1,3.337,3.341v7.55A3.342,3.342,0,0,1,2448.138,133.419Z" transform="translate(-2436.214 -119.188)" fill="#1a1a1a"/>
    </g>
    <g id="Grupo_780" data-name="Grupo 780" transform="translate(2445.992 116.732)">
      <path id="Trazado_731" data-name="Trazado 731" d="M2416.088,135.649a.561.561,0,0,1-.541-.616c1.969-15.7,12.21-27.1,24.354-27.1,9.84,0,18.728,7.65,22.651,19.488a.548.548,0,0,1-.349.689.543.543,0,0,1-.691-.345c-3.767-11.384-12.251-18.74-21.61-18.74-11.585,0-21.372,11-23.271,26.147A.549.549,0,0,1,2416.088,135.649Z" transform="translate(-2415.542 -107.934)" fill="#1a1a1a"/>
    </g>
    <g id="Grupo_781" data-name="Grupo 781" transform="translate(2519.324 156.421)">
      <path id="Trazado_732" data-name="Trazado 732" d="M2455.306,154.636a19.244,19.244,0,0,1-5.235-.732.546.546,0,1,1,.3-1.05,18.019,18.019,0,0,0,4.935.687c11.646,0,21.443-11.064,23.292-26.311a.529.529,0,0,1,.609-.475.546.546,0,0,1,.477.607C2477.768,143.164,2467.514,154.636,2455.306,154.636Z" transform="translate(-2449.675 -126.746)" fill="#1a1a1a"/>
    </g>
    <g id="Grupo_782" data-name="Grupo 782" transform="translate(2441.159 144.084)">
      <path id="Trazado_733" data-name="Trazado 733" d="M2418.134,131.981a5.057,5.057,0,1,1,5.055-5.059A5.062,5.062,0,0,1,2418.134,131.981Zm0-9.02a3.963,3.963,0,1,0,3.965,3.962A3.967,3.967,0,0,0,2418.134,122.96Z" transform="translate(-2413.079 -121.867)" fill="#1a1a1a"/>
    </g>
    <g id="Grupo_783" data-name="Grupo 783" transform="translate(2544.915 144.084)">
      <path id="Trazado_734" data-name="Trazado 734" d="M2467.319,131.981a5.057,5.057,0,1,1,5.053-5.059A5.062,5.062,0,0,1,2467.319,131.981Zm0-9.02a3.963,3.963,0,1,0,3.963,3.962A3.967,3.967,0,0,0,2467.319,122.96Z" transform="translate(-2462.264 -121.867)" fill="#1a1a1a"/>
    </g>
    <g id="Grupo_789" data-name="Grupo 789" transform="translate(2566.346 214.758)">
      <g id="Grupo_786" data-name="Grupo 786" transform="translate(9.556)">
        <g id="Grupo_785" data-name="Grupo 785">
          <g id="Grupo_784" data-name="Grupo 784">
            <path id="Trazado_735" data-name="Trazado 735" d="M2501.324,191.256c-.507-.186-.622-.512-.5-.783a36.98,36.98,0,0,0,1.524-5.74c.379-1.712.732-3.329,1.04-4.2.63-1.775,1.386-3.907.9-5.589a2.389,2.389,0,0,0-1.164-1.494,2.532,2.532,0,0,0-2.391.271,5.573,5.573,0,0,0-1.791,2.106,7.656,7.656,0,0,0-.475,1.463c-.419,1.6-1,3.8-2.905,4.254q-4.149.969-6.106-6.614c-.394-1.516-.924-3.512-1.529-5.528a68.7,68.7,0,0,0-4.026-10.628,5.991,5.991,0,0,0-1.59-2.413,2.241,2.241,0,0,0-1.427-.383,2.36,2.36,0,0,0-1.849.968,4.436,4.436,0,0,0-.491,3.545c.672,2.682,6.319,18.744,6.376,18.9a.548.548,0,0,1-1.033.365c-.231-.664-5.72-16.274-6.4-19a5.474,5.474,0,0,1,.669-4.454,3.445,3.445,0,0,1,2.658-1.413,3.255,3.255,0,0,1,2.148.593,6.018,6.018,0,0,1,1.752,2.466,70.432,70.432,0,0,1,4.259,11.143c.612,2.032,1.144,4.04,1.542,5.565q1.688,6.54,4.795,5.828c1.272-.306,1.733-2.061,2.1-3.469a8.162,8.162,0,0,1,.575-1.716,6.581,6.581,0,0,1,2.159-2.5,3.571,3.571,0,0,1,3.455-.334,3.462,3.462,0,0,1,1.735,2.173c.586,2.018-.235,4.333-.9,6.2a42.419,42.419,0,0,0-1.021,4.128,36.771,36.771,0,0,1-1.6,5.978A.551.551,0,0,1,2501.324,191.256Z" transform="translate(-2477.299 -154.881)" fill="#1a1a1a"/>
          </g>
        </g>
      </g>
      <g id="Grupo_787" data-name="Grupo 787" transform="translate(4.273 2.507)">
        <path id="Trazado_736" data-name="Trazado 736" d="M2481.489,181.661c-7.53-17.044-7.3-21.512-6.5-23.418a2.967,2.967,0,0,1,1.7-1.7,3.591,3.591,0,0,1,4.195.589.545.545,0,0,1-.824.715,2.568,2.568,0,0,0-2.957-.294,1.936,1.936,0,0,0-1.107,1.111c-1.121,2.707.842,9.982,6,22.242a.546.546,0,0,1-.292.717A.568.568,0,0,1,2481.489,181.661Z" transform="translate(-2474.607 -156.158)" fill="#1a1a1a"/>
      </g>
      <g id="Grupo_788" data-name="Grupo 788" transform="translate(0 6.811)">
        <path id="Trazado_737" data-name="Trazado 737" d="M2482.4,193.435c-5.906-7.79-11.182-29.735-9.729-32.937a3.429,3.429,0,0,1,2.069-2.018,3.8,3.8,0,0,1,2.815.4.546.546,0,0,1-.563.934,2.7,2.7,0,0,0-1.936-.289,2.381,2.381,0,0,0-1.388,1.425c-1.2,2.644,3.683,24.019,9.175,31.616a.549.549,0,0,1-.443.868Z" transform="translate(-2472.431 -158.35)" fill="#1a1a1a"/>
      </g>
    </g>
    <g id="Grupo_795" data-name="Grupo 795" transform="translate(2628.727 193.037)">
      <g id="Grupo_792" data-name="Grupo 792" transform="translate(0 4.235)">
        <g id="Grupo_791" data-name="Grupo 791">
          <g id="Grupo_790" data-name="Grupo 790">
            <path id="Trazado_738" data-name="Trazado 738" d="M2520.451,185.243a26.545,26.545,0,0,1-5.178-1.816,33.725,33.725,0,0,0-3.53-1.351c-1.865-.487-4.346-1.139-5.691-2.766a3.447,3.447,0,0,1-.821-2.654,3.592,3.592,0,0,1,2.222-2.67,6.578,6.578,0,0,1,3.283-.379,8.181,8.181,0,0,1,1.737.491c1.374.489,3.076,1.1,4.053.216,1.559-1.417.848-3.854-2.116-7.242-1.518-1.737-2.668-3.1-3.732-4.409a70.108,70.108,0,0,1-6.618-9.458,6.772,6.772,0,0,1-1.237-3.174,3.254,3.254,0,0,1,.715-2.106,3.45,3.45,0,0,1,2.667-1.4,5.572,5.572,0,0,1,4.058,1.955c1.883,2.114,11.3,16.8,11.7,17.425a.547.547,0,0,1-.165.754.541.541,0,0,1-.752-.165c-.1-.153-9.769-15.236-11.6-17.285a4.625,4.625,0,0,0-3.206-1.594,2.363,2.363,0,0,0-1.842.982,2.191,2.191,0,0,0-.485,1.394,5.059,5.059,0,0,0,.9,2.332,69.869,69.869,0,0,0,6.716,9.656c1.054,1.3,2.2,2.65,3.706,4.376,3.432,3.924,4.115,6.877,2.028,8.773-1.454,1.319-3.6.558-5.155,0a7.534,7.534,0,0,0-1.472-.432,5.725,5.725,0,0,0-2.754.294,2.516,2.516,0,0,0-1.564,1.822,2.381,2.381,0,0,0,.577,1.8c1.119,1.355,3.316,1.93,5.076,2.393a32.6,32.6,0,0,1,3.728,1.411,27.558,27.558,0,0,0,4.839,1.735.547.547,0,0,1-.084,1.088Z" transform="translate(-2502.822 -146.523)" fill="#1a1a1a"/>
          </g>
        </g>
      </g>
      <g id="Grupo_793" data-name="Grupo 793" transform="translate(4.943 1.171)">
        <path id="Trazado_739" data-name="Trazado 739" d="M2524.82,163.758c-7.649-11.364-12.532-17.055-15.379-17.652a1.933,1.933,0,0,0-1.557.3c-1.753,1.16-1.439,2.548-1.421,2.607a.557.557,0,0,1-.393.664.54.54,0,0,1-.664-.383c-.025-.09-.562-2.187,1.871-3.8a2.993,2.993,0,0,1,2.387-.455c2.008.42,5.811,2.731,15.615,17.878a.545.545,0,0,1-.459.842Z" transform="translate(-2505.339 -144.962)" fill="#1a1a1a"/>
      </g>
      <g id="Grupo_794" data-name="Grupo 794" transform="translate(11.25)">
        <path id="Trazado_740" data-name="Trazado 740" d="M2525.081,156.5c-6.015-7.483-10.871-10.675-12.622-10.978a2.417,2.417,0,0,0-1.963.344,2.7,2.7,0,0,0-.852,1.759c-.875.5-1.105.241-1.09-.059a3.8,3.8,0,0,1,1.252-2.548,3.424,3.424,0,0,1,2.837-.573c1.989.345,7.06,3.606,12.87,11.176a.548.548,0,0,1-.1.766A.517.517,0,0,1,2525.081,156.5Z" transform="translate(-2508.553 -144.366)" fill="#1a1a1a"/>
      </g>
    </g>
    <g id="Grupo_796" data-name="Grupo 796" transform="translate(2619.442 180.524)">
      <path id="Trazado_741" data-name="Trazado 741" d="M2528.321,154.6a.545.545,0,0,1-.546-.548v-1.885a12.573,12.573,0,0,0-12.558-12.556h-16.39a.547.547,0,0,1,0-1.093h16.39a13.663,13.663,0,0,1,13.648,13.649v1.885A.545.545,0,0,1,2528.321,154.6Z" transform="translate(-2498.284 -138.522)" fill="#1a1a1a"/>
    </g>
    <g id="Grupo_797" data-name="Grupo 797" transform="translate(2548.217 181.009)">
      <path id="Trazado_742" data-name="Trazado 742" d="M2481.477,184.641h-4.25a13.667,13.667,0,0,1-13.65-13.651V152.171a13.665,13.665,0,0,1,13.65-13.649h29.992a.547.547,0,0,1,0,1.093h-29.992a12.573,12.573,0,0,0-12.56,12.556V170.99a12.575,12.575,0,0,0,12.56,12.558h4.25a.547.547,0,0,1,0,1.093Z" transform="translate(-2463.577 -138.522)" fill="#1a1a1a"/>
    </g>
    <g id="Grupo_798" data-name="Grupo 798" transform="translate(2587.35 227.392)">
      <path id="Trazado_743" data-name="Trazado 743" d="M2525.013,162.551h-41.9a.547.547,0,0,1,0-1.093h41.9a.547.547,0,0,1,0,1.093Z" transform="translate(-2482.563 -161.458)" fill="#1a1a1a"/>
    </g>
    <g id="Grupo_799" data-name="Grupo 799" transform="translate(2665.208 236.48)">
      <path id="Trazado_744" data-name="Trazado 744" d="M2571.2,243.483a29.912,29.912,0,0,1-4.422-.346c-11.768-1.757-10.995-10.051-10.1-19.657.436-4.7.935-10.02.055-15.247-1.423-8.459-6.313-9.356-13.082-10.595-5.364-.982-12.038-2.2-18.269-7.994-6.786-6.307-6.06-12.114-4.254-15.878,2.656-5.53,9.076-9.388,11.936-8.965a.544.544,0,0,1,.457.62.561.561,0,0,1-.616.461c-2.16-.349-8.212,2.988-10.792,8.359-1.647,3.428-2.287,8.748,4.014,14.6,6,5.571,12.223,6.714,17.721,7.719,6.659,1.219,12.413,2.271,13.961,11.488.9,5.365.4,10.766-.045,15.528-.913,9.8-1.572,16.873,9.173,18.477,6.375.952,11.371-.128,14.881-3.2,4.941-4.333,5.367-11.145,5.322-13.873-.159-9.4-4.912-31-18.593-37.788-15.332-7.605-20.212-12.888-18.644-20.185a.544.544,0,1,1,1.064.23c-1.435,6.686,3.294,11.651,18.063,18.977,15.267,7.574,19.073,31.1,19.2,38.748.05,2.88-.406,10.079-5.691,14.711C2579.65,242.209,2575.844,243.483,2571.2,243.483Z" transform="translate(-2519.889 -164.77)" fill="#1a1a1a"/>
    </g>
    <g id="Grupo_800" data-name="Grupo 800" transform="translate(2655.656 198.228)">
      <path id="Trazado_745" data-name="Trazado 745" d="M2554.364,185.89a.556.556,0,0,1-.542-.6c.345-3.318,1.718-8.94,4.073-16.71.847-5.346.01-9.289-2.334-12.218-3.706-4.631-10.005-5.177-10.069-5.183-1.821-.77-13.9-4.429-19.232-2.715-9.022,2.907-9.727,11.262-9.766,13.247l9.9,1.786c-.234-2.018-.615-7.426,1.857-9.219.852.587-.049,8.952,2.521,13.95a.546.546,0,0,1-.97.5c-1.963-3.82-2.036-9.264-1.912-12.136-.867,2.234-.567,5.932-.312,7.485-.634.624-11.719-1.374-11.719-1.374-.456-.618-.94-11.735,10.064-15.283,5.656-1.82,17.7,1.82,19.747,2.674.86.084,6.938.832,10.738,5.573,2.546,3.176,3.461,7.4,2.723,12.566-3.1,10.257-3.989,14.933-4.227,17.169A.542.542,0,0,1,2554.364,185.89Z" transform="translate(-2515.673 -146.916)" fill="#1a1a1a"/>
    </g>
    <g id="Grupo_801" data-name="Grupo 801" transform="translate(2653.128 234.217)">
      <path id="Trazado_746" data-name="Trazado 746" d="M2517.672,167.185a5.768,5.768,0,0,1-2.391-.52.545.545,0,1,1,.471-.984c.112.053,2.779,1.274,4.533-.724a.547.547,0,0,1,.822.72A4.436,4.436,0,0,1,2517.672,167.185Z" transform="translate(-2514.972 -164.77)" fill="#1a1a1a"/>
    </g>
    <g id="Grupo_802" data-name="Grupo 802" transform="translate(2668.712 219.857)">
      <path id="Trazado_747" data-name="Trazado 747" d="M2523.163,163.125a.561.561,0,0,1-.538-.632l.685-4.287a.565.565,0,0,1,.625-.455.546.546,0,0,1,.451.626l-.685,4.287A.541.541,0,0,1,2523.163,163.125Z" transform="translate(-2522.618 -157.746)" fill="#1a1a1a"/>
    </g>
    <g id="Grupo_803" data-name="Grupo 803" transform="translate(2431.048 269.776)">
      <path id="Trazado_748" data-name="Trazado 748" d="M2408.473,233.038a.545.545,0,0,1-.544-.548V181.856a.545.545,0,1,1,1.089,0V232.49A.544.544,0,0,1,2408.473,233.038Z" transform="translate(-2407.929 -181.308)" fill="#1a1a1a"/>
    </g>
    <g id="Grupo_804" data-name="Grupo 804" transform="translate(2612.023 196.935)">
      <path id="Trazado_749" data-name="Trazado 749" d="M2506.466,147.71h-11.025a.547.547,0,0,1,0-1.093h11.025a.547.547,0,0,1,0,1.093Z" transform="translate(-2494.897 -146.617)" fill="#1a1a1a"/>
    </g>
    <g id="Grupo_805" data-name="Grupo 805" transform="translate(2574.019 196.935)">
      <path id="Trazado_750" data-name="Trazado 750" d="M2504.3,147.71h-27.506a.547.547,0,0,1,0-1.093H2504.3a.547.547,0,0,1,0,1.093Z" transform="translate(-2476.248 -146.617)" fill="#1a1a1a"/>
    </g>
    <g id="Grupo_806" data-name="Grupo 806" transform="translate(2574.088 210.777)">
      <path id="Trazado_751" data-name="Trazado 751" d="M2507.611,154.457h-30.817a.548.548,0,0,1,0-1.1h30.817a.548.548,0,0,1,0,1.1Z" transform="translate(-2476.248 -153.362)" fill="#1a1a1a"/>
    </g>
    <g id="Grupo_807" data-name="Grupo 807" transform="translate(2557.736 284.328)">
      <path id="Trazado_752" data-name="Trazado 752" d="M2496.032,217.774h-27.145a.543.543,0,0,1-.544-.546V189.309a.546.546,0,0,1,.544-.546h18.657a.547.547,0,1,1,0,1.093h-18.112v26.826h26.6a.546.546,0,1,1,0,1.092Z" transform="translate(-2468.343 -188.763)" fill="#1a1a1a"/>
    </g>
    <g id="Grupo_808" data-name="Grupo 808" transform="translate(2705.347 179.759)">
      <path id="Trazado_753" data-name="Trazado 753" d="M2560.159,158.661h-19.45a.546.546,0,0,1-.544-.546v-19.45a.546.546,0,0,1,.544-.546h19.45a.544.544,0,0,1,.544.546v19.45A.544.544,0,0,1,2560.159,158.661Zm-18.9-1.093h18.359V139.212h-18.359Z" transform="translate(-2540.165 -138.119)" fill="#1a1a1a"/>
    </g>
    <g id="Grupo_809" data-name="Grupo 809" transform="translate(2705.347 218.858)">
      <path id="Trazado_754" data-name="Trazado 754" d="M2560.159,177.65h-19.45a.547.547,0,0,1-.544-.548V157.654a.544.544,0,0,1,.544-.546h19.45a.543.543,0,0,1,.544.546V177.1A.546.546,0,0,1,2560.159,177.65Zm-18.9-1.093h18.359V158.2h-18.359Z" transform="translate(-2540.165 -157.108)" fill="#1a1a1a"/>
    </g>
    <g id="Grupo_810" data-name="Grupo 810" transform="translate(2605.85 323.667)">
      <path id="Trazado_755" data-name="Trazado 755" d="M2529.584,221.327c-2.619-7.273-10.136-12.081-18.8-12.081-8.41,0-15.87,4.637-18.135,11.278a.546.546,0,0,1-1.033-.353c2.415-7.075,10.3-12.018,19.167-12.018,9.137,0,17.083,5.128,19.319,12.468a.549.549,0,0,1-.363.683A.66.66,0,0,1,2529.584,221.327Z" transform="translate(-2491.589 -208.153)" fill="#1a1a1a"/>
    </g>
  </g>
</svg>
