<svg xmlns="http://www.w3.org/2000/svg" xmlns:xlink="http://www.w3.org/1999/xlink" width="549.385" height="311.438" viewBox="0 0 549.385 311.438">
  <defs>
    <linearGradient id="linear-gradient" x1="0.5" x2="0.5" y2="1" gradientUnits="objectBoundingBox">
      <stop offset="0" stop-color="#b311c4"/>
      <stop offset="1" stop-color="#d2001e"/>
    </linearGradient>
    <linearGradient id="linear-gradient-2" x1="0.5" x2="0.5" y2="1" gradientUnits="objectBoundingBox">
      <stop offset="0" stop-color="#3e65b9"/>
      <stop offset="0.301" stop-color="#4476cf"/>
      <stop offset="0.691" stop-color="#4a88e6"/>
      <stop offset="0.935" stop-color="#4d8fef"/>
    </linearGradient>
    <linearGradient id="linear-gradient-13" x1="0.5" x2="0.5" y2="1" gradientUnits="objectBoundingBox">
      <stop offset="0" stop-color="#ff5a08"/>
      <stop offset="1" stop-color="#ffbe06"/>
    </linearGradient>
  </defs>
  <g id="Grupo_1167" data-name="Grupo 1167" transform="translate(-3950.819 -102.667)">
    <g id="Grupo_1025" data-name="Grupo 1025" transform="translate(4352.464 213.758)">
      <path id="Trazado_1024" data-name="Trazado 1024" d="M4143.56,150.423h79.076s14.345,1.6,14.9,15.516v50.27s.625,14.029-14.243,16.667h-52.351l-40.121-35.342L4123.479,151Z" transform="translate(-4123.479 -150.423)" fill="#fff"/>
      <path id="Trazado_1025" data-name="Trazado 1025" d="M4145.309,169.482a14.425,14.425,0,0,1,8.637-3.289c4.859.033,6.628.7,21.511,9.947,12.564,7.8,17.956,3.929,21.2,2.908s7.212-3.81,14.039-3.736,7.266,1.81,22.039,8.465l.625.961,0,13.618s-2.245,12.134-14.243,13.606-52.55.844-52.55.844l-39.922-28.068Z" transform="translate(-4119.29 -129.509)" fill="#1a1a1a"/>
    </g>
    <path id="Trazado_1026" data-name="Trazado 1026" d="M4130.259,187.567s-17.367,3.406-26.491,5.676-20.312,6-31.371,2.27-17.011-11.2-19.181-15.681-4.99-11.771-5.614-17.663a35.43,35.43,0,0,1-16.009,5.8c-9.145.812-14.408,1.126-16.6-1.484,0,0,4.536,16.991,7.77,24s13.487,29.52,35.89,37.878,23.439,7.807,30.2,8.281,16.664,0,16.664,0-5.443,50.218-5.785,53.368-3.787,34.935-3.787,34.935l107.319,1.01,31.66-2.6,8.681-16.056-8.681-39.7L4224.821,256s-.831-9.684-2.172-14.941-6.05-21.131-10.625-28.608-6-12.836-19.216-19.368-23.869-6.413-23.869-6.413Z" transform="translate(85.111 78.912)" fill="#294859"/>
    <path id="Trazado_1027" data-name="Trazado 1027" d="M3987.077,292.885h119.114s16.488-.575,17.637-18.61-3.671-35.868-8.521-48.8-10.087-24.909-22.059-31.246-27.515-7.884-27.515-7.884l-37.627.347s-27.123,1.075-37.343,16.525-18.83,41.144-19.651,55.278S3969.756,289.288,3987.077,292.885Z" transform="translate(26.492 110.974)" opacity="0.35" fill="url(#linear-gradient)"/>
    <path id="Trazado_1028" data-name="Trazado 1028" d="M4002.561,175.387s-7.318-2.519-8.581,5.136c0,0,.389,5.8,4.56,6.155s4.666-.7,4.666-.7l.217,7.283s.526,4.739,3.852,6.2l-.822,9.726,10.254,14.911,10.186-14.911-.658-9.924s3.487-1.7,3.685-7.093.445-6,.445-6,7.255,3.513,9.237-4.611c0,0,.5-4.238-2.477-5.606a11.487,11.487,0,0,0-6.217-.756l-1.814-2.564.439-5.539s-4.338-3.005-13.58-2.854-12.752,3.948-12.752,3.948l-.168,5.946Z" transform="translate(57.241 81.657)" fill="#fff"/>
    <path id="Rectángulo_2293" data-name="Rectángulo 2293" d="M2.872,0H106.651a2.872,2.872,0,0,1,2.872,2.872v67.7a2.873,2.873,0,0,1-2.873,2.873H2.872A2.872,2.872,0,0,1,0,70.572V2.872A2.872,2.872,0,0,1,2.872,0Z" transform="translate(4019.358 330.731)" fill="#1a1a1a"/>
    <path id="Trazado_1029" data-name="Trazado 1029" d="M4170.85,165.293s14.826-.93,23.393,5.56,12.17,19.263,13.222,22.967,7.111,25.781,8.046,29.562,7.145,30.611,8.382,36.347,9.282,44.805,9.282,44.805-9.784,4.676-19.574,5.513-18.427,1.361-20.937.216l-3.1-11.126s-19.454,6.855-37.345,3.054-25.929-6.665-32.5-10.731-6.947-4.3-6.947-4.3a90.706,90.706,0,0,0,7.367-8.025c2.2-3,6.1-10.673,5.883-21.459,0,0-8.391,14.523-18.663,12.262s-16.535-10.3-15.688-17.982,4.893-18.517,11.124-34.17,12.322-31.083,12.322-31.083a75.459,75.459,0,0,1,12.8,2.659c6.8,2.035,9.511,2.777,9.511,2.777l12.095-26.668,4.837-.149s-4.51,14.35,1.487,14.015,8.579-3.822,10.72-6.474A41.94,41.94,0,0,0,4170.85,165.293Z" transform="translate(186.696 82.995)" fill="#fff"/>
    <path id="Trazado_1195" data-name="Trazado 1195" d="M4170.85,165.293s14.826-.93,23.393,5.56,12.17,19.263,13.222,22.967,7.111,25.781,8.046,29.562,7.145,30.611,8.382,36.347,9.282,44.805,9.282,44.805-9.784,4.676-19.574,5.513-18.427,1.361-20.937.216l-3.1-11.126s-19.454,6.855-37.345,3.054-25.929-6.665-32.5-10.731-6.947-4.3-6.947-4.3a90.706,90.706,0,0,0,7.367-8.025c2.2-3,6.1-10.673,5.883-21.459,0,0-8.391,14.523-18.663,12.262s-16.535-10.3-15.688-17.982,4.893-18.517,11.124-34.17,12.322-31.083,12.322-31.083a75.459,75.459,0,0,1,12.8,2.659c6.8,2.035,9.511,2.777,9.511,2.777l12.095-26.668,4.837-.149s-4.51,14.35,1.487,14.015,8.579-3.822,10.72-6.474A41.94,41.94,0,0,0,4170.85,165.293Z" transform="translate(186.696 82.995)" opacity="0.39" fill="url(#linear-gradient-2)"/>
    <g id="Grupo_1037" data-name="Grupo 1037" transform="translate(4431.094 289.697)" opacity="0.29">
      <g id="Grupo_1036" data-name="Grupo 1036">
        <g id="Grupo_1035" data-name="Grupo 1035">
          <g id="Grupo_1026" data-name="Grupo 1026" transform="translate(0.119 0.119)">
            <path id="Trazado_1030" data-name="Trazado 1030" d="M4159.627,187.711a2.3,2.3,0,1,0-2.295-2.3A2.3,2.3,0,0,0,4159.627,187.711Z" transform="translate(-4157.332 -183.119)" fill="url(#linear-gradient)"/>
          </g>
          <g id="Grupo_1027" data-name="Grupo 1027" transform="translate(17.854)">
            <path id="Trazado_1031" data-name="Trazado 1031" d="M4167.374,187.9a2.416,2.416,0,1,0-2.417-2.417A2.415,2.415,0,0,0,4167.374,187.9Z" transform="translate(-4164.956 -183.068)" fill="url(#linear-gradient)"/>
          </g>
          <g id="Grupo_1028" data-name="Grupo 1028" transform="translate(35.887 0.177)">
            <path id="Trazado_1032" data-name="Trazado 1032" d="M4174.945,187.62a2.238,2.238,0,1,0-2.237-2.238A2.238,2.238,0,0,0,4174.945,187.62Z" transform="translate(-4172.708 -183.144)" fill="url(#linear-gradient)"/>
          </g>
          <g id="Grupo_1029" data-name="Grupo 1029" transform="translate(0 17.854)">
            <path id="Trazado_1033" data-name="Trazado 1033" d="M4159.694,195.575a2.416,2.416,0,1,0-2.414-2.415A2.416,2.416,0,0,0,4159.694,195.575Z" transform="translate(-4157.28 -190.743)" fill="url(#linear-gradient)"/>
          </g>
          <g id="Grupo_1030" data-name="Grupo 1030" transform="translate(17.735 17.733)">
            <path id="Trazado_1034" data-name="Trazado 1034" d="M4167.441,195.762a2.536,2.536,0,1,0-2.537-2.533A2.532,2.532,0,0,0,4167.441,195.762Z" transform="translate(-4164.904 -190.691)" fill="url(#linear-gradient)"/>
          </g>
          <g id="Grupo_1031" data-name="Grupo 1031" transform="translate(35.769 17.912)">
            <path id="Trazado_1035" data-name="Trazado 1035" d="M4175.013,195.483a2.358,2.358,0,1,0-2.355-2.356A2.357,2.357,0,0,0,4175.013,195.483Z" transform="translate(-4172.657 -190.768)" fill="url(#linear-gradient)"/>
          </g>
          <g id="Grupo_1032" data-name="Grupo 1032" transform="translate(0.177 35.887)">
            <path id="Trazado_1036" data-name="Trazado 1036" d="M4159.594,202.968a2.237,2.237,0,1,0-2.237-2.236A2.236,2.236,0,0,0,4159.594,202.968Z" transform="translate(-4157.356 -198.495)" fill="url(#linear-gradient)"/>
          </g>
          <g id="Grupo_1033" data-name="Grupo 1033" transform="translate(17.915 35.768)">
            <path id="Trazado_1037" data-name="Trazado 1037" d="M4167.339,203.157a2.356,2.356,0,1,0-2.357-2.356A2.358,2.358,0,0,0,4167.339,203.157Z" transform="translate(-4164.982 -198.444)" fill="url(#linear-gradient)"/>
          </g>
          <g id="Grupo_1034" data-name="Grupo 1034" transform="translate(35.927 35.924)">
            <path id="Trazado_1038" data-name="Trazado 1038" d="M4174.922,202.91a2.2,2.2,0,1,0-2.2-2.2A2.2,2.2,0,0,0,4174.922,202.91Z" transform="translate(-4172.725 -198.511)" fill="url(#linear-gradient)"/>
          </g>
        </g>
      </g>
    </g>
    <path id="Trazado_1039" data-name="Trazado 1039" d="M4008.256,181.615a4.818,4.818,0,0,1,3.859-4.848s-.02-1.663-1.246-1.682-1.617.877-1.945,1.482-.87,1.549-1.831,1.447-2.917-1.326-3.882-.114-.689,2.712,1.287,3.613A4.9,4.9,0,0,0,4008.256,181.615Z" transform="translate(68.771 96.042)" fill="#3a3a3a"/>
    <path id="Trazado_1040" data-name="Trazado 1040" d="M4001.865,180.967V175.4a19.26,19.26,0,0,1,11.288-4.192c7.027-.335,13.107,1.426,15.212,2.719v5.539l1.375,2.564,2-.44,2.076-15.523-2.744,3.157-1.237-6.016-.961,1.87s-6.661-6.63-15.72-5.939-16.33,6.618-18.292,12.873l5.02-1.6-1.384,7.937,1.215-1.061.169,4.545,1.512.83Z" transform="translate(58.41 74.828)" fill="#1a1a1a"/>
    <path id="Trazado_1041" data-name="Trazado 1041" d="M4140.1,184.2s6.042-.326,7.716-3.231l-.921,13.518,10.232.312.159,1.794,8.86.065s-.129-30.385-.833-36.328-1.167-15.067-9.2-17.554-13.378-.619-15.531,2.147-2.16,3.226-2.16,3.226-6.859-4.445-13.889-1.556c-4.154,1.707-7.37,5.89-9.575,12.592l6.588,1.482,3.534-3.722-.327,4.6,14.94,3,2.418-5a36.3,36.3,0,0,0-1.086,10.626s5.862-.3,6.463,4.7-4.531,6.983-6.417,6.151-.8-.254-.8-.254Z" transform="translate(217.692 51.65)" fill="#1a1a1a"/>
    <path id="Trazado_1042" data-name="Trazado 1042" d="M4104.669,189.448s4.2-4.015,4.946-6.965,2.212-9.093,5.122-12.713,5-6.055,8.647-6.264,9.393,2.731,11.564,5.22,3.783,5.318,3.2,7.5a5.891,5.891,0,0,1-2.759,3.294s1.628,5.95-4.769,6.174c0,0-.6,7.088-8.426,3.547l-2.117,5.18S4107.917,190.127,4104.669,189.448Z" transform="translate(204.041 80.671)" fill="#fff"/>
    <path id="Trazado_1043" data-name="Trazado 1043" d="M4139.754,187.949l.179-15.614s6.695,1.31,7.253-5.239c0,0,1.275-5.8-6.5-5.75l.574-8.26-1.906,2.631-14.94-3,.317-4.455-3.412,3.606-2.952-.721s-2.15,10.428-2.722,14.236-.919,11.84,1.453,12.894l5.25,2.054c1.187.5.664,7.467.664,7.467l-1.051,3.554s3.8,6.306-.57,8.36c0,0,.979,3.168,6.173,1.761S4139.055,190.62,4139.754,187.949Z" transform="translate(218.039 60.471)" fill="#fff"/>
    <path id="Trazado_1044" data-name="Trazado 1044" d="M4145.481,230.391l-.17,2.126a30.1,30.1,0,0,1-5.269,7.716c-3.729,4.064-3.756,8.286-.595,9.551,4.782,1.912,6.874-6.169,11.837-8.237,3.15-1.31,13.2.735,15.564,1.863s7.484,4.992,10.257,5.062,6.224.2,6.516-2.212c0,0,2.923.463,4.752-1.3a2.769,2.769,0,0,0,.447-3.661s1.59-.807.089-3.1-3.984-3.75-7.844-5.1-9.2-3.05-11.073-4.648-2.071-2.512-2.071-2.512S4152.268,230.823,4145.481,230.391Z" transform="translate(247.126 163.491)" fill="#fff"/>
    <path id="Trazado_1045" data-name="Trazado 1045" d="M4130.066,218.154s-12.993-.472-18.874,0-16.609,1.479-23.795,8.423-7.174,13.611-8.279,24.716h60.054a132.069,132.069,0,0,0,30.209,2.589c16.721-.509,23.978-2.182,27.569-4.185s5.791-2.512,7.383-5.941a58.749,58.749,0,0,0,2.906-9.156l-1.14-5.394s-13.253,5.811-34.252,3.315A107.535,107.535,0,0,1,4130.066,218.154Z" transform="translate(170.153 152.882)" fill="#fff"/>
    <path id="Trazado_1046" data-name="Trazado 1046" d="M4114.863,168l3.3-6.909,5.066,2.225-3.9,7.16Z" transform="translate(217.558 77.487)" fill="#1a1a1a"/>
    <path id="Trazado_1047" data-name="Trazado 1047" d="M4017.179,222.137a7.727,7.727,0,1,1-7.727-7.728A7.725,7.725,0,0,1,4017.179,222.137Z" transform="translate(67.512 148.194)" fill="#fff"/>
    <path id="Trazado_1048" data-name="Trazado 1048" d="M4004.527,183.563l-9.095,6.816,6.6,33.077,25.582-.1,6.4-33.323-9.053-6.47Z" transform="translate(59.167 107.285)" fill="#fff"/>
    <path id="Trazado_1049" data-name="Trazado 1049" d="M4001.169,203.618l2.109,4.289-1.2,6.673,11.443.03-2.053-6.395,1.823-5.137-6.233-12.845Z" transform="translate(66.775 116.131)" fill="#1a1a1a"/>
    <path id="Trazado_1050" data-name="Trazado 1050" d="M4009.281,184.8l15.324,9.831-.031-37.515s.2-6.572-8.3-8.633H3974s-8.814.167-9.347,9.347V176.5s.938,8.3,9.347,8.3Z" transform="translate(18.342 60.768)" fill="#fff"/>
    <path id="Trazado_1051" data-name="Trazado 1051" d="M4093.492,194.218l-1.011-20.066s8.584,2.584,8.966-6.739a6.177,6.177,0,0,0-6.777-5.6s-3.989.682-5.027,3.117c0,0-1.967-1.561-1.151-9.456l0-1a5.211,5.211,0,0,1-6.243,1.258c-3.673-1.824-4.754-1.912-5.366-4.434,0,0-3.213,5.055-11.258,3.838l-.4,19.822s-1.354,9.777,7.593,10.784l-.021,8.251,10.274,15.43Z" transform="translate(151.631 64.494)" fill="#fff"/>
    <path id="Trazado_1052" data-name="Trazado 1052" d="M4049.43,184.882a31.962,31.962,0,0,1-1.463-9.3c-.2-5.927,1.545-11.615,2.005-13.857s1.956-9.905-2.454-10.314-5.583,2.394-6.02,5.643a42.851,42.851,0,0,1-1.556,6.639s-6.766-10.489-9.5-13.713-4.5-4.122-6.96-3.05-2.015,4-2.015,4-2.75-1.189-4.447.37-2.275,2.905-1.513,4.5a4.7,4.7,0,0,0-3.817.8c-1.565,1.347-1.85,3.575,1,7.69s8.3,10.656,10.356,13.213,3.717,4.769,4.468,7.055a36.065,36.065,0,0,1,1.146,4.729,46.276,46.276,0,0,0,11.865-1.261A52.924,52.924,0,0,0,4049.43,184.882Z" transform="translate(79.186 58.13)" fill="#fff"/>
    <path id="Trazado_1053" data-name="Trazado 1053" d="M4073.475,169.666l-8.934,7.958,6.283,30.518,1.9-2.851,11.247,53.9,10.961-53.9,1.775,3.214,6.506-31.774-9.048-6.842Z" transform="translate(150.82 88.855)" fill="#fff"/>
    <path id="Trazado_1054" data-name="Trazado 1054" d="M4070.244,153.294s-5.891.512-6.8,5,4.29,6.3,4.29,6.3,5.332,1.047,8.063-1.135a26.514,26.514,0,0,0,3.379-2.978,6.061,6.061,0,0,0,5.18,4.706c4.563.789,6.4-1.566,6.4-1.566s-1.72,7.483.82,10.563a5.833,5.833,0,0,1,5.2-2.917c3.581.156,4.6,1.379,4.6,1.379s2.917-4.8,3.623-8.258.823-7.476-1.457-9.563-3.079-3.578-7.529-3.71c0,0-1.945-4.792-6.646-6.383s-7.824-.179-10.062,2.987a8.949,8.949,0,0,0-5.833-1.484,5.578,5.578,0,0,0-4.507,3.62A4.032,4.032,0,0,0,4070.244,153.294Z" transform="translate(149.228 54.923)" fill="#fff"/>
    <path id="Trazado_1055" data-name="Trazado 1055" d="M4075.444,167.84a4.494,4.494,0,0,1,0-3.9,8.6,8.6,0,0,1,2.593-2.636,2,2,0,0,0-1.861-.989c-1.2.165-1.457,1.091-1.645,2.194s-.477,2.033-1.463,2.133-2.952-.235-3.684.268-.769,1.433.365,2.333S4073.412,169.17,4075.444,167.84Z" transform="translate(156.547 76.428)" fill="#1a1a1a"/>
    <path id="Trazado_1056" data-name="Trazado 1056" d="M4022.53,168.572s-1.115-6.048-2.149-6.379-5.739,2.719-5.3,4.313S4021.479,168.851,4022.53,168.572Z" transform="translate(85.182 78.911)" fill="#3a3a3a"/>
    <path id="Trazado_1057" data-name="Trazado 1057" d="M4026.617,160.507l1.245,6.181s4.631-2.305,4.2-3.915S4027.635,160.356,4026.617,160.507Z" transform="translate(100.524 76.685)" fill="#3a3a3a"/>
    <path id="Trazado_1058" data-name="Trazado 1058" d="M4070.391,188.269l2.858,6.709L4069.968,217l6.81,32.64,7.216-34.561-2.944-20.1,2.38-7.019-6.449-11.437Z" transform="translate(158.017 97.948)" fill="#1a1a1a"/>
    <path id="Trazado_1059" data-name="Trazado 1059" d="M4079.418,215.873a2.192,2.192,0,1,1-2.191-2.191A2.19,2.19,0,0,1,4079.418,215.873Z" transform="translate(164.736 147.23)" fill="#fff"/>
    <path id="Trazado_1060" data-name="Trazado 1060" d="M4079.418,226.064a2.192,2.192,0,1,1-2.191-2.194A2.191,2.191,0,0,1,4079.418,226.064Z" transform="translate(164.736 160.741)" fill="#fff"/>
    <path id="Trazado_1061" data-name="Trazado 1061" d="M4076.386,147.574h44.884V102.692a43.811,43.811,0,0,0-32.568,14C4074.557,131.954,4076.386,147.574,4076.386,147.574Z" transform="translate(166.429)" opacity="0.38" fill="url(#linear-gradient)"/>
    <path id="Trazado_1062" data-name="Trazado 1062" d="M4126.252,108.308V153.72h-45.414a45.412,45.412,0,1,0,45.414-45.412Z" transform="translate(172.433 7.481)" opacity="0.24" fill="url(#linear-gradient-13)"/>
    <path id="Trazado_1063" data-name="Trazado 1063" d="M4058.073,132.3a8.425,8.425,0,1,0,8.426-8.428A8.427,8.427,0,0,0,4058.073,132.3Z" transform="translate(142.242 28.123)" opacity="0.51" fill="url(#linear-gradient-2)"/>
    <path id="Trazado_1064" data-name="Trazado 1064" d="M4152.175,195.234l7.021,31.46s-14.756.77-17.287-12.687S4148.645,195.581,4152.175,195.234Z" transform="translate(252.855 122.764)" fill="#1a1a1a"/>
    <path id="Trazado_1065" data-name="Trazado 1065" d="M4176.176,166.487a8.986,8.986,0,1,1-8.989-8.986A8.987,8.987,0,0,1,4176.176,166.487Z" transform="translate(275.036 72.722)" opacity="0.37" fill="url(#linear-gradient-13)"/>
    <path id="Trazado_1066" data-name="Trazado 1066" d="M4025.672,167.441c-14.091-8.33-27.043,0-27.043,0l-.328-3.564-1.855,8.019c.116.142,1.165-.77,1.165-.77a23.5,23.5,0,0,0,2.154-1.889,19.267,19.267,0,0,1,11.287-4.192C4017.513,164.736,4023.163,166.2,4025.672,167.441Z" transform="translate(60.51 80.993)" fill="#fff"/>
    <path id="Trazado_1067" data-name="Trazado 1067" d="M4132.487,143.718a12.913,12.913,0,0,0-7.949.575c-4.154,1.707-7.37,5.89-9.575,12.592l2.526.57,1.223-.079C4121.488,142.42,4132.487,143.718,4132.487,143.718Z" transform="translate(217.692 53.949)" fill="#fff"/>
    <path id="Trazado_1068" data-name="Trazado 1068" d="M4142.606,142.775c-8.025-2.484-13.38-.619-15.532,2.147a24.174,24.174,0,0,0-1.921,2.712l1.614,1.791,3.224.24s3.442-10.235,15.469-5.532A10.875,10.875,0,0,0,4142.606,142.775Z" transform="translate(231.205 51.65)" fill="#fff"/>
    <path id="Trazado_1069" data-name="Trazado 1069" d="M4079,180.1l-5.02,7.553,2.845,7.321-5.207,32.185-1.65-10.8,3.281-21.39-2.858-6.709,6.591-11.747Z" transform="translate(158.017 97.948)" fill="#fff"/>
    <path id="Trazado_1070" data-name="Trazado 1070" d="M4009.344,195.481s-4.7,7.055-4.7,7.286,2.352,6.12,2.352,6.12l-.353,6.034-4.655,0,1.924-5.667-2.668-5.669,5.839-13.615Z" transform="translate(66.869 115.786)" fill="#fff"/>
    <g id="Grupo_1038" data-name="Grupo 1038" transform="translate(3954.411 403.644)">
      <path id="Trazado_1071" data-name="Trazado 1071" d="M4026.988,233.11h-74.625c0-1.058,74.625-1.058,74.625-1.058C4027.514,232.873,4027.279,233.11,4026.988,233.11Z" transform="translate(-3952.363 -232.052)" fill="#1a1a1a"/>
    </g>
    <g id="Grupo_1039" data-name="Grupo 1039" transform="translate(4362.52 403.644)">
      <path id="Trazado_1072" data-name="Trazado 1072" d="M4152.45,233.11H4127.8c0-1.058,24.648-1.058,24.648-1.058C4152.981,232.873,4152.742,233.11,4152.45,233.11Z" transform="translate(-4127.802 -232.052)" fill="#1a1a1a"/>
    </g>
    <g id="Grupo_1040" data-name="Grupo 1040" transform="translate(4122.042 403.644)">
      <path id="Trazado_1073" data-name="Trazado 1073" d="M4213.125,233.11h-188.7c0-1.058,188.7-1.058,188.7-1.058C4213.653,232.873,4213.416,233.11,4213.125,233.11Z" transform="translate(-4024.425 -232.052)" fill="#1a1a1a"/>
    </g>
    <g id="Grupo_1041" data-name="Grupo 1041" transform="translate(4436.654 403.644)">
      <path id="Trazado_1074" data-name="Trazado 1074" d="M4222.907,233.11h-63.236c0-1.058,63.236-1.058,63.236-1.058C4223.435,232.873,4223.2,233.11,4222.907,233.11Z" transform="translate(-4159.671 -232.052)" fill="#1a1a1a"/>
    </g>
    <g id="Grupo_1042" data-name="Grupo 1042" transform="translate(4018.833 330.203)">
      <path id="Trazado_1075" data-name="Trazado 1075" d="M4083.425,274.98h-96.161a7.218,7.218,0,0,1-7.207-7.211V207.692a7.218,7.218,0,0,1,7.207-7.211h96.161a7.218,7.218,0,0,1,7.206,7.211v60.077A7.218,7.218,0,0,1,4083.425,274.98Zm-96.161-73.441a6.161,6.161,0,0,0-6.155,6.153v60.077a6.16,6.16,0,0,0,6.155,6.153h96.161a6.161,6.161,0,0,0,6.155-6.153V207.692a6.163,6.163,0,0,0-6.155-6.153Z" transform="translate(-3980.057 -200.481)" fill="#1a1a1a"/>
    </g>
    <g id="Grupo_1043" data-name="Grupo 1043" transform="translate(4066 359.677)">
      <path id="Trazado_1076" data-name="Trazado 1076" d="M4008.589,229.665a8.257,8.257,0,1,1,8.253-8.253A8.266,8.266,0,0,1,4008.589,229.665Zm0-15.453a7.2,7.2,0,1,0,7.2,7.2A7.208,7.208,0,0,0,4008.589,214.212Z" transform="translate(-4000.333 -213.151)" fill="#1a1a1a"/>
    </g>
    <g id="Grupo_1044" data-name="Grupo 1044" transform="translate(4332.722 238.333)">
      <path id="Trazado_1077" data-name="Trazado 1077" d="M4119.339,170.931c-.477-.758,2.612-7.223,2.612-7.223l-3.712-1.77-3.076,6.437c-.951-.456,2.353-7.367,2.353-7.367.7-.249,5.362,1.977,5.362,1.977.253.7-3.063,7.644-3.063,7.644A.537.537,0,0,1,4119.339,170.931Z" transform="translate(-4114.992 -160.988)" fill="#1a1a1a"/>
    </g>
    <g id="Grupo_1045" data-name="Grupo 1045" transform="translate(4335.805 236.06)">
      <path id="Trazado_1078" data-name="Trazado 1078" d="M4120.891,165.288c-.474-.756.387-2.554.387-2.554l-3.713-1.775-.856,1.8c-.951-.454.131-2.726.131-2.726.7-.251,5.368,1.98,5.368,1.98.25.7-.84,2.975-.84,2.975A.529.529,0,0,1,4120.891,165.288Z" transform="translate(-4116.317 -160.011)" fill="#1a1a1a"/>
    </g>
    <g id="Grupo_1046" data-name="Grupo 1046" transform="translate(4322.08 265.355)">
      <path id="Trazado_1079" data-name="Trazado 1079" d="M4110.835,180.087c-.531-.54-.406-7.483-.406-7.483,1.059.021.952,5.809.952,5.809l4.374-3.664c.681.807-4.58,5.215-4.58,5.215A.516.516,0,0,1,4110.835,180.087Z" transform="translate(-4110.417 -172.604)" fill="#1a1a1a"/>
    </g>
    <g id="Grupo_1050" data-name="Grupo 1050" transform="translate(4180.672 230.268)">
      <g id="Grupo_1047" data-name="Grupo 1047" transform="translate(11.222 17.01)">
        <path id="Trazado_1080" data-name="Trazado 1080" d="M4054.455,171.544c-.2-1.019,14.067-6.711,14.067-6.711.39.982-13.871,6.674-13.871,6.674A.582.582,0,0,1,4054.455,171.544Z" transform="translate(-4054.453 -164.833)" fill="#1a1a1a"/>
      </g>
      <g id="Grupo_1048" data-name="Grupo 1048" transform="translate(0 10.615)">
        <path id="Trazado_1081" data-name="Trazado 1081" d="M4073.716,163.328l-24.087-.628c.029-1.058,24.1-.433,24.1-.433C4074.235,163.1,4074,163.328,4073.716,163.328Z" transform="translate(-4049.629 -162.084)" fill="#1a1a1a"/>
      </g>
      <g id="Grupo_1049" data-name="Grupo 1049" transform="translate(12.331)">
        <path id="Trazado_1082" data-name="Trazado 1082" d="M4067.636,163.437c-.219-.049-12.706-5.809-12.706-5.809.443-.958,12.927,4.8,12.927,4.8C4068.027,163.325,4067.836,163.437,4067.636,163.437Z" transform="translate(-4054.929 -157.521)" fill="#1a1a1a"/>
      </g>
    </g>
    <g id="Grupo_1051" data-name="Grupo 1051" transform="translate(4050.69 256.035)">
      <path id="Trazado_1083" data-name="Trazado 1083" d="M4000.449,181.679a6.913,6.913,0,0,1-3.533-1.07,6.52,6.52,0,0,1-2.243-8.928,6.609,6.609,0,0,1,8.411-2.482c-3.119-.188-6.1.672-7.5,3.026a5.455,5.455,0,0,0,1.877,7.476,4.915,4.915,0,0,0,5.488.142A2.24,2.24,0,0,1,4000.449,181.679Z" transform="translate(-3993.752 -168.597)" fill="#1a1a1a"/>
    </g>
    <g id="Grupo_1052" data-name="Grupo 1052" transform="translate(4055.76 262.797)">
      <path id="Trazado_1084" data-name="Trazado 1084" d="M3995.951,175.056c-.312-.951,3.2-3.552,3.2-3.552.625.847-2.883,3.445-2.883,3.445A.5.5,0,0,1,3995.951,175.056Z" transform="translate(-3995.931 -171.504)" fill="#1a1a1a"/>
    </g>
    <g id="Grupo_1053" data-name="Grupo 1053" transform="translate(4054.903 259.483)">
      <path id="Trazado_1085" data-name="Trazado 1085" d="M3999.8,173.3c-.316-.109-4.233-3.073-4.233-3.073.64-.84,4.554,2.126,4.554,2.126C4000.116,173.23,3999.957,173.3,3999.8,173.3Z" transform="translate(-3995.563 -170.08)" fill="#1a1a1a"/>
    </g>
    <g id="Grupo_1054" data-name="Grupo 1054" transform="translate(4087.324 256.368)">
      <path id="Trazado_1086" data-name="Trazado 1086" d="M4012.591,181.515a5.756,5.756,0,0,1-3.092-.865,10.758,10.758,0,0,0,6.342-1.138,5.454,5.454,0,0,0-4.09-9.977c2.53-1.7,5.4-.5,6.872,1.956a6.523,6.523,0,0,1-2.241,8.928A7.44,7.44,0,0,1,4012.591,181.515Z" transform="translate(-4009.5 -168.74)" fill="#1a1a1a"/>
    </g>
    <g id="Grupo_1055" data-name="Grupo 1055" transform="translate(4088.529 263.666)">
      <path id="Trazado_1087" data-name="Trazado 1087" d="M4013.767,174.561c-.3-.1-3.749-2.494-3.749-2.494.6-.868,4.05,1.528,4.05,1.528C4014.1,174.479,4013.932,174.561,4013.767,174.561Z" transform="translate(-4010.018 -171.878)" fill="#1a1a1a"/>
    </g>
    <g id="Grupo_1056" data-name="Grupo 1056" transform="translate(4089.116 258.793)">
      <path id="Trazado_1088" data-name="Trazado 1088" d="M4010.291,173.535c-.321-.949,3.38-3.752,3.38-3.752.639.84-3.062,3.641-3.062,3.641A.531.531,0,0,1,4010.291,173.535Z" transform="translate(-4010.271 -169.783)" fill="#1a1a1a"/>
    </g>
    <g id="Grupo_1060" data-name="Grupo 1060" transform="translate(4071.033 270.598)">
      <g id="Grupo_1058" data-name="Grupo 1058">
        <g id="Grupo_1057" data-name="Grupo 1057">
          <path id="Trazado_1089" data-name="Trazado 1089" d="M4007.4,182.891a5.569,5.569,0,0,1-3.07-.919,3.654,3.654,0,0,1-1.823-2.533,1.965,1.965,0,0,1,.812-1.807,2.808,2.808,0,0,1,2.726-.123c1.217.526,1.356.468,1.667.368s.444-.165,1.035-1.349a2.847,2.847,0,0,1,2.17-1.663,1.96,1.96,0,0,1,1.781.861,3.505,3.505,0,0,1,.174,2.985,5.642,5.642,0,0,1-5.471,4.183Zm-3.84-3.52a2.721,2.721,0,0,0,1.344,1.717,4.631,4.631,0,0,0,4.139.454,4.753,4.753,0,0,0,2.818-3.138,2.582,2.582,0,0,0-.017-2.052c-1.333-.393-1.848.03-2.156.642-.677,1.359-.97,1.635-1.621,1.87s-1.055.219-2.443-.391a1.8,1.8,0,0,0-1.7.021.91.91,0,0,0-.365.877Z" transform="translate(-4002.497 -174.858)" fill="#1a1a1a"/>
        </g>
      </g>
      <g id="Grupo_1059" data-name="Grupo 1059" transform="translate(5.739 1.499)">
        <path id="Trazado_1090" data-name="Trazado 1090" d="M4005.28,181.906c-1.361-4.138,1.991-5.962,3.881-6.4.062,1.07-4.193,2.122-3.367,5.76C4005.36,181.9,4005.318,181.906,4005.28,181.906Z" transform="translate(-4004.964 -175.502)" fill="#1a1a1a"/>
      </g>
    </g>
    <g id="Grupo_1061" data-name="Grupo 1061" transform="translate(4132.071 239.786)">
      <path id="Trazado_1091" data-name="Trazado 1091" d="M4064.119,198.313a35.381,35.381,0,0,1-6.246-.533c-16.225-2.891-27.119-16.411-29.138-36.168,3.02,19.152,13.589,32.325,29.325,35.133,8.876,1.57,17.888-.786,26.609-3.068,2.805-.737,5.708-1.5,8.528-2.1,5.505-1.175,12.042-2.545,18.78-3.785a153.3,153.3,0,0,1-18.559,4.82c-2.8.6-5.687,1.354-8.484,2.087C4078.125,196.48,4071.133,198.313,4064.119,198.313Z" transform="translate(-4028.736 -161.612)" fill="#1a1a1a"/>
    </g>
    <g id="Grupo_1062" data-name="Grupo 1062" transform="translate(4254.002 265.366)">
      <path id="Trazado_1092" data-name="Trazado 1092" d="M4121.982,195.055c-3.236-5.146-4.657-6.546-6.668-8.277-11.508-9.893-22.238-11.566-31.707-13.038-.827-.133-1.646-.256-2.456-.389a2.661,2.661,0,0,1,2.62-.654c9.607,1.491,20.5,3.189,32.229,13.28,2.1,1.805,3.577,3.261,6.437,8.286C4122.158,195.032,4122.073,195.055,4121.982,195.055Z" transform="translate(-4081.152 -172.608)" fill="#1a1a1a"/>
    </g>
    <g id="Grupo_1063" data-name="Grupo 1063" transform="translate(4214.892 258.344)">
      <path id="Trazado_1093" data-name="Trazado 1093" d="M4097.024,209.136c-.461-.277-12.71-22.478-12.71-22.478l-12.642,22.208c-.974-.154-7.333-31.034-7.333-31.034.171-.507,9.1-8.242,9.1-8.242.782.107,10.871,15.037,10.871,15.037l9.728-14.925c.759-.13,9.808,6.713,9.808,6.713.2.526-6.307,32.3-6.307,32.3C4097.08,209.131,4097.052,209.136,4097.024,209.136Zm-31.589-31.215,6.012,29.208L4083.7,185.6l-10.017-14.823Zm19.5,7.681,11.859,21.5,6.157-30.045-8.334-6.3Z" transform="translate(-4064.339 -169.59)" fill="#1a1a1a"/>
    </g>
    <g id="Grupo_1064" data-name="Grupo 1064" transform="translate(4227.794 285.996)">
      <path id="Trazado_1094" data-name="Trazado 1094" d="M4073.308,188.951c-.486-.326-3.422-7.358-3.422-7.358.974-.409,3.773,6.3,3.773,6.3l7.2-.012,2.138-6.4c1,.33-1.257,7.095-1.257,7.095-.5.363-8.428.379-8.428.379Z" transform="translate(-4069.886 -181.477)" fill="#1a1a1a"/>
    </g>
    <g id="Grupo_1065" data-name="Grupo 1065" transform="translate(4216.241 219.982)">
      <path id="Trazado_1095" data-name="Trazado 1095" d="M4077.738,184.477c-5.639,0-11.323-2.156-12.411-7.393a44.762,44.762,0,0,1-.353-5.855l-.046-1.768c-.071-2.226.278-15.783.295-16.363,1.049.17.69,14.132.759,16.332l.047,1.773a44.992,44.992,0,0,0,.332,5.671c1.13,5.427,8.043,7.121,13.953,6.39a23.11,23.11,0,0,0,4.886-1.035c-1.018,1.479-2.644,1.824-4.757,2.084A23.125,23.125,0,0,1,4077.738,184.477Z" transform="translate(-4064.919 -153.099)" fill="#1a1a1a"/>
    </g>
    <g id="Grupo_1066" data-name="Grupo 1066" transform="translate(4243.492 238.499)">
      <path id="Trazado_1096" data-name="Trazado 1096" d="M4078.177,181.832c-.524-.5-1.543-20.773-1.543-20.773,1.049-.051,2.07,20.219,2.07,20.219A4.364,4.364,0,0,1,4078.177,181.832Z" transform="translate(-4076.634 -161.059)" fill="#1a1a1a"/>
    </g>
    <g id="Grupo_1067" data-name="Grupo 1067" transform="translate(4241.013 225.799)">
      <path id="Trazado_1097" data-name="Trazado 1097" d="M4081.222,169.393a6.893,6.893,0,0,1-4.191-1.428c2.805.821,5.8.768,7.9-.963a5.839,5.839,0,1,0-9.168-6.583,2.687,2.687,0,0,1,1.083-3.254,6.9,6.9,0,1,1,4.374,12.229Z" transform="translate(-4075.568 -155.599)" fill="#1a1a1a"/>
    </g>
    <g id="Grupo_1068" data-name="Grupo 1068" transform="translate(4217.074 222.147)">
      <path id="Trazado_1098" data-name="Trazado 1098" d="M4065.369,156.689c-.465-.779.8-3.438,4.552-2.438-3.173.263-4.063,2.115-4.075,2.131A.524.524,0,0,1,4065.369,156.689Z" transform="translate(-4065.277 -154.03)" fill="#1a1a1a"/>
    </g>
    <g id="Grupo_1069" data-name="Grupo 1069" transform="translate(4229.872 221.952)">
      <path id="Trazado_1099" data-name="Trazado 1099" d="M4076.252,157.1c-2.882-3.359-5.305-1.861-5.416-1.794-.537-.907,2.783-2.968,5.83.937C4076.477,157.059,4076.364,157.1,4076.252,157.1Z" transform="translate(-4070.778 -153.946)" fill="#1a1a1a"/>
    </g>
    <g id="Grupo_1070" data-name="Grupo 1070" transform="translate(4223.911 250.228)">
      <path id="Trazado_1100" data-name="Trazado 1100" d="M4068.646,175.145c-.526-.535-.421-9.044-.421-9.044,1.054.014.948,8.526.948,8.526A.529.529,0,0,1,4068.646,175.145Z" transform="translate(-4068.217 -166.101)" fill="#1a1a1a"/>
    </g>
    <g id="Grupo_1071" data-name="Grupo 1071" transform="translate(4227.996 292.865)">
      <path id="Trazado_1101" data-name="Trazado 1101" d="M4070.03,206.408c-.519-.6,2.643-21.978,2.643-21.978,1.041.151-2.12,21.524-2.12,21.524A.531.531,0,0,1,4070.03,206.408Z" transform="translate(-4069.972 -184.43)" fill="#1a1a1a"/>
    </g>
    <g id="Grupo_1072" data-name="Grupo 1072" transform="translate(4238.619 292.99)">
      <path id="Trazado_1102" data-name="Trazado 1102" d="M4077.509,205.048c-.528-.465-2.971-20.564-2.971-20.564,1.052-.13,3.494,19.973,3.494,19.973C4077.551,205.044,4077.526,205.048,4077.509,205.048Z" transform="translate(-4074.538 -184.484)" fill="#1a1a1a"/>
    </g>
    <g id="Grupo_1073" data-name="Grupo 1073" transform="translate(4099.634 245.516)">
      <path id="Trazado_1103" data-name="Trazado 1103" d="M4097.71,235.173c-2.392,0-4.871-.123-7.471-.377-29.739-2.9-54.955-19.152-65.814-42.421-3.873-8.3-6.449-17.233-8.937-25.865l-.7-2.41c1.014-.3,1.71,2.119,1.71,2.119,2.48,8.6,5.039,17.482,8.877,25.709,10.705,22.932,35.594,38.955,64.959,41.816a66.167,66.167,0,0,0,15.414-.151C4103.263,235,4100.55,235.173,4097.71,235.173Z" transform="translate(-4014.792 -164.075)" fill="#1a1a1a"/>
    </g>
    <g id="Grupo_1074" data-name="Grupo 1074" transform="translate(4099.578 237.721)">
      <path id="Trazado_1104" data-name="Trazado 1104" d="M4023.424,171.217c-4.657,0-8.287-.83-8.625-2.808-.295-1.726,1.533-3.34,5.589-4.934-2.94,2.284-4.735,3.659-4.55,4.75.277,1.607,6.638,2.812,16.374,1.135a46.459,46.459,0,0,0,11.128-3.208c3.072-1.414,4.043-2.647,3.924-3.326-.2-1.205-2.461-1.663-4.317-1.831,3.377-.749,5.1.135,5.358,1.649.249,1.442-1.315,2.987-4.522,4.469a47.828,47.828,0,0,1-11.391,3.289A54.533,54.533,0,0,1,4023.424,171.217Z" transform="translate(-4014.768 -160.724)" fill="#1a1a1a"/>
    </g>
    <g id="Grupo_1076" data-name="Grupo 1076" transform="translate(4225 235.815)">
      <g id="Grupo_1075" data-name="Grupo 1075">
        <path id="Trazado_1105" data-name="Trazado 1105" d="M4073.155,169.471a5.966,5.966,0,0,1-1.716-.251,3.861,3.861,0,0,1-2.6-2.024,2.056,2.056,0,0,1,.277-2.054,3,3,0,0,1,2.717-.935c1.415.177,1.546.081,1.833-.13s.419-.309.671-1.717a2.981,2.981,0,0,1,1.7-2.317,2.057,2.057,0,0,1,2.044.342,3.7,3.7,0,0,1,1.062,2.966,6.135,6.135,0,0,1-2.383,4.918A6.046,6.046,0,0,1,4073.155,169.471Zm-1.794-4.236a1.816,1.816,0,0,0-1.42.563,1.013,1.013,0,0,0-.115,1.033,2.906,2.906,0,0,0,1.917,1.375,4.949,4.949,0,0,0,4.387-.784,5.09,5.09,0,0,0,1.955-4.078,2.8,2.8,0,0,0-.649-2.119.986.986,0,0,0-1.021-.2,1.959,1.959,0,0,0-1.042,1.521c-.295,1.659-.532,1.97-1.08,2.373-.583.435-.98.53-2.589.337A2.428,2.428,0,0,0,4071.362,165.234Z" transform="translate(-4068.685 -159.905)" fill="#1a1a1a"/>
      </g>
    </g>
    <g id="Grupo_1077" data-name="Grupo 1077" transform="translate(4231.198 237.015)">
      <path id="Trazado_1106" data-name="Trazado 1106" d="M4072.288,168.091c-2.435-3.806.428-6.655,2.218-7.67.348,1.019-3.713,3.385-1.757,6.883C4072.466,168.065,4072.376,168.091,4072.288,168.091Z" transform="translate(-4071.349 -160.421)" fill="#1a1a1a"/>
    </g>
    <g id="Grupo_1078" data-name="Grupo 1078" transform="translate(4243.502 228.587)">
      <path id="Trazado_1107" data-name="Trazado 1107" d="M4081.82,164.74c-.235-.058-5.178-2.505-5.178-2.505-.144-.84,4.352-5.436,4.352-5.436.755.737-3.232,4.815-3.232,4.815l4.294,2.126C4082.2,164.63,4082.013,164.74,4081.82,164.74Z" transform="translate(-4076.638 -156.798)" fill="#1a1a1a"/>
    </g>
    <g id="Grupo_1079" data-name="Grupo 1079" transform="translate(4093.102 297.093)">
      <path id="Trazado_1108" data-name="Trazado 1108" d="M4048.938,293.857c9.076-1.058,15.186-5.115,18.154-13.12,8.412-22.681-11.317-72.038-20.944-80.317-11.512-9.893-22.247-11.566-31.718-13.041-.821-.13-1.639-.256-2.448-.386a2.649,2.649,0,0,1,2.611-.656c9.609,1.5,20.5,3.192,32.241,13.283,10.047,8.637,29.982,57.925,21.248,81.483C4064.943,289.563,4058.5,293.857,4048.938,293.857Z" transform="translate(-4011.983 -186.248)" fill="#1a1a1a"/>
    </g>
    <g id="Grupo_1080" data-name="Grupo 1080" transform="translate(3996.571 296.797)">
      <path id="Trazado_1109" data-name="Trazado 1109" d="M3991.646,294.026c-9.468,0-15.85-4.276-18.979-12.706-8.763-23.625,11.066-72.918,21.083-81.532,11.74-10.091,22.633-11.787,32.241-13.283.822-.128,1.634-.254,2.438-.386a2.607,2.607,0,0,1-2.275,1.428c-9.47,1.475-20.2,3.147-31.716,13.041-9.6,8.258-29.22,57.618-20.782,80.366,2.957,7.972,9.011,12.013,17.99,12.013C3992.171,293.789,3991.934,294.026,3991.646,294.026Z" transform="translate(-3970.487 -186.12)" fill="#1a1a1a"/>
    </g>
    <g id="Grupo_1081" data-name="Grupo 1081" transform="translate(4054.082 290.064)">
      <path id="Trazado_1110" data-name="Trazado 1110" d="M4002.332,224.423c-.516-.428-7.122-33.842-7.122-33.842.2-.516,9.037-7.355,9.037-7.355.758.119,10.85,15.051,10.85,15.051l9.728-14.925c.759-.13,9.81,6.709,9.81,6.709.2.516-6.2,33.933-6.2,33.933-1.036-.2,5.305-33.29,5.305-33.29l-8.34-6.3-9.851,15.111c-.879.007-11.1-15.111-11.1-15.111l-8.142,6.295,6.546,33.093C4002.4,224.419,4002.37,224.423,4002.332,224.423Z" transform="translate(-3995.21 -183.226)" fill="#1a1a1a"/>
    </g>
    <g id="Grupo_1082" data-name="Grupo 1082" transform="translate(4062.444 305.843)">
      <path id="Trazado_1111" data-name="Trazado 1111" d="M3998.819,215.428c-.479-.754,11.038-25.419,11.038-25.419.956,0,12.394,24.665,12.394,24.665-.953.447-11.916-23.192-11.916-23.192l-11.041,23.639A.52.52,0,0,1,3998.819,215.428Z" transform="translate(-3998.805 -190.009)" fill="#1a1a1a"/>
    </g>
    <g id="Grupo_1083" data-name="Grupo 1083" transform="translate(4067.458 319.162)">
      <path id="Trazado_1112" data-name="Trazado 1112" d="M4003.821,201.775c-.486-.323-2.862-6.018-2.862-6.018.972-.409,3.213,4.962,3.213,4.962l7.221-.012,1.919-4.638c.974.4-1.078,5.362-1.078,5.362-.486.33-8.411.344-8.411.344Z" transform="translate(-4000.959 -195.734)" fill="#1a1a1a"/>
    </g>
    <g id="Grupo_1084" data-name="Grupo 1084" transform="translate(4068.746 324.548)">
      <path id="Trazado_1113" data-name="Trazado 1113" d="M4001.621,204.763c-.509-.654.951-6.713.951-6.713,1.026.251-.437,6.309-.437,6.309A.527.527,0,0,1,4001.621,204.763Z" transform="translate(-4001.513 -198.05)" fill="#1a1a1a"/>
    </g>
    <g id="Grupo_1085" data-name="Grupo 1085" transform="translate(4077.74 324.8)">
      <path id="Trazado_1114" data-name="Trazado 1114" d="M4007.711,204.62c-.506-.377-2.332-6.451-2.332-6.451,1.007-.3,2.837,5.771,2.837,5.771C4007.813,204.611,4007.762,204.62,4007.711,204.62Z" transform="translate(-4005.38 -198.158)" fill="#1a1a1a"/>
    </g>
    <g id="Grupo_1086" data-name="Grupo 1086" transform="translate(4298.83 370.81)">
      <path id="Trazado_1115" data-name="Trazado 1115" d="M4153.33,233.672c-29.98,0-52.624-15.523-52.908-15.723.957-.621,36.323,23.6,77.06,11.068A58.661,58.661,0,0,1,4153.33,233.672Z" transform="translate(-4100.422 -217.937)" fill="#1a1a1a"/>
    </g>
    <g id="Grupo_1087" data-name="Grupo 1087" transform="translate(4299.133 339.694)">
      <path id="Trazado_1116" data-name="Trazado 1116" d="M4100.553,235.783c11.652-10.926,12.626-21.006,13.408-29.106.068-.73.136-1.433.212-2.117a2.11,2.11,0,0,1,.837,2.212c-.759,7.858-1.8,18.617-14.119,28.887A.536.536,0,0,1,4100.553,235.783Z" transform="translate(-4100.553 -204.561)" fill="#1a1a1a"/>
    </g>
    <g id="Grupo_1088" data-name="Grupo 1088" transform="translate(4332.79 211.752)">
      <path id="Trazado_1117" data-name="Trazado 1117" d="M4117.666,177.522a9.4,9.4,0,0,1-2.26-4.443c-.805-4.19-.189-8.456.411-12.58.5-3.508,1.979-10.863,2-10.938,1.019.284-.454,7.611-.873,10.538-.665,4.587-1.27,8.765-.5,12.785a10.876,10.876,0,0,0,1.643,3.792C4117.886,177.485,4117.776,177.522,4117.666,177.522Z" transform="translate(-4115.021 -149.561)" fill="#1a1a1a"/>
    </g>
    <g id="Grupo_1089" data-name="Grupo 1089" transform="translate(4340.542 240.7)">
      <path id="Trazado_1118" data-name="Trazado 1118" d="M4122.436,163.152c-1.085,0-2.133-.026-2.945-.058-.381-.016-.757-.044-1.136-.081.459-1.012.825-.986,1.18-.975,1.762.079,4.331.088,6.106-.033A3.638,3.638,0,0,1,4122.436,163.152Z" transform="translate(-4118.354 -162.005)" fill="#1a1a1a"/>
    </g>
    <path id="Trazado_1119" data-name="Trazado 1119" d="M4122.569,152.841c-.409-.119-.71.023-1.023,1.512-.351,1.661.045,2.012.425,2.047s.82-.437.959-1.638S4123.106,153,4122.569,152.841Z" transform="translate(226.243 66.498)" fill="#1a1a1a"/>
    <path id="Trazado_1120" data-name="Trazado 1120" d="M4117.848,152.082c-.406-.133-.712,0-1.075,1.475-.408,1.649-.021,2.015.357,2.061s.833-.407,1.012-1.6S4118.38,152.256,4117.848,152.082Z" transform="translate(219.861 65.482)" fill="#1a1a1a"/>
    <path id="Trazado_1121" data-name="Trazado 1121" d="M4072.364,156.212c-.424-.058-.7.126-.792,1.647-.1,1.694.347,1.984.724,1.961s.75-.554.7-1.761S4072.917,156.287,4072.364,156.212Z" transform="translate(160.129 71)" fill="#1a1a1a"/>
    <path id="Trazado_1122" data-name="Trazado 1122" d="M4067.147,156.164c-.422-.07-.708.107-.847,1.621-.159,1.691.276,2,.656,1.982s.768-.526.766-1.733S4067.7,156.26,4067.147,156.164Z" transform="translate(153.109 70.932)" fill="#1a1a1a"/>
    <g id="Grupo_1090" data-name="Grupo 1090" transform="translate(4335.778 213.345)">
      <path id="Trazado_1123" data-name="Trazado 1123" d="M4116.306,151.775c.56-1.531,1.632-1.928,3.661-1.119a7.769,7.769,0,0,0-3.373,1.035A.551.551,0,0,1,4116.306,151.775Z" transform="translate(-4116.306 -150.246)" fill="#1a1a1a"/>
    </g>
    <g id="Grupo_1091" data-name="Grupo 1091" transform="translate(4356.581 221.287)">
      <path id="Trazado_1124" data-name="Trazado 1124" d="M4128.694,165.71a6.386,6.386,0,0,1-3.446-1.072,7.72,7.72,0,0,1,3.11.007,4.866,4.866,0,0,0,3.6-1.219,4.971,4.971,0,0,0-2.954-8.7,5.057,5.057,0,0,0-2.829.668,2.5,2.5,0,0,1,2.9-1.719,6.023,6.023,0,0,1-.378,12.034Z" transform="translate(-4125.249 -153.66)" fill="#1a1a1a"/>
    </g>
    <g id="Grupo_1092" data-name="Grupo 1092" transform="translate(4357.24 223.646)">
      <path id="Trazado_1125" data-name="Trazado 1125" d="M4129.684,161.518c-.3-.1-4.151-2.77-4.151-2.77-.031-.844,3.914-4.073,3.914-4.073.663.816-2.738,3.6-2.738,3.6l3.277,2.277C4130.012,161.439,4129.85,161.518,4129.684,161.518Z" transform="translate(-4125.532 -154.674)" fill="#1a1a1a"/>
    </g>
    <g id="Grupo_1093" data-name="Grupo 1093" transform="translate(4340.141 241.265)">
      <path id="Trazado_1126" data-name="Trazado 1126" d="M4118.361,172.246c-.506-.682.222-3.143.222-3.143l.506-6.855c1.05.074.525,7.044.525,7.044l-.748,2.575A.536.536,0,0,1,4118.361,172.246Z" transform="translate(-4118.182 -162.248)" fill="#1a1a1a"/>
    </g>
    <g id="Grupo_1094" data-name="Grupo 1094" transform="translate(4339.407 248.041)">
      <path id="Trazado_1127" data-name="Trazado 1127" d="M4121.53,180a8.937,8.937,0,0,1-1.7-.165c-.939-.181-1.8-1.426-1.962-1.67a3.835,3.835,0,0,1,2.158.635c9.152,1.726,15.493-13.483,15.558-13.639C4136.3,166.185,4130.532,180,4121.53,180Z" transform="translate(-4117.866 -165.161)" fill="#1a1a1a"/>
    </g>
    <g id="Grupo_1095" data-name="Grupo 1095" transform="translate(4341.152 229.618)">
      <path id="Trazado_1128" data-name="Trazado 1128" d="M4120.723,160.958a5.47,5.47,0,0,1-2.107-.47c1.542-.5,2.507-.465,3.283-.861a3.961,3.961,0,0,0,1.715-2.387c1.009.319.513,2.424-1.225,3.32A3.55,3.55,0,0,1,4120.723,160.958Z" transform="translate(-4118.616 -157.241)" fill="#1a1a1a"/>
    </g>
    <g id="Grupo_1096" data-name="Grupo 1096" transform="translate(4357.322 232.944)">
      <path id="Trazado_1129" data-name="Trazado 1129" d="M4125.856,174.5c-.531-.54-.167-15.825-.167-15.825,1.057.023.695,15.307.695,15.307A.53.53,0,0,1,4125.856,174.5Z" transform="translate(-4125.568 -158.671)" fill="#1a1a1a"/>
    </g>
    <g id="Grupo_1097" data-name="Grupo 1097" transform="translate(4337.86 247.744)">
      <path id="Trazado_1130" data-name="Trazado 1130" d="M4117.2,166.329a3.579,3.579,0,0,1,3.182-1.3,4.693,4.693,0,0,1-3.11,1.286A.369.369,0,0,1,4117.2,166.329Z" transform="translate(-4117.2 -165.033)" fill="#1a1a1a"/>
    </g>
    <g id="Grupo_1098" data-name="Grupo 1098" transform="translate(4336.946 217.131)">
      <path id="Trazado_1131" data-name="Trazado 1131" d="M4117.7,163.423c-.8-1.642-1.36-4.608-.321-5.408.634-.486,1.977-.037,3,.433l1.2-6.574c1.035.188-.287,7.451-.287,7.451-1.805-.177-3.024-.565-3.29-.463-.292.23-.2,2.142.213,3.913C4117.776,163.413,4117.736,163.423,4117.7,163.423Z" transform="translate(-4116.809 -151.873)" fill="#1a1a1a"/>
    </g>
    <g id="Grupo_1101" data-name="Grupo 1101" transform="translate(4383.675 393.837)">
      <g id="Grupo_1100" data-name="Grupo 1100" transform="translate(0 0)">
        <g id="Grupo_1099" data-name="Grupo 1099">
          <path id="Trazado_1132" data-name="Trazado 1132" d="M4141.27,248.1a4.44,4.44,0,0,1-4.255-3.159c-.476-1.833.574-3.44,1.5-4.862.207-.312.4-.616.578-.914a34.076,34.076,0,0,1,2.1-2.938c1.577-2.066,3.366-4.406,3.966-6.378l.149-2.017c1.049.084.882,2.212.882,2.212-.679,2.263-2.53,4.687-4.16,6.823a34.079,34.079,0,0,0-2.028,2.836c-.182.309-.389.628-.6.954-.846,1.3-1.72,2.638-1.365,4.02a3.387,3.387,0,0,0,3.944,2.284,5.131,5.131,0,0,0,2.457-1.593,23.347,23.347,0,0,0,1.891-2.405c.478-.663.975-1.352,1.521-1.994,1.363-1.6,3.105-3.192,5.765-2.973a53.9,53.9,0,0,1,14.041,2.866,35.982,35.982,0,0,1,3.905,1.833c3.567,1.847,7.25,3.761,10.813,2.126a1.994,1.994,0,0,0,.918-.7,1.815,1.815,0,0,0-.211-1.768,14.785,14.785,0,0,0-4.453-3.994,38.34,38.34,0,0,0-6.08-3.417,37.743,37.743,0,0,0-6.979-2.564c2.829-.423,5.321.642,7.417,1.605a38.506,38.506,0,0,1,5.862,3.252c2.058,1.405,3.969,2.708,5.128,4.559a2.83,2.83,0,0,1,.222,2.871,2.989,2.989,0,0,1-1.385,1.112c-4.02,1.845-8.119-.274-11.733-2.147a36.188,36.188,0,0,0-3.785-1.78,52.96,52.96,0,0,0-13.771-2.808c-2.188-.181-3.622,1.142-4.874,2.61-.516.607-1,1.277-1.465,1.924a22.513,22.513,0,0,1-1.987,2.515,6.1,6.1,0,0,1-2.971,1.9A4.011,4.011,0,0,1,4141.27,248.1Z" transform="translate(-4136.896 -227.836)" fill="#1a1a1a"/>
        </g>
      </g>
    </g>
    <g id="Grupo_1102" data-name="Grupo 1102" transform="translate(4058.669 252.647)">
      <path id="Trazado_1133" data-name="Trazado 1133" d="M4003.709,183.578c-3.6,0-6.528-3.685-6.528-8.219s2.929-8.218,6.528-8.218,6.527,3.687,6.527,8.218S4007.31,183.578,4003.709,183.578Zm0-15.376c-3.017,0-5.474,3.21-5.474,7.158s2.457,7.162,5.474,7.162,5.474-3.21,5.474-7.162S4006.726,168.2,4003.709,168.2Z" transform="translate(-3997.181 -167.141)" fill="#1a1a1a"/>
    </g>
    <g id="Grupo_1103" data-name="Grupo 1103" transform="translate(4076.5 252.647)">
      <path id="Trazado_1134" data-name="Trazado 1134" d="M4011.377,183.578c-3.6,0-6.531-3.685-6.531-8.219s2.929-8.218,6.531-8.218,6.527,3.687,6.527,8.218S4014.973,183.578,4011.377,183.578Zm0-15.376c-3.02,0-5.474,3.21-5.474,7.158s2.454,7.162,5.474,7.162,5.471-3.21,5.471-7.162S4014.394,168.2,4011.377,168.2Z" transform="translate(-4004.847 -167.141)" fill="#1a1a1a"/>
    </g>
    <g id="Grupo_1104" data-name="Grupo 1104" transform="translate(4071.506 258.949)">
      <path id="Trazado_1135" data-name="Trazado 1135" d="M4008,172.29c-1.3-1.028-2.219-1.435-3.1-1.379a3.024,3.024,0,0,0-1.928,1.012c-.786-.709.207-1.94,1.849-2.061a4.657,4.657,0,0,1,3.543,1.514C4008.282,172.232,4008.143,172.29,4008,172.29Z" transform="translate(-4002.7 -169.85)" fill="#1a1a1a"/>
    </g>
    <g id="Grupo_1105" data-name="Grupo 1105" transform="translate(4063.47 280.895)">
      <path id="Trazado_1136" data-name="Trazado 1136" d="M3999.469,189.766c-.528-.558.044-10.482.044-10.482,1.056.063.485,9.984.485,9.984A.534.534,0,0,1,3999.469,189.766Z" transform="translate(-3999.245 -179.284)" fill="#1a1a1a"/>
    </g>
    <g id="Grupo_1106" data-name="Grupo 1106" transform="translate(4082.951 280.948)">
      <path id="Trazado_1137" data-name="Trazado 1137" d="M4008.566,189.736c-.526-.507-.946-10.428-.946-10.428,1.053-.044,1.472,9.879,1.472,9.879A5.588,5.588,0,0,1,4008.566,189.736Z" transform="translate(-4007.62 -179.307)" fill="#1a1a1a"/>
    </g>
    <g id="Grupo_1107" data-name="Grupo 1107" transform="translate(4069.526 258.712)">
      <path id="Trazado_1138" data-name="Trazado 1138" d="M4006.156,182.063c-.53-.17-3.537-1.363-4.177-2.836a1.418,1.418,0,0,1-.031-1.114c.624-1.538,3.482-8.088,3.6-8.365.936.491-2.008,7.239-2.624,8.763.37,1.1,2.292,2.1,3.419,2.533C4006.568,181.935,4006.368,182.063,4006.156,182.063Z" transform="translate(-4001.849 -169.748)" fill="#1a1a1a"/>
    </g>
    <g id="Grupo_1108" data-name="Grupo 1108" transform="translate(4053.108 233.446)">
      <path id="Trazado_1139" data-name="Trazado 1139" d="M4031.831,182.387c-.519-.6,1.442-14.367,1.442-14.367l-1.364,1.766c-.93-.2-2.036-5.025-2.036-5.025l-.534,1.072c-.952.014-7.83-8.3-19.687-5.19-9.152,2.41-12.88,8.463-14.031,10.87l4.285-1.363c.683.586-.3,6.848-.3,6.848a21.08,21.08,0,0,1,14.634-6.09c10.036-.156,14.343,2.731,14.52,2.852.229.435.229,6.541.229,6.541-1.056,0-1.056-5.809-1.056-5.809-.994-.563-5.321-2.666-13.678-2.526a20.094,20.094,0,0,0-15.024,7.028c-.944-.4.184-7.579.184-7.579l-4.562,1.449c-.539-1.047,2.487-10.07,14.536-13.243a19.7,19.7,0,0,1,19.347,5.055l.854-1.7c.987.119,2.168,5.285,2.168,5.285l1.9-2.464c.94.4-1.3,16.139-1.3,16.139A.528.528,0,0,1,4031.831,182.387Z" transform="translate(-3994.791 -158.887)" fill="#1a1a1a"/>
    </g>
    <g id="Grupo_1109" data-name="Grupo 1109" transform="translate(4059.746 250.228)">
      <path id="Trazado_1140" data-name="Trazado 1140" d="M3998.173,172.875c-.528-.533-.528-6.774-.528-6.774,1.054,0,1.054,6.241,1.054,6.241A.53.53,0,0,1,3998.173,172.875Z" transform="translate(-3997.645 -166.101)" fill="#1a1a1a"/>
    </g>
    <g id="Grupo_1110" data-name="Grupo 1110" transform="translate(4057.597 252.155)">
      <path id="Trazado_1141" data-name="Trazado 1141" d="M3997.582,171.776c-.524-.491-.861-4.846-.861-4.846,1.049-.081,1.388,4.273,1.388,4.273C3997.609,171.776,3997.6,171.776,3997.582,171.776Z" transform="translate(-3996.721 -166.929)" fill="#1a1a1a"/>
    </g>
    <g id="Grupo_1111" data-name="Grupo 1111" transform="translate(4059.914 265.56)">
      <path id="Trazado_1142" data-name="Trazado 1142" d="M4011.811,191.232c-13.088,0-13.91-8.963-13.959-9.986-.142-2.757-.135-8.5-.135-8.553,1.056.053,1.046,5.769,1.186,8.5.076,1.5,1.04,8.982,12.61,8.982,11.873,0,12.834-7.481,12.913-8.982.137-2.738.277-7.928.28-7.981,1.054.084.911,5.285.772,8.035C4025.426,182.269,4024.605,191.232,4011.811,191.232Z" transform="translate(-3997.717 -172.692)" fill="#1a1a1a"/>
    </g>
    <g id="Grupo_1116" data-name="Grupo 1116" transform="translate(3982.463 208.726)">
      <g id="Grupo_1112" data-name="Grupo 1112">
        <path id="Trazado_1143" data-name="Trazado 1143" d="M4024.906,195.464c-.284-.081-15.478-9.826-15.478-9.826H3974.3a9.887,9.887,0,0,1-9.875-9.877V158.137a9.887,9.887,0,0,1,9.875-9.877h41.265a9.886,9.886,0,0,1,9.872,9.877v36.8C4025.081,195.443,4024.993,195.464,4024.906,195.464Zm-50.61-46.145a8.827,8.827,0,0,0-8.819,8.819v17.623a8.825,8.825,0,0,0,8.819,8.819h35.286c.286.084,14.8,9.4,14.8,9.4V158.137a8.828,8.828,0,0,0-8.818-8.819Z" transform="translate(-3964.422 -148.26)" fill="#1a1a1a"/>
      </g>
      <g id="Grupo_1113" data-name="Grupo 1113" transform="translate(12.252 13.159)">
        <path id="Trazado_1144" data-name="Trazado 1144" d="M3979.317,154.975h-9.628c0-1.058,9.628-1.058,9.628-1.058C3979.843,154.738,3979.6,154.975,3979.317,154.975Z" transform="translate(-3969.688 -153.917)" fill="#1a1a1a"/>
      </g>
      <g id="Grupo_1114" data-name="Grupo 1114" transform="translate(33.472 13.159)">
        <path id="Trazado_1145" data-name="Trazado 1145" d="M3994.366,154.975h-15.555c0-1.058,15.555-1.058,15.555-1.058C3994.892,154.738,3994.655,154.975,3994.366,154.975Z" transform="translate(-3978.811 -153.917)" fill="#1a1a1a"/>
      </g>
      <g id="Grupo_1115" data-name="Grupo 1115" transform="translate(12.252 23.076)">
        <path id="Trazado_1146" data-name="Trazado 1146" d="M4006.464,159.236h-36.775c0-1.056,36.775-1.056,36.775-1.056C4006.99,159,4006.752,159.236,4006.464,159.236Z" transform="translate(-3969.688 -158.18)" fill="#1a1a1a"/>
      </g>
    </g>
    <g id="Grupo_1117" data-name="Grupo 1117" transform="translate(4416.765 395.921)">
      <path id="Trazado_1147" data-name="Trazado 1147" d="M4166.457,243.1a5.345,5.345,0,0,1-1.077-.1c.345-1,3.434-.414,4.757-3.033a1.8,1.8,0,0,0-.027-1.621c-1.382-3.059-9.189-7.011-18.989-9.61,8.794,1.24,18.188,5.271,19.946,9.175a2.829,2.829,0,0,1,.015,2.531A4.989,4.989,0,0,1,4166.457,243.1Z" transform="translate(-4151.121 -228.732)" fill="#1a1a1a"/>
    </g>
    <g id="Grupo_1118" data-name="Grupo 1118" transform="translate(4358.242 248.529)">
      <path id="Trazado_1148" data-name="Trazado 1148" d="M4156.574,311.2a64.157,64.157,0,0,1-9.586-.626c-12.795-40.057-15.514-100.956-15.542-101.567,1.08.565,3.783,61.007,16.037,100.574,2.63.384,21.013,2.629,39.512-5.569-1.176-5.948-14.633-73.909-22.9-100.086-.145-.451-.347-1.275-.624-2.377-1.706-6.855-6.239-25.065-15.086-30.457-5.527-3.366-11.2-5.45-22.421-5.45,11.461-1.056,17.287,1.089,22.969,4.552,9.221,5.62,13.831,24.13,15.563,31.1.268,1.072.468,1.873.6,2.312,8.627,27.305,22.867,99.883,23.012,100.614A71.987,71.987,0,0,1,4156.574,311.2Z" transform="translate(-4125.963 -165.371)" fill="#1a1a1a"/>
    </g>
    <g id="Grupo_1119" data-name="Grupo 1119" transform="translate(4414.404 390.034)">
      <path id="Trazado_1149" data-name="Trazado 1149" d="M4171.747,241.652c-.321-.951.2-1.489.049-2.38-.189-1.1-1.385-2.854-6.028-4.987a52.788,52.788,0,0,0-6-2.231c-4.02-1.3-7.49-2.426-9.66-5.853,2.858,2.543,6.006,3.561,9.986,4.848a53.773,53.773,0,0,1,6.115,2.275c4.085,1.882,6.316,3.834,6.634,5.8a2.749,2.749,0,0,1-.736,2.384A.53.53,0,0,1,4171.747,241.652Z" transform="translate(-4150.105 -226.201)" fill="#1a1a1a"/>
    </g>
    <g id="Grupo_1120" data-name="Grupo 1120" transform="translate(4249.233 370.315)">
      <path id="Trazado_1150" data-name="Trazado 1150" d="M4079.143,252.112c-.284-9.782.763-19.089,6.735-24.588,11.132-10.238,23.059-9.973,34.576-9.721,3.066.072,6.249.142,9.329,0-3.071,1.193-6.266,1.131-9.351,1.054-11.336-.242-23.022-.509-33.837,9.444-5.686,5.234-6.688,14.29-6.924,23.3A.529.529,0,0,1,4079.143,252.112Z" transform="translate(-4079.102 -217.724)" fill="#1a1a1a"/>
    </g>
    <g id="Grupo_1121" data-name="Grupo 1121" transform="translate(4277.653 269.063)">
      <path id="Trazado_1151" data-name="Trazado 1151" d="M4108.753,258.333a13.532,13.532,0,0,1-4.01-.621c-5.9-1.814-9.9-4.873-11.891-9.086-4.013-8.481.73-20.075,4.191-28.536.649-1.593,1.262-3.085,1.762-4.434,4.352-11.664,16.343-41.13,16.464-41.428.72-.307,19.338,1.521,32.046,11.768.158.654-2.6,14.583-7.94,31.851C4133.1,238.142,4122,258.333,4108.753,258.333Zm7.342-83.339c-1.4,3.457-12.223,30.1-16.3,41.034-.5,1.354-1.12,2.859-1.778,4.464-3.382,8.277-8.02,19.622-4.21,27.68,1.863,3.936,5.646,6.807,11.247,8.535,18.431,5.643,30.983-31.634,33.318-39.169,4.88-15.783,7.593-28.764,8.031-30.918C4134.962,177.548,4118.791,175.313,4116.1,174.994Z" transform="translate(-4091.319 -174.198)" fill="#1a1a1a"/>
    </g>
    <g id="Grupo_1122" data-name="Grupo 1122" transform="translate(4320.292 264.534)">
      <path id="Trazado_1152" data-name="Trazado 1152" d="M4117.535,176.324a41.912,41.912,0,0,1-7.886-4.073c2.792.6,5.313,1.919,8.084,3.054C4117.937,176.2,4117.742,176.324,4117.535,176.324Z" transform="translate(-4109.648 -172.251)" fill="#1a1a1a"/>
    </g>
    <g id="Grupo_1123" data-name="Grupo 1123" transform="translate(4328.471 250.967)">
      <path id="Trazado_1153" data-name="Trazado 1153" d="M4120.552,182.345a4.367,4.367,0,0,1-1.151-.168c2.485-.374,3.408-2.21,4.2-4.287,1.016-2.561-.276-4.124-4.609-7.723a20.392,20.392,0,0,0-4.191-2.517c-.549-.272-1.1-.54-1.64-.833a1.792,1.792,0,0,1,2.107-.109,21.137,21.137,0,0,1,4.4,2.65c3.946,3.275,6.3,5.439,5.069,8.533C4124.023,179.749,4123.027,182.345,4120.552,182.345Z" transform="translate(-4113.165 -166.418)" fill="#1a1a1a"/>
    </g>
    <g id="Grupo_1124" data-name="Grupo 1124" transform="translate(4308.259 244.324)">
      <path id="Trazado_1154" data-name="Trazado 1154" d="M4104.489,190.075c-.315-.958,4.9-6.113,5.82-10.242,3.152-14.153,10.18-16.27,14.086-16.27,5.979,0,13.189,5.143,14.413,9.133,1.451,4.741-2.1,6.9-2.137,6.918-.417-.977,2.332-2.684,1.127-6.609-1.1-3.582-7.932-8.386-13.4-8.386-3.592,0-10.062,2.008-13.058,15.439-.993,4.441-6.255,9.645-6.475,9.865A.553.553,0,0,1,4104.489,190.075Z" transform="translate(-4104.476 -163.563)" fill="#1a1a1a"/>
    </g>
    <g id="Grupo_1125" data-name="Grupo 1125" transform="translate(4324.125 270.34)">
      <path id="Trazado_1155" data-name="Trazado 1155" d="M4111.3,180.349a13.354,13.354,0,0,1,2.02-5.6c.871.6-.937,3.41-1.519,5.234A.53.53,0,0,1,4111.3,180.349Z" transform="translate(-4111.296 -174.747)" fill="#1a1a1a"/>
    </g>
    <g id="Grupo_1126" data-name="Grupo 1126" transform="translate(4294.04 386.402)">
      <path id="Trazado_1156" data-name="Trazado 1156" d="M4139.955,245.578c-31.979,0-41.206-9.961-41.591-10.4.882-.6,10.18,9.34,41.66,9.34.879,0,1.776-.007,2.7-.026,33.853-.591,37.12-7.9,38.474-19.857-.331,12.287-3.824,20.306-38.458,20.913Q4141.321,245.577,4139.955,245.578Z" transform="translate(-4098.364 -224.64)" fill="#1a1a1a"/>
    </g>
    <g id="Grupo_1127" data-name="Grupo 1127" transform="translate(4324.902 257.979)">
      <path id="Trazado_1157" data-name="Trazado 1157" d="M4116.469,183.092a8.068,8.068,0,0,1-4.4-1.563c.666-.819,3.07,1,5.442.375,1.407-.379,2.544-1.57,3.369-3.552.624-1.484-.441-3.492-1.185-4.157a34.035,34.035,0,0,0-8.063-4.762,16.862,16.862,0,0,1,8.765,3.976c.912.81,2.325,3.292,1.459,5.353-.963,2.3-2.338,3.7-4.082,4.162A5.009,5.009,0,0,1,4116.469,183.092Z" transform="translate(-4111.631 -169.433)" fill="#1a1a1a"/>
    </g>
    <g id="Grupo_1128" data-name="Grupo 1128" transform="translate(4332.32 196.825)">
      <path id="Trazado_1158" data-name="Trazado 1158" d="M4140.741,182.7c8.226-1.842,13.918-10.88,13.475-22.536-.155-4.124-1.454-7.26-3.857-9.319-3.922-3.35-9.5-2.738-9.558-2.726-.837-.463-11.707-8.716-20.486.042-3.867,3.852-4.552,7.6-4.672,8.842l6.164,1,3.158-3.394c.91.4.616,4.434.616,4.434l14.148,2.991,2.054-4.752c.982.393-.612,8.049-.042,10.749-1.345-1.252-1.1-3.908-.763-6.232l-.453,1.044c-.593.312-15.615-2.866-15.615-2.866-.416-.554-.2-3.554-.2-3.554l-2.329,2.505c-.467.161-7.376-.958-7.376-.958-.448-.717-.5-5.52,4.56-10.556,8.82-8.791,19.817-1.447,21.322-.363,1.106-.091,6.288-.309,10.152,2.994,2.64,2.259,4.063,5.65,4.231,10.08.464,12.234-5.631,21.727-14.483,22.571Z" transform="translate(-4114.82 -143.144)" fill="#1a1a1a"/>
    </g>
    <g id="Grupo_1129" data-name="Grupo 1129" transform="translate(4364.433 232.765)">
      <path id="Trazado_1159" data-name="Trazado 1159" d="M4139.019,172.924l-10.258-.428c-.5-.57.538-13.9.538-13.9,1.051.081.053,12.871.053,12.871l9.694.4C4139.536,172.7,4139.306,172.924,4139.019,172.924Z" transform="translate(-4128.624 -158.594)" fill="#1a1a1a"/>
    </g>
    <g id="Grupo_1130" data-name="Grupo 1130" transform="translate(4356.863 192.445)">
      <path id="Trazado_1160" data-name="Trazado 1160" d="M4152.346,197.651l-8.862-.065c-.526-.528-.526-7.96-.526-7.96,1.058,0,1.058,6.907,1.058,6.907l7.789.058-.254-9.179c-.046-1.624-.035-3.252-.021-4.876l.009-1.145c.032-5.89.067-11.98-.366-17.947l-.079-1.114c-.365-5.32-.819-11.94-4.648-15.842a14.464,14.464,0,0,0-7.188-3.652c-2.642-.637-11.494-2.1-13.887,5.93,1.108-7.383,8.209-8.37,14.136-6.955a15.492,15.492,0,0,1,7.693,3.938c4.1,4.18,4.575,11.017,4.95,16.509l.075,1.11c.435,6.011.4,12.12.365,18.031l-.007,1.144c-.009,1.612-.021,3.226.028,4.839l.266,9.726C4152.624,197.595,4152.493,197.651,4152.346,197.651Z" transform="translate(-4125.37 -141.261)" fill="#1a1a1a"/>
    </g>
    <g id="Grupo_1131" data-name="Grupo 1131" transform="translate(4114.233 209.18)">
      <path id="Trazado_1161" data-name="Trazado 1161" d="M4035.2,183.09c-1.98-3.438-3-12.562-.387-22.185,1.435-5.288,1.55-8.628.345-10.2a3.662,3.662,0,0,0-3.162-1.191c-3.552,0-3.938,3.089-4.39,6.674-.353,2.815-.718,5.725-2.753,7.311-4.022,3.131-2.71,8.286-2.652,8.5-1.087.028-2.577-5.771,2-9.335,1.694-1.319,2.031-4.01,2.359-6.613.446-3.561.955-7.6,5.427-7.6a4.719,4.719,0,0,1,4.01,1.605c1.436,1.882,1.384,5.418-.162,11.124-2.79,10.27-1.278,18.824-.161,21.15C4035.351,183.071,4035.271,183.09,4035.2,183.09Z" transform="translate(-4021.068 -148.455)" fill="#1a1a1a"/>
    </g>
    <g id="Grupo_1132" data-name="Grupo 1132" transform="translate(4099.705 204.354)">
      <path id="Trazado_1162" data-name="Trazado 1162" d="M4027.22,168.585a115.05,115.05,0,0,1-11.6-15.921,5.2,5.2,0,0,1-.715-1.5,3.717,3.717,0,0,1,1.275-3.52,4.976,4.976,0,0,1,4.96-.984,8.463,8.463,0,0,1,3.615,3.206c1.419,1.977,2.7,3.643,3.825,5.113a69.447,69.447,0,0,1,5.871,8.512,68.347,68.347,0,0,1-6.707-7.87c-1.132-1.477-2.414-3.147-3.846-5.141a7.609,7.609,0,0,0-3.1-2.822,3.949,3.949,0,0,0-3.918.77,2.665,2.665,0,0,0-.953,2.487,4.366,4.366,0,0,0,.584,1.193,137.506,137.506,0,0,0,11.112,15.607C4027.464,168.544,4027.344,168.585,4027.22,168.585Z" transform="translate(-4014.822 -146.381)" fill="#1a1a1a"/>
    </g>
    <g id="Grupo_1133" data-name="Grupo 1133" transform="translate(4093.474 208.375)">
      <path id="Trazado_1163" data-name="Trazado 1163" d="M4024.575,170.308a95.361,95.361,0,0,1-11.685-16.149,4.194,4.194,0,0,1-.747-2.082,4,4,0,0,1,1.726-3.005,4.856,4.856,0,0,1,5.622-.13,6.637,6.637,0,0,0-5,.986,2.949,2.949,0,0,0-1.291,2.14,3.357,3.357,0,0,0,.6,1.556,108.188,108.188,0,0,0,11.18,15.811C4024.819,170.266,4024.7,170.308,4024.575,170.308Z" transform="translate(-4012.144 -148.109)" fill="#1a1a1a"/>
    </g>
    <g id="Grupo_1134" data-name="Grupo 1134" transform="translate(4088.771 213.494)">
      <path id="Trazado_1164" data-name="Trazado 1164" d="M4028.943,184.694a25.579,25.579,0,0,0-5.38-10.91c-3.432-3.9-9.711-11.043-12.578-16.693a5.553,5.553,0,0,1-.819-3.361,3.831,3.831,0,0,1,2.1-2.719,4.506,4.506,0,0,1,3.7-.486c-1.349.649-2.222.921-3.215,1.424a2.822,2.822,0,0,0-1.542,1.949,4.712,4.712,0,0,0,.716,2.719c2.811,5.529,9.031,12.6,12.376,16.407a21.825,21.825,0,0,1,5.166,11.077C4028.984,184.689,4028.963,184.694,4028.943,184.694Z" transform="translate(-4010.122 -150.31)" fill="#1a1a1a"/>
    </g>
    <g id="Grupo_1135" data-name="Grupo 1135" transform="translate(4223.079 294.038)">
      <path id="Trazado_1165" data-name="Trazado 1165" d="M4079.622,239.47c-.519-.419-11.764-54.317-11.764-54.317,1.031-.219,11.755,51.174,11.755,51.174l10.451-51.393c1.035.214-9.927,54.115-9.927,54.115Z" transform="translate(-4067.858 -184.934)" fill="#1a1a1a"/>
    </g>
    <g id="Grupo_1136" data-name="Grupo 1136" transform="translate(4276.487 299.725)">
      <path id="Trazado_1166" data-name="Trazado 1166" d="M4094.193,214.168c-.525-.472-3.375-26.789-3.375-26.789,1.048-.114,3.9,26.2,3.9,26.2C4094.232,214.163,4094.212,214.168,4094.193,214.168Z" transform="translate(-4090.818 -187.379)" fill="#1a1a1a"/>
    </g>
    <g id="Grupo_1137" data-name="Grupo 1137" transform="translate(4281.601 346.908)">
      <path id="Trazado_1167" data-name="Trazado 1167" d="M4096.139,232.125c-.525-.47-3.123-24.462-3.123-24.462,1.052-.114,3.65,23.879,3.65,23.879C4096.177,232.122,4096.158,232.125,4096.139,232.125Z" transform="translate(-4093.016 -207.662)" fill="#1a1a1a"/>
    </g>
    <g id="Grupo_1138" data-name="Grupo 1138" transform="translate(4181.043 299.611)">
      <path id="Trazado_1168" data-name="Trazado 1168" d="M4049.806,292.422c-.523-.586,10.8-105.092,10.8-105.092,1.052.114-10.277,104.619-10.277,104.619A.526.526,0,0,1,4049.806,292.422Z" transform="translate(-4049.788 -187.33)" fill="#1a1a1a"/>
    </g>
    <g id="Grupo_1141" data-name="Grupo 1141" transform="translate(4247.291 108.496)">
      <g id="Grupo_1139" data-name="Grupo 1139" transform="translate(0.53 0.528)">
        <path id="Trazado_1169" data-name="Trazado 1169" d="M4123.879,151.315h-45.385c0-1.056,44.856-1.056,44.856-1.056V105.4c1.058,0,1.058,45.387,1.058,45.387A.528.528,0,0,1,4123.879,151.315Z" transform="translate(-4078.495 -105.4)" fill="#1a1a1a"/>
      </g>
      <g id="Grupo_1140" data-name="Grupo 1140">
        <path id="Trazado_1170" data-name="Trazado 1170" d="M4124.181,197.005a45.928,45.928,0,1,1,30.962-12.015c8.572-9.261,13.9-21.334,13.9-33.9a44.819,44.819,0,1,0-37.125,44.193A14.136,14.136,0,0,1,4124.181,197.005Z" transform="translate(-4078.267 -105.173)" fill="#1a1a1a"/>
      </g>
    </g>
    <g id="Grupo_1142" data-name="Grupo 1142" transform="translate(4212.152 208.024)">
      <path id="Trazado_1171" data-name="Trazado 1171" d="M4086.488,161.182a8.675,8.675,0,0,1-2.229-.293c-2.091-.556-4.422-1.917-5.024-4.048a10.617,10.617,0,0,1-5.756,3.259c-4.152.831-9.086-.058-10.155-3.985a5.56,5.56,0,0,1-.073-2.347,7.363,7.363,0,0,1,1.823-3.834c1.725-1.847,4.495-2.41,8.014-1.645-3.406.337-5.765.791-7.244,2.361a6.329,6.329,0,0,0-1.549,3.287,4.444,4.444,0,0,0,.044,1.9c1.032,3.773,6.289,3.764,8.928,3.229a9.448,9.448,0,0,0,5.9-3.852,7.439,7.439,0,0,0,5.361,4.652c1.85.5,4.611.4,6.321-1.5C4090.414,160.438,4088.521,161.182,4086.488,161.182Z" transform="translate(-4063.161 -147.958)" fill="#1a1a1a"/>
    </g>
    <g id="Grupo_1143" data-name="Grupo 1143" transform="translate(4239.282 218.073)">
      <path id="Trazado_1172" data-name="Trazado 1172" d="M4076.551,164.507c-3-4.036-1.188-12.15-1.167-12.229,1.01.323-.688,8,1.6,11.405C4076.757,164.477,4076.654,164.507,4076.551,164.507Z" transform="translate(-4074.824 -152.278)" fill="#1a1a1a"/>
    </g>
    <g id="Grupo_1144" data-name="Grupo 1144" transform="translate(4217.783 200.783)">
      <path id="Trazado_1173" data-name="Trazado 1173" d="M4067.631,153.137a3.528,3.528,0,0,1-1.958-4.159,4.654,4.654,0,0,1,2.307-3.04,8.024,8.024,0,0,1,9.859,1.4c-2.851-1.6-6.6-2.128-9.317-.491a3.572,3.572,0,0,0-1.817,2.345c-.235,1.133.118,2.538,1.117,2.929C4068.04,153.009,4067.84,153.137,4067.631,153.137Z" transform="translate(-4065.582 -144.845)" fill="#1a1a1a"/>
    </g>
    <g id="Grupo_1145" data-name="Grupo 1145" transform="translate(4229.43 198.48)">
      <path id="Trazado_1174" data-name="Trazado 1174" d="M4091.808,173.623c2.222-4.95,6.071-12.68,1.918-18.028a8.984,8.984,0,0,0-3.788-2.817,12.028,12.028,0,0,0-2.283-.57c-1.613-.167-1.777-.181-1.933-.491-1.938-3.82-4.392-5.85-7.694-6.6-2.559-.577-5.893-.109-7.439,2.954.553-3.447,3.935-4.815,7.673-3.98a12,12,0,0,1,8.212,6.772,2.355,2.355,0,0,0,.958.256,13.281,13.281,0,0,1,2.889.675,10.034,10.034,0,0,1,4.237,3.147c4.555,5.867.507,14.069-2.311,18.438A.523.523,0,0,1,4091.808,173.623Z" transform="translate(-4070.589 -143.856)" fill="#1a1a1a"/>
    </g>
    <g id="Grupo_1146" data-name="Grupo 1146" transform="translate(4219.924 224.821)">
      <path id="Trazado_1175" data-name="Trazado 1175" d="M4069.344,169.569c-1.619-1.1-3.76-2.724-2.419-4.62a10.853,10.853,0,0,1,1.529-1.633,7.784,7.784,0,0,0,1.664-1.919c1.57-2.887-.375-6.157-.4-6.188,1-.4,3.187,3.261,1.324,6.69a8.628,8.628,0,0,1-1.875,2.191,9.669,9.669,0,0,0-1.382,1.47c-.631.886.153,1.754,1.724,2.943C4069.66,169.5,4069.5,169.569,4069.344,169.569Z" transform="translate(-4066.502 -155.179)" fill="#1a1a1a"/>
    </g>
    <g id="Grupo_1147" data-name="Grupo 1147" transform="translate(4234.313 348.05)">
      <path id="Trazado_1176" data-name="Trazado 1176" d="M4073.532,264.806c-.53-.526-.844-56.653-.844-56.653,1.058-.007,1.373,56.122,1.373,56.122C4073.534,264.806,4073.532,264.806,4073.532,264.806Z" transform="translate(-4072.688 -208.153)" fill="#1a1a1a"/>
    </g>
    <g id="Grupo_1148" data-name="Grupo 1148" transform="translate(4239.035 359.97)">
      <path id="Trazado_1177" data-name="Trazado 1177" d="M4077.644,219.132a2.928,2.928,0,1,1,2.927-2.929A2.934,2.934,0,0,1,4077.644,219.132Zm0-4.8a1.87,1.87,0,1,0,1.871,1.87A1.871,1.871,0,0,0,4077.644,214.333Z" transform="translate(-4074.717 -213.277)" fill="#1a1a1a"/>
    </g>
    <g id="Grupo_1149" data-name="Grupo 1149" transform="translate(4239.035 383.669)">
      <path id="Trazado_1178" data-name="Trazado 1178" d="M4077.644,229.32a2.928,2.928,0,1,1,2.927-2.929A2.932,2.932,0,0,1,4077.644,229.32Zm0-4.8a1.869,1.869,0,1,0,1.871,1.868A1.869,1.869,0,0,0,4077.644,224.523Z" transform="translate(-4074.717 -223.465)" fill="#1a1a1a"/>
    </g>
    <g id="Grupo_1150" data-name="Grupo 1150" transform="translate(4374.251 231.269)">
      <path id="Trazado_1179" data-name="Trazado 1179" d="M4133.372,164.79c-.527-.528-.527-6.839-.527-6.839,1.057,0,1.057,6.311,1.057,6.311A.53.53,0,0,1,4133.372,164.79Z" transform="translate(-4132.845 -157.951)" fill="#1a1a1a"/>
    </g>
    <g id="Grupo_1151" data-name="Grupo 1151" transform="translate(4347.061 215.41)">
      <path id="Trazado_1180" data-name="Trazado 1180" d="M4126.893,155.294c-2.264-4.317-5.579-3.18-5.721-3.133-.315-1.01,4.036-2.489,6.2,2.389C4127.034,155.278,4126.961,155.294,4126.893,155.294Z" transform="translate(-4121.156 -151.134)" fill="#1a1a1a"/>
    </g>
    <g id="Grupo_1152" data-name="Grupo 1152" transform="translate(4045.038 142.005)">
      <path id="Trazado_1181" data-name="Trazado 1181" d="M4032.319,150.242h-31.983a9.027,9.027,0,0,1-9.015-9.016V128.59a9.026,9.026,0,0,1,9.015-9.012h11.578c0,1.056-11.578,1.056-11.578,1.056a7.968,7.968,0,0,0-7.961,7.956v12.636a7.967,7.967,0,0,0,7.961,7.958h31.983C4032.845,150,4032.607,150.242,4032.319,150.242Z" transform="translate(-3991.321 -119.578)" fill="#1a1a1a"/>
    </g>
    <g id="Grupo_1153" data-name="Grupo 1153" transform="translate(4065.629 142.005)">
      <path id="Trazado_1182" data-name="Trazado 1182" d="M4153.055,150.242H4062.26c0-1.058,90.795-1.058,90.795-1.058a7.967,7.967,0,0,0,7.959-7.958V128.59a7.968,7.968,0,0,0-7.959-7.956H4000.174c0-1.056,152.881-1.056,152.881-1.056a9.026,9.026,0,0,1,9.014,9.012v12.636A9.027,9.027,0,0,1,4153.055,150.242Z" transform="translate(-4000.174 -119.578)" fill="#1a1a1a"/>
    </g>
    <g id="Grupo_1154" data-name="Grupo 1154" transform="translate(4195.746 148.379)">
      <path id="Trazado_1183" data-name="Trazado 1183" d="M4065.063,140.228a8.955,8.955,0,1,1,8.953-8.954A8.964,8.964,0,0,1,4065.063,140.228Zm0-16.851a7.9,7.9,0,1,0,7.9,7.9A7.91,7.91,0,0,0,4065.063,123.376Z" transform="translate(-4056.109 -122.318)" fill="#1a1a1a"/>
    </g>
    <g id="Grupo_1155" data-name="Grupo 1155" transform="translate(4060.472 151.468)">
      <path id="Trazado_1184" data-name="Trazado 1184" d="M4125.026,124.7h-127.07c0-1.058,127.07-1.058,127.07-1.058C4125.555,124.467,4125.317,124.7,4125.026,124.7Z" transform="translate(-3997.957 -123.646)" fill="#1a1a1a"/>
    </g>
    <g id="Grupo_1156" data-name="Grupo 1156" transform="translate(4060.472 162.148)">
      <path id="Trazado_1185" data-name="Trazado 1185" d="M4125.026,129.293h-127.07c0-1.056,127.07-1.056,127.07-1.056C4125.555,129.053,4125.317,129.293,4125.026,129.293Z" transform="translate(-3997.957 -128.237)" fill="#1a1a1a"/>
    </g>
    <g id="Grupo_1157" data-name="Grupo 1157" transform="translate(4393.909 317.479)">
      <path id="Trazado_1186" data-name="Trazado 1186" d="M4156.649,227.52c-7.017,0-13.294-5.42-14.941-13.39-1.873-9.107,2.781-17.507,10.6-19.119-7.15,2.554-11.353,10.235-9.566,18.908,1.742,8.433,8.989,13.822,16.49,12.278A2.58,2.58,0,0,1,4156.649,227.52Z" transform="translate(-4141.295 -195.011)" fill="#1a1a1a"/>
    </g>
    <g id="Grupo_1162" data-name="Grupo 1162" transform="translate(4380.433 213.229)">
      <g id="Grupo_1158" data-name="Grupo 1158" transform="translate(0 36.914)">
        <path id="Trazado_1187" data-name="Trazado 1187" d="M4221.813,185.743c-1.376-.854-14.6-7.637-14.6-7.637a19.9,19.9,0,0,0-13.469-.993l-11.39,3.864a19.216,19.216,0,0,1-14.09-1.482l-18.169-10.826a13.727,13.727,0,0,0-12.524-.107l-1.977,1.135c-.521-.914,1.454-2.049,1.454-2.049a14.891,14.891,0,0,1,13.583.114l18.172,10.824a18.045,18.045,0,0,0,13.213,1.4l11.389-3.864a21.019,21.019,0,0,1,14.29,1.051l13.231,6.788a6.282,6.282,0,0,1,.868.586C4222.139,185.664,4221.976,185.743,4221.813,185.743Z" transform="translate(-4135.501 -166.065)" fill="#1a1a1a"/>
      </g>
      <g id="Grupo_1159" data-name="Grupo 1159" transform="translate(48.924 14.495)">
        <path id="Trazado_1188" data-name="Trazado 1188" d="M4165.793,174.946a9.26,9.26,0,1,1,9.257-9.261A9.271,9.271,0,0,1,4165.793,174.946Zm0-17.461a8.2,8.2,0,1,0,8.2,8.2A8.211,8.211,0,0,0,4165.793,157.485Z" transform="translate(-4156.533 -156.427)" fill="#1a1a1a"/>
      </g>
      <g id="Grupo_1160" data-name="Grupo 1160" transform="translate(19.301)">
        <path id="Trazado_1189" data-name="Trazado 1189" d="M4194.669,234.289H4143.8c0-1.058,50.87-1.058,50.87-1.058a15.628,15.628,0,0,0,15.612-15.614V166.866a15.628,15.628,0,0,0-15.612-15.611h-29.607c0-1.058,29.607-1.058,29.607-1.058a16.689,16.689,0,0,1,16.67,16.67v50.751A16.689,16.689,0,0,1,4194.669,234.289Z" transform="translate(-4143.799 -150.196)" fill="#1a1a1a"/>
      </g>
      <g id="Grupo_1161" data-name="Grupo 1161" transform="translate(2.737)">
        <path id="Trazado_1190" data-name="Trazado 1190" d="M4151.38,151.254h-14.7c0-1.058,14.7-1.058,14.7-1.058C4151.911,151.015,4151.673,151.254,4151.38,151.254Z" transform="translate(-4136.679 -150.196)" fill="#1a1a1a"/>
      </g>
    </g>
    <g id="Grupo_1163" data-name="Grupo 1163" transform="translate(4343.993 124.812)">
      <path id="Trazado_1191" data-name="Trazado 1191" d="M4211.249,192.835c-.46-.812-.16-1.742.233-3.417C4211.766,192.835,4211.687,192.835,4211.249,192.835Zm1.838-8.733a40.654,40.654,0,0,1,.028-6.6,10.565,10.565,0,0,1,.493,6.146A.524.524,0,0,1,4213.087,184.1Zm.568-12.12a58.1,58.1,0,0,1-1.064-6.5,10.372,10.372,0,0,1,1.591,5.948A6.962,6.962,0,0,1,4213.655,171.982Zm-1.664-12.01c-.994-2.38-1.57-4.317-2.231-6.162a10.171,10.171,0,0,1,2.745,5.508C4212.074,159.965,4212.033,159.972,4211.991,159.972Zm-4.075-11.415c-1.356-2.1-2.338-3.866-3.394-5.548a10.168,10.168,0,0,1,3.866,4.79C4208.076,148.541,4208,148.557,4207.916,148.557Zm-6.458-10.242c-1.647-1.756-2.981-3.271-4.392-4.711a10.332,10.332,0,0,1,4.8,3.852C4201.688,138.278,4201.577,138.315,4201.458,138.315ZM4193,129.641c-2.082-1.579-3.592-2.759-5.088-3.848a9.83,9.83,0,0,1,5.167,2.7C4193.3,129.575,4193.149,129.641,4193,129.641Zm-9.822-7.116c-2.012-1.14-3.785-2.122-5.539-3a10.523,10.523,0,0,1,5.816,2.019C4183.532,122.432,4183.358,122.525,4183.181,122.525Zm-63.327-.351c-.223-1.017,1.677-2.34,5.074-3.978a55.8,55.8,0,0,1-4.771,3.88A.532.532,0,0,1,4119.854,122.173Zm52.473-5.039c-2.065-.758-3.989-1.4-5.9-1.914a10.269,10.269,0,0,1,6.093.9C4172.739,117,4172.539,117.135,4172.327,117.135Zm-41.577-.288a11.4,11.4,0,0,1,5.665-2.831,15.209,15.209,0,0,1-5.482,2.8A.459.459,0,0,1,4130.75,116.846Zm29.883-2.905a58.534,58.534,0,0,0-6.062-.679,10.318,10.318,0,0,1,6.148-.372C4161.111,113.753,4160.886,113.941,4160.633,113.941Zm-18.137-.1a10.719,10.719,0,0,1,6.012-1.654,15.256,15.256,0,0,1-5.932,1.645A.484.484,0,0,1,4142.5,113.841Z" transform="translate(-4119.837 -112.187)" fill="#1a1a1a"/>
    </g>
    <g id="Grupo_1164" data-name="Grupo 1164" transform="translate(3950.819 250.254)">
      <path id="Trazado_1192" data-name="Trazado 1192" d="M3984.83,277.882c-1.117-.4-2.028-.793-2.922-1.2a3.587,3.587,0,0,1,3.112.181C3985.237,277.754,3985.037,277.882,3984.83,277.882Zm-8.083-3.948a41.867,41.867,0,0,1-5.361-3.482,15.95,15.95,0,0,1,5.627,2.5C3977.1,273.841,3976.926,273.935,3976.747,273.935Zm-9.629-7.339a32.576,32.576,0,0,1-4.452-4.732,16.548,16.548,0,0,1,4.823,3.827C3967.39,266.544,3967.253,266.6,3967.118,266.6Zm-7.437-9.551a17.7,17.7,0,0,1-2.268-3.68q-.488-1.012-.944-2.047a2.354,2.354,0,0,1,1.9,1.591c.542,1.131,1.14,2.256,1.77,3.345C3959.863,257.023,3959.772,257.044,3959.681,257.044Zm-4.945-11.063a27.115,27.115,0,0,1-2.221-6.23,14.967,14.967,0,0,1,2.721,5.529C3954.852,245.969,3954.792,245.98,3954.736,245.98Zm-2.861-11.782a22.36,22.36,0,0,1-1.056-6.553,15.506,15.506,0,0,1,1.582,5.95C3951.925,234.2,3951.9,234.2,3951.875,234.2Zm-.37-12.108a17.983,17.983,0,0,1,.407-6.637,16.352,16.352,0,0,1,.116,6.153A.526.526,0,0,1,3951.5,222.09Zm2.658-11.808a12.186,12.186,0,0,1,1.631-5.422,11.172,11.172,0,0,1-1.135,5.08A.529.529,0,0,1,3954.163,210.282Zm57.534-2.473c1.145-.975,3.157-1.314,4.824-2.126C4015.4,207.4,4013.573,207.809,4011.7,207.809Zm-6.534-1.933a15.906,15.906,0,0,1-4.792-4.387,50.513,50.513,0,0,1,5.075,3.413C4005.505,205.788,4005.335,205.876,4005.163,205.876Zm15.753-3.427c-.042-1.761.184-2.889.184-4.094a10.367,10.367,0,0,0-.263-2.277,2.184,2.184,0,0,1,1.317,2.277,9.477,9.477,0,0,1-.752,3.773A.527.527,0,0,1,4020.917,202.45Zm-60.85-2.722a13.218,13.218,0,0,1,3.652-5.448,16.989,16.989,0,0,1-3.233,5.239A.523.523,0,0,1,3960.067,199.728Zm37.8-3.324a10.078,10.078,0,0,1-1.47-3.117q-.45-1.483-.861-3.066a4.113,4.113,0,0,1,1.868,2.757c.28.919.6,1.824.953,2.7C3998,196.388,3997.934,196.4,3997.866,196.4Zm-29.2-5.194a12.057,12.057,0,0,1,4.783-4.355,16.5,16.5,0,0,1-4.46,4.245A.546.546,0,0,1,3968.667,191.21Zm49.962-.067a28.875,28.875,0,0,0-4.862-4.052,8.215,8.215,0,0,1,5.269,3.187C4018.867,191.1,4018.748,191.142,4018.63,191.142Zm-39.485-6.006a10.965,10.965,0,0,1,5.6-3.005,16.567,16.567,0,0,1-5.4,2.964A.531.531,0,0,1,3979.145,185.136Zm15.579-.437a8.271,8.271,0,0,1-.961-2.915c-.956.042-1.914.116-2.863.233a2.976,2.976,0,0,1,2.693-1.284c-.131-.819-.254-1.649-.368-2.484a2.97,2.97,0,0,1,1.429,2.45c1.361,0,1.812,0,2.263.026-.547,1.035-1.042,1.03-1.543,1.026a3.348,3.348,0,0,0-.132,2.322C3994.791,184.7,3994.758,184.7,3994.724,184.7Zm13.973-.347a37.313,37.313,0,0,0-5.9-1.819,9.208,9.208,0,0,1,6.1.8C4009.1,184.226,4008.9,184.352,4008.7,184.352Zm-15.634-11.68a26.831,26.831,0,0,1-.951-6.56,13.661,13.661,0,0,1,1.474,5.983C3993.093,172.67,3993.077,172.672,3993.063,172.672Z" transform="translate(-3950.818 -166.112)" fill="#1a1a1a"/>
    </g>
    <g id="Grupo_1165" data-name="Grupo 1165" transform="translate(3996.666 153.883)">
      <path id="Trazado_1193" data-name="Trazado 1193" d="M3971.375,176.438a4.1,4.1,0,0,1-.793-2.015c1.121.393,1.212.9,1.31,1.377C3971.448,176.435,3971.412,176.438,3971.375,176.438Zm-.558-7.614a18.924,18.924,0,0,1,.018-6.658,16.585,16.585,0,0,1,.508,6.146A.524.524,0,0,1,3970.817,168.824Zm1.765-12a16.923,16.923,0,0,1,1.4-6.488,15.906,15.906,0,0,1-.891,6.095A.531.531,0,0,1,3972.583,156.825Zm4.471-11.259a14.039,14.039,0,0,1,2.884-5.934,16.956,16.956,0,0,1-2.424,5.662A.529.529,0,0,1,3977.054,145.566Zm7.339-9.61a11.648,11.648,0,0,1,4.432-4.759,18.338,18.338,0,0,1-4.066,4.613A.531.531,0,0,1,3984.392,135.957Zm10.029-6.718a10.415,10.415,0,0,1,5.576-3.047,18.271,18.271,0,0,1-5.363,3A.575.575,0,0,1,3994.421,129.239Zm11.661-3.147a10.143,10.143,0,0,1,6.046-1.407,16.382,16.382,0,0,1-5.985,1.405Z" transform="translate(-3970.527 -124.684)" fill="#1a1a1a"/>
    </g>
    <g id="Grupo_1166" data-name="Grupo 1166" transform="translate(4241.01 206.586)">
      <path id="Trazado_1194" data-name="Trazado 1194" d="M4075.566,150.553c.208-1.268,2.085-2.687,2.769-3.212.54.916-1.871,2.761-2.5,3.138A.543.543,0,0,1,4075.566,150.553Z" transform="translate(-4075.566 -147.34)" fill="#1a1a1a"/>
    </g>
  </g>
</svg>
