<svg xmlns="http://www.w3.org/2000/svg" xmlns:xlink="http://www.w3.org/1999/xlink" width="557" height="429.425" viewBox="0 0 557 429.425">
  <defs>
    <linearGradient id="linear-gradient" x1="0.5" x2="0.5" y2="1" gradientUnits="objectBoundingBox">
      <stop offset="0" stop-color="#3e65b9"/>
      <stop offset="0.301" stop-color="#4476cf"/>
      <stop offset="0.691" stop-color="#4a88e6"/>
      <stop offset="0.935" stop-color="#4d8fef"/>
    </linearGradient>
    <linearGradient id="linear-gradient-2" x1="0.5" x2="0.5" y2="1" gradientUnits="objectBoundingBox">
      <stop offset="0" stop-color="#ff5a08"/>
      <stop offset="1" stop-color="#ffbe06"/>
    </linearGradient>
    <linearGradient id="linear-gradient-3" x1="0.5" x2="0.5" y2="1" gradientUnits="objectBoundingBox">
      <stop offset="0" stop-color="#b311c4"/>
      <stop offset="1" stop-color="#d2001e"/>
    </linearGradient>
  </defs>
  <g id="Grupo_1259" data-name="Grupo 1259" transform="translate(-683 -3265.691)">
    <path id="Trazado_940" data-name="Trazado 940" d="M850.333,381.3c-9.356-26.086-24.09-34.023-38.1-50.756-17.115-20.435-28.659-35.29-24.216-61.573,7.262-42.95,10.37-150.066-103.334-136.065-40.755,5.02-72.96,36.25-96.39,67.424-19.935,26.527-55.8,28.868-84.662,35.052-35.465,7.6-71.593,19.078-104.406,35.894-67.579,34.637-87.763,84.43-85.006,148.14.832,19.248,3.557,49.566,36.07,85.042,43.885,47.882,107.656,54.3,184.41,32.3,17.569-5.034,34.176-12.928,51.46-18.871a242.812,242.812,0,0,1,55.536-12.059c44.083-4.262,89.779,3.446,132.068-9.716a139.336,139.336,0,0,0,59.067-36.633C853.025,438.326,860.208,408.83,850.333,381.3Z" transform="translate(369.028 3134.04)" opacity="0.07" fill="url(#linear-gradient)"/>
    <g id="Grupo_1024" data-name="Grupo 1024" transform="translate(-1200.31 3009.066)">
      <path id="Rect치ngulo_2291" data-name="Rect치ngulo 2291" d="M5.518,0h361.12a5.518,5.518,0,0,1,5.518,5.518V252.383a5.517,5.517,0,0,1-5.517,5.517H5.518A5.518,5.518,0,0,1,0,252.383V5.518A5.518,5.518,0,0,1,5.518,0Z" transform="translate(1962.54 368.212)" fill="#fff"/>
      <path id="Rect치ngulo_2292" data-name="Rect치ngulo 2292" d="M5.518,0h163.35a5.517,5.517,0,0,1,5.517,5.517v128.22a5.518,5.518,0,0,1-5.518,5.518H5.517A5.517,5.517,0,0,1,0,133.738V5.518A5.518,5.518,0,0,1,5.518,0Z" transform="translate(1899.573 296.206)" opacity="0.17" fill="url(#linear-gradient-2)"/>
      <path id="Trazado_941" data-name="Trazado 941" d="M2154.273,476.3c-.37-3.1-1.4-5.156-2.887-5.313s-41.165,0-41.165,0a11.487,11.487,0,0,0,1.864-11.549l-21.145-55.076c-2.18-5.681-8.554-9.539-15.762-9.539h-80.267c-11.19,0-19.148,9-15.763,17.814l6.242,16.256,8.979,23.392,5.925,15.431a14.863,14.863,0,0,0,8.717,8.221c-.047-.008,1.136,4.995,3.753,4.673h139.354A4.194,4.194,0,0,0,2154.273,476.3Z" transform="translate(123.738 154.871)" fill="#1a1a1a"/>
      <path id="Trazado_942" data-name="Trazado 942" d="M2085.6,374.486s-14.405,2.072-23.526,10.614-14.6,15.613-19.868,30.083-2.4,15.241-8.046,27.106S2027.008,457,2027.008,457l13.541,36.712s1.386,10.254-3.336,12.706l3.656.368s10.019-8.691,13.505-15.727,6.318-14.817,6.318-14.817a154,154,0,0,1-.7,15.822c-.789,6.964-2.66,12.277-6.253,14.462l19.682.26s3.683-.494,4.46,3.023-2.167,5.92-2.167,5.92l9.881.419a136.307,136.307,0,0,0,29.921,5.953c15.087.987,20.754-4.059,20.754-4.059l4.111,24.183s15.39,1.882,26.887-.622a149.291,149.291,0,0,0,20.619-6.1s-13.094-62.69-14.351-68.224-7.912-33.319-9.431-38.748a120.279,120.279,0,0,0-11.274-28.471c-6.839-12.043-12.1-17.261-17.087-19.767s-17.086-8.863-29.939-8.028A184.018,184.018,0,0,0,2085.6,374.486Z" transform="translate(200.14 119.331)" opacity="0.22" fill="url(#linear-gradient-3)"/>
      <path id="Trazado_943" data-name="Trazado 943" d="M2079.167,396.876l-3.876-18.055s5.277.057,6.917-3.82-1.476-8.164-4.391-8.568a14.252,14.252,0,0,0-4.8.044l-2-8.472c-.462,0-.887,2.54-.887,2.54l-17.69.589-1.09-4.617-3.409,4.5-3.976.319,1.82,18.215s1.877,14.428,7.7,14.341,5.472-.411,5.472-.411l1.573,7.413s-3.177,16.858,4.624,16.338,11.82-11.074,12.531-13.75S2079.167,396.876,2079.167,396.876Z" transform="translate(226.778 94.718)" fill="#fff"/>
      <path id="Trazado_944" data-name="Trazado 944" d="M2082.761,441.6v2.673s-7.135,11.03-8.578,13.21-.894,6.164,2.2,7.012,6.391-3.262,8.206-5.511,4.391-5.159,7.025-4.925a58.81,58.81,0,0,1,17.968,3.833c7.979,3.236,9.154,4.83,12.669,4.912a6.2,6.2,0,0,0,5.491-2.594s2.36.987,5.347-1.3.758-4.5.758-4.5,1.576-.776.818-3-3.853-3.591-7.46-5.4-8.588-2.321-11.812-4.437a65.89,65.89,0,0,1-6.29-4.809,123.2,123.2,0,0,1-26.343,4.843Z" transform="translate(273.038 220.737)" fill="#fff"/>
      <path id="Trazado_945" data-name="Trazado 945" d="M2091.7,388.113s-2.218-7.917-8.254-13.279-17.048-6.072-17.048-6.072-5.552,5.2-8.927,5.064l.781,3.8a45.766,45.766,0,0,1,15.225,2.162C2081.1,382.363,2091.7,388.113,2091.7,388.113Z" transform="translate(247.981 113.951)" fill="#1a1a1a"/>
      <path id="Trazado_946" data-name="Trazado 946" d="M2078.359,391.963a16.584,16.584,0,0,0,9.313-8.573c2.775-6.462,2.7-12.264,1.306-18.328s-4.044-11.58-9.488-12.688a25.985,25.985,0,0,0-10.519.221,18.689,18.689,0,0,0-12.146-1.681c-6.8,1.406-14.462,6.555-14.295,20.094l7.372-.527,3.575-4.861.761,4.745,18.156-.447s1.177-6.465,1.177-6.231-.39,7.807,1.709,12.164c0,0,7.094-2.187,8.842,3.164s-1.426,9.488-6.572,9.179,0-.309,0-.309Z" transform="translate(224.517 85.344)" fill="#1a1a1a"/>
      <path id="Trazado_947" data-name="Trazado 947" d="M2063.033,364.992s3.2,3.27,4.125,6.046.054,6.326-7.621,8.8c-.8-.008-3.069-10.56-3.069-10.56S2061.556,367.771,2063.033,364.992Z" transform="translate(246.408 108.03)" opacity="0.3" fill="url(#linear-gradient-2)"/>
      <path id="Trazado_948" data-name="Trazado 948" d="M2090.318,404.025s-14.682,3.869-11.989,19.685,15.192,18.479,20.193,16.683Z" transform="translate(280.223 169.332)" fill="#ccc"/>
      <path id="Trazado_949" data-name="Trazado 949" d="M2010.871,414.02c2.506,4.342,2.223,9.2-.635,10.85s-7.208-.532-9.714-4.876-2.223-9.2.635-10.85S2008.362,409.678,2010.871,414.02Z" transform="translate(155.859 176.508)" fill="#fff"/>
      <path id="Trazado_950" data-name="Trazado 950" d="M2010.193,428.388s-18.909,11.408-19.377,38.039h124.837a128.329,128.329,0,0,0,28.592,3.614c15.935.206,26.346-1.1,34.188-3.455s12.069-4.853,14.677-10.4a27.266,27.266,0,0,0,2.579-10.66l-2.579-15.246s-9.415,5.593-24.808,3.563-25-5.781-25-5.781Z" transform="translate(143.299 207.086)" fill="#294859"/>
      <path id="Trazado_951" data-name="Trazado 951" d="M1941.535,472.654s-13.19-4.645-11.984-16.48,8.051-21.577,15.439-29.032,23.006-22.412,38.365-27.685c0,0-2.046,17.323-5.47,29.363s-7.7,29.327-17.163,38.769S1941.535,472.654,1941.535,472.654Z" transform="translate(46.96 162.16)" opacity="0.64" fill="url(#linear-gradient)"/>
      <path id="Trazado_952" data-name="Trazado 952" d="M1952.7,463.455l-20.9-95.061s-16.722,24.79-17.539,49.855A43.469,43.469,0,0,0,1952.7,463.455Z" transform="translate(23.023 113.373)" opacity="0.64" fill="url(#linear-gradient)"/>
      <path id="Trazado_953" data-name="Trazado 953" d="M1920.876,402.1h144.7a14.884,14.884,0,0,0,14.844-14.84V359.373l-26.707-13.644c-6.5-3.339-17.483-4.146-24.4-1.794l-20.02,6.789c-6.92,2.355-17.721,1.213-24-2.527l-21.462-12.783s-21.384-15.338-38,1.82c-11.822,12.21-19.8,20.253-19.8,20.253v29.772A14.884,14.884,0,0,0,1920.876,402.1Z" transform="translate(10.146 51.668)" fill="#294859"/>
      <path id="Trazado_954" data-name="Trazado 954" d="M1967.214,343.384a15.35,15.35,0,1,1,15.341-15.349A15.354,15.354,0,0,1,1967.214,343.384Z" transform="translate(82.115 25.878)" fill="#fff"/>
      <path id="Trazado_955" data-name="Trazado 955" d="M1997.125,372.6l-29.094-18.007a1.8,1.8,0,0,0-2.745,1.617l1.676,34.175a1.8,1.8,0,0,0,2.712,1.46l7.866-4.637a1.8,1.8,0,0,1,2.463.638l11.434,19.395a1.8,1.8,0,0,0,2.463.635l6.226-3.671a1.8,1.8,0,0,0,.635-2.463l-11.434-19.395a1.8,1.8,0,0,1,.635-2.463l7.131-4.205A1.8,1.8,0,0,0,1997.125,372.6Z" transform="translate(103.201 91.271)" opacity="0.29" fill="url(#linear-gradient)"/>
      <path id="Trazado_1023" data-name="Trazado 1023" d="M2.839,0H62.314a2.839,2.839,0,0,1,2.839,2.839V42.627a2.839,2.839,0,0,1-2.839,2.839H2.839A2.839,2.839,0,0,1,0,42.627V2.839A2.839,2.839,0,0,1,2.839,0Z" transform="translate(2210.908 303.222)" opacity="0.24" fill="url(#linear-gradient-2)"/>
      <path id="Trazado_956" data-name="Trazado 956" d="M2050.346,301.235c-1.445-2.475-3.809-2.475-5.254,0l-11.107,19.019c-1.445,2.475-.282,4.5,2.584,4.5h22.315c2.866,0,4.028-2.023,2.581-4.5Z" transform="translate(210.121 4.982)" fill="#fff"/>
      <path id="Trazado_957" data-name="Trazado 957" d="M2007.392,346.7a8.948,8.948,0,1,1-8.951-8.951A8.948,8.948,0,0,1,2007.392,346.7Z" transform="translate(141.226 65.245)" opacity="0.21" fill="url(#linear-gradient)"/>
      <path id="Trazado_958" data-name="Trazado 958" d="M2004.623,358.987a8.948,8.948,0,1,1-8.948-8.948A8.948,8.948,0,0,1,2004.623,358.987Z" transform="translate(136.878 84.546)" opacity="0.21" fill="url(#linear-gradient)"/>
      <path id="Trazado_959" data-name="Trazado 959" d="M2005.279,376.236a8.948,8.948,0,1,1-8.948-8.951A8.946,8.946,0,0,1,2005.279,376.236Z" transform="translate(137.908 111.631)" opacity="0.21" fill="url(#linear-gradient)"/>
      <path id="Trazado_960" data-name="Trazado 960" d="M1953.092,464.762s8.37-4.547,7.588-15.639-7.734-18.019-21.209-28.227-38.745-18.215-38.745-18.215,4.221,13.814,6.231,19.5,11.708,30.07,21,38.738S1945.781,470.908,1953.092,464.762Z" transform="translate(1.809 167.221)" opacity="0.35" fill="url(#linear-gradient)"/>
      <path id="Trazado_961" data-name="Trazado 961" d="M2057.016,360.086c3.879-7.251,5.233-8.457,11.343-7.491.612,0-4.732-3.087-11.534-1.681s-14.462,6.555-14.295,20.094l7.372-.527,3.575-4.861.761,4.745,2.931-.072C2056.615,369.126,2055.219,363.446,2057.016,360.086Z" transform="translate(224.517 85.344)" fill="#fff"/>
      <g id="Grupo_963" data-name="Grupo 963" transform="translate(1915.561 313.896)">
        <path id="Trazado_962" data-name="Trazado 962" d="M2051.622,443.976H1921.255a15.48,15.48,0,0,1-15.462-15.464V318.547a15.477,15.477,0,0,1,15.462-15.459h144.7a15.477,15.477,0,0,1,15.459,15.459V428.512a15.433,15.433,0,0,1-2.023,7.629c.142-2.745.786-5.169.786-7.629V318.547a14.239,14.239,0,0,0-14.223-14.223h-144.7a14.24,14.24,0,0,0-14.225,14.223V428.512a14.243,14.243,0,0,0,14.225,14.228h130.367C2052.239,443.7,2051.964,443.976,2051.622,443.976Z" transform="translate(-1905.793 -303.088)" fill="#1a1a1a"/>
      </g>
      <g id="Grupo_964" data-name="Grupo 964" transform="translate(2320.443 673.42)">
        <path id="Trazado_963" data-name="Trazado 963" d="M2091.807,444.188h-28.5c0-1.236,28.5-1.236,28.5-1.236C2092.424,443.911,2092.146,444.188,2091.807,444.188Z" transform="translate(-2063.302 -442.952)" fill="#1a1a1a"/>
      </g>
      <g id="Grupo_965" data-name="Grupo 965" transform="translate(1916.181 673.42)">
        <path id="Trazado_964" data-name="Trazado 964" d="M2249.976,444.188H1906.034c0-1.236,343.942-1.236,343.942-1.236C2250.6,443.911,2250.318,444.188,2249.976,444.188Z" transform="translate(-1906.034 -442.952)" fill="#1a1a1a"/>
      </g>
      <g id="Grupo_966" data-name="Grupo 966" transform="translate(2407.707 673.42)">
        <path id="Trazado_965" data-name="Trazado 965" d="M2129.484,444.188H2097.25c0-1.236,32.235-1.236,32.235-1.236C2130.1,443.911,2129.826,444.188,2129.484,444.188Z" transform="translate(-2097.25 -442.952)" fill="#1a1a1a"/>
      </g>
      <g id="Grupo_967" data-name="Grupo 967" transform="translate(2270.623 456.229)">
        <path id="Trazado_966" data-name="Trazado 966" d="M2055.044,391.632a6.5,6.5,0,0,1-2.186-.357,7.623,7.623,0,0,1-3.416-2.676c-3.553-4.7-4.108-10.591-4.646-16.289l-.143-1.486c-.345-3.488-.728-12.272-.733-12.364,1.239.036,1.622,8.789,1.964,12.241l.146,1.493c.519,5.527,1.057,11.241,4.4,15.665a6.471,6.471,0,0,0,2.846,2.254,8.78,8.78,0,0,0,4.9-.19c.448-.105.889-.2,1.334-.288a53.475,53.475,0,0,0,6.469-1.658c-1.814,1.887-4.043,2.46-6.241,2.876-.43.08-.859.177-1.291.278A15.652,15.652,0,0,1,2055.044,391.632Z" transform="translate(-2043.921 -358.459)" fill="#1a1a1a"/>
      </g>
      <path id="Trazado_967" data-name="Trazado 967" d="M2051.068,360.375c-.5-.018-.8.226-.741,2.013.066,1.987.617,2.277,1.056,2.208s.815-.727.632-2.133S2051.725,360.4,2051.068,360.375Z" transform="translate(236.75 100.777)" fill="#1a1a1a"/>
      <path id="Trazado_968" data-name="Trazado 968" d="M2045.993,360.8c-.5-.039-.812.2-.81,1.984,0,1.987.539,2.3.982,2.242s.839-.7.7-2.108S2046.646,360.851,2045.993,360.8Z" transform="translate(228.684 101.444)" fill="#1a1a1a"/>
      <g id="Grupo_968" data-name="Grupo 968" transform="translate(2271.574 457.341)">
        <path id="Trazado_969" data-name="Trazado 969" d="M2044.291,361.3c.363-1.923,1.471-2.676,4.008-2.321a8.806,8.806,0,0,0-3.555,2.123A.624.624,0,0,1,2044.291,361.3Z" transform="translate(-2044.291 -358.892)" fill="#1a1a1a"/>
      </g>
      <g id="Grupo_969" data-name="Grupo 969" transform="translate(2298.752 460.026)">
        <path id="Trazado_970" data-name="Trazado 970" d="M2058.912,374.066a7,7,0,0,1-2.511-.465,9.14,9.14,0,0,1,3.543-.864,5.825,5.825,0,1,0-5.079-9.92c.151-1.871,1.424-2.522,2.817-2.768a7.063,7.063,0,1,1,2.48,13.907A7.1,7.1,0,0,1,2058.912,374.066Z" transform="translate(-2054.864 -359.936)" fill="#1a1a1a"/>
      </g>
      <g id="Grupo_970" data-name="Grupo 970" transform="translate(2299.753 462.596)">
        <path id="Trazado_971" data-name="Trazado 971" d="M2060.618,368.678c-.222-.041-5.35-2.015-5.35-2.015-.274-.948,3.308-5.727,3.308-5.727.989.746-2.105,4.869-2.105,4.869l4.367,1.681C2061.1,368.527,2060.864,368.678,2060.618,368.678Z" transform="translate(-2055.253 -360.936)" fill="#1a1a1a"/>
      </g>
      <g id="Grupo_971" data-name="Grupo 971" transform="translate(2285.124 488.294)">
        <path id="Trazado_972" data-name="Trazado 972" d="M2056.492,395.206a4.841,4.841,0,0,1-2.329-.56c-2.53-1.38-3.27-4.892-3.44-5.933a22.851,22.851,0,0,1-.046-5.218q.057-.794.1-1.6c.005-.1.136-3.008.136-3.008l-1.352-7.945c1.221-.208,2.58,7.868,2.58,7.868.006.136-.128,3.074-.131,3.149-.026.537-.061,1.085-.1,1.627a21.412,21.412,0,0,0,.036,4.938c.144.9.773,3.93,2.81,5.041a4.4,4.4,0,0,0,3.536.08c7.346-2.645,10.3-12.066,11.476-19.5-.546,11.331-4.792,18.41-11.056,20.664A6.568,6.568,0,0,1,2056.492,395.206Z" transform="translate(-2049.562 -370.933)" fill="#1a1a1a"/>
      </g>
      <g id="Grupo_972" data-name="Grupo 972" transform="translate(2282.89 473.605)">
        <path id="Trazado_973" data-name="Trazado 973" d="M2049.888,370.414a7.574,7.574,0,0,1-1.195-.1c1.621-1,2.732-1.226,3.5-1.9a4.581,4.581,0,0,0,1.275-3.19c1.24.085,1.268,2.614-.459,4.126A4.6,4.6,0,0,1,2049.888,370.414Z" transform="translate(-2048.693 -365.219)" fill="#1a1a1a"/>
      </g>
      <g id="Grupo_973" data-name="Grupo 973" transform="translate(2301.464 474.222)">
        <path id="Trazado_974" data-name="Trazado 974" d="M2060.4,383.45c-.6-.483-4.481-17.989-4.481-17.989,1.205-.267,5.082,17.235,5.082,17.235C2060.487,383.445,2060.443,383.45,2060.4,383.45Z" transform="translate(-2055.919 -365.459)" fill="#1a1a1a"/>
      </g>
      <g id="Grupo_974" data-name="Grupo 974" transform="translate(2275.746 460.631)">
        <path id="Trazado_975" data-name="Trazado 975" d="M2047.958,374.423c-1.226-1.663-2.694-4.879-1.735-6.082.586-.74,2.237-.6,3.537-.347l-.479-7.822c1.237-.077,1.767,8.562,1.767,8.562-2.111.306-3.589.19-3.877.4-.272.344.37,2.491,1.339,4.393C2048.148,374.4,2048.053,374.423,2047.958,374.423Z" transform="translate(-2045.913 -360.172)" fill="#1a1a1a"/>
      </g>
      <g id="Grupo_977" data-name="Grupo 977" transform="translate(2345.585 662.285)">
        <g id="Grupo_976" data-name="Grupo 976">
          <g id="Grupo_975" data-name="Grupo 975">
            <path id="Trazado_976" data-name="Trazado 976" d="M2078.217,462.385a5.209,5.209,0,0,1-4.994-3.7c-.558-2.154.673-4.038,1.758-5.707.24-.36.47-.717.674-1.064a39.738,39.738,0,0,1,2.47-3.46c1.846-2.421,3.938-5.162,4.645-7.465l.175-2.367c1.231.1,1.031,2.6,1.031,2.6-.795,2.65-2.959,5.486-4.866,7.987a38.471,38.471,0,0,0-2.388,3.337c-.214.362-.456.735-.7,1.113-1,1.524-2.021,3.1-1.6,4.722a3.986,3.986,0,0,0,4.625,2.678,6.01,6.01,0,0,0,2.876-1.869,27.017,27.017,0,0,0,2.226-2.825c.558-.781,1.133-1.583,1.773-2.334,1.6-1.874,3.63-3.753,6.761-3.488a63.169,63.169,0,0,1,16.467,3.362,43.289,43.289,0,0,1,4.578,2.149c4.182,2.159,8.5,4.4,12.68,2.493a2.322,2.322,0,0,0,1.072-.817,2.125,2.125,0,0,0-.242-2.074c-1.208-1.933-3.223-3.316-5.172-4.645a45.665,45.665,0,0,0-7.179-4.046,44.131,44.131,0,0,0-8.185-3c3.3-.5,6.228.751,8.7,1.876a45.413,45.413,0,0,1,6.876,3.815c2.444,1.673,4.663,3.193,6.01,5.344a3.3,3.3,0,0,1,.252,3.367,3.439,3.439,0,0,1-1.614,1.308c-4.72,2.154-9.521-.326-13.763-2.522a40.884,40.884,0,0,0-4.442-2.085,61.89,61.89,0,0,0-16.146-3.288c-2.524-.257-4.247,1.339-5.708,3.054-.61.707-1.17,1.494-1.712,2.249a27.813,27.813,0,0,1-2.334,2.959,7.159,7.159,0,0,1-3.486,2.218A4.712,4.712,0,0,1,2078.217,462.385Z" transform="translate(-2073.083 -438.62)" fill="#1a1a1a"/>
          </g>
        </g>
      </g>
      <g id="Grupo_978" data-name="Grupo 978" transform="translate(2384.389 664.732)">
        <path id="Trazado_977" data-name="Trazado 977" d="M2106.162,456.414a6.137,6.137,0,0,1-1.262-.121c.4-1.187,4.028-.475,5.575-3.555a2.122,2.122,0,0,0-.031-1.9c-1.62-3.586-10.774-8.218-22.266-11.264,10.315,1.452,21.328,6.177,23.392,10.758a3.315,3.315,0,0,1,.01,2.964A5.828,5.828,0,0,1,2106.162,456.414Z" transform="translate(-2088.179 -439.572)" fill="#1a1a1a"/>
      </g>
      <g id="Grupo_979" data-name="Grupo 979" transform="translate(2305.945 492.065)">
        <path id="Trazado_978" data-name="Trazado 978" d="M2103.384,543.229a75.583,75.583,0,0,1-11.251-.733c-9.783-54.333-21.958-131.292-22.079-132.066,1.342.578,13.449,77.116,22.719,130.912,3.265.455,24.715,3.015,46.267-6.534-1.373-6.979-17.151-86.673-26.847-117.37-1.121-3.542-11.315-28.7-23.461-36.1a62.781,62.781,0,0,0-31.07-8.789c15.765-1.236,28.26,5.624,31.713,7.727,12.472,7.6,22.863,33.188,24,36.787,10.116,32.024,26.808,117.131,26.976,117.992A84.367,84.367,0,0,1,2103.384,543.229Z" transform="translate(-2057.662 -372.4)" fill="#1a1a1a"/>
      </g>
      <g id="Grupo_980" data-name="Grupo 980" transform="translate(2381.621 657.822)">
        <path id="Trazado_979" data-name="Trazado 979" d="M2112.476,455c-.383-1.105.239-1.74.06-2.789-.222-1.285-1.627-3.347-7.069-5.851a61.508,61.508,0,0,0-7.033-2.614c-4.715-1.527-8.789-2.84-11.331-6.866,3.349,2.987,7.038,4.18,11.711,5.691a62.382,62.382,0,0,1,7.172,2.663c4.792,2.206,7.406,4.5,7.776,6.807a3.238,3.238,0,0,1-.866,2.794A.612.612,0,0,1,2112.476,455Z" transform="translate(-2087.102 -436.884)" fill="#1a1a1a"/>
      </g>
      <g id="Grupo_981" data-name="Grupo 981" transform="translate(2178.253 635.019)">
        <path id="Trazado_980" data-name="Trazado 980" d="M2008.036,467.651c-.334-11.47.9-22.384,7.9-28.831a41.051,41.051,0,0,1,22.849-10.807c-8.575,2.5-15.626,5.838-22.009,11.717-6.671,6.138-7.845,16.755-8.121,27.319A.622.622,0,0,1,2008.036,467.651Z" transform="translate(-2007.986 -428.013)" fill="#1a1a1a"/>
      </g>
      <g id="Grupo_982" data-name="Grupo 982" transform="translate(2240.545 652.545)">
        <path id="Trazado_981" data-name="Trazado 981" d="M2081,460.035c-37.509,0-48.331-11.678-48.783-12.192,1.033-.7,12.519,11.578,52.009,10.927,40.1-.7,44.28-10.364,45.823-23.939-.383,14.344-4.7,24.456-45.8,25.176Q2082.6,460.034,2081,460.035Z" transform="translate(-2032.22 -434.831)" fill="#1a1a1a"/>
      </g>
      <g id="Grupo_983" data-name="Grupo 983" transform="translate(2266.308 435.484)">
        <path id="Trazado_982" data-name="Trazado 982" d="M2079.121,392.826c9-4.424,12.94-16.3,9.171-29.448-1.332-4.647-3.689-7.85-7-9.524-5.388-2.714-11.586-.455-11.65-.429-1.088-.288-15.77-6.637-23.32,5.791-3.321,5.47-3.049,9.925-2.835,11.38l7.295-.589,2.646-4.755c1.151.2,1.943,4.879,1.943,4.879l16.95-.568,1-5.989c1.232.177,1.558,9.346,2.965,12.259-1.879-1.049-2.342-4.144-2.615-6.881l-.22,1.316c-.589.514-18.583,1.116-18.583,1.116-.629-.514-1.218-3.99-1.218-3.99l-1.952,3.5c-.491.319-8.67.974-8.67.974-.707-.684-2.105-6.144,2.234-13.3,7.575-12.477,22.152-7.195,24.178-6.393,1.247-.419,7.069-2.11,12.4.563,3.637,1.833,6.213,5.3,7.645,10.292,3.956,13.8-.316,26.309-10.157,29.757A.575.575,0,0,1,2079.121,392.826Z" transform="translate(-2042.242 -350.389)" fill="#1a1a1a"/>
      </g>
      <g id="Grupo_984" data-name="Grupo 984" transform="translate(2284.969 456.518)">
        <path id="Trazado_983" data-name="Trazado 983" d="M2056.8,362.367c-3.614-4.265-7.09-2.069-7.239-1.974-.632-1.059,3.887-3.977,7.73.977C2057.067,362.326,2056.934,362.367,2056.8,362.367Z" transform="translate(-2049.502 -358.572)" fill="#1a1a1a"/>
      </g>
      <g id="Grupo_985" data-name="Grupo 985" transform="translate(2357.581 572.751)">
        <path id="Trazado_984" data-name="Trazado 984" d="M2098.536,440.593c-9.192,1.894-17.988-4.8-20.068-14.883s2.756-19.791,11.945-21.685Z" transform="translate(-2077.37 -403.418)" fill="#1a1a1a"/>
        <path id="Trazado_985" data-name="Trazado 985" d="M2095.763,441.9c-8.229,0-15.594-6.354-17.519-15.7a21.276,21.276,0,0,1,1.808-14.328,15.469,15.469,0,0,1,10.616-8.087c-3.943,2.072-7.418,4.725-9.526,8.668a20.061,20.061,0,0,0-1.689,13.5c2.041,9.891,10.536,16.2,19.338,14.4A3.019,3.019,0,0,1,2095.763,441.9Z" transform="translate(-2077.749 -403.789)" fill="#1a1a1a"/>
      </g>
      <g id="Grupo_986" data-name="Grupo 986" transform="translate(2110.633 546.77)">
        <path id="Trazado_986" data-name="Trazado 986" d="M2107.989,473.641c3.133-4.031,4.267-10.832,2.858-14.511l-21.15-55.074c-2.1-5.467-8.2-9.141-15.182-9.141h-80.271c-3.7,0-9.917,2.409-12.564,4.067,2.118-2.784,8.645-5.3,12.564-5.3h80.271c7.49,0,14.058,3.989,16.338,9.93L2112,458.688c1.589,4.134.354,11.5-3.614,14.811A.618.618,0,0,1,2107.989,473.641Z" transform="translate(-1981.681 -393.682)" fill="#1a1a1a"/>
      </g>
      <g id="Grupo_987" data-name="Grupo 987" transform="translate(2101.472 549.068)">
        <path id="Trazado_987" data-name="Trazado 987" d="M2096.708,478.239h-80.27c-7.494,0-14.059-3.989-16.339-9.932l-5.925-15.426c1.157-.442,7.08,14.984,7.08,14.984,2.1,5.468,8.2,9.141,15.184,9.141h80.27c5.822,0,11.01-2.491,13.878-6.665a10.86,10.86,0,0,0,1.306-10.308l-21.148-55.076c-2.1-5.468-8.2-9.143-15.184-9.143h-80.27c-5.822,0-11.01,2.491-13.878,6.668a10.879,10.879,0,0,0-1.306,10.31l6.242,16.251c-1.155.442-7.4-15.811-7.4-15.811a12.074,12.074,0,0,1,1.442-11.449c3.1-4.514,8.671-7.205,14.9-7.205h80.27c7.493,0,14.056,3.995,16.338,9.938l21.15,55.074a12.068,12.068,0,0,1-1.442,11.449C2108.507,475.548,2102.937,478.239,2096.708,478.239Z" transform="translate(-1978.117 -394.576)" fill="#1a1a1a"/>
      </g>
      <g id="Grupo_988" data-name="Grupo 988" transform="translate(2156.866 580.887)">
        <path id="Trazado_988" data-name="Trazado 988" d="M2009.572,425.022a6.985,6.985,0,0,1-3.131-.81,13.251,13.251,0,0,1-6.758-11.706,5.295,5.295,0,0,1,8.21-4.74,13.258,13.258,0,0,1,6.763,11.706,5.767,5.767,0,0,1-2.641,4.912A4.843,4.843,0,0,1,2009.572,425.022Zm-4.8-16.829a3.655,3.655,0,0,0-1.831.468,4.6,4.6,0,0,0-2.021,3.917,12.045,12.045,0,0,0,6.08,10.529,4.078,4.078,0,0,0,6.423-3.707,12.037,12.037,0,0,0-6.082-10.529A5.75,5.75,0,0,0,2004.768,408.193Z" transform="translate(-1999.667 -406.954)" fill="#1a1a1a"/>
      </g>
      <g id="Grupo_989" data-name="Grupo 989" transform="translate(2132.419 625.47)">
        <path id="Trazado_989" data-name="Trazado 989" d="M2131.771,434.945H1994.783a4.892,4.892,0,0,1-4.627-4.771c1.282,1.612,2.745,3.486,4.627,3.486h136.988a3.214,3.214,0,0,0,3.344-3.051v-1.974a3.214,3.214,0,0,0-3.344-3.051h-40.1c0-1.285,40.1-1.285,40.1-1.285a4.494,4.494,0,0,1,4.627,4.336v1.974A4.494,4.494,0,0,1,2131.771,434.945Z" transform="translate(-1990.156 -424.298)" fill="#1a1a1a"/>
      </g>
      <g id="Grupo_990" data-name="Grupo 990" transform="translate(2134.105 634.945)">
        <path id="Trazado_990" data-name="Trazado 990" d="M1990.823,467.169a46.036,46.036,0,0,1,20-39.185c.437,1.18-19.3,13.31-19.377,38.568A.619.619,0,0,1,1990.823,467.169Z" transform="translate(-1990.812 -427.984)" fill="#1a1a1a"/>
      </g>
      <g id="Grupo_991" data-name="Grupo 991" transform="translate(2274.034 634.857)">
        <path id="Trazado_991" data-name="Trazado 991" d="M2089.25,435.212c-1.239,0-2.521-.059-3.835-.18-11.856-1.123-26.713-5.467-28-5.848h-12.171c0-1.234,12.261-1.234,12.261-1.234.332.072,15.806,4.694,28.024,5.848a42.47,42.47,0,0,0,21.806-3.882C2107.552,431.2,2099.8,435.207,2089.25,435.212Z" transform="translate(-2045.248 -427.95)" fill="#1a1a1a"/>
      </g>
      <g id="Grupo_992" data-name="Grupo 992" transform="translate(2305.117 473.622)">
        <path id="Trazado_992" data-name="Trazado 992" d="M2057.34,380.084c4.764-2.5,7.521-4.372,8.035-6.781.82-3.822-4.234-7.948-4.287-7.989,1.007-.776,6.478,3.676,5.5,8.244-.619,2.907-3.678,5.095-9.09,6.506A.541.541,0,0,1,2057.34,380.084Z" transform="translate(-2057.34 -365.225)" fill="#1a1a1a"/>
      </g>
      <g id="Grupo_993" data-name="Grupo 993" transform="translate(2313.942 482.748)">
        <path id="Trazado_993" data-name="Trazado 993" d="M2086.848,389.053c-8.41-21.564-25.906-19.593-26.075-19.57.033-1.252,18.488-3.344,26.654,18.742C2086.992,389.04,2086.918,389.053,2086.848,389.053Z" transform="translate(-2060.773 -368.776)" fill="#1a1a1a"/>
      </g>
      <g id="Grupo_994" data-name="Grupo 994" transform="translate(2227.148 493.121)">
        <path id="Trazado_994" data-name="Trazado 994" d="M2027.008,456.212a129.87,129.87,0,0,0,11.516-31.612c11.848-49.884,47.622-51.776,47.979-51.788-.3,1.249-35.154,3.149-46.776,52.071-3.175,13.374-6.938,22.952-12.2,31.052A.625.625,0,0,1,2027.008,456.212Z" transform="translate(-2027.008 -372.811)" fill="#1a1a1a"/>
      </g>
      <g id="Grupo_995" data-name="Grupo 995" transform="translate(2099.12 367.594)">
        <path id="Trazado_995" data-name="Trazado 995" d="M2212.778,439.714c-.617-.617-.617-100.276-.617-100.276a14.421,14.421,0,0,0-14.575-14.225H1977.2c0-1.234,220.384-1.234,220.384-1.234a15.655,15.655,0,0,1,15.809,15.459V439.1A.616.616,0,0,1,2212.778,439.714Z" transform="translate(-1977.202 -323.978)" fill="#1a1a1a"/>
      </g>
      <g id="Grupo_996" data-name="Grupo 996" transform="translate(1961.923 454.167)">
        <path id="Trazado_996" data-name="Trazado 996" d="M1924.446,376.579c-.617-.619-.617-18.922-.617-18.922,1.234,0,1.234,18.3,1.234,18.3A.616.616,0,0,1,1924.446,376.579Z" transform="translate(-1923.829 -357.657)" fill="#1a1a1a"/>
      </g>
      <g id="Grupo_997" data-name="Grupo 997" transform="translate(2023.888 625.495)">
        <path id="Trazado_997" data-name="Trazado 997" d="M2046.134,425.542h-98.2c0-1.234,98.2-1.234,98.2-1.234C2046.751,425.267,2046.476,425.542,2046.134,425.542Z" transform="translate(-1947.935 -424.308)" fill="#1a1a1a"/>
      </g>
      <g id="Grupo_1000" data-name="Grupo 1000" transform="translate(1916.563 337.948)">
        <g id="Grupo_998" data-name="Grupo 998" transform="translate(0 42.249)">
          <path id="Trazado_998" data-name="Trazado 998" d="M2080.185,360.342c-.28-.067-26.985-13.709-26.985-13.709-6.393-3.29-17.128-4.079-23.924-1.763l-20.021,6.791c-7.072,2.411-18.071,1.252-24.513-2.583l-21.461-12.786c-.25-.175-21.192-14.84-37.237,1.722-11.691,12.074-19.724,20.179-19.806,20.258-.8-.951,7.234-9.051,18.917-21.12,16.8-17.349,38.584-2.049,38.8-1.889l21.417,12.755c6.161,3.668,16.69,4.779,23.484,2.473l20.019-6.789c7.064-2.414,18.236-1.591,24.883,1.828l26.705,13.644C2080.629,360.221,2080.411,360.342,2080.185,360.342Z" transform="translate(-1906.183 -328.881)" fill="#1a1a1a"/>
        </g>
        <g id="Grupo_999" data-name="Grupo 999" transform="translate(107.132)">
          <path id="Trazado_999" data-name="Trazado 999" d="M1963.831,344.379a15.967,15.967,0,1,1,15.961-15.968A15.988,15.988,0,0,1,1963.831,344.379Zm0-30.7a14.73,14.73,0,1,0,14.726,14.729A14.751,14.751,0,0,0,1963.831,313.681Z" transform="translate(-1947.86 -312.445)" fill="#1a1a1a"/>
        </g>
      </g>
      <g id="Grupo_1001" data-name="Grupo 1001" transform="translate(2253.326 529.201)">
        <path id="Trazado_1000" data-name="Trazado 1000" d="M2037.192,484.375c6.676-3.887,7.474-24.417,6.935-34.892-2.062-40.023-1.789-50.272.141-62.636-.692,12.457-.961,22.659,1.095,62.567.165,3.2,1.342,31.294-7.945,34.923A.638.638,0,0,1,2037.192,484.375Z" transform="translate(-2037.192 -386.847)" fill="#1a1a1a"/>
      </g>
      <g id="Grupo_1002" data-name="Grupo 1002" transform="translate(2240.965 594.765)">
        <path id="Trazado_1001" data-name="Trazado 1001" d="M2032.383,444.06c13.917-10.768,19.4-31.5,19.451-31.707,1.144.522-4.46,21.706-19.1,31.6A.624.624,0,0,1,2032.383,444.06Z" transform="translate(-2032.383 -412.353)" fill="#1a1a1a"/>
      </g>
      <g id="Grupo_1003" data-name="Grupo 1003" transform="translate(2238.165 306.554)">
        <path id="Trazado_1002" data-name="Trazado 1002" d="M2057.432,326.842h-22.313a3.34,3.34,0,0,1-3.118-5.429l11.1-19.017a3.394,3.394,0,0,1,6.326,0l11.118,19.019a3.34,3.34,0,0,1-3.118,5.429Zm-11.162-25.371a2.616,2.616,0,0,0-2.094,1.55l-11.1,19.019a2.139,2.139,0,0,0,2.049,3.568h22.313a2.138,2.138,0,0,0,2.048-3.568l-11.117-19.022A2.61,2.61,0,0,0,2046.27,301.471Z" transform="translate(-2031.294 -300.232)" fill="#1a1a1a"/>
      </g>
      <g id="Grupo_1004" data-name="Grupo 1004" transform="translate(2220.135 296.511)">
        <path id="Trazado_1003" data-name="Trazado 1003" d="M2076.109,343.024H2033.1a8.828,8.828,0,0,1-8.817-8.817V305.145a8.829,8.829,0,0,1,8.817-8.819h48.748a8.83,8.83,0,0,1,8.822,8.819v23.921c-1.234,0-1.234-23.921-1.234-23.921a7.594,7.594,0,0,0-7.588-7.583H2033.1a7.588,7.588,0,0,0-7.581,7.583v29.062a7.588,7.588,0,0,0,7.581,7.583h43.012C2076.727,342.751,2076.451,343.024,2076.109,343.024Z" transform="translate(-2024.28 -296.325)" fill="#1a1a1a"/>
      </g>
      <g id="Grupo_1005" data-name="Grupo 1005" transform="translate(1946.187 487.738)">
        <path id="Trazado_1004" data-name="Trazado 1004" d="M1956.787,466.708c-.345-.044-25.171-4.082-35.024-24.757-8.357-17.541-3.786-41.511,13.588-71.234,1.139.18,22.04,95.241,22.04,95.241C1957.121,466.639,1956.956,466.708,1956.787,466.708Zm-21.164-93.991c-16.5,28.713-20.788,51.819-12.745,68.7,8.524,17.886,28.613,22.965,33.1,23.9Z" transform="translate(-1917.707 -370.717)" fill="#1a1a1a"/>
      </g>
      <g id="Grupo_1006" data-name="Grupo 1006" transform="translate(1906.546 565.892)">
        <path id="Trazado_1005" data-name="Trazado 1005" d="M1944.825,467.585c-6.462,0-12.93-4.319-19.33-12.937,10.346,11.86,19.768,14.868,29,8.192,6.681-4.833,9.192-10.822,7.462-17.8-4.73-19.073-39.134-40.1-58.23-43.313.781,2.84,3.388,11.981,7.429,22.43a133.7,133.7,0,0,1-8.871-23.032c19.883,1.936,55.958,23.8,60.873,43.617,1.864,7.521-.8,13.95-7.938,19.1A17.643,17.643,0,0,1,1944.825,467.585Z" transform="translate(-1902.286 -401.121)" fill="#1a1a1a"/>
      </g>
      <g id="Grupo_1007" data-name="Grupo 1007" transform="translate(1981.993 565.15)">
        <path id="Trazado_1006" data-name="Trazado 1006" d="M1950.6,476.539a18.554,18.554,0,0,1-8.241-2.087c-7.653-3.776-11.241-9.56-10.663-17.189,1.57-20.731,34.944-50.326,54.176-56.431.517,3.159-6.416,62.086-27.756,73.736A15.54,15.54,0,0,1,1950.6,476.539Zm34.725-74.222c-19.055,6.632-50.883,35.067-52.395,55.035-.535,7.082,2.82,12.459,9.976,15.991,5.182,2.563,10.1,2.6,14.616.139C1976.851,462.931,1984.32,410.142,1985.325,402.318Z" transform="translate(-1931.636 -400.832)" fill="#1a1a1a"/>
      </g>
      <g id="Grupo_1008" data-name="Grupo 1008" transform="translate(1927.264 582.5)">
        <path id="Trazado_1007" data-name="Trazado 1007" d="M1960.492,499.551c-17.5-60.783-49.822-91.657-50.146-91.961,1.175-.594,33.746,30.517,50.74,91.174C1960.6,499.543,1960.546,499.551,1960.492,499.551Z" transform="translate(-1910.346 -407.582)" fill="#1a1a1a"/>
      </g>
      <g id="Grupo_1009" data-name="Grupo 1009" transform="translate(1985.117 633.847)">
        <path id="Trazado_1008" data-name="Trazado 1008" d="M1933,468.179c-.617-.643.882-40.622.882-40.622,1.237.049-.265,40.028-.265,40.028A.616.616,0,0,1,1933,468.179Z" transform="translate(-1932.852 -427.557)" fill="#1a1a1a"/>
      </g>
      <g id="Grupo_1010" data-name="Grupo 1010" transform="translate(1984.649 583.13)">
        <path id="Trazado_1009" data-name="Trazado 1009" d="M1934.066,434.789c-.617-.6-1.4-26.962-1.4-26.962,1.234-.033,2.013,26.325,2.013,26.325C1934.079,434.789,1934.071,434.789,1934.066,434.789Z" transform="translate(-1932.67 -407.827)" fill="#1a1a1a"/>
      </g>
      <g id="Grupo_1011" data-name="Grupo 1011" transform="translate(1993.609 578.473)">
        <path id="Trazado_1010" data-name="Trazado 1010" d="M1938.095,502.2c-10.881-64.207,27.561-95.871,27.952-96.184.391,1.272-37.491,32.52-27.34,95.464C1938.159,502.2,1938.125,502.2,1938.095,502.2Z" transform="translate(-1936.156 -406.015)" fill="#1a1a1a"/>
      </g>
      <g id="Grupo_1012" data-name="Grupo 1012" transform="translate(2064.052 437.865)">
        <path id="Trazado_1011" data-name="Trazado 1011" d="M1991.885,406.353a2.7,2.7,0,0,1-2.087-1.19l-11.434-19.395c-1.62-.419-9.483,4.223-9.483,4.223a2.422,2.422,0,0,1-3.645-1.969l-1.674-34.173a2.418,2.418,0,0,1,3.689-2.172l29.091,18a2.419,2.419,0,0,1-.043,4.141l-7.133,4.2a1.184,1.184,0,0,0-.414,1.619l11.434,19.395a2.422,2.422,0,0,1-.853,3.311l-6.226,3.668A2.442,2.442,0,0,1,1991.885,406.353Zm-14.546-22.4a2.414,2.414,0,0,1,2.087,1.193l11.438,19.395c1.612.414,7.84-3.254,7.84-3.254a1.184,1.184,0,0,0,.417-1.617l-11.437-19.395a2.427,2.427,0,0,1,.853-3.311l7.134-4.205a1.179,1.179,0,0,0,.018-2.018L1966.6,352.729a1.179,1.179,0,0,0-1.8,1.059l1.673,34.175a1.16,1.16,0,0,0,.619.979,1.186,1.186,0,0,0,1.159-.021l7.864-4.64A2.412,2.412,0,0,1,1977.338,383.948Z" transform="translate(-1963.56 -351.315)" fill="#1a1a1a"/>
      </g>
      <g id="Grupo_1013" data-name="Grupo 1013" transform="translate(2164.71 413.403)">
        <path id="Trazado_1012" data-name="Trazado 1012" d="M2084.273,343.033h-81.555c0-1.234,81.555-1.234,81.555-1.234C2084.89,342.758,2084.613,343.033,2084.273,343.033Z" transform="translate(-2002.718 -341.799)" fill="#1a1a1a"/>
      </g>
      <g id="Grupo_1014" data-name="Grupo 1014" transform="translate(2164.71 427.151)">
        <path id="Trazado_1013" data-name="Trazado 1013" d="M2084.273,348.381h-81.555c0-1.234,81.555-1.234,81.555-1.234C2084.89,348.106,2084.613,348.381,2084.273,348.381Z" transform="translate(-2002.718 -347.147)" fill="#1a1a1a"/>
      </g>
      <g id="Grupo_1015" data-name="Grupo 1015" transform="translate(2126.781 411.483)">
        <path id="Trazado_1014" data-name="Trazado 1014" d="M1997.528,360.182a9.565,9.565,0,1,1,9.567-9.565A9.573,9.573,0,0,1,1997.528,360.182Zm0-17.9a8.33,8.33,0,1,0,8.331,8.331A8.341,8.341,0,0,0,1997.528,342.286Z" transform="translate(-1987.963 -341.052)" fill="#1a1a1a"/>
      </g>
      <g id="Grupo_1016" data-name="Grupo 1016" transform="translate(2164.71 450.427)">
        <path id="Trazado_1015" data-name="Trazado 1015" d="M2084.273,357.436h-81.555c0-1.234,81.555-1.234,81.555-1.234C2084.89,357.161,2084.613,357.436,2084.273,357.436Z" transform="translate(-2002.718 -356.202)" fill="#1a1a1a"/>
      </g>
      <g id="Grupo_1017" data-name="Grupo 1017" transform="translate(2164.71 464.174)">
        <path id="Trazado_1016" data-name="Trazado 1016" d="M2084.273,362.786h-81.555c0-1.236,81.555-1.236,81.555-1.236C2084.89,362.509,2084.613,362.786,2084.273,362.786Z" transform="translate(-2002.718 -361.55)" fill="#1a1a1a"/>
      </g>
      <g id="Grupo_1018" data-name="Grupo 1018" transform="translate(2126.781 448.507)">
        <path id="Trazado_1017" data-name="Trazado 1017" d="M1997.528,374.587a9.566,9.566,0,1,1,9.567-9.568A9.577,9.577,0,0,1,1997.528,374.587Zm0-17.9a8.331,8.331,0,1,0,8.331,8.331A8.341,8.341,0,0,0,1997.528,356.689Z" transform="translate(-1987.963 -355.455)" fill="#1a1a1a"/>
      </g>
      <g id="Grupo_1019" data-name="Grupo 1019" transform="translate(2164.71 487.208)">
        <path id="Trazado_1018" data-name="Trazado 1018" d="M2084.273,371.745h-81.555c0-1.234,81.555-1.234,81.555-1.234C2084.89,371.47,2084.613,371.745,2084.273,371.745Z" transform="translate(-2002.718 -370.511)" fill="#1a1a1a"/>
      </g>
      <g id="Grupo_1020" data-name="Grupo 1020" transform="translate(2164.71 500.956)">
        <path id="Trazado_1019" data-name="Trazado 1019" d="M2084.273,377.1h-81.555c0-1.236,81.555-1.236,81.555-1.236C2084.89,376.818,2084.613,377.1,2084.273,377.1Z" transform="translate(-2002.718 -375.859)" fill="#1a1a1a"/>
      </g>
      <g id="Grupo_1021" data-name="Grupo 1021" transform="translate(2126.781 485.288)">
        <path id="Trazado_1020" data-name="Trazado 1020" d="M1997.528,388.9a9.566,9.566,0,1,1,9.567-9.568A9.575,9.575,0,0,1,1997.528,388.9Zm0-17.9a8.33,8.33,0,1,0,8.331,8.329A8.337,8.337,0,0,0,1997.528,371Z" transform="translate(-1987.963 -369.764)" fill="#1a1a1a"/>
      </g>
      <g id="Grupo_1022" data-name="Grupo 1022" transform="translate(2018.267 526.119)">
        <path id="Trazado_1021" data-name="Trazado 1021" d="M2010.011,409.834h-64.263c0-1.237,63.646-1.237,63.646-1.237v-22.95c1.236,0,1.236,23.567,1.236,23.567A.618.618,0,0,1,2010.011,409.834Z" transform="translate(-1945.748 -385.648)" fill="#1a1a1a"/>
      </g>
      <g id="Grupo_1023" data-name="Grupo 1023" transform="translate(1999.368 494.684)">
        <path id="Trazado_1022" data-name="Trazado 1022" d="M1939.015,422.228c-.62-.617-.62-48.192-.62-48.192.62-.617,76.787-.617,76.787-.617,0,1.234-75.551,1.234-75.551,1.234v46.958A.615.615,0,0,1,1939.015,422.228Z" transform="translate(-1938.396 -373.419)" fill="#1a1a1a"/>
      </g>
    </g>
  </g>
</svg>
