<svg xmlns="http://www.w3.org/2000/svg" xmlns:xlink="http://www.w3.org/1999/xlink" width="665.909" height="439.53" viewBox="0 0 665.909 439.53">
  <defs>
    <linearGradient id="linear-gradient" y1="0.5" x2="1" y2="0.5" gradientUnits="objectBoundingBox">
      <stop offset="0" stop-color="#ff5a00"/>
      <stop offset="1" stop-color="#ffbe00"/>
    </linearGradient>
    <linearGradient id="linear-gradient-2" y1="0.502" x2="0.998" y2="0.502" gradientUnits="objectBoundingBox">
      <stop offset="0" stop-color="#d109c8"/>
      <stop offset="1" stop-color="#f40019"/>
    </linearGradient>
    <linearGradient id="linear-gradient-3" x1="0" y1="0.5" x2="1" y2="0.5" xlink:href="#linear-gradient-2"/>
    <linearGradient id="linear-gradient-4" x1="0" y1="0.502" x2="0.998" y2="0.502" xlink:href="#linear-gradient-2"/>
    <linearGradient id="linear-gradient-5" x1="0" y1="0.5" x2="0.998" y2="0.5" xlink:href="#linear-gradient-2"/>
    <linearGradient id="linear-gradient-6" x1="0" y1="0.502" x2="0.998" y2="0.502" xlink:href="#linear-gradient-2"/>
    <linearGradient id="linear-gradient-8" x1="0" y1="0.5" x2="0.998" y2="0.5" xlink:href="#linear-gradient-2"/>
    <linearGradient id="linear-gradient-11" x1="0" x2="1" xlink:href="#linear-gradient"/>
    <linearGradient id="linear-gradient-12" y1="0.5" x2="1" y2="0.5" gradientUnits="objectBoundingBox">
      <stop offset="0" stop-color="#1a65bc"/>
      <stop offset="0.3" stop-color="#0f76d2"/>
      <stop offset="0.69" stop-color="#0488e9"/>
      <stop offset="0.94" stop-color="#008ff2"/>
    </linearGradient>
    <linearGradient id="linear-gradient-13" x1="0" y1="0.5" x2="1" y2="0.5" xlink:href="#linear-gradient-2"/>
    <linearGradient id="linear-gradient-14" x1="0" y1="0.5" x2="1" y2="0.5" xlink:href="#linear-gradient-12"/>
  </defs>
  <g id="imagen2" transform="translate(-14.1 -79.77)">
    <path id="Trazado_506" data-name="Trazado 506" d="M649.85,217.45c-.57-.24-9.37-9-9.37-9a.81.81,0,0,1,0-1.14.83.83,0,0,1,1.14,0l8.79,8.8a.79.79,0,0,1,0,1.13.77.77,0,0,1-.56.21Z" fill="#1a1a1a"/>
    <path id="Trazado_507" data-name="Trazado 507" d="M641.05,217.45c-.88-.55-.88-1.06-.57-1.37l8.8-8.8a.82.82,0,0,1,1.13,0,.8.8,0,0,1,0,1.14l-8.79,8.79a.81.81,0,0,1-.57.24Z" fill="#1a1a1a"/>
    <path id="Trazado_508" data-name="Trazado 508" d="M660.28,203.2a3.31,3.31,0,1,1,2.347-.966A3.31,3.31,0,0,1,660.28,203.2Zm0-5a.711.711,0,1,0,0-.02Z" fill="#1a1a1a"/>
    <path id="Trazado_509" data-name="Trazado 509" d="M204.94,276.06a3.31,3.31,0,1,1,3.31-3.31A3.31,3.31,0,0,1,204.94,276.06Zm0-5a.714.714,0,1,0,0-.06Z" fill="#1a1a1a"/>
    <path id="Trazado_510" data-name="Trazado 510" d="M633.23,113.73a3.05,3.05,0,0,1-2.73-1.67L618.11,88a3.07,3.07,0,0,1,5.46-2.81L636,109.25a3.07,3.07,0,0,1-2.72,4.48Z" fill="#b3b3b3"/>
    <path id="Trazado_511" data-name="Trazado 511" d="M615,107.88a3.07,3.07,0,0,1-1.41-5.8l24.08-12.39a3.07,3.07,0,1,1,2.8,5.46L616.4,107.54a3.07,3.07,0,0,1-1.4.34Z" fill="#b3b3b3"/>
    <path id="Trazado_512" data-name="Trazado 512" d="M637.09,113.26a3,3,0,0,1-2.73-1.66L622,87.51a3.07,3.07,0,0,1,5.46-2.81l12.38,24.09a3.06,3.06,0,0,1-2.72,4.47Z" fill="#303030"/>
    <path id="Trazado_513" data-name="Trazado 513" d="M618.86,107.41a3.07,3.07,0,0,1-1.41-5.8l24.08-12.39a3.07,3.07,0,1,1,2.8,5.46l-24.07,12.39A3,3,0,0,1,618.86,107.41Z" fill="#303030"/>
    <path id="Trazado_514" data-name="Trazado 514" d="M42.06,304.27a2.62,2.62,0,0,1-2.33-1.42L29.16,282.29a2.62,2.62,0,0,1,4.66-2.39l10.56,20.55A2.62,2.62,0,0,1,43.25,304a2.68,2.68,0,0,1-1.19.27Z" fill="#b3b3b3"/>
    <path id="Trazado_515" data-name="Trazado 515" d="M26.5,299.28a2.62,2.62,0,0,1-1.2-4.95l20.54-10.57a2.621,2.621,0,0,1,2.4,4.66L27.7,299a2.69,2.69,0,0,1-1.2.28Z" fill="#b3b3b3"/>
    <path id="Trazado_516" data-name="Trazado 516" d="M45.35,303.87A2.62,2.62,0,0,1,43,302.45L32.45,281.9a2.621,2.621,0,1,1,4.66-2.4l10.57,20.55a2.62,2.62,0,0,1-1.14,3.53A2.55,2.55,0,0,1,45.35,303.87Z" fill="#303030"/>
    <path id="Trazado_517" data-name="Trazado 517" d="M29.8,298.88a2.62,2.62,0,0,1-1.2-4.95l20.54-10.57A2.62,2.62,0,0,1,51.53,288L31,298.59A2.55,2.55,0,0,1,29.8,298.88Z" fill="#303030"/>
    <path id="Trazado_518" data-name="Trazado 518" d="M266.05,137.46l-.82,81.94,69.26-1.64v-80.3Z" opacity="0.1" fill="url(#linear-gradient)"/>
    <g id="Grupo_126" data-name="Grupo 126" opacity="0.3">
      <path id="Trazado_519" data-name="Trazado 519" d="M282.49,85.15a2.62,2.62,0,1,0-1.859-.764,2.63,2.63,0,0,0,1.859.764Z" fill="url(#linear-gradient-2)"/>
      <path id="Trazado_520" data-name="Trazado 520" d="M302.88,85.29a2.76,2.76,0,1,0-2.76-2.76,2.76,2.76,0,0,0,2.76,2.76Z" fill="url(#linear-gradient-3)"/>
      <path id="Trazado_521" data-name="Trazado 521" d="M323.27,85.08a2.55,2.55,0,1,0-1.81-.743,2.56,2.56,0,0,0,1.81.743Z" fill="url(#linear-gradient-4)"/>
      <path id="Trazado_522" data-name="Trazado 522" d="M282.49,105.68a2.76,2.76,0,1,0-2.76-2.76,2.76,2.76,0,0,0,2.76,2.76Z" fill="url(#linear-gradient-5)"/>
      <path id="Trazado_523" data-name="Trazado 523" d="M302.88,105.81a2.89,2.89,0,1,0-2.05-.843,2.9,2.9,0,0,0,2.05.843Z" fill="url(#linear-gradient-6)"/>
      <path id="Trazado_524" data-name="Trazado 524" d="M323.27,105.61a2.69,2.69,0,1,0-2.69-2.69A2.69,2.69,0,0,0,323.27,105.61Z" fill="url(#linear-gradient-3)"/>
      <path id="Trazado_525" data-name="Trazado 525" d="M282.49,125.87a2.56,2.56,0,1,0-2.56-2.56,2.56,2.56,0,0,0,2.56,2.56Z" fill="url(#linear-gradient-8)"/>
      <path id="Trazado_526" data-name="Trazado 526" d="M302.88,126a2.69,2.69,0,1,0-2.69-2.69,2.69,2.69,0,0,0,2.69,2.69Z" fill="url(#linear-gradient-3)"/>
      <path id="Trazado_527" data-name="Trazado 527" d="M323.27,125.82a2.51,2.51,0,1,0-2.51-2.51,2.51,2.51,0,0,0,2.51,2.51Z" fill="url(#linear-gradient-3)"/>
    </g>
    <path id="Trazado_528" data-name="Trazado 528" d="M595.57,270.55s2.63,3.31,5.31,3.8,21.16,3.38,35.89,22.56,27.26,47.77,30.64,60.22,11.24,41.81,0,59.7a28.89,28.89,0,0,1-15,15.19v34.7l-120.34.62s1.79-19.22,2.11-31.19.06-21.17.06-21.17-15.67,21.06-40.73,6.24l-41.3-91.39s35-15.06,39.64-14.83a5.2,5.2,0,0,1,5.16,4.36l9,17.34,5.29,4,14.2-41.54s14.27-24.09,41.68-26Z" fill="#29485a"/>
    <rect id="Rect치ngulo_117" data-name="Rect치ngulo 117" width="228.61" height="151.05" rx="12.09" transform="translate(58.1 192.23)" opacity="0.5" fill="url(#linear-gradient-11)"/>
    <path id="Trazado_529" data-name="Trazado 529" d="M210,333.1s-25.6,2-52.62,41.26-38.44,63.93-39.84,70.57-5.17,24,12.24,34.56c0,0,4.06,4.95,33.32,5s67.32-.72,67.32-.72,3.16-2,4.44-8.07,31.67-9.46,31.67-9.46L263,447.69s27.11,26,47.76,22,24.17-18.41,24.17-18.41l-5-73.21L312.2,334.82s-10.62-4.36-23.86,2.4-13.47,8.68-13.47,8.68-3.42-10.11-8.83-12.07-15.37-1.5-15.37-1.5Z" fill="#29485a"/>
    <rect id="Rect치ngulo_118" data-name="Rect치ngulo 118" width="210.79" height="96.29" rx="5.26" transform="translate(239.69 110.71)" opacity="0.53" fill="url(#linear-gradient-12)"/>
    <path id="Trazado_530" data-name="Trazado 530" d="M278.9,292.28s4.9-1.6,5.47-9.54.87-13.57-2.73-19.28-14.18-7.76-22.42-7.55-17.55,4.67-20.4,7.69c0,0-9.29,3.67-11.08,5.34s-5.88,4.16-4,12.44,3.41,18.07,3.52,24.48-2.14,11.84-6.62,12.86-17,2.62-18.37,15.88l7.69-1.5s19.59,11.12,29,4,7.77-7.94,7.77-7.94l14,4.18,5.37.53s14.66-.06,16.85-14.51-4.25-23.51-4.25-23.51Z" fill="#1a1a1a"/>
    <path id="Trazado_531" data-name="Trazado 531" d="M296.6,334.06c.36-.07-4-4.92-4-4.92s-1.58-13.88-4.21-21.45-9.53-14.44-9.53-14.44l-.85-15s-1.12-6.71-11-7.63c0,0-6,16.22-19.71,21.18,0,0-9.45-2.32-11.89,5.69s8.51,9.35,8.51,9.35,6.8,9.84,4.7,17.54-8.6,14.25-16.58,14.73c0,0,3.5,20.56,18.7,17.34s6.88-15.88,6.88-15.88L263,320.45s-1.44,13.77,7.94,17.1l3.89,8.35S286.65,336.06,296.6,334.06Z" fill="#fff"/>
    <path id="Trazado_532" data-name="Trazado 532" d="M221.89,450.57a161.528,161.528,0,0,1,23.7-.87c11,.62,15.48.87,19.49,4.63s13.6,15.12,15.38,19.18-1.48,5.88-3.11,5.62-5.77-2.57-5.77-2.57,4.69,8-.93,9.12-8.38-5.49-10.42-8.49-5.9-8.17-5.9-8.17l5.89,14.48a3.58,3.58,0,0,1-3.3,4.83c-4.66.6-8.47-6.73-8.47-6.73l-5.56-10.21a24.78,24.78,0,0,1-19.27,5.07S220.93,460.31,221.89,450.57Z" fill="#fff"/>
    <path id="Trazado_533" data-name="Trazado 533" d="M225.21,493.82l58.81-20.78,66.15,16.2-45.96,29.32Z" fill="#fff"/>
    <path id="Trazado_534" data-name="Trazado 534" d="M147.91,227.16c-4-6.89-10.61-6.89-14.64,0l-30.92,53c-4,6.89-.78,12.52,7.19,12.52h62.13c8,0,11.21-5.63,7.19-12.52Z" fill="#fff"/>
    <path id="Trazado_535" data-name="Trazado 535" d="M339.17,174.3a12.8,12.8,0,1,1-12.8-12.8A12.8,12.8,0,0,1,339.17,174.3Z" fill="#fff"/>
    <path id="Trazado_536" data-name="Trazado 536" d="M277.94,174.3a12.8,12.8,0,1,1-12.79-12.8A12.8,12.8,0,0,1,277.94,174.3Z" fill="#fff"/>
    <path id="Trazado_537" data-name="Trazado 537" d="M402.83,174.3a12.79,12.79,0,1,1-3.757-9.065,12.79,12.79,0,0,1,3.757,9.065Z" fill="#fff"/>
    <path id="Trazado_538" data-name="Trazado 538" d="M488.22,326s3.33-13.61,4-18.17,2.68-10.43-1.08-14.17-12.38-7.54-16-7.56-6.31.26-7,2.79-.84,7.43,13.91,15.13l-39,.41s7.82,15.66,17.11,26.23l19.75-.54Z" fill="#fff"/>
    <path id="Trazado_539" data-name="Trazado 539" d="M595.57,270.55a23.45,23.45,0,0,1-3.92-14.31c.4-8.64.74-11,.74-11s6.46-2.89,5.5-9.3-6.37-6.54-11.27-5.49l-7.76-4.57S578,220,573,219.15c0,0-4.46-6-4.59-12,0,0-10,5-12.81,12.67,0,0-6.77-.11-6.91,10.67s5.87,12.61,5.87,12.61-.11,12.2,4.76,15.33,7.52,1.71,7.52,1.71l.32,13.05,3.29,16.8Z" fill="#fff"/>
    <path id="Trazado_540" data-name="Trazado 540" d="M592.39,263s4.64,1.14,8.39,0a10.37,10.37,0,0,0,5.53-4.07l-.22-3.27a14.86,14.86,0,0,1,4.84,3.27c2.66,2.54,2,8.93-3.46,12.26s-9.32,2-9.32,2A15.82,15.82,0,0,1,592.39,263Z" fill="#1a1a1a"/>
    <path id="Trazado_541" data-name="Trazado 541" d="M613,260.75s12.59,8.41,17.39,18.08a60.519,60.519,0,0,1,5.72,18.08A49.77,49.77,0,0,0,618,280.86c-12.11-6.3-18.62-7.59-18.62-7.59s7.92.26,10.45-4.44A31.412,31.412,0,0,0,613,260.75Z" fill="#ffce26"/>
    <path id="Trazado_542" data-name="Trazado 542" d="M606.31,259s-.95-4.91,2.08-21.08,4-20.26,4-20.26.77-12.34-13.42-16.82-29.21-3.71-35.75-1.23a13.41,13.41,0,0,0-8.84,12.81c-.05,4.67,0,6.95,0,6.95,1.17,0,3.71-5.65,13.39-12.17,0,0,2.53,9.67,5.3,12,0,0,5,.49,5.84,6.77,0,0,5.52,3.8,7.76,4.57a6.5,6.5,0,0,1,6.27.14,9.1,9.1,0,0,1,5,9.08c-.28,3.8-5.5,5.57-5.5,5.57s-1.15,7.14-.76,11.78a40.281,40.281,0,0,0,.76,6S603,265.38,606.31,259Z" fill="#ffce26"/>
    <path id="Trazado_543" data-name="Trazado 543" d="M565.62,336.7s-6.17-28.32-10.12-36l-54.15-.12s7.35,25.28,8.77,37.59,5.54,43.93,4.23,50.29H562.8Z" fill="#fff"/>
    <path id="Trazado_544" data-name="Trazado 544" d="M579.45,358.11A16.62,16.62,0,0,1,575.26,347a21.2,21.2,0,0,0-4.87-15.21,18.55,18.55,0,0,0-7.13-5.72l2.33,12.09s1.35,9.48-4.27,8.55-24.7-16-24.7-16-3.82-1.34-5.71.62-.62,7.18-.62,7.18-4.14-.64-5.67,1.25,2.28,7.69,2.28,7.69a5.66,5.66,0,0,0-.9,3.5c.26,1.83.12,7.21,12.74,13.84S564,379.9,564,379.9,573.15,363.12,579.45,358.11Z" fill="#fff"/>
    <path id="Trazado_545" data-name="Trazado 545" d="M500.95,334.65l-13.48-3.94-124.54-.07-6.84,2-7.15,4.3-3.81,4.34-34.42,88.8.36,5.92,2.68,6.48,9.16,6.06Z" fill="#fff"/>
    <path id="Trazado_546" data-name="Trazado 546" d="M492.77,334.06H373.49c-10.71,0-20.18,5.73-23.42,14.17l-31.42,81.85c-5,13.1,6.79,26.47,23.42,26.47H461.35c10.71,0,20.18-5.74,23.42-14.18l31.43-81.84C521.23,347.43,509.4,334.06,492.77,334.06Z" fill="#fff"/>
    <path id="Trazado_547" data-name="Trazado 547" d="M492.77,334.06H373.49c-10.71,0-20.18,5.73-23.42,14.17l-31.42,81.85c-5,13.1,6.79,26.47,23.42,26.47H461.35c10.71,0,20.18-5.74,23.42-14.18l31.43-81.84C521.23,347.43,509.4,334.06,492.77,334.06Z" opacity="0.5" fill="url(#linear-gradient-13)"/>
    <path id="Trazado_548" data-name="Trazado 548" d="M407.94,416.13l-14.16.46-4.36-2.72-.77-3.94,9.65-24.72,3.52-3H440l3.81,2.54,1.05,3.81L435.92,412s-2.21-11.21-8.57-16.74H404.57v8.15s3.29,8.45,3.37,12Z" fill="#1a1a1a"/>
    <path id="Trazado_549" data-name="Trazado 549" d="M404.57,403.45s5.14,11.83,6.27,31.14S414.38,479.11,413,489l5.52,3.52h23.11s.46-25.5-1.23-44-3.95-36.21-6.77-43.12a38.931,38.931,0,0,0-6.28-10.71l-22.81.59Z" fill="#fff"/>
    <path id="Trazado_550" data-name="Trazado 550" d="M412.62,478.35H363.25l-2.43,2.54v4.63l-.59,6.51,20,13.68,110.75.14s2.79-1.63,3.2-3.21.23-10.14.23-10.14.36-.88-6.4-5.21-14.57-8.94-14.57-8.94Z" fill="#fff"/>
    <path id="Trazado_551" data-name="Trazado 551" d="M488.22,326l2-11s5.83,0,5.7,3.62S488.22,326,488.22,326Z" fill="#3a3a3a"/>
    <path id="Trazado_552" data-name="Trazado 552" d="M456.23,326.34l-4.01,3.49,8.04.87Z" fill="#3a3a3a"/>
    <path id="Trazado_553" data-name="Trazado 553" d="M380.28,505.71s110.13.94,112.1.13c.1-.18,1.8-3,1.85-3.2a55.007,55.007,0,0,0,.26-7.44c-.18-.06-1,1.72-1,1.72l-3.23,1.89H380.56l-19.74-13.29-.59,6.51Z" opacity="0.53" fill="url(#linear-gradient-14)"/>
    <path id="Trazado_554" data-name="Trazado 554" d="M278.64,295.81l.26-3.53s4.9-1.6,5.47-9.54.87-13.57-2.73-19.28-14.18-7.76-22.42-7.55c-.55,0-1.1.05-1.66.1-.08.21,17.56,8.62-3.16,31.08-10.72,11.63,12,13.22,26.88,14.2A25.81,25.81,0,0,0,278.64,295.81Z" fill="#fff"/>
    <path id="Trazado_555" data-name="Trazado 555" d="M238.92,337.06c9.37-7.17,7.77-7.94,7.77-7.94l11.2,3.35-5.65-21.81-7.32-3.85h-4.44S248,320.17,236.74,329,210,333.1,210,333.1,229.55,344.22,238.92,337.06Z" fill="#fff"/>
    <path id="Trazado_556" data-name="Trazado 556" d="M672.72,402.28s-13.58-11.21-30.13,2.39-9.44,29.42-9.44,29.42,16.84,4.69,29.27-9.37S672.72,402.28,672.72,402.28Z" fill="#ffce26"/>
    <path id="Trazado_557" data-name="Trazado 557" d="M580.09,197.61c-7.17-.25-13.33.59-16.92,1.95a13.41,13.41,0,0,0-8.84,12.81c-.05,4.67,0,6.95,0,6.95,1.17,0,3.71-5.65,13.39-12.17,0,0,2.53,9.67,5.3,12,0,0,5,.49,5.84,6.77,0,0,5.52,3.8,7.76,4.57-2.57-3.83-11-13.81-12.13-22.32C573.79,202.88,576.87,199.58,580.09,197.61Z" fill="#fff"/>
    <path id="Trazado_558" data-name="Trazado 558" d="M606.31,259.7a12.559,12.559,0,0,1-.83-7.33c2.89-21.48,5.8-33.54,6.11-34.83a16.66,16.66,0,0,0-7.76-13.38c-12.46-8.39-35.22-5.83-40.41-3.9a8.19,8.19,0,0,0-5.25,3.12c-2.75,3.37-3.75,9.05-2.9,16.42-2.39-7.76-1.29-13.67,1.78-17.4a9.61,9.61,0,0,1,6-3.57c6.78-2.47,29.54-4.06,41.66,4.09a18.13,18.13,0,0,1,8.43,14.65c-.05.34-3.11,12.45-6.15,35.06a14.23,14.23,0,0,0,.08,6.11C606.46,259.69,606.38,259.7,606.31,259.7Z" fill="#1a1a1a"/>
    <path id="Trazado_559" data-name="Trazado 559" d="M524.62,301.3c9.78-17.62,24-26.67,42.82-28.77-18.19,3.53-32,12.35-42.19,28.43a.74.74,0,0,1-.63.34Z" fill="#1a1a1a"/>
    <path id="Trazado_560" data-name="Trazado 560" d="M566.4,261.32a14.349,14.349,0,0,1-4.4-.61c-3.13-1-5.26-3.31-6.5-7.08a38,38,0,0,1-1.67-10.5c1.64,4,2.15,7.17,3.09,10,1.08,3.29,2.89,5.29,5.53,6.12a15.63,15.63,0,0,0,6,.45c2.45-.21,6-.65,8.53-1.15-2.25,2-5.91,2.42-8.41,2.63A15.17,15.17,0,0,1,566.4,261.32Z" fill="#1a1a1a"/>
    <path id="Trazado_561" data-name="Trazado 561" d="M586.61,231.71a33.451,33.451,0,0,1-8.26-5.24,46.859,46.859,0,0,1,8.61,3.84C587.14,231.57,586.88,231.71,586.61,231.71Z" fill="#1a1a1a"/>
    <path id="Trazado_562" data-name="Trazado 562" d="M555.26,220.57c-.64-.18-.84-.6-.71-1,2-5.81,12.63-12.76,13.08-13.05,1.15.6,1.73,6,6,12.2a18.27,18.27,0,0,1-6.15-10.31c-2.65,1.85-10,7.27-11.52,11.65A.74.74,0,0,1,555.26,220.57Z" fill="#1a1a1a"/>
    <path id="Trazado_563" data-name="Trazado 563" d="M590.14,246.37a8.46,8.46,0,0,1-3.91-1,10.89,10.89,0,0,1,4.35-.55,7.014,7.014,0,0,0-.87-14,6.91,6.91,0,0,0-3.84,1.44c.43-2.22,2-2.82,3.74-2.93,5,0,8.72,3.45,9,8a8.51,8.51,0,0,1-8,9Z" fill="#1a1a1a"/>
    <path id="Trazado_564" data-name="Trazado 564" d="M591.84,242.55c-.45-.16-5.68-4.2-5.68-4.2,0-1.18,5.79-5.46,5.79-5.46.88,1.2-4.1,4.89-4.1,4.89l4.45,3.44C592.29,242.45,592.07,242.55,591.84,242.55Z" fill="#1a1a1a"/>
    <path id="Trazado_565" data-name="Trazado 565" d="M570.47,290.73c-.73-.61-3.68-17.33-3.68-17.33l-.67-12.61c1.48-.08,2.14,12.44,2.14,12.44L571,288.65,595.11,270c.91,1.18-24.18,20.62-24.18,20.62a.77.77,0,0,1-.46.11Z" fill="#1a1a1a"/>
    <path id="Trazado_566" data-name="Trazado 566" d="M545.42,360.62c-.89-.49-2.12-1.19-3.68-2.09-5.79-3.3-15.49-8.84-17.4-13.69-1.55-3.92-.15-5.83.82-6.61a5,5,0,0,1,5.54-.35c-1.71.65-3.52.63-4.6,1.5s-1.28,2.63-.38,4.91c1.73,4.36,11.51,9.95,16.76,12.95,1.67,1,2.87,1.65,3.39,2.05C545.86,360.52,545.64,360.62,545.42,360.62Z" fill="#1a1a1a"/>
    <path id="Trazado_567" data-name="Trazado 567" d="M564,380.64c-.51-.18-12.6-7.6-28.08-16.65-6.08-3.55-9.6-7.36-10.47-11.34a7.46,7.46,0,0,1,.83-5.63c1.17.92,0,2.64.64,5.36.78,3.49,4.15,7.06,9.75,10.33,15.49,9.05,27.6,16.48,27.71,16.55C564.5,380.51,564.26,380.64,564,380.64Z" fill="#1a1a1a"/>
    <path id="Trazado_568" data-name="Trazado 568" d="M565.59,338.89c-4.26-21.3-9.67-35-10.73-37.59H524.62c0-1.48,30.73-1.48,30.73-1.48.75.59,7,15.09,11,38.2C565.67,338.89,565.62,338.89,565.59,338.89Z" fill="#1a1a1a"/>
    <path id="Trazado_569" data-name="Trazado 569" d="M510.36,340.49c-4.53-26.46-9.65-39.52-9.7-39.65.69-1,24-1,24-1,0,1.48-22.2,1.48-22.2,1.48,1.26,3.56,5.45,16.39,8.67,38.34C510.43,340.49,510.39,340.49,510.36,340.49Z" fill="#1a1a1a"/>
    <path id="Trazado_570" data-name="Trazado 570" d="M562.8,389.18H514.35c-.84-8.16-1.1-14.17-1.62-21.49,2,7,2.25,12.88,2.35,20H562.8C563.54,388.85,563.21,389.18,562.8,389.18Z" fill="#1a1a1a"/>
    <path id="Trazado_571" data-name="Trazado 571" d="M532.08,468.09c.66-3.42,1.94-39.35,2.19-79.65,1.31,29.36.31,76.86-1.6,79.36A.75.75,0,0,1,532.08,468.09Z" fill="#1a1a1a"/>
    <path id="Trazado_572" data-name="Trazado 572" d="M652.42,467.93c-.25-11-.74-35.26-.75-35.5,1.5.22,2,24.52,1.49,34.79a.74.74,0,0,1-.74.71Z" fill="#1a1a1a"/>
    <path id="Trazado_573" data-name="Trazado 573" d="M622.7,381.39c-13-25-14.61-64.31-14.62-64.7,1.51.34,3.07,39.36,15.28,63.63C622.93,381.37,622.81,381.39,622.7,381.39Z" fill="#1a1a1a"/>
    <path id="Trazado_574" data-name="Trazado 574" d="M560.58,243.85c-1.56-.91-3.81-3.4-4.06-5.35a2.07,2.07,0,0,1,.45-1.7c1.09-1.28,3-.45,4.29.1.71-1.36,1.28-5.48,1.65-8.16,1.28,1.6.32,8.62.13,9.32a1.82,1.82,0,0,1-2.36.21c-.77-.33-2.21-1-2.59-.5.08,1.9,2,4.07,2.91,4.72C561.05,243.74,560.82,243.85,560.58,243.85Z" fill="#1a1a1a"/>
    <path id="Trazado_575" data-name="Trazado 575" d="M567,249.35a8.5,8.5,0,0,1-2.24-.33c2.06-1,3.43-1.09,4.44-1.79a5.52,5.52,0,0,0,2-3.64c1.47.27,1.16,3.29-1.11,4.86A5.25,5.25,0,0,1,567,249.35Z" fill="#1a1a1a"/>
    <path id="Trazado_576" data-name="Trazado 576" d="M579.45,358.85c-.68-.21-4.33-1.9-5-12.21-1-16.28-11.35-19.84-11.46-19.88.93-1.26,11.9,2.51,12.94,19.79.58,9.36,3.74,10.86,3.76,10.87C580,358.67,579.74,358.85,579.45,358.85Z" fill="#1a1a1a"/>
    <path id="Trazado_577" data-name="Trazado 577" d="M550.39,354.7c-9.52-4.23-20.14-11.69-21.67-18.21a5.63,5.63,0,0,1,1.09-5.1,4.51,4.51,0,0,1,3.5-1.79,9.36,9.36,0,0,1,4.93,1.91c1.39.89,2.71,1.89,4,2.85.52.4,1,.8,1.58,1.18,2.84,2.1,5.8,3.95,8.57,5.65.71.43,1.42.91,2.15,1.38a29.288,29.288,0,0,0,5.36,3,3.9,3.9,0,0,0,2.09.31c2.72-.55,3-4.05,2.85-7.75,1.58,2.67,1.77,8.33-2.56,9.21a5.331,5.331,0,0,1-2.91-.39,29.419,29.419,0,0,1-5.65-3.18c-.71-.46-1.41-.93-2.11-1.36-2.79-1.71-5.79-3.58-8.67-5.7l-1.6-1.2c-1.26-.95-2.57-1.93-3.9-2.79a8.231,8.231,0,0,0-4.11-1.67,3.05,3.05,0,0,0-2.37,1.24,4.22,4.22,0,0,0-.8,3.82c1.2,5.08,9.84,12.29,20.54,17.13C550.94,354.54,550.67,354.7,550.39,354.7Z" fill="#1a1a1a"/>
    <path id="Trazado_578" data-name="Trazado 578" d="M570.36,204c-.15-1.52,5-4.46,8.09-5.14a74.381,74.381,0,0,1-7.72,5,.74.74,0,0,1-.37.14Z" fill="#1a1a1a"/>
    <path id="Trazado_579" data-name="Trazado 579" d="M151.18,442.22c21.77-12.53,75.55-8.69,77.83-8.51-.67,1.44-55.76-2.51-77.49,8.43A.841.841,0,0,1,151.18,442.22Z" fill="#1a1a1a"/>
    <path id="Trazado_580" data-name="Trazado 580" d="M192.06,485.2H169.24c-7.27,0-14.8,0-22.15-.46-7.7-.52-13.78-2.18-18.59-5.08a28.65,28.65,0,0,1-13.23-21.18c-1.37-12.72,6.56-26.84,12.94-38.19,1.1-2,2.17-3.86,3.14-5.66a375.178,375.178,0,0,1,25.39-40.69c12.58-17.54,28.73-36.2,53.06-41.54-23.52,6.68-39.43,25.09-51.85,42.41a372.813,372.813,0,0,0-25.29,40.53c-1,1.81-2,3.71-3.15,5.68-6.28,11.16-14.08,25.05-12.76,37.3a27.12,27.12,0,0,0,12.52,20.07c4.6,2.77,10.46,4.36,17.92,4.87,7.3.5,14.8.48,22.05.46h14.33c14.89,0,30.27.06,45.35-.71C216.73,485.1,204.27,485.2,192.06,485.2Z" fill="#1a1a1a"/>
    <path id="Trazado_581" data-name="Trazado 581" d="M184.18,435.19C183.52,434.11,212.7,376,212.7,376c1.33.67-27.85,58.75-27.85,58.75A.75.75,0,0,1,184.18,435.19Z" fill="#1a1a1a"/>
    <path id="Trazado_582" data-name="Trazado 582" d="M255.44,489.35a5.82,5.82,0,0,1-4.34-2.14,18.769,18.769,0,0,1-2.24-3.39c-1.49-2.58-2.35-4.19-3.2-5.79-.51-.95-.8-1.51-1.09-2.06a41.742,41.742,0,0,0-3.82-6.38c2.75,1.12,4,3.44,5.14,5.69l.86,1.65c1.07,2,1.92,3.58,2.83,5.13a23.618,23.618,0,0,0,2.63,4.16,4,4,0,0,0,4.92,1.23,4.33,4.33,0,0,0,1.83-1.52,4.19,4.19,0,0,0,.52-2.38,11.69,11.69,0,0,0-.93-3.38c-.51-1.29-1.11-2.64-1.87-4.23a124.475,124.475,0,0,0-6-11c3.52,2.95,5.55,6.71,7.31,10.38.79,1.63,1.4,3,1.92,4.34a12.45,12.45,0,0,1,1,3.83,5.39,5.39,0,0,1-.73,3.25,5.8,5.8,0,0,1-2.45,2.09,5.45,5.45,0,0,1-2.29.52Z" fill="#1a1a1a"/>
    <path id="Trazado_583" data-name="Trazado 583" d="M269.28,486.67a6.45,6.45,0,0,1-4.63-2.28c-6.09-6.26-13.63-18.95-13.95-19.49,1.36-.63,9.05,12.32,15,18.46,1.53,1.57,3.12,2.15,4.58,1.66a3.61,3.61,0,0,0,2.37-2.4c.59-4.6-8.62-16.05-12.22-20.08,1.65-.38,14.5,14,13.69,20.27a5.06,5.06,0,0,1-3.37,3.63A5,5,0,0,1,269.28,486.67Z" fill="#1a1a1a"/>
    <path id="Trazado_584" data-name="Trazado 584" d="M277.25,479.88c-4.07-.37-7-4.28-7.15-4.44,1.22-.86,3.88,2.65,6.78,2.93a3.65,3.65,0,0,0,2.9-1c2-1.79-2.06-7.74-5.06-11.07-5.29-7.53-10.9-12.91-14.38-13.8-14.53-3.7-37-1.16-37.22-1.14.06-1.5,22.78-4.06,37.59-.3,4.61,1.17,10.86,8.16,15.17,14.32.84.92,8.6,9.73,4.9,13.09a5.17,5.17,0,0,1-3.53,1.41Z" fill="#1a1a1a"/>
    <path id="Trazado_585" data-name="Trazado 585" d="M227.32,477.46a28.242,28.242,0,0,1-3.8-.26A28.58,28.58,0,0,0,242,470.85C242.73,472.18,237,477.46,227.32,477.46Z" fill="#1a1a1a"/>
    <path id="Trazado_586" data-name="Trazado 586" d="M488.22,326.79c-.67-1.31.82-12.27,3.33-19.18s.87-12.52-2-14.24c-3.79-2.3-16-8.24-19.73-6A2.61,2.61,0,0,0,468.8,290c.46,8.17,16.64,14.72,16.81,14.79-1.26,1.1-17.78-5.6-18.29-14.71a4.05,4.05,0,0,1,1.78-4c5.35-3.23,21.11,5.91,21.27,6,4,2.42,5.07,9.16,2.57,16s-4,17.91-4,18a.73.73,0,0,1-.72.71Z" fill="#1a1a1a"/>
    <path id="Trazado_587" data-name="Trazado 587" d="M460.26,331.09c-5.24-5.46-13.74-18.91-17.77-26.26,5.21,6.4,13.78,20,18.32,25C460.61,331,460.43,331.09,460.26,331.09Z" fill="#1a1a1a"/>
    <path id="Trazado_588" data-name="Trazado 588" d="M475.2,317.06c-3.21-8.6-12.43-11.85-12.52-11.89.89-1.26,10.5,2.12,13.23,10.93C475.34,317.06,475.27,317.06,475.2,317.06Z" fill="#1a1a1a"/>
    <path id="Trazado_589" data-name="Trazado 589" d="M511,427.07a34.1,34.1,0,0,1-17.81-5.21c9.61,4.07,19,5.12,28.58,1.88a24.37,24.37,0,0,0,12.67-10.3,18.77,18.77,0,0,1-12.19,11.71A35.091,35.091,0,0,1,511,427.07Z" fill="#1a1a1a"/>
    <path id="Trazado_590" data-name="Trazado 590" d="M506,337.44c-6.63-12.65-11.3-20.66-11.35-20.74,1.33-.67,6,7.39,12,19.67C506.23,337.42,506.12,337.44,506,337.44Z" fill="#1a1a1a"/>
    <path id="Trazado_591" data-name="Trazado 591" d="M451.89,331.08c.25-2.62,1.32-3.61,3.92-5.35-1.56,2.83-2.52,3.71-3.28,5A.73.73,0,0,1,451.89,331.08Z" fill="#1a1a1a"/>
    <path id="Trazado_592" data-name="Trazado 592" d="M479.57,331.09c10.56-5.9,16.37-11.18,15.54-13.53-.3-.85-1.08-1.73-4.57-1.82,3.53-1.4,5.3-.56,6,1.32,1.51,4.27-7.58,10.23-16.67,14A.67.67,0,0,1,479.57,331.09Z" fill="#1a1a1a"/>
    <path id="Trazado_593" data-name="Trazado 593" d="M554.88,243.54c-4.11-.09-7.09-5.53-6.94-12.39a17.929,17.929,0,0,1,2.13-8.43c1.36-2.35,3.17-3.64,5.11-3.64,4.05.09,7,5.53,6.88,12.39a16.4,16.4,0,0,1-1,6c-.76-2.15-.52-3.63-.47-6,.13-5.82-2.31-10.79-5.33-10.86-1.44,0-2.8,1-3.88,2.89a16.38,16.38,0,0,0-1.93,7.73c-.13,5.82,2.31,10.8,5.33,10.87a3,3,0,0,0,2.64-1.24C557.43,243,556.37,243.54,554.88,243.54Z" fill="#1a1a1a"/>
    <path id="Trazado_594" data-name="Trazado 594" d="M572.85,242.86c-4.06-.09-7-5.53-6.89-12.39s3.32-12.07,7.24-12.07,7,5.53,6.88,12.38a17.861,17.861,0,0,1-2.13,8.44C576.59,241.57,574.78,242.86,572.85,242.86Zm.35-23c-3,0-5.63,4.83-5.75,10.62s2.31,10.79,5.33,10.86c1.45,0,2.8-1,3.89-2.89a16.5,16.5,0,0,0,1.92-7.73c.13-5.82-2.31-10.8-5.33-10.86Z" fill="#1a1a1a"/>
    <path id="Trazado_595" data-name="Trazado 595" d="M561.31,232.5c.3-2.33,2.79-3.86,5.84-1.57-3.5-.77-5.08,1.07-5.26,1.29a.75.75,0,0,1-.58.28Z" fill="#1a1a1a"/>
    <path id="Trazado_596" data-name="Trazado 596" d="M308.19,470.58c-9.42,0-19.42-3.85-27.83-9.13a113.883,113.883,0,0,1-12-9.17c-1.61-1.35-3.23-2.7-4.87-4,2.58.15,4.2,1.51,5.83,2.87a111.587,111.587,0,0,0,11.87,9.05c15.14,9.51,35.62,14.31,47.68-.82a33.656,33.656,0,0,0,3.12-4.73c.33,2.49-.77,4.15-2,5.65C324.12,467.68,316.37,470.58,308.19,470.58Z" fill="#1a1a1a"/>
    <path id="Trazado_597" data-name="Trazado 597" d="M290.63,425.12c1.26-4.65.33-8.37-.66-12.3l-4.24-17.15c-1.31-5.29-4.56-13.21-7.7-20.86s-6.44-15.69-7.77-21.1c0-.63,1.42-8.85,16.22-16.34,16.42-8.3,25.69-3.41,26.08-3.2,2.07,4.59,3.94,9,5.85,13.41,4.28,10,8.72,20.34,12.16,30.26-4.83-9.38-9.25-19.69-13.53-29.67-1.87-4.37-3.71-8.66-5.42-12.8-1.47-.66-10.16-3.9-24.47,3.33-13,6.6-15.16,13.78-15.41,14.82,1.33,5.3,4.55,13.14,7.67,20.73s6.43,15.66,7.76,21.06l4.24,17.15c1,4,2.06,8.21-.13,12.27a.75.75,0,0,1-.65.39Z" fill="#1a1a1a"/>
    <path id="Trazado_598" data-name="Trazado 598" d="M266,334.8a35.866,35.866,0,0,0-5.42-.75c1.14-1.43,4.24-1.12,5.63-.7C266.66,334.6,266.36,334.8,266,334.8Z" fill="#1a1a1a"/>
    <path id="Trazado_599" data-name="Trazado 599" d="M243,307.55a8.5,8.5,0,1,1-.05-17,7.84,7.84,0,0,1,4.76,1.42c-2,.47-3.32.06-4.71.06a7.025,7.025,0,1,0,3.64,13.05c-.54,2.06-2,2.49-3.6,2.5Z" fill="#1a1a1a"/>
    <path id="Trazado_600" data-name="Trazado 600" d="M241.6,303.84c-.5-1.3,3.71-5,3.71-5l-5.23-3.34c.81-1.25,6.86,2.62,6.86,2.62.09,1.18-4.85,5.56-4.85,5.56A.72.72,0,0,1,241.6,303.84Z" fill="#1a1a1a"/>
    <path id="Trazado_601" data-name="Trazado 601" d="M265.66,309.85a5.11,5.11,0,0,1-2.66-.71,7,7,0,0,1-2.91-4.54c1.47-.22,1.9,2.22,3.68,3.27a4.74,4.74,0,0,0,4.05.08C267.37,309.68,266.49,309.85,265.66,309.85Z" fill="#1a1a1a"/>
    <path id="Trazado_602" data-name="Trazado 602" d="M257.75,340.91c-.59-.13-.82-.54-.72-.94l5.19-19.43c1.43.38-3.75,19.82-3.75,19.82a.75.75,0,0,1-.72.55Z" fill="#1a1a1a"/>
    <path id="Trazado_603" data-name="Trazado 603" d="M274.94,287.11c-.59-.08-1,.19-1.08,2.33-.11,2.39.52,2.79,1.05,2.75s1-.79,1-2.49S275.72,287.2,274.94,287.11Z" fill="#1a1a1a"/>
    <path id="Trazado_604" data-name="Trazado 604" d="M257.81,287.19c-.6-.05-1,.22-1,2.37-.05,2.39.59,2.78,1.12,2.72s1-.82.9-2.52S258.59,287.27,257.81,287.19Z" fill="#1a1a1a"/>
    <path id="Trazado_605" data-name="Trazado 605" d="M278.05,284a13,13,0,0,0-5-1,5.86,5.86,0,0,1,5.27-.46C278.6,283.8,278.33,284,278.05,284Z" fill="#1a1a1a"/>
    <path id="Trazado_606" data-name="Trazado 606" d="M262.94,283.14a6,6,0,0,0-2.17-.53c1.86-1.34,2.51-1,2.74-.68C263.26,283.09,263.1,283.14,262.94,283.14Z" fill="#1a1a1a"/>
    <path id="Trazado_607" data-name="Trazado 607" d="M17.51,343.31a3.24,3.24,0,1,0-3.24-3.24A3.24,3.24,0,0,0,17.51,343.31Z" fill="#1a1a1a"/>
    <path id="Trazado_608" data-name="Trazado 608" d="M42.69,343.48a3.41,3.41,0,1,0-3.41-3.41A3.41,3.41,0,0,0,42.69,343.48Z" fill="#1a1a1a"/>
    <path id="Trazado_609" data-name="Trazado 609" d="M67.86,343.22a3.16,3.16,0,1,0-3.15-3.15A3.16,3.16,0,0,0,67.86,343.22Z" fill="#1a1a1a"/>
    <path id="Trazado_610" data-name="Trazado 610" d="M17.51,368.65a3.41,3.41,0,1,0-3.41-3.41A3.41,3.41,0,0,0,17.51,368.65Z" fill="#1a1a1a"/>
    <path id="Trazado_611" data-name="Trazado 611" d="M42.69,368.82a3.57,3.57,0,1,0-2.534-1.046A3.58,3.58,0,0,0,42.69,368.82Z" fill="#1a1a1a"/>
    <path id="Trazado_612" data-name="Trazado 612" d="M67.86,368.57a3.33,3.33,0,1,0-3.32-3.33,3.33,3.33,0,0,0,3.32,3.33Z" fill="#1a1a1a"/>
    <path id="Trazado_613" data-name="Trazado 613" d="M17.51,393.58a3.16,3.16,0,1,0-3.16-3.16A3.16,3.16,0,0,0,17.51,393.58Z" fill="#1a1a1a"/>
    <path id="Trazado_614" data-name="Trazado 614" d="M42.69,393.75a3.33,3.33,0,1,0-3.33-3.33,3.33,3.33,0,0,0,3.33,3.33Z" fill="#1a1a1a"/>
    <path id="Trazado_615" data-name="Trazado 615" d="M67.86,393.52a3.1,3.1,0,1,0-3.1-3.1,3.1,3.1,0,0,0,3.1,3.1Z" fill="#1a1a1a"/>
    <path id="Trazado_616" data-name="Trazado 616" d="M274.87,246.53a59.211,59.211,0,0,0-3.51-15.1c3.34,4.33,4.25,9.07,4.25,14.36a.74.74,0,0,1-.74.74Z" fill="#1a1a1a"/>
    <path id="Trazado_617" data-name="Trazado 617" d="M155.5,356.74H86.92a41.64,41.64,0,0,1-41.59-41.59V245.79A41.64,41.64,0,0,1,86.92,204.2H215.44c0,1.49-128.52,1.49-128.52,1.49a40.15,40.15,0,0,0-40.1,40.1v69.36a40.15,40.15,0,0,0,40.1,40.1H155.5C156.25,356.4,155.91,356.74,155.5,356.74Z" fill="#1a1a1a"/>
    <path id="Trazado_618" data-name="Trazado 618" d="M198.05,303.59H135.92c-4.14,0-7.24-1.45-8.74-4.06s-1.18-6,.9-9.59L159,237c2.09-3.57,4.92-5.53,8-5.53s5.87,2,8,5.53l30.95,53c2.08,3.57,2.41,7,.91,9.59S202.18,303.59,198.05,303.59ZM167,232.94c-2.5,0-4.87,1.7-6.68,4.8L129.4,290.69c-1.8,3.09-2.12,6-.9,8.1s3.87,3.31,7.45,3.31h62.13c3.58,0,6.22-1.18,7.44-3.31s.91-5-.9-8.1l-31-53C171.84,234.64,169.46,232.94,167,232.94Z" fill="#1a1a1a"/>
    <path id="Trazado_619" data-name="Trazado 619" d="M332.29,182.48a13.54,13.54,0,1,1,13.54-13.54,13.54,13.54,0,0,1-13.54,13.54Zm0-25.59a12.05,12.05,0,1,0,12,12.05A12.05,12.05,0,0,0,332.29,156.89Z" fill="#1a1a1a"/>
    <path id="Trazado_620" data-name="Trazado 620" d="M271.06,182.48a13.54,13.54,0,1,1,13.54-13.54,13.54,13.54,0,0,1-13.54,13.54Zm0-25.59a12.05,12.05,0,1,0,12.05,12.05A12.05,12.05,0,0,0,271.06,156.89Z" fill="#1a1a1a"/>
    <path id="Trazado_621" data-name="Trazado 621" d="M396,182.48a13.54,13.54,0,1,1,13.53-13.54A13.54,13.54,0,0,1,396,182.48Zm0-25.59a12.05,12.05,0,1,0,12,12.05A12.05,12.05,0,0,0,396,156.89Z" fill="#1a1a1a"/>
    <path id="Trazado_622" data-name="Trazado 622" d="M68.58,194.56c-.74-.69-.81-1.54-.81-3.09,0-1.34.06-3.52.29-6.28a14,14,0,0,1,1.2,6.28c0,1.46.06,2.28.06,2.29a6.29,6.29,0,0,1-.74.8ZM70,177.51a.78.78,0,0,1-.74-.88,84.147,84.147,0,0,1,2-8.4c.66,3.1,0,5.88-.51,8.67a.75.75,0,0,1-.75.61Zm4.68-16.45a23.62,23.62,0,0,1,2.83-8.9c0,3.19-1.11,5.79-2.14,8.42a.73.73,0,0,1-.73.48Zm7.76-15.24a20.63,20.63,0,0,1,4.39-8.16c-.59,3.13-2.25,5.45-3.77,7.82a.74.74,0,0,1-.66.34ZM93,132.44a19.14,19.14,0,0,1,5.76-7.15c-1.19,3-3.27,4.91-5.22,6.92a.76.76,0,0,1-.54.23Zm130.08-3.53a67.419,67.419,0,0,0-5.94-4.9c7.47,3.74,7.27,4.33,7.18,4.61l-1.4-.52a.46.46,0,0,1,.17.81ZM106,121.37a18,18,0,0,1,6.83-6c-1.72,2.72-4.13,4.26-6.4,5.86a.76.76,0,0,1-.43.14Zm104.5-2.06c-2.82-1.64-5.3-3.07-7.77-4.37,3.2,0,5.71,1.45,8.17,3,.1,1.24-.13,1.37-.38,1.37Zm-89.74-6.56a17,17,0,0,1,7.6-4.81c-2.09,2.38-4.72,3.51-7.28,4.73a.76.76,0,0,1-.3.08Zm74.6-1.4c-2.92-1.18-5.59-2.19-8.25-3.07,3.16-.52,5.88.51,8.54,1.64.29,1.26.02,1.43-.27,1.43Zm-58.6-4.61c2.58-2.22,5.41-2.84,8.23-3.32-2.52,1.93-5.31,2.55-8,3.29a.58.58,0,0,1-.21.03Zm42.35-.73c-2.93-.67-5.75-1.18-8.52-1.55,3-1.1,5.88-.58,8.69.08.49,1.23.19,1.46-.15,1.46Zm-25.49-2.12c2.8-1.68,5.75-1.73,8.57-1.63-2.84,1.39-5.72,1.43-8.53,1.63Z" fill="#1a1a1a"/>
    <path id="Trazado_623" data-name="Trazado 623" d="M581.22,190.68a4.08,4.08,0,0,1-1.1-1.75,1.33,1.33,0,0,1,1.81.78C581.37,190.67,581.29,190.68,581.22,190.68Zm-3.42-9.25c-1.8-3.05-3-5.61-4.4-8.07,2.68,1.78,4,4.39,5.09,7C578,181.41,577.9,181.43,577.8,181.43Zm-8.21-15c-2.21-2.65-3.94-4.93-5.75-7.07,3,1.22,4.74,3.53,6.36,5.91-.32,1.14-.47,1.18-.61,1.18Zm-11-13.06c-2.52-2.15-4.67-4-6.9-5.79,3.19.63,5.37,2.54,7.42,4.52-.11,1.22-.36,1.29-.55,1.29ZM441,144.88c-.38-1.4,2.09-3.5,6.64-6.28a73.714,73.714,0,0,1-6.16,6.1.74.74,0,0,1-.48.18Zm104.22-2.11c-2.74-1.64-5.2-3.08-7.72-4.42,3.25,0,5.76,1.51,8.13,3.06.02,1.25-.22,1.36-.46,1.36Zm-89.67-6.89c2.26-2.66,4.93-3.8,7.62-4.8-2.13,2.38-4.76,3.5-7.29,4.73a.78.78,0,0,1-.38.07Zm74.59-1.16c-2.93-1.2-5.6-2.23-8.23-3.1,3.14-.52,5.85.52,8.52,1.68.22,1.25-.06,1.42-.34,1.42Zm-58.57-4.81c2.59-2.21,5.43-2.82,8.25-3.29-2.53,1.93-5.32,2.53-8,3.26a.69.69,0,0,1-.3.03Zm42.35-.6c-2.9-.67-5.71-1.2-8.51-1.58,3.05-1.08,5.9-.55,8.69.11.42,1.24.11,1.47-.23,1.47Zm-25.48-2.19c2.81-1.67,5.66-1.71,8.58-1.61-2.94,1.38-5.72,1.42-8.53,1.61Z" fill="#1a1a1a"/>
    <path id="Trazado_624" data-name="Trazado 624" d="M679.56,468.29h-234c0-1.49,234-1.49,234-1.49C680.3,468,680,468.29,679.56,468.29Z" fill="#1a1a1a"/>
    <path id="Trazado_625" data-name="Trazado 625" d="M409,468.29H319.55c0-1.49,89.45-1.49,89.45-1.49C409.74,468,409.41,468.29,409,468.29Z" fill="#1a1a1a"/>
    <path id="Trazado_626" data-name="Trazado 626" d="M294.54,468.29H276.75c0-1.49,17.79-1.49,17.79-1.49C295.28,468,295,468.29,294.54,468.29Z" fill="#1a1a1a"/>
    <path id="Trazado_627" data-name="Trazado 627" d="M118.63,468.29H29.75c0-1.49,88.88-1.49,88.88-1.49C119.38,468,119.05,468.29,118.63,468.29Z" fill="#1a1a1a"/>
    <path id="Trazado_628" data-name="Trazado 628" d="M264.06,454.3a20.939,20.939,0,0,1-1.39-4.44c-1.57-6.84-4.48-19.56,3.95-47.33,4.25-14,6-27,.74-45,6,15.3,5.81,28.59.68,45.47-8.31,27.39-5.45,39.87-3.92,46.57a21.1,21.1,0,0,1,.69,4,.72.72,0,0,1-.75.73Z" fill="#1a1a1a"/>
    <path id="Trazado_629" data-name="Trazado 629" d="M229,484.47c-5.37,0-8.27-13.08-8.27-25.38s2.9-25.38,8.27-25.38c2.88,0,6.61,7.75,6.61,16-1.49-8.07-5.17-14.51-6.61-14.51-3.21,0-6.78,9.81-6.78,23.9S225.75,483,229,483c2,0,3.61-2.47,4.85-7.53C233.8,481.72,231.8,484.47,229,484.47Z" fill="#1a1a1a"/>
    <path id="Trazado_630" data-name="Trazado 630" d="M271.79,328c-2.81-4.87.52-9.28.66-9.47,1.15.95-1.73,4.79,0,8.4C272,327.93,271.9,328,271.79,328Z" fill="#1a1a1a"/>
    <path id="Trazado_631" data-name="Trazado 631" d="M296.24,334.8c-.6-.3-4.2-5.22-4.2-5.22a97.734,97.734,0,0,1-2.12-12c-1.7-16-11.35-23-11.45-23.08,1.28-.92,11.15,6.18,12.94,22.92a112.569,112.569,0,0,0,1.92,11.45l3.51,4.79C296.54,334.76,296.39,334.8,296.24,334.8Z" fill="#1a1a1a"/>
    <path id="Trazado_632" data-name="Trazado 632" d="M275.12,347.21c-.67-.44-4.53-9-4.53-9-9-4.65-8.49-12.22-8.15-17.76,1.14,5.56.72,12.36,9.05,16.56.35.36,4.31,9.18,4.31,9.18C275.33,347.19,275.22,347.21,275.12,347.21Z" fill="#1a1a1a"/>
    <path id="Trazado_633" data-name="Trazado 633" d="M269.37,304.34c-.09-1.46,2.5-1.29,3.83-3.63.7-1.24.61-1.35-.25-2.45a16.891,16.891,0,0,1-2.47-4.15c-2.24-5.23-1.26-7.59-1.14-7.84,1.33.66.55,2.68,2.5,7.26a15.609,15.609,0,0,0,2.28,3.81c1,1.32,1.51,2.09.37,4.1A5.79,5.79,0,0,1,269.37,304.34Z" fill="#1a1a1a"/>
    <path id="Trazado_634" data-name="Trazado 634" d="M247.33,292.51c2.79-2.62,5.82-4.65,8.76-7.45,7.06-6.75,10.78-13.15,11.36-19.58.86,6.94-3,13.65-10.34,20.66a29.47,29.47,0,0,1-9.51,6.32.65.65,0,0,1-.27.05Z" fill="#1a1a1a"/>
    <path id="Trazado_635" data-name="Trazado 635" d="M229.83,339.9c-10.22,0-20.12-6.08-20.27-6.17,1-1.13,21.32,11.32,32.9-.19s1-26.14.9-26.29c1.31-.72,12.59,15,.14,27.35a18.69,18.69,0,0,1-13.67,5.3Z" fill="#1a1a1a"/>
    <path id="Trazado_636" data-name="Trazado 636" d="M202.24,336.15c-.5-15.74,17.4-17.92,17.58-17.94,9.72-2.53,6.74-17.89,4.36-30.23-1.16-6-2.08-10.75-1.38-13.24,1.89-6.7,9.32-9.36,13.31-10.79.62-.23,1.16-.42,1.59-.6a12.6,12.6,0,0,0,2.33-1.49c3.2-2.32,8.56-6.21,20.78-6.37,9.56-.17,16.2,1.88,20.26,6.14,4.7,4.93,4.84,12,4.53,16.84-.82,13.24-6.32,14.5-6.56,14.54-.2-1.48,4.34-2.76,5.08-14.63.45-7.3-.86-12.29-4.13-15.73-3.59-3.77-9.77-5.68-18.37-5.68-12.53.16-17.65,3.87-20.71,6.1a13.617,13.617,0,0,1-2.65,1.66c-.44.18-1,.38-1.65.62-4,1.43-10.7,3.84-12.37,9.79-.61,2.15.32,7,1.4,12.56,2.37,12.26,5.62,29.07-5.55,32-.79.1-16.88,2.09-17.11,15.76a.75.75,0,0,1-.74.69Z" fill="#1a1a1a"/>
    <path id="Trazado_637" data-name="Trazado 637" d="M266.7,320.89c-3.07-.05-6.75-.25-9.32-.58,2.7-1.15,6.31-1,8.78-.91a15.919,15.919,0,0,0,5.95-.86c2.58-1,4.25-3.13,5.1-6.48a35.811,35.811,0,0,0,.9-10.44c-.24-6.08-.81-22.71-.81-22.71-1.71-7.46-10.18-7.57-10.26-7.57.1-1.49,9.74-1.37,11.73,7.38,0,.14.59,16.76.83,22.84a37.4,37.4,0,0,1-.94,10.87c-1,3.85-3,6.3-6,7.5a16.449,16.449,0,0,1-5.96.96Z" fill="#1a1a1a"/>
    <path id="Trazado_638" data-name="Trazado 638" d="M422,219.82H242.57a16.44,16.44,0,0,1-16.42-16.42V138.46A16.44,16.44,0,0,1,242.57,122H422a16.44,16.44,0,0,1,16.42,16.42V203.4A16.44,16.44,0,0,1,422,219.82ZM242.57,123.53a14.94,14.94,0,0,0-14.93,14.93V203.4a14.94,14.94,0,0,0,14.93,14.93H422a15,15,0,0,0,15-14.93V138.46a15,15,0,0,0-15-14.93Z" fill="#1a1a1a"/>
    <path id="Trazado_639" data-name="Trazado 639" d="M325.57,452c-.45-.14-12.18-8.74-12.18-8.74a17.74,17.74,0,0,1-2.2-16.9l31.42-81.85c3.37-8.76,13.06-14.65,24.12-14.65H486c5.8,0,15.45,3.73,19.55,6.3-4.74-1.22-14-4.81-19.55-4.81H366.73c-10.45,0-19.58,5.5-22.73,13.69l-31.43,81.85a16.3,16.3,0,0,0,1.81,15.25L326,450.69C326,451.93,325.79,452,325.57,452Z" fill="#1a1a1a"/>
    <path id="Trazado_640" data-name="Trazado 640" d="M461.35,457.29H440.81c0-1.49,20.54-1.49,20.54-1.49,10.45,0,19.58-5.5,22.73-13.69l31.42-81.84a16.33,16.33,0,0,0-2-15.49c-4.3-6.25-12.06-10-20.77-10H373.49c-10.45,0-19.58,5.51-22.73,13.7l-31.42,81.84a16.31,16.31,0,0,0,2,15.48c4.29,6.25,12.06,10,20.77,10h69.77c0,1.49-69.77,1.49-69.77,1.49-9.2,0-17.43-4-22-10.63A17.77,17.77,0,0,1,318,429.81L349.37,348c3.37-8.76,13.06-14.64,24.12-14.64H492.77c9.21,0,17.42,4,22,10.62a17.76,17.76,0,0,1,2.12,16.86l-31.42,81.84C482.1,451.4,472.41,457.29,461.35,457.29Z" fill="#1a1a1a"/>
    <path id="Trazado_641" data-name="Trazado 641" d="M407.94,417.34H395.57a8,8,0,0,1-6.63-3.22,5.6,5.6,0,0,1-.65-5.23l8.83-23c1-2.67,3.95-4.46,7.28-4.46h33.54a7.94,7.94,0,0,1,6.63,3.22,5.6,5.6,0,0,1,.65,5.23l-8.84,23c-1.38-.53,7.45-23.55,7.45-23.55a4.09,4.09,0,0,0-.49-3.86,6.53,6.53,0,0,0-5.4-2.57H404.4a6.14,6.14,0,0,0-5.89,3.51l-8.84,23a4.09,4.09,0,0,0,.5,3.86,6.56,6.56,0,0,0,5.4,2.57h12.37C408.68,417,408.35,417.34,407.94,417.34Z" fill="#1a1a1a"/>
    <path id="Trazado_642" data-name="Trazado 642" d="M248.81,357.26c-15.54,0-17.53-17.54-17.55-17.72,1.56.53,3.36,16.23,17.54,16.23,5.5-.29,8.35-1.6,9.63-3.93,2.38-4.31-1.19-10.87-1.23-10.94,1.47-.42,5.31,6.62,2.54,11.65-1.55,2.82-4.81,4.39-9.68,4.67C249.63,357.24,249.21,357.26,248.81,357.26Z" fill="#1a1a1a"/>
    <path id="Trazado_643" data-name="Trazado 643" d="M259.66,481.76c-.24-1.46,2.13-2.23,2.13-2.23.46,1.41-1.9,2.19-1.9,2.19a.93.93,0,0,1-.23.04Z" fill="#1a1a1a"/>
    <path id="Trazado_644" data-name="Trazado 644" d="M304.21,519.3c-.22,0-79.22-24.77-79.22-24.77-.05-1.4,24.38-10.93,24.38-10.93.55,1.38-21.91,10.14-21.91,10.14l76.65,24,44.18-27.48L284,473.81l-3.12,1c-.46-1.41,2.86-2.5,2.86-2.5.42,0,66.57,16.93,66.57,16.93.21,1.35-45.75,29.93-45.75,29.93a.74.74,0,0,1-.35.13Z" fill="#1a1a1a"/>
    <path id="Trazado_645" data-name="Trazado 645" d="M419,493.25c-.75-92.44-14.3-97.18-14.44-97.22.89-1.35,15.18,2.24,15.18,96.47a.75.75,0,0,1-.74.75Z" fill="#1a1a1a"/>
    <path id="Trazado_646" data-name="Trazado 646" d="M413.43,490c-1.12-58.81-7-80.09-9.55-86.55,3.94,6,9.92,27.49,10.3,85.8Z" fill="#1a1a1a"/>
    <path id="Trazado_647" data-name="Trazado 647" d="M441.66,493.25H418.55c-.4-.12-5.92-3.64-5.92-3.64.81-1.26,6.14,2.15,6.14,2.15h22.14c-.07-91-13.55-95.69-13.69-95.73.9-1.35,15.18,2.24,15.18,96.47a.75.75,0,0,1-.74.75Z" fill="#1a1a1a"/>
    <path id="Trazado_648" data-name="Trazado 648" d="M404.7,404.19c-.75-.74-.75-8.89-.75-8.89.75-.74,23.43-.74,23.43-.74,0,1.49-21.94,1.49-21.94,1.49v7.4A.74.74,0,0,1,404.7,404.19Z" fill="#1a1a1a"/>
    <path id="Trazado_649" data-name="Trazado 649" d="M489.63,499.6H382a5.591,5.591,0,0,1-3-.88l-17-10.86a5.57,5.57,0,0,1,3-10.26h47.55c0,1.49-47.55,1.49-47.55,1.49a4.08,4.08,0,0,0-2.21,7.52l17,10.85a4,4,0,0,0,2.2.65H489.63a4.08,4.08,0,0,0,2.2-7.52l-17-10.86a4.09,4.09,0,0,0-2.2-.64h-31c0-1.49,31-1.49,31-1.49a5.5,5.5,0,0,1,3,.88l17,10.85a5.58,5.58,0,0,1-3,10.27Z" fill="#1a1a1a"/>
    <path id="Trazado_650" data-name="Trazado 650" d="M489.63,506.79H382a5.5,5.5,0,0,1-3-.88l-17-10.85a5.46,5.46,0,0,1-2.41-3.31,12.629,12.629,0,0,1,3.21,2.06l17,10.85a4.1,4.1,0,0,0,2.2.65H489.63a4,4,0,0,0,4-3.1C494.51,504.67,492.63,506.79,489.63,506.79Z" fill="#1a1a1a"/>
    <path id="Trazado_651" data-name="Trazado 651" d="M482.51,305.21H418.6c-.74-.74-.74-47.89-.74-47.89.74-.74,69.61-.74,69.61-.74.74.74.74,34.23.74,34.23-1.49,0-1.49-32.75-1.49-32.75H419.35v45.67h63.16C483.26,304.88,482.92,305.21,482.51,305.21Z" fill="#1a1a1a"/>
    <path id="Trazado_652" data-name="Trazado 652" d="M453,287.48c-.49-.18-34.92-29.6-34.92-29.6,1-1.13,34.92,27.88,34.92,27.88l33.95-29c1,1.13-33.47,30.55-33.47,30.55a.74.74,0,0,1-.48.17Z" fill="#1a1a1a"/>
    <path id="Trazado_653" data-name="Trazado 653" d="M418.6,305.21c-.54-1.25,24-27.43,24-27.43,1.09,1-23.46,27.2-23.46,27.2a.7.7,0,0,1-.54.23Z" fill="#1a1a1a"/>
    <path id="Trazado_654" data-name="Trazado 654" d="M470.28,286.88c-.54-.23-7.9-8.08-7.9-8.08,1.09-1,8.45,6.83,8.45,6.83C470.65,286.82,470.47,286.88,470.28,286.88Z" fill="#1a1a1a"/>
    <path id="Trazado_655" data-name="Trazado 655" d="M360.38,492.31c-.74-.74-.74-7.46-.74-7.46,1.49,0,1.49,6.72,1.49,6.72a.75.75,0,0,1-.75.74Z" fill="#1a1a1a"/>
    <path id="Trazado_656" data-name="Trazado 656" d="M494.23,503.11c-.75-.75-.75-7.26-.75-7.26,1.49,0,1.49,6.51,1.49,6.51a.74.74,0,0,1-.74.75Z" fill="#1a1a1a"/>
    <path id="Trazado_657" data-name="Trazado 657" d="M640.18,435.38c-23.64,0-55.76-23-79.41-48.6-.13-.83,2.83-9.65,9.24-18.27,8.5-11.43,13.76-15.81,14-16,1.18.15,32.2,19.89,49,36.32-16.62-14.16-44.53-32.28-48.48-34.81-1.38,1.24-6.26,5.87-13.33,15.37a69.211,69.211,0,0,0-9,16.7c28.6,30.89,69.44,57.83,91.83,44.21,8.88-5.38,14.68-13.58,17.23-24.34,7.29-30.69-13.1-74.54-26.29-95.61a150.644,150.644,0,0,0-12.72-18,37,37,0,0,0-6.6-5.67,96.62,96.62,0,0,0-10-6.36,64.376,64.376,0,0,0-7.44-3.56,29.26,29.26,0,0,0-5.73-1.41l-1.67-.3a9,9,0,0,1-4.11-2.27,15.94,15.94,0,0,1-4.4-7.4c-1.38-4.54-1.73-9.76-1.08-16.42.14-1.44.31-2.7.51-3.84,1.27,1.36,1.11,2.58,1,4-.62,6.46-.3,11.5,1,15.84a14.4,14.4,0,0,0,4,6.73,7.5,7.5,0,0,0,3.4,1.91l1.65.31a29.842,29.842,0,0,1,6,1.49,64.137,64.137,0,0,1,7.61,3.64,97,97,0,0,1,10.2,6.46,38.19,38.19,0,0,1,6.86,5.9,152.333,152.333,0,0,1,12.85,18.16c13.31,21.27,33.87,65.58,26.48,96.75-2.78,11.17-8.78,19.69-18,25.28a27.81,27.81,0,0,1-14.6,3.79Z" fill="#1a1a1a"/>
    <path id="Trazado_658" data-name="Trazado 658" d="M636.77,297.65C634,273.42,612.21,261.53,612,261.41c.92-1.19,23.45,11.07,25.51,35.43C636.82,297.65,636.79,297.65,636.77,297.65Z" fill="#1a1a1a"/>
    <path id="Trazado_659" data-name="Trazado 659" d="M597,264.34a19.761,19.761,0,0,1-4.82-.6c.52-1.4,9.84,1.21,13.49-5.16C604.61,263.42,600.35,264.34,597,264.34Z" fill="#1a1a1a"/>
    <path id="Trazado_660" data-name="Trazado 660" d="M600.25,273.94a20.711,20.711,0,0,1-2.17-.12c4.82-1,8.55-2.19,11-5s2.95-6.29,2.55-7.92c-.6-2.51-4.35-4.13-5.74-4.54.66-1.36,6.26.34,7.19,4.19.55,2.27-.28,6.29-2.88,9.25C608.48,271.78,605.42,273.94,600.25,273.94Z" fill="#1a1a1a"/>
    <path id="Trazado_661" data-name="Trazado 661" d="M266.49,490.8c-.31-1.41,20.88-11.24,20.88-11.24.63,1.35-20.56,11.18-20.56,11.18a.869.869,0,0,1-.32.06Z" fill="#1a1a1a"/>
    <path id="Trazado_662" data-name="Trazado 662" d="M283.82,498.32c-.34-1.4,21.84-13,21.84-13,.68,1.31-21.49,13-21.49,13A.73.73,0,0,1,283.82,498.32Z" fill="#1a1a1a"/>
    <path id="Trazado_663" data-name="Trazado 663" d="M300.42,504.52c-.37-1.39,23.43-15.1,23.43-15.1.75,1.28-23.05,15-23.05,15a.749.749,0,0,1-.38.1Z" fill="#1a1a1a"/>
    <path id="Trazado_664" data-name="Trazado 664" d="M633.46,434.83c-5.27-9.69-1.93-21.56,7.66-30,10.39-9.09,23.89-10.41,32.1-3.15-8.64-5.66-21.31-4.32-31.12,4.27-9.07,7.94-12.28,19.1-8,27.77C633.68,434.81,633.57,434.83,633.46,434.83Z" fill="#1a1a1a"/>
  </g>
</svg>
