<svg xmlns="http://www.w3.org/2000/svg" xmlns:xlink="http://www.w3.org/1999/xlink" width="614.648" height="368.204" viewBox="0 0 614.648 368.204">
  <defs>
    <linearGradient id="linear-gradient" x1="0.5" x2="0.5" y2="1" gradientUnits="objectBoundingBox">
      <stop offset="0" stop-color="#b311c4"/>
      <stop offset="1" stop-color="#d2001e"/>
    </linearGradient>
    <linearGradient id="linear-gradient-3" x1="0.5" x2="0.5" y2="1" gradientUnits="objectBoundingBox">
      <stop offset="0" stop-color="#ff5a08"/>
      <stop offset="1" stop-color="#ffbe06"/>
    </linearGradient>
    <linearGradient id="linear-gradient-7" x1="0.5" x2="0.5" y2="1" gradientUnits="objectBoundingBox">
      <stop offset="0" stop-color="#3e65b9"/>
      <stop offset="0.301" stop-color="#4476cf"/>
      <stop offset="0.691" stop-color="#4a88e6"/>
      <stop offset="0.935" stop-color="#4d8fef"/>
    </linearGradient>
  </defs>
  <g id="Grupo_962" data-name="Grupo 962" transform="translate(-67 -2975.446)">
    <rect id="Rectángulo_2285" data-name="Rectángulo 2285" width="120.21" height="120.21" transform="translate(456.243 3022.479)" opacity="0.1" fill="url(#linear-gradient)"/>
    <path id="Rectángulo_2286" data-name="Rectángulo 2286" d="M5.03,0h316.8a5.03,5.03,0,0,1,5.03,5.03V215.42a5.031,5.031,0,0,1-5.031,5.031H5.031A5.031,5.031,0,0,1,0,215.42V5.03A5.03,5.03,0,0,1,5.03,0Z" transform="translate(175.853 3090.283)" fill="#fefefe"/>
    <path id="Trazado_759" data-name="Trazado 759" d="M2955.255,206.4V183.591s-9.126,2.375-10.25-6,7.353-9.039,8.892-8.429,4.441,2.054,4.441,2.054,4.335-3.333,5.975-6.541,2.574-10.271,2.574-10.271,6.019,6.043,11.2,6.187a48.994,48.994,0,0,0,8.687-.457l.209,2.057a10.308,10.308,0,0,1,4.2,8.745c-.1,6.027-1.921,8.78-3.488,9.463l-.215,9.324s-.906,7.251-8.323,7.539l1.143,9.844-5.129,19.563Z" transform="translate(-2821.605 2975.205)" fill="#fefefe"/>
    <path id="Trazado_760" data-name="Trazado 760" d="M2984.153,176.488s-17.976,3.026-25.828,13.258-15.941,21.56-21.47,36.581-5.259,14.4-7.572,21.758-4.421,21.293-4.813,28.808,1.989,20.022,12.031,25.592,15.465,5.9,15.465,5.9-.084,9.294-.168,12.888.168,8.549.168,8.549h106.762s-3.086-12.211-3.648-16.91-1.41-15.748-1.41-15.748l-9.2.359s-11.468-3.962-11.8-12.886,0-26.8,0-26.8l4.443-4.587a42.425,42.425,0,0,0-10.333-16.05c-7.749-7.591-8.377-8.3-8.377-8.3s6.271-10.921,7.636-13.838,2.5-8.785,6.476-7.923l-.1-26.381-11.843-4.078Z" transform="translate(-2856.835 3013.206)" opacity="0.13" fill="url(#linear-gradient)"/>
    <path id="Trazado_761" data-name="Trazado 761" d="M2952.712,174.187l-6.332,7.38,14.342,31.28,2.567-3.109,9.118,25.805,4.208-3.355,3.752,2.126,3.555-5.916-2.049-20.907.8,1.113.126-26.837-5.615-8.23Z" transform="translate(-2819.062 3008.126)" fill="#fefefe"/>
    <path id="Trazado_762" data-name="Trazado 762" d="M3128.222,205.676s-14.627.716-18.646-13.049,2.787-19.522,5.722-20.811,5.608-6.952,6.792-9.06,4.087-7.594,10.568-8.307,11.47.658,14.022,3.787c0,0,6.734-1.7,11.6.792s9.411,5.733,12.4,13.079c0,0,1.763,5.646.953,9.683s-2.19,6.266-.825,9.1,2.623,4.293.587,7.188-9.395,7.357-14.015,7.594Z" transform="translate(-2540.363 2974.963)" fill="#fefefe"/>
    <path id="Trazado_763" data-name="Trazado 763" d="M3129.023,194.737s5.685-7.953,13.991-10.894,17.976-5.278,21.759-5.447l21.162-.367s13.7-.6,19.5,2.144,10.758,3.4,18.172,19.4c0,0,8,14.828,9.879,19.037s8.731,20.738,10.013,29.268,4.174,23.734-4.173,36.921c0,0-5.276,8.2-8.318,8.818l-.092,33.493H3123.467a64.7,64.7,0,0,0,4.346-17.606c.822-9.395,1.107-14.48,1.107-14.48s-14.586.718-22.232-12c0,0-7.937-10.369-9.512-16.972a46.9,46.9,0,0,0-3.066-9.5Z" transform="translate(-2564.847 3015.76)" fill="#294859"/>
    <path id="Trazado_764" data-name="Trazado 764" d="M3113.393,172.373s2.911,14.94,4.146,19.677,3.967,12.576,11.726,11.2c.5.653,2.764,9.751,2.764,9.751s-2,15.174,2.169,15.6,15.424-12.567,17.87-16.167l-6.364-24.808s7.8-1.975,6.043-8.614c0,0-1.145-5.907-9.085-3.749a13.19,13.19,0,0,1-5.58-8.152c-1.276-5.662-1.9-8.222-1.9-8.222a18.75,18.75,0,0,1-10.029,6.5C3118.935,166.738,3114.122,170.526,3113.393,172.373Z" transform="translate(-2531.665 2982.921)" fill="#fefefe"/>
    <path id="Trazado_765" data-name="Trazado 765" d="M3121.786,193.722l-4.483,5.632-1.4-4.092S3120.575,192.963,3121.786,193.722Z" transform="translate(-2527.354 3042.598)" fill="#fefefe"/>
    <path id="Trazado_766" data-name="Trazado 766" d="M3128.859,193.777l-6.783,8.054-5.115,1.5,7.221,21.056s5.208-.362,6.772-.675a26.916,26.916,0,0,1,6.889,8.922,52.611,52.611,0,0,0,9.1-6.685,115.157,115.157,0,0,0,8.413-9.727s-7.6-10.187-11.341-14.02S3137.49,195.154,3128.859,193.777Z" transform="translate(-2525.525 3042.957)" fill="#fefefe"/>
    <path id="Trazado_767" data-name="Trazado 767" d="M3098,193.24l3.123,8.562s7.507,1.214,11.017.83,8.464.332,8.037,4.073-1.625,5.189-1.625,5.189,3.287,2.264,2.936,4.623a13.522,13.522,0,0,1-1.609,4.427,3.171,3.171,0,0,1,2.087,3.072c.182,2.577-.923,4.628-4.111,5.722s-11.52,2.941-18.409.446-8.69-15.669-9.079-20.316S3091.936,196.84,3098,193.24Z" transform="translate(-2571.361 3042.033)" fill="#fefefe"/>
    <path id="Trazado_768" data-name="Trazado 768" d="M3045.058,170.54a17.161,17.161,0,0,0-10.231-4.563c-6.655-.707-6.959.528-6.959.528s-3.444-1.619-5.6-.528-1.7,4.31-1.7,4.31-3.164,1.926-1.54,7.926a18.3,18.3,0,0,0,3.368,10.842c3.73,5.153,5.24,6.854,6.277,9a45.481,45.481,0,0,1,2.1,5.942s7.542-3.708,12.847-3.872a82.251,82.251,0,0,1,10.916.525s-1.649-7.148-1.647-8.459a41.043,41.043,0,0,0-.75-8.04c-.577-1.861-2.4-5.937-2.4-5.937l-11.473-.653-6.968-7.273Z" transform="translate(-2694.843 2994.468)" fill="#fefefe"/>
    <path id="Trazado_769" data-name="Trazado 769" d="M3057.982,179.22c-.025.389-.155,2.617-.155,2.617l3.388-.125Z" transform="translate(-2627.284 3017.907)" fill="#fefefe"/>
    <path id="Trazado_770" data-name="Trazado 770" d="M3079.676,190.954s5.354,3.507,8.87-.917a6.535,6.535,0,0,0-1.086-9.7c-1.722-.955-5.678-2.12-8.464.226a12.33,12.33,0,0,1-8.509-7.768,44.214,44.214,0,0,1-2.854-12.9s-4.285.465-7.422,8.394l-1.967,12.573s-6.282,1.186-6.75,3.145,4.092,5.9,4.092,5.9-2.206,13.068,10.032,14.015c0,0,2.451-5.031,5.955-6.448s6.565-2.188,7.423-3.08S3080.908,192.657,3079.676,190.954Z" transform="translate(-2638.241 2984.654)" fill="#fefefe"/>
    <path id="Trazado_771" data-name="Trazado 771" d="M3116.414,204.821l12.157-14.429,5.258,4.431-10.811,12.833-4.7,1.378Z" transform="translate(-2526.467 3037.131)" fill="url(#linear-gradient-3)"/>
    <path id="Trazado_772" data-name="Trazado 772" d="M3120.882,191.888l1.991-2.366,5.157,4-1.889,2.4Z" transform="translate(-2518.777 3035.635)" fill="#fefefe"/>
    <path id="Trazado_773" data-name="Trazado 773" d="M3100.506,214.434l-9.9-28.852h56.024l27.829,81.469-55.658.119Z" transform="translate(-2570.871 3028.854)" fill="#fefefe"/>
    <path id="Trazado_774" data-name="Trazado 774" d="M3092.853,187.14l-.922-2.691,55.6-.17,28.432,81.836h-4.752l-26.848-78.293Z" transform="translate(-2568.597 3026.613)" opacity="0.28" fill="url(#linear-gradient-3)"/>
    <path id="Trazado_775" data-name="Trazado 775" d="M3076.06,196.305a4.043,4.043,0,0,1-3.627,3.51c-3.365.468-9.781,4-10.877,8.105s.669,10.758,12.426,12.951,19.638.541,22.153-.716,8.094-3.591,7.46-9.226-5.991-8.666-7.068-9.577-.752-2.944-.313-5.047,4.247-15.579,4.378-16.915.926-7.689-2.459-12.42-12.263-6.865-12.263-6.865-8.886-3.031-14.766-2.835-12,.327-14.235,4.19-4.318,7.569-1.578,13.645a13.825,13.825,0,0,1,7.907-10.965s1.1,11.732,3.849,15.079,4.6,5.643,7.189,5.8a6.314,6.314,0,0,1,4.506-1.684,7.612,7.612,0,0,1,7.128,6.388s-.6,6.372-4.47,7.039S3076.06,196.305,3076.06,196.305Z" transform="translate(-2633.896 2980.119)" fill="#1a1a1a"/>
    <path id="Trazado_776" data-name="Trazado 776" d="M3125.146,183.472s-12.056,1.518-16.586,6.614a62.6,62.6,0,0,0-10.886,16.605c-2.465,5.79-6.079,15.139-7.235,17.283s-3.926,9.014-10.8,7.918-7.512-6.418-8.612-9.784-12.994-39.7-12.994-39.7-7.417-5.755-19.706-3.815-17.65,10.206-17.65,10.206,3.352,20.281,5.449,28.481,6.013,22.33,10.238,30.68,13.762,22.893,29.074,25.758,25.508,0,29.36-1.567c.476.212-1.507,54.6-1.507,54.6l86.56.133-1.723-45.663s9.126,5.638,16.265,1.284,7.385-10.949,7.134-14.921a94.859,94.859,0,0,0-3.681-19.3c-1.954-5.714-5.545-16.774-12.129-28.285s-14.747-23.606-14.747-23.606-3.891-6.3-10.023-9.618-7.1-2.411-7.1-2.411a41.73,41.73,0,0,1-14.856,1.657A64.325,64.325,0,0,1,3125.146,183.472Z" transform="translate(-2691.215 3016.146)" opacity="0.22" fill="url(#linear-gradient-3)"/>
    <path id="Trazado_777" data-name="Trazado 777" d="M3023.247,167.322l25.076,1.41-.388,6.866-17.72-1.006Z" transform="translate(-2686.789 2997.434)" fill="#1a1a1a"/>
    <rect id="Rectángulo_2287" data-name="Rectángulo 2287" width="6.877" height="3.348" transform="translate(361.146 3173.032) rotate(-86.766)" fill="#fefefe"/>
    <path id="Trazado_778" data-name="Trazado 778" d="M3024.228,166.959l-8.25,3.431,6.53,3.431S3022.91,168.153,3024.228,166.959Z" transform="translate(-2699.298 2996.808)" fill="#fefefe"/>
    <path id="Trazado_780" data-name="Trazado 780" d="M3085.884,196.011s-5,40.154-37.82,54.775l-.147-9.286s9.749-2.141,20.237-13.571S3085.884,196.011,3085.884,196.011Z" transform="translate(-2644.335 3046.801)" fill="#1a1a1a"/>
    <path id="Trazado_781" data-name="Trazado 781" d="M3108.577,205.379s-1.518,7.768-8.943,8.625l-1.734-3.676S3105.061,210.69,3108.577,205.379Z" transform="translate(-2558.326 3062.921)" fill="#b5b5b5"/>
    <rect id="Rectángulo_2288" data-name="Rectángulo 2288" width="29.121" height="29.121" transform="translate(487.227 3157.102)" fill="#fefefe"/>
    <path id="Trazado_782" data-name="Trazado 782" d="M3087.538,167.463a2.125,2.125,0,1,1-2.123-2.125A2.124,2.124,0,0,1,3087.538,167.463Z" transform="translate(-2583.47 2994.019)" fill="#ffce26"/>
    <path id="Trazado_783" data-name="Trazado 783" d="M3041.63,151.52a1.55,1.55,0,1,1-1.547-1.551A1.549,1.549,0,0,1,3041.63,151.52Z" transform="translate(-2660.488 2967.572)" fill="#ffce26"/>
    <rect id="Rectángulo_2289" data-name="Rectángulo 2289" width="22.789" height="48.723" transform="translate(461.148 3041.409)" fill="#1a1a1a"/>
    <path id="Trazado_784" data-name="Trazado 784" d="M3082.95,131.631v27.162l3.581,5.3.635,11.132h18.442v-43.6Z" transform="translate(-2584.051 2936.016)" fill="#fff"/>
    <rect id="Rectángulo_2290" data-name="Rectángulo 2290" width="22.487" height="27.688" transform="translate(536.689 3083.557)" fill="#fff"/>
    <path id="Trazado_785" data-name="Trazado 785" d="M2958.872,209.933s4.6-7.469,6.462-11.082,3.153-7.659,3.915-8.951,2-2.642,4-2.054,2.289,2.288,2.171,4.519-2.212,7.4-2.016,8.924.773,3.888,3.889,3.031,6.777-3.98,8.442-5.5,8.236-7.98,8.236-7.98a4.221,4.221,0,0,1,4.756-.351c2.524,1.526,1.528,4.462,1.528,4.462a4.785,4.785,0,0,1,2.993,1.35c1.056,1.233,1.521,3.483.642,4.119a2.022,2.022,0,0,0,1.058,1.632c1.116.765,1.235,2.7.471,4.345s-6.343,8.456-11.563,12.625-13.74,9.73-17.263,10.736c0,0-5.165-7.447-8.043-10.913S2958.872,209.933,2958.872,209.933Z" transform="translate(-2797.566 3032.506)" fill="#fefefe"/>
    <path id="Trazado_786" data-name="Trazado 786" d="M2950.836,165.328l-.246,4.08-3.116-4.059Z" transform="translate(-2817.179 2994.002)" fill="#1a1a1a"/>
    <path id="Trazado_787" data-name="Trazado 787" d="M2957.157,178.547s5.722-4.212,7.273-9.115a34.126,34.126,0,0,0,1.686-7.994s3.627,5.8,12.2,6.206,7.825-.773,7.825-.773l.016,1.752,1.611.952a22.233,22.233,0,0,0-.239-8.138c-.993-3.722-3.83-6.723-8.459-9.068s-10.41-2.223-11.5-1.831-6.258,1.755-7.151,2.881c-.748.558-6.952.914-9.667,3.559s-4.544,4.846-5.082,9.191-.5,9.381.865,11.618a7.286,7.286,0,0,1,4.909-1.75A9.272,9.272,0,0,1,2957.157,178.547Z" transform="translate(-2820.836 2968.172)" fill="#ffce26"/>
    <path id="Trazado_788" data-name="Trazado 788" d="M2954.169,166.774s2.947,1.276,3.79,3.164a5.878,5.878,0,0,1,.337,3.662,8.307,8.307,0,0,0,5-.381c2.338-1.08,2.49-3.257,1.739-4.171s-2.694-.223-3.787-.16-2.438-.011-2.846-1.034-1.355-3.178-2.912-2.993S2954.169,166.774,2954.169,166.774Z" transform="translate(-2805.683 2993.179)" fill="#1a1a1a"/>
    <path id="Trazado_789" data-name="Trazado 789" d="M2953.482,192.5l5.639,7.816-1.16,13.858,2.224,8.169,4.892-3.111,3.068,1.882,3.555-5.916-1.024-7.289-4.5-8.263.739-9.155-6.682-9.28Z" transform="translate(-2806.841 3021.329)" fill="#ffce26"/>
    <path id="Trazado_790" data-name="Trazado 790" d="M3127.9,178.316l.44,1.766s-2.329,15.383,1.929,15.5,11.662-8.318,12.99-9.822,5.12-6.247,5.12-6.247l-.584-1.5,3.643.131a53.524,53.524,0,0,1-2.056,15.207c-2.288,7.515-4.813,12.856-9.041,12.916a9.776,9.776,0,0,1-8.1-4.462,17.854,17.854,0,0,1-1.646-5.112s-7.338,6.7-10.625,6.4-5.76-3.211-3.644-8.445,8.693-15.743,8.693-15.743Z" transform="translate(-2527.974 3015.84)" opacity="0.18" fill="url(#linear-gradient-3)"/>
    <path id="Trazado_791" data-name="Trazado 791" d="M2971.531,175.19h52.74V122.453A51.484,51.484,0,0,0,2986,138.905C2969.382,156.83,2971.531,175.19,2971.531,175.19Z" transform="translate(-2775.94 2920.17)" fill="#294859"/>
    <path id="Trazado_792" data-name="Trazado 792" d="M3029.953,127.139V180.5H2976.59a53.361,53.361,0,1,0,53.362-53.363Z" transform="translate(-2767.077 2928.285)" opacity="0.22" fill="url(#linear-gradient-7)"/>
    <path id="Trazado_794" data-name="Trazado 794" d="M2961.922,152.266a20.086,20.086,0,0,0-6.608-1.888c-.1.054,14.757,7.877,10.284,17.225,2.786-.092,3.32-.487,3.4-.7l.016,1.616,1.611.952a22.2,22.2,0,0,0-.241-8.138C2969.388,157.613,2966.551,154.612,2961.922,152.266Z" transform="translate(-2803.691 2968.275)" fill="#fff"/>
    <path id="Trazado_795" data-name="Trazado 795" d="M2960.194,154.288s-5.695,13.947-11.389,15.076l2.71,2.117c1.194-.939,5.632-4.647,6.968-8.881a34.147,34.147,0,0,0,1.686-7.994C2960.331,154.84,2960.194,154.288,2960.194,154.288Z" transform="translate(-2814.89 2975.004)" fill="#fff"/>
    <path id="Trazado_796" data-name="Trazado 796" d="M3063.2,163.981s1.1,11.732,3.849,15.079,4.6,5.643,7.189,5.8c-9.166-5.9-8.269-25.094-8.116-27.507-4.066.335-7.651,1.184-9.251,3.948-2.236,3.861-4.318,7.569-1.578,13.645A13.825,13.825,0,0,1,3063.2,163.981Z" transform="translate(-2633.896 2980.278)" fill="#fff"/>
    <path id="Trazado_797" data-name="Trazado 797" d="M3066.818,195.579a5.633,5.633,0,0,1-2.538-2.231,9.1,9.1,0,0,1-1.344-3.183,12.861,12.861,0,0,1,.591-7.942,8.3,8.3,0,0,1,2.666-3.175,31.8,31.8,0,0,1,3.42-1.894,8.624,8.624,0,0,0,2.433-1.826,7.757,7.757,0,0,0,1.735-2.4s-.473-.34-1.224-.871a3.424,3.424,0,0,1-1.111-.446,4.043,4.043,0,0,1-3.627,3.51c-3.365.468-9.781,4-10.877,8.105C3055.927,187.014,3057.373,192.956,3066.818,195.579Z" transform="translate(-2629.282 3004.813)" fill="#fff"/>
    <path id="Trazado_798" data-name="Trazado 798" d="M2955.129,185.066l4.629,5.637-.288,8.925,8.906,15.958-.073-6.425-4.961-9.794,1.237-9.155-7.213-8.843Z" transform="translate(-2804.008 3021.605)" fill="#fff"/>
    <g id="Grupo_823" data-name="Grupo 823" transform="translate(316.152 3159.487)">
      <g id="Grupo_817" data-name="Grupo 817" transform="translate(0 3.7)">
        <g id="Grupo_814" data-name="Grupo 814" transform="translate(20.267 1.68)">
          <path id="Trazado_799" data-name="Trazado 799" d="M3047.96,176.148c-.035,0-17.231-.966-17.231-.966.071-1.238,16.646-.307,16.646-.307l.318-5.627-24.46-1.377c.071-1.238,25.148.177,25.148.177.585.65.2,7.518.2,7.518A.615.615,0,0,1,3047.96,176.148Z" transform="translate(-3023.233 -167.363)" fill="#1a1a1a"/>
        </g>
        <g id="Grupo_815" data-name="Grupo 815" transform="translate(44.953 2.539)">
          <path id="Trazado_800" data-name="Trazado 800" d="M3035.688,175.792c-.036,0-3.383-.188-3.383-.188.074-1.238,2.8-1.086,2.8-1.086l.318-5.629-2.729-.155c.074-1.235,3.417-1.045,3.417-1.045.584.653.2,7.518.2,7.518A.621.621,0,0,1,3035.688,175.792Z" transform="translate(-3032.306 -167.679)" fill="#1a1a1a"/>
        </g>
        <g id="Grupo_816" data-name="Grupo 816">
          <path id="Trazado_801" data-name="Trazado 801" d="M3023.413,175.11c-.289-.073-7.629-3.929-7.629-3.929.063-1.126,8.552-4.435,8.552-4.435.449,1.156-6.772,3.97-6.772,3.97l6.139,3.227C3023.849,174.99,3023.637,175.11,3023.413,175.11Z" transform="translate(-3015.784 -166.746)" fill="#1a1a1a"/>
        </g>
      </g>
      <g id="Grupo_818" data-name="Grupo 818" transform="translate(8.856)">
        <path id="Trazado_802" data-name="Trazado 802" d="M3033.756,186.521c-11.781-7.61-14.2-13.21-14.632-15.881a4.814,4.814,0,0,1,.822-3.855c2.557-3.216,7.384.1,7.588.248.215.22,9.782,11.476,15.18,13.324-5.958-.729-15.068-11.313-15.952-12.347-.517-.34-4.127-2.6-5.85-.452a3.6,3.6,0,0,0-.561,2.89c.316,1.989,2.291,7.422,13.746,14.94C3034.156,186.426,3033.958,186.521,3033.756,186.521Z" transform="translate(-3019.039 -165.386)" fill="#1a1a1a"/>
      </g>
      <g id="Grupo_819" data-name="Grupo 819" transform="translate(6.775 3.594)">
        <path id="Trazado_803" data-name="Trazado 803" d="M3030.615,190.615c-.871-.533-11.945-9.86-12.33-17.974a7.611,7.611,0,0,1,2.266-5.934c-.5,2.266-1.124,3.9-1.029,5.874.362,7.577,11.378,16.845,11.49,16.937C3030.969,190.539,3030.792,190.615,3030.615,190.615Z" transform="translate(-3018.274 -166.707)" fill="#1a1a1a"/>
      </g>
      <g id="Grupo_820" data-name="Grupo 820" transform="translate(16.178 0.357)">
        <path id="Trazado_804" data-name="Trazado 804" d="M3040.163,171.851c-.489-.239-4.021-4.03-7.683-4.824-3.736-.808-10.682.335-10.75.348.09-1.271,7.033-2.422,11.013-1.559,4.049.879,7.722,4.829,7.877,5C3040.465,171.8,3040.316,171.851,3040.163,171.851Z" transform="translate(-3021.73 -165.517)" fill="#1a1a1a"/>
      </g>
      <g id="Grupo_821" data-name="Grupo 821" transform="translate(38.217 13.494)">
        <path id="Trazado_805" data-name="Trazado 805" d="M3035.155,193.1c-.669-.677-2.5-6.508-2.259-10.432.4-6.421-3.034-12.249-3.066-12.306,1.213-.384,4.72,5.58,4.3,12.385-.227,3.689,1.592,9.485,1.607,9.547C3035.28,193.09,3035.215,193.1,3035.155,193.1Z" transform="translate(-3029.83 -170.346)" fill="#1a1a1a"/>
      </g>
      <g id="Grupo_822" data-name="Grupo 822" transform="translate(7.421 13.114)">
        <path id="Trazado_806" data-name="Trazado 806" d="M3031.394,196.386c-1.532-2.585-3.579-7.069-4.424-8.2-2.884-3.551-9.951-12.216-8.176-17.985-.393,5.5,6.353,13.778,8.57,16.494,1.742,2.269,4.485,8.554,4.6,8.818C3031.565,196.369,3031.478,196.386,3031.394,196.386Z" transform="translate(-3018.511 -170.206)" fill="#1a1a1a"/>
      </g>
    </g>
    <g id="Grupo_833" data-name="Grupo 833" transform="translate(588.543 3224.56)">
      <g id="Grupo_826" data-name="Grupo 826" transform="translate(1.824 0)">
        <g id="Grupo_824" data-name="Grupo 824" transform="translate(0 2.563)">
          <path id="Trazado_807" data-name="Trazado 807" d="M3122.472,208.861c-.474-1.018,10.225-13.713,10.225-13.713l-4.316-3.632-11.759,13.955c-.949-.795,11.21-15.226,11.21-15.226.876-.076,6.135,4.356,6.135,4.356.076.868-11.019,14.039-11.019,14.039A.627.627,0,0,1,3122.472,208.861Z" transform="translate(-3116.569 -190.245)" fill="#1a1a1a"/>
        </g>
        <g id="Grupo_825" data-name="Grupo 825" transform="translate(11.967)">
          <path id="Trazado_808" data-name="Trazado 808" d="M3126,197.311c-.473-1.015,1.288-3.1,1.288-3.1l-4.313-3.63-1.763,2.084c-.947-.794,1.214-3.358,1.214-3.358.876-.076,6.132,4.356,6.132,4.356.076.871-2.081,3.431-2.081,3.431A.617.617,0,0,1,3126,197.311Z" transform="translate(-3120.967 -189.303)" fill="#1a1a1a"/>
        </g>
      </g>
      <g id="Grupo_827" data-name="Grupo 827" transform="translate(5.888 28.123)">
        <path id="Trazado_809" data-name="Trazado 809" d="M3118.062,202.6c1.736-1.7,3.306-2.187,5.441-2.96a9.229,9.229,0,0,1-5.289,2.944A.736.736,0,0,1,3118.062,202.6Z" transform="translate(-3118.062 -199.639)" fill="#1a1a1a"/>
      </g>
      <g id="Grupo_828" data-name="Grupo 828" transform="translate(2.895 18.214)">
        <path id="Trazado_810" data-name="Trazado 810" d="M3116.962,200.127c3.216-1.766,7.313-2.585,9.586-4.13-1.777,2.707-6.046,3.564-9.488,4.122A.4.4,0,0,1,3116.962,200.127Z" transform="translate(-3116.962 -195.997)" fill="#1a1a1a"/>
      </g>
      <g id="Grupo_829" data-name="Grupo 829" transform="translate(8.133 35.494)">
        <path id="Trazado_811" data-name="Trazado 811" d="M3118.887,204.484a36.211,36.211,0,0,1,5.671-2.136c.217,1.222-1.984,1.774-5.608,2.136Z" transform="translate(-3118.887 -202.348)" fill="#1a1a1a"/>
      </g>
      <g id="Grupo_830" data-name="Grupo 830" transform="translate(0 10.588)">
        <path id="Trazado_812" data-name="Trazado 812" d="M3115.9,196.527a10.584,10.584,0,0,1,6.571-3.333c.05,1.241-3.368,1.494-6.247,3.246A.611.611,0,0,1,3115.9,196.527Z" transform="translate(-3115.898 -193.194)" fill="#1a1a1a"/>
      </g>
      <g id="Grupo_831" data-name="Grupo 831" transform="translate(14.725 12.282)">
        <path id="Trazado_813" data-name="Trazado 813" d="M3147.876,216.77c-.606-.384-12.021-15.079-14.88-17.506-4.906-4.176-11.619-4.93-11.686-4.941.422-1.2,7.3-.422,12.491,3.994,2.952,2.514,14.092,16.845,14.565,17.454C3148.143,216.729,3148.01,216.77,3147.876,216.77Z" transform="translate(-3121.31 -193.817)" fill="#1a1a1a"/>
      </g>
      <g id="Grupo_832" data-name="Grupo 832" transform="translate(10.086 41.491)">
        <path id="Trazado_814" data-name="Trazado 814" d="M3133.617,214.709c-3.313-4.933-6.371-8.875-7.21-8.919a30.63,30.63,0,0,1-6.8.675,18.967,18.967,0,0,1,5.477-1.722,9,9,0,0,1,1.325-.19c1.986,0,6.076,6.446,7.741,9.218C3133.835,214.682,3133.725,214.709,3133.617,214.709Z" transform="translate(-3119.605 -204.552)" fill="#1a1a1a"/>
      </g>
    </g>
    <g id="Grupo_835" data-name="Grupo 835" transform="translate(417.032 3174.074)">
      <g id="Grupo_834" data-name="Grupo 834">
        <path id="Trazado_815" data-name="Trazado 815" d="M3054.471,178.082c-.187-1.2.142-1.205.846-1.325a4.5,4.5,0,0,0,3.211-2.4,2.468,2.468,0,0,0,.37-1.872c-1.595-.226-1.84.079-2.123.43a3.84,3.84,0,0,1-1.176,1.1,2.838,2.838,0,0,1-2.739-.3,11.7,11.7,0,0,1,2.16-.792c1.121-1.189,1.5-1.654,2.095-1.94a2.292,2.292,0,0,1,1.731-.109,2.072,2.072,0,0,1,1.172,1.1,3.476,3.476,0,0,1-.4,2.974,5.743,5.743,0,0,1-4.114,3.042A6.66,6.66,0,0,1,3054.471,178.082Z" transform="translate(-3052.861 -170.747)" fill="#1a1a1a"/>
      </g>
    </g>
    <g id="Grupo_836" data-name="Grupo 836" transform="translate(67 3189.49)">
      <path id="Trazado_816" data-name="Trazado 816" d="M2957.645,309.526c-13.805,0-29.36-8.247-32.468-22.139-4.04-18.072,5.709-46.09,8.794-54.242,6.073-16.064,9.174-22.009,16.023-32.854,10.883-17.234,21.642-22.009,34.448-23.878-12.643,3.1-22.737,7.651-33.4,24.539-6.794,10.766-9.874,16.673-15.914,32.633-3.052,8.07-12.7,35.795-8.739,53.529,3.3,14.771,21.394,22.868,35.572,20.879,26.21-3.657,71.089-50.833,74.861-54.843-.46-1.3-2.474-6.334-7.983-12.834-7.547-8.905-12.217-11.574-13.345-12.135-3.965,2.465-48.314,30.367-63.67,53.815,15.117-25.344,62.821-54.751,63.3-55.047.754.033,5.705,2.008,14.659,12.562,6.576,7.768,8.269,13.384,8.337,13.623-2.1,2.7-48.318,52.229-75.987,56.087A32.124,32.124,0,0,1,2957.645,309.526Z" transform="translate(-2924.211 -176.413)" fill="#1a1a1a"/>
    </g>
    <g id="Grupo_840" data-name="Grupo 840" transform="translate(147.292 3157.467)">
      <g id="Grupo_838" data-name="Grupo 838">
        <g id="Grupo_837" data-name="Grupo 837">
          <path id="Trazado_817" data-name="Trazado 817" d="M2960.819,174.734a7.012,7.012,0,0,1-6.849-5.374,4.344,4.344,0,0,1,.308-3.692,2.374,2.374,0,0,1,2.22-1,3.494,3.494,0,0,1,2.626,2.122c.71,1.516.886,1.586,1.276,1.736.4.166.573.229,2.125-.4a3.491,3.491,0,0,1,3.365.234,2.414,2.414,0,0,1,.941,2.25,4.553,4.553,0,0,1-2.34,3.083A6.969,6.969,0,0,1,2960.819,174.734Zm-4.588-8.845a2.536,2.536,0,0,0-1.066,3.143,5.972,5.972,0,0,0,3.453,4.038,5.8,5.8,0,0,0,5.223-.438,3.451,3.451,0,0,0,1.758-2.144,1.187,1.187,0,0,0-.446-1.137,2.286,2.286,0,0,0-2.163-.082c-1.831.737-2.288.707-3.039.411s-1.107-.574-1.951-2.373a2.307,2.307,0,0,0-1.64-1.412A1,1,0,0,0,2956.231,165.889Z" transform="translate(-2953.721 -164.643)" fill="#1a1a1a"/>
        </g>
      </g>
      <g id="Grupo_839" data-name="Grupo 839" transform="translate(0.505 2.946)">
        <path id="Trazado_818" data-name="Trazado 818" d="M2958.9,172.667c.561-5.352-4.766-6.794-4.993-6.851a4.963,4.963,0,0,1,5.594,6.386A.62.62,0,0,1,2958.9,172.667Z" transform="translate(-2953.907 -165.726)" fill="#1a1a1a"/>
      </g>
    </g>
    <g id="Grupo_841" data-name="Grupo 841" transform="translate(107.559 3226.835)">
      <path id="Trazado_819" data-name="Trazado 819" d="M2939.118,242.963c10.908-23.328,13.724-52.533,13.754-52.824,1.205.411-1.635,29.85-13.2,52.49A.616.616,0,0,1,2939.118,242.963Z" transform="translate(-2939.118 -190.139)" fill="#1a1a1a"/>
    </g>
    <g id="Grupo_842" data-name="Grupo 842" transform="translate(142.84 3155.82)">
      <path id="Trazado_820" data-name="Trazado 820" d="M2962.367,181.606c-1.3,0-2.716-.063-4.245-.182a25.551,25.551,0,0,1-6.038-1.148c2.109-.609,3.989-.256,6.136-.087,6.987.547,11.37-.155,13.791-2.234a7.66,7.66,0,0,0,2.44-5.564c.123-1.662.237-5.254.264-8.353a20.551,20.551,0,0,1,.974,8.443,8.832,8.832,0,0,1-2.873,6.416C2970.693,180.725,2967.322,181.606,2962.367,181.606Z" transform="translate(-2952.085 -164.038)" fill="#1a1a1a"/>
    </g>
    <g id="Grupo_843" data-name="Grupo 843" transform="translate(164.683 3135.32)">
      <path id="Trazado_821" data-name="Trazado 821" d="M2960.813,158.785a4.359,4.359,0,0,1-.7-2.28c1.235-.06,1.317,1.635,1.317,1.635A7.988,7.988,0,0,1,2960.813,158.785Z" transform="translate(-2960.113 -156.503)" fill="#1a1a1a"/>
    </g>
    <g id="Grupo_844" data-name="Grupo 844" transform="translate(133.029 3158.796)">
      <path id="Trazado_822" data-name="Trazado 822" d="M2949.1,189.062c-.621-.618-.621-23.929-.621-23.929,1.24,0,1.24,23.312,1.24,23.312A.618.618,0,0,1,2949.1,189.062Z" transform="translate(-2948.479 -165.132)" fill="#1a1a1a"/>
    </g>
    <g id="Grupo_845" data-name="Grupo 845" transform="translate(122.781 3143.74)">
      <path id="Trazado_823" data-name="Trazado 823" d="M2952.813,175.822a8.11,8.11,0,0,1-.972-16.162,7.982,7.982,0,0,1,5.97,1.676,8.1,8.1,0,0,1,2.508,3.328,11.511,11.511,0,0,1-3.273-2.356,6.7,6.7,0,0,0-5.056-1.412,6.776,6.776,0,0,0-4.575,2.574,6.863,6.863,0,0,0,9.686,9.6C2956.391,175.221,2954.606,175.822,2952.813,175.822Z" transform="translate(-2944.713 -159.598)" fill="#1a1a1a"/>
    </g>
    <g id="Grupo_846" data-name="Grupo 846" transform="translate(156.937 3172.537)">
      <path id="Trazado_824" data-name="Trazado 824" d="M2959.02,180.575c-.614-.547-1.754-10.391-1.754-10.391,1.235-.141,2.37,9.7,2.37,9.7C2959.067,180.575,2959.043,180.575,2959.02,180.575Z" transform="translate(-2957.266 -170.182)" fill="#1a1a1a"/>
    </g>
    <g id="Grupo_847" data-name="Grupo 847" transform="translate(136.321 3129.604)">
      <path id="Trazado_825" data-name="Trazado 825" d="M2949.689,172.135c8.132-7.1,8.336-17.625,8.336-17.732,1.385-.016,7.948,8.315,20.488,5.085-10.189,3.9-16.928-1.254-19.35-3.613-.356,3.243-1.961,11.112-9.114,16.151A.636.636,0,0,1,2949.689,172.135Z" transform="translate(-2949.689 -154.403)" fill="#1a1a1a"/>
    </g>
    <g id="Grupo_848" data-name="Grupo 848" transform="translate(128.506 3147.843)">
      <path id="Trazado_826" data-name="Trazado 826" d="M2946.9,169.671c-.287-1.167,4.7-3.779,4.7-3.779l-4.792-4.685c.868-.884,6.27,4.4,6.27,4.4-.147.988-5.894,3.994-5.894,3.994A.646.646,0,0,1,2946.9,169.671Z" transform="translate(-2946.817 -161.106)" fill="#1a1a1a"/>
    </g>
    <g id="Grupo_849" data-name="Grupo 849" transform="translate(139.107 3122.416)">
      <path id="Trazado_827" data-name="Trazado 827" d="M2954.313,155.8a46.718,46.718,0,0,1-3.6-3.932c.952-.794,4.073,2.917,4.073,2.917C2954.6,155.755,2954.454,155.8,2954.313,155.8Z" transform="translate(-2950.713 -151.761)" fill="#1a1a1a"/>
    </g>
    <g id="Grupo_850" data-name="Grupo 850" transform="translate(123.695 3118.07)">
      <path id="Trazado_828" data-name="Trazado 828" d="M2946.758,178.415c-.729-.86-3.894-11.074.849-18.257,2.468-3.733,6.614-5.926,12.333-6.514,1.189-.96,8.6-6.323,20.1-1.491,9.7,4.065,9.738,13.152,8.9,18.208-.272-5.937-.911-13.512-9.379-17.07-11.549-4.848-18.656,1.159-18.956,1.417-5.773.667-9.678,2.683-11.958,6.133-4.422,6.693-1.325,16.668-1.295,16.768C2946.883,178.4,2946.818,178.415,2946.758,178.415Z" transform="translate(-2945.049 -150.163)" fill="#1a1a1a"/>
    </g>
    <g id="Grupo_851" data-name="Grupo 851" transform="translate(129.389 3159.585)">
      <path id="Trazado_829" data-name="Trazado 829" d="M2951.407,170.064a17.808,17.808,0,0,1-4.266-4.544c1.069-.634,2.712,1.959,4.641,3.431C2951.78,169.979,2951.593,170.064,2951.407,170.064Z" transform="translate(-2947.141 -165.422)" fill="#1a1a1a"/>
    </g>
    <g id="Grupo_852" data-name="Grupo 852" transform="translate(157.29 3143.698)">
      <path id="Trazado_830" data-name="Trazado 830" d="M2959.568,174.539c.911-1.608,1.366-1.771,1.773-2a2.1,2.1,0,0,0,1.094-1.265,1.56,1.56,0,0,0-.256-1.162,2.707,2.707,0,0,0-1.848-1.086c-.139-.019-1.167-.1-1.409-.106-.692-.574-1.527-9.226-1.527-9.226l1.233-.112.78,8.1c2.3.324,3.249.9,3.8,1.752a2.787,2.787,0,0,1,.433,2.1,3.254,3.254,0,0,1-1.693,2.081,9.707,9.707,0,0,1-1.54.653A3.041,3.041,0,0,1,2959.568,174.539Z" transform="translate(-2957.396 -159.583)" fill="#1a1a1a"/>
    </g>
    <g id="Grupo_853" data-name="Grupo 853" transform="translate(424.884 3155.85)">
      <path id="Trazado_831" data-name="Trazado 831" d="M3061.039,166.685a4.448,4.448,0,0,0-5.292-1.045c.582-1.774,3.463-2.443,5.746,0C3061.341,166.633,3061.194,166.685,3061.039,166.685Z" transform="translate(-3055.747 -164.049)" fill="#1a1a1a"/>
    </g>
    <path id="Trazado_832" data-name="Trazado 832" d="M3056.787,166.133c-.5-.082-.827.131-.977,1.913-.164,1.986.351,2.34.794,2.324s.9-.626.879-2.046S3057.434,166.239,3056.787,166.133Z" transform="translate(-2630.809 2995.362)" fill="#1a1a1a"/>
    <g id="Grupo_854" data-name="Grupo 854" transform="translate(439.933 3162.989)">
      <path id="Trazado_833" data-name="Trazado 833" d="M3066.472,181.414a7.349,7.349,0,0,1-4.231-1.336,18.793,18.793,0,0,1,4.209.1,6.133,6.133,0,1,0-5.172-9.395c.316-2.822,2.647-4.108,5.2-4.108a7.371,7.371,0,1,1,0,14.741Z" transform="translate(-3061.278 -166.673)" fill="#1a1a1a"/>
    </g>
    <g id="Grupo_855" data-name="Grupo 855" transform="translate(441.821 3166.382)">
      <path id="Trazado_834" data-name="Trazado 834" d="M3066.959,175.574c-.34-.1-4.988-3.17-4.988-3.17-.03-1.018,4.645-4.484,4.645-4.484.737,1-3.224,3.937-3.224,3.937l3.912,2.585C3067.356,175.478,3067.163,175.574,3066.959,175.574Z" transform="translate(-3061.972 -167.92)" fill="#1a1a1a"/>
    </g>
    <g id="Grupo_856" data-name="Grupo 856" transform="translate(430.062 3197.094)">
      <path id="Trazado_835" data-name="Trazado 835" d="M3058.132,182.476c-.617-.656-.465-3.268-.465-3.268,1.241.068,1.083,2.685,1.083,2.685A.613.613,0,0,1,3058.132,182.476Z" transform="translate(-3057.65 -179.208)" fill="#1a1a1a"/>
    </g>
    <g id="Grupo_857" data-name="Grupo 857" transform="translate(401.911 3287.798)">
      <path id="Trazado_836" data-name="Trazado 836" d="M3047.471,268.264c-.773-12.551,1.375-55.292,1.4-55.719,1.214.49-.93,43.19-.778,55.091C3047.476,268.264,3047.473,268.264,3047.471,268.264Z" transform="translate(-3047.303 -212.545)" fill="#1a1a1a"/>
    </g>
    <g id="Grupo_860" data-name="Grupo 860" transform="translate(199.843 3047.129)">
      <g id="Grupo_858" data-name="Grupo 858" transform="translate(0.62 0.62)">
        <path id="Trazado_837" data-name="Trazado 837" d="M3026.595,178.263h-53.331c0-1.235,52.71-1.235,52.71-1.235v-52.71c1.241,0,1.241,53.328,1.241,53.328A.62.62,0,0,1,3026.595,178.263Z" transform="translate(-2973.264 -124.318)" fill="#1a1a1a"/>
      </g>
      <g id="Grupo_859" data-name="Grupo 859">
        <path id="Trazado_838" data-name="Trazado 838" d="M3026.987,231.989a53.953,53.953,0,1,1,36.38-14.11c10.075-10.886,16.331-25.072,16.331-39.841a52.658,52.658,0,1,0-43.623,51.932C3033.245,231.72,3030.116,231.989,3026.987,231.989Z" transform="translate(-2973.036 -124.09)" fill="#1a1a1a"/>
      </g>
    </g>
    <g id="Grupo_861" data-name="Grupo 861" transform="translate(163.643 3190.383)">
      <path id="Trazado_839" data-name="Trazado 839" d="M2971.923,181.711a31.662,31.662,0,0,0-12.192-4.848c4.4-.577,8.206.941,12.524,3.708C2972.326,181.608,2972.124,181.711,2971.923,181.711Z" transform="translate(-2959.731 -176.741)" fill="#1a1a1a"/>
    </g>
    <g id="Grupo_862" data-name="Grupo 862" transform="translate(196.216 3311.194)">
      <path id="Trazado_840" data-name="Trazado 840" d="M2977.381,253.6c-3.14-8.04-4.857-18.82-5.679-32.457,2.055,13.457,3.747,24.123,6.267,31.638C2977.515,253.59,2977.447,253.6,2977.381,253.6Z" transform="translate(-2971.703 -221.144)" fill="#1a1a1a"/>
    </g>
    <g id="Grupo_863" data-name="Grupo 863" transform="translate(94.307 3321.552)">
      <path id="Trazado_841" data-name="Trazado 841" d="M2935.071,247.049a132.133,132.133,0,0,1-.618-22.1c1.227.2.5,11.057,1.235,21.434C2935.1,247.049,2935.082,247.049,2935.071,247.049Z" transform="translate(-2934.247 -224.951)" fill="#1a1a1a"/>
    </g>
    <g id="Grupo_864" data-name="Grupo 864" transform="translate(158.443 3136.526)">
      <path id="Trazado_842" data-name="Trazado 842" d="M2963.822,177.329a3.731,3.731,0,0,1-1.752-.381c.914-.922,1.3-.862,1.82-.854,2.514-.052,4.56-4.2,4.462-9.047s-2.321-8.889-4.824-8.862c-1.172.022-2.282.928-3.131,2.549a13.7,13.7,0,0,0-1.333,6.5,11.883,11.883,0,0,0,1.129,5.3c-1.9-.925-2.32-2.895-2.369-5.276a15,15,0,0,1,1.477-7.1c1.067-2.035,2.56-3.175,4.2-3.208,3.341,0,5.978,4.4,6.091,10.072.115,5.711-2.381,10.241-5.678,10.309Z" transform="translate(-2957.82 -156.947)" fill="#1a1a1a"/>
    </g>
    <g id="Grupo_865" data-name="Grupo 865" transform="translate(143.43 3136.233)">
      <path id="Trazado_843" data-name="Trazado 843" d="M2958.323,177.215c-3.265,0-5.9-4.4-6.018-10.072a14.994,14.994,0,0,1,1.477-7.1c1.067-2.035,2.561-3.175,4.2-3.205a4.256,4.256,0,0,1,3,1.3c1.834,1.758,3.021,5.118,3.094,8.769a14.945,14.945,0,0,1-1.478,7.1c-1.066,2.035-2.56,3.175-4.2,3.205Zm-.261-19.141c-1.221.025-2.332.928-3.18,2.544a13.682,13.682,0,0,0-1.333,6.5c.093,4.824,2.278,8.862,4.779,8.862,1.216-.024,2.326-.928,3.175-2.549a13.669,13.669,0,0,0,1.333-6.5c-.069-3.336-1.1-6.364-2.712-7.9A2.988,2.988,0,0,0,2958.062,158.074Z" transform="translate(-2952.302 -156.839)" fill="#1a1a1a"/>
    </g>
    <g id="Grupo_866" data-name="Grupo 866" transform="translate(631.249 3254.354)">
      <path id="Trazado_844" data-name="Trazado 844" d="M3161.825,231.033c-7.9-13.2-25.124-27.355-30.231-30.78,5.858,2.44,23.3,16.776,30.769,29.853C3162.031,231.006,3161.928,231.033,3161.825,231.033Z" transform="translate(-3131.594 -200.253)" fill="#1a1a1a"/>
    </g>
    <g id="Grupo_867" data-name="Grupo 867" transform="translate(528.416 3272.39)">
      <path id="Trazado_845" data-name="Trazado 845" d="M3127.9,245.893a24.865,24.865,0,0,1-5.208-.563c-13.163-2.843-23.992-21.358-28.889-38.448,5.983,16.393,16.488,34.505,29.151,37.237a23.6,23.6,0,0,0,6.22.5C3128.794,245.879,3128.345,245.893,3127.9,245.893Z" transform="translate(-3093.799 -206.882)" fill="#1a1a1a"/>
    </g>
    <g id="Grupo_868" data-name="Grupo 868" transform="translate(604.966 3193.553)">
      <path id="Trazado_846" data-name="Trazado 846" d="M3173.245,297.2c-19.007,0-43.875-26.452-51.311-34.878,21.442,22.436,41.187,35.251,53.8,33.466,12.689-1.8,20.188-16.932,20.8-30.255.615-13.446-3.507-29.66-12.251-48.18-1.769-3.752-3.777-7.455-5.717-11.036-1.14-2.109-2.286-4.215-3.388-6.345q-.51-.988-1.011-1.983c-2.368-4.655-4.816-9.471-8.919-12.823-8.924-7.295-22.632-6.655-28.116-6.043,5.5-1.861,19.612-2.509,28.9,5.08,4.3,3.521,6.81,8.454,9.234,13.226.337.658.672,1.317,1.009,1.97,1.1,2.125,2.239,4.228,3.379,6.326,1.945,3.6,3.961,7.319,5.746,11.1,8.832,18.708,13,35.115,12.366,48.765-.631,13.822-8.511,29.534-21.864,31.431A19.119,19.119,0,0,1,3173.245,297.2Z" transform="translate(-3121.934 -177.907)" fill="#1a1a1a"/>
    </g>
    <g id="Grupo_869" data-name="Grupo 869" transform="translate(564.176 3193.53)">
      <path id="Trazado_847" data-name="Trazado 847" d="M3106.942,195.485c6.963-10.69,17.558-14.107,25.951-16,.281-.06,6.584-1.344,9.786-1.589-3.031,1.477-9.462,2.783-9.526,2.8-8.178,1.845-18.51,5.167-25.722,14.548A.618.618,0,0,1,3106.942,195.485Z" transform="translate(-3106.942 -177.898)" fill="#1a1a1a"/>
    </g>
    <g id="Grupo_870" data-name="Grupo 870" transform="translate(581.13 3155.099)">
      <path id="Trazado_848" data-name="Trazado 848" d="M3127.492,195.465a9.286,9.286,0,0,1-1.338-.09c-2.718-.365-4.795-1.959-6.348-4.881a31.141,31.141,0,0,1-2.92-8.6c-.291-1.431-.661-3.336-1.059-5.376-.954-4.878-2.138-10.946-2.655-12.742,1.721,1.507,2.862,7.346,3.869,12.5.4,2.041.77,3.934,1.061,5.365a29.918,29.918,0,0,0,2.8,8.271c1.353,2.541,3.123,3.926,5.414,4.239a13.167,13.167,0,0,0,4.988-.5c1.992-.528,4.881-1.4,6.838-2.163-1.69,1.989-4.642,2.865-6.522,3.363A16.535,16.535,0,0,1,3127.492,195.465Z" transform="translate(-3113.173 -163.773)" fill="#1a1a1a"/>
    </g>
    <g id="Grupo_871" data-name="Grupo 871" transform="translate(609.641 3156.848)">
      <path id="Trazado_849" data-name="Trazado 849" d="M3127.954,178.578a7.015,7.015,0,0,1-2.133-.332,9.174,9.174,0,0,1,3.5-1.069,5.842,5.842,0,1,0-5.664-9.629c.041-1.877,1.279-2.6,2.653-2.933a7.077,7.077,0,1,1,3.3,13.765A6.916,6.916,0,0,1,3127.954,178.578Z" transform="translate(-3123.652 -164.416)" fill="#1a1a1a"/>
    </g>
    <g id="Grupo_872" data-name="Grupo 872" transform="translate(610.738 3159.583)">
      <path id="Trazado_850" data-name="Trazado 850" d="M3129.222,173.374c-.29-.073-5.163-2.642-5.163-2.642-.157-.977,3.976-5.311,3.976-5.311.895.857-2.669,4.6-2.669,4.6l4.146,2.185C3129.662,173.251,3129.441,173.374,3129.222,173.374Z" transform="translate(-3124.055 -165.421)" fill="#1a1a1a"/>
    </g>
    <g id="Grupo_873" data-name="Grupo 873" transform="translate(631.53 3225.392)">
      <path id="Trazado_851" data-name="Trazado 851" d="M3138.958,224.012a110.343,110.343,0,0,0-7.261-34.4c1.208-.318,7.884,15.8,7.884,33.782A.622.622,0,0,1,3138.958,224.012Z" transform="translate(-3131.697 -189.608)" fill="#1a1a1a"/>
    </g>
    <g id="Grupo_874" data-name="Grupo 874" transform="translate(596.309 3171.894)">
      <path id="Trazado_852" data-name="Trazado 852" d="M3118.752,175.366c.767-1.14,1.864-1.426,2.6-2.141a4.674,4.674,0,0,0,1.1-3.279c1.24.014,1.417,2.544-.223,4.157A4.744,4.744,0,0,1,3118.752,175.366Z" transform="translate(-3118.752 -169.946)" fill="#1a1a1a"/>
    </g>
    <g id="Grupo_875" data-name="Grupo 875" transform="translate(559.131 3296.412)">
      <path id="Trazado_853" data-name="Trazado 853" d="M3105.088,261.84c4.966-12.921,4.626-45.8,4.62-46.129,1.257,1.344,1.586,33.474-4.057,45.772A.615.615,0,0,1,3105.088,261.84Z" transform="translate(-3105.088 -215.711)" fill="#1a1a1a"/>
    </g>
    <g id="Grupo_876" data-name="Grupo 876" transform="translate(518.663 3234.783)">
      <path id="Trazado_854" data-name="Trazado 854" d="M3108.895,232.2c-6.456,0-11.6-1.54-13.732-4.266a21.258,21.258,0,0,1-3.629-8.078,44.477,44.477,0,0,1-1.029-15.805c.678-5.8,7.039-10.788,7.308-10.995.7,1.031-5.464,5.861-6.076,11.139a43.79,43.79,0,0,0,1,15.362,20.038,20.038,0,0,0,3.4,7.618c1.981,2.53,8.255,4.585,17.794,3.488,2.857-.332,8.024-2.509,7.613-6.277a3.332,3.332,0,0,0-1.765-2.593c1.937-.359,2.832.966,3,2.46.487,4.47-4.906,7.2-8.707,7.637A45.214,45.214,0,0,1,3108.895,232.2Z" transform="translate(-3090.214 -193.06)" fill="#1a1a1a"/>
    </g>
    <g id="Grupo_877" data-name="Grupo 877" transform="translate(525.434 3242.336)">
      <path id="Trazado_855" data-name="Trazado 855" d="M3109.4,209.015c-4.26,0-13.342-.982-14.518-1.437,1.483-.756,13.3.525,15.955.128,1.608-.212,3.349-.441,3.957-1.412a4.982,4.982,0,0,0,.579-4.3,5.369,5.369,0,0,0-2.659-2.813,6.72,6.72,0,0,0-3.64-.438c-13.792.367-16.14-2.471-16.366-2.8,1.07-.648,3.4,1.9,15.335,1.6,2.383-.136,3.858-.22,5.262.539a6.546,6.546,0,0,1,3.232,3.491,6.177,6.177,0,0,1-.693,5.374c-.911,1.469-3,1.744-4.389,1.926A13.565,13.565,0,0,1,3109.4,209.015Z" transform="translate(-3092.703 -195.836)" fill="#1a1a1a"/>
    </g>
    <g id="Grupo_878" data-name="Grupo 878" transform="translate(527.372 3254.441)">
      <path id="Trazado_856" data-name="Trazado 856" d="M3105.93,210.893a103.57,103.57,0,0,1-12.515-.884c.271-1.211,10.083.171,17.206-.571,2.566-.261,5.205-1.932,4.938-4.99a6.129,6.129,0,0,0-2.672-4.163,4.245,4.245,0,0,1,3.9,4.054c.346,3.893-2.892,6.016-6.046,6.337C3109.223,210.831,3107.577,210.893,3105.93,210.893Z" transform="translate(-3093.415 -200.285)" fill="#1a1a1a"/>
    </g>
    <g id="Grupo_879" data-name="Grupo 879" transform="translate(597.498 3170.699)">
      <path id="Trazado_857" data-name="Trazado 857" d="M3124.588,210.937c-4.716-1.472-3.434-13.237-3.094-15.879l-2.3-10.075c1.208-.272,3.537,9.9,3.537,9.9-.718,5.8-.775,13.99,1.385,14.739,3.213,1.154,12.254-8.867,17.31-15.6l-6.29-24.52c1.2-.31,7.563,24.5,7.563,24.5C3141.28,196.293,3130.187,210.937,3124.588,210.937Z" transform="translate(-3119.189 -169.507)" fill="#1a1a1a"/>
    </g>
    <g id="Grupo_886" data-name="Grupo 886" transform="translate(126.757 3181.711)">
      <g id="Grupo_880" data-name="Grupo 880" transform="translate(0 0)">
        <path id="Trazado_858" data-name="Trazado 858" d="M2961.383,214.1c-.563-.362-15.209-32.31-15.209-32.31.087-.653,6.418-8.239,6.418-8.239.92-.033,19.895,19.6,19.895,19.6l5.022-19.163c1.113-.19,6.1,7.191,6.1,7.191.109.351.109,27.483.109,27.483-1.124.362-10.861-13.158-10.861-13.158L2961.914,213.8A.623.623,0,0,1,2961.383,214.1Zm-13.919-32.47,13.993,30.522,10.576-17.683L2953.1,174.879Zm26.019,12.627,8.993,12.486V181.727l-4.117-6.095Z" transform="translate(-2946.174 -173.554)" fill="#1a1a1a"/>
      </g>
      <g id="Grupo_881" data-name="Grupo 881" transform="translate(16.896 36.376)">
        <path id="Trazado_859" data-name="Trazado 859" d="M2962.076,213.12c-4.514-13.229-9.643-26.063-9.691-26.19,1.2-.332,6.348,12.548,10.284,25.393C2962.2,213.112,2962.132,213.12,2962.076,213.12Z" transform="translate(-2952.384 -186.924)" fill="#1a1a1a"/>
      </g>
      <g id="Grupo_882" data-name="Grupo 882" transform="translate(35.444 34.02)">
        <path id="Trazado_860" data-name="Trazado 860" d="M2961.859,207.126c-1.529-14.866-2.647-21.007-2.658-21.064,1.23-.169,2.36,6.027,3.277,20.4C2961.887,207.126,2961.873,207.126,2961.859,207.126Z" transform="translate(-2959.201 -186.058)" fill="#1a1a1a"/>
      </g>
      <g id="Grupo_883" data-name="Grupo 883" transform="translate(19.383 30.057)">
        <path id="Trazado_861" data-name="Trazado 861" d="M2959.438,195.092c-.506-.256-6.14-8.073-6.14-8.073,1-.721,6.435,6.8,6.435,6.8l6.185-.588.7-8.636c1.238.1.5,9.256.5,9.256-.561.569-7.618,1.235-7.618,1.235Z" transform="translate(-2953.298 -184.601)" fill="#1a1a1a"/>
      </g>
      <g id="Grupo_884" data-name="Grupo 884" transform="translate(24.18 39.882)">
        <path id="Trazado_862" data-name="Trazado 862" d="M2955.243,204.061c-.618-.667.541-15.849.541-15.849,1.239.1.08,15.28.08,15.28A.622.622,0,0,1,2955.243,204.061Z" transform="translate(-2955.061 -188.212)" fill="#1a1a1a"/>
      </g>
      <g id="Grupo_885" data-name="Grupo 885" transform="translate(32.021 39.519)">
        <path id="Trazado_863" data-name="Trazado 863" d="M2963.529,198.535c-.553-.34-5.586-10.434-5.586-10.434,1.11-.558,6.143,9.536,6.143,9.536C2963.719,198.516,2963.624,198.535,2963.529,198.535Z" transform="translate(-2957.943 -188.079)" fill="#1a1a1a"/>
      </g>
    </g>
    <g id="Grupo_887" data-name="Grupo 887" transform="translate(73.31 3342.413)">
      <path id="Trazado_864" data-name="Trazado 864" d="M3534.5,233.856H2926.53c0-1.238,607.97-1.238,607.97-1.238C3535.12,233.576,3534.843,233.856,3534.5,233.856Z" transform="translate(-2926.53 -232.618)" fill="#1a1a1a"/>
    </g>
    <path id="Trazado_865" data-name="Trazado 865" d="M3115.155,165.828c.468-.18.838-.038,1.341,1.679.566,1.913.133,2.359-.308,2.435s-1-.435-1.273-1.828S3114.543,166.062,3115.155,165.828Z" transform="translate(-2529.413 2994.761)" fill="#1a1a1a"/>
    <path id="Trazado_866" data-name="Trazado 866" d="M3120.27,164.6c.474-.163.841-.016,1.3,1.714.511,1.926.065,2.362-.375,2.424s-.993-.46-1.225-1.861S3119.652,164.817,3120.27,164.6Z" transform="translate(-2520.647 2992.66)" fill="#1a1a1a"/>
    <g id="Grupo_888" data-name="Grupo 888" transform="translate(665.45 3309.964)">
      <path id="Trazado_867" data-name="Trazado 867" d="M3144.785,254.212c-.207-9.164-.615-33.275-.621-33.52,1.244.226,1.654,24.378,1.241,32.935A.62.62,0,0,1,3144.785,254.212Z" transform="translate(-3144.164 -220.692)" fill="#1a1a1a"/>
    </g>
    <g id="Grupo_889" data-name="Grupo 889" transform="translate(328.897 3193.784)">
      <path id="Trazado_868" data-name="Trazado 868" d="M3076.93,275.994c-10.877,0-21.8-3.488-30.288-12.143-9.9-10.1-14.774-24.036-18.24-36.339-3.774-13.381-5.61-24.226-7.934-37.955.155-1.2,4.522-10,19.826-11.376,13.767-1.233,18.377,3.959,18.564,4.179.118.207,13.259,40.363,13.259,40.363,1.04,3.219,2.022,6.269,4.949,7.939a7.954,7.954,0,0,0,9.1-.979c2.577-2.152,4.024-5.3,5.4-8.611.675-1.622,1.33-3.262,1.992-4.9a148.872,148.872,0,0,1,7.106-15.868c3.959-7.265,8.843-12.219,14.513-14.725a30.952,30.952,0,0,1,11.438-2.443c-3.872,1.464-7.254,1.948-10.94,3.575-5.414,2.392-10.1,7.164-13.924,14.184a148.092,148.092,0,0,0-7.042,15.74c-.664,1.643-1.32,3.287-2,4.919-1.377,3.314-2.958,6.75-5.75,9.085a9.183,9.183,0,0,1-10.505,1.1c-3.346-1.915-4.446-5.333-5.512-8.636l-4.566-13.974-8.532-26.041c-.626-.623-5.284-4.78-17.437-3.67-13.427,1.205-18.08,8.494-18.752,9.681,2.359,13.941,4.187,24.759,7.942,38.078,3.426,12.151,8.233,25.908,17.933,35.809,15.1,15.4,38.232,13.928,54.454,5.632C3095,273.577,3085.979,275.994,3076.93,275.994Z" transform="translate(-3020.468 -177.992)" fill="#1a1a1a"/>
    </g>
    <g id="Grupo_890" data-name="Grupo 890" transform="translate(462.499 3201.111)">
      <path id="Trazado_869" data-name="Trazado 869" d="M3095.71,323.224c-.647-.876-3.749-32.593-2.2-55.858,1.546-23.176.017-54.577,0-54.89-.237-4.791-2.691-10.595-5.305-16.156a30.833,30.833,0,0,0-7.281-10.279,23.5,23.5,0,0,0-11.348-5.349,16.607,16.607,0,0,1,12.164,4.421,31.879,31.879,0,0,1,7.586,10.676c2.671,5.676,5.175,11.623,5.422,16.621.017.316,1.552,31.784,0,55.034-1.542,23.168,1.552,54.781,1.581,55.1C3095.749,323.224,3095.73,323.224,3095.71,323.224Z" transform="translate(-3069.572 -180.684)" fill="#1a1a1a"/>
    </g>
    <g id="Grupo_891" data-name="Grupo 891" transform="translate(380.859 3236.881)">
      <path id="Trazado_870" data-name="Trazado 870" d="M3044.744,248.786c-1.681,0-3.4-.071-5.178-.218,49.666,2.96,61.5-54.163,61.617-54.737C3102.286,194.636,3091.065,248.786,3044.744,248.786Z" transform="translate(-3039.566 -193.831)" fill="#1a1a1a"/>
    </g>
    <g id="Grupo_892" data-name="Grupo 892" transform="translate(475.491 3208.089)">
      <path id="Trazado_871" data-name="Trazado 871" d="M3095.51,276.162a19.845,19.845,0,0,1-10.355-3.3c1.17-.691,11.75,6.767,20.2-2.558,11.561-12.78-10.82-62.557-31-87.052,21.886,24.607,44.085,74.439,31.923,87.882A14.1,14.1,0,0,1,3095.51,276.162Z" transform="translate(-3074.347 -183.249)" fill="#1a1a1a"/>
    </g>
    <g id="Grupo_893" data-name="Grupo 893" transform="translate(412.635 3143.652)">
      <path id="Trazado_872" data-name="Trazado 872" d="M3065.649,205.107c-3.738-.343-6.506-1.73-8.282-4.133-2.811-3.79-2.253-8.862-2.035-10.241-.982-.936-4.114-4.087-4.087-6.165.027-2.291,4.75-3.333,6.818-3.676l1.491-11.063c.155-.482,3.164-9.079,8.293-10.263.764.773,1.393,19.193,11.623,20.958-10.249-.512-11.825-15.74-12.064-19.516-4.046,1.673-6.625,9.03-6.652,9.109l-1.524,11.395c-3.517.977-6.734,2.1-6.744,3.072-.019,1.336,2.4,4.065,3.934,5.474.177.637-.936,6.3,1.943,10.187,1.562,2.1,4.032,3.322,7.341,3.627C3066.233,204.87,3065.964,205.107,3065.649,205.107Z" transform="translate(-3051.245 -159.566)" fill="#1a1a1a"/>
    </g>
    <g id="Grupo_894" data-name="Grupo 894" transform="translate(419.353 3136.773)">
      <path id="Trazado_873" data-name="Trazado 873" d="M3085.414,223.171a54.649,54.649,0,0,1-13.542-1.9,18.021,18.021,0,0,1-7.48-3.562,9.172,9.172,0,0,1-3.411-7.61c.407-4.419,4.508-7.618,7.893-9.017.607-.248,1.309-.454,2.049-.675,2.859-.843,4.894-1.605,4.982-3.749,1.107,3.243-2.077,4.185-4.629,4.936a19.517,19.517,0,0,0-1.928.637c-3.067,1.265-6.775,4.117-7.137,7.983a8.066,8.066,0,0,0,2.993,6.56,16.88,16.88,0,0,0,6.984,3.295c7.071,1.858,17.179,3.27,25.137-.533a11.761,11.761,0,0,0,5.066-4.166c2.909-4.625-.7-8.677-4.157-11.689-1.349-1.124-2.827-2.343-2.667-3.877.395-3.755,1.948-10.121,4.615-18.937.971-6.1.021-10.57-2.642-13.9-4.207-5.251-11.354-5.874-11.425-5.88a25.61,25.61,0,0,0-6.211-1.709c-15.669-2.669-22.12-.629-24.656,7.8-1.037,3.45.86,9.716.876,9.776-1.265.093-3.208-6.329-2.063-10.13,3.124-10.38,12.285-11.011,26.05-8.666a25.3,25.3,0,0,1,6.208,1.7c.985.1,7.872.95,12.181,6.326,2.892,3.605,3.928,8.4,3.09,14.26-3.515,11.661-4.525,16.959-4.791,19.489-.092.868,1.078,1.834,1.85,2.476,3.931,3.409,8.236,8.135,4.791,13.618a12.972,12.972,0,0,1-5.581,4.625A28.922,28.922,0,0,1,3085.414,223.171Z" transform="translate(-3053.714 -157.038)" fill="#1a1a1a"/>
    </g>
    <g id="Grupo_895" data-name="Grupo 895" transform="translate(291.823 3166.912)">
      <path id="Trazado_874" data-name="Trazado 874" d="M3006.847,194.8c-.435-1.053,25.192-26.68,25.192-26.68.874.873-24.751,26.5-24.751,26.5A.615.615,0,0,1,3006.847,194.8Z" transform="translate(-3006.842 -168.115)" fill="#1a1a1a"/>
    </g>
    <g id="Grupo_896" data-name="Grupo 896" transform="translate(275.482 3184.68)">
      <path id="Trazado_875" data-name="Trazado 875" d="M3009.943,183.558c-.436-.18-9.107-8.851-9.107-8.851.874-.876,9.547,7.8,9.547,7.8C3010.261,183.5,3010.1,183.558,3009.943,183.558Z" transform="translate(-3000.836 -174.645)" fill="#1a1a1a"/>
    </g>
    <g id="Grupo_897" data-name="Grupo 897" transform="translate(245.357 3183.77)">
      <path id="Trazado_876" data-name="Trazado 876" d="M2989.77,199.6c-.438-1.053,23.8-25.293,23.8-25.293.876.873-23.366,25.113-23.366,25.113A.607.607,0,0,1,2989.77,199.6Z" transform="translate(-2989.764 -174.311)" fill="#1a1a1a"/>
    </g>
    <g id="Grupo_898" data-name="Grupo 898" transform="translate(218.963 3190.51)">
      <path id="Trazado_877" data-name="Trazado 877" d="M2999.288,195.784c-.437-.182-19.225-18.967-19.225-18.967.876-.873,19.661,17.911,19.661,17.911C2999.607,195.725,2999.449,195.784,2999.288,195.784Z" transform="translate(-2980.063 -176.788)" fill="#1a1a1a"/>
    </g>
    <g id="Grupo_899" data-name="Grupo 899" transform="translate(267.491 3175.437)">
      <path id="Trazado_878" data-name="Trazado 878" d="M3003.227,181.905a5.329,5.329,0,1,1,5.327-5.327A5.334,5.334,0,0,1,3003.227,181.905Zm0-9.419a4.091,4.091,0,1,0,4.086,4.092A4.093,4.093,0,0,0,3003.227,172.486Z" transform="translate(-2997.899 -171.248)" fill="#1a1a1a"/>
    </g>
    <g id="Grupo_900" data-name="Grupo 900" transform="translate(283.106 3191.174)">
      <path id="Trazado_879" data-name="Trazado 879" d="M3008.968,187.681a5.325,5.325,0,1,1,5.327-5.322A5.332,5.332,0,0,1,3008.968,187.681Zm0-9.414a4.089,4.089,0,1,0,4.087,4.092A4.1,4.1,0,0,0,3008.968,178.267Z" transform="translate(-3003.638 -177.032)" fill="#1a1a1a"/>
    </g>
    <g id="Grupo_901" data-name="Grupo 901" transform="translate(236.373 3206.93)">
      <path id="Trazado_880" data-name="Trazado 880" d="M2991.792,193.472a5.325,5.325,0,1,1,5.325-5.319A5.33,5.33,0,0,1,2991.792,193.472Zm0-9.411a4.088,4.088,0,1,0,4.084,4.092A4.1,4.1,0,0,0,2991.792,184.061Z" transform="translate(-2986.462 -182.823)" fill="#1a1a1a"/>
    </g>
    <g id="Grupo_902" data-name="Grupo 902" transform="translate(210.708 3181.044)">
      <path id="Trazado_881" data-name="Trazado 881" d="M2982.356,183.964a5.327,5.327,0,1,1,5.33-5.33A5.333,5.333,0,0,1,2982.356,183.964Zm0-9.419a4.091,4.091,0,1,0,4.086,4.089A4.094,4.094,0,0,0,2982.356,174.544Z" transform="translate(-2977.029 -173.309)" fill="#1a1a1a"/>
    </g>
    <g id="Grupo_903" data-name="Grupo 903" transform="translate(519.155 3213.819)">
      <path id="Trazado_882" data-name="Trazado 882" d="M3175.013,268.266h-56.019c-.588-.416-8.291-22.874-8.291-22.874,1.173-.405,8.731,21.639,8.731,21.639h54.71l-27.586-80.441h-54.71l9.626,28.073c-1.17.405-11.079-28.49-11.079-28.49.585-.819,56.606-.819,56.606-.819.586.414,28.6,82.089,28.6,82.089C3175.4,268.168,3175.214,268.266,3175.013,268.266Z" transform="translate(-3090.395 -185.355)" fill="#1a1a1a"/>
    </g>
    <g id="Grupo_904" data-name="Grupo 904" transform="translate(522.749 3210.445)">
      <path id="Trazado_883" data-name="Trazado 883" d="M3176.333,267.026h-4.75c0-1.238,3.882-1.238,3.882-1.238l-27.584-80.435h-54.713l.64,1.866c-1.17.405-2.092-2.28-2.092-2.28.587-.824,56.606-.824,56.606-.824.585.416,28.6,82.089,28.6,82.089C3176.722,266.928,3176.534,267.026,3176.333,267.026Z" transform="translate(-3091.716 -184.115)" fill="#1a1a1a"/>
    </g>
    <g id="Grupo_905" data-name="Grupo 905" transform="translate(579.855 3141.114)">
      <path id="Trazado_884" data-name="Trazado 884" d="M3112.917,177.442c-.623-.911-.577-7.964,10.312-11.191,10.141-3.009,12.842-7.575,12.867-7.618,1.167.4,2.166,13.887,8.008,16.507-5.8-1.246-7.469-10.785-7.926-14.6-1.559,1.7-5.173,4.7-12.595,6.9-9.942,2.944-10.048,9.117-10.045,9.376C3112.92,177.442,3112.92,177.442,3112.917,177.442Z" transform="translate(-3112.705 -158.633)" fill="#1a1a1a"/>
    </g>
    <g id="Grupo_906" data-name="Grupo 906" transform="translate(567.416 3128.43)">
      <path id="Trazado_885" data-name="Trazado 885" d="M3157.388,206.964c3.709-1.913,12.146-5.014,14.355-9.082a3.71,3.71,0,0,0,.207-3.406c-.163-.389-.367-.762-.571-1.14a11.864,11.864,0,0,1-.715-1.464c-.884-2.313-.348-4.617.166-6.848a24.547,24.547,0,0,0,.539-2.794,22.986,22.986,0,0,0-1.512-11.074,18.822,18.822,0,0,0-13.6-11.645,23.508,23.508,0,0,0-6.459-.471c-2.571.435-2.908.446-3.2.128-3.431-3.583-9.714-4.944-14.959-3.208a14.214,14.214,0,0,0-7.79,6.016c-.522.892-.988,1.847-1.44,2.77-.495,1.018-1,2.068-1.6,3.064a20.4,20.4,0,0,1-5.97,5.9c-.587.433-1.186.879-1.8,1.358a8.39,8.39,0,0,0-2.329,3.306,20.058,20.058,0,0,0-1.069,10.551c1.417,9.966,8.725,16.8,17.87,16.8-9.477,1.581-17.563-5.814-19.1-16.624a21.27,21.27,0,0,1,1.159-11.221,9.55,9.55,0,0,1,2.7-3.787c.621-.484,1.23-.941,1.829-1.382,2.22-1.643,4.138-3.064,5.643-5.553.574-.941,1.069-1.964,1.551-2.955.462-.95.938-1.926,1.485-2.86a15.467,15.467,0,0,1,8.473-6.563c5.591-1.864,12.309-.433,16.088,3.371.378-.022,1.251-.171,1.654-.239a24.58,24.58,0,0,1,7.526.384A20.048,20.048,0,0,1,3171,170.7a24.211,24.211,0,0,1,1.594,11.667,25.547,25.547,0,0,1-.56,2.938c-.494,2.144-.966,4.166-.218,6.127a10.93,10.93,0,0,0,.647,1.317A13.389,13.389,0,0,1,3173.1,194a4.966,4.966,0,0,1-.261,4.476c-2.631,4.846-12.162,7.912-15.334,8.481A.533.533,0,0,1,3157.388,206.964Z" transform="translate(-3108.133 -153.971)" fill="#1a1a1a"/>
    </g>
    <g id="Grupo_907" data-name="Grupo 907" transform="translate(582.423 3155.684)">
      <path id="Trazado_886" data-name="Trazado 886" d="M3113.682,166.992c-.307-1.167,1.5-2.568,3.747-3-1.709,1.592-3.346,2.862-3.363,2.87A.622.622,0,0,1,3113.682,166.992Z" transform="translate(-3113.648 -163.988)" fill="#1a1a1a"/>
    </g>
    <g id="Grupo_908" data-name="Grupo 908" transform="translate(594.512 3152.202)">
      <path id="Trazado_887" data-name="Trazado 887" d="M3118.106,165.521c-.264-1.213,3.289-4.247,8.69-2.013a10.7,10.7,0,0,0-8.282,1.858A.593.593,0,0,1,3118.106,165.521Z" transform="translate(-3118.092 -162.708)" fill="#1a1a1a"/>
    </g>
    <g id="Grupo_909" data-name="Grupo 909" transform="translate(604.448 3252.737)">
      <path id="Trazado_888" data-name="Trazado 888" d="M3123.941,225.526a2.152,2.152,0,0,1-1.674-.634c-1.279-1.407-.212-4.255,3.159-8.475-2.3,4.857-2.8,7.025-2.242,7.643.4.446,1.989.367,5.134-1.333a61.478,61.478,0,0,0,18.284-16.57c2-2.96,2.234-4.533,1.829-4.979-.585-.642-2.06-.313-4.511,1.007,1.635-2.288,4.083-3.311,5.43-1.837,1.015,1.118.436,3.309-1.719,6.5a62.738,62.738,0,0,1-18.722,16.97A11.539,11.539,0,0,1,3123.941,225.526Z" transform="translate(-3121.744 -199.659)" fill="#1a1a1a"/>
    </g>
    <g id="Grupo_910" data-name="Grupo 910" transform="translate(587.968 3158.486)">
      <path id="Trazado_889" data-name="Trazado 889" d="M3119.69,179.528a4.408,4.408,0,0,1-3.556-1.382,2.263,2.263,0,0,1-.2-2.4c.708-1.578,1.24-8.282,1.388-10.731,1.18,1,.671,9.172-.259,11.24a1.055,1.055,0,0,0,.054,1.143c.528.7,2.022,1.039,3.545.811C3120.452,179.5,3120.065,179.528,3119.69,179.528Z" transform="translate(-3115.686 -165.018)" fill="#1a1a1a"/>
    </g>
    <g id="Grupo_911" data-name="Grupo 911" transform="translate(525.316 3204.041)">
      <path id="Trazado_890" data-name="Trazado 890" d="M3099.629,198.766a4.944,4.944,0,0,1-3.4-1.7,12.824,12.824,0,0,1-2.984-5.412c-1.353-4.7-.281-8.992,2.438-9.773,2.533-.716,5.512,1.921,6.99,6.138-2.408-3.124-4.827-5.463-6.645-4.946-1.986.569-2.713,4.342-1.589,8.239a11.528,11.528,0,0,0,2.672,4.884c1.061,1.075,2.163,1.515,3.05,1.254C3100.217,198.72,3099.928,198.766,3099.629,198.766Z" transform="translate(-3092.66 -181.761)" fill="#1a1a1a"/>
    </g>
    <g id="Grupo_912" data-name="Grupo 912" transform="translate(542.488 3204.041)">
      <path id="Trazado_891" data-name="Trazado 891" d="M3105.939,198.766a4.938,4.938,0,0,1-3.4-1.7,12.814,12.814,0,0,1-2.984-5.412c-1.35-4.7-.281-8.992,2.438-9.773,2.533-.716,5.511,1.921,6.989,6.138-2.4-3.124-4.824-5.463-6.644-4.946-1.984.569-2.713,4.342-1.589,8.239a11.523,11.523,0,0,0,2.672,4.884c1.061,1.075,2.166,1.515,3.05,1.254C3106.527,198.72,3106.239,198.766,3105.939,198.766Z" transform="translate(-3098.971 -181.761)" fill="#1a1a1a"/>
    </g>
    <g id="Grupo_913" data-name="Grupo 913" transform="translate(559.793 3204.041)">
      <path id="Trazado_892" data-name="Trazado 892" d="M3112.3,198.766a4.935,4.935,0,0,1-3.4-1.7,13.918,13.918,0,0,1-3.333-11.582c.432-1.929,1.423-3.211,2.786-3.6,2.544-.716,5.513,1.921,6.987,6.138-2.4-3.124-4.813-5.463-6.641-4.946-.912.258-1.589,1.213-1.921,2.685a12.726,12.726,0,0,0,3,10.437c1.059,1.072,2.158,1.513,3.05,1.254C3112.883,198.72,3112.6,198.766,3112.3,198.766Z" transform="translate(-3105.331 -181.761)" fill="#1a1a1a"/>
    </g>
    <g id="Grupo_916" data-name="Grupo 916" transform="translate(533.588 3227.23)">
      <path id="Trazado_895" data-name="Trazado 895" d="M3131.326,191.519H3095.7c0-1.235,35.626-1.235,35.626-1.235C3131.947,191.242,3131.666,191.519,3131.326,191.519Z" transform="translate(-3095.7 -190.284)" fill="#1a1a1a"/>
    </g>
    <g id="Grupo_917" data-name="Grupo 917" transform="translate(536.799 3236.739)">
      <path id="Trazado_896" data-name="Trazado 896" d="M3132.5,195.017H3096.88c0-1.238,35.624-1.238,35.624-1.238C3133.124,194.739,3132.847,195.017,3132.5,195.017Z" transform="translate(-3096.88 -193.779)" fill="#1a1a1a"/>
    </g>
    <g id="Grupo_918" data-name="Grupo 918" transform="translate(548.518 3254.495)">
      <path id="Trazado_897" data-name="Trazado 897" d="M3131.238,201.54h-30.051c0-1.235,30.051-1.235,30.051-1.235C3131.859,201.263,3131.584,201.54,3131.238,201.54Z" transform="translate(-3101.187 -200.305)" fill="#1a1a1a"/>
    </g>
    <g id="Grupo_919" data-name="Grupo 919" transform="translate(547.726 3246.061)">
      <path id="Trazado_898" data-name="Trazado 898" d="M3128.879,198.443H3100.9c0-1.238,27.983-1.238,27.983-1.238C3129.5,198.163,3129.222,198.443,3128.879,198.443Z" transform="translate(-3100.896 -197.205)" fill="#1a1a1a"/>
    </g>
    <g id="Grupo_920" data-name="Grupo 920" transform="translate(550.153 3263.808)">
      <path id="Trazado_899" data-name="Trazado 899" d="M3133.344,204.969h-31.556c0-1.241,31.556-1.241,31.556-1.241C3133.964,204.688,3133.684,204.969,3133.344,204.969Z" transform="translate(-3101.788 -203.728)" fill="#1a1a1a"/>
    </g>
    <g id="Grupo_921" data-name="Grupo 921" transform="translate(549.222 3273.133)">
      <path id="Trazado_900" data-name="Trazado 900" d="M3137.073,208.39h-35.627c0-1.235,35.627-1.235,35.627-1.235C3137.692,208.113,3137.413,208.39,3137.073,208.39Z" transform="translate(-3101.446 -207.155)" fill="#1a1a1a"/>
    </g>
    <g id="Grupo_922" data-name="Grupo 922" transform="translate(486.609 3156.486)">
      <path id="Trazado_901" data-name="Trazado 901" d="M3108.174,194.636h-29.121c-.62-.618-.62-29.736-.62-29.736.62-.618,29.741-.618,29.741-.618.621.618.621,29.736.621,29.736A.623.623,0,0,1,3108.174,194.636Zm-28.5-1.235h27.88V165.518h-27.88Z" transform="translate(-3078.433 -164.283)" fill="#1a1a1a"/>
    </g>
    <g id="Grupo_923" data-name="Grupo 923" transform="translate(364.253 3113.878)">
      <path id="Trazado_902" data-name="Trazado 902" d="M3063.208,178.982h-29.124c-.621-.618-.621-29.741-.621-29.741.621-.618,29.744-.618,29.744-.618.62.618.62,29.741.62,29.741A.623.623,0,0,1,3063.208,178.982Zm-28.5-1.238h27.881V149.861H3034.7Z" transform="translate(-3033.463 -148.623)" fill="#1a1a1a"/>
    </g>
    <g id="Grupo_924" data-name="Grupo 924" transform="translate(376.78 3116.281)">
      <path id="Trazado_903" data-name="Trazado 903" d="M3040.881,155.124a2.809,2.809,0,1,1,2.813-2.808A2.813,2.813,0,0,1,3040.881,155.124Zm0-4.38a1.573,1.573,0,1,0,1.569,1.573A1.573,1.573,0,0,0,3040.881,150.744Z" transform="translate(-3038.067 -149.506)" fill="#1a1a1a"/>
    </g>
    <g id="Grupo_925" data-name="Grupo 925" transform="translate(385.231 3126.712)">
      <path id="Trazado_904" data-name="Trazado 904" d="M3044.457,154.575h-3.283c0-1.235,3.283-1.235,3.283-1.235C3045.077,154.3,3044.8,154.575,3044.457,154.575Z" transform="translate(-3041.173 -153.34)" fill="#1a1a1a"/>
    </g>
    <g id="Grupo_926" data-name="Grupo 926" transform="translate(370.667 3126.712)">
      <path id="Trazado_905" data-name="Trazado 905" d="M3043.492,154.575h-7.672c0-1.235,7.672-1.235,7.672-1.235C3044.113,154.3,3043.835,154.575,3043.492,154.575Z" transform="translate(-3035.82 -153.34)" fill="#1a1a1a"/>
    </g>
    <g id="Grupo_927" data-name="Grupo 927" transform="translate(370.667 3132.758)">
      <path id="Trazado_906" data-name="Trazado 906" d="M3053.668,156.8H3035.82c0-1.238,17.848-1.238,17.848-1.238C3054.288,156.522,3054.011,156.8,3053.668,156.8Z" transform="translate(-3035.82 -155.562)" fill="#1a1a1a"/>
    </g>
    <g id="Grupo_928" data-name="Grupo 928" transform="translate(499.132 3158.883)">
      <path id="Trazado_907" data-name="Trazado 907" d="M3085.849,170.782a2.809,2.809,0,1,1,2.811-2.808A2.813,2.813,0,0,1,3085.849,170.782Zm0-4.378a1.571,1.571,0,1,0,1.57,1.57A1.571,1.571,0,0,0,3085.849,166.4Z" transform="translate(-3083.036 -165.164)" fill="#1a1a1a"/>
    </g>
    <g id="Grupo_929" data-name="Grupo 929" transform="translate(493.022 3169.315)">
      <path id="Trazado_908" data-name="Trazado 908" d="M3098.639,170.233H3080.79c0-1.235,17.849-1.235,17.849-1.235C3099.258,169.956,3098.981,170.233,3098.639,170.233Z" transform="translate(-3080.79 -168.998)" fill="#1a1a1a"/>
    </g>
    <g id="Grupo_930" data-name="Grupo 930" transform="translate(493.022 3175.363)">
      <path id="Trazado_909" data-name="Trazado 909" d="M3089.32,172.456h-8.53c0-1.235,8.53-1.235,8.53-1.235C3089.94,172.179,3089.663,172.456,3089.32,172.456Z" transform="translate(-3080.79 -171.221)" fill="#1a1a1a"/>
    </g>
    <g id="Grupo_931" data-name="Grupo 931" transform="translate(266.31 3257.039)">
      <path id="Trazado_910" data-name="Trazado 910" d="M3011.281,202.475h-13.816c0-1.235,13.816-1.235,13.816-1.235C3011.9,202.2,3011.624,202.475,3011.281,202.475Z" transform="translate(-2997.465 -201.24)" fill="#1a1a1a"/>
    </g>
    <g id="Grupo_932" data-name="Grupo 932" transform="translate(207.726 3257.039)">
      <path id="Trazado_911" data-name="Trazado 911" d="M3028.009,202.475h-52.076c0-1.235,52.076-1.235,52.076-1.235C3028.63,202.2,3028.349,202.475,3028.009,202.475Z" transform="translate(-2975.933 -201.24)" fill="#1a1a1a"/>
    </g>
    <g id="Grupo_933" data-name="Grupo 933" transform="translate(207.726 3268.069)">
      <path id="Trazado_912" data-name="Trazado 912" d="M3031.8,206.532h-55.864c0-1.238,55.864-1.238,55.864-1.238C3032.417,206.254,3032.137,206.532,3031.8,206.532Z" transform="translate(-2975.933 -205.294)" fill="#1a1a1a"/>
    </g>
    <g id="Grupo_934" data-name="Grupo 934" transform="translate(247.055 3279.1)">
      <path id="Trazado_913" data-name="Trazado 913" d="M3023.459,210.586h-33.071c0-1.238,33.071-1.238,33.071-1.238C3024.08,210.306,3023.8,210.586,3023.459,210.586Z" transform="translate(-2990.388 -209.348)" fill="#1a1a1a"/>
    </g>
    <g id="Grupo_935" data-name="Grupo 935" transform="translate(207.726 3279.1)">
      <path id="Trazado_914" data-name="Trazado 914" d="M2990.68,210.586h-14.747c0-1.238,14.747-1.238,14.747-1.238C2991.3,210.306,2991.022,210.586,2990.68,210.586Z" transform="translate(-2975.933 -209.348)" fill="#1a1a1a"/>
    </g>
    <g id="Grupo_936" data-name="Grupo 936" transform="translate(316.68 3257.039)">
      <path id="Trazado_915" data-name="Trazado 915" d="M3034.566,202.475h-18.588c0-1.235,18.588-1.235,18.588-1.235C3035.187,202.2,3034.907,202.475,3034.566,202.475Z" transform="translate(-3015.978 -201.24)" fill="#1a1a1a"/>
    </g>
    <g id="Grupo_937" data-name="Grupo 937" transform="translate(316.68 3268.069)">
      <path id="Trazado_916" data-name="Trazado 916" d="M3046.854,206.532h-30.876c0-1.238,30.876-1.238,30.876-1.238C3047.474,206.254,3047.194,206.532,3046.854,206.532Z" transform="translate(-3015.978 -205.294)" fill="#1a1a1a"/>
    </g>
    <g id="Grupo_938" data-name="Grupo 938" transform="translate(316.68 3279.1)">
      <path id="Trazado_917" data-name="Trazado 917" d="M3050.932,210.586h-34.954c0-1.238,34.954-1.238,34.954-1.238C3051.552,210.306,3051.272,210.586,3050.932,210.586Z" transform="translate(-3015.978 -209.348)" fill="#1a1a1a"/>
    </g>
    <g id="Grupo_939" data-name="Grupo 939" transform="translate(488.243 3299.171)">
      <path id="Trazado_918" data-name="Trazado 918" d="M3079.034,228.906c7.047-1.235,12.616-5.637,13.862-12.181C3092.755,224.107,3086.694,228.906,3079.034,228.906Z" transform="translate(-3079.034 -216.725)" fill="#1a1a1a"/>
    </g>
    <g id="Grupo_940" data-name="Grupo 940" transform="translate(502.495 3192.406)">
      <path id="Trazado_919" data-name="Trazado 919" d="M3084.893,240.23c-.621-.618-.621-62.745-.621-62.745,1.241,0,1.241,62.127,1.241,62.127A.62.62,0,0,1,3084.893,240.23Z" transform="translate(-3084.272 -177.485)" fill="#1a1a1a"/>
    </g>
    <g id="Grupo_941" data-name="Grupo 941" transform="translate(306.031 3089.666)">
      <path id="Trazado_920" data-name="Trazado 920" d="M3209.148,201.04c-.621-.618-.621-45.824-.621-45.824,0-7.858-6.113-14.254-13.623-14.254h-182.84c0-1.238,182.84-1.238,182.84-1.238,8.2,0,14.864,6.949,14.864,15.492v45.206A.621.621,0,0,1,3209.148,201.04Z" transform="translate(-3012.064 -139.724)" fill="#1a1a1a"/>
    </g>
    <g id="Grupo_942" data-name="Grupo 942" transform="translate(175.215 3089.666)">
      <path id="Trazado_921" data-name="Trazado 921" d="M2964.6,270.638c-.62-.618-.62-115.422-.62-115.422,0-8.543,6.667-15.492,14.864-15.492h11.479c0,1.238-11.479,1.238-11.479,1.238-7.512,0-13.623,6.4-13.623,14.254v114.8A.621.621,0,0,1,2964.6,270.638Z" transform="translate(-2963.984 -139.724)" fill="#1a1a1a"/>
    </g>
    <g id="Grupo_943" data-name="Grupo 943" transform="translate(175.215 3271.048)">
      <path id="Trazado_922" data-name="Trazado 922" d="M3192.14,246.692H2978.848c-8.2,0-14.864-6.946-14.864-15.49V206.389c1.241,0,1.241,24.814,1.241,24.814,0,7.858,6.111,14.254,13.623,14.254H3192.14C3192.761,246.415,3192.48,246.692,3192.14,246.692Z" transform="translate(-2963.984 -206.389)" fill="#1a1a1a"/>
    </g>
    <g id="Grupo_949" data-name="Grupo 949" transform="translate(449.589 3015.606)">
      <g id="Grupo_944" data-name="Grupo 944">
        <path id="Trazado_923" data-name="Trazado 923" d="M3185.656,233.947h-17.3c0-1.238,16.673-1.238,16.673-1.238V113.742H3066.067v72.673c-1.24,0-1.24-73.293-1.24-73.293.62-.618,120.829-.618,120.829-.618.621.618.621,120.823.621,120.823A.62.62,0,0,1,3185.656,233.947Z" transform="translate(-3064.827 -112.504)" fill="#1a1a1a"/>
      </g>
      <g id="Grupo_945" data-name="Grupo 945" transform="translate(54.416 120.205)">
        <path id="Trazado_924" data-name="Trazado 924" d="M3133.943,157.922h-49.116c0-1.238,49.116-1.238,49.116-1.238C3134.566,157.644,3134.289,157.922,3133.943,157.922Z" transform="translate(-3084.827 -156.684)" fill="#1a1a1a"/>
      </g>
      <g id="Grupo_946" data-name="Grupo 946" transform="translate(11.243 25.184)">
        <path id="Trazado_925" data-name="Trazado 925" d="M3092.064,171.1c-.621-.618-.621-48.107-.621-48.107H3070.2v47.489c-1.241,0-1.241-48.107-1.241-48.107.621-.62,23.1-.62,23.1-.62.621.62.621,48.727.621,48.727A.62.62,0,0,1,3092.064,171.1Z" transform="translate(-3068.959 -121.76)" fill="#1a1a1a"/>
      </g>
      <g id="Grupo_947" data-name="Grupo 947" transform="translate(48.86 51.559)">
        <path id="Trazado_926" data-name="Trazado 926" d="M3105.894,176.154h-17.553c0-1.235,16.932-1.235,16.932-1.235V132.695h-21.244v26.588c-1.244,0-1.244-27.208-1.244-27.208.621-.62,23.109-.62,23.109-.62.62.62.62,44.083.62,44.083A.621.621,0,0,1,3105.894,176.154Z" transform="translate(-3082.785 -131.454)" fill="#1a1a1a"/>
      </g>
      <g id="Grupo_948" data-name="Grupo 948" transform="translate(86.481 67.345)">
        <path id="Trazado_927" data-name="Trazado 927" d="M3119.717,166.17h-22.485c-.62-.618-.62-28.294-.62-28.294.62-.62,23.1-.62,23.1-.62.621.62.621,28.3.621,28.3A.623.623,0,0,1,3119.717,166.17Zm-21.864-1.235H3119.1V138.494h-21.244Z" transform="translate(-3096.612 -137.256)" fill="#1a1a1a"/>
      </g>
    </g>
    <g id="Grupo_950" data-name="Grupo 950" transform="translate(154.42 3145.521)">
      <path id="Trazado_928" data-name="Trazado 928" d="M2956.482,162.952c-.49-1,.332-2.3,1.842-2.626a3.859,3.859,0,0,1,3.01.716,10.127,10.127,0,0,1-2.74.5,2.8,2.8,0,0,0-1.586,1.126A.618.618,0,0,1,2956.482,162.952Z" transform="translate(-2956.341 -160.253)" fill="#1a1a1a"/>
    </g>
    <g id="Grupo_955" data-name="Grupo 955" transform="translate(161.306 3219.659)">
      <g id="Grupo_954" data-name="Grupo 954">
        <g id="Grupo_951" data-name="Grupo 951" transform="translate(17.182 7.589)">
          <path id="Trazado_929" data-name="Trazado 929" d="M2965.2,225.92c-.509-.966,22.7-34.8,22.7-34.8a3.787,3.787,0,0,1,3.527-.623,4.472,4.472,0,0,1,1.6,1.132,3.638,3.638,0,0,1,.615,4.527,4.616,4.616,0,0,1,1.878,5.349c-1.576,5.376-21.288,22.958-30.22,24.4A.4.4,0,0,1,2965.2,225.92Zm23.638-33.975-22.215,32.375c9.385-2.93,26.463-18.91,27.707-23.157a3.47,3.47,0,0,0-1.85-4.239c.721-2.06.669-3.357-.354-4.446a3.271,3.271,0,0,0-1.153-.824A2.487,2.487,0,0,0,2988.833,191.946Z" transform="translate(-2965.187 -190.291)" fill="#1a1a1a"/>
        </g>
        <g id="Grupo_952" data-name="Grupo 952">
          <path id="Trazado_930" data-name="Trazado 930" d="M2958.872,210.9c1.84-4.081,7.3-14.439,8.521-17.22.205-.468.379-.98.559-1.507.789-2.3,1.8-5.142,5.5-4.6a2.742,2.742,0,0,1,1.953,1.377c1.042,1.758.928,5-.3,8.462-1.717,4.813-1.287,6.078.1,6.745,1.956.936,6.843-2.816,8.451-4.049a88.761,88.761,0,0,0,6.756-6.32c.617-.62,1.138-1.14,1.491-1.48,1.9-1.826,4.766-4.587,7.907-1.676a3.829,3.829,0,0,1,1.4,2.83c0,2.022-1.916,3.779-3.314,5.061a114.743,114.743,0,0,1-11.61,9.719c-.269.093-27.36,2.664-27.36,2.664Zm13.664-22.164c-1.948,0-2.612,1.494-3.412,3.836-.19.56-.378,1.107-.593,1.6a158.849,158.849,0,0,1-8.385,15.364l25.607-2.43a112.126,112.126,0,0,0,10.511-8.761c2.027-1.872,3.706-3.412,3.709-4.9a2.61,2.61,0,0,0-1-1.913c-1.929-1.788-3.6-.835-6.206,1.657-.351.335-.862.852-1.471,1.461a89.916,89.916,0,0,1-6.881,6.437c-3.521,2.68-7.43,5.27-9.735,4.176-2.642-1.257-2.272-3.986-.74-8.277,1.078-3.031,1.241-6.008.405-7.411a1.487,1.487,0,0,0-1.077-.784A5.107,5.107,0,0,0,2972.536,188.735Z" transform="translate(-2958.872 -187.502)" fill="#1a1a1a"/>
        </g>
        <g id="Grupo_953" data-name="Grupo 953" transform="translate(31.257 13.263)">
          <path id="Trazado_931" data-name="Trazado 931" d="M2970.393,205.819c-.39-1.1,2.835-3.7,6.429-6.65a59.734,59.734,0,0,0,6.525-6.794c1.36.139,1.479.509,1.322.813-1.589,1.437-4.511,4.851-7.061,6.941-3.6,2.952-6.826,5.553-6.826,5.553A.61.61,0,0,1,2970.393,205.819Z" transform="translate(-2970.361 -192.376)" fill="#1a1a1a"/>
        </g>
      </g>
    </g>
    <g id="Grupo_956" data-name="Grupo 956" transform="translate(587.103 3193.815)">
      <path id="Trazado_932" data-name="Trazado 932" d="M3140.57,206.92c-7.781,0-9.884-6.111-10.44-8.859-1.842,1.834-6.2,5.719-9.955,5.719a4.724,4.724,0,0,1-3.812-1.915c-4.579-5.945,8.122-22.855,8.666-23.576-2.552,5.425-11.008,18.507-7.686,22.817a3.374,3.374,0,0,0,2.677,1.431c4.413.005,10.023-6.168,10.081-6.228,1.1.751,1.674,9.373,10.47,9.373,7.327,0,10.3-19.979,10.827-27.679C3152.552,179.265,3150.547,206.92,3140.57,206.92Z" transform="translate(-3115.369 -178.003)" fill="#1a1a1a"/>
    </g>
    <g id="Grupo_957" data-name="Grupo 957" transform="translate(375.654 2985.996)">
      <path id="Trazado_933" data-name="Trazado 933" d="M3104.13,157.419c-.71-1.233-1.12-3.79-2.245-7.4a14.871,14.871,0,0,1,2.86,6.69C3104.187,157.419,3104.157,157.419,3104.13,157.419Zm-4.174-13.642c-1.515-2.514-2.6-4.628-3.773-6.658,2.274,1.445,3.374,3.6,4.342,5.79C3100.128,143.758,3100.041,143.777,3099.956,143.777Zm-7.161-12.312c-1.9-2.149-3.42-3.978-5-5.689,2.522.9,4.065,2.764,5.5,4.7C3093.057,131.424,3092.923,131.465,3092.8,131.465Zm-9.659-10.456c-2.182-1.692-4.051-3.153-5.969-4.5,2.664.354,4.571,1.842,6.375,3.412C3083.482,120.938,3083.309,121.009,3083.137,121.009Zm-11.645-8.173c-2.3-1.2-4.418-2.269-6.615-3.254a12.462,12.462,0,0,1,6.919,2.1C3071.916,112.727,3071.706,112.836,3071.492,112.836ZM3058.514,107c-2.365-.794-4.639-1.491-6.969-2.109a12.778,12.778,0,0,1,7.175.9C3059.006,106.842,3058.767,107,3058.514,107Zm-13.751-3.681c-2.351-.446-4.7-.83-7.109-1.145a13.184,13.184,0,0,1,7.229-.084C3045.312,103.12,3045.053,103.321,3044.763,103.321Z" transform="translate(-3037.653 -101.621)" fill="#1a1a1a"/>
    </g>
    <g id="Grupo_958" data-name="Grupo 958" transform="translate(272.149 2984.313)">
      <path id="Trazado_934" data-name="Trazado 934" d="M2999.793,158.717c-.566-.9.2-3.477,2.021-7.55a54.279,54.279,0,0,1-1.431,7.109A.614.614,0,0,1,2999.793,158.717Zm5.768-13.082a19.149,19.149,0,0,1,3.151-7.085c-.259,2.669-1.489,4.718-2.609,6.761A.61.61,0,0,1,3005.562,145.635Zm7.806-11.942a17.413,17.413,0,0,1,4.136-6.495c-.672,2.568-2.207,4.391-3.646,6.258A.614.614,0,0,1,3013.367,133.693Zm9.626-10.51a15.85,15.85,0,0,1,5.082-5.695c-1.09,2.389-2.914,3.921-4.667,5.529A.6.6,0,0,1,3022.994,123.183Zm11.311-8.66a14.574,14.574,0,0,1,5.924-4.672c-1.519,2.147-3.587,3.317-5.6,4.579A.609.609,0,0,1,3034.3,114.523ZM3047,108.1a13.7,13.7,0,0,1,6.563-3.518c-1.9,1.847-4.151,2.617-6.333,3.48A.778.778,0,0,1,3047,108.1Zm13.654-4.008a13.116,13.116,0,0,1,6.962-2.345c-2.2,1.5-4.549,1.875-6.84,2.337C3060.739,104.091,3060.7,104.1,3060.658,104.1Zm14.143-1.706a3.7,3.7,0,0,1,3.213-1.388,3.7,3.7,0,0,1-3.178,1.388Z" transform="translate(-2999.611 -101.003)" fill="#1a1a1a"/>
    </g>
    <g id="Grupo_959" data-name="Grupo 959" transform="translate(580.067 3070.52)">
      <path id="Trazado_935" data-name="Trazado 935" d="M3194.383,251.423a26.991,26.991,0,0,1,3.412-6.892,12.926,12.926,0,0,1-2.912,6.636A.607.607,0,0,1,3194.383,251.423Zm7.472-12.157a30.827,30.827,0,0,1,2.53-7.294c.19,2.653-.859,4.824-1.984,6.963A.616.616,0,0,1,3201.855,239.266Zm5.724-13.068a37.046,37.046,0,0,1,1.505-7.588c.6,2.607-.117,4.911-.919,7.178A.621.621,0,0,1,3207.579,226.2Zm3.622-13.784a48.9,48.9,0,0,1,.244-7.741c1.064,2.435.77,4.835.368,7.224A.623.623,0,0,1,3211.2,212.415Zm1.014-14.2A75.176,75.176,0,0,1,3211,190.58c1.558,2.19,1.762,4.6,1.831,7A7.306,7.306,0,0,1,3212.215,198.218Zm-1.969-14.107c-1.179-2.729-1.889-5-2.713-7.2,2,1.812,2.727,4.117,3.314,6.429C3210.35,184.108,3210.3,184.11,3210.246,184.11Zm-4.988-13.327c-1.589-2.413-2.756-4.481-4.023-6.5,2.337,1.393,3.526,3.5,4.579,5.6C3205.447,170.767,3205.351,170.784,3205.258,170.784Zm-7.574-12.059c-1.929-2.109-3.488-3.9-5.115-5.567,2.549.835,4.138,2.664,5.6,4.566C3197.951,158.684,3197.817,158.725,3197.684,158.725Zm-9.95-10.168c-2.2-1.6-4.136-2.971-6.139-4.22,2.7.226,4.677,1.627,6.527,3.118C3188.093,148.476,3187.914,148.557,3187.734,148.557Zm-12.064-7.548c-2.359-1.056-4.557-1.962-6.8-2.751,2.691-.365,4.931.558,7.061,1.573C3176.121,140.882,3175.9,141.01,3175.67,141.01Zm-62.886-3.812c-.067-1.246,2.506-1.989,6.854-2.789a45.623,45.623,0,0,1-6.682,2.767A.541.541,0,0,1,3112.784,137.2Zm49.461-.936c-2.361-.566-4.693-1.034-7.088-1.409a12.591,12.591,0,0,1,7.238.19C3162.779,136.077,3162.523,136.262,3162.245,136.262Zm-35.441-1.7c2.291-1.521,4.693-1.739,7.069-1.88-2.278,1.379-4.655,1.592-6.992,1.875A.369.369,0,0,1,3126.8,134.567Zm21.364-.533c-2.378-.18-4.761-.28-7.131-.294,2.407-1.224,4.819-1.124,7.179-.941C3148.758,133.789,3148.489,134.034,3148.168,134.034Z" transform="translate(-3112.782 -132.687)" fill="#1a1a1a"/>
    </g>
    <g id="Grupo_960" data-name="Grupo 960" transform="translate(352.595 2975.446)">
      <path id="Trazado_936" data-name="Trazado 936" d="M3039.31,118a10.13,10.13,0,1,1,10.13-10.127A10.143,10.143,0,0,1,3039.31,118Zm0-19.016a8.888,8.888,0,1,0,8.889,8.889A8.9,8.9,0,0,0,3039.31,98.987Z" transform="translate(-3029.178 -97.744)" fill="#1a1a1a"/>
    </g>
  </g>
</svg>
