<svg xmlns="http://www.w3.org/2000/svg" xmlns:xlink="http://www.w3.org/1999/xlink" width="572.037" height="399.055" viewBox="0 0 572.037 399.055">
  <defs>
    <linearGradient id="linear-gradient" x1="0.5" x2="0.5" y2="1" gradientUnits="objectBoundingBox">
      <stop offset="0" stop-color="#ff5a00"/>
      <stop offset="1" stop-color="#ffbc00"/>
    </linearGradient>
    <linearGradient id="linear-gradient-3" x1="0.5" x2="0.5" y2="1" gradientUnits="objectBoundingBox">
      <stop offset="0" stop-color="#1a65bc"/>
      <stop offset="1" stop-color="#008ff2"/>
    </linearGradient>
    <linearGradient id="linear-gradient-6" x1="0.5" x2="0.5" y2="1" gradientUnits="objectBoundingBox">
      <stop offset="0" stop-color="#00b8fd"/>
      <stop offset="1" stop-color="#0075e1"/>
    </linearGradient>
    <linearGradient id="linear-gradient-7" x1="0.935" y1="0.052" x2="0.062" y2="0.943" gradientUnits="objectBoundingBox">
      <stop offset="0" stop-color="#b533f1"/>
      <stop offset="0.291" stop-color="#ff23a0"/>
      <stop offset="0.49" stop-color="#ff1b48"/>
      <stop offset="0.796" stop-color="#ff6d01"/>
      <stop offset="1" stop-color="#ffc013"/>
    </linearGradient>
  </defs>
  <g id="meta-ads" transform="translate(-691 -163)">
    <path id="Trazado_13276" data-name="Trazado 13276" d="M40.623,399.054S-29.99,325.5,14.979,238.84,120.293,195.791,117.41,94.911,256.257-14.588,301.362,14.68,350.441,62.795,443.58,51.17s136.451,74.239,105.842,133.814c-35.754,69.588,73.156,76.026-8.675,214.07Z" transform="translate(691 163.001)" opacity="0.04" fill="url(#linear-gradient)"/>
    <g id="Grupo_10045" data-name="Grupo 10045" transform="translate(691 252.807)">
      <g id="Grupo_10044" data-name="Grupo 10044">
        <g id="Grupo_10046" data-name="Grupo 10046">
          <path id="Trazado_15901" data-name="Trazado 15901" d="M165.955,185.277H11.819A11.739,11.739,0,0,1,.114,173.572V65.5A11.739,11.739,0,0,1,11.819,53.8H165.955A11.74,11.74,0,0,1,177.66,65.5V173.572a11.74,11.74,0,0,1-11.705,11.705" transform="translate(0.145 68.594)" fill="#fff"/>
          <path id="Trazado_15990" data-name="Trazado 15990" d="M73.266,157.719c5.879-.926,10.659-5.706,10.659-11.584V75.774c.928,0,.928,70.36.928,70.36a11.6,11.6,0,0,1-11.587,11.584" transform="translate(93.417 96.615)" fill="#1a1a1a"/>
          <path id="Trazado_16038" data-name="Trazado 16038" d="M98.372,82.547S87.172,82.488,79.908,98s-14.872,33.261-14.872,33.261l-18.5-20.669S32.669,116.638,26.124,125.4c0,0,10.777,24.313,22.957,33.8s16.5,10.486,25.758,8.174l-6.2,35.568h70.719s-4.177-29.366-4.466-35.088-.382-12.57-.382-12.57,5.717,2.559,11.371-3.021,5.758-7.981,5.057-12.774-2.364-11.528-6.093-21.369-6.2-12.551-6.2-12.551-3.674,8.857-12.895,7.717-10.452-5.972-11.33-9.924-.6-8.165-2.892-12.249-5.672-4.227-8.063-4.552-5.064-2.179-5.089-4.018" transform="translate(33.309 105.25)" fill="#fff"/>
          <path id="Trazado_16037" data-name="Trazado 16037" d="M196.49,98.792a57.06,57.06,0,0,0-22.38,23.556c-8.377,16.46-13.106,30.854-13.919,42.361a47.723,47.723,0,0,0,3.931,22.693h81.141l25.494-7.733-10.729-54.091s-5.549-14.4-13.536-21.631-17.468-9.223-19.549-9.25-30.454,4.1-30.454,4.1" transform="translate(204.103 120.742)" fill="#fff"/>
          <path id="Trazado_15902" data-name="Trazado 15902" d="M153.453,77.337s-16.669.4-27.951,10.04a116.806,116.806,0,0,0-28.574,37.076C90.168,138.57,84.21,149.444,84.947,162s8.095,20.969,20.134,24.268a146.432,146.432,0,0,0,22.32,4.268l-.262,19h84.481l-.762-38a8.918,8.918,0,0,0,6.265-2.612c2.828-2.8,1.531-11.339,1.531-11.339s10.686,7.524,19.822,6.757,15.229-7.455,16.489-12.126,2.653-12.162,2.575-23.456-1.185-35.707-1.185-35.707-1.893-3.947-14.715-4.559-15.934,3.513-15.934,3.513l-.312,8.252s-3.843-8.766-9.883-12.729-16.726-9.84-27.833-9.926-34.228-.268-34.228-.268" transform="translate(108.231 98.607)" fill="#294859"/>
          <path id="Trazado_15903" data-name="Trazado 15903" d="M168.393,154.8h21.379a9.121,9.121,0,0,0,6.268-2.346c2.521-2.523,1.529-8.454,1.529-8.454l.155-47.009a6.709,6.709,0,0,0-1.988-4.8,7.594,7.594,0,0,0-4.687-1.932h-81.9s-4.743-.177-6.5,2.341a8.105,8.105,0,0,0-1.11,5.678l-.116,41.874s21.893,4.607,32.724,4.725c0,0,1.993-.585,2.78.7s0,.321,0,.321,3.424-1.317,3.777-4.125.057-10.467,3.688-10.561,4.375,5,4.354,9.039a34.129,34.129,0,0,1-1.9,9.248s-.573,2.207,2.669,3.094,12.435,2.928,18.874,2.2" transform="translate(129.318 115.079)" fill="#fff"/>
          <path id="Trazado_15904" data-name="Trazado 15904" d="M196.49,98.792a57.06,57.06,0,0,0-22.38,23.556c-8.377,16.46-13.106,30.854-13.919,42.361a47.723,47.723,0,0,0,3.931,22.693h81.141l25.494-7.733-10.729-54.091s-5.549-14.4-13.536-21.631-17.468-9.223-19.549-9.25-30.454,4.1-30.454,4.1" transform="translate(204.103 120.742)" opacity="0.5" fill="url(#linear-gradient)"/>
          <path id="Trazado_15905" data-name="Trazado 15905" d="M211.2,177.853H287.42c5.023,0,9.48-3.736,11.059-8.3l18.077-52.208c2.5-7.216-3.114-14.658-11.059-14.658H229.275a11.616,11.616,0,0,0-11.061,7.644l-18.08,52.208A11.751,11.751,0,0,0,211.2,177.853" transform="translate(254.414 130.934)" fill="#1a1a1a"/>
          <path id="Trazado_15906" data-name="Trazado 15906" d="M71.441,67.69,71,69.5s.093-.328-1.142-.455a1.953,1.953,0,0,0-2,1.458c-.143.51-2.245,8.17-2.245,8.17s.278,1.536,1.119,1.531a5.752,5.752,0,0,0,2.029-.617l-1.3,4.191s-2.785-1.033-4.366,0c0,0-5.365-2.173-7.644.551,0,0-3.715-3.085-5.258-4.068s-3.715-1.2-4.782.4-.669,2.348,1.174,3.665,6.743,5.465,7.969,6.7,4.677,4.807,4.721,5.292-.739.2-1.533-.539-5.317-5.255-6.852-5.387a2.579,2.579,0,0,0-2.625,3.46c.605,2.245,3.592,3.554,6.029,6.652s9.842,5.005,10.031,5.005,5.847-4.464,10.213-4.018a12.433,12.433,0,0,1-.824-8.245c1.149-4.571,5.54-7.592,5.54-7.592s4.3,1.076,6.145-2.407a5.258,5.258,0,0,0-1.886-6.993,6.652,6.652,0,0,0-3.16-.969s-7.71-2.9-8.9-7.594" transform="translate(57.151 86.307)" fill="#fff"/>
          <path id="Trazado_15908" data-name="Trazado 15908" d="M116.516,124.71s4.532-1.954,5.82-3.934,1.527-2.528,1.524-5.747.642-6.363,3.276-6.75,4.427,2.612,4.329,6.809a46.863,46.863,0,0,1-1.372,10.322c-.437,1.119-.908,2.719,1.374,3.9a22.817,22.817,0,0,0,11.71,2.518,51.3,51.3,0,0,1,7.96.036,6.469,6.469,0,0,1-1.668,2.036s-1.131,5.032-4.846,6.343a32.675,32.675,0,0,1-11.751,2.286c-5.269.123-9.6-.453-11.407-.473s-5.394-.4-6.081-2.889a37.473,37.473,0,0,1-.369-7.712,19.8,19.8,0,0,1,1.5-6.743" transform="translate(146.574 138.018)" fill="#fff"/>
          <path id="Trazado_15909" data-name="Trazado 15909" d="M175.641,107.841s.48-8.443.234-11.314-.851-3.169-.234-7.262,1.492-8.736,1.169-13.17-1.019-7.378-2.951-7.087a9.213,9.213,0,0,0-3.467,1.363,2.637,2.637,0,0,0-2.76-2.8,3.4,3.4,0,0,0-3.585,2.079,4.136,4.136,0,0,0-3.588-1.975c-2.284.209-3.451,2.048-3.567,4.552s-.466,15.5-.466,15.5-1.372-.253-3.105-2.559-5.064-5.385-7.721-2.882-1.749,4.828,1.042,7.5,6.875,5.97,7.774,9.96a51.375,51.375,0,0,1,1.026,8.5s13.252,2.491,20.2-.412" transform="translate(183.62 86.155)" fill="#fff"/>
          <path id="Trazado_15911" data-name="Trazado 15911" d="M196.7,117.634l.412-7.8s5.164-.114,6.184-3.451a29.694,29.694,0,0,0,1.52-11.2c-.148-5.33-.319-10.188-.319-10.188l-7.8-8.288s-7.2,9.628-9.35,12.069-4.059,4.127-3.868,7.637,3.836,8.09,5.087,9.314,2.948,6.313,1.72,9.944a24.44,24.44,0,0,1-3.01,6.058s3.77,6.877,6.873,6.384,2.548-10.479,2.548-10.479" transform="translate(233.932 97.803)" fill="#fff"/>
          <path id="Trazado_15912" data-name="Trazado 15912" d="M183.17,133.083a47.54,47.54,0,0,1,7.462-3.72c3.356-1.185,5.492-2.059,8.227-1.661,0,0,4.853-3.344,9.385-.946a8.181,8.181,0,0,1,4.131-1.577c2.355-.162,4.5,4.953,4.5,4.953l-1.392,6.577s.876,5.915,1.982,6.645l-17.147.614-2.587-4.275a5.008,5.008,0,0,1-4.568,3.661,52.038,52.038,0,0,1-6.707,0s-4.5-4.8-3.285-10.269" transform="translate(233.284 159.603)" fill="#fff"/>
          <path id="Trazado_15913" data-name="Trazado 15913" d="M156,74.365c-.05-5.351-5.881-4.27-7.018-3.984.036-1.2.1-4.156-.482-5.217a38.282,38.282,0,0,1-2.145-6.072,109.917,109.917,0,0,1-11.569,1.688c-6.488.6-11.876-4.334-11.876-4.334a24.855,24.855,0,0,1-2.778,9.1l-.446,4.671c-4.6-1.092-6.9,1.574-6.707,4.145a5.364,5.364,0,0,0,3.228,4.862,7.58,7.58,0,0,0,3.9-.357s.366,1,.514,5.456,4.143,7.885,4.143,7.885l-.407,5.972-6.718,5.79,5.8,29.362h22.477l5.947-29.093-7.389-6.058-.673-5.533c4.47-3.576,5.03-9.323,5.089-13.855,2.748,1.508,7.155.7,7.107-4.429" transform="translate(144.044 71.972)" fill="#fff"/>
          <path id="Trazado_15914" data-name="Trazado 15914" d="M64.785,93.979s-5.858,4.1-5.872,9.689,2.578,9.187,5.258,9.926,7.769,1.065,9.482,5.758,2.109,10.816,2.933,13.132,2.366,6.852,9.071,7.988,11.462-2.266,14.679-7.63,3.858-10.3,2.639-16.9S100.5,105.859,97.329,100.9s-6.928-7.519-8.242-9.016-2.123-1.47-1.447-3.82,4.207-6.215,3.893-11.264-.81-7.332-11.782-10.363c0,0-2.669-3.556-8.927-4.83s-11.917.146-13.721,4.352A13.394,13.394,0,0,0,58.371,78.21c2.068,2.9,7.51,5.4,7.51,5.4s5.606-.023,5.724,4.8a5.494,5.494,0,0,1-6.821,5.574" transform="translate(71.613 77.982)"/>
          <path id="Trazado_15915" data-name="Trazado 15915" d="M210.478,79.845l8.115,8.324a46.321,46.321,0,0,0-.164-6.962A6.983,6.983,0,0,0,212.615,75a62.681,62.681,0,0,0-14.729-.821c-6.315.487-14.731,3.858-15.134,12.183,0,0,1.8,8.345,2.478,12.683s2.382,11.132.45,13.309-6.252,2.989-8.347,3.7-8.113,8.267-2.491,12.7l5.8-3.617s9.082,4.364,14.526,3,8.475-5.708,8.87-7.815.657-7.51-1.185-10.8-5.139-5.183-5.314-9,.485-5.194,2.2-6.943a89.507,89.507,0,0,0,6.1-7.069c1.722-2.257,4.639-6.666,4.639-6.666" transform="translate(219.95 94.393)" fill="#1a1a1a"/>
          <path id="Trazado_15916" data-name="Trazado 15916" d="M189.7,91.771l-.412,7.8,5.219.974a6.908,6.908,0,0,0,1.388-4.693,7.932,7.932,0,0,0-1.877-4.976s-3.993,1.09-4.318.9" transform="translate(241.348 115.869)" fill="#1a1a1a"/>
          <path id="Trazado_15917" data-name="Trazado 15917" d="M226.968,120.81c-2.323,4.022-2.057,8.52.589,10.049s6.673-.494,9-4.516,2.057-8.522-.589-10.049-6.675.494-9,4.516" transform="translate(287.375 147.628)" fill="#fff"/>
          <path id="Trazado_15918" data-name="Trazado 15918" d="M238.236,179.733H177.82s-2.694-1.115-1.991-3.105a3.946,3.946,0,0,1,2.282-2.484l48.825.143a9.866,9.866,0,0,1-2.209-7.025,19.124,19.124,0,0,1,1.982-7.669l17.627-52.474a10.572,10.572,0,0,1,9.883-5.9h78.507l6.5,3.7-80.145-.291s-8.6,1.169-10.3,7.2l-18.68,54.185a10.035,10.035,0,0,0,1.233,7.285c2.225,3.747,6.909,6.443,6.909,6.443" transform="translate(224.04 129.053)" fill="#fff"/>
          <path id="Trazado_15919" data-name="Trazado 15919" d="M183.068,135.733s10.595-6.293,16.023-5.38a8.384,8.384,0,0,1,7.842-1.451l-.621-1.078A17.28,17.28,0,0,0,195.3,123.1c-6.543-.132-12.7,5.594-12.233,12.633" transform="translate(233.387 156.953)" fill="#1a1a1a"/>
          <path id="Trazado_15920" data-name="Trazado 15920" d="M187.878,135.071s3.276-1.347,3.585-3.513l2.127,3.513Z" transform="translate(239.551 167.741)" fill="#1a1a1a"/>
          <path id="Trazado_15921" data-name="Trazado 15921" d="M125.406,80.783,120.178,92.5l2.082,4.466-1.281,5.337h10.053l-1.8-5.324,1.9-4.129Z" transform="translate(153.232 103.001)" fill="#707070"/>
          <path id="Trazado_15922" data-name="Trazado 15922" d="M121.909,83.677l3.563,8.3-1.11,5.005,1.11,5.324h3.356l-1.8-5.324,1.9-4.127L123.2,80.783Z" transform="translate(155.438 103.002)" fill="#fff"/>
          <path id="Trazado_15924" data-name="Trazado 15924" d="M98.372,82.547S87.172,82.488,79.908,98s-14.872,33.261-14.872,33.261l-18.5-20.669S32.669,116.638,26.124,125.4c0,0,10.777,24.313,22.957,33.8s16.5,10.486,25.758,8.174l-6.2,35.568h70.719s-4.177-29.366-4.466-35.088-.382-12.57-.382-12.57,5.717,2.559,11.371-3.021,5.758-7.981,5.057-12.774-2.364-11.528-6.093-21.369-6.2-12.551-6.2-12.551-3.674,8.857-12.895,7.717-10.452-5.972-11.33-9.924-.6-8.165-2.892-12.249-5.672-4.227-8.063-4.552-5.064-2.179-5.089-4.018" transform="translate(33.309 105.25)" opacity="0.5" fill="url(#linear-gradient-3)"/>
          <path id="Trazado_15925" data-name="Trazado 15925" d="M38.218,122.82a17.154,17.154,0,0,1,29.869-.676s-5.03,7.128-15.545,6.491c-9.394-.569-14.324-5.815-14.324-5.815" transform="translate(48.729 145.046)" fill="url(#linear-gradient-3)"/>
          <rect id="Rect치ngulo_4864" data-name="Rect치ngulo 4864" width="10.654" height="10.654" transform="translate(15.918 209.155)" opacity="0.5" fill="url(#linear-gradient-3)"/>
          <rect id="Rect치ngulo_4865" data-name="Rect치ngulo 4865" width="10.654" height="10.654" transform="translate(9.478 236.01)" fill="#1a1a1a"/>
          <path id="Trazado_15926" data-name="Trazado 15926" d="M115.665,76.494S112.118,57,120.115,56.3c0,0,3.449-5.895,11.928-5.048s13.493,3.526,16.019,11.054a25.1,25.1,0,0,1,.384,14.258l-2.073.293V72.414l-2.048-6.791s-6.8,2.812-12.886,1.845a30.21,30.21,0,0,1-10.963-4.3s-1.3,7.555-2.776,9.1l-.446,4.671Z" transform="translate(146.478 65.248)" fill="#707070"/>
          <path id="Trazado_15927" data-name="Trazado 15927" d="M194.014,80.116c-.7,3.267-4.277,9.193-6.632,12.854,1.693-1.79,3.981-4.443,5.519-6.459,1.722-2.257,4.639-6.666,4.639-6.666l8.115,8.324a46.321,46.321,0,0,0-.164-6.962A6.978,6.978,0,0,0,199.676,75a62.529,62.529,0,0,0-14.729-.824c-.739.057-1.513.159-2.3.3.243.014,12.419.739,11.362,5.642" transform="translate(232.888 94.393)" fill="#fff"/>
          <path id="Trazado_15928" data-name="Trazado 15928" d="M185.372,110.741c5.444-1.363,8.472-5.708,8.868-7.815s.66-7.51-1.185-10.8a35.681,35.681,0,0,0-3.392-4.445c1.492,3.2,3.426,8.825,1.686,13.973-2.619,7.742-11.159,8.957-11.159,8.957l.951.278a12.049,12.049,0,0,0,4.232-.146" transform="translate(229.748 111.794)" fill="#fff"/>
          <path id="Trazado_15929" data-name="Trazado 15929" d="M190.368,91.449c-.059.073,2.4,4.477.553,8.682l2.209.412a6.914,6.914,0,0,0,1.385-4.693,7.914,7.914,0,0,0-1.877-4.973s-1.153.312-2.27.573" transform="translate(242.724 115.87)" fill="#fff"/>
          <path id="Trazado_15930" data-name="Trazado 15930" d="M141.286,71.716v4.45l2.07-.293a25.123,25.123,0,0,0-.382-14.26c-1.838-5.481-5.007-8.386-9.86-9.892,1.458,1.279,6.582,6.143,4.309,9.576-2.625,3.968-18.446,3.1-18.551,3.092a28.356,28.356,0,0,0,7.478,2.384c6.083.967,12.888-1.847,12.888-1.847Z" transform="translate(151.566 65.946)" fill="#fff"/>
          <path id="Trazado_15931" data-name="Trazado 15931" d="M70.825,61.613c-6.259-1.274-11.919.141-13.723,4.352a13.394,13.394,0,0,0,1.272,12.247,14.738,14.738,0,0,0,3.877,3.376C61,79.244,53.907,64.418,72.977,62.179a19.554,19.554,0,0,0-2.152-.566" transform="translate(71.613 77.983)" fill="#fff"/>
          <path id="Trazado_15932" data-name="Trazado 15932" d="M64.5,95.615c-7.96-8.2.992-19.916.992-19.916a6.969,6.969,0,0,1-2.25-.114s-5.858,4.106-5.872,9.689,2.578,9.187,5.258,9.926c.548.152,1.2.287,1.9.444l-.025-.03" transform="translate(73.154 96.375)" fill="#fff"/>
          <path id="Trazado_15935" data-name="Trazado 15935" d="M122.248,74.108c-3.162,0-5.735-3.237-5.735-7.219s2.573-7.221,5.735-7.221,5.738,3.24,5.738,7.221-2.575,7.219-5.738,7.219m0-13.514c-2.653,0-4.812,2.826-4.812,6.3s2.159,6.293,4.812,6.293,4.809-2.823,4.809-6.293-2.157-6.3-4.809-6.3" transform="translate(148.558 76.079)" fill="#1a1a1a"/>
          <path id="Trazado_15938" data-name="Trazado 15938" d="M167.858,101.3c-3.194-5.922-5.656-9.63-7.94-11.6-10.113-8.7-19.545-10.165-27.865-11.459-.726-.116-1.447-.225-2.157-.341a2.328,2.328,0,0,1,2.3-.576c8.443,1.315,18.009,2.807,28.32,11.673,2.386,2.052,4.925,5.856,7.756,11.635-.278.651-.346.667-.414.667" transform="translate(165.623 98.497)" fill="#1a1a1a"/>
          <path id="Trazado_15939" data-name="Trazado 15939" d="M137.594,191.224c-26.609,0-42.821-5.49-49.5-16.726-7-11.8-3.281-29.43,11.723-55.477,8.463-14.69,19.374-26.47,23.328-29.871,10.315-8.87,19.886-10.361,28.331-11.675.723-.114,1.44-.223,2.15-.339a2.3,2.3,0,0,1-2.009,1.256c-8.32,1.3-17.752,2.764-27.865,11.459-3.92,3.372-14.729,15.045-23.13,29.63-14.822,25.726-18.548,43.057-11.73,54.542,6.793,11.437,24.843,16.915,53.57,16.214,3.913-.089,15.686,0,15.8,0-.123.926-11.883.833-15.777.926q-2.5.061-4.9.061" transform="translate(107.98 98.35)" fill="#1a1a1a"/>
          <path id="Trazado_15940" data-name="Trazado 15940" d="M121.085,110.723c-.457-.373-6.261-29.735-6.261-29.735.146-.435,6.866-6.445,6.866-6.445C122.368,74.609,132.3,87.8,132.3,87.8l9.41-13.182c.678-.084,7.785,5.926,7.785,5.926.152.441-5.476,29.8-5.476,29.8-.905-.175,4.668-29.271,4.668-29.271l-6.516-5.512-9.485,13.286c-.746.011-10.752-13.282-10.752-13.282l-6.145,5.5,5.754,29.1c-.4.551-.428.553-.455.553" transform="translate(146.405 95.045)" fill="#1a1a1a"/>
          <path id="Trazado_15941" data-name="Trazado 15941" d="M118.066,102.964c-.419-.657,9.705-22.336,9.705-22.336.839,0,10.886,21.679,10.886,21.679-.837.389-10.47-20.382-10.47-20.382l-9.7,20.773a.467.467,0,0,1-.419.266" transform="translate(150.522 102.804)" fill="#1a1a1a"/>
          <path id="Trazado_15942" data-name="Trazado 15942" d="M122.5,91.084c-.428-.284-2.514-5.292-2.514-5.292.86-.357,2.823,4.364,2.823,4.364l6.347-.011,1.681-4.072c.86.353-.942,4.712-.942,4.712-.43.287-7.4.3-7.4.3" transform="translate(152.992 109.363)" fill="#1a1a1a"/>
          <path id="Trazado_15943" data-name="Trazado 15943" d="M120.583,93.75c-.448-.571.837-5.895.837-5.895.9.218-.387,5.542-.387,5.542a.459.459,0,0,1-.45.353" transform="translate(153.627 112.018)" fill="#1a1a1a"/>
          <path id="Trazado_15944" data-name="Trazado 15944" d="M126.011,93.626c-.444-.328-2.048-5.665-2.048-5.665.887-.266,2.491,5.069,2.491,5.069-.355.589-.4.6-.444.6" transform="translate(158.057 112.142)" fill="#1a1a1a"/>
          <path id="Trazado_15945" data-name="Trazado 15945" d="M129.118,74.108c-3.162,0-5.735-3.237-5.735-7.219s2.573-7.221,5.735-7.221,5.74,3.24,5.74,7.221-2.575,7.219-5.74,7.219m0-13.514c-2.653,0-4.809,2.826-4.809,6.3s2.157,6.293,4.809,6.293,4.812-2.823,4.812-6.293-2.157-6.3-4.812-6.3" transform="translate(157.318 76.079)" fill="#1a1a1a"/>
          <path id="Trazado_15946" data-name="Trazado 15946" d="M126.115,64.243a4.006,4.006,0,0,0-2.716-1.208,2.64,2.64,0,0,0-1.7.89c-.689-.623.184-1.711,1.627-1.815a4.1,4.1,0,0,1,3.11,1.335c-.071.753-.193.8-.316.8" transform="translate(154.859 79.182)" fill="#1a1a1a"/>
          <path id="Trazado_15947" data-name="Trazado 15947" d="M131.131,72.715a5.278,5.278,0,0,1-2.434-.594,6.922,6.922,0,0,1,2.707-.344,4.368,4.368,0,0,0,2.621-7.63,4.371,4.371,0,0,0-4.6-.746c.191-1.087.773-1.224,1.376-1.263a5.34,5.34,0,0,1,3.833,1.313,5.3,5.3,0,0,1-3.167,9.255c-.116,0-.225.009-.337.009" transform="translate(164.093 79.219)" fill="#1a1a1a"/>
          <path id="Trazado_15948" data-name="Trazado 15948" d="M132.219,69.11c-.284-.1-3.54-2.612-3.54-2.612.007-.742,3.608-3.408,3.608-3.408.548.748-2.557,3.046-2.557,3.046l2.769,2.143c-.007.771-.143.83-.28.83" transform="translate(164.07 80.442)" fill="#1a1a1a"/>
          <path id="Trazado_15949" data-name="Trazado 15949" d="M118.065,72.715a5.294,5.294,0,1,1,.328-10.577,5.316,5.316,0,0,1,1.738.407,2.036,2.036,0,0,1-1.8.516,4.366,4.366,0,1,0,1.738,8.236,1.793,1.793,0,0,1-2.009,1.417" transform="translate(143.783 79.219)" fill="#1a1a1a"/>
          <path id="Trazado_15950" data-name="Trazado 15950" d="M114.974,68.765c-.284-.83,2.493-2.973,2.493-2.973l-3.11-2.3c.553-.748,4.152,1.918,4.152,1.918.009.742-3.251,3.258-3.251,3.258a.475.475,0,0,1-.284.1" transform="translate(145.809 80.787)" fill="#1a1a1a"/>
          <path id="Trazado_15951" data-name="Trazado 15951" d="M118.238,78.755c-.464-.464-.464-6.488-.464-6.488.926,0,.926,6.024.926,6.024a.463.463,0,0,1-.462.464" transform="translate(150.166 92.143)" fill="#1a1a1a"/>
          <path id="Trazado_15952" data-name="Trazado 15952" d="M127.26,78.187c-.46-.437-.783-5.867-.783-5.867.921-.052,1.244,5.378,1.244,5.378-.441.489-.453.489-.462.489" transform="translate(161.263 92.209)" fill="#1a1a1a"/>
          <path id="Trazado_15953" data-name="Trazado 15953" d="M148.572,77.258c1.952-10.135-1.215-15.907-2.566-18.371-3.235-5.895-11.619-7.806-18.221-6.639a11.923,11.923,0,0,0-7.16,4.543,7.593,7.593,0,0,0-2.514,1.285c-2.493,1.975-2.4,5.469-2.4,5.5-.034,4.015.544,13.1.551,13.184-.933-.032-1.511-9.146-1.474-13.17a8.153,8.153,0,0,1,2.751-6.243,6.184,6.184,0,0,1,2.432-1.233,12.653,12.653,0,0,1,7.658-4.787c6.937-1.219,15.746.835,19.195,7.112,2.184,3.981,4.407,9.678,2.2,18.464a.466.466,0,0,1-.45.35" transform="translate(146.353 65.023)" fill="#1a1a1a"/>
          <g id="Grupo_10049" data-name="Grupo 10049" transform="matrix(0.985, -0.174, 0.174, 0.985, -0.259, 54.969)">
            <path id="Trazado_15954" data-name="Trazado 15954" d="M151.339,15.148a7.661,7.661,0,0,1-1.984-.264,7.573,7.573,0,0,1-5.321-9.3,7.574,7.574,0,1,1,7.305,9.562M151.332.922a6.682,6.682,0,1,0,1.756.237,6.706,6.706,0,0,0-1.756-.237" transform="translate(173.303 -10)" fill="#1a1a1a"/>
            <path id="Trazado_15955" data-name="Trazado 15955" d="M208.293,39.386a36.948,36.948,0,0,1-2.323-3.035,4.684,4.684,0,0,1,2.712,2.318c-.216.692-.3.717-.389.717M203.1,32.318c-1.474-1.527-2.66-2.857-3.87-4.136a9.593,9.593,0,0,1,4.229,3.378c-.15.721-.259.758-.359.758m-7.346-7.724c-1.624-1.313-2.983-2.466-4.35-3.549a9.519,9.519,0,0,1,4.662,2.744c-.059.753-.187.805-.312.805m-8.37-6.6c-1.706-1.067-3.217-2.018-4.741-2.907a9.561,9.561,0,0,1,5,2.059c.034.776-.109.849-.259.849m-9.2-5.371c-1.779-.826-3.406-1.565-5.035-2.243a9.652,9.652,0,0,1,5.242,1.365c.127.785-.034.878-.207.878m-9.835-4.1c-1.8-.594-3.5-1.124-5.217-1.6a9.852,9.852,0,0,1,5.365.7c.221.785.039.9-.148.9M158.077,5.645c-1.8-.384-3.549-.721-5.315-1.017a9.973,9.973,0,0,1,5.415.1c.3.769.111.917-.1.917" transform="translate(184.777 -4.532)" fill="#1a1a1a"/>
            <path id="Trazado_15956" data-name="Trazado 15956" d="M107.7,35.842a13.6,13.6,0,0,1,3-4.916,12.469,12.469,0,0,1-2.63,4.734.46.46,0,0,1-.369.182m6.966-8.07a12.732,12.732,0,0,1,3.563-4.482A12.479,12.479,0,0,1,115,27.633a.465.465,0,0,1-.33.139m7.985-7.069a11.938,11.938,0,0,1,4.079-3.956,12.462,12.462,0,0,1-3.8,3.861.474.474,0,0,1-.282.1m8.875-5.9a11.254,11.254,0,0,1,4.525-3.353,12.548,12.548,0,0,1-4.3,3.294.468.468,0,0,1-.23.059m9.607-4.611a10.657,10.657,0,0,1,4.875-2.712,12.594,12.594,0,0,1-4.7,2.68.474.474,0,0,1-.171.032m10.138-3.287a10.3,10.3,0,0,1,5.119-2.077,12.5,12.5,0,0,1-5,2.063.5.5,0,0,1-.116.014M161.74,4.9A10.156,10.156,0,0,1,167,3.422,12.118,12.118,0,0,1,161.8,4.9l-.059,0m10.631-.819a9.927,9.927,0,0,1,5.34-.935,12.035,12.035,0,0,1-5.328.935Z" transform="translate(127.323 -6.006)" fill="#1a1a1a"/>
          </g>
          <path id="Trazado_15957" data-name="Trazado 15957" d="M244.648,153.916a9.394,9.394,0,0,1-2.359,4.871.467.467,0,0,1-.364.177m5.858-8.9a23.469,23.469,0,0,1,1.936-5.428,9.443,9.443,0,0,1-1.527,5.187.466.466,0,0,1-.41.241m4.318-9.733a27.114,27.114,0,0,1,1.112-5.678,9.446,9.446,0,0,1-.676,5.369.463.463,0,0,1-.437.309m2.719-10.3a32.027,32.027,0,0,1,.3-5.79,9.555,9.555,0,0,1,.157,5.412.465.465,0,0,1-.46.378m1.138-10.6a8.7,8.7,0,0,1-.419-3.076c0-.9-.02-1.8-.052-2.7a3.176,3.176,0,0,1,.983,2.7q0,1.317-.048,2.635a.465.465,0,0,1-.464.444m-.369-10.649a44.972,44.972,0,0,1-1.176-5.669,9.6,9.6,0,0,1,1.636,5.16c-.43.51-.446.51-.46.51m-1.784-10.511a54.861,54.861,0,0,1-1.843-5.476,9.674,9.674,0,0,1,2.291,4.9c-.378.566-.416.571-.448.571m-3.124-10.194c-1.069-1.968-1.759-3.617-2.482-5.192a9.541,9.541,0,0,1,2.914,4.564c-.325.617-.38.628-.432.628m-4.445-9.7c-1.258-1.8-2.166-3.34-3.105-4.8a9.479,9.479,0,0,1,3.515,4.118c-.257.669-.332.683-.409.683m-5.774-8.955c-1.465-1.613-2.609-2.983-3.763-4.248a9.237,9.237,0,0,1,4.131,3.5c-.171.717-.271.746-.369.746m-7.2-7.858c-1.649-1.324-3.037-2.432-4.425-3.422a8.758,8.758,0,0,1,4.734,2.614c-.059.755-.184.808-.309.808m-8.7-6.129a41.378,41.378,0,0,0-5.046-2.116,8.187,8.187,0,0,1,5.258,1.242c.116.785-.043.874-.212.874m-10.072-3.322" transform="translate(266.741 65.061)" fill="#1a1a1a"/>
          <path id="Trazado_15958" data-name="Trazado 15958" d="M141.277,157.184c-.464-.744-.471-28.549-1.222-38.425,1.677,9.844,1.688,37.681,1.688,37.961a.465.465,0,0,1-.466.464" transform="translate(178.575 151.422)" fill="#1a1a1a"/>
          <path id="Trazado_15959" data-name="Trazado 15959" d="M103.613,146.559c-.462-.471-.2-19.467-.2-19.467.928.011.664,19.01.664,19.01a.461.461,0,0,1-.462.457" transform="translate(131.76 162.047)" fill="#1a1a1a"/>
          <path id="Trazado_15960" data-name="Trazado 15960" d="M382.405,136.168H14.625c0-.926,367.78-.926,367.78-.926.464.719.255.926,0,.926" transform="translate(18.647 172.438)" fill="#1a1a1a"/>
          <path id="Trazado_15961" data-name="Trazado 15961" d="M123.007,144.171c-.462-.464-.462-20.744-.462-20.744.924,0,.924,20.28.924,20.28a.463.463,0,0,1-.462.464" transform="translate(156.249 157.374)" fill="#1a1a1a"/>
          <path id="Trazado_15963" data-name="Trazado 15963" d="M129.162,124.4a55.22,55.22,0,0,1-8.292-.685c18.373,1.859,22.282-4.994,22.318-5.062.689.685-2.1,5.747-14.026,5.747" transform="translate(154.114 151.283)" fill="#1a1a1a"/>
          <path id="Trazado_15964" data-name="Trazado 15964" d="M132.491,128.614c-1.4,0-2.812-.05-4.279-.1-.958-.036-1.945-.071-2.98-.093a37.391,37.391,0,0,1-3.99-.312,14.214,14.214,0,0,1-3.847-.783,5.289,5.289,0,0,1-2.5-2.609c1.426.739,2.038,1.392,2.873,1.761a10.961,10.961,0,0,0,2.992.637,39.69,39.69,0,0,0,4.5.378c1.037.025,2.029.061,2.992.093,5.33.187,9.539.344,15.179-1.636,2.917-1.024,5.656-4.755,5.656-6.427.928,2.179-2.175,6.188-5.351,7.3a32.12,32.12,0,0,1-11.239,1.79" transform="translate(146.494 152.394)" fill="#1a1a1a"/>
          <path id="Trazado_15965" data-name="Trazado 15965" d="M161.569,156.108a15.853,15.853,0,0,1-4.038-.5,38.473,38.473,0,0,1-13.969-6.479,72.9,72.9,0,0,0,14.205,5.583c5.537,1.467,13.05-.692,17.832-5.135,5.776-5.358,6.031-14.358,6.259-22.3.055-1.847.1-3.588.218-5.249.751-10.875-.978-37.5-.994-37.768.942.209,2.675,26.9,1.918,37.832-.111,1.64-.162,3.376-.214,5.21-.234,8.122-.5,17.333-6.554,22.953a22.326,22.326,0,0,1-14.663,5.854" transform="translate(183.047 107.435)" fill="#1a1a1a"/>
          <path id="Trazado_15966" data-name="Trazado 15966" d="M148.1,141.99c-3.4-9.753-1.153-55.952-1.056-57.916.9.526-1.415,48.044,1.5,57.313-.35.6-.4.6-.441.6" transform="translate(186.439 107.197)" fill="#1a1a1a"/>
          <path id="Trazado_15967" data-name="Trazado 15967" d="M162.367,90.274c-7.847,0-15.787-1.424-15.787-4.145,0-1.6,1.7-2.7,5.205-3.358-1.859,1.292-4.277,2.025-4.277,3.358s5.654,3.217,14.858,3.217,14.858-1.875,14.858-3.217c0-.981-1.6-1.9-4.282-2.448,4.341-.057,5.212,1.39,5.212,2.448,0,2.721-7.942,4.145-15.789,4.145" transform="translate(186.896 105.536)" fill="#1a1a1a"/>
          <path id="Trazado_15968" data-name="Trazado 15968" d="M155.914,101.33a3.8,3.8,0,0,1-.587-2.113c-.166-3.385-.446-9.05-5.951-13.837-3.92-3.413-5.683-5.967-5.556-8.045a4.1,4.1,0,0,1,2.132-3.126c3.256-2.189,5.615.505,7.69,2.892,1.508,1.74,3.074,3.542,4.955,3.674,5.085.366,6.825,5.328,6.9,5.54-.942.111-2.5-4.293-6.968-4.614-2.259-.164-3.952-2.109-5.59-3.993-2.084-2.4-3.883-4.461-6.466-2.73a3.244,3.244,0,0,0-1.731,2.418c-.109,1.738,1.608,4.122,5.242,7.28,5.806,5.048,6.109,11.193,6.27,14.494.03.651.059,1.208.118,1.629-.416.528-.437.53-.457.53" transform="translate(183.367 93.589)" fill="#1a1a1a"/>
          <path id="Trazado_15969" data-name="Trazado 15969" d="M149.754,88.39a34.194,34.194,0,0,1-.339-9.51c.1-1.624.225-3.467.291-5.61a7.484,7.484,0,0,1,1.072-4.106,4.389,4.389,0,0,1,4.1-1.706,3.265,3.265,0,0,1,2.65,1.947,4.638,4.638,0,0,1,.216,1.442,121.567,121.567,0,0,1-.485,16.967c-.212-6.017-.318-13.186-.446-16.935a3.962,3.962,0,0,0-.152-1.158,2.345,2.345,0,0,0-1.913-1.347,3.478,3.478,0,0,0-3.235,1.351,6.577,6.577,0,0,0-.878,3.576c-.073,2.154-.191,4.006-.3,5.64a59.607,59.607,0,0,0-.127,8.952c-.439.5-.448.5-.46.5" transform="translate(190.288 85.955)" fill="#1a1a1a"/>
          <path id="Trazado_15970" data-name="Trazado 15970" d="M158.575,88.184c.187-5.845.33-11.566-.027-17.522a2.956,2.956,0,0,0-.328-1.436,2.613,2.613,0,0,0-1.984-.93,3.328,3.328,0,0,0-3.294,2.1c-.086-2.1,1.506-3.058,3.324-3.028A3.553,3.553,0,0,1,159,68.716a3.709,3.709,0,0,1,.475,1.886,95.4,95.4,0,0,1-.437,17.174.462.462,0,0,1-.46.407" transform="translate(195.002 85.895)" fill="#1a1a1a"/>
          <path id="Trazado_15971" data-name="Trazado 15971" d="M160.507,108.005a92.622,92.622,0,0,0-.346-13.8,21.433,21.433,0,0,1-.139-4.161c.592-4.493,1.67-12.7,1.019-18.1a4.109,4.109,0,0,0-.805-2.339,2.471,2.471,0,0,0-2.077-.667,3.051,3.051,0,0,0-2.3,1.092c.08-1.633,1.2-1.9,2.2-2.013a3.365,3.365,0,0,1,2.862.958,4.865,4.865,0,0,1,1.049,2.857c.664,5.519-.423,13.8-1.006,18.25a20,20,0,0,0,.125,4.04,56.917,56.917,0,0,1-.114,13.475.466.466,0,0,1-.462.4" transform="translate(198.721 86.697)" fill="#1a1a1a"/>
          <path id="Trazado_15972" data-name="Trazado 15972" d="M119.843,143.983c-2.778,0-4.648-7.539-5-14.708-.357-7.23.787-14.992,3.608-15.134a6.053,6.053,0,0,1,1.652.571,1.641,1.641,0,0,1-1.627.355c-1.406.071-3.135,5.492-2.707,14.162s2.68,13.916,4.1,13.825c.373-.016,2.25-.51,2.6-8.452.594,7.635-1.149,9.309-2.553,9.378-.023,0-.05,0-.075,0" transform="translate(146.35 145.534)" fill="#1a1a1a"/>
          <path id="Trazado_15974" data-name="Trazado 15974" d="M68.924,153.376c-16.551,0-33.68-21.92-42.987-43.269.091-.512,3.64-5.105,9.173-8.866,7.344-5,11.332-6.493,11.5-6.557.7.323,21.988,21.715,28.547,34.849-6.968-11.88-26.24-31.582-28.5-33.868a66.386,66.386,0,0,0-11.027,6.341,43.126,43.126,0,0,0-8.732,7.988c9.664,22.027,27.612,44.566,44.384,42.3,17.8-2.437,25.33-25.48,33.334-55.349-7.2,30.447-14.847,53.752-33.209,56.266a18.153,18.153,0,0,1-2.484.168" transform="translate(33.071 120.727)" fill="#1a1a1a"/>
          <path id="Trazado_15975" data-name="Trazado 15975" d="M43.228,131.984a145.99,145.99,0,0,1,5.217-13.741c8.158-19.415,14.6-34.749,27.6-35.9C63.687,84.368,57.338,99.476,49.3,118.6c-1.786,4.252-3.635,8.652-5.647,13.109a.461.461,0,0,1-.423.273" transform="translate(55.117 104.993)" fill="#1a1a1a"/>
          <path id="Trazado_15976" data-name="Trazado 15976" d="M63.286,81.983a5.5,5.5,0,0,1-4.536-2.389,14.1,14.1,0,0,1,2.926,1.167,4.586,4.586,0,1,0-1.169-7.933c.962-1.9,2.937-2.2,4.734-1.517a5.513,5.513,0,0,1-1.954,10.672" transform="translate(74.908 90.501)" fill="#1a1a1a"/>
          <path id="Trazado_15977" data-name="Trazado 15977" d="M62.5,77.806a39.548,39.548,0,0,1-2.828-3.558c.246-.719,4.425-1.927,4.425-1.927.259.892-3.285,1.916-3.285,1.916l2.063,2.832c-.184.708-.28.737-.375.737" transform="translate(76.081 92.212)" fill="#1a1a1a"/>
          <path id="Trazado_15978" data-name="Trazado 15978" d="M61.182,93.771c-2.76-.255-4.689-1.263-5.781-3-2.036-3.235-.384-7.774-.316-7.967L58.8,67.642c.9.221-2.828,15.436-2.828,15.436-.03.093-1.577,4.357.218,7.2.933,1.479,2.625,2.339,5.037,2.564.4.746.193.926-.043.926" transform="translate(69.346 86.246)" fill="#1a1a1a"/>
          <path id="Trazado_15979" data-name="Trazado 15979" d="M55.752,80.261c-1.6-.373-2.225-1.479-1.925-2.541l2.3-8.2a2,2,0,0,1,2.464-1.383,1.739,1.739,0,0,1,1.106.778,1.719,1.719,0,0,1,.089,1.349c-.735-.819-.878-1.074-1.447-1.235-1.32.744-3.622,8.945-3.622,8.945,1.306,1.479,1.9,1.153,2.066.58.646,1.133-.159,1.711-1.033,1.711" transform="translate(68.538 86.775)" fill="#1a1a1a"/>
          <path id="Trazado_15980" data-name="Trazado 15980" d="M44.811,155.628c.425-3.2,5.208-30.749,5.74-35.6.35,5.274-4.4,32.6-5.3,35.288a.463.463,0,0,1-.439.316" transform="translate(57.136 153.035)" fill="#1a1a1a"/>
          <path id="Trazado_15981" data-name="Trazado 15981" d="M76.86,143.533a7.068,7.068,0,0,1-3.192-.66c.676-.692,6.379,2.168,14.046-6.486,7.1-8.017-4.559-33.291-9.9-43.785,7.571,12.827,17.809,36.26,10.595,44.4-4.759,5.374-8.879,6.532-11.546,6.532" transform="translate(93.929 118.071)" fill="#1a1a1a"/>
          <path id="Trazado_15982" data-name="Trazado 15982" d="M78.86,188.724c-.519-.726-6.745-35.181-4.971-52.558,1.729-16.869,2.277-31.427,1.6-42.1,1.611,10.665,1.058,25.276-.673,42.2-1.763,17.245,4.441,51.571,4.5,51.916-.4.544-.428.546-.455.546" transform="translate(93.806 119.939)" fill="#1a1a1a"/>
          <path id="Trazado_15983" data-name="Trazado 15983" d="M64.741,99.725c-.241-.064-.9-.344-3.608-1.053-4.557-1.188-6.509-3.508-8.395-5.749l-.632-.742A20.891,20.891,0,0,0,50.47,90.55c-1.406-1.3-2.732-2.541-2.719-4.006A3,3,0,0,1,48.93,84.33a2.6,2.6,0,0,1,1.963-.678c2.157.121,4.48,2.493,5.378,3.508a20.951,20.951,0,0,0,2.118,2.12,51.329,51.329,0,0,0-3.515-3.752l-.987-.994A52.7,52.7,0,0,0,48.9,80.517a32.961,32.961,0,0,1-3.783-3.051,2.764,2.764,0,0,1,.073-3.208,3.059,3.059,0,0,1,3.294-1.588c2.282.551,5.146,3.042,6.684,4.382,1,.114,1.661-.51,2.876-.719,2.732-.471,4.229.228,4.83.63a3.707,3.707,0,0,1,2.569-.528,12.946,12.946,0,0,1,2.232.671,2.839,2.839,0,0,1-2.4.241,3.016,3.016,0,0,0-2.132.546c-.63-.045-1.847-1.192-4.946-.646a3.162,3.162,0,0,0-1.761.928c-.241.228-.61.571-1.019.291-.143-.093-.446-.355-.862-.717-1.374-1.194-4.227-3.683-6.29-4.182a2.176,2.176,0,0,0-2.282,1.169,1.939,1.939,0,0,0-.173,2.118,34.682,34.682,0,0,0,3.642,2.919,52.463,52.463,0,0,1,5.089,4.106l.99.994c2.566,2.575,4.131,4.2,4.238,5.064-.569.842-1.265,1.151-4.2-2.168-1.713-1.929-3.483-3.126-4.737-3.2a1.606,1.606,0,0,0-1.29.444,2.162,2.162,0,0,0-.876,1.533c-.007,1.056,1.174,2.154,2.427,3.319a22.733,22.733,0,0,1,1.706,1.7l.639.751c1.877,2.23,3.647,4.334,7.922,5.453a27.174,27.174,0,0,1,3.567,1.065c.146.785-.023.883-.2.883" transform="translate(56.918 92.556)" fill="#1a1a1a"/>
          <path id="Trazado_15984" data-name="Trazado 15984" d="M55.729,81.051A45.125,45.125,0,0,0,49.368,75.2c.753-.594,5.221,2.832,6.748,5.126-.209.7-.3.721-.387.721" transform="translate(62.946 95.801)" fill="#1a1a1a"/>
          <path id="Trazado_15985" data-name="Trazado 15985" d="M57.142,78.843A51.949,51.949,0,0,0,52.528,75c.653-.669,3.224,1.206,4.953,3.06-.114.737-.228.778-.339.778" transform="translate(66.975 95.457)" fill="#1a1a1a"/>
          <path id="Trazado_15986" data-name="Trazado 15986" d="M88.509,141.439a15.033,15.033,0,0,1-4.473-.671,10.471,10.471,0,0,1-6.807-5.708,31.209,31.209,0,0,1-1.793-7.549c-.084-.562-.168-1.126-.259-1.688-.673-4.138-1.756-8.188-5.076-9.8a14.819,14.819,0,0,0-3.2-1,9.887,9.887,0,0,1-5.082-2.289,10.86,10.86,0,0,1-3.019-8.363,12.228,12.228,0,0,1,6.429-10.472c.162.951-5.31,3.6-5.5,10.5a10.1,10.1,0,0,0,2.737,7.667,9,9,0,0,0,4.646,2.054,15.522,15.522,0,0,1,3.4,1.065c3.7,1.793,4.871,6.1,5.585,10.486.091.562.177,1.128.264,1.7a30.23,30.23,0,0,0,1.729,7.326,9.568,9.568,0,0,0,6.227,5.185,13.3,13.3,0,0,0,10.638-1.072,16.217,16.217,0,0,0,4.887-5.187c3.8-6.077,4.461-12.087,2.277-20.739-2.555-10.133-6.568-14.048-10.809-18.193-.953-.928-1.936-1.891-2.921-2.937a3.42,3.42,0,0,1-1.1-2.082,6.58,6.58,0,0,1,1.065-3.16A40.841,40.841,0,0,0,90.3,82.477a14.627,14.627,0,0,0,.919-7.84c-.981-5.437-10.977-7.671-11.077-7.692-4.971-4.338-13.334-6.827-19.085-3.665-5.524,3.042-4.065,9.646-4.05,9.712.009.391.032,6.939,10.217,10.8-11.161-3.242-11.139-10.4-11.132-10.706-.014,0-1.595-7.253,4.518-10.618,6.063-3.347,14.824-.8,19.847,3.595,1.235.287,10.633,2.644,11.671,8.406a15.487,15.487,0,0,1-.965,8.338A28.453,28.453,0,0,1,89.813,85.7c-1.1,2.086-1.652,3.119-1.606,3.92a2.65,2.65,0,0,0,.853,1.5c.969,1.031,1.945,1.986,2.892,2.91,4.341,4.238,8.44,8.242,11.059,18.626,2.257,8.927,1.563,15.145-2.389,21.46a17.111,17.111,0,0,1-5.176,5.478,13.089,13.089,0,0,1-6.937,1.843" transform="translate(71.273 77.694)" fill="#1a1a1a"/>
          <path id="Trazado_15987" data-name="Trazado 15987" d="M38.363,123.542c1.95-6.407,7.758-9.987,14.729-9.987,6.72,0,12.479,3.474,15.029,9.068a17.962,17.962,0,0,0-15.029-8.145c-6.589,0-12.067,3.363-14.3,8.777a.465.465,0,0,1-.43.287" transform="translate(48.914 144.787)" fill="#1a1a1a"/>
          <path id="Trazado_15988" data-name="Trazado 15988" d="M.462,91.929C0,91.468,0,65.177,0,65.177A11.6,11.6,0,0,1,11.584,53.595H129.022c0,.924-117.437.924-117.437.924A10.672,10.672,0,0,0,.926,65.177v26.29a.463.463,0,0,1-.464.462" transform="translate(0 68.336)" fill="#1a1a1a"/>
          <path id="Trazado_15989" data-name="Trazado 15989" d="M58.814,143.724H11.584A11.6,11.6,0,0,1,0,132.139V86.75c.926,0,.926,45.389.926,45.389A10.67,10.67,0,0,0,11.584,142.8h47.23c.462.721.255.926,0,.926" transform="translate(0 110.609)" fill="#1a1a1a"/>
          <path id="Trazado_15991" data-name="Trazado 15991" d="M130.323,96.427c-14.465,0-14.465-9.405-14.465-24.991V66.71c.839-1.006,2.307-5.835,3.117-8.9a10.271,10.271,0,0,1-1.82-2.141c.853-.373,5.694,7.885,20.355,5.053,1.117-.216,5.31-1.138,5.31-1.138.56.382,1.982,5.583,2.655,6.912.048.189.266,5.492.266,5.492,0,14.722,0,24.434-15.418,24.434M116.782,66.883v4.552c0,15.518,0,24.065,13.541,24.065,14.49,0,14.49-8.343,14.49-23.487l-.209-5.187a59.644,59.644,0,0,1-2.018-6.238c-1.1.243-4,.876-4.9,1.049-9.437,1.827-15.027-.824-17.93-3.151-.562,2.084-1.984,7.109-2.973,8.4" transform="translate(147.723 70.971)" fill="#1a1a1a"/>
          <path id="Trazado_15992" data-name="Trazado 15992" d="M122.979,76.165c-.334-.114-3.322-1.633-2.917-4,.257-1.488,1.745-1.456,2.814-1.442.935.025,1.331-.018,1.372-.287.228-1.479.162-10.074.162-10.158.93.348.992,8.745.755,10.3-.168,1.115-1.358,1.1-2.307,1.074-1.185-.023-1.777.034-1.884.673-.287,1.684,2.186,2.948,2.211,2.962.127.783-.039.876-.207.876" transform="translate(153.036 76.86)" fill="#1a1a1a"/>
          <path id="Trazado_15993" data-name="Trazado 15993" d="M123.682,71.421a5.125,5.125,0,0,1-1.586-.275c1.315-.546,2.166-.576,2.816-.981a3.473,3.473,0,0,0,1.335-2.209c.905.212.619,2.086-.844,2.994a3.184,3.184,0,0,1-1.722.471" transform="translate(155.677 86.646)" fill="#1a1a1a"/>
          <path id="Trazado_15996" data-name="Trazado 15996" d="M174.737,129.406c-1.922-1.042-2.639-3.26-2.255-6.309s1.59-5.242,3.606-6.536a8.761,8.761,0,0,1,1.477-.751,21.946,21.946,0,0,1,2.719-.839,10.511,10.511,0,0,0,4.709-2.077,4.973,4.973,0,0,0,1.281-4.423,216.882,216.882,0,0,0-3.815-21.708A11.3,11.3,0,0,1,187.7,77.5c6.8-4.573,15.827-4.04,23.774-2.919,2.532.359,5.087,1.108,6.62,4.127,1.638,3.24,1.422,7.148,1.119,9.805-.63-2.644-.419-6.37-1.95-9.387-1.265-2.493-3.278-3.253-5.917-3.626-7.774-1.1-16.6-1.627-23.13,2.771a10.39,10.39,0,0,0-4.837,8.336c.2.8,2.011,8.324,3.824,21.74a5.919,5.919,0,0,1-1.572,5.23,11.406,11.406,0,0,1-5.105,2.291,21.12,21.12,0,0,0-2.609.8,7.826,7.826,0,0,0-1.32.676c-1.777,1.138-2.848,3.115-3.192,5.87-.193,1.54-.246,4.277,1.57,5.33.08.783-.073.865-.234.865" transform="translate(219.793 94.103)" fill="#1a1a1a"/>
          <path id="Trazado_15997" data-name="Trazado 15997" d="M166.406,139.074c14.747-13.966,48.351-16.121,48.693-16.141-.282.946-33.577,3.083-48.388,16.028a.47.47,0,0,1-.3.114" transform="translate(212.174 156.744)" fill="#1a1a1a"/>
          <path id="Trazado_15998" data-name="Trazado 15998" d="M164.391,185.8a30.593,30.593,0,0,1-3.574-9.612c-.264-1.306-.473-2.625-.623-3.92-1.884-16.323,4.787-33.3,9.967-44.654,7.059-15.459,15.686-25.7,26.381-31.3C186.468,102.638,177.973,112.735,171,128c-5.137,11.25-11.746,28.069-9.887,44.165.143,1.269.35,2.559.605,3.838a37.921,37.921,0,0,0,3.083,9.13c-.278.653-.346.669-.414.669" transform="translate(203.837 122.806)" fill="#1a1a1a"/>
          <path id="Trazado_15999" data-name="Trazado 15999" d="M223.19,126.937a19.931,19.931,0,0,1-1.752-3.426c-7.078-16.351-16.082-25.126-28.331-27.619-.958-.193-3.856-.7-3.856-.7.159-.915,3.074-.4,4.038-.209,12.4,2.523,21.89,11.735,29,28.158.171.4,1.158,2.751,1.324,3.151-.3.632-.366.644-.425.644" transform="translate(241.302 120.701)" fill="#1a1a1a"/>
          <path id="Trazado_16000" data-name="Trazado 16000" d="M193.392,105.077c-.423,0-.871-.018-1.354-.061-1.552-.132-3.829-.41-5.421-.728a14.138,14.138,0,0,1,5.5-.193,9.5,9.5,0,0,0,3.733-.278A5.326,5.326,0,0,0,199.3,100c1.126-3.426,1.065-7.144,1-10.738-.034-2.409-.1-4.361-.159-6.311l-.071-2.07c.9-.88.994,2.041.994,2.041.066,1.957.127,3.913.159,5.867.068,4.131.127,7.926-1.042,11.5a6.2,6.2,0,0,1-4.05,4.407,8.954,8.954,0,0,1-2.739.38" transform="translate(237.943 102.914)" fill="#1a1a1a"/>
          <path id="Trazado_16001" data-name="Trazado 16001" d="M188.142,125.353a29.911,29.911,0,0,1-11.926-2.894c5.785,1.542,10.615,2.412,14.66,1.754a9.646,9.646,0,0,0,7.48-5.986,13.4,13.4,0,0,0-1.188-12.574c-.434-.635-.9-1.256-1.372-1.877-2.2-2.926-4.477-5.949-3.149-10.142a13.1,13.1,0,0,1,3.278-4.734c.3-.321.594-.637.871-.951,1.947-2.191,3.617-4.243,5.107-6.279,2.894-3.772,3.344-4.739,3.4-5.005.908-.3,2.8,2.264,8.768,8.081a40.738,40.738,0,0,1-8.126-7.226,35.676,35.676,0,0,1-3.078,4.42c-1.718,2.339-3.406,4.414-5.374,6.625-.284.319-.582.639-.887.969a12.391,12.391,0,0,0-3.071,4.377c-1.185,3.738.851,6.443,3.008,9.309.471.63.949,1.265,1.39,1.911a14.328,14.328,0,0,1,1.279,13.459,10.539,10.539,0,0,1-8.179,6.534,17.866,17.866,0,0,1-2.889.227" transform="translate(224.682 97.721)" fill="#1a1a1a"/>
          <path id="Trazado_16002" data-name="Trazado 16002" d="M187.893,82.635c.371-.059.619.1.726,1.433.118,1.488-.266,1.75-.6,1.736s-.669-.473-.651-1.536.041-1.558.526-1.633" transform="translate(238.899 105.349)" fill="#1a1a1a"/>
          <path id="Trazado_16003" data-name="Trazado 16003" d="M192.383,82.37c.369-.071.621.08.774,1.408.168,1.483-.209,1.756-.541,1.754s-.683-.448-.7-1.511-.011-1.558.471-1.652" transform="translate(244.688 105.007)" fill="#1a1a1a"/>
          <path id="Trazado_16004" data-name="Trazado 16004" d="M194.4,81.963a3.136,3.136,0,0,0-3.01-.512c1.729-1.415,2.737-.805,3.312-.3-.041.762-.173.814-.3.814" transform="translate(244.029 102.738)" fill="#1a1a1a"/>
          <path id="Trazado_16005" data-name="Trazado 16005" d="M192.579,110.041c-2.575,0-6.771-5.117-7.644-6.215,2.892,2.157,6.55,5.774,7.894,5.246,1.565-.605,1.777-6.427,1.545-9.96l.41-7.856c.924.052.512,7.851.512,7.851.109,1.583.523,9.808-2.129,10.829a1.58,1.58,0,0,1-.587.1" transform="translate(235.799 116.355)" fill="#1a1a1a"/>
          <path id="Trazado_16006" data-name="Trazado 16006" d="M192.42,100.441c2.7-5.069-1.36-9.35-1.4-9.4.714-.6,5.3,4.243,1.777,9.2a.46.46,0,0,1-.378.193" transform="translate(243.559 116.022)" fill="#1a1a1a"/>
          <path id="Trazado_16007" data-name="Trazado 16007" d="M174.852,150.356c-2.066-16.676,6.962-43.567,7.053-43.838.785.566-8.176,27.271-6.591,43.328-.43.51-.446.51-.462.51" transform="translate(222.551 135.814)" fill="#1a1a1a"/>
          <path id="Trazado_16008" data-name="Trazado 16008" d="M191.4,90.112a3.25,3.25,0,0,1-1.9-.564,4.382,4.382,0,0,1-1.618-2.944c.924-.073,1.09,1.458,2.15,2.184a2.921,2.921,0,0,0,2.521.225c-.255,1.028-.719,1.1-1.153,1.1" transform="translate(239.559 110.421)" fill="#1a1a1a"/>
          <path id="Trazado_16009" data-name="Trazado 16009" d="M229.15,131.2a4.329,4.329,0,0,1-2.184-.562,5.244,5.244,0,0,1-2.389-4.466,12.19,12.19,0,0,1,6.2-10.738,5.249,5.249,0,0,1,5.055-.164c2.862,1.654,3.206,6.445.76,10.684-1.879,3.251-4.866,5.246-7.446,5.246m4.477-15.575a5.476,5.476,0,0,0-2.43.637,11.261,11.261,0,0,0-5.694,9.858,4.351,4.351,0,0,0,1.927,3.713c2.416,1.4,6.174-.548,8.365-4.345s2-8.017-.423-9.414a3.443,3.443,0,0,0-1.745-.448" transform="translate(286.326 146.244)" fill="#1a1a1a"/>
          <path id="Trazado_16010" data-name="Trazado 16010" d="M209.179,179.8a12.116,12.116,0,0,1-11.5-15.925l18.077-54.558a12.09,12.09,0,0,1,11.5-8.306h76.223a12.354,12.354,0,0,1,2.687.293c.116.048,7.635,4.152,7.635,4.152-.441.814-7.9-3.26-7.9-3.26a11.328,11.328,0,0,0-2.418-.259H227.256a11.181,11.181,0,0,0-10.622,7.671l-18.077,54.56a11.189,11.189,0,0,0,10.622,14.706c.464.719.259.926,0,.926" transform="translate(251.25 128.793)" fill="#1a1a1a"/>
          <path id="Trazado_16011" data-name="Trazado 16011" d="M287.677,178.573H211.45a12.212,12.212,0,0,1-11.5-15.928l18.075-52.208a12.071,12.071,0,0,1,11.5-7.951h76.223a12.261,12.261,0,0,1,10.01,5.071,11.11,11.11,0,0,1,1.488,10.2l-18.075,52.208c-1.731,4.987-6.564,8.606-11.5,8.606m-58.148-75.16a11.142,11.142,0,0,0-10.624,7.33L200.83,162.951a11.289,11.289,0,0,0,10.62,14.7h76.227c4.55,0,9.018-3.36,10.622-7.988l18.075-52.208a10.2,10.2,0,0,0-1.367-9.359,11.337,11.337,0,0,0-9.255-4.682Z" transform="translate(254.159 130.675)" fill="#1a1a1a"/>
          <path id="Trazado_16012" data-name="Trazado 16012" d="M207.929,142.738c-.166-2.038-1.42-4.455-2.336-6.22-.253-.5-.494-.962-.685-1.37-.209-.446-.416-.971-.632-1.536-1.238-3.19-2.928-7.558-8.977-6.511-.032.009-7.642,2.164-12.128,5.285,4.086-3.974,11.6-6.1,11.923-6.188,6.88-1.178,8.768,3.786,10.044,7.078.214.544.407,1.049.607,1.481.189.4.421.846.673,1.333,1.031,1.993,2.316,4.47,1.966,6.272a.465.465,0,0,1-.455.375" transform="translate(233.548 160.682)" fill="#1a1a1a"/>
          <path id="Trazado_16013" data-name="Trazado 16013" d="M192.432,137.229a11.628,11.628,0,0,1-3.467-6.887c.93.4,1.549,3.927,3.792,6.093-.082.749-.2.794-.325.794" transform="translate(240.937 166.192)" fill="#1a1a1a"/>
          <path id="Trazado_16014" data-name="Trazado 16014" d="M205.871,143.66a4.652,4.652,0,0,0-1.035-4.045,18.879,18.879,0,0,1-2.352-4.871c-1.051-2.691-2.241-5.742-3.8-7.437-2.571-2.8-8.424.489-8.484.521-.193-.956,6.1-4.482,9.171-1.149,1.677,1.825,2.9,4.96,3.984,7.726A19.1,19.1,0,0,0,205.523,139c.974,1.081,1.752,2.9.737,4.455a.463.463,0,0,1-.389.209" transform="translate(242.502 159.732)" fill="#1a1a1a"/>
          <path id="Trazado_16015" data-name="Trazado 16015" d="M186.783,146.75a13.836,13.836,0,0,1-3.9-12.055c1.2-7.567,7.992-12.811,15.179-11.662,2.318.366,5.874,1.354,9.94,5.69-4.55-3.494-7.9-4.43-10.087-4.775-6.664-1.049-13,3.829-14.117,10.893a13.3,13.3,0,0,0,3.324,11.129c-.111.739-.228.78-.339.78" transform="translate(232.957 156.67)" fill="#1a1a1a"/>
          <path id="Trazado_16016" data-name="Trazado 16016" d="M202.954,131.318c-.817-1.488-2.132-4.655-3.672-5.292-2.314-.969-5.242,1.383-5.267,1.408-.45-.828,2.805-3.433,5.626-2.268,2.245.937,3.692,5.36,3.754,5.547-.346.6-.4.605-.441.605" transform="translate(247.323 159.215)" fill="#1a1a1a"/>
          <path id="Trazado_16017" data-name="Trazado 16017" d="M196.828,151.595c7.305-28.65,1.192-46.076,1.131-46.249.935-.143,7.153,17.536-.685,45.91a.464.464,0,0,1-.446.339" transform="translate(250.963 134.318)" fill="#1a1a1a"/>
          <path id="Trazado_16018" data-name="Trazado 16018" d="M39.071,103.35c-.328-.134-31.127-30.934-31.127-30.934.655-.655,31.127,29.817,31.127,29.817L68.2,73.1c.655,0,21.981,21.326,21.981,21.326-.655.655-21.654-20.343-21.654-20.343L39.4,103.215a.456.456,0,0,1-.328.134" transform="translate(10.129 92.32)" fill="#1a1a1a"/>
          <path id="Trazado_16019" data-name="Trazado 16019" d="M103.806,78.946H98.963c0-.926,4.844-.926,4.844-.926.462.719.253.926,0,.926m-10.04,0H88.573c0-.926,5.194-.926,5.194-.926.462.719.255.926,0,.926m-10.388,0h-5.2c0-.926,5.2-.926,5.2-.926.462.719.255.926,0,.926m-10.39,0h-5.2c0-.926,5.2-.926,5.2-.926.462.719.253.926,0,.926m-10.39,0H57.4c0-.926,5.2-.926,5.2-.926.462.719.255.926,0,.926m-10.392,0h-5.2c0-.926,5.2-.926,5.2-.926.464.719.257.926,0,.926m-10.39,0H36.622c0-.926,5.194-.926,5.194-.926.462.719.257.926,0,.926m-10.388,0h-5.2c0-.926,5.2-.926,5.2-.926.462.719.253.926,0,.926m-10.392,0H15.844c0-.926,5.192-.926,5.192-.926.464.719.255.926,0,.926m-10.388,0h-5.2c0-.926,5.2-.926,5.2-.926.462.719.255.926,0,.926" transform="translate(6.951 99.478)" fill="#1a1a1a"/>
          <path id="Trazado_16023" data-name="Trazado 16023" d="M16.972,104.378H6.434c-.464-.464-.464-11-.464-11,.464-.462,11-.462,11-.462.462.462.462,11,.462,11a.464.464,0,0,1-.462.464M6.9,103.452h9.612V93.84H6.9Z" transform="translate(7.612 118.469)" fill="#1a1a1a"/>
          <path id="Trazado_16024" data-name="Trazado 16024" d="M16.972,113.815H6.434c-.464-.466-.464-11-.464-11,.464-.464,11-.464,11-.464.462.464.462,11,.462,11a.465.465,0,0,1-.462.466M6.9,112.887h9.612v-9.612H6.9Z" transform="translate(7.612 130.499)" fill="#1a1a1a"/>
          <path id="Trazado_16025" data-name="Trazado 16025" d="M46.939,60.079H16.26c0-.926,30.679-.926,30.679-.926.462.717.255.926,0,.926" transform="translate(20.732 75.422)" fill="#1a1a1a"/>
          <path id="Trazado_16026" data-name="Trazado 16026" d="M16.144,60.079H8.088c0-.926,8.056-.926,8.056-.926.462.717.255.926,0,.926" transform="translate(10.312 75.422)" fill="#1a1a1a"/>
          <path id="Trazado_16027" data-name="Trazado 16027" d="M57.358,63.165H8.088c0-.924,49.27-.924,49.27-.924.462.717.255.924,0,.924" transform="translate(10.312 79.36)" fill="#1a1a1a"/>
          <path id="Trazado_16028" data-name="Trazado 16028" d="M30.719,66.282H8.089c0-.926,22.63-.926,22.63-.926.462.719.255.926,0,.926" transform="translate(10.314 83.331)" fill="#1a1a1a"/>
          <path id="Trazado_16031" data-name="Trazado 16031" d="M192.864,92.263a4.923,4.923,0,0,0,1.918-3.635c-1.167-.1-2.787-.334-3.221-.853-.473-.562-1.151-4.193-1.42-5.729a30.508,30.508,0,0,1,2.136,5.142,9.327,9.327,0,0,0,3,.548c.505,1.672.018,4.12-2.341,4.523a.7.7,0,0,1-.075,0" transform="translate(242.437 104.612)" fill="#1a1a1a"/>
          <path id="Trazado_16032" data-name="Trazado 16032" d="M186.551,85.049c-.432-.66.08-2.812,1.777-3.749a3.858,3.858,0,0,1,3.235-.139c-1.258.544-2.093.569-2.787.951A4.389,4.389,0,0,0,187,84.687a.462.462,0,0,1-.453.362" transform="translate(237.673 103.12)" fill="#1a1a1a"/>
          <path id="Trazado_16033" data-name="Trazado 16033" d="M241.33,139.583H178.792a3.258,3.258,0,1,1,0-6.516h48.3c0,.926-48.3.926-48.3.926a2.333,2.333,0,0,0,0,4.666H241.33c.464.717.257.924,0,.924" transform="translate(223.812 169.665)" fill="#1a1a1a"/>
          <path id="Trazado_16034" data-name="Trazado 16034" d="M186.906,136.127c5-1.217,5.258-4.7,5.262-4.734.921.1.614,4.4-5.235,4.734Z" transform="translate(238.312 167.531)" fill="#1a1a1a"/>
          <g id="Grupo_10047" data-name="Grupo 10047" transform="translate(-600.414 -214.425)">
            <g id="Grupo_9256" data-name="Grupo 9256" transform="translate(993 245)">
              <path id="Trazado_16035" data-name="Trazado 16035" d="M1113.16,347.676a45.582,45.582,0,1,1-45.582-45.629,45.606,45.606,0,0,1,45.582,45.629" transform="translate(-1021.996 -302.047)" fill="#fff"/>
              <path id="Trazado_13282" data-name="Trazado 13282" d="M1113.16,347.676a45.582,45.582,0,1,1-45.582-45.629,45.606,45.606,0,0,1,45.582,45.629" transform="translate(-1021.996 -302.047)" opacity="0.7" fill="url(#linear-gradient-6)"/>
              <path id="Trazado_13283" data-name="Trazado 13283" d="M35.425,219.953c.694-4.436,1.371-8.755,2.063-13.181H23.705c-.023-.357-.055-.628-.056-.9,0-2.665-.012-5.331,0-8,.017-3.9,2.225-6.444,6.1-6.766,2.492-.207,5.009-.124,7.514-.165.686-.011,1.372,0,2.124,0V179.417c-1.064-.142-2.164-.317-3.27-.43-4.212-.432-8.423-.839-12.633.068-6.877,1.481-11.714,6.469-12.58,13.482-.436,3.529-.309,7.127-.417,10.695-.034,1.124-.005,2.251-.005,3.491H0v13.167H10.419v33.06a46.845,46.845,0,0,0,15.908-.377v-32.62Z" transform="translate(28.153 -162.101)" fill="#fff"/>
              <path id="Trazado_13284" data-name="Trazado 13284" d="M1113.16,347.676a45.582,45.582,0,1,1-45.582-45.629,45.606,45.606,0,0,1,45.582,45.629" transform="translate(-1018.349 -298.305)" fill="none" stroke="#000" stroke-width="1"/>
              <path id="Trazado_13285" data-name="Trazado 13285" d="M35.425,219.953c.694-4.436,1.371-8.755,2.063-13.181H23.705c-.023-.357-.055-.628-.056-.9,0-2.665-.012-5.331,0-8,.017-3.9,2.225-6.444,6.1-6.766,2.492-.207,5.009-.124,7.514-.165.686-.011,1.372,0,2.124,0V179.417c-1.064-.142-2.164-.317-3.27-.43-4.212-.432-8.423-.839-12.633.068-6.877,1.481-11.714,6.469-12.58,13.482-.436,3.529-.309,7.127-.417,10.695-.034,1.124-.005,2.251-.005,3.491H0v13.167H10.419v33.06a46.845,46.845,0,0,0,15.908-.377v-32.62Z" transform="translate(29.977 -160.278)" fill="none" stroke="#000" stroke-width="1"/>
            </g>
          </g>
          <g id="Grupo_10048" data-name="Grupo 10048" transform="translate(-873 -198.807)">
            <g id="Grupo_9262" data-name="Grupo 9262" transform="translate(1028 251)">
              <rect id="Rect치ngulo_4866" data-name="Rect치ngulo 4866" width="81.928" height="81.928" rx="15" fill="#fff"/>
              <rect id="Rect치ngulo_4415" data-name="Rect치ngulo 4415" width="81.928" height="81.928" rx="15" transform="translate(0)" opacity="0.7" fill="url(#linear-gradient-7)"/>
              <g id="Grupo_9261" data-name="Grupo 9261" transform="translate(10.535 10.543)">
                <path id="Trazado_13292" data-name="Trazado 13292" d="M215.333,184.66c0,2.413.044,4.827-.012,7.238-.058,2.489-.118,4.985-.349,7.463a16.914,16.914,0,0,1-3.768,9.571,15.9,15.9,0,0,1-8.679,5.291,28.211,28.211,0,0,1-5.612.7c-7.008.272-14.019.144-21.029.107a39.651,39.651,0,0,1-7.646-.592,15.856,15.856,0,0,1-13.02-12.664,22.742,22.742,0,0,1-.555-4.635c-.083-5.461-.158-10.923-.19-16.384-.015-2.5.053-5.006.128-7.508a26.753,26.753,0,0,1,.876-6.751c1.8-6.17,5.876-9.949,12.1-11.449a26.994,26.994,0,0,1,5.175-.626c5.664-.247,11.332-.185,17-.175,2.173,0,4.346.056,6.518.131a28.845,28.845,0,0,1,6.821.877,15.514,15.514,0,0,1,9.819,7.652,16.986,16.986,0,0,1,2.007,6.553c.189,1.865.313,3.742.345,5.616.055,3.2.015,6.4.015,9.593h.058m-5.431.01h.07c-.07-4-.107-8.01-.227-12.013a23.981,23.981,0,0,0-.468-3.957,10.135,10.135,0,0,0-5.039-7.165,13.1,13.1,0,0,0-5.814-1.588c-2.384-.136-4.773-.248-7.161-.254-6.395-.015-12.791-.157-19.182.181a16.786,16.786,0,0,0-4.621.833,10.008,10.008,0,0,0-6.4,6.187,16.311,16.311,0,0,0-.951,5.045c-.1,2.113-.187,4.23-.191,6.345q-.015,8.074.062,16.149c.017,1.635.156,3.273.33,4.9a11.6,11.6,0,0,0,1.611,4.892,10.5,10.5,0,0,0,7.283,4.837,35.828,35.828,0,0,0,6.865.515c7.021.034,14.043.167,21.062-.113a20.759,20.759,0,0,0,4.155-.543,10.274,10.274,0,0,0,6.7-4.84,12.558,12.558,0,0,0,1.628-5.626c.149-2.246.23-4.5.273-6.749.045-2.344.01-4.689.01-7.033" transform="translate(-154.472 -154.226)" fill="#fff"/>
                <path id="Trazado_13293" data-name="Trazado 13293" d="M371.487,386.978a15.617,15.617,0,1,1,15.5,15.6,15.593,15.593,0,0,1-15.5-15.6m25.8.024a10.186,10.186,0,1,0-10.179,10.168A10.183,10.183,0,0,0,397.286,387" transform="translate(-356.667 -356.546)" fill="#fff"/>
                <path id="Trazado_13294" data-name="Trazado 13294" d="M788.89,309.064a3.613,3.613,0,1,1-3.65,3.6,3.62,3.62,0,0,1,3.65-3.6" transform="translate(-742.165 -298.49)" fill="#fff"/>
              </g>
              <g id="Rect치ngulo_4416" data-name="Rect치ngulo 4416" transform="translate(3.072 3.072)" fill="none" stroke="#000" stroke-width="1">
                <rect width="81.928" height="81.928" rx="15" stroke="none"/>
                <rect x="0.5" y="0.5" width="80.928" height="80.928" rx="14.5" fill="none"/>
              </g>
              <g id="Rect치ngulo_4417" data-name="Rect치ngulo 4417" transform="translate(12.289 12.289)" fill="none" stroke="#000" stroke-width="1">
                <rect width="61.446" height="61.446" rx="15" stroke="none"/>
                <rect x="0.5" y="0.5" width="60.446" height="60.446" rx="14.5" fill="none"/>
              </g>
            </g>
          </g>
          <path id="Trazado_16036" data-name="Trazado 16036" d="M168.393,154.8h21.379a9.121,9.121,0,0,0,6.268-2.346c2.521-2.523,1.529-8.454,1.529-8.454l.155-47.009a6.709,6.709,0,0,0-1.988-4.8,7.594,7.594,0,0,0-4.687-1.932h-81.9s-4.743-.177-6.5,2.341a8.105,8.105,0,0,0-1.11,5.678l-.116,41.874s21.893,4.607,32.724,4.725c0,0,1.993-.585,2.78.7s0,.321,0,.321,3.424-1.317,3.777-4.125.057-10.467,3.688-10.561,4.375,5,4.354,9.039a34.129,34.129,0,0,1-1.9,9.248s-.573,2.207,2.669,3.094,12.435,2.928,18.874,2.2" transform="translate(129.318 115.079)" opacity="0.25" fill="url(#linear-gradient)"/>
          <path id="Trazado_15910" data-name="Trazado 15910" d="M134.183,109.472a6.791,6.791,0,1,1-6.791-6.793,6.793,6.793,0,0,1,6.791,6.793" transform="translate(153.771 130.919)" fill="#fff"/>
          <path id="Trazado_15936" data-name="Trazado 15936" d="M191.288,155.5H163.574c0-.926,27.714-.926,27.714-.926a6.173,6.173,0,0,0,6.165-6.165V97.129a6.173,6.173,0,0,0-6.165-6.165H108.3a6.175,6.175,0,0,0-6.165,6.165v43.4c-.926,0-.926-43.4-.926-43.4A7.1,7.1,0,0,1,108.3,90.04h82.989a7.1,7.1,0,0,1,7.094,7.089v51.284a7.1,7.1,0,0,1-7.094,7.091" transform="translate(129.044 114.804)" fill="#1a1a1a"/>
          <path id="Trazado_15937" data-name="Trazado 15937" d="M126.681,115.931a7.253,7.253,0,1,1,7.253-7.253,7.262,7.262,0,0,1-7.253,7.253m0-13.58a6.327,6.327,0,1,0,6.329,6.327,6.335,6.335,0,0,0-6.329-6.327" transform="translate(152.275 129.321)" fill="#1a1a1a"/>
          <path id="Trazado_15962" data-name="Trazado 15962" d="M145.282,132.534c-.412-.039-.915-.077-1.513-.125-6.955-.548-13.6-1.408-15.115-3.968a2.247,2.247,0,0,1-.071-2.173c1.656-3.681,2.544-12.181.512-15.711A2.742,2.742,0,0,0,126.968,109a2.359,2.359,0,0,0-1.95.553c-1.513,1.376-1.479,5.041-1.458,7.23,0,.373.009.714,0,1.012-.048,4.37-7.681,7.61-8,7.746-.284-.885,7.032-3.993,7.075-7.758,0-.291,0-.628,0-.992-.025-2.5-.061-6.268,1.761-7.926a3.268,3.268,0,0,1,2.666-.787,3.657,3.657,0,0,1,2.835,2.011c2.234,3.883,1.258,12.72-.471,16.555a1.338,1.338,0,0,0,.025,1.317c1.479,2.5,10.527,3.217,14.39,3.517.61.048,1.115.091,1.486.127.391.746.189.924-.045.924" transform="translate(147.337 137.775)" fill="#1a1a1a"/>
          <path id="Trazado_15973" data-name="Trazado 15973" d="M144.163,119.944c-1.656-.166-3.265-.316-4.869-.466-6.511-.619-13.245-1.258-19.841-2.493a192.791,192.791,0,0,1-25.2-6.668c9.667,2.2,17.636,4.313,25.369,5.758,6.554,1.229,13.268,1.863,19.759,2.48q2.409.225,4.825.466c.389.746.189.924-.045.924" transform="translate(120.18 140.657)" fill="#1a1a1a"/>
          <g id="Grupo_10050" data-name="Grupo 10050" transform="matrix(0.951, -0.309, 0.309, 0.951, -60.15, 34.008)">
            <path id="Trazado_16039" data-name="Trazado 16039" d="M145.143,94.41a20.114,20.114,0,0,1,.841-4.62c.268-1.017.52-1.974.755-2.631.509-1.431,1.128-3.165.73-4.537a1.945,1.945,0,0,0-.946-1.211,2.035,2.035,0,0,0-1.933.219,4.508,4.508,0,0,0-1.457,1.715,6.127,6.127,0,0,0-.387,1.183c-.339,1.3-.8,3.083-2.355,3.453-2.235.53-3.89-1.276-4.957-5.368-.437-1.692-.844-3.159-1.239-4.488a56.052,56.052,0,0,0-3.268-8.623,4.894,4.894,0,0,0-1.291-1.959,1.782,1.782,0,0,0-1.159-.311,1.906,1.906,0,0,0-1.5.787,3.584,3.584,0,0,0-.4,2.878c.544,2.174,3.292,9.731,3.32,9.807-.537.578-2.015.215-3.107.95a2.9,2.9,0,0,0-1.139,2.12c-.424.383-1.809.493-2.7,1.55a4.006,4.006,0,0,0-.722,3.115,2.781,2.781,0,0,1,.052-3.692,4.41,4.41,0,0,1,2.544-1.428,3.592,3.592,0,0,1,1.474-2.4,4.092,4.092,0,0,1,2.511-.6c-.7-1.941-2.633-7.357-3.1-9.2a4.452,4.452,0,0,1,.543-3.616,2.8,2.8,0,0,1,2.159-1.146,2.63,2.63,0,0,1,1.739.48,5,5,0,0,1,1.437,2.017,58.278,58.278,0,0,1,3.446,9.027c.4,1.339.807,2.818,1.25,4.52.917,3.537,2.209,5.14,3.894,4.727,1.031-.244,1.4-1.67,1.7-2.816a6.511,6.511,0,0,1,.465-1.389,5.371,5.371,0,0,1,1.757-2.029,2.9,2.9,0,0,1,2.8-.269,2.8,2.8,0,0,1,1.407,1.759c.476,1.648-.222,3.611-.731,5.044-.237.661-.483,1.6-.748,2.6a27.677,27.677,0,0,1-1.3,4.142.447.447,0,0,1-.4.252" transform="translate(-71.009 122.696)" fill="#1a1a1a"/>
            <path id="Trazado_16040" data-name="Trazado 16040" d="M126,82.056c-2.724-3.761-2.7-6.311-2.694-6.418.885.041.876,2.422,3.065,5.729-.2.663-.287.689-.37.689" transform="translate(-69.523 130.615)" fill="#1a1a1a"/>
            <path id="Trazado_16041" data-name="Trazado 16041" d="M128.033,79.808c-2.235-4.335-2.422-5.542-2.431-5.594.883-.089,1.105,1.118,2.835,4.97-.28.613-.343.624-.4.624" transform="translate(-67.568 129.398)" fill="#1a1a1a"/>
            <path id="Trazado_16042" data-name="Trazado 16042" d="M124.643,88.022a19.159,19.159,0,0,1-3.224-10.107c.885.057.885,5.194,3.6,9.423-.207.661-.293.683-.374.683" transform="translate(-71.131 132.554)" fill="#1a1a1a"/>
          </g>
        </g>
      </g>
    </g>
  </g>
</svg>
