<svg id="Capa_1" data-name="Capa 1" xmlns="http://www.w3.org/2000/svg" xmlns:xlink="http://www.w3.org/1999/xlink" viewBox="0 0 1251 864"><defs><style>.cls-1{opacity:0.08;fill:url(#Degradado_sin_nombre_66);}.cls-2{fill:#fff;}.cls-11,.cls-12,.cls-13,.cls-3,.cls-5,.cls-8,.cls-9{opacity:0.5;}.cls-3{fill:url(#Degradado_sin_nombre_66-2);}.cls-4,.cls-6{opacity:0.53;}.cls-4{fill:url(#Degradado_sin_nombre_26);}.cls-5{fill:url(#Degradado_sin_nombre_47);}.cls-6{fill:url(#Degradado_sin_nombre_26-2);}.cls-7{fill:#1a1a1a;}.cls-8{fill:url(#Degradado_sin_nombre_66-3);}.cls-9{fill:url(#Degradado_sin_nombre_66-4);}.cls-10{fill:#ccc;}.cls-11{fill:url(#Degradado_sin_nombre_66-5);}.cls-12{fill:url(#Degradado_sin_nombre_66-6);}.cls-13{fill:url(#Degradado_sin_nombre_66-7);}</style><linearGradient id="Degradado_sin_nombre_66" x1="-1212.79" y1="-5933.82" x2="-1212.79" y2="-5935.32" gradientTransform="matrix(-693.51, -147.99, -104.7, 490.64, -1461802.45, 2732677.47)" gradientUnits="userSpaceOnUse"><stop offset="0" stop-color="#ff5a00"/><stop offset="1" stop-color="#ffbe00"/></linearGradient><linearGradient id="Degradado_sin_nombre_66-2" x1="699.09" y1="306.2" x2="1027.69" y2="306.2" gradientTransform="matrix(1, 0, 0, 1, 0, 0)" xlink:href="#Degradado_sin_nombre_66"/><linearGradient id="Degradado_sin_nombre_26" x1="178" y1="439.64" x2="468.59" y2="439.64" gradientUnits="userSpaceOnUse"><stop offset="0" stop-color="#1a65bc"/><stop offset="0.3" stop-color="#0f76d2"/><stop offset="0.69" stop-color="#0488e9"/><stop offset="0.94" stop-color="#008ff2"/></linearGradient><linearGradient id="Degradado_sin_nombre_47" x1="767.09" y1="681.69" x2="1087.09" y2="681.69" gradientUnits="userSpaceOnUse"><stop offset="0" stop-color="#d109c8"/><stop offset="1" stop-color="#f40019"/></linearGradient><linearGradient id="Degradado_sin_nombre_26-2" x1="251.22" y1="341.77" x2="426.35" y2="341.77" xlink:href="#Degradado_sin_nombre_26"/><linearGradient id="Degradado_sin_nombre_66-3" x1="575.77" y1="462.5" x2="667.64" y2="462.5" gradientTransform="matrix(1, 0, 0, 1, 0, 0)" xlink:href="#Degradado_sin_nombre_66"/><linearGradient id="Degradado_sin_nombre_66-4" x1="640.88" y1="548.87" x2="706.9" y2="548.87" gradientTransform="matrix(1, 0, 0, 1, 0, 0)" xlink:href="#Degradado_sin_nombre_66"/><linearGradient id="Degradado_sin_nombre_66-5" x1="96.68" y1="467.67" x2="188.76" y2="467.67" gradientTransform="matrix(1, 0, 0, 1, 0, 0)" xlink:href="#Degradado_sin_nombre_66"/><linearGradient id="Degradado_sin_nombre_66-6" x1="490.49" y1="666.51" x2="556.7" y2="666.51" gradientTransform="matrix(1, 0, 0, 1, 0, 0)" xlink:href="#Degradado_sin_nombre_66"/><linearGradient id="Degradado_sin_nombre_66-7" x1="266.35" y1="622.72" x2="325.24" y2="622.72" gradientTransform="matrix(1, 0, 0, 1, 0, 0)" xlink:href="#Degradado_sin_nombre_66"/></defs><path id="Trazado_509" data-name="Trazado 509" class="cls-1" d="M1091.13,240.29c56.49,39.63,91.24,147.56-14.25,275.66S886.53,550.16,855.54,718.88,585.88,851.66,521.28,787s-64.52-97.39-223.47-111.11-200.5-171.82-128.49-260C253.45,312.9,5,165.56,259,66.11,456.94-11.38,917.13,118.25,1091.13,240.29Z"/><rect class="cls-2" x="172.74" y="218.81" width="295.92" height="295.92" rx="4.99"/><path class="cls-3" d="M1027.69,306.2a164.3,164.3,0,1,1-164.3-164.3A164.3,164.3,0,0,1,1027.69,306.2Z"/><path class="cls-4" d="M400.64,515.07H197.55S178.77,505.16,179,505c5.73-3.94-1-92-1-92l.35-7.66,32.52-32s8.72-8.49,25.4-9.89,31.51,8.72,44.38,16.38,31.24,25.12,58.54,22.06,35.28-15.45,60.14-15.6,69.26,28.43,69.26,28.43v78.61s-2.92,18.9-20.61,21.36S400.64,515.07,400.64,515.07Z"/><path class="cls-5" d="M849,618.56s19.93-34.65,72.87-37.4l64.78.42s43.46,4.11,56.18,29.55,30.36,64.54,37,87.27,13,61.54-1.59,83.83H804.94s-17.31-9-26.18-33.54-11.67-43.31-11.67-43.31Z"/><path class="cls-2" d="M192.59,514.25l-11.73-9.51v-7.9s10.26,1.16,15.07-9.56,0-24.51,0-24.51a7.33,7.33,0,0,0,4.16.54c2.82-.25,2.41-4.28,2.41-4.28l-6.57-22.82s-4.12-3-6.71.2l-1.46-4.24s-4.72,11-10.68,15.08-11.77,8.11-11.93,10.18c0,0-14.43-2.58-14.94,12.38,0,0,1.88,11,9.43,9.89l7.54-1.16s6.75,4.63,9.66,9,6,14.18,1.24,21.74-6.25,9.66-6.25,9.66S182.4,512.89,192.59,514.25Z"/><path class="cls-2" d="M294,476.35l.58-6.61s-8.62-13.16-6.74-23.49,9.62-17.42,17.86-15.79c1.34.43-1.58,10.81-1.58,10.81s5.43,3,8,2.53l5.21-15.28s16.62,7.69,21,12,5,11.12,1.38,21.47a88.35,88.35,0,0,0-4.35,17.67S302.24,474,294,476.35Z"/><path class="cls-2" d="M465.19,524.86l-1.17-20s-7.77,8.84-13,9.33-6.67.79-10.35-3.63a75.72,75.72,0,0,1-11.47-19.49c-3.61-8.7-7.69-16.82-12.19-14.76s-4.38,7.36-4.38,7.36-4.11-2.15-6.29-.57-3.09,6.59-3.09,6.59-5.13,0-6.34,4.65,2.72,20.27,9.86,32.69,11.36,18.57,11.36,18.57,3.63-11.67,21-16.42,26-3.82,26-3.82Z"/><path class="cls-2" d="M611.88,480.53s13.48,4.81,17-4.49-1.63-15.77-6.63-16.33-11.06,2.06-11.06,2.06-12.68-5.47-20.72-14.54-8.18-13.68-8.18-13.68l-3.5,28.22-11.54,5.06s3.37,9.13,6.74,9.93c0,0-5.12,15.76,6.62,21s11.81,4.57,11.81,4.57l-.88,9.92,20-4.63A27.64,27.64,0,0,1,611.88,480.53Z"/><path class="cls-2" d="M983.62,702s-17.47-22.8-23.23-28.82-20.6-9.63-20.6-9.63l-12.22,13.22-8.86,2.79,12.21,36.56,12.79-2.1,10.85,15.08S980.65,711.65,983.62,702Z"/><path class="cls-2" d="M916.19,672.21l8-9.52s-10.57,2.07-10.39,2.61,2.37,6.34,2.37,6.34Z"/><path class="cls-2" d="M972.32,568.33l-1.55-31.28s14.52,3.89,17.92-7.79-7.67-16.92-13.56-15.64-10.34,6.14-10.34,6.14-4.77-9.35-1.9-22.83c0,0-14.75,3.72-26.46,2.13s-19-2.91-19-2.91L917,544.33s.34,14.21,13.15,15.72l.53,9.41-7.91,11.7.56,45.09-2.17,36.44h3l16.18-19.21,8,6.7-8.08,12.51,5.64,1.67,11.27-31.9L960,634l24.24-52.88Z"/><path class="cls-6" d="M251.43,313.48s7.6-16.85,27.19,0,16.62,26.25,36.23,24.59,25.58-18.87,44.7-12.51,16.74,8.73,23.62,22.76,16.57,6.95,16.57,6.95,17.65,20.08,26.61,14.64c0,0-5.25,9.17-14.86,7.42s-151.73-45.07-151.73-45.07A18.68,18.68,0,0,1,251.43,313.48Z"/><path class="cls-7" d="M611.63,507.66s-39.89,5.58-49.76,25.24S551.41,550,546.43,572.37s-6.91,35-20.24,33.4-19.12-14.75-22.3-21.83-26.53-54.56-26.53-54.56a51.7,51.7,0,0,0-35.2-1c-19.42,6.36-25.85,20.41-25.85,20.41s13.71,41.23,21.32,58.85,32.72,65.07,76.34,72.65l21.45-1.14s-4.19,30-6.55,49.25-10.71,53.87-10.71,53.87l161.2.69-3.55-34.32s-3.65-46.34-2.65-69.77.75-80.16.75-80.16l39.69,31.72s-12.67-35.17-18.76-45.05l-54.79-67.71S619.74,519.31,611.63,507.66Z"/><path class="cls-8" d="M611.92,479.77s-7.6,14.92-1.25,27,27.66,11,27.66,11,2-15.29,22.5-19.23c0,0,6-33.14,6.59-48.65s.65-25.2-7.1-30-21.63-11.7-36.24-8.45c0,0-22.72-6.18-32.49-3.39s-12.08,5.53-12.08,5.53-8.17,22.42-.35,33.66l3.51-12.91s12.32,23.67,27.24,26.56l2.67.43s11.72-7.6,17,5.37c0,0,1.1,16.48-9.64,15.12Z"/><path class="cls-2" d="M646.75,524.64a39.17,39.17,0,0,1,2.89,18.27c-1.58,14.44-13.16,21.26-6.94,32.12s17.86,22.36,37.85,16.41S704.06,576,706.4,563.81s-3.71-26.74-12.73-35.75-24.29-23.37-24.29-23.37S649.22,518.46,646.75,524.64Z"/><path class="cls-9" d="M646.75,524.64a39.17,39.17,0,0,1,2.89,18.27c-1.58,14.44-13.16,21.26-6.94,32.12s17.86,22.36,37.85,16.41S704.06,576,706.4,563.81s-3.71-26.74-12.73-35.75-24.29-23.37-24.29-23.37S649.22,518.46,646.75,524.64Z"/><polygon class="cls-10" points="598.23 502.63 592.47 509.45 592.47 501.76 598.23 502.63"/><path class="cls-2" d="M638.33,517.72l8.07,6.68s7-8.84,11.93-11.8,11.5-7.06,11.5-7.06l-9.8-6.8S638.73,502.24,638.33,517.72Z"/><path class="cls-2" d="M673.91,598.76l72.68,60s4.61,6.24.87,11.18-62.64,76.45-62.64,76.45-4.66,2.94-7.84,2.25c-.87-.88-4.91-45.31-4.11-67.86S673.91,598.76,673.91,598.76Z"/><path class="cls-7" d="M286.17,477.16s34.27-4.14,56.7,5.77c0,0-1.1,59.32-7,88.71s-14.73,67.24-47.49,68.94-48.6-6.79-48.6-6.79L256,782.32H96.16s9.43-60.38,10.17-80.44,0-33.65-3.54-64.68-6.08-55.39-1.41-76.84,12.21-30.67,12.21-30.67a125,125,0,0,0,32.75-.42c16.37-2.68,22.73-8.34,22.73-8.34a22.7,22.7,0,0,1,8.93-4.37c5.76-1.49,10.92-4,19.55-1.83s27.2,13.64,43.68,25.55,28.62,20.08,28.62,20.08Z"/><polygon class="cls-2" points="775.82 664.02 760.29 619.99 897.99 619.89 945.64 757.7 806.41 758.07 775.82 664.02"/><polygon class="cls-7" points="916.19 672.21 936.2 648.46 945.64 655.3 928.14 677.57 919.41 678.65 916.19 672.21"/><path class="cls-7" d="M928.55,619.06l1.6,14.46-8.43,15.87-.47,12.37s2.58.74,3,.28,16.11-18.56,16.11-18.56l4.58,3L942.08,634l9.46-12-11.28-19.25Z"/><path class="cls-7" d="M916.64,507.25s-12-5.81-12.55-16.53,5-24.1,20.62-26.3,28.53-4.48,46.83,8.33c0,0,16.28-.11,19.87,12.77s-7.85,29.78-7.85,29.78a15.58,15.58,0,0,0-8.43-2.36c-4.75.15-11.5,6.82-10.92,6.82s-4.68-10.11-.84-22.29c0,0-13.76,4.1-27.79,2.12s-18.34-2.66-18.34-2.66Z"/><path class="cls-7" d="M951.59,535.52s-7.34,4.63-4.83,11.91c0,0-2.18,3.71-6,2.58s-7.61-3-6.55-5.82,4.17-2.8,6.55-2.92,3.11.47,3.7-1.84.07-6.48,3.64-6.45S951.59,535.52,951.59,535.52Z"/><polygon class="cls-2" points="943.71 608.75 934.78 621.08 934.78 634.48 923.67 660.78 921.29 660.78 921.2 651.11 930.15 633.52 928.55 619.06 940.26 602.81 943.71 608.75"/><path class="cls-7" d="M943,733.13s16.65,36.73,37,49.1l20.44.78S953.1,745.31,943,733.13Z"/><polygon class="cls-2" points="936.88 647.65 944.8 654.7 949.29 649.93 940.39 643.48 936.88 647.65"/><path class="cls-2" d="M738.09,325.89l18.34-5.07c3.32-.92,6.65-1.8,10-2.75a1.8,1.8,0,0,1,2.28.77c11.25,15.24,24.83,28.17,39.64,39.91,4.73,3.74,9.75,4.56,15.39,3.19a52.76,52.76,0,0,0,15.71-7.18c12.05-7.64,22.57-17.15,32.7-27.12,18.49-18.19,35.34-37.85,51.34-58.25a2.55,2.55,0,0,1,3.23-1.09c9.94,2.84,19.9,5.56,29.86,8.32a558.54,558.54,0,0,1-64,95.95c-12.34,14.83-25.4,29-41.07,40.45a125.75,125.75,0,0,1-15.94,9.74c-12,6.27-24.17,6.09-36.44.51C787,417.79,777.62,409.2,769.7,398.8c-11.39-15-19-31.89-24.85-49.64C742.36,341.58,740.38,333.84,738.09,325.89Z"/><path class="cls-11" d="M167.84,478.41s12.41,9.4,13,15.89-.33,18.65-10.71,25.8-21.76,9.53-34.47,10.06-33.91-.08-36.74-8.91-3.62-17,1.27-21.23,9.67-16,9-27.43-7.54-25.14-3.24-41,11.8-23.13,21.29-24.26,20.16-1.13,26.2,1.41l2.4-.16A28.88,28.88,0,0,1,181,407.33s11.58,10.87,6.42,23.57-9.26,16.41-13.5,19.19a80.39,80.39,0,0,0-8.61,6.78s-14.74-1.54-15.11,10.79S162.81,481.72,167.84,478.41Z"/><path class="cls-2" d="M187.43,430.9c5.16-12.7-6.42-23.57-6.42-23.57a28.61,28.61,0,0,0-20.24-.84c0,.46,15.26-2.1,17.58,14.73s-11.71,33.86-11.71,33.86c2.61-1.58,5-3.46,7.29-5C178.17,447.31,182.27,443.6,187.43,430.9Z"/><path class="cls-2" d="M180.86,494.3c-.57-6.11-11.6-14.79-12.88-15.79a13.68,13.68,0,0,1-5.26,1.36s23,20.74,4.87,41.83c.86-.52,1.72-1,2.56-1.6C180.53,513,181.48,500.78,180.86,494.3Z"/><path class="cls-7" d="M170.91,582.92s45.85,62.33,70.12,74.66l-1.25-23.79S183.76,600,170.91,582.92Z"/><path class="cls-7" d="M456.35,279.77A25.39,25.39,0,1,1,431,254.38,25.38,25.38,0,0,1,456.35,279.77Z"/><polygon class="cls-7" points="810 631.25 800.29 602.95 843.25 602.95 852.96 631.25 807.64 631.8 810 631.25"/><path class="cls-2" d="M770.78,651.41l5.55,13.89a66.74,66.74,0,0,0,15.89.74c8.43-.67,17-1.33,17.79,7s-2.62,7.74-2.62,7.74,6.05,2.87,5.51,8.27-2.89,6.74-2.89,6.74a7.25,7.25,0,0,1,4.93,6.11c.8,5.06-7,13.4-21.43,12.57s-22.62-1.17-25.46-7.11-7.09-12.84-7.64-24.29S758,665.66,770.78,651.41Z"/><path class="cls-2" d="M916.19,480.93c.8-8.88,9.56-15,13.07-17.14l-4.55.63c-15.64,2.2-21.16,15.58-20.62,26.3s12.55,16.53,12.55,16.53l.6-10.32s4.31.67,18.34,2.66a59.23,59.23,0,0,0,9.76.51C945.15,500.05,915.2,492,916.19,480.93Z"/><path class="cls-2" d="M582.67,434.27s12.32,23.67,27.24,26.56c-4.53-4.29-25.18-23.72-23-38.07C589.3,406.52,625,411.84,625,411.84c-.88-.46-23.6-6.64-33.37-3.85s-12.08,5.53-12.08,5.53-8.17,22.42-.35,33.66Z"/><path class="cls-2" d="M626.06,516.26c-20-4.56-10.31-34.34-10.31-34.34-.33-1.28-3.83-2.15-3.83-2.15s-7.61,14.92-1.25,27c3.48,6.61,11.46,9.27,18,10.33A17.19,17.19,0,0,0,626.06,516.26Z"/><rect class="cls-7" x="503.56" y="384.04" width="46.45" height="46.45"/><path class="cls-2" d="M490.49,670.91S500,653,523.59,653.24a38.22,38.22,0,0,1,33.11,18.59s-12.37,8.09-32.2,7.95A71.44,71.44,0,0,1,490.49,670.91Z"/><path class="cls-12" d="M490.49,670.91S500,653,523.59,653.24a38.22,38.22,0,0,1,33.11,18.59s-12.37,8.09-32.2,7.95A71.44,71.44,0,0,1,490.49,670.91Z"/><path class="cls-2" d="M266.35,640.12S269,616,287.85,608.44s37.39,0,37.39,0-2.15,19.92-20.68,26.8S266.35,640.12,266.35,640.12Z"/><path class="cls-13" d="M266.35,640.12S269,616,287.85,608.44s37.39,0,37.39,0-2.15,19.92-20.68,26.8S266.35,640.12,266.35,640.12Z"/><path class="cls-7" d="M384.76,370.55l-69.91,31.38L302.93,440.5s4.91,5.36,9.22,3.3l11.2-35.66,75.84-33.38Z"/><polygon class="cls-7" points="246.38 635.6 241.03 654.56 242.35 674.68 254.26 638.36 246.38 635.6"/><path class="cls-7" d="M418.33,347.8s-6.94,1.35-7.33,5.93-.25,9.35,2.79,9,7.76-3.84,7.68-7.46S418.33,347.8,418.33,347.8Z"/><rect class="cls-7" x="400.78" y="661.26" width="34.78" height="34.78"/><path class="cls-7" d="M1098.62,737.39c2.11-2.37,4.32-2.7,6.48-3.08-1.84,2.46-4.08,2.78-6.34,3.08Zm18.43-3.58c3.59-3.09,7.43-4.31,11.12-5.67-3,3.35-6.92,4.58-10.85,5.64A.83.83,0,0,1,1117.05,733.81Zm22.58-8.34c3.12-3.72,6.65-5.64,10-7.69-2.36,3.87-6,5.83-9.59,7.58A1.06,1.06,0,0,1,1139.63,725.47ZM1160.2,713c2.55-4.26,5.65-6.81,8.6-9.48-1.59,4.27-4.75,6.86-8,9.27A1.06,1.06,0,0,1,1160.2,713Zm17.86-16.15c1.88-4.63,4.47-7.7,6.93-10.9-.84,4.52-3.48,7.65-6.16,10.57A1.08,1.08,0,0,1,1178.06,696.83Zm14.72-19.07c1.26-4.94,3.3-8.42,5.19-11.93-.06,4.55-2.13,8.08-4.31,11.45A1,1,0,0,1,1192.78,677.76Zm11.4-21.22a55.26,55.26,0,0,1,3.48-12.6c.61,4.53-.9,8.32-2.52,12A1,1,0,0,1,1204.18,656.54Zm8.11-22.69a62.79,62.79,0,0,1,1.8-13c1.24,4.38.28,8.35-.79,12.21A1.06,1.06,0,0,1,1212.29,633.85Zm4.85-23.61a84.6,84.6,0,0,1-.08-13.09c2,4.2,1.63,8.28,1.12,12.18A1.06,1.06,0,0,1,1217.14,610.24Zm.82-24.08a100.91,100.91,0,0,1-2.18-12.91c2.62,3.79,3,7.86,3.22,11.81C1218,586.16,1218,586.16,1218,586.16Zm-3.19-23.89c-1.85-4.74-2.82-8.65-3.93-12.46,3.13,3.27,4.12,7.24,5,11.19C1214.91,562.27,1214.84,562.27,1214.77,562.27Zm-6.68-23.16c-2.37-4.46-3.92-8.17-5.57-11.75,3.58,2.74,5.14,6.51,6.55,10.33C1208.33,539.08,1208.21,539.11,1208.09,539.11ZM1198,517.25c-2.93-4.07-5.1-7.46-7.34-10.6,4,2,6.19,5.43,8.25,9C1198.31,517.21,1198.13,517.25,1198,517.25ZM1144.2,498c2.88-3.12,6.08-5.13,9.45-8.18a14.43,14.43,0,0,1-9.11,8.12A1,1,0,0,1,1144.2,498Zm39.72-.34c-3.52-3.38-6.41-6.15-9.36-8.58,4.36.88,7.32,3.72,10.13,6.82C1184.42,497.6,1184.17,497.69,1183.92,497.69Zm-51.44-.17c-4.9-2.21-7.8-5.9-8.22-10,2.43,3.13,4.89,6.19,8.66,8C1133.24,497.3,1132.87,497.52,1132.48,497.52Zm30-14.71a18.49,18.49,0,0,0-8.55-5.09c3.51-1.12,6.4,0,9.22,1.44a85.91,85.91,0,0,0,5.23-7.87c.23,3.74-1.5,6.35-3.34,8.85S1162.82,482.81,1162.51,482.81Zm-31.63-4.25c2.65-3.87,6.94-5,11.22-5-3.91,2.09-7.8,3.08-10.69,4.82A1,1,0,0,1,1130.88,478.56Zm43.84-16.46c.56-5.07,1.87-8.86,2.94-12.71.93,4.49-.41,8.36-2,12.07A1,1,0,0,1,1174.72,462.1Zm6.43-23.17a102,102,0,0,1,0-13.09c2,4.12,1.64,8.2,1,12.19A1,1,0,0,1,1181.15,438.93Zm.65-24.06c-1.39-4.88-2-8.86-2.77-12.76,2.87,3.56,3.46,7.61,3.82,11.62C1181.86,414.87,1181.83,414.87,1181.8,414.87Zm-4.8-23.58a58.79,58.79,0,0,1-3.61-7.89c-.54-1.35-1.11-2.67-1.7-4a4.27,4.27,0,0,1,3.65,3.18c1,2.36,1.85,4.82,2.66,7.3C1177.22,391.27,1177.11,391.29,1177,391.29Zm-9.94-21.92c-3-3.92-5.21-7.23-7.64-10.34,4.14,1.89,6.45,5.27,8.54,8.76C1167.43,369.33,1167.25,369.37,1167.06,369.37Zm-14.79-19c-3.53-3.1-6.54-5.75-9.68-8.18,4.49.83,7.56,3.54,10.42,6.39C1152.81,350.3,1152.54,350.4,1152.27,350.4Zm-19-14.72c-3.93-2.16-7.5-4-11.14-5.58,4.56-.29,8.21,1.58,11.68,3.62C1134,335.49,1133.62,335.68,1133.26,335.68Zm-105.57-8.74c3.76-2.83,7.72-3.55,11.7-4.21-3.61,2.73-7.56,3.45-11.5,4.19A.68.68,0,0,1,1027.69,326.94Zm83.54-.91a116.65,116.65,0,0,0-11.9-2.88c4.4-1.31,8.38-.34,12.2.82C1112.1,325.73,1111.68,326,1111.23,326Zm-59.74-3c4-2.62,8-3,11.91-3.35-3.66,2.39-7.68,2.81-11.78,3.34Zm36.08-1.43c-2.31-.18-4.61-.29-6.93-.35-1.11,0-2.23,0-3.35,0,1.13-2.1,2.27-2.08,3.4-2.06,2.36.05,4.7.17,7,.35C1088.57,321.18,1088.12,321.59,1087.57,321.59Z"/><path class="cls-7" d="M713.6,632.31a340.75,340.75,0,0,0-20.39-46.4c11.35,17.28,17,30.61,21.39,45.05C713.8,632.3,713.7,632.31,713.6,632.31Z"/><path class="cls-7" d="M592.54,450.89a8.18,8.18,0,0,0-9.38-1.83c1.18-3,6.3-4.06,10.15.07C593.06,450.8,592.8,450.89,592.54,450.89Z"/><path class="cls-7" d="M587.14,454.61c-.84-.13-1.4.22-1.65,3.24-.28,3.35.59,3.95,1.34,3.92s1.52-1.06,1.49-3.46S588.23,454.79,587.14,454.61Z"/><path class="cls-7" d="M618.59,483c-4.43-.54-6.74-1.67-8.59-3.43,3-.06,4.91.89,7,1.21a10.36,10.36,0,1,0-6.3-17c1.23-4.66,5.46-6.22,9.75-5.58A12.47,12.47,0,0,1,618.59,483Z"/><path class="cls-7" d="M620.62,477.09c-.69-.27-7.7-6.57-7.7-6.57.21-1.7,8.88-6.34,8.88-6.34,1,1.86-6.37,5.79-6.37,5.79l5.89,5.29C621.2,477,620.91,477.09,620.62,477.09Z"/><path class="cls-7" d="M597.77,503.41c-.12,0-8.61-1-8.61-1-6.94-1.26-11.87-4.24-14.7-8.87-4-6.56-2.55-14.3-2-16.5-1.56-1.68-6.32-7.18-5.53-10.9.56-.73,10.13-5.43,10.13-5.43.4-3.66,2.54-22.77,4.13-27.08.33,5.15-2.08,27.64-2.11,27.87-.58.83-10.15,5.54-10.15,5.54,0,2.45,3.24,6.71,5.44,9,.23,1.12-2.26,9.69,1.9,16.45,2.51,4.09,7,6.74,13.2,7.88l8.42,1C598.75,503,598.29,503.41,597.77,503.41Z"/><path class="cls-7" d="M518.16,783.37c3.86-15.87,15-84.77,16.21-104.23.91,19.67-10.33,88.93-15.22,103.51A1,1,0,0,1,518.16,783.37Z"/><path class="cls-7" d="M679.36,783.37c-1.13-1.59-9.65-69-7-108.33,1.19-17.92.9-39.1.68-56.12-.09-6.48-.17-12.49-.16-17.68,0-2.45,0-4.82-.1-7.13,2.16,2.27,2.2,4.67,2.19,7.13,0,5.18.08,11.18.16,17.66.23,17.05.51,38.28-.69,56.28-2.61,39.15,5.89,106.33,6,107C679.44,783.37,679.4,783.37,679.36,783.37Z"/><path class="cls-7" d="M523.55,681.38c-20.37,0-39-8.26-54.12-24.06C453.5,640.67,440,618.59,430.5,593.46c-5.5-14.2-9.87-27.78-14.93-43.51-.05-2.09,5.13-17.86,30.41-23.87,22.76-5.39,31.7,2.18,32.07,2.51s20.92,42,20.92,42c1.18,2.38,2.31,4.94,3.41,7.41,4.07,9.19,8.28,18.7,16.66,24.05,3.49,2.24,7.14,3.12,10.22,2.48s6.15-3,8.3-6.36c3.37-5.36,4.74-11.89,6.06-18.2.42-2,.83-3.94,1.29-5.85a231.2,231.2,0,0,1,7.42-25.66c5.38-14.48,14.54-25.32,26.49-31.35,11.43-5.77,20.28-8.14,32.62-10.52C599.69,511,591,513.36,579.76,519c-11.46,5.79-20.27,16.24-25.47,30.21a228.24,228.24,0,0,0-7.35,25.43c-.45,1.88-.86,3.82-1.27,5.78-1.36,6.49-2.77,13.21-6.35,18.88-2.48,3.94-5.89,6.53-9.63,7.3s-7.82-.23-11.79-2.76c-8.9-5.69-13.24-15.5-17.44-25-1.11-2.5-2.2-5-3.36-7.32l-20.57-41.5c-1.2-.89-10-6.69-30.07-1.94-22.18,5.27-28.2,18.59-29,20.74,5.19,16.14,9.55,29.69,15,43.85,9.44,24.87,22.75,46.71,38.48,63.16s35.37,24.44,56.78,23.3c23.07-1.29,46.59-14.68,61.38-34.94a115.31,115.31,0,0,0,13.1-23.57,148.38,148.38,0,0,0,7.27-22.32,157.49,157.49,0,0,0,3.1-16.63c.26-1.94.53-4.23.66-6.5,1.95,2.45,1.68,4.78,1.42,6.76a156.39,156.39,0,0,1-3.15,16.86,151.11,151.11,0,0,1-7.36,22.64,116.77,116.77,0,0,1-13.35,24c-15.15,20.76-39.27,34.48-62.95,35.8Q525.68,681.38,523.55,681.38Z"/><path class="cls-7" d="M576.54,485.1a9.47,9.47,0,0,1-3.66-.75c6.54.44,10.63-5.13,10.67-5.19C583.89,482.28,580.65,485.1,576.54,485.1Z"/><path class="cls-7" d="M611.88,462.31c-.34,0-7-.53-19.22-11-5.54-4.75-8.51-11.28-11.12-17-.61-1.33-1.21-2.65-1.82-3.91,2.51.37,3.11,1.7,3.72,3.05,2.65,5.83,5.39,11.86,10.58,16.31,11.53,9.88,17.87,10.45,17.93,10.46C612.89,461.88,612.43,462.31,611.88,462.31Z"/><path class="cls-7" d="M660.83,499.54c.38-7,8.06-62.6,4.72-71-4.89-12.26-21.75-15.7-26.81-16.47a37,37,0,0,0-12.75.45c-.88.22-3.63-.31-10.65-1.69-5.68-1.12-12.12-2.39-15.08-2.53a32.36,32.36,0,0,0-19.13,5.09c-1.62,1-3,4.95-3.56,10.46-1,9.18.14,20.37,2.34,22.6-4.47-1.55-5.44-13.76-4.43-22.83.5-4.47,1.68-10.18,4.52-12a34.89,34.89,0,0,1,20.36-5.43c3.11.15,9.63,1.44,15.39,2.57,4.24.84,9,1.68,9.84,1.7a38,38,0,0,1,13.47-.47c5.32.81,23.14,4.47,28.43,17.77,3.73,9.33-4.3,65.5-5.65,71A1,1,0,0,1,660.83,499.54Z"/><path class="cls-7" d="M941.05,562.64c-11.2,0-22.48-4.28-24.64-14.67-.48-2.28-.6-7.08-.71-11.72l-.1-3.43c-.13-4.42.57-34.63.59-35.92,2.09.36,1.37,31.49,1.51,35.85l.09,3.44c.11,4.34.23,9.26.67,11.35,2.24,10.77,15.91,14.13,27.72,12.7a45.36,45.36,0,0,0,9.7-2.06c-2,3-5.27,3.63-9.45,4.14A45.58,45.58,0,0,1,941.05,562.64Z"/><path class="cls-7" d="M972.32,569.38c-1.05-1-2.6-32.28-2.6-32.28,2.09-.11,3.65,31.18,3.65,31.18A12.21,12.21,0,0,1,972.32,569.38Z"/><path class="cls-7" d="M976,539.27a13.62,13.62,0,0,1-8.32-2.84c5.57,1.63,11.5,1.54,15.69-1.92a11.6,11.6,0,0,0,1.6-16.32,11.6,11.6,0,0,0-19.81,3.24c-1.12-3,.3-4.94,2.15-6.46a13.7,13.7,0,1,1,8.69,24.3Z"/><path class="cls-7" d="M917.43,509.89c-.93-1.54,1.59-6.81,9-4.84-6.26.53-8.07,4.2-8.09,4.24A1.06,1.06,0,0,1,917.43,509.89Z"/><path class="cls-7" d="M953.54,510.48c-5.72-6.68-10.55-3.7-10.75-3.56-1.07-1.82,5.51-5.88,11.58,1.87C954,510.41,953.77,510.48,953.54,510.48Z"/><path class="cls-7" d="M941.88,550.77a11.76,11.76,0,0,1-3.42-.51c-2.56-.77-4.54-2.31-5.17-4a4.08,4.08,0,0,1,.56-4.09,5.88,5.88,0,0,1,5.4-1.85c2.81.36,3.08.16,3.64-.26s.83-.61,1.33-3.4a5.91,5.91,0,0,1,3.36-4.61,4,4,0,0,1,4.07.68c1.34,1,2.13,3.21,2.11,5.88a12.22,12.22,0,0,1-4.73,9.78A12.07,12.07,0,0,1,941.88,550.77Zm-6.62-5.24c.31.85,1.64,2.08,3.8,2.73a9.85,9.85,0,0,0,8.73-1.56,10.13,10.13,0,0,0,3.87-8.12c0-2.21-.63-3.7-1.28-4.19a2,2,0,0,0-2-.4,3.89,3.89,0,0,0-2.07,3c-.59,3.3-1.06,3.91-2.15,4.72s-1.82,1.07-5.14.65a4,4,0,0,0-3.5,1.08,2,2,0,0,0-.23,2.06Z"/><path class="cls-7" d="M947.18,549.38c-4.84-7.55.84-13.21,4.4-15.23.69,2-7.38,6.72-3.49,13.67C947.52,549.34,947.35,549.38,947.18,549.38Z"/><path class="cls-7" d="M980.05,533.18c-.47-.11-10.29-5-10.29-5-.29-1.67,8.65-10.8,8.65-10.8C979.9,518.87,972,527,972,527l8.53,4.22C980.8,533,980.43,533.18,980.05,533.18Z"/><path class="cls-7" d="M947.88,514.67c-.85-.11-1.4.26-1.58,3.28-.19,3.36.69,3.93,1.44,3.89s1.49-1.1,1.4-3.5S949,514.82,947.88,514.67Z"/><path class="cls-7" d="M923.56,514.45c-.83-.14-1.4.2-1.68,3.21-.31,3.36.55,4,1.31,4s1.52-1.05,1.52-3.45S924.66,514.63,923.56,514.45Z"/><path class="cls-7" d="M983.94,516.73c4.42-9.83,12.07-25.19,3.81-35.81a17.66,17.66,0,0,0-7.52-5.6,23.28,23.28,0,0,0-4.53-1.13c-3.23-.33-3.56-.37-3.85-1,5.74-.79,7.46-.49,9.15.18a19.8,19.8,0,0,1,8.41,6.26c9,11.64,1,27.94-4.59,36.61A1,1,0,0,1,983.94,516.73Z"/><path class="cls-7" d="M964.79,480.08c.3-2.45,4.64-5.93,7.34-8.15.62,2.2-5.56,7.25-6.79,8A1.08,1.08,0,0,1,964.79,480.08Z"/><path class="cls-7" d="M926.88,678.62c-.8-1.73,17.28-23.19,17.28-23.19l-7.29-6.15L917,672.89c-1.6-1.36,19-25.76,19-25.76,1.48-.12,10.37,7.37,10.37,7.37.13,1.48-18.63,23.74-18.63,23.74A1.05,1.05,0,0,1,926.88,678.62Z"/><path class="cls-7" d="M945.64,656.36c-.81-1.73,2.17-5.27,2.17-5.27L940.52,645l-3,3.53c-1.61-1.35,2-5.68,2-5.68,1.48-.13,10.37,7.36,10.37,7.36.13,1.47-3.52,5.81-3.52,5.81A1.05,1.05,0,0,1,945.64,656.36Z"/><path class="cls-7" d="M923.77,695.36c3-2.89,5.62-3.71,9.2-5-2.89,3.27-5.68,4.14-8.93,5Z"/><path class="cls-7" d="M918.71,680.59c5.43-3,12.36-4.37,16.21-7-3,4.58-10.23,6-16,7A.52.52,0,0,1,918.71,680.59Z"/><path class="cls-7" d="M927.57,706.43a61.26,61.26,0,0,1,9.58-3.62c.36,2.08-3.35,3-9.48,3.62Z"/><path class="cls-7" d="M913.82,666.34a17.92,17.92,0,0,1,11.11-5.63c.08,2.09-5.7,2.53-10.57,5.48A1,1,0,0,1,913.82,666.34Z"/><path class="cls-7" d="M983.63,702.38c-1-.65-20.33-25.49-25.16-29.6-8.29-7.06-19.64-8.34-19.76-8.35.71-2,12.34-.72,21.12,6.75,5,4.25,23.82,28.48,24.62,29.52C984.08,702.31,983.85,702.38,983.63,702.38Z"/><path class="cls-7" d="M954.56,730.13c-5.61-8.34-10.78-15-12.19-15.08a53.29,53.29,0,0,1-11.5,1.14,34,34,0,0,1,9.27-2.92,14.2,14.2,0,0,1,2.23-.32c3.36,0,10.27,10.91,13.09,15.59C954.93,730.08,954.75,730.13,954.56,730.13Z"/><path class="cls-7" d="M1048.28,743.28c-12.79-21.33-47.92-43.23-62.13-50,15.89,5.28,50.8,27,63,48.45C1048.64,743.24,1048.46,743.28,1048.28,743.28Z"/><path class="cls-7" d="M1000.49,784.06a312.5,312.5,0,0,1-58.91-51c17.23,16.36,38.88,35.21,59.5,49C1001.15,783.89,1000.83,784.06,1000.49,784.06Z"/><path class="cls-7" d="M1077.79,784.06c4.39-10.55,7.59-21.7,8.1-33,1.68-36.42-12-70.38-27.35-104.85-1-2.28-2-4.7-3.12-7.19-6.58-15.35-14.77-34.45-28.28-43.27-10.07-6.57-31.79-11.64-43-13.59,3.51-1.52,31.43,3.52,44.19,11.83,14,9.17,22.36,28.59,29.06,44.2,1.06,2.49,2.09,4.89,3.11,7.17,15.47,34.71,29.22,68.92,27.53,105.79a71.09,71.09,0,0,1-9.3,32.36A1,1,0,0,1,1077.79,784.06Z"/><path class="cls-7" d="M945.64,759.12h-138c0-2.09,136.53-2.09,136.53-2.09L897.53,621h-48c0-2.1,48.8-2.1,48.8-2.1,1,.71,48.35,138.79,48.35,138.79C946.29,759,946,759.12,945.64,759.12Z"/><path class="cls-7" d="M806.41,621H760.28c0-2.1,46.13-2.1,46.13-2.1C807.46,620.57,807,621,806.41,621Z"/><path class="cls-7" d="M944.41,734.16a3.6,3.6,0,0,1-2.82-1.06c-2.15-2.38-.36-7.2,5.34-14.32-3.88,8.21-4.73,11.87-3.79,12.92,1.77,1.94,12.33-2.71,25.56-14.69s18.88-22,17.13-24c-1-1.1-3.5-.54-7.64,1.7,2.76-3.87,6.9-5.63,9.19-3.11,3.69,4.07-5.9,16.64-17.28,26.95C960.75,727,950,734.16,944.41,734.16Z"/><path class="cls-7" d="M849,620.62c9.93-18,28.18-37.15,73.78-40.51-44.54,5.38-62.36,24.1-72.91,40A1,1,0,0,1,849,620.62Z"/><path class="cls-7" d="M931.24,569.73c-1-.92-2.09-9.55-2.09-9.55,2.08-.26,3.13,8.37,3.13,8.37C931.33,569.72,931.28,569.73,931.24,569.73Z"/><path class="cls-7" d="M1014.69,710.35c-.8-30.18-18-60.13-18.13-60.43,2-.75,19.43,29.69,19.18,59.39A1.06,1.06,0,0,1,1014.69,710.35Z"/><path class="cls-7" d="M916.64,508.3c-.72-.25-20.36-11.61-11.56-29.72,3.62-7.46,11.56-13.25,21.78-15.87,15-3.84,32.09-.42,45.66,9.18-14.28-7.54-30.7-10.86-45.14-7.15-9.62,2.47-17.06,7.84-20.42,14.75-7.94,16.37,9.45,26.43,10.19,26.85C917.36,508.11,917,508.3,916.64,508.3Z"/><path class="cls-7" d="M964.79,520.8c-5-8.33-3.54-18.5-2.71-22.59-29.87,7.45-49.87-2.57-51.09-3.93,2.06-1.13,21.63,9.65,52.23,1.48.92,2.66-2,14.81,2.51,23.51C965.13,520.76,965,520.8,964.79,520.8Z"/><path class="cls-7" d="M1107,784.06H53.37C53.37,782,1107,782,1107,782,1108,783.59,1107.57,784.06,1107,784.06Z"/><path class="cls-7" d="M399.53,364.69a23.89,23.89,0,0,1,.28-14.36,32.22,32.22,0,0,1,7.37-13c-1.55,4.64-3.93,8.84-5.37,13.59a30.94,30.94,0,0,0-1.24,12.58C399.62,364.69,399.57,364.69,399.53,364.69Z"/><path class="cls-7" d="M412.47,379.34a12,12,0,0,1-3.56-.53,13.63,13.63,0,0,1-8.06-7.1c3.48,2.14,5.84,4.24,8.67,5.1,3.72,1.11,7.93,0,11.83-3.14a28.91,28.91,0,0,0,9-14.06c3.6-11.88.15-23.48-7.71-25.88a11.86,11.86,0,0,0-9.58,1.56,8.53,8.53,0,0,1,10.19-3.56c9,2.73,13,15.51,9.1,28.49a31,31,0,0,1-9.65,15.09A16.44,16.44,0,0,1,412.47,379.34Z"/><path class="cls-7" d="M414.88,364c-4.79-1.25-6.32-5.78-4.88-10.53a11,11,0,0,1,3.43-5.34,5.56,5.56,0,0,1,5.21-1.29c3.4,1,4.93,5.57,3.48,10.31C420.88,361.22,417.87,364,414.88,364Zm2.38-15.27a4.06,4.06,0,0,0-2.51,1A8.78,8.78,0,0,0,412,354c-1.07,3.51-.11,7,2.09,7.7s5-1.72,6-5.23.11-7-2.09-7.71A2.87,2.87,0,0,0,417.26,348.69Z"/><path class="cls-7" d="M261.3,333.91c-4.72-1.39-8.09-5.15-9.78-10.62a31,31,0,0,1,.37-17.91c3.94-13,14.44-21.31,23.42-18.6-8.5-.4-17.8,7.33-21.41,19.21a28.86,28.86,0,0,0-.38,16.68c1.49,4.79,4.36,8.05,8.09,9.19C262.17,333.62,261.75,333.91,261.3,333.91Z"/><path class="cls-7" d="M422.91,333.78c-.3,0-36.17-10.95-36.17-10.95.61-2,36.48,8.9,36.48,8.9C423.78,333.49,423.36,333.78,422.91,333.78Z"/><path class="cls-7" d="M359.55,314.53c-.3,0-84.85-25.74-84.85-25.74.61-2,85.15,23.69,85.15,23.69C360.42,314.23,360,314.53,359.55,314.53Z"/><path class="cls-7" d="M407.63,378.38c-.3-.05-146.63-44.52-146.63-44.52.61-2,146.94,42.47,146.94,42.47C408.5,378.09,408.08,378.38,407.63,378.38Z"/><path class="cls-7" d="M315.86,403C315.44,401,386.4,370,386.4,370c.84,1.93-70.12,32.85-70.12,32.85A1.14,1.14,0,0,1,315.86,403Z"/><path class="cls-7" d="M312.15,444.86c-1-1.35,9.6-37.09,9.6-37.09.58-.66,77-34,77-34,.84,1.93-75.15,35-75.15,35L313.16,444.1A1.07,1.07,0,0,1,312.15,444.86Z"/><path class="cls-7" d="M243.26,677.18c-1-1.34,10-38.44,10-38.44,2,.59-9,37.69-9,37.69A1.06,1.06,0,0,1,243.26,677.18Z"/><path class="cls-7" d="M241.58,653.77c-1-1.34,3.8-17.72,3.8-17.72,2,.59-2.79,17-2.79,17A1.06,1.06,0,0,1,241.58,653.77Z"/><path class="cls-7" d="M293.45,476.76c-1-1.34.13-5.24.13-5.24,2,.58.87,4.48.87,4.48A1.05,1.05,0,0,1,293.45,476.76Z"/><path class="cls-7" d="M304.13,441.55c-1-1.35,10.72-39.93,10.72-39.93,2,.62-9.71,39.19-9.71,39.19A1,1,0,0,1,304.13,441.55Z"/><path class="cls-7" d="M180.86,497.89c6.23-2.67,10.79-5,13.45-8.92,5-7.39,1.83-18.21,1.79-18.31l-9.36-38.24c2-.5,11.38,37.69,11.38,37.69.13.43,3.46,11.83-2.07,20-3,4.49-8.11,7.1-15.09,7.75Z"/><path class="cls-7" d="M198.26,464.74a4.53,4.53,0,0,1-4.35-3.3c7.19.51,7.94-.83,7.58-2.12l-6.14-21.9a2.42,2.42,0,0,0-3-1.68c-3.4-.82-2.5-1.48-1.45-1.77,3.3-.92,5.79.48,6.47,2.88l6.14,21.9a4.54,4.54,0,0,1-3.14,5.58A7.46,7.46,0,0,1,198.26,464.74Z"/><path class="cls-7" d="M127.07,531.69a91.53,91.53,0,0,1-13.64-1c-4.14-.63-11.66-2.62-15.39-8.94-2.65-4.48-3-10.85-1-17.47a29.72,29.72,0,0,1,4.37-8,32.6,32.6,0,0,0,3.65-6.2c4.16-10.22,2-23.42.35-34-6.39-40.2,14.49-48.44,23.75-50.2,11.25-2.14,23.06,1.41,25.35,2.17,18.78-7.66,27.8-1.14,27.89-1.08,2.53,1.81,4.21,6,5.54,9.9a26.17,26.17,0,0,1-2.8,22.86,36.44,36.44,0,0,1-11.89,11.51,39.2,39.2,0,0,0-4.7,3.38A11.81,11.81,0,0,0,166.5,457c-1.05-2.23-.22-3.2.68-4a40.92,40.92,0,0,1,4.95-3.58,37.25,37.25,0,0,0,4.93-3.56,36.45,36.45,0,0,0,6.33-7.32A24.07,24.07,0,0,0,186,417.52c-.67-2-2.45-7.21-4.79-8.89-.08-.06-8.6-5.83-26.21,1.47-.87,0-13.67-4.4-25.4-2.19-8.66,1.64-28.17,9.42-22.36,46,2,12.65,4.2,26.17-.19,36.94a35.15,35.15,0,0,1-3.87,6.61,27.77,27.77,0,0,0-4.09,7.45c-.87,2.87-2.55,10.15.78,15.79s10.13,7.37,13.91,7.94a107.68,107.68,0,0,0,29-.08c9.32-1.19,17.87-2.62,24.49-7.47a30.66,30.66,0,0,0,11.55-17.06c1.55-6.25.64-12.08-2.49-16a37.34,37.34,0,0,0-5.37-5.11c-1.26-1-2.55-2.13-3.75-3.31a5.73,5.73,0,0,1,5.09,1.7,39.55,39.55,0,0,1,5.67,5.4c3.54,4.42,4.59,10.91,2.88,17.81a32.74,32.74,0,0,1-12.34,18.24c-7,5.14-15.89,6.63-23.64,7.63A140.16,140.16,0,0,1,127.07,531.69Z"/><path class="cls-7" d="M591.58,145.23a17.13,17.13,0,1,1,4.51-33.65,17.13,17.13,0,0,1-4.51,33.65Zm0-32.16a15,15,0,1,0,14.52,19,15,15,0,0,0-14.52-19Z"/><path class="cls-7" d="M279.19,642.14a107.66,107.66,0,0,1-25.8-3.37c-33.15-8.58-60.67-32.68-83.23-55.11,23.83,20.75,51.09,44.62,83.75,53.09,7.68,2,34.13,7.67,52.2-2.88,13.23-7.72,19.17-23.45,23.63-39.3,3.88-13.84,6.55-29.06,8.64-49.35,1.83-17.77,2.89-36.78,3.43-61.58A97.9,97.9,0,0,0,315.76,478c-16.79-1.18-26.24-.2-28.74.12-2,8.23-20.66,87.39-18.68,118.62-4.19-33,16.6-118.93,16.81-119.8,1.23-.86,10.72-2.45,30.76-1A99,99,0,0,1,343.27,482a572.61,572.61,0,0,1-2.81,63.48c-2.1,20.41-4.79,35.74-8.71,49.7-4.57,16.27-10.71,32.45-24.6,40.55C298.7,640.62,288.53,642.14,279.19,642.14Z"/><path class="cls-7" d="M269.71,561.4c-11.66-7.57-21.14-14.48-29.5-20.57-29.87-21.77-44.86-32.7-68.83-20.5,24.18-14.65,40.48-2.77,70.07,18.8,8.34,6.09,17.8,13,28.85,20.35C270.38,561.23,270.05,561.4,269.71,561.4Z"/><path class="cls-7" d="M161.62,480.74A12.46,12.46,0,1,1,168.71,458c-2.93.53-5-.1-7.09-.1a10.54,10.54,0,0,0-7.35,3.06,10.37,10.37,0,1,0,16.19,12.75c-.5,4.78-4.45,7-8.78,7Z"/><path class="cls-7" d="M158.79,475.23c-.63-1.88,6-6.9,6-6.9L158.18,464c1.14-1.76,9,3.37,9,3.37.06,1.72-7.79,7.64-7.79,7.64A1,1,0,0,1,158.79,475.23Z"/><path class="cls-7" d="M256,783.37c-3.13-7.12-17.3-131.13-17.3-149.58,2.1,18.05,16.44,142.65,18.3,148.2C256.26,783.35,256.15,783.37,256,783.37Z"/><path class="cls-7" d="M96.16,783.37c-.89-2,13.13-79.62,9.15-118.6-.76-7.33-1.82-15-3-23.09-5.17-36.93-11-78.77,10.34-112.55-19.18,34.25-13.38,75.69-8.27,112.26,1.13,8.12,2.2,15.8,3,23.16,4,39.28-10,117.18-10.2,118A1,1,0,0,1,96.16,783.37Z"/><path class="cls-7" d="M854.13,492.88c-91.17,0-165.35-74.18-165.35-165.36S763,162.18,854.13,162.18s165.36,74.17,165.36,165.34a165.36,165.36,0,0,1-56.72,124.66c34.21-32.61,54.62-77.47,54.62-124.66,0-90-73.24-163.25-163.26-163.25S690.88,237.5,690.88,327.52s73.24,163.26,163.25,163.26a163.93,163.93,0,0,0,33.81-3.51C877.2,491.68,865.68,492.88,854.13,492.88Z"/><path class="cls-7" d="M268.3,516.12H216.41c0-2.1,51.89-2.1,51.89-2.1C269.34,515.65,268.87,516.12,268.3,516.12Z"/><path class="cls-7" d="M400.64,516.12h-51c0-2.1,51-2.1,51-2.1C401.69,515.65,401.21,516.12,400.64,516.12Z"/><path class="cls-7" d="M448,515.78c11.31-4,20-14.22,20-25.85V244a24.13,24.13,0,0,0-24.1-24.1H369.36c0-2.1,74.49-2.1,74.49-2.1a26.24,26.24,0,0,1,26.2,26.2v246a26.45,26.45,0,0,1-21.9,25.83Z"/><path class="cls-7" d="M172.74,390.17c-1.05-1-1.05-146.21-1.05-146.21a26.23,26.23,0,0,1,26.2-26.2h71.82c0,2.1-71.82,2.1-71.82,2.1a24.13,24.13,0,0,0-24.1,24.1V389.13A1,1,0,0,1,172.74,390.17Z"/><path class="cls-7" d="M507.84,728.76H370.42c-14.72,0-26.69-11.76-26.69-26.2V619.49c2.11,0,2.11,83.07,2.11,83.07,0,13.28,11,24.08,24.58,24.08H507.84C508.89,728.28,508.42,728.76,507.84,728.76Z"/><path class="cls-7" d="M763.92,728.76H713.5c0-2.12,50.42-2.12,50.42-2.12C765,728.28,764.51,728.76,763.92,728.76Z"/><path class="cls-7" d="M858.28,599.61c-1.06-1.06-1.06-98.72-1.06-98.72,2.11,0,2.11,97.66,2.11,97.66A1.06,1.06,0,0,1,858.28,599.61Z"/><path class="cls-7" d="M678.82,346.72H481.37c0-2.1,197.45-2.1,197.45-2.1C679.87,346.25,679.4,346.72,678.82,346.72Z"/><path class="cls-7" d="M295,476.76c-.93-4.91-1.21-6.91-2-8.21-9-14.25-6.89-26.4-1.93-33,3.94-5.26,10-7.51,15.79-5.86-5.59.59-10.65,2.49-14.11,7.12-4.54,6.07-6.4,17.3,2,30.66,1.09,1.71,1.44,4,1.31,8.3A1.06,1.06,0,0,1,295,476.76Z"/><path class="cls-7" d="M192.59,515.29c-5.77-4.8-11.7-9.66-12.84-9.95.37-2.14,1.86-2.33,13.54,8.12C193.17,515.17,192.88,515.29,192.59,515.29Z"/><path class="cls-7" d="M311.33,444.88a15.88,15.88,0,0,1-3.43-.38,10.61,10.61,0,0,1-7.21-5.35c2-.69,3.54,2.38,7.67,3.3a11.06,11.06,0,0,0,7-.44C316.25,443.92,314.4,444.88,311.33,444.88Z"/><path class="cls-7" d="M807.64,759.12c-1-.71-15.89-44.16-15.89-44.16,2-.68,16.88,42.77,16.88,42.77C807.86,759.1,807.75,759.12,807.64,759.12Z"/><path class="cls-7" d="M775.82,666.34c-1-.7-16.53-46-16.53-46,2-.68,17.53,44.62,17.53,44.62C776.05,666.32,775.93,666.34,775.82,666.34Z"/><path class="cls-7" d="M788.91,715.65c-9.08,0-16.28-2.06-19.68-5.89-2.91-3.28-5.19-7.62-7-13.26a75.66,75.66,0,0,1-3.37-26.58c.54-9.85,10.76-18.92,11.2-19.3,1.28,1.66-8.61,10.46-9.11,19.42a73.26,73.26,0,0,0,3.28,25.82c1.69,5.36,3.83,9.45,6.53,12.5,3.6,4.07,14.38,6.89,30.39,4,4.79-.85,13.28-5.06,12.19-11.37a5.65,5.65,0,0,0-3.24-4.2c3.26-.78,4.88,1.31,5.31,3.84,1.28,7.5-7.53,12.66-13.9,13.8A72.83,72.83,0,0,1,788.91,715.65Z"/><path class="cls-7" d="M793.43,684.1c-7.64,0-17.48-.55-19.08-1.06,2.42-1.43,22.48-.5,26.94-1.43,2.7-.53,5.61-1.1,6.53-2.8a8.46,8.46,0,0,0,.54-7.32,9,9,0,0,0-4.77-4.46c-1.91-.89-4-.64-6.18-.38-23.27,2.05-27.51-2.49-27.93-3,1.75-1.2,5.93,2.86,26,1.11,4-.45,6.5-.76,9,.37a11,11,0,0,1,5.81,5.54,10.55,10.55,0,0,1-.61,9.15c-1.39,2.57-4.89,3.25-7.2,3.71A49.32,49.32,0,0,1,793.43,684.1Z"/><path class="cls-7" d="M787.69,700.52c-7,0-12.6-.43-12.7-.44.34-2.07,17.06-.77,29-2.73,4.3-.71,8.58-3.8,7.81-8.94a10.35,10.35,0,0,0-4.93-6.75,7.18,7.18,0,0,1,7,6.44c1,6.54-4.26,10.45-9.55,11.31A106.22,106.22,0,0,1,787.69,700.52Z"/><path class="cls-7" d="M806.41,784.06c-26.71-13.29-35.41-54-39.12-71.42-.65-3-1.16-5.45-1.6-7,2.47,1,3,3.45,3.65,6.53,3.65,17.1,12.2,57.15,37.54,69.87C807.16,783.84,806.79,784.06,806.41,784.06Z"/><path class="cls-7" d="M822,409.44a44.68,44.68,0,0,1-18.51-4.27c-11.23-5.11-21-13.22-29.78-24.8-10.33-13.58-18.27-29.45-25-49.94-1.7-5.2-3.14-10.36-4.67-15.83q-1-3.72-2.1-7.48c.72-1.3,22.55-7.32,22.55-7.32,2.16-.59,4.32-1.18,6.47-1.8a2.84,2.84,0,0,1,3.41,1.16c10.13,13.72,23,26.7,39.45,39.7,4.29,3.41,8.89,4.35,14.48,3,4.79-1.17,9.55-3.35,15.41-7.05,12.59-8,23.5-18.12,32.52-27,16.62-16.35,33.39-35.38,51.26-58.15a3.57,3.57,0,0,1,4.34-1.46c7.38,2.11,14.77,4.16,22.17,6.2l7.68,2.13c-20.27,40.42-41.53,71.22-63.48,97.62-11,13.22-24.5,28.39-41.27,40.63a127.11,127.11,0,0,1-16.07,9.82A40.26,40.26,0,0,1,822,409.44ZM744.24,307.56c.63,2.17,1.23,4.33,1.83,6.48,1.51,5.44,2.94,10.58,4.64,15.74,6.65,20.26,14.5,35.93,24.69,49.33,8.58,11.29,18.06,19.19,29,24.15,12.29,5.58,24.24,5.42,35.51-.49a123.19,123.19,0,0,0,15.82-9.66c16.58-12.1,30-27.15,40.88-40.27,21.88-26.31,43.08-57,64.8-93.87-.27-.39-7.94-2.52-7.94-2.52-7.4-2-14.8-4.09-22.19-6.2-1-.31-1.4-.19-2.12.73-17.92,22.85-34.74,41.94-51.44,58.36-9.08,8.93-20.1,19.16-32.86,27.25-6.06,3.84-11,6.09-16,7.31-6.19,1.5-11.51.39-16.28-3.4-16.57-13.11-29.6-26.23-39.84-40.1a36.16,36.16,0,0,0-7.64,1.42Z"/><path class="cls-7" d="M335.42,480.68c-.77-4.22.49-8.7,1.82-13.44,2.48-8.83,5.56-19.82,2.55-23.66-6.52-8.32-22.61-14-22.78-14.08,1.38-1.73,17.54,4,24.44,12.8,3.65,4.66.55,15.74-2.19,25.51-1.3,4.64-2.54,9-2.79,11.91A1,1,0,0,1,335.42,480.68Z"/><path class="cls-7" d="M678.2,749.63c2.2-1.59,5.41-2.88,7.5-5.43l31-37.85c1.46,1.2-29.54,39-29.54,39A11.54,11.54,0,0,1,678.2,749.63Z"/><path class="cls-7" d="M734.94,686.51c-.73-1.54,10.58-15.34,10.58-15.34a9.74,9.74,0,0,0-1.36-13.67l-71-58.18c1.19-1.45,72.24,56.73,72.24,56.73A11.62,11.62,0,0,1,747,672.37l-11.31,13.8A.9.9,0,0,1,734.94,686.51Z"/><path class="cls-7" d="M638.33,518.77c-14-.11-23.45-3.89-28-11.23-7.22-11.58.31-27.54.64-28.22,1.81,1.06-5.47,16.52,1.14,27.12,4.18,6.69,13,10.13,26.26,10.23C639.37,518.3,638.9,518.77,638.33,518.77Z"/><path class="cls-7" d="M646.53,526.24c-.7-.26-8.9-7.75-8.9-7.75-.49-.91-2.09-5.81,8.59-14.93,7.45-6.38,14.35-6.11,14.66-6.11.56.2,9.56,6.72,9.56,6.72-.27,1.84-4.22,3.41-13.06,10.53s-9.82,10.73-9.83,10.77C646.73,526.23,646.63,526.24,646.53,526.24Zm-7.26-9.08,6.9,6.3c1-1.84,3.59-5.31,9.9-10.4a82.41,82.41,0,0,1,11.73-8.22l-7.31-5.3c-1.32,0-6.94.51-12.91,5.61C639.24,512.27,639.17,516.27,639.27,517.16Z"/><path class="cls-7" d="M591.59,514c-1.05-1.13-.17-11.72-.17-11.72,2.09.17,1.21,10.76,1.21,10.76A1,1,0,0,1,591.59,514Z"/><path class="cls-7" d="M671.67,594a33.58,33.58,0,0,1-26.19-12.26c-6.08-7.66-7-16.54-2.32-23.17,10.62-15.18,2.51-32.72,2.43-32.9,2-.71,10.62,17.91-.71,34.1-4.1,5.85-3.24,13.76,2.24,20.66,7.22,9.09,21.83,15.32,38.2,8.73,11.37-4.58,18.44-13.19,19.91-24.26,2.44-18.37-10.7-39.89-36-59,27.22,17.94,40.65,40.16,38.11,59.3-1.58,11.85-9.11,21.06-21.21,25.94A38.63,38.63,0,0,1,671.67,594Z"/><path class="cls-7" d="M418.17,546.11c-12.27-13.43-23.51-42.54-22.62-50.2a7.79,7.79,0,0,1,6.46-7.08,6.16,6.16,0,0,1,3.95-6.65,8.83,8.83,0,0,1,3.24-.71,6.39,6.39,0,0,1,4.87,2.88c.22.55,5.15,60.63,5.15,60.63C418.45,546.08,418.31,546.11,418.17,546.11Zm-9.12-62.54a5.72,5.72,0,0,0-2.25.53,4.09,4.09,0,0,0-2.51,5.31c-1.19,1.38-6.05,1.54-6.65,6.75-.79,6.7,9,32.16,19.21,45.62l-4.63-56.39a4.17,4.17,0,0,0-3.07-1.82Z"/><path class="cls-7" d="M448.38,516.43a9.68,9.68,0,0,1-4.95-2l-17.13-1.84c-3.52-4.44-10-17.48-11.69-21.62-2-4.53-3.85-8.53-2.52-11.68a6.45,6.45,0,0,1,4.06-3.47c6.79-2.46,9.44,3.74,11.19,7.83.33.77.79,1.93,1.35,3.31A150.14,150.14,0,0,0,435,501.27c1.39,2.45,5.38,8.17,9.22,11.17l6.94.75C450.86,515.93,449.68,516.43,448.38,516.43ZM427,510.6l13.63,1.46a56.11,56.11,0,0,1-7.45-9.75,151.72,151.72,0,0,1-6.44-14.53c-.55-1.37-1-2.52-1.34-3.28-2.4-5.6-4.37-8.18-8.56-6.68a4.41,4.41,0,0,0-2.83,2.31c-1,2.31.62,5.82,1.79,8.38C418.12,494.05,424.22,506.34,427,510.6Z"/><path class="cls-7" d="M465.19,525.91c-2.63-6.8-2.27-13.37-1.94-19.18l.13-2.45c2.1,0,2.86,20.54,2.86,20.54C465.29,525.9,465.24,525.91,465.19,525.91Z"/><path class="cls-7" d="M416,519c-.93-.56-4.22-6.74-7.87-13.71-3.06-5.84-5.71-14.89-5.82-15.27,2-.5,4.71,8.65,7.68,14.3,3.64,7,6.93,13.13,6.93,13.14C416.31,519,416.15,519,416,519Z"/><path class="cls-7" d="M931,538.09c-4.05-.08-6.07-1.71-7.05-3.07a6.13,6.13,0,0,1-1-5.17c.22-.69.88-1,2-1.49,1.73-.79,4.36-2,5.1-4.58,1.1-3.8,1.35-16.42,1.35-16.55,2.08.57,1.84,13.07.66,17.13-1,3.52-4.42,5.07-6.25,5.91a2.62,2.62,0,0,0-.15,3.52c1,1.39,2.86,2.16,5.37,2.21C932,537.64,931.53,538.09,931,538.09Z"/><path class="cls-7" d="M745.17,199.37a21.28,21.28,0,0,1-3-2.73c2.29-.64,3.06.17,3.81,1C745.69,199.27,745.43,199.37,745.17,199.37Zm-10.84-10.9c-3.62-3-6.62-5.74-9.63-8.34,4.4,1,7.42,3.76,10.35,6.54C734.89,188.36,734.61,188.47,734.33,188.47Zm-18.27-15.74c-3.77-2.68-7-5.09-10.28-7.38,4.51.6,7.78,3,10.93,5.5C716.68,172.59,716.38,172.73,716.06,172.73Zm-19.72-13.88c-3.94-2.28-7.42-4.34-10.89-6.26,4.52.11,8,2.18,11.45,4.33C697,158.68,696.69,158.85,696.34,158.85Zm-21.08-11.68c-4.08-1.85-7.77-3.49-11.41-5,4.48-.42,8.2,1.25,11.86,3C676,147,675.65,147.17,675.26,147.17ZM653,138c-4.07-1.34-7.93-2.53-11.8-3.6,4.47-.94,8.37.27,12.14,1.56C653.81,137.73,653.4,138,653,138Zm-23.24-6.38c-4.14-.84-8.11-1.54-12-2.1,4.25-1.51,8.26-.81,12.23,0C630.65,131.27,630.21,131.62,629.73,131.62Z"/><path class="cls-7" d="M426.35,210.4a31.54,31.54,0,0,1,5.24-12c-.41,4.46-2.45,7.93-4.31,11.45A1,1,0,0,1,426.35,210.4Zm13.17-20.16c1.67-4.85,4.35-7.93,7.16-10.86-1.25,4.33-3.89,7.37-6.34,10.46A1.07,1.07,0,0,1,439.52,190.24Zm16.61-17.42c2.3-4.46,5.48-7,8.78-9.45-2,4.09-5.14,6.61-8.08,9.18A1.06,1.06,0,0,1,456.13,172.82Zm19.38-14.3c2.83-4,6.37-6.07,10-8-2.59,3.72-6.09,5.72-9.43,7.8A1,1,0,0,1,475.51,158.52Zm21.32-11.22c3.24-3.63,7-5.16,10.8-6.56-3,3.34-6.75,4.86-10.37,6.47A1.11,1.11,0,0,1,496.83,147.3Zm22.58-8.41c3.48-3.23,7.4-4.34,11.34-5.35-3.38,3-7.27,4.13-11,5.3A1.18,1.18,0,0,1,519.41,138.89Zm23.34-6c3.62-2.87,7.62-3.62,11.67-4.29-3.68,2.73-7.65,3.47-11.45,4.27A.86.86,0,0,1,542.75,132.88ZM566.54,129c-.12-2.09,2.28-2.35,2.28-2.35.22,2.09-2.17,2.34-2.17,2.34Z"/><path class="cls-7" d="M853,632.31H810c0-2.09,43-2.09,43-2.09C854,631.84,853.54,632.31,853,632.31Z"/><path class="cls-7" d="M843.25,604h-42c0-2.1,42-2.1,42-2.1C844.3,603.53,843.83,604,843.25,604Z"/><path class="cls-7" d="M853,632.31c-1-.7-10.7-29-10.7-29,2-.68,11.7,27.63,11.7,27.63C853.19,632.29,853.07,632.31,853,632.31Z"/><path class="cls-7" d="M810,632.31c-1-.7-10.7-29-10.7-29,2-.68,11.7,27.63,11.7,27.63C810.23,632.29,810.12,632.31,810,632.31Z"/><path class="cls-7" d="M959.52,636.22c-.9-.51-19.4-31.44-19.4-31.44l-16.46,22.86c-1.9-.61-1.9-46.48-1.9-46.48.18-.59,8.61-13.06,8.61-13.06,1.89.32,10.36,32.67,10.36,32.67l30.82-33.15c1.53,0,13.5,12.82,13.5,12.82.19,1.15-24.58,55.17-24.58,55.17A6.4,6.4,0,0,1,959.52,636.22ZM941.5,603l17.89,29.91L983,581.36l-10.72-11.49Zm-17.64-21.53v42.3l15.2-21.12-8.24-31.48Z"/><path class="cls-7" d="M945.9,665.41c4.17-18,8-29.2,10.31-34.58-.39,6.15-4.16,17.25-9.31,33.84A1,1,0,0,1,945.9,665.41Z"/><path class="cls-7" d="M921.2,663.09c-.38-26.16,2-38.19,2-38.31,2,.53-.35,12.42-1,37.29A1.06,1.06,0,0,1,921.2,663.09Z"/><path class="cls-7" d="M942.08,636.22l-12-1.14c-.94-1-2.19-16.43-2.19-16.43,2.09-.17,3.27,14.43,3.27,14.43l10.45,1,9.18-12.73c1.71,1.23-7.82,14.45-7.82,14.45A1.07,1.07,0,0,1,942.08,636.22Z"/><path class="cls-7" d="M921.65,652.16c-.94-1.52,7.57-18.59,7.57-18.59,1.87.94-6.63,18-6.63,18A1.07,1.07,0,0,1,921.65,652.16Z"/><path class="cls-7" d="M945.35,648.7c-1-.78-4.28-13.26-4.28-13.26,2-.53,5.29,11.95,5.29,11.95C945.52,648.69,945.43,648.7,945.35,648.7Z"/><path class="cls-7" d="M822.26,523.19H742.94c0-2.09,79.32-2.09,79.32-2.09C823.31,522.72,822.84,523.19,822.26,523.19Z"/><path class="cls-7" d="M822.26,544H742.94c0-2.1,79.32-2.1,79.32-2.1C823.31,543.49,822.84,544,822.26,544Z"/><path class="cls-7" d="M822.26,563.51H742.94c0-2.1,79.32-2.1,79.32-2.1C823.31,563,822.84,563.51,822.26,563.51Z"/><path class="cls-7" d="M539.2,422.27H492.75c-1.05-1-1.05-47.51-1.05-47.51,1.05-1,47.5-1,47.5-1,1,1,1,47.5,1,47.5A1,1,0,0,1,539.2,422.27Zm-45.4-2.1h44.35V375.81H493.8Z"/><path class="cls-7" d="M420.14,683.74H385.35c-1.06-1-1.06-35.84-1.06-35.84,1.06-1,35.85-1,35.85-1,1.06,1,1.06,35.84,1.06,35.84A1.06,1.06,0,0,1,420.14,683.74Zm-33.73-2.11h32.67V649H386.41Z"/><path class="cls-7" d="M178.36,407.34c-.66-1.87,7.79-10.37,27.58-30.82,28.44-29.36,65.37-3.47,65.73-3.2L308,394.92a42.43,42.43,0,0,0,11.55,4.51,17.91,17.91,0,0,1-12.62-2.7l-36.36-21.66c-.43-.3-35.9-25.16-63.08,2.91-19.81,20.46-28.27,29-28.35,29A1.07,1.07,0,0,1,178.36,407.34Z"/><path class="cls-7" d="M468.59,415.81c-.48-.11-45.72-23.23-45.72-23.23-10.83-5.55-29-6.9-40.53-3l-33.92,11.5a43,43,0,0,1-12,2.08c4.14-2.28,8.09-3,11.33-4.06l33.91-11.51c12-4.06,30.9-2.67,42.16,3.11l45.24,23.11C469.33,415.6,469,415.81,468.59,415.81Z"/><path class="cls-7" d="M422.56,323.5a27.05,27.05,0,1,1,27-27.05A27.09,27.09,0,0,1,422.56,323.5Zm0-52a25,25,0,1,0,24.95,25A25,25,0,0,0,422.56,271.49Z"/><path class="cls-7" d="M490.49,672.82c5.6-13.25,18.67-20.57,33.23-20.57,14.31,0,27.28,7.14,33.84,18.63-7.94-9.88-20.24-16.65-33.84-16.65-13.84,0-26.23,6.93-32.36,18.08A1,1,0,0,1,490.49,672.82Z"/><path class="cls-7" d="M266.34,641.11c-.52-14.46,7.84-26.89,20.84-33.45,12.77-6.46,27.56-5.93,38.61,1.38a43.86,43.86,0,0,0-37.72.39c-12.34,6.24-20.29,18-20.73,30.72A1,1,0,0,1,266.34,641.11Z"/><path class="cls-7" d="M864.11,665.41H811.17c0-2.1,52.94-2.1,52.94-2.1C865.16,664.94,864.69,665.41,864.11,665.41Z"/><path class="cls-7" d="M871.52,680.59H818.58c0-2.1,52.94-2.1,52.94-2.1C872.57,680.12,872.1,680.59,871.52,680.59Z"/><path class="cls-7" d="M878.91,696H826c0-2.1,52.94-2.1,52.94-2.1C880,695.5,879.48,696,878.91,696Z"/><path class="cls-7" d="M854.13,783.27c-1-1-1-25.57-1-25.57,2.09,0,2.09,24.53,2.09,24.53A1,1,0,0,1,854.13,783.27Z"/></svg>